<svg width="32" height="32" viewBox="0 0 32 32" fill="none" xmlns="http://www.w3.org/2000/svg">
<path fill-rule="evenodd" clip-rule="evenodd" d="M23.155 23.13H20.2737V18.622C20.2737 17.5464 20.2556 16.164 18.7768 16.164C17.2778 16.164 17.0488 17.3354 17.0488 18.5443V23.13H14.1702V13.8586H16.9322V15.1265H16.9725C17.3562 14.3978 18.2965 13.6289 19.6984 13.6289C22.6158 13.6289 23.1543 15.5484 23.1543 18.0453V23.13H23.155ZM10.9218 12.5928C10.7022 12.593 10.4847 12.5499 10.2818 12.466C10.0789 12.382 9.89452 12.2589 9.73924 12.1036C9.58397 11.9483 9.46083 11.764 9.37688 11.561C9.29293 11.3581 9.24982 11.1407 9.25 10.9211C9.25 10.5906 9.34797 10.2676 9.53153 9.99282C9.71509 9.71804 9.97599 9.50386 10.2813 9.37734C10.5865 9.25082 10.9225 9.21764 11.2466 9.28201C11.5707 9.34637 11.8684 9.50539 12.1022 9.73896C12.336 9.97252 12.4952 10.2701 12.5599 10.5942C12.6245 10.9183 12.5916 11.2542 12.4653 11.5596C12.3391 11.865 12.1251 12.1261 11.8505 12.3098C11.5759 12.4936 11.2529 12.5919 10.9225 12.5921L10.9218 12.5928ZM12.3631 23.13H9.47901V13.8586H12.3631V23.13Z" fill="#C1CADF"/>
</svg>
