<svg width="18" height="18" viewBox="0 0 18 18" fill="none" xmlns="http://www.w3.org/2000/svg">
<g clip-path="url(#clip0_3203_5303)">
<path d="M9 2.59275C8.6895 2.59275 8.4375 2.34075 8.4375 2.03025V0.5625C8.4375 0.252 8.6895 0 9 0C9.3105 0 9.5625 0.252 9.5625 0.5625V2.03025C9.5625 2.34075 9.3105 2.59275 9 2.59275Z" fill="#8A8886"/>
<path d="M13.9283 4.63426C13.7843 4.63426 13.6403 4.57951 13.5308 4.46926C13.311 4.24951 13.311 3.89326 13.5308 3.67351L14.5688 2.63552C14.7885 2.41577 15.1448 2.41577 15.3645 2.63552C15.5843 2.85527 15.5843 3.21151 15.3645 3.43126L14.3265 4.46926C14.2163 4.57876 14.0723 4.63426 13.9283 4.63426Z" fill="#8A8886"/>
<path d="M17.4372 9.5625H15.9695C15.659 9.5625 15.407 9.3105 15.407 9C15.407 8.6895 15.659 8.4375 15.9695 8.4375H17.4372C17.7477 8.4375 17.9997 8.6895 17.9997 9C17.9997 9.3105 17.7477 9.5625 17.4372 9.5625Z" fill="#8A8886"/>
<path d="M14.9663 15.5287C14.8223 15.5287 14.6783 15.4739 14.5688 15.3637L13.5308 14.3257C13.311 14.1059 13.311 13.7497 13.5308 13.5299C13.7505 13.3102 14.1068 13.3102 14.3265 13.5299L15.3645 14.5679C15.5843 14.7877 15.5843 15.1439 15.3645 15.3637C15.2543 15.4739 15.1103 15.5287 14.9663 15.5287Z" fill="#8A8886"/>
<path d="M3.03375 15.5287C2.88975 15.5287 2.74575 15.4739 2.63625 15.3637C2.4165 15.1439 2.4165 14.7877 2.63625 14.5679L3.67425 13.5299C3.894 13.3102 4.25025 13.3102 4.47 13.5299C4.68975 13.7497 4.68975 14.1059 4.47 14.3257L3.432 15.3637C3.32175 15.4739 3.17775 15.5287 3.03375 15.5287Z" fill="#8A8886"/>
<path d="M2.03025 9.5625H0.5625C0.252 9.5625 0 9.3105 0 9C0 8.6895 0.252 8.4375 0.5625 8.4375H2.03025C2.34075 8.4375 2.59275 8.6895 2.59275 9C2.59275 9.3105 2.34075 9.5625 2.03025 9.5625Z" fill="#8A8886"/>
<path d="M4.07175 4.63426C3.92775 4.63426 3.78375 4.57951 3.67425 4.46926L2.63625 3.43126C2.4165 3.21151 2.4165 2.85527 2.63625 2.63552C2.856 2.41577 3.21225 2.41577 3.432 2.63552L4.47 3.67351C4.68975 3.89326 4.68975 4.24951 4.47 4.46926C4.359 4.57876 4.21575 4.63426 4.07175 4.63426Z" fill="#8A8886"/>
<path d="M11.25 15.75V16.6875C11.25 17.4075 10.6575 18 9.9375 18H8.0625C7.4325 18 6.75 17.52 6.75 16.47V15.75H11.25Z" fill="#8A8886"/>
<path d="M12.3072 4.91995C11.0772 3.92245 9.45724 3.53245 7.87474 3.86995C5.88724 4.28245 4.27474 5.90245 3.86224 7.88995C3.44224 9.92995 4.20724 11.9549 5.84224 13.1924C6.28474 13.5224 6.59224 14.0324 6.69724 14.6249V14.6324C6.71224 14.6249 6.73474 14.6249 6.74974 14.6249H11.2497C11.2647 14.6249 11.2722 14.6249 11.2872 14.6324V14.6249C11.3922 14.0549 11.7297 13.5299 12.2472 13.1249C13.5147 12.1199 14.2497 10.6199 14.2497 8.99995C14.2497 7.40995 13.5447 5.92495 12.3072 4.91995ZM11.8122 9.37495C11.5047 9.37495 11.2497 9.11995 11.2497 8.81245C11.2497 7.67245 10.3272 6.74995 9.18724 6.74995C8.87974 6.74995 8.62474 6.49495 8.62474 6.18745C8.62474 5.87995 8.87974 5.62495 9.18724 5.62495C10.9422 5.62495 12.3747 7.05745 12.3747 8.81245C12.3747 9.11995 12.1197 9.37495 11.8122 9.37495Z" fill="#8A8886"/>
<path d="M6.69751 14.625H6.75001C6.73501 14.625 6.71251 14.625 6.69751 14.6325V14.625Z" fill="#8A8886"/>
<path d="M11.2875 14.625V14.6325C11.2725 14.625 11.265 14.625 11.25 14.625H11.2875Z" fill="#8A8886"/>
</g>
<defs>
<clipPath id="clip0_3203_5303">
<rect width="18" height="18" fill="white"/>
</clipPath>
</defs>
</svg>
