<svg width="18" height="18" viewBox="0 0 18 18" fill="none" xmlns="http://www.w3.org/2000/svg">
<path d="M0.404981 16.015H17.5932C17.8169 16.015 17.9981 15.8337 17.9981 15.61V15.2455C17.9984 15.2394 18 15.2338 18 15.2276C18 15.1615 17.9841 15.0991 17.956 15.044L16.1984 10.6196V2.38984C16.1984 2.16616 16.0171 1.98486 15.7935 1.98486H2.20479C1.9811 1.98486 1.79981 2.16616 1.79981 2.38984V10.6196L0.0285558 15.0781C0.0206236 15.098 0.0150711 15.1184 0.0103999 15.1389C0.00925418 15.1441 0.00837283 15.1493 0.00740335 15.1546C0.00299659 15.1782 0.000264405 15.2021 0.00017627 15.226C0.00017627 15.2265 0 15.2271 0 15.2276V15.61C0 15.8337 0.181294 16.015 0.404981 16.015ZM7.25731 14.708L7.62783 13.5623H10.3703L10.7408 14.708H7.25731ZM2.99042 3.01807H15.0078V10.0689H2.99042V3.01807Z" fill="#8A8886"/>
</svg>
