<svg width="18" height="18" viewBox="0 0 18 18" fill="none" xmlns="http://www.w3.org/2000/svg">
<path d="M4.46874 2.6392C4.56378 2.73416 4.67778 2.77218 4.81072 2.77218C4.94381 2.77218 5.0578 2.73416 5.1527 2.6392C5.34278 2.44927 5.34278 2.14557 5.1527 1.97458L4.35459 1.17711C4.16451 0.987186 3.86056 0.987186 3.68944 1.17711C3.49935 1.36704 3.49935 1.67075 3.68944 1.84174L4.46874 2.6392Z" fill="#8A8886"/>
<path d="M4.56344 4.02546C4.56344 3.75965 4.3544 3.55078 4.08837 3.55078H2.96725C2.70122 3.55078 2.49219 3.75965 2.49219 4.02546C2.49219 4.29128 2.70122 4.50014 2.96725 4.50014H4.08837C4.3544 4.48121 4.56344 4.27234 4.56344 4.02546Z" fill="#8A8886"/>
<path d="M6.51999 2.06958C6.78602 2.06958 6.99505 1.86071 6.99505 1.5949V0.474682C6.99505 0.208867 6.78602 0 6.51999 0C6.25396 0 6.04492 0.208867 6.04492 0.474682V1.5949C6.04492 1.86071 6.25396 2.06958 6.51999 2.06958Z" fill="#8A8886"/>
<path d="M12.3536 5.08879C12.7146 5.08879 13.0376 5.24071 13.2656 5.46851C13.2656 5.41155 13.2656 5.3546 13.2467 5.27858C13.2277 4.95581 13.1707 4.69001 13.0946 4.4431C13.1897 3.96842 13.2467 3.45573 13.1516 3.03801C13.1136 2.8861 12.9616 2.79114 12.8097 2.84809C12.7337 2.86703 12.6387 2.90504 12.5436 2.92398C12.5626 2.791 12.5626 2.65816 12.5436 2.54427C12.5247 2.37341 12.3536 2.27845 12.2017 2.3354C11.5365 2.58227 10.5485 2.81008 9.27533 2.81008C7.18498 2.81008 5.49382 2.92398 5.3418 5.25937V5.43023C5.58887 5.20242 5.8928 5.05051 6.25389 5.05051L12.3537 5.05091L12.3536 5.08879Z" fill="#8A8886"/>
<path d="M13.0949 13.5378H11.6506C11.6506 13.5189 11.6506 13.4998 11.6317 13.4809L11.3846 12.5315C12.5057 11.734 13.1898 10.7467 13.3799 9.70237C14.007 9.56939 14.3111 9.1138 14.3111 8.33528C14.3111 7.74671 14.178 7.32896 13.893 7.08209C13.836 7.02514 13.7599 6.98713 13.684 6.93018V8.22124C13.684 8.84782 13.247 9.37947 12.6769 9.51231C12.5438 10.4237 11.9547 11.2402 10.9286 11.9616C9.97849 12.6262 8.66728 12.6262 7.73625 11.9616C6.71018 11.24 6.12096 10.4046 5.98801 9.51231C5.4179 9.36039 4.98088 8.84769 4.98088 8.22124V6.93018C4.88584 6.96819 4.80988 7.02514 4.75289 7.08209C4.4679 7.34791 4.33483 7.74671 4.33483 8.33528C4.33483 9.1138 4.6389 9.55047 5.26599 9.68345C5.43698 10.7467 6.12107 11.7152 7.26129 12.5126L7.01422 13.4619C7.01422 13.4809 7.01422 13.5 6.99527 13.5189H5.5511C4.23989 13.5189 3.17578 14.5822 3.17578 15.8923V17.3733C3.17578 17.715 3.46077 17.9999 3.80287 17.9999H14.8814C15.2233 17.9999 15.5085 17.7151 15.5085 17.3733V15.8923C15.4891 14.6011 14.406 13.5379 13.0948 13.5379L13.0949 13.5378ZM10.6815 14.3733L9.71245 15.0947C9.48446 15.2656 9.16144 15.2656 8.91434 15.0947L7.94524 14.3732C7.73621 14.2212 7.64117 13.9365 7.69817 13.6707L7.90721 12.9112C8.34423 13.1012 8.8193 13.2151 9.31343 13.2151C9.80746 13.2151 10.2825 13.1012 10.7197 12.9112L10.9287 13.6707C11.0045 13.9365 10.8905 14.2023 10.6815 14.3733H10.6815Z" fill="#8A8886"/>
<path d="M12.3542 8.96219C12.7533 8.96219 13.0573 8.63942 13.0573 8.24064V6.43688C13.0573 6.03808 12.7342 5.71533 12.3542 5.71533H6.27337C5.87425 5.71533 5.57031 6.0381 5.57031 6.43688V8.24064C5.57031 8.63944 5.89334 8.96219 6.27337 8.96219H7.58459C7.94567 8.96219 8.26868 8.77226 8.51575 8.50646C8.68674 8.31653 8.97184 8.18369 9.29489 8.18369C9.61791 8.18369 9.90304 8.31667 10.074 8.50646C10.3211 8.77228 10.6441 8.96219 11.0052 8.96219H12.3542Z" fill="#8A8886"/>
<path d="M10.4172 10.2913C10.4172 10.7737 9.9237 11.1648 9.31504 11.1648C8.70638 11.1648 8.21289 10.7737 8.21289 10.2913C8.21289 9.80894 8.70638 9.41797 9.31504 9.41797C9.9237 9.41797 10.4172 9.80894 10.4172 10.2913Z" fill="#8A8886"/>
</svg>
