<svg width="18" height="18" viewBox="0 0 18 18" fill="none" xmlns="http://www.w3.org/2000/svg">
<path d="M14.9721 7.41495C14.9725 7.38954 14.9731 7.36417 14.9731 7.33867C14.9731 4.90933 13.0037 2.93994 10.5743 2.93994C8.48079 2.93994 6.72906 4.40252 6.28467 6.36162C5.87033 6.12966 5.39303 5.99684 4.88439 5.99684C3.29731 5.99684 2.01076 7.28343 2.01076 8.87047C2.01076 8.93534 2.01368 8.99946 2.01791 9.06328C0.839683 9.50065 0 10.6347 0 11.9652C0 13.6743 1.38555 15.0599 3.09469 15.0599H14.1316C16.2681 15.0599 18 13.3279 18 11.1915C18 9.34367 16.7044 7.79874 14.9721 7.41495Z" fill="#8A8886"/>
</svg>
