<svg width="20" height="22" viewBox="0 0 20 22" fill="none" xmlns="http://www.w3.org/2000/svg">
<path fill-rule="evenodd" clip-rule="evenodd" d="M7.55851 20.4562C3.88651 20.4562 0.749512 19.9012 0.749512 17.6772C0.749512 15.4532 3.86651 13.4492 7.55851 13.4492C11.2305 13.4492 14.3665 15.4342 14.3665 17.6572C14.3665 19.8802 11.2505 20.4562 7.55851 20.4562Z" stroke="#515151" stroke-width="1.5" stroke-linecap="round" stroke-linejoin="round"/>
<path fill-rule="evenodd" clip-rule="evenodd" d="M7.55861 10.2776C9.96861 10.2776 11.9226 8.32356 11.9226 5.91356C11.9226 3.50356 9.96861 1.54956 7.55861 1.54956C5.14861 1.54956 3.19461 3.50356 3.19461 5.91356C3.18561 8.31556 5.12661 10.2696 7.52761 10.2776H7.55861Z" stroke="#515151" stroke-width="1.5" stroke-linecap="round" stroke-linejoin="round"/>
<path d="M14.8013 9.07888C16.2043 8.70388 17.2383 7.42488 17.2383 5.90288C17.2393 4.31488 16.1123 2.98888 14.6143 2.68188" stroke="#515151" stroke-width="1.5" stroke-linecap="round" stroke-linejoin="round"/>
<path d="M15.4607 12.6536C17.4487 12.6536 19.1467 14.0016 19.1467 15.2046C19.1467 15.9136 18.5617 16.6416 17.6717 16.8506" stroke="#515151" stroke-width="1.5" stroke-linecap="round" stroke-linejoin="round"/>
</svg>
