<svg width="134" height="120" viewBox="0 0 134 120" fill="none" xmlns="http://www.w3.org/2000/svg">
<path d="M68.625 0.260861L64.2648 1.38278L10.5472 15.2051L6.18709 16.327C4.07074 16.8741 2.2583 18.2365 1.1474 20.1153C0.0365123 21.9941 -0.282112 24.2359 0.261435 26.3488L19.1679 99.5028C19.7162 101.615 21.0816 103.423 22.9646 104.531C24.8475 105.64 27.0942 105.958 29.2118 105.415L29.2231 105.413L91.6384 89.3523L91.6497 89.3494C93.7661 88.8023 95.5785 87.4398 96.6894 85.561C97.8003 83.6822 98.1189 81.4404 97.5754 79.3275L78.6689 6.17354C78.1206 4.06183 76.7552 2.25336 74.8722 1.1449C72.9893 0.0364432 70.7426 -0.281488 68.625 0.260861Z" fill="#F2F2F2"/>
<path d="M69.2186 2.55516L64.0543 3.88399L11.9448 17.2925L6.78065 18.6213C5.27354 19.0109 3.98285 19.9811 3.19176 21.319C2.40066 22.657 2.17376 24.2534 2.56083 25.7581L21.4673 98.912C21.8577 100.416 22.8301 101.704 24.171 102.493C25.5119 103.282 27.1118 103.509 28.6198 103.122L28.6311 103.12L91.0464 87.0593L91.0577 87.0564C92.5648 86.6668 93.8555 85.6966 94.6465 84.3586C95.4376 83.0207 95.6645 81.4243 95.2774 79.9196L76.371 6.76571C75.9805 5.26193 75.0082 3.97409 73.6673 3.18473C72.3265 2.39537 70.7265 2.16896 69.2186 2.55516Z" fill="white"/>
<path d="M65.319 26.2444L33.7446 34.3689C33.392 34.4596 33.0177 34.4069 32.704 34.2222C32.3903 34.0376 32.163 33.7361 32.0721 33.3843C31.9811 33.0324 32.034 32.6589 32.2191 32.3459C32.4041 32.0329 32.7062 31.8061 33.0589 31.7154L64.6332 23.5908C64.9858 23.5005 65.3598 23.5534 65.6732 23.7381C65.9867 23.9228 66.2138 24.2241 66.3046 24.5758C66.3955 24.9274 66.3428 25.3007 66.158 25.6136C65.9732 25.9265 65.6714 26.1534 65.319 26.2444Z" fill="#F2F2F2"/>
<path d="M71.9613 29.3108L34.902 38.8467C34.5493 38.9375 34.175 38.8847 33.8613 38.7C33.5477 38.5154 33.3204 38.214 33.2294 37.8621C33.1385 37.5102 33.1913 37.1367 33.3764 36.8237C33.5615 36.5107 33.8635 36.2839 34.2162 36.1932L71.2755 26.6573C71.6282 26.5666 72.0025 26.6193 72.3162 26.804C72.6299 26.9886 72.8572 27.29 72.9481 27.6419C73.0391 27.9938 72.9862 28.3673 72.8011 28.6803C72.6161 28.9933 72.314 29.2201 71.9613 29.3108Z" fill="#F2F2F2"/>
<path d="M70.5055 46.3117L38.9311 54.4362C38.7564 54.4811 38.5747 54.4913 38.3961 54.4661C38.2175 54.441 38.0457 54.381 37.8904 54.2895C37.7351 54.1981 37.5993 54.077 37.4909 53.9333C37.3825 53.7895 37.3035 53.6258 37.2585 53.4516C37.2134 53.2773 37.2032 53.096 37.2285 52.9178C37.2537 52.7396 37.3138 52.5682 37.4055 52.4132C37.4971 52.2582 37.6184 52.1228 37.7625 52.0146C37.9066 51.9064 38.0706 51.8276 38.2453 51.7827L69.8197 43.6582C69.9943 43.6132 70.1761 43.603 70.3546 43.6282C70.5332 43.6534 70.705 43.7134 70.8604 43.8048C71.0157 43.8962 71.1514 44.0173 71.2598 44.1611C71.3683 44.3049 71.4472 44.4685 71.4923 44.6428C71.5373 44.817 71.5475 44.9984 71.5223 45.1765C71.4971 45.3547 71.4369 45.5262 71.3453 45.6811C71.2537 45.8361 71.1323 45.9716 70.9882 46.0797C70.8441 46.1879 70.6801 46.2667 70.5055 46.3117Z" fill="#F2F2F2"/>
<path d="M77.1476 49.3781L40.0883 58.9139C39.9137 58.9589 39.7319 58.9691 39.5533 58.9439C39.3748 58.9187 39.2029 58.8587 39.0476 58.7673C38.8923 58.6759 38.7566 58.5548 38.6481 58.411C38.5397 58.2672 38.4607 58.1036 38.4157 57.9293C38.3707 57.7551 38.3605 57.5737 38.3857 57.3956C38.4109 57.2174 38.4711 57.0459 38.5627 56.891C38.6543 56.736 38.7756 56.6005 38.9197 56.4924C39.0638 56.3842 39.2279 56.3054 39.4025 56.2604L76.4618 46.7246C76.8145 46.6338 77.1888 46.6866 77.5025 46.8712C77.8161 47.0559 78.0434 47.3573 78.1344 47.7092C78.2253 48.0611 78.1724 48.4346 77.9874 48.7476C77.8023 49.0605 77.5002 49.2873 77.1476 49.3781Z" fill="#F2F2F2"/>
<path d="M75.6918 66.3789L44.1174 74.5035C43.7648 74.5939 43.3907 74.541 43.0772 74.3563C42.7638 74.1717 42.5366 73.8703 42.4457 73.5186C42.3548 73.1669 42.4076 72.7935 42.5925 72.4806C42.7773 72.1677 43.0792 71.9409 43.4316 71.8499L75.006 63.7254C75.3587 63.6347 75.733 63.6874 76.0467 63.8721C76.3604 64.0567 76.5877 64.3582 76.6786 64.71C76.7696 65.0619 76.7167 65.4354 76.5316 65.7484C76.3466 66.0614 76.0445 66.2882 75.6918 66.3789Z" fill="#F2F2F2"/>
<path d="M82.334 69.4454L45.2746 78.9812C45.1 79.0263 44.9181 79.0367 44.7394 79.0116C44.5607 78.9865 44.3888 78.9266 44.2333 78.8352C44.0779 78.7438 43.942 78.6227 43.8335 78.4788C43.725 78.335 43.6459 78.1712 43.6009 77.9969C43.5558 77.8226 43.5456 77.6411 43.5709 77.4628C43.5962 77.2846 43.6564 77.113 43.7482 76.958C43.8399 76.803 43.9614 76.6675 44.1056 76.5594C44.2499 76.4512 44.4141 76.3725 44.5888 76.3277L81.6482 66.7918C82.0009 66.7011 82.3752 66.7538 82.6889 66.9385C83.0025 67.1231 83.2298 67.4246 83.3208 67.7764C83.4117 68.1283 83.3589 68.5018 83.1738 68.8148C82.9887 69.1278 82.6867 69.3546 82.334 69.4454Z" fill="#F2F2F2"/>
<path d="M28.3545 42.6994L17.1806 45.5746C17.0115 45.6179 16.8321 45.5926 16.6818 45.504C16.5314 45.4155 16.4224 45.2711 16.3786 45.1025L13.8137 35.178C13.7703 35.0093 13.7957 34.8303 13.8844 34.6803C13.9731 34.5303 14.1178 34.4215 14.2868 34.3778L25.4607 31.5026C25.6298 31.4593 25.8092 31.4847 25.9596 31.5732C26.1099 31.6617 26.2189 31.8061 26.2627 31.9747L28.8277 41.8992C28.8711 42.0679 28.8457 42.2469 28.7569 42.3969C28.6682 42.547 28.5235 42.6558 28.3545 42.6994Z" fill="#EDEBE9"/>
<path d="M33.5408 62.7667L22.3669 65.6419C22.1978 65.6852 22.0184 65.6598 21.8681 65.5713C21.7177 65.4828 21.6087 65.3384 21.5649 65.1697L18.9999 55.2453C18.9565 55.0766 18.982 54.8976 19.0707 54.7475C19.1594 54.5975 19.3041 54.4887 19.4731 54.445L30.647 51.5699C30.8161 51.5265 30.9955 51.5519 31.1458 51.6404C31.2962 51.7289 31.4052 51.8734 31.449 52.042L34.0139 61.9664C34.0573 62.1351 34.0319 62.3142 33.9432 62.4642C33.8545 62.6142 33.7098 62.723 33.5408 62.7667Z" fill="#EDEBE9"/>
<path d="M38.7272 82.834L27.5533 85.7092C27.3842 85.7525 27.2048 85.7271 27.0545 85.6386C26.9041 85.5501 26.7951 85.4057 26.7513 85.2371L24.1864 75.3126C24.1429 75.1438 24.1684 74.9648 24.2571 74.8148C24.3458 74.6648 24.4905 74.556 24.6595 74.5123L35.8334 71.6371C36.0025 71.5938 36.1819 71.6192 36.3323 71.7077C36.4826 71.7962 36.5916 71.9406 36.6354 72.1092L39.2004 82.0337C39.2438 82.2025 39.2183 82.3815 39.1296 82.5315C39.0409 82.6815 38.8962 82.7903 38.7272 82.834Z" fill="#EDEBE9"/>
<path d="M112.173 18.8052H47.6924C45.5062 18.8076 43.4102 19.6753 41.8643 21.2178C40.3184 22.7603 39.4489 24.8517 39.4464 27.0331V102.58C39.4489 104.762 40.3184 106.853 41.8643 108.396C43.4102 109.938 45.5062 110.806 47.6924 110.808H112.173C114.359 110.806 116.455 109.938 118.001 108.396C119.547 106.853 120.416 104.762 120.419 102.58V27.0331C120.416 24.8517 119.547 22.7603 118.001 21.2178C116.455 19.6753 114.359 18.8076 112.173 18.8052Z" fill="#EDEBE9"/>
<path d="M112.173 21.1738H47.6925C46.1356 21.1756 44.643 21.7934 43.5422 22.8919C42.4413 23.9903 41.8221 25.4797 41.8203 27.0331V102.58C41.8221 104.134 42.4413 105.623 43.5422 106.722C44.643 107.82 46.1356 108.438 47.6925 108.44H112.173C113.73 108.438 115.223 107.82 116.323 106.722C117.424 105.623 118.044 104.134 118.045 102.58V27.0331C118.044 25.4797 117.424 23.9904 116.323 22.8919C115.223 21.7935 113.73 21.1756 112.173 21.1738Z" fill="white"/>
<path d="M118.947 120C127.261 120 134 113.275 134 104.98C134 96.6851 127.261 89.9606 118.947 89.9606C110.634 89.9606 103.894 96.6851 103.894 104.98C103.894 113.275 110.634 120 118.947 120Z" fill="#0078D4"/>
<path d="M126.146 103.021H120.911V97.797C120.911 97.2774 120.704 96.7791 120.336 96.4117C119.967 96.0443 119.468 95.8379 118.947 95.8379C118.427 95.8379 117.927 96.0443 117.559 96.4117C117.191 96.7791 116.984 97.2774 116.984 97.797V103.021H111.748C111.227 103.021 110.728 103.228 110.36 103.595C109.992 103.962 109.785 104.461 109.785 104.98C109.785 105.5 109.992 105.998 110.36 106.366C110.728 106.733 111.227 106.939 111.748 106.939H116.984V112.164C116.984 112.683 117.191 113.182 117.559 113.549C117.927 113.916 118.427 114.123 118.947 114.123C119.468 114.123 119.967 113.916 120.336 113.549C120.704 113.182 120.911 112.683 120.911 112.164V106.939H126.146C126.667 106.939 127.167 106.733 127.535 106.366C127.903 105.998 128.11 105.5 128.11 104.98C128.11 104.461 127.903 103.962 127.535 103.595C127.167 103.228 126.667 103.021 126.146 103.021Z" fill="white"/>
<path d="M102.469 62.6869H69.8613C69.6808 62.6871 69.5021 62.6518 69.3353 62.583C69.1686 62.5142 69.017 62.4133 68.8893 62.2861C68.7616 62.1588 68.6604 62.0077 68.5912 61.8414C68.5221 61.6751 68.4866 61.4968 68.4866 61.3167C68.4866 61.1366 68.5221 60.9583 68.5912 60.792C68.6604 60.6257 68.7616 60.4746 68.8893 60.3473C69.017 60.2201 69.1686 60.1192 69.3353 60.0504C69.5021 59.9816 69.6808 59.9463 69.8613 59.9465H102.469C102.833 59.9469 103.181 60.0915 103.439 60.3484C103.696 60.6053 103.84 60.9536 103.84 61.3167C103.84 61.6798 103.696 62.0281 103.439 62.285C103.181 62.5419 102.833 62.6865 102.469 62.6869Z" fill="#EDEBE9"/>
<path d="M108.133 67.3111H69.8613C69.6808 67.3113 69.5021 67.276 69.3353 67.2072C69.1686 67.1385 69.017 67.0376 68.8893 66.9103C68.7616 66.7831 68.6604 66.632 68.5912 66.4656C68.5221 66.2993 68.4866 66.121 68.4866 65.9409C68.4866 65.7609 68.5221 65.5826 68.5912 65.4163C68.6604 65.2499 68.7616 65.0988 68.8893 64.9716C69.017 64.8443 69.1686 64.7434 69.3353 64.6747C69.5021 64.6059 69.6808 64.5706 69.8613 64.5708H108.133C108.497 64.5708 108.846 64.7152 109.104 64.9721C109.362 65.2291 109.506 65.5776 109.506 65.9409C109.506 66.3043 109.362 66.6528 109.104 66.9098C108.846 67.1667 108.497 67.3111 108.133 67.3111Z" fill="#EDEBE9"/>
<path d="M102.469 83.4107H69.8613C69.6808 83.4109 69.5021 83.3756 69.3353 83.3069C69.1686 83.2381 69.017 83.1372 68.8893 83.01C68.7616 82.8827 68.6604 82.7316 68.5912 82.5653C68.5221 82.3989 68.4866 82.2206 68.4866 82.0406C68.4866 81.8605 68.5221 81.6822 68.5912 81.5159C68.6604 81.3495 68.7616 81.1984 68.8893 81.0712C69.017 80.9439 69.1686 80.843 69.3353 80.7743C69.5021 80.7055 69.6808 80.6702 69.8613 80.6704H102.469C102.833 80.6704 103.182 80.8148 103.44 81.0717C103.697 81.3287 103.842 81.6772 103.842 82.0406C103.842 82.404 103.697 82.7525 103.44 83.0094C103.182 83.2664 102.833 83.4107 102.469 83.4107Z" fill="#EDEBE9"/>
<path d="M108.133 88.035H69.8613C69.6808 88.0352 69.5021 88 69.3353 87.9312C69.1686 87.8624 69.017 87.7615 68.8893 87.6343C68.7616 87.507 68.6604 87.3559 68.5912 87.1896C68.5221 87.0232 68.4866 86.8449 68.4866 86.6649C68.4866 86.4848 68.5221 86.3065 68.5912 86.1402C68.6604 85.9738 68.7616 85.8227 68.8893 85.6955C69.017 85.5682 69.1686 85.4673 69.3353 85.3985C69.5021 85.3298 69.6808 85.2945 69.8613 85.2947H108.133C108.314 85.2945 108.492 85.3298 108.659 85.3985C108.826 85.4673 108.977 85.5682 109.105 85.6955C109.233 85.8227 109.334 85.9738 109.403 86.1402C109.472 86.3065 109.508 86.4848 109.508 86.6649C109.508 86.8449 109.472 87.0232 109.403 87.1896C109.334 87.3559 109.233 87.507 109.105 87.6343C108.977 87.7615 108.826 87.8624 108.659 87.9312C108.492 88 108.314 88.0352 108.133 88.035Z" fill="#EDEBE9"/>
<path d="M62.557 69.4105H51.0176C50.843 69.4103 50.6756 69.341 50.5522 69.2178C50.4288 69.0946 50.3593 68.9276 50.3591 68.7535V58.5043C50.3593 58.3301 50.4288 58.1631 50.5522 58.0399C50.6756 57.9168 50.843 57.8475 51.0176 57.8473H62.557C62.7316 57.8475 62.899 57.9168 63.0224 58.0399C63.1458 58.1631 63.2153 58.3301 63.2155 58.5043V68.7535C63.2153 68.9276 63.1458 69.0946 63.0224 69.2178C62.899 69.341 62.7316 69.4103 62.557 69.4105Z" fill="#EDEBE9"/>
<path d="M62.557 90.1342H51.0176C50.843 90.134 50.6756 90.0647 50.5522 89.9415C50.4288 89.8184 50.3593 89.6513 50.3591 89.4772V79.228C50.3593 79.0539 50.4288 78.8869 50.5522 78.7637C50.6756 78.6405 50.843 78.5712 51.0176 78.571H62.557C62.7316 78.5712 62.899 78.6405 63.0224 78.7637C63.1458 78.8869 63.2153 79.0539 63.2155 79.228V89.4772C63.2153 89.6513 63.1458 89.8184 63.0224 89.9415C62.899 90.0647 62.7316 90.134 62.557 90.1342Z" fill="#EDEBE9"/>
<path d="M102.505 39.6172H78.4647C78.1005 39.6172 77.7513 39.4728 77.4938 39.2159C77.2362 38.9589 77.0916 38.6104 77.0916 38.247C77.0916 37.8836 77.2362 37.5351 77.4938 37.2781C77.7513 37.0212 78.1005 36.8768 78.4647 36.8768H102.505C102.869 36.8768 103.218 37.0212 103.476 37.2781C103.733 37.5351 103.878 37.8836 103.878 38.247C103.878 38.6104 103.733 38.9589 103.476 39.2159C103.218 39.4728 102.869 39.6172 102.505 39.6172Z" fill="#DDDDDD"/>
<path d="M108.169 44.2416H78.4647C78.2844 44.2416 78.1058 44.2061 77.9392 44.1373C77.7726 44.0684 77.6213 43.9675 77.4938 43.8403C77.3662 43.713 77.2651 43.562 77.1961 43.3957C77.1271 43.2295 77.0916 43.0513 77.0916 42.8714C77.0916 42.6915 77.1271 42.5133 77.1961 42.3471C77.2651 42.1808 77.3662 42.0298 77.4938 41.9025C77.6213 41.7753 77.7726 41.6744 77.9392 41.6055C78.1058 41.5367 78.2844 41.5012 78.4647 41.5012H108.169C108.533 41.5012 108.883 41.6456 109.14 41.9025C109.398 42.1595 109.542 42.508 109.542 42.8714C109.542 43.2348 109.398 43.5833 109.14 43.8403C108.883 44.0972 108.533 44.2416 108.169 44.2416Z" fill="#DDDDDD"/>
<path d="M73.1443 49.8456H50.9814C50.8069 49.8454 50.6395 49.7761 50.5161 49.653C50.3926 49.5298 50.3232 49.3628 50.323 49.1886V31.9297C50.3232 31.7555 50.3926 31.5885 50.5161 31.4653C50.6395 31.3422 50.8069 31.2729 50.9814 31.2727H73.1443C73.3189 31.2729 73.4863 31.3422 73.6097 31.4653C73.7331 31.5885 73.8026 31.7555 73.8028 31.9297V49.1886C73.8026 49.3628 73.7331 49.5298 73.6097 49.653C73.4863 49.7761 73.3189 49.8454 73.1443 49.8456Z" fill="#0078D4"/>
</svg>
