<svg width="45" height="30" viewBox="0 0 45 30" fill="none" xmlns="http://www.w3.org/2000/svg">
    <path d="M0.0753141 19.3052C0.175726 20.3279 0.414226 21.3255 0.790795 22.2982C1.19246 23.2461 1.682 24.1315 2.25941 24.9546M0.0753141 19.3052L22.4124 23.2307M0.0753141 19.3052C0.0502157 19.1056 0.0250983 18.9185 0 18.744L0.0753141 19.3052ZM2.25941 24.9546C2.86192 25.7777 3.55231 26.5259 4.33054 27.1994M2.25941 24.9546L2.66287 24.6592C2.66386 24.6606 2.66484 24.6619 2.66583 24.6633M2.25941 24.9546L2.66874 24.6674C2.66777 24.666 2.6668 24.6647 2.66583 24.6633M4.33054 27.1994C5.1339 27.8479 6 28.3966 6.92887 28.8455M4.33054 27.1994L4.64462 26.8103C4.64684 26.8121 4.64906 26.8139 4.65128 26.8157M4.33054 27.1994L4.65772 26.8213C4.65557 26.8194 4.65343 26.8175 4.65128 26.8157M6.92887 28.8455C8.86193 29.7435 10.8954 30.1176 13.0293 29.9679M6.92887 28.8455L7.13951 28.3921C7.14066 28.3926 7.1418 28.3931 7.14295 28.3937M6.92887 28.8455L7.14645 28.3954C7.14529 28.3948 7.14412 28.3942 7.14295 28.3937M13.0293 29.9679C15.1631 29.7934 17.1213 29.1074 18.9038 27.9102M13.0293 29.9679L12.9885 29.4696C12.9895 29.4695 12.9905 29.4694 12.9915 29.4693M13.0293 29.9679L12.9943 29.4692C12.9934 29.4692 12.9925 29.4693 12.9915 29.4693M18.9038 27.9102C19.7572 27.3365 20.5104 26.6756 21.1632 25.9273C21.841 25.1542 22.4058 24.3311 22.8577 23.458L22.4137 23.2282C22.4133 23.229 22.4128 23.2299 22.4124 23.2307M18.9038 27.9102L18.6248 27.4952C18.6249 27.4952 18.6249 27.4952 18.625 27.4951M18.9038 27.9102L18.625 27.4951M22.4124 23.2307C22.8459 22.3688 23.1708 21.4718 23.3874 20.5389L23.3902 20.5271L23.3903 20.5271C23.6292 19.6012 23.7372 18.6511 23.7136 17.6751C23.665 16.4548 23.4363 15.2713 23.0269 14.123L23.0259 14.12C22.6164 12.9475 22.0391 11.8721 21.2933 10.8918C20.3564 9.67486 19.2171 8.69792 17.872 7.95816L17.8661 7.9549L17.8661 7.95486C16.5163 7.18857 15.0853 6.71092 13.5697 6.51964C12.0304 6.32853 10.517 6.44788 9.0256 6.87806L9.02046 6.87955L9.02045 6.87952C7.54836 7.28712 6.19809 7.94585 4.96695 8.85724L4.69715 8.49278H4.66945H4.16945V8.45537V8.20342V2.31962C4.16945 1.80159 3.99474 1.38135 3.63923 1.02814C3.28357 0.674784 2.85905 0.5 2.33473 0.5C1.8104 0.5 1.38588 0.674785 1.03023 1.02814C0.674714 1.38135 0.5 1.80159 0.5 2.31962V17.659V18.1454V18.1465V18.1477V18.1489V18.1501V18.1512V18.1524V18.1536V18.1547V18.1559V18.1571V18.1582V18.1594V18.1606V18.1617V18.1629V18.1641V18.1653V18.1664V18.1676V18.1688V18.1699V18.1711V18.1723V18.1734V18.1746V18.1758V18.177V18.1781V18.1793V18.1805V18.1816V18.1828V18.184V18.1851V18.1863V18.1875V18.1886V18.1898V18.191V18.1922V18.1933V18.1945V18.1957V18.1968V18.198V18.1992V18.2003V18.2015V18.2027V18.2038V18.205V18.2062V18.2074V18.2085V18.2097V18.2109V18.212V18.2132V18.2144V18.2155V18.2167V18.2179V18.219V18.2202V18.2214V18.2226V18.2237V18.2249V18.2261V18.2272V18.2284V18.2296V18.2307V18.2319V18.2331V18.2342V18.2354V18.2366V18.2378V18.2389V18.2401V18.2413V18.2424V18.2436V18.2448V18.2459V18.2471V18.2483V18.2494V18.2506V18.2518V18.253V18.2541V18.2553V18.2565V18.2576V18.2588V18.26V18.2611V18.2623V18.2635V18.2646V18.2658V18.267V18.2682V18.2693V18.2705V18.2717V18.2728V18.274V18.2752V18.2763V18.2775V18.2787V18.2798V18.281V18.2822V18.2834V18.2845V18.2857V18.2869V18.288V18.2892V18.2904V18.2915V18.2927V18.2939V18.295V18.2962V18.2974V18.2986V18.2997V18.3009V18.3021V18.3032V18.3044V18.3056V18.3067V18.3079V18.3091V18.3102V18.3114V18.3126V18.3138V18.3149V18.3161V18.3173V18.3184V18.3196V18.3208V18.3219V18.3231V18.3243V18.3254V18.3266V18.3278V18.329V18.3301V18.3313V18.3325V18.3336V18.3348V18.336V18.3371V18.3383V18.3395V18.3406V18.3418V18.343V18.3441V18.3453V18.3465V18.3477V18.3488V18.35V18.3512V18.3523V18.3535V18.3547V18.3558V18.357V18.3582V18.3593V18.3605V18.3617V18.3629V18.364V18.3652V18.3664V18.3675V18.3687V18.3699V18.371V18.3722V18.3734V18.3745V18.3757V18.3769V18.378V18.3792V18.3804V18.3816V18.3827V18.3839V18.3851V18.3862V18.3874V18.3886V18.3897V18.3909V18.3921V18.3932V18.3944V18.3956V18.3968V18.3979V18.3991V18.4003V18.4014V18.4026V18.4038V18.4049V18.4061V18.4073V18.4084V18.4096V18.4108V18.412V18.4131V18.4143V18.4155V18.4166V18.4178V18.419V18.4201V18.4213V18.4225V18.4236V18.4248V18.426V18.4271V18.4283V18.4295V18.4307V18.4318V18.433V18.4342V18.4353V18.4365V18.4377V18.4388V18.44V18.4412V18.4423V18.4435V18.4447V18.4459V18.447V18.4482V18.4494V18.4505V18.4517V18.4529V18.454V18.4552V18.4564V18.4575V18.4587V18.4599V18.461V18.4622V18.4634V18.4646V18.4657V18.4669V18.4681V18.4692V18.4704V18.4716V18.4727V18.4739V18.4751V18.4762V18.4774V18.4786V18.4798V18.4809V18.4821V18.4833V18.4844V18.4856V18.4868V18.4879V18.4891V18.4903V18.4914V18.4926V18.4938V18.4949V18.4961V18.4973V18.4985V18.4996V18.5008V18.502V18.5031V18.5043V18.5055V18.5066V18.5078V18.509V18.5101V18.5113V18.5125V18.5137V18.5148V18.516V18.5172V18.5183V18.5195V18.5207V18.5218V18.523V18.5242V18.5253V18.5265V18.5277V18.5288V18.53V18.5312V18.5324V18.5335V18.5347V18.5359V18.537V18.5382V18.5394V18.5405V18.5417V18.5429V18.544V18.5452V18.5464V18.5476V18.5487V18.5499V18.5511V18.5522V18.5534V18.5546V18.5557V18.5569V18.5581V18.5592V18.5604V18.5616V18.5628V18.5639V18.5651V18.5663V18.5674V18.5686V18.5698V18.5709V18.5721V18.5733V18.5744V18.5756V18.5768V18.5779V18.5791V18.5803V18.5815V18.5826V18.5838V18.585V18.5861V18.5873V18.5885V18.5896V18.5908V18.592V18.5931V18.5943V18.5955V18.5967V18.5978V18.599V18.6002V18.6013V18.6025V18.6037V18.6048V18.606V18.6072V18.6083V18.6095V18.6107V18.6119V18.613V18.6142V18.6154V18.6165V18.6177V18.6189V18.62V18.6212V18.6224V18.6235V18.6247V18.6259V18.6271V18.6282V18.6294V18.6306V18.6317V18.6329V18.6341V18.6352V18.6364V18.6376V18.6387V18.6399V18.6411V18.6423V18.6434V18.6446V18.6458V18.6469V18.6481V18.6493V18.6504V18.6516V18.6528V18.6539V18.6551V18.6563V18.6575V18.6586V18.6598V18.661V18.6621V18.6633V18.6645V18.6656V18.6668V18.668V18.6691V18.6703V18.6715V18.6727V18.6738V18.675V18.6762V18.6773V18.6785V18.6797V18.6808V18.682V18.6832V18.6843V18.6855V18.6867V18.6879V18.689V18.6902V18.6914V18.6925V18.6937V18.6949V18.696V18.6972V18.6984V18.6995V18.7007V18.7019V18.7031V18.7042V18.7054V18.7066V18.7077V18.7084C0.523863 18.8759 0.547674 19.0541 0.571407 19.2428L0.573106 19.2563L0.572921 19.2563C0.668586 20.2307 0.895421 21.1816 1.25425 22.1104C1.64125 23.0223 2.11183 23.8729 2.66583 24.6633M22.4124 23.2307C21.9801 24.0653 21.439 24.8543 20.7872 25.5977L20.7864 25.5986C20.1634 26.3127 19.4435 26.9449 18.625 27.4951M2.66583 24.6633C3.24355 25.4519 3.90516 26.1692 4.65128 26.8157M4.65128 26.8157C5.42203 27.4371 6.25238 27.9629 7.14295 28.3937M7.14295 28.3937C8.99713 29.2543 10.944 29.6125 12.9915 29.4693M12.9915 29.4693C15.0388 29.3014 16.914 28.6443 18.625 27.4951M8.70452 25.1048C8.93223 25.2298 9.16074 25.3432 9.39005 25.4447L9.5308 25.5147L9.55415 25.5262L9.57858 25.5353L9.87982 25.6476L10.1811 25.7598L10.2177 25.6646C11.5085 25.9913 12.8313 25.9652 14.1774 25.5867C15.0846 25.3476 15.9156 24.9619 16.6668 24.4294C17.4422 23.8974 18.0987 23.2453 18.6343 22.4745C19.7055 20.9829 20.1756 19.2978 20.043 17.4405C19.9887 16.4542 19.7465 15.5181 19.3168 14.6364C18.891 13.7383 18.3309 12.943 17.6369 12.2535L17.6298 12.2465L17.6225 12.2398C17.2732 11.9193 16.8965 11.6383 16.4928 11.3971C16.127 11.1638 15.7369 10.9445 15.3229 10.7388L15.3133 10.734L15.3035 10.7296C14.2865 10.2776 13.2259 10.0505 12.1255 10.0505C11.0297 10.0505 9.97247 10.2633 8.95767 10.6879L8.95762 10.6877L8.94752 10.6922C7.93375 11.1429 7.05018 11.7675 6.30085 12.5652C5.55297 13.3613 4.98992 14.2664 4.61487 15.2778L4.61483 15.2778L4.61253 15.2843C4.13106 16.6396 4.02356 18.0265 4.2912 19.4359L4.29112 19.4359L4.29299 19.4448C4.58628 20.8489 5.20121 22.0976 6.13445 23.1842C6.85468 24.032 7.71227 24.6745 8.70452 25.1048Z" fill="#0064EF" stroke="#0064EF"/>
    <path d="M30.22 13.0332C30.7197 13.0332 31.153 13.1864 31.4502 13.4103C31.7472 13.634 31.8852 13.9055 31.8852 14.1642V28.2993C31.8852 28.558 31.7472 28.8295 31.4502 29.0532C31.153 29.2771 30.7197 29.4303 30.22 29.4303C29.7203 29.4303 29.287 29.2771 28.9897 29.0532C28.6927 28.8295 28.5547 28.558 28.5547 28.2993V14.1642C28.5547 13.9055 28.6927 13.634 28.9897 13.4103C29.287 13.1864 29.7203 13.0332 30.22 13.0332Z" fill="#0064EF" stroke="#0064EF"/>
    <path d="M31.8852 8.13759C31.8852 9.04649 31.1427 9.78884 30.22 9.78884C29.2972 9.78884 28.5547 9.04649 28.5547 8.13759C28.5547 7.22868 29.2972 6.48633 30.22 6.48633C31.1427 6.48633 31.8852 7.22868 31.8852 8.13759Z" fill="#0064EF" stroke="#0064EF"/>
    <path d="M39.2582 6.48633C40.1203 6.48633 40.7352 7.11062 40.7352 7.78216V28.1349C40.7352 28.8064 40.1203 29.4307 39.2582 29.4307C38.3962 29.4307 37.7812 28.8064 37.7812 28.1349V7.78216C37.7812 7.11062 38.3962 6.48633 39.2582 6.48633Z" fill="#0064EF" stroke="#0064EF"/>
    <path d="M35.9625 13.0708H42.7408C43.7805 13.0708 44.5002 13.7898 44.5002 14.535C44.5002 15.2802 43.7805 15.9992 42.7408 15.9992H35.9625C34.9228 15.9992 34.2031 15.2802 34.2031 14.535C34.2031 13.7898 34.9228 13.0708 35.9625 13.0708Z" fill="#0064EF" stroke="#0064EF"/>
</svg>
