<svg width="45" height="30" viewBox="0 0 45 30" fill="none" xmlns="http://www.w3.org/2000/svg">
    <path d="M24.2134 17.659C24.2384 18.6817 24.1255 19.6793 23.8745 20.6521C23.6485 21.6248 23.3096 22.5601 22.8577 23.458C22.4058 24.3311 21.841 25.1542 21.1632 25.9273C20.5104 26.6756 19.7572 27.3365 18.9038 27.9102C17.1213 29.1074 15.1631 29.7934 13.0293 29.9679C10.8954 30.1176 8.86193 29.7435 6.92887 28.8455C6 28.3966 5.1339 27.8479 4.33054 27.1994C3.55231 26.5259 2.86192 25.7777 2.25941 24.9546C1.682 24.1315 1.19246 23.2461 0.790795 22.2982C0.414226 21.3255 0.175726 20.3279 0.0753141 19.3052C0.0502157 19.1056 0.0250983 18.9185 0 18.744C0 18.5444 0 18.345 0 18.1454V17.659V2.31962C0 1.67111 0.225941 1.12239 0.677824 0.673437C1.12971 0.224479 1.682 0 2.33473 0C2.98745 0 3.53975 0.224479 3.99163 0.673437C4.44351 1.12239 4.66945 1.67111 4.66945 2.31962V8.49278V8.45537C5.94979 7.50757 7.35565 6.82167 8.88702 6.39765C10.4435 5.94869 12.0252 5.82397 13.6318 6.02352C15.2134 6.22306 16.707 6.72189 18.113 7.52004C19.5189 8.29324 20.7113 9.31587 21.6904 10.5879C22.4685 11.6106 23.0711 12.733 23.4979 13.9551C23.9247 15.1523 24.1631 16.387 24.2134 17.659ZM18.2259 22.186C19.2301 20.7892 19.6695 19.2178 19.5439 17.4719C19.4937 16.5491 19.2677 15.6761 18.8661 14.853C18.4645 14.005 17.9373 13.2568 17.2845 12.6082C16.9582 12.3089 16.6067 12.047 16.2301 11.8226C15.8786 11.5981 15.502 11.3861 15.1004 11.1865C14.1464 10.7625 13.1549 10.5505 12.1255 10.5505C11.0962 10.5505 10.1046 10.7501 9.15062 11.1491C8.19664 11.5732 7.36819 12.1593 6.66527 12.9075C5.96235 13.6558 5.43515 14.5038 5.08368 15.4516C4.6318 16.7237 4.53139 18.0206 4.78242 19.3426C5.05858 20.6646 5.63597 21.8367 6.51464 22.8594C7.19247 23.6576 7.99582 24.2563 8.92468 24.6553C9.15062 24.78 9.37656 24.8923 9.60251 24.992C9.85355 25.0917 10.1046 25.1916 10.3556 25.2913C10.1548 25.2165 9.95398 25.1416 9.75313 25.0668C9.55229 24.9671 9.35147 24.8672 9.15062 24.7675C10.7322 25.4658 12.3641 25.5781 14.046 25.1042C14.8995 24.8797 15.6779 24.5181 16.3807 24.0192C17.1088 23.5203 17.7238 22.9094 18.2259 22.186Z" fill="white"/>
    <path d="M32.3852 14.1642C32.3852 13.2634 31.4158 12.5332 30.22 12.5332C29.0241 12.5332 28.0547 13.2634 28.0547 14.1642V28.2993C28.0547 29.2001 29.0241 29.9303 30.22 29.9303C31.4158 29.9303 32.3852 29.2001 32.3852 28.2993V14.1642Z" fill="white"/>
    <path d="M30.22 10.2888C31.4158 10.2888 32.3852 9.32569 32.3852 8.13759C32.3852 6.94948 31.4158 5.98633 30.22 5.98633C29.0241 5.98633 28.0547 6.94948 28.0547 8.13759C28.0547 9.32569 29.0241 10.2888 30.22 10.2888Z" fill="white"/>
    <path d="M41.2352 7.78216C41.2352 6.79035 40.3501 5.98633 39.2582 5.98633C38.1664 5.98633 37.2812 6.79035 37.2812 7.78216V28.1349C37.2812 29.1267 38.1664 29.9307 39.2582 29.9307C40.3501 29.9307 41.2352 29.1267 41.2352 28.1349V7.78216Z" fill="white"/>
    <path d="M42.7408 12.5703H35.9625C34.7147 12.5703 33.7031 13.4497 33.7031 14.5345C33.7031 15.6193 34.7147 16.4987 35.9625 16.4987H42.7408C43.9886 16.4987 45.0002 15.6193 45.0002 14.5345C45.0002 13.4497 43.9886 12.5703 42.7408 12.5703Z" fill="white"/>
</svg>
