<svg width="48" height="48" viewBox="0 0 48 48" fill="none" xmlns="http://www.w3.org/2000/svg">
    <g clip-path="url(#clip0_715_481)">
        <ellipse cx="24" cy="24.5" rx="24" ry="24.5" fill="#3388FF"/>
        <path d="M24.0027 2.06268e-06C10.7411 -0.00550631 0 11.0223 0 24.6335C0 35.3968 6.71925 44.5462 16.0769 47.9064C17.3371 48.2313 17.144 47.3114 17.144 46.6835V42.4145C9.86705 43.2903 9.57212 38.3438 9.08413 37.5176C8.09742 35.7879 5.76472 35.3473 6.46185 34.521C8.11887 33.6452 9.80807 34.7413 11.7654 37.7104C13.1811 39.8641 15.9428 39.5006 17.3424 39.1425C17.6481 37.8481 18.3023 36.6913 19.2032 35.7934C11.6635 34.4053 8.52106 29.6791 8.52106 24.0606C8.52106 21.3339 9.39515 18.8276 11.1112 16.8061C10.0172 13.4735 11.213 10.6202 11.3739 10.196C14.4896 9.90957 17.7285 12.4875 17.9806 12.6913C19.7502 12.2011 21.7719 11.9422 24.0349 11.9422C26.3086 11.9422 28.3356 12.2121 30.1213 12.7078C30.7273 12.2341 33.7303 10.0197 36.6261 10.2896C36.7816 10.7138 37.9506 13.501 36.921 16.7895C38.6585 18.8166 39.5433 21.345 39.5433 24.0771C39.5433 29.7067 36.3794 34.4384 28.8182 35.8044C29.4659 36.4587 29.9801 37.2389 30.3309 38.0996C30.6817 38.9602 30.862 39.884 30.8614 40.8171V47.014C30.9043 47.5098 30.8614 48 31.6657 48C41.1628 44.7115 48 35.496 48 24.639C48 11.0223 37.2535 2.06268e-06 24.0027 2.06268e-06Z" fill="white"/>
    </g>
    <defs>
        <clipPath id="clip0_715_481">
            <rect width="48" height="48" fill="white"/>
        </clipPath>
    </defs>
</svg>

