<svg width="28" height="29" viewBox="0 0 28 29" fill="none" xmlns="http://www.w3.org/2000/svg">
<ellipse cx="14" cy="14.2917" rx="14" ry="14.2917" fill="#3388FF"/>
<path d="M14.0016 1.20323e-06C6.26567 -0.00321202 0 6.42965 0 14.3695C0 20.6482 3.91956 25.9853 9.37817 27.9454C10.1133 28.135 10.0007 27.5983 10.0007 27.232V24.7418C5.75578 25.2527 5.58373 22.3672 5.29907 21.8852C4.72349 20.8763 3.36275 20.6192 3.76941 20.1373C4.73601 19.6263 5.72137 20.2658 6.86314 21.9977C7.68897 23.2541 9.29997 23.042 10.1164 22.8331C10.2947 22.078 10.6763 21.4033 11.2019 20.8795C6.80371 20.0698 4.97062 17.3128 4.97062 14.0353C4.97062 12.4448 5.48051 10.9828 6.48151 9.80354C5.84337 7.85954 6.54095 6.19509 6.63479 5.94767C8.45224 5.78058 10.3416 7.28437 10.4887 7.40326C11.5209 7.11728 12.7003 6.96626 14.0203 6.96626C15.3467 6.96626 16.5291 7.12371 17.5708 7.4129C17.9243 7.13656 19.676 5.84485 21.3652 6.0023C21.4559 6.24971 22.1379 7.8756 21.5373 9.7939C22.5508 10.9764 23.0669 12.4512 23.0669 14.045C23.0669 17.3289 21.2213 20.0891 16.8106 20.8859C17.1884 21.2676 17.4884 21.7227 17.693 22.2247C17.8977 22.7268 18.0028 23.2657 18.0025 23.81V27.4248C18.0275 27.714 18.0025 28 18.4717 28C24.0116 26.0817 28 20.706 28 14.3727C28 6.42965 21.7312 1.20323e-06 14.0016 1.20323e-06Z" fill="white"/>
</svg>
