<svg width="18" height="18" viewBox="0 0 18 18" fill="none" xmlns="http://www.w3.org/2000/svg">
<path d="M12.0569 0H5.97594C4.94213 0 4.06372 0.842948 4.06372 1.87647V16.1257C4.06372 17.1592 4.92354 18 5.95735 18L12.0483 17.9934C13.0819 17.9934 13.9276 17.1525 13.9276 16.1188L13.9365 1.87547C13.9363 0.83823 13.0948 0 12.0569 0ZM8.13792 1.12503H9.90216C10.0571 1.12503 10.1834 1.25084 10.1834 1.40625C10.1834 1.56166 10.0571 1.68747 9.90216 1.68747H8.13792C7.98251 1.68747 7.8567 1.56166 7.8567 1.40625C7.8567 1.25084 7.98251 1.12503 8.13792 1.12503ZM7.0778 1.21453C7.18203 1.11044 7.37175 1.10901 7.47583 1.21453C7.52801 1.26657 7.55889 1.33962 7.55889 1.41425C7.55889 1.48745 7.52801 1.56037 7.47583 1.61255C7.42393 1.66474 7.35059 1.69547 7.27753 1.69547C7.20304 1.69547 7.13142 1.66474 7.0778 1.61255C7.02591 1.56051 6.99631 1.48745 6.99631 1.41425C6.99617 1.33962 7.02591 1.26657 7.0778 1.21453ZM8.96328 17.4426C8.49921 17.4426 8.12177 17.0648 8.12177 16.6009C8.12177 16.1368 8.49921 15.7592 8.96328 15.7592C9.42736 15.7592 9.8048 16.1368 9.8048 16.6009C9.8048 17.0648 9.42722 17.4426 8.96328 17.4426ZM13.0635 15.1872H5.04807V2.67196H13.0635V15.1872Z" fill="#81848B"/>
</svg>
