<svg width="83" height="95" viewBox="0 0 83 95" fill="none" xmlns="http://www.w3.org/2000/svg">
<path d="M40.704 63.5917C40.7032 67.2071 41.6478 70.7599 43.4439 73.8975C45.2401 77.0352 47.8254 79.6486 50.9435 81.4787C54.0615 83.3087 57.6038 84.2916 61.219 84.33C64.8342 84.3684 68.3966 83.4608 71.5527 81.6973C74.7089 79.9339 77.3491 77.3758 79.2114 74.277C81.0738 71.1782 82.0935 67.6462 82.1694 64.0316C82.2454 60.4171 81.3749 56.8454 79.6443 53.6711C77.9138 50.4968 75.3833 47.8301 72.304 45.9357V19.9497C72.3039 19.7052 72.247 19.4641 72.1376 19.2454C72.0283 19.0267 71.8696 18.8365 71.674 18.6897C52.042 -0.939304 53.312 0.167695 52.64 0.0346952C52.406 -0.0113048 54.885 0.00169522 6.319 0.00169522C4.64367 0.00354802 3.03748 0.669893 1.85284 1.85453C0.668199 3.03918 0.00185281 4.64536 0 6.32069V88.4707C0.00185281 90.146 0.668199 91.7522 1.85284 92.9369C3.03748 94.1215 4.64367 94.7878 6.319 94.7897H65.955C67.6303 94.7878 69.2365 94.1215 70.4212 92.9369C71.6058 91.7522 72.2721 90.146 72.274 88.4707C72.274 88.0517 72.1075 87.6498 71.8112 87.3535C71.5149 87.0572 71.113 86.8907 70.694 86.8907C70.275 86.8907 69.8731 87.0572 69.5768 87.3535C69.2805 87.6498 69.114 88.0517 69.114 88.4707C69.1132 89.3085 68.78 90.1118 68.1876 90.7043C67.5951 91.2967 66.7918 91.6299 65.954 91.6307H6.319C5.48116 91.6299 4.67786 91.2967 4.08542 90.7043C3.49298 90.1118 3.15979 89.3085 3.159 88.4707V6.3237C3.15979 5.48585 3.49298 4.68256 4.08542 4.09012C4.67786 3.49767 5.48116 3.16449 6.319 3.1637H50.755V15.2097C50.7569 16.885 51.4232 18.4912 52.6078 19.6759C53.7925 20.8605 55.3987 21.5268 57.074 21.5287H69.144V44.3407C66.5102 43.2838 63.6867 42.7817 60.85 42.8657V31.6017C60.8484 30.3453 60.3486 29.1409 59.4602 28.2525C58.5718 27.3641 57.3674 26.8643 56.111 26.8627H16.217C14.9606 26.8643 13.7562 27.3641 12.8678 28.2525C11.9794 29.1409 11.4796 30.3453 11.478 31.6017V51.7427C11.4796 52.9991 11.9794 54.2035 12.8678 55.0919C13.7562 55.9803 14.9606 56.4801 16.217 56.4817H36.955C37.374 56.4817 37.7759 56.3152 38.0722 56.0189C38.3685 55.7226 38.535 55.3207 38.535 54.9017C38.535 54.4827 38.3685 54.0808 38.0722 53.7845C37.7759 53.4882 37.374 53.3217 36.955 53.3217H29.843V43.2517H44.061C44.48 43.2517 44.8819 43.0852 45.1782 42.7889C45.4745 42.4926 45.641 42.0907 45.641 41.6717V30.0207H56.107C56.5259 30.0212 56.9275 30.1879 57.2236 30.4841C57.5198 30.7802 57.6865 31.1818 57.687 31.6007V43.2017C52.922 44.0851 48.616 46.607 45.5145 50.3307C42.4129 54.0544 40.7112 58.7455 40.704 63.5917ZM57.071 18.3697C56.2332 18.3689 55.4299 18.0357 54.8374 17.4433C54.245 16.8508 53.9118 16.0475 53.911 15.2097V5.4017L66.883 18.3697H57.071ZM16.217 30.0207H26.684V40.0917H14.638V31.6017C14.6383 31.1828 14.8046 30.7811 15.1007 30.4848C15.3967 30.1884 15.7981 30.0215 16.217 30.0207ZM26.683 53.3207H16.217C15.7981 53.3202 15.3966 53.1535 15.1004 52.8573C14.8042 52.5611 14.6375 52.1596 14.637 51.7407V43.2517H26.684L26.683 53.3207ZM42.483 40.0897H29.843V30.0207H42.482L42.483 40.0897ZM79.016 63.5897C79.0162 67.0657 77.9857 70.4636 76.0547 73.3539C74.1237 76.2442 71.3791 78.497 68.1678 79.8274C64.9565 81.1578 61.4229 81.5061 58.0136 80.8283C54.6044 80.1504 51.4727 78.4768 49.0147 76.0192C46.5566 73.5615 44.8825 70.4301 44.204 67.021C43.5256 63.6119 43.8733 60.0782 45.2031 56.8666C46.533 53.6551 48.7853 50.9101 51.6753 48.9787C54.5652 47.0472 57.963 46.0161 61.439 46.0157C66.0985 46.022 70.5653 47.8758 73.8601 51.1706C77.1549 54.4654 79.0087 58.9322 79.015 63.5917L79.016 63.5897ZM63.016 67.5397V66.9017C63.0171 66.5647 62.9099 66.2363 62.7102 65.9648C62.5106 65.6933 62.229 65.4931 61.907 65.3937L60.026 64.8017C59.0602 64.5033 58.2157 63.9027 57.6169 63.0882C57.0181 62.2738 56.6967 61.2886 56.7 60.2777V59.6417C56.7012 58.6619 57.0056 57.7065 57.5714 56.9065C58.1371 56.1065 58.9366 55.5013 59.86 55.1737V54.5067C59.86 54.0877 60.0265 53.6858 60.3228 53.3895C60.6191 53.0932 61.021 52.9267 61.44 52.9267C61.859 52.9267 62.2609 53.0932 62.5572 53.3895C62.8535 53.6858 63.02 54.0877 63.02 54.5067V55.1737C63.9434 55.5013 64.7429 56.1065 65.3086 56.9065C65.8744 57.7065 66.1788 58.6619 66.18 59.6417C66.18 60.0607 66.0135 60.4626 65.7172 60.7589C65.4209 61.0552 65.019 61.2217 64.6 61.2217C64.181 61.2217 63.7791 61.0552 63.4828 60.7589C63.1865 60.4626 63.02 60.0607 63.02 59.6417C63.02 59.2227 62.8535 58.8208 62.5572 58.5245C62.2609 58.2282 61.859 58.0617 61.44 58.0617C61.021 58.0617 60.6191 58.2282 60.3228 58.5245C60.0265 58.8208 59.86 59.2227 59.86 59.6417V60.2807C59.8589 60.6177 59.9661 60.9461 60.1658 61.2176C60.3654 61.4891 60.647 61.6893 60.969 61.7887L62.854 62.3777C63.8196 62.6763 64.6639 63.277 65.2625 64.0914C65.8611 64.9059 66.1823 65.891 66.179 66.9017V67.5407C66.1775 68.6257 65.8043 69.6775 65.1216 70.5209C64.4389 71.3642 63.4879 71.9483 62.427 72.1757V72.6757C62.427 73.0947 62.2605 73.4966 61.9642 73.7929C61.6679 74.0892 61.266 74.2557 60.847 74.2557C60.428 74.2557 60.0261 74.0892 59.7298 73.7929C59.4335 73.4966 59.267 73.0947 59.267 72.6757V71.7517C58.4943 71.3527 57.8461 70.749 57.3934 70.0065C56.9407 69.264 56.7008 68.4113 56.7 67.5417C56.7 67.3342 56.7409 67.1288 56.8203 66.9371C56.8997 66.7454 57.0161 66.5712 57.1628 66.4245C57.3095 66.2777 57.4837 66.1614 57.6754 66.082C57.8671 66.0026 58.0725 65.9617 58.28 65.9617C58.4875 65.9617 58.6929 66.0026 58.8846 66.082C59.0763 66.1614 59.2505 66.2777 59.3972 66.4245C59.5439 66.5712 59.6603 66.7454 59.7397 66.9371C59.8191 67.1288 59.86 67.3342 59.86 67.5417C59.86 67.9607 60.0265 68.3626 60.3228 68.6589C60.6191 68.9552 61.021 69.1217 61.44 69.1217C61.859 69.1217 62.2609 68.9552 62.5572 68.6589C62.8535 68.3626 63.02 67.9607 63.02 67.5417L63.016 67.5397ZM11.478 65.1717C11.478 64.7532 11.644 64.3517 11.9397 64.0555C12.2354 63.7593 12.6365 63.5925 13.055 63.5917H28.455C28.874 63.5917 29.2759 63.7582 29.5722 64.0545C29.8685 64.3508 30.035 64.7526 30.035 65.1717C30.035 65.5907 29.8685 65.9926 29.5722 66.2889C29.2759 66.5852 28.874 66.7517 28.455 66.7517H13.055C12.6365 66.7509 12.2354 66.5841 11.9397 66.2879C11.644 65.9916 11.478 65.5902 11.478 65.1717ZM11.478 77.0207C11.4777 76.602 11.6437 76.2003 11.9394 75.9039C12.235 75.6074 12.6363 75.4405 13.055 75.4397H32.41C32.829 75.4397 33.2309 75.6062 33.5272 75.9025C33.8235 76.1988 33.99 76.6006 33.99 77.0197C33.99 77.4387 33.8235 77.8406 33.5272 78.1369C33.2309 78.4332 32.829 78.5997 32.41 78.5997H13.055C12.6365 78.5989 12.2354 78.4321 11.9397 78.1359C11.644 77.8396 11.478 77.4382 11.478 77.0197V77.0207Z" fill="#24D07D"/>
</svg>
