<svg width="401" height="391" viewBox="0 0 401 391" fill="none" xmlns="http://www.w3.org/2000/svg">
<path d="M193.704 169.217C191.714 171.207 189.352 172.785 186.753 173.862C184.154 174.938 181.368 175.492 178.554 175.492C175.74 175.492 172.954 174.938 170.355 173.862C167.755 172.785 165.393 171.207 163.404 169.217L162.393 168.206L157.383 163.195C153.365 159.177 147.915 156.92 142.233 156.92C136.551 156.92 131.101 159.177 127.083 163.195" stroke="black" stroke-width="3" stroke-linecap="round" stroke-linejoin="round" stroke-dasharray="10 10"/>
<path d="M143.085 256.835V273.611" stroke="black" stroke-width="3" stroke-linecap="round" stroke-linejoin="round"/>
<path d="M172.17 273.611H114.001" stroke="black" stroke-width="3" stroke-linecap="round" stroke-linejoin="round"/>
<path d="M182.665 242.852C182.665 239.388 181.379 236.046 179.056 233.475C176.733 230.905 173.538 229.288 170.091 228.938C169.696 222.819 167.168 217.032 162.948 212.584C158.727 208.135 153.081 205.308 146.99 204.592C140.9 203.877 134.752 205.319 129.616 208.668C124.479 212.017 120.679 217.061 118.877 222.922C114.547 223.361 110.55 225.445 107.71 228.743C104.87 232.04 103.403 236.302 103.612 240.649C103.82 244.996 105.688 249.098 108.83 252.109C111.972 255.121 116.15 256.812 120.502 256.835C120.543 256.835 120.582 256.829 120.623 256.829V256.835H168.736C172.435 256.822 175.979 255.343 178.589 252.722C181.2 250.101 182.666 246.552 182.665 242.852Z" fill="#E8F2FC" stroke="black" stroke-width="3" stroke-linejoin="round"/>
<path d="M149.71 273.61C149.71 274.921 149.321 276.202 148.593 277.291C147.865 278.38 146.831 279.23 145.62 279.731C144.41 280.232 143.077 280.364 141.792 280.108C140.507 279.852 139.327 279.221 138.4 278.295C137.474 277.368 136.843 276.188 136.587 274.903C136.332 273.618 136.463 272.286 136.964 271.075C137.466 269.865 138.315 268.83 139.404 268.102C140.494 267.374 141.775 266.985 143.085 266.985C144.842 266.985 146.527 267.683 147.769 268.926C149.012 270.168 149.71 271.853 149.71 273.61Z" fill="#3B94EC"/>
<path d="M221.351 30.494L240.133 15.8C251.565 6.86541 265.655 2.00808 280.164 2H400.839" stroke="black" stroke-width="3" stroke-linecap="round" stroke-linejoin="round"/>
<path d="M400.839 37.043H223.62" stroke="black" stroke-width="3" stroke-linecap="round" stroke-linejoin="round"/>
<path d="M223.612 37.0429C223.612 39.1457 222.988 41.2012 221.82 42.9495C220.651 44.6978 218.991 46.0603 217.048 46.8649C215.105 47.6694 212.967 47.8798 210.905 47.4695C208.843 47.0591 206.948 46.0465 205.462 44.5595C203.975 43.0726 202.962 41.1781 202.552 39.1157C202.142 37.0534 202.352 34.9157 203.157 32.973C203.962 31.0303 205.325 29.3699 207.073 28.2017C208.822 27.0334 210.877 26.4099 212.98 26.4099C214.376 26.4099 215.759 26.6849 217.049 27.2193C218.339 27.7537 219.511 28.5369 220.498 29.5243C221.485 30.5117 222.269 31.6839 222.803 32.9739C223.337 34.264 223.612 35.6466 223.612 37.0429V37.0429Z" stroke="black" stroke-width="3" stroke-linecap="round" stroke-linejoin="round"/>
<path d="M218.515 37.0431C218.515 38.1378 218.19 39.2078 217.582 40.1179C216.973 41.028 216.109 41.7373 215.097 42.156C214.086 42.5748 212.973 42.6843 211.899 42.4706C210.826 42.2569 209.84 41.7297 209.066 40.9556C208.292 40.1814 207.765 39.1952 207.551 38.1215C207.338 37.0479 207.447 35.935 207.866 34.9237C208.285 33.9124 208.995 33.048 209.905 32.4398C210.815 31.8317 211.885 31.5071 212.98 31.5071C213.707 31.5071 214.427 31.6503 215.098 31.9285C215.77 32.2067 216.38 32.6145 216.894 33.1286C217.408 33.6427 217.816 34.253 218.094 34.9246C218.372 35.5963 218.515 36.3161 218.515 37.0431Z" stroke="black" stroke-width="3" stroke-linecap="round" stroke-linejoin="round"/>
<path d="M366.668 2.13892L400.839 36.3859" stroke="black" stroke-width="3" stroke-linecap="round" stroke-linejoin="round"/>
<path d="M400.064 2.13892L365.802 36.3859" stroke="black" stroke-width="3" stroke-linecap="round" stroke-linejoin="round"/>
<path d="M331.63 2.13892L365.801 36.3859" stroke="black" stroke-width="3" stroke-linecap="round" stroke-linejoin="round"/>
<path d="M365.026 2.13892L330.764 36.3859" stroke="black" stroke-width="3" stroke-linecap="round" stroke-linejoin="round"/>
<path d="M296.593 2.13892L330.764 36.3859" stroke="black" stroke-width="3" stroke-linecap="round" stroke-linejoin="round"/>
<path d="M329.989 2.13892L295.727 36.3859" stroke="black" stroke-width="3" stroke-linecap="round" stroke-linejoin="round"/>
<path d="M263.573 4.15991L295.727 36.3859" stroke="black" stroke-width="3" stroke-linecap="round" stroke-linejoin="round"/>
<path d="M294.952 2.13892L260.69 36.3859" stroke="black" stroke-width="3" stroke-linecap="round" stroke-linejoin="round"/>
<path d="M212.979 48.2339V85.1089" stroke="black" stroke-width="3" stroke-linecap="round" stroke-linejoin="round"/>
<path d="M212.979 85.1089L198.631 99.4569" stroke="black" stroke-width="3" stroke-linecap="round" stroke-linejoin="round"/>
<path d="M212.979 85.1089L227.327 99.4569" stroke="black" stroke-width="3" stroke-linecap="round" stroke-linejoin="round"/>
<path d="M182.665 100.218H243.293V119.29H182.665V100.218Z" stroke="black" stroke-width="3" stroke-linecap="round" stroke-linejoin="round"/>
<path d="M200.442 109.755C200.442 110.816 200.127 111.853 199.538 112.735C198.949 113.617 198.111 114.304 197.131 114.71C196.151 115.116 195.072 115.223 194.032 115.016C192.991 114.809 192.035 114.298 191.285 113.548C190.535 112.798 190.024 111.842 189.817 110.802C189.61 109.761 189.716 108.683 190.122 107.703C190.528 106.723 191.215 105.885 192.097 105.295C192.979 104.706 194.016 104.391 195.077 104.391C195.781 104.391 196.479 104.529 197.13 104.799C197.781 105.068 198.373 105.463 198.871 105.961C199.369 106.459 199.764 107.051 200.034 107.702C200.303 108.353 200.442 109.05 200.442 109.755Z" stroke="black" stroke-width="3" stroke-linecap="round" stroke-linejoin="round"/>
<path d="M218.342 109.755C218.342 110.816 218.027 111.853 217.438 112.735C216.849 113.617 216.011 114.304 215.031 114.71C214.051 115.116 212.972 115.223 211.932 115.016C210.891 114.809 209.935 114.298 209.185 113.548C208.435 112.798 207.924 111.842 207.717 110.802C207.51 109.761 207.616 108.683 208.022 107.703C208.428 106.723 209.115 105.885 209.997 105.295C210.879 104.706 211.916 104.391 212.977 104.391C213.681 104.391 214.379 104.529 215.03 104.799C215.681 105.068 216.272 105.463 216.771 105.961C217.269 106.459 217.664 107.051 217.934 107.702C218.203 108.353 218.342 109.05 218.342 109.755V109.755Z" stroke="black" stroke-width="3" stroke-linecap="round" stroke-linejoin="round"/>
<path d="M236.244 109.755C236.244 110.816 235.929 111.853 235.34 112.735C234.751 113.617 233.913 114.304 232.933 114.71C231.953 115.116 230.874 115.223 229.834 115.016C228.793 114.809 227.837 114.298 227.087 113.548C226.337 112.798 225.826 111.842 225.619 110.802C225.412 109.761 225.518 108.683 225.924 107.703C226.33 106.723 227.017 105.885 227.899 105.295C228.781 104.706 229.818 104.391 230.879 104.391C231.583 104.391 232.281 104.529 232.932 104.799C233.583 105.068 234.174 105.463 234.673 105.961C235.171 106.459 235.566 107.051 235.836 107.702C236.105 108.353 236.244 109.05 236.244 109.755V109.755Z" stroke="black" stroke-width="3" stroke-linecap="round" stroke-linejoin="round"/>
<path d="M53.9048 100.257C53.9051 97.985 53.0618 95.7936 51.5385 94.1078C50.0153 92.4219 47.9204 91.3615 45.6599 91.1321C45.4021 87.118 43.745 83.3213 40.9769 80.4029C38.2087 77.4846 34.5049 75.6292 30.5099 75.1599C26.515 74.6906 22.482 75.637 19.1129 77.8344C15.7438 80.0317 13.2519 83.341 12.0709 87.1861C9.2222 87.4622 6.5889 88.8235 4.71649 90.9881C2.84409 93.1526 1.87605 95.9545 2.01294 98.8132C2.14983 101.672 3.38118 104.369 5.45184 106.344C7.52251 108.32 10.2738 109.423 13.1359 109.426C13.1629 109.426 13.1889 109.426 13.2159 109.426H44.7698C47.1957 109.417 49.5192 108.447 51.2314 106.729C52.9435 105.01 53.9049 102.683 53.9048 100.257Z" fill="#E8F2FC" stroke="black" stroke-width="3" stroke-linejoin="round"/>
<path d="M264.023 176.651C264.023 182.901 262.17 189.01 258.697 194.207C255.225 199.403 250.29 203.454 244.516 205.845C238.741 208.237 232.388 208.863 226.258 207.644C220.128 206.424 214.498 203.415 210.078 198.995C205.659 194.576 202.649 188.945 201.43 182.816C200.211 176.686 200.836 170.332 203.228 164.558C205.62 158.784 209.67 153.849 214.867 150.376C220.063 146.904 226.173 145.051 232.423 145.051C240.804 145.051 248.841 148.38 254.767 154.306C260.694 160.232 264.023 168.27 264.023 176.651V176.651Z" stroke="black" stroke-width="3" stroke-linecap="round" stroke-linejoin="round"/>
<path d="M210.934 176.651C210.934 176.958 210.843 177.257 210.673 177.512C210.502 177.767 210.26 177.966 209.977 178.084C209.693 178.201 209.381 178.232 209.081 178.172C208.78 178.112 208.503 177.965 208.286 177.748C208.07 177.531 207.922 177.255 207.862 176.954C207.802 176.653 207.832 176.341 207.95 176.058C208.067 175.775 208.266 175.532 208.52 175.362C208.775 175.191 209.075 175.1 209.382 175.1C209.586 175.1 209.787 175.14 209.976 175.217C210.164 175.295 210.335 175.409 210.479 175.553C210.624 175.698 210.738 175.869 210.816 176.057C210.894 176.245 210.934 176.447 210.934 176.651Z" fill="black"/>
<path d="M256.455 176.651C256.455 176.958 256.364 177.258 256.194 177.513C256.023 177.769 255.781 177.968 255.497 178.085C255.214 178.203 254.902 178.234 254.601 178.174C254.3 178.114 254.023 177.967 253.806 177.75C253.589 177.533 253.441 177.256 253.381 176.955C253.321 176.654 253.351 176.342 253.469 176.058C253.586 175.775 253.785 175.532 254.04 175.361C254.296 175.191 254.596 175.1 254.903 175.1C255.107 175.099 255.309 175.139 255.497 175.217C255.685 175.295 255.857 175.409 256.001 175.553C256.145 175.697 256.259 175.868 256.337 176.057C256.415 176.245 256.455 176.447 256.455 176.651Z" fill="black"/>
<path d="M217.134 162.77L232.794 176.742" stroke="black" stroke-width="3" stroke-linecap="round" stroke-linejoin="round"/>
<path d="M241.764 166.203L232.275 176.488L231.682 175.776" stroke="black" stroke-width="3" stroke-linecap="round" stroke-linejoin="round"/>
<path d="M233.972 152.98C233.972 153.287 233.881 153.587 233.711 153.842C233.54 154.098 233.298 154.297 233.014 154.414C232.73 154.532 232.418 154.563 232.117 154.503C231.816 154.443 231.539 154.295 231.322 154.078C231.105 153.861 230.957 153.584 230.897 153.283C230.838 152.981 230.869 152.669 230.986 152.386C231.104 152.102 231.303 151.86 231.559 151.689C231.814 151.519 232.115 151.428 232.422 151.429C232.833 151.429 233.227 151.592 233.518 151.883C233.809 152.174 233.972 152.569 233.972 152.98Z" fill="black"/>
<path d="M233.972 200.101C233.972 200.408 233.881 200.708 233.711 200.964C233.54 201.219 233.298 201.418 233.014 201.536C232.73 201.653 232.418 201.684 232.117 201.624C231.816 201.564 231.539 201.416 231.322 201.199C231.105 200.982 230.957 200.705 230.897 200.404C230.838 200.103 230.869 199.79 230.986 199.507C231.104 199.223 231.303 198.981 231.559 198.81C231.814 198.64 232.115 198.549 232.422 198.55C232.833 198.55 233.227 198.714 233.518 199.005C233.808 199.296 233.972 199.69 233.972 200.101Z" fill="black"/>
<path d="M236.011 176.651C236.01 177.361 235.799 178.055 235.404 178.645C235.009 179.235 234.448 179.695 233.792 179.966C233.136 180.238 232.414 180.308 231.717 180.17C231.021 180.031 230.381 179.688 229.88 179.186C229.378 178.684 229.036 178.044 228.898 177.347C228.759 176.651 228.831 175.929 229.102 175.273C229.374 174.617 229.835 174.056 230.425 173.662C231.016 173.267 231.71 173.057 232.42 173.057C233.373 173.057 234.286 173.436 234.96 174.11C235.633 174.784 236.011 175.698 236.011 176.651Z" fill="black"/>
<path d="M115.283 108.705V136.911H120.291V112.846L115.283 108.705Z" fill="#D8DBD7"/>
<path d="M127.08 102.599V136.911H134.46L134.526 110.606L127.08 102.599Z" fill="#D8DBD7"/>
<path d="M143.455 100.326V136.912H153.989V104.806L143.455 100.326Z" fill="#D8DBD7"/>
<path d="M122.182 59.554V32.243C122.182 31.4973 122.036 30.7589 121.751 30.0699C121.466 29.3808 121.048 28.7547 120.521 28.2273C119.994 27.6998 119.368 27.2815 118.68 26.9961C117.991 26.7107 117.252 26.5638 116.507 26.564H84.3068C83.5609 26.5637 82.8222 26.7104 82.1329 26.9957C81.4437 27.281 80.8174 27.6992 80.2899 28.2266C79.7623 28.754 79.3438 29.3801 79.0583 30.0692C78.7728 30.7584 78.6258 31.497 78.6258 32.243V102.5C78.6257 103.246 78.7725 103.985 79.058 104.674C79.3434 105.363 79.7619 105.99 80.2894 106.517C80.817 107.045 81.4433 107.463 82.1326 107.749C82.8219 108.034 83.5607 108.181 84.3068 108.181H108.782" stroke="black" stroke-width="3" stroke-linecap="round" stroke-linejoin="round"/>
<path d="M78.6288 91.6329H108.784V59.8619L122.184 59.5559V36.6399H78.6308L78.6288 91.6329Z" fill="#3B94EC" stroke="black" stroke-width="3" stroke-linejoin="round"/>
<path d="M100.409 102.599C99.8208 102.599 99.2459 102.425 98.7569 102.099C98.2679 101.772 97.8866 101.308 97.6614 100.764C97.4363 100.221 97.3773 99.6234 97.4919 99.0467C97.6065 98.4699 97.8896 97.9401 98.3053 97.5242C98.721 97.1083 99.2507 96.8251 99.8275 96.7103C100.404 96.5955 101.002 96.6543 101.545 96.8793C102.089 97.1043 102.553 97.4853 102.88 97.9743C103.206 98.4632 103.381 99.038 103.381 99.6261C103.381 100.414 103.068 101.17 102.51 101.728C101.953 102.285 101.197 102.599 100.409 102.599Z" fill="black"/>
<path d="M108.78 59.8611H153.989V136.91H108.78V59.8611Z" stroke="black" stroke-width="3" stroke-linecap="round" stroke-linejoin="round"/>
<path d="M114.01 65.542H118.93V70.462H114.01V65.542Z" fill="black"/>
<path d="M121.039 65.542H125.959V70.462H121.039V65.542Z" fill="black"/>
<path d="M114.01 72.2319H118.93V77.1519H114.01V72.2319Z" fill="black"/>
<path d="M121.039 72.2319H125.959V77.1519H121.039V72.2319Z" fill="black"/>
<path d="M108.779 112.846L115.279 108.705L120.287 112.846L127.141 102.599L134.522 110.606L143.487 100.326L153.987 104.806" stroke="black" stroke-width="3" stroke-linecap="round" stroke-linejoin="round"/>
<path d="M306.858 78.1182H283.045C278.6 78.1182 274.338 79.8837 271.195 83.0265C268.052 86.1692 266.287 90.4317 266.287 94.8762V118.296C266.287 122.741 268.052 127.004 271.195 130.147C274.338 133.289 278.601 135.055 283.046 135.055H306.859C311.303 135.055 315.566 133.29 318.709 130.147C321.851 127.004 323.617 122.742 323.617 118.297V94.8772C323.617 90.4324 321.851 86.1697 318.708 83.0268C315.565 79.8838 311.303 78.1182 306.858 78.1182Z" fill="#3B94EC" stroke="black" stroke-width="3" stroke-linejoin="round"/>
<path d="M313.358 106.587C313.358 110.227 312.278 113.786 310.255 116.813C308.233 119.839 305.358 122.198 301.995 123.591C298.632 124.984 294.931 125.349 291.361 124.638C287.79 123.928 284.511 122.175 281.937 119.601C279.363 117.027 277.61 113.748 276.9 110.177C276.189 106.607 276.554 102.906 277.947 99.543C279.34 96.1798 281.699 93.3051 284.725 91.2826C287.752 89.26 291.311 88.1804 294.951 88.1802C297.368 88.1802 299.762 88.6563 301.995 89.5813C304.228 90.5064 306.257 91.8622 307.967 93.5715C309.676 95.2807 311.032 97.3099 311.957 99.5431C312.882 101.776 313.358 104.17 313.358 106.587Z" fill="white" stroke="black" stroke-width="3" stroke-linecap="round" stroke-linejoin="round"/>
<path d="M309.771 98.6343C309.817 99.1433 309.846 99.6603 309.846 100.182C309.846 102.418 309.405 104.632 308.549 106.697C307.694 108.762 306.44 110.639 304.858 112.22C303.277 113.8 301.401 115.054 299.335 115.909C297.269 116.765 295.056 117.205 292.82 117.204C286.436 117.204 281.011 112.774 278.097 107.575C278.667 116.142 286.032 123.964 294.913 123.964C297.881 123.964 300.798 123.188 303.373 121.713C305.949 120.237 308.094 118.114 309.595 115.554C311.097 112.994 311.903 110.085 311.933 107.117C311.963 104.149 311.217 101.225 309.768 98.6343H309.771Z" fill="#D8DBD7"/>
<path d="M299.7 118.492C299.709 118.547 299.704 118.602 299.687 118.655C299.67 118.708 299.641 118.755 299.602 118.794C299.563 118.833 299.515 118.863 299.463 118.88C299.41 118.897 299.354 118.901 299.3 118.892H290.595C290.541 118.9 290.486 118.895 290.434 118.878C290.382 118.86 290.335 118.831 290.296 118.792C290.258 118.753 290.229 118.706 290.213 118.654C290.196 118.601 290.192 118.546 290.201 118.492V117.141C290.192 117.087 290.197 117.032 290.213 116.98C290.23 116.928 290.259 116.881 290.297 116.842C290.335 116.803 290.382 116.773 290.434 116.756C290.486 116.738 290.541 116.733 290.595 116.741H293.595V105.201H290.595C290.541 105.209 290.486 105.204 290.434 105.186C290.382 105.169 290.335 105.139 290.297 105.101C290.259 105.062 290.23 105.014 290.213 104.962C290.197 104.91 290.192 104.855 290.201 104.801V103.448C290.192 103.394 290.197 103.339 290.213 103.287C290.23 103.235 290.259 103.188 290.297 103.149C290.335 103.11 290.382 103.08 290.434 103.063C290.486 103.045 290.541 103.04 290.595 103.048H299.3C299.354 103.039 299.41 103.044 299.463 103.061C299.515 103.078 299.563 103.107 299.602 103.146C299.641 103.185 299.67 103.233 299.687 103.285C299.704 103.338 299.709 103.394 299.7 103.448V104.801C299.709 104.856 299.704 104.911 299.687 104.964C299.67 105.017 299.641 105.064 299.602 105.103C299.563 105.142 299.515 105.172 299.463 105.189C299.41 105.206 299.354 105.21 299.3 105.201H296.3V116.748H299.3C299.354 116.739 299.41 116.744 299.463 116.761C299.515 116.778 299.563 116.807 299.602 116.846C299.641 116.885 299.67 116.933 299.687 116.985C299.704 117.038 299.709 117.094 299.7 117.148V118.492Z" fill="black"/>
<path d="M298.238 97.5702C298.238 98.2199 298.046 98.8551 297.685 99.3955C297.324 99.9358 296.811 100.357 296.211 100.606C295.61 100.855 294.95 100.92 294.313 100.793C293.675 100.667 293.09 100.354 292.63 99.8943C292.171 99.435 291.858 98.8497 291.731 98.2124C291.604 97.5751 291.669 96.9146 291.918 96.3143C292.166 95.714 292.587 95.2008 293.128 94.8398C293.668 94.4788 294.303 94.2861 294.953 94.2861C295.824 94.2864 296.659 94.6324 297.275 95.2482C297.891 95.864 298.237 96.6992 298.238 97.5702Z" stroke="black" stroke-width="3" stroke-linecap="round" stroke-linejoin="round"/>
<path d="M347.867 79.1392V91.0012C347.867 94.0777 346.645 97.0282 344.469 99.2036C342.294 101.379 339.343 102.601 336.267 102.601H323.618" stroke="black" stroke-width="3" stroke-linecap="round" stroke-linejoin="round"/>
<path d="M357.115 79.139H338.621V60.645H357.115V79.139Z" stroke="black" stroke-width="3" stroke-linecap="round" stroke-linejoin="round"/>
<path d="M378.617 98.3721V110.234C378.617 113.311 377.395 116.261 375.219 118.437C373.044 120.612 370.093 121.834 367.017 121.834H323.617" stroke="black" stroke-width="3" stroke-linecap="round" stroke-linejoin="round"/>
<path d="M387.865 98.3719H369.371V79.8779H387.865V98.3719Z" stroke="black" stroke-width="3" stroke-linecap="round" stroke-linejoin="round"/>
<path d="M116.308 166.23H88.5309C57.3179 166.23 32.0138 145.93 32.0138 120.891" stroke="black" stroke-width="3" stroke-linecap="round" stroke-linejoin="round" stroke-dasharray="10 10"/>
<path d="M329.71 161.184C319.48 161.184 311.191 180.811 311.191 205.013C311.191 219.981 314.361 233.18 319.198 241.085C320.072 242.719 320.506 244.553 320.457 246.406V260.939C320.457 266.054 321.857 266.769 323.793 266.849H319.486C313.049 266.849 307.815 267.385 307.815 260.939V246.407C307.783 245.345 307.495 244.306 306.974 243.38C306.454 242.453 305.717 241.666 304.827 241.086C297.132 235.779 291.336 228.152 288.285 219.317C285.234 210.482 285.087 200.903 287.866 191.979C290.645 183.055 296.205 175.253 303.733 169.713C311.262 164.173 320.364 161.185 329.711 161.186L329.71 161.184Z" fill="#D8DBD7"/>
<path d="M285.872 205.013C285.869 197.467 287.814 190.047 291.519 183.473C295.225 176.899 300.565 171.393 307.022 167.488C313.48 163.583 320.836 161.412 328.379 161.184C335.922 160.956 343.396 162.68 350.078 166.188C356.759 169.696 362.421 174.87 366.517 181.209C370.612 187.547 373.001 194.836 373.453 202.369C373.905 209.902 372.405 217.424 369.097 224.206C365.789 230.989 360.786 236.803 354.572 241.085C353.684 241.667 352.949 242.454 352.43 243.381C351.912 244.307 351.624 245.345 351.592 246.406V260.939C351.592 267.385 346.357 266.849 339.912 266.849H319.476C313.036 266.849 307.8 267.385 307.8 260.939V246.407C307.768 245.345 307.48 244.306 306.96 243.38C306.44 242.453 305.703 241.666 304.813 241.086C298.966 237.061 294.187 231.674 290.887 225.389C287.587 219.104 285.866 212.111 285.872 205.013Z" stroke="black" stroke-width="3" stroke-linecap="round" stroke-linejoin="round"/>
<path d="M320.606 223.483V255.486" stroke="black" stroke-width="3" stroke-linecap="round" stroke-linejoin="round"/>
<path d="M339.383 220.477V255.486" stroke="black" stroke-width="3" stroke-linecap="round" stroke-linejoin="round"/>
<path d="M339.934 220.308C341.691 221.665 343.851 222.398 346.071 222.39C348.751 222.39 351.321 221.325 353.217 219.43C355.112 217.535 356.176 214.965 356.176 212.284C356.176 209.604 355.112 207.034 353.217 205.139C351.321 203.244 348.751 202.179 346.071 202.179C340.431 202.179 336.235 206.041 330.265 212.327C323.656 219.019 320.165 222.39 314.609 222.39C313.006 222.385 311.427 221.999 310.002 221.263C308.578 220.527 307.349 219.463 306.417 218.158C305.486 216.854 304.878 215.346 304.644 213.76C304.41 212.174 304.556 210.555 305.072 209.037C305.587 207.519 306.456 206.145 307.607 205.029C308.758 203.913 310.159 203.088 311.692 202.62C313.225 202.152 314.848 202.056 316.426 202.339C318.004 202.622 319.492 203.277 320.767 204.249" stroke="black" stroke-width="3" stroke-linecap="round" stroke-linejoin="round"/>
<path d="M317.611 276.703C317.596 278.378 317.913 280.04 318.544 281.593C319.175 283.145 320.107 284.557 321.287 285.747C322.466 286.937 323.87 287.882 325.417 288.527C326.964 289.172 328.623 289.503 330.298 289.503C331.974 289.503 333.633 289.172 335.18 288.527C336.727 287.882 338.13 286.937 339.31 285.747C340.489 284.557 341.422 283.145 342.053 281.593C342.684 280.04 343.001 278.378 342.986 276.703C342.986 269.696 337.302 269.78 330.304 269.78C323.306 269.78 317.611 269.697 317.611 276.703Z" fill="white" stroke="black" stroke-width="3" stroke-linecap="round" stroke-linejoin="round"/>
<path d="M351.606 251.236V264.813C351.599 267.02 350.716 269.134 349.152 270.69C347.587 272.247 345.468 273.118 343.261 273.113H316.137C313.93 273.118 311.812 272.246 310.248 270.69C308.684 269.133 307.802 267.019 307.796 264.813V251.236H351.606Z" fill="white" stroke="black" stroke-width="3" stroke-linecap="round" stroke-linejoin="round"/>
<path d="M249.771 248.872C249.876 248.872 249.979 248.841 250.067 248.783C250.155 248.725 250.224 248.643 250.266 248.547C250.309 248.451 250.322 248.344 250.305 248.24C250.288 248.137 250.242 248.04 250.171 247.962L239.708 230.372L229.23 247.952C229.16 248.032 229.114 248.13 229.098 248.236C229.083 248.341 229.098 248.448 229.142 248.545C229.186 248.642 229.256 248.724 229.346 248.782C229.435 248.84 229.54 248.87 229.646 248.87L235.227 248.847V261.602C235.227 261.927 235.356 262.238 235.585 262.468C235.815 262.698 236.126 262.827 236.451 262.827H242.672C242.833 262.827 242.992 262.796 243.14 262.735C243.289 262.673 243.424 262.583 243.537 262.469C243.651 262.356 243.741 262.221 243.802 262.072C243.864 261.924 243.895 261.765 243.895 261.604V248.894L249.771 248.872Z" stroke="black" stroke-width="3" stroke-linecap="round" stroke-linejoin="round"/>
<path d="M298.959 297.089H264.705C261.432 297.089 258.192 296.445 255.168 295.193C252.145 293.941 249.398 292.106 247.084 289.792C244.769 287.478 242.934 284.731 241.682 281.707C240.429 278.684 239.785 275.444 239.785 272.171V267.53" stroke="black" stroke-width="3" stroke-linecap="round" stroke-linejoin="round" stroke-dasharray="10 10"/>
<path d="M400.839 388.546C400.054 388.812 399.216 388.884 398.398 388.755C397.579 388.625 396.804 388.299 396.14 387.803C395.475 387.307 394.942 386.658 394.584 385.91C394.227 385.162 394.058 384.338 394.09 383.51L394.128 381.949C394.157 381.13 393.896 380.326 393.389 379.682C392.882 379.038 392.163 378.594 391.36 378.43C389.041 377.984 386.763 377.353 384.545 376.543C383.735 376.215 382.837 376.176 382.002 376.433C381.167 376.69 380.446 377.226 379.96 377.953L379.252 379.102C378.535 380.271 377.383 381.108 376.049 381.428C374.715 381.748 373.309 381.525 372.139 380.808C370.97 380.091 370.133 378.939 369.813 377.605C369.493 376.272 369.716 374.865 370.433 373.696L371.081 372.645C371.517 371.95 371.694 371.125 371.582 370.313C371.47 369.5 371.075 368.754 370.467 368.204C368.594 366.559 366.864 364.759 365.296 362.822C364.772 362.171 364.037 361.724 363.219 361.557C362.4 361.391 361.549 361.516 360.813 361.911L359.791 362.466C358.587 363.099 357.182 363.233 355.881 362.838C354.579 362.443 353.485 361.551 352.837 360.355C352.188 359.16 352.036 357.757 352.415 356.45C352.793 355.144 353.671 354.039 354.858 353.375L355.88 352.816C356.612 352.417 357.181 351.775 357.489 351.001C357.798 350.227 357.825 349.369 357.567 348.577C356.832 346.308 356.282 343.983 355.924 341.626C355.824 340.765 355.425 339.967 354.797 339.369C354.17 338.772 353.352 338.413 352.488 338.356L351.262 338.326C350.583 338.308 349.914 338.157 349.293 337.881C348.673 337.604 348.113 337.209 347.645 336.716C347.178 336.223 346.812 335.643 346.568 335.009C346.325 334.375 346.209 333.699 346.226 333.02C346.244 332.341 346.395 331.672 346.672 331.052C346.948 330.431 347.344 329.871 347.836 329.404C348.329 328.936 348.909 328.57 349.543 328.327C350.177 328.083 350.853 327.967 351.532 327.985L352.883 328.025C353.709 328.053 354.519 327.795 355.175 327.293C355.831 326.792 356.294 326.078 356.483 325.274C357.002 322.969 357.701 320.708 358.576 318.513C358.927 317.721 358.988 316.831 358.748 315.998C358.508 315.166 357.982 314.445 357.263 313.962L355.933 313.143C354.765 312.427 353.929 311.276 353.61 309.944C353.29 308.612 353.513 307.207 354.229 306.039C354.945 304.871 356.096 304.036 357.428 303.716C358.76 303.397 360.165 303.62 361.333 304.336L362.833 305.253C363.593 305.68 364.476 305.833 365.336 305.688C366.195 305.542 366.979 305.106 367.556 304.453C369.091 302.838 370.744 301.341 372.502 299.973C373.181 299.466 373.658 298.734 373.848 297.909C374.039 297.083 373.931 296.217 373.543 295.464L372.574 293.688C372.247 293.091 372.041 292.435 371.968 291.759C371.895 291.082 371.956 290.397 372.148 289.745C372.34 289.092 372.66 288.483 373.088 287.954C373.516 287.425 374.044 286.985 374.642 286.661C375.241 286.336 375.897 286.133 376.574 286.063C377.251 285.993 377.935 286.058 378.587 286.253C379.239 286.448 379.847 286.77 380.374 287.2C380.901 287.631 381.338 288.161 381.66 288.761L382.736 290.738C383.184 291.491 383.877 292.067 384.699 292.371C385.52 292.675 386.422 292.689 387.252 292.409C389.343 291.791 391.478 291.333 393.639 291.038C394.457 290.922 395.208 290.519 395.757 289.902C396.306 289.284 396.619 288.492 396.639 287.666L396.713 285.147C396.746 283.983 397.171 282.864 397.92 281.973C398.669 281.082 399.698 280.47 400.839 280.238" stroke="black" stroke-width="3" stroke-linecap="round" stroke-linejoin="round"/>
<path d="M400.84 351.247C398.661 351.333 396.486 350.977 394.448 350.202C392.409 349.427 390.548 348.249 388.976 346.737C387.404 345.226 386.153 343.412 385.298 341.406C384.444 339.399 384.004 337.24 384.004 335.059C384.004 332.878 384.444 330.72 385.298 328.713C386.153 326.707 387.404 324.893 388.976 323.381C390.548 321.87 392.409 320.691 394.448 319.916C396.486 319.141 398.661 318.786 400.84 318.872C398.661 318.786 396.486 319.141 394.448 319.916C392.409 320.691 390.548 321.87 388.976 323.381C387.404 324.893 386.153 326.707 385.298 328.713C384.444 330.72 384.004 332.878 384.004 335.059C384.004 337.24 384.444 339.399 385.298 341.406C386.153 343.412 387.404 345.226 388.976 346.737C390.548 348.249 392.409 349.427 394.448 350.202C396.486 350.977 398.661 351.333 400.84 351.247" stroke="black" stroke-width="3" stroke-linecap="round" stroke-linejoin="round"/>
<path d="M162.61 334.527C162.61 340.748 164.454 346.83 167.91 352.002C171.367 357.175 176.279 361.207 182.027 363.588C187.774 365.969 194.099 366.592 200.2 365.379C206.302 364.165 211.907 361.169 216.306 356.771C220.705 352.372 223.701 346.767 224.915 340.665C226.129 334.564 225.506 328.239 223.126 322.491C220.745 316.744 216.714 311.831 211.541 308.374C206.368 304.918 200.287 303.073 194.066 303.073C185.724 303.073 177.723 306.387 171.824 312.285C165.925 318.184 162.61 326.184 162.61 334.527Z" fill="white" stroke="black" stroke-width="3" stroke-linecap="round" stroke-linejoin="round"/>
<path d="M189.562 352.067C185.551 351.204 181.957 348.992 179.379 345.8C176.801 342.609 175.395 338.63 175.395 334.527C175.395 330.425 176.801 326.446 179.379 323.254C181.957 320.063 185.551 317.851 189.562 316.988" stroke="black" stroke-width="3" stroke-linecap="round" stroke-linejoin="round"/>
<path d="M189.562 352.067L187.825 346.828" stroke="black" stroke-width="3" stroke-linecap="round" stroke-linejoin="round"/>
<path d="M189.562 352.067L185.009 355.189" stroke="black" stroke-width="3" stroke-linecap="round" stroke-linejoin="round"/>
<path d="M197.118 316.988C201.129 317.85 204.724 320.061 207.303 323.253C209.882 326.445 211.288 330.424 211.288 334.527C211.288 338.63 209.882 342.61 207.303 345.801C204.724 348.993 201.129 351.204 197.118 352.067" stroke="black" stroke-width="3" stroke-linecap="round" stroke-linejoin="round"/>
<path d="M197.118 316.988L198.855 322.228" stroke="black" stroke-width="3" stroke-linecap="round" stroke-linejoin="round"/>
<path d="M197.118 316.988L201.671 313.868" stroke="black" stroke-width="3" stroke-linecap="round" stroke-linejoin="round"/>
<path d="M295.148 326.032V347.715C295.148 350.911 296.282 354.004 298.348 356.443L314.163 375.12C314.978 376.083 315.501 377.259 315.67 378.509C315.84 379.759 315.647 381.032 315.117 382.176C314.586 383.321 313.739 384.29 312.676 384.969C311.613 385.648 310.377 386.009 309.116 386.009H262.63C261.368 386.009 260.132 385.648 259.069 384.969C258.005 384.29 257.158 383.321 256.628 382.176C256.097 381.031 255.905 379.759 256.074 378.508C256.244 377.258 256.767 376.082 257.583 375.119L273.399 356.443C275.465 354.004 276.599 350.911 276.599 347.715V326.032" stroke="black" stroke-width="3" stroke-linecap="round" stroke-linejoin="round"/>
<path d="M269.276 365.286H302.47L312.203 376.78C312.702 377.369 313.022 378.088 313.125 378.853C313.229 379.618 313.112 380.397 312.787 381.097C312.463 381.798 311.944 382.391 311.294 382.806C310.644 383.222 309.888 383.443 309.116 383.443H262.63C261.858 383.442 261.103 383.221 260.452 382.806C259.802 382.39 259.284 381.797 258.96 381.097C258.635 380.397 258.517 379.618 258.62 378.854C258.723 378.089 259.043 377.369 259.541 376.78L269.276 365.286Z" fill="#E8F2FC"/>
<path d="M272.93 323.442C272.93 323.782 272.996 324.119 273.126 324.434C273.256 324.748 273.447 325.034 273.688 325.274C273.928 325.515 274.214 325.706 274.528 325.836C274.843 325.966 275.18 326.033 275.52 326.033H296.231C296.917 326.033 297.576 325.76 298.062 325.275C298.547 324.789 298.82 324.131 298.82 323.444C298.82 322.757 298.547 322.099 298.062 321.613C297.576 321.128 296.917 320.855 296.231 320.855H275.52C275.18 320.855 274.843 320.921 274.529 321.051C274.215 321.181 273.929 321.372 273.689 321.612C273.448 321.852 273.258 322.137 273.127 322.451C272.997 322.765 272.93 323.102 272.93 323.442V323.442Z" stroke="black" stroke-width="3" stroke-linecap="round" stroke-linejoin="round"/>
</svg>
