<svg width="226" height="133" viewBox="0 0 226 133" fill="none" xmlns="http://www.w3.org/2000/svg">
<path d="M29.4335 130.116C29.4335 130.116 -23.5525 96.8339 12.6595 61.1539C48.8715 25.4739 97.3305 -11.0021 129.815 3.10889C162.299 17.2199 159.376 35.06 195.055 60.887C230.734 86.714 222.481 107.217 216.09 117.601C209.699 127.985 208.634 130.648 208.634 130.648L29.4335 130.116Z" fill="#E7F3FE"/>
<path d="M69.9006 35.6448C77.7466 28.6568 83.5085 32.8248 87.8005 37.4838C90.2523 40.103 92.5001 42.9058 94.5245 45.8677C94.9691 46.4117 95.233 47.0808 95.2795 47.7818C95.3585 52.0348 97.5346 70.0188 95.1156 76.2238C92.2956 83.4568 57.5156 86.7667 57.5156 86.7667L69.9006 35.6448Z" fill="#303C60"/>
<path d="M92.1766 80.3409C92.0817 80.3433 91.9896 80.3078 91.9208 80.2424C91.8519 80.1769 91.8121 80.0868 91.8097 79.9919C91.8073 79.8969 91.8426 79.8049 91.9081 79.736C91.9735 79.6672 92.0636 79.6272 92.1586 79.6248C92.6664 79.6 93.1619 79.4593 93.607 79.2136C94.0522 78.9678 94.4351 78.6234 94.7267 78.2069C98.6267 73.1549 96.4337 56.2878 94.5267 47.1188C94.5144 47.0719 94.5117 47.0229 94.5189 46.9749C94.5261 46.9269 94.5429 46.8808 94.5685 46.8395C94.594 46.7983 94.6278 46.7625 94.6676 46.7347C94.7074 46.7068 94.7524 46.6874 94.7999 46.6774C94.8474 46.6675 94.8964 46.6674 94.944 46.6771C94.9915 46.6867 95.0366 46.706 95.0765 46.7336C95.1165 46.7612 95.1503 46.7966 95.1761 46.8377C95.2019 46.8789 95.2192 46.9249 95.2267 46.9728C96.3487 52.421 97.0998 57.939 97.4747 63.4888C97.9227 71.0938 97.1887 76.1888 95.2967 78.6458C94.9415 79.1445 94.4781 79.5564 93.9413 79.8508C93.4045 80.1452 92.8081 80.3145 92.1966 80.3459L92.1766 80.3409Z" fill="#303C60"/>
<path d="M72.8466 33.5645C57.7676 41.9015 66.9627 70.0984 47.8377 80.1514C42.5377 82.9364 26.2607 97.0693 36.9267 115.704C43.9037 127.893 64.7556 125.266 71.6216 114.478C78.4876 103.69 72.8466 33.5645 72.8466 33.5645Z" fill="#303C60"/>
<path d="M32.7186 97.668C32.7026 97.6691 32.6866 97.6691 32.6706 97.668C32.5769 97.6553 32.492 97.6062 32.4344 97.5313C32.3767 97.4564 32.351 97.3619 32.3626 97.2681C32.7052 95.3163 33.3269 93.4239 34.2086 91.6491C36.2043 87.4819 39.3312 83.9595 43.2326 81.4841C52.0816 75.8531 57.9566 70.5461 64.9006 44.3841C64.9248 44.2922 64.9846 44.2136 65.0667 44.1658C65.1488 44.118 65.2467 44.1048 65.3386 44.1291C65.4305 44.1533 65.509 44.2131 65.5568 44.2952C65.6046 44.3774 65.6178 44.4752 65.5936 44.5671C62.2376 57.2091 58.9095 65.7551 55.1215 71.4671C51.6045 76.7671 47.9845 79.3141 43.6215 82.0921C40.9215 83.7916 38.5947 86.0216 36.7823 88.6471C34.9698 91.2727 33.7095 94.2389 33.0776 97.366C33.0641 97.4511 33.0203 97.5286 32.9544 97.584C32.8885 97.6395 32.8047 97.6693 32.7186 97.668Z" fill="#303C60"/>
<path d="M33.0477 90.3651C32.9838 90.3644 32.9213 90.3467 32.8666 90.3138C32.8119 90.2809 32.7669 90.234 32.7364 90.1779C32.7058 90.1219 32.6908 90.0588 32.6928 89.995C32.6948 89.9312 32.7136 89.8691 32.7476 89.815C34.8579 86.4316 37.6834 83.5512 41.0256 81.3761C53.4526 73.3401 55.5086 68.7191 65.7726 42.2561C65.7896 42.2122 65.8151 42.1722 65.8476 42.1382C65.8801 42.1041 65.9189 42.0768 65.962 42.0578C66.005 42.0388 66.0514 42.0285 66.0984 42.0274C66.1455 42.0264 66.1923 42.0346 66.2361 42.0516C66.28 42.0686 66.32 42.0941 66.3541 42.1266C66.3881 42.1591 66.4154 42.1979 66.4344 42.2409C66.4534 42.284 66.4637 42.3304 66.4648 42.3774C66.4658 42.4244 66.4576 42.4712 66.4406 42.5151C61.3096 55.7461 58.2406 63.5001 54.8876 68.9951C51.2876 74.8951 47.2196 78.2241 41.4146 81.9791C38.1599 84.0975 35.4084 86.9028 33.3536 90.1981C33.3209 90.2496 33.2758 90.292 33.2222 90.3213C33.1687 90.3505 33.1086 90.3655 33.0477 90.3651Z" fill="#303C60"/>
<path d="M72.3267 51.1543C69.2199 57.5536 67.7126 64.6112 67.9339 71.7213C67.9339 71.7213 68.5339 75.5153 70.9339 76.3143C73.3339 77.1133 76.7247 74.7143 76.5247 71.5223C76.3247 68.3303 77.3247 60.5393 78.5247 57.7443C79.7247 54.9493 72.3267 51.1543 72.3267 51.1543Z" fill="#F09959"/>
<path d="M44.8955 126.078C45.2225 129.02 44.4875 128.778 47.1025 129.265C49.7175 129.752 54.3766 127.958 54.3766 127.958L49.1455 118.232L44.8955 126.078Z" fill="#6791C9"/>
<path d="M68.5595 65.9336C67.0885 70.7146 56.0595 67.0336 52.1945 68.1406C48.3295 69.2476 45.0224 85.4256 44.4714 99.9526C43.9204 114.48 44.6555 126.064 46.1265 127.904C47.5975 129.744 71.8704 130.478 74.0764 129.743C76.2824 129.008 55.6875 119.813 55.6875 119.813C55.6875 119.813 54.4004 102.896 56.0554 94.2526C57.7104 85.6096 72.6045 74.2096 72.6045 74.2096L68.5595 65.9336Z" fill="#F09959"/>
<path d="M73.7095 67.4043C77.5715 73.2883 87.6845 72.5532 91.1785 77.3342C94.6725 82.1152 102.027 108.41 102.027 108.41L109.751 81.7472C109.751 81.7472 116.014 80.6953 113.98 85.0573C110.362 92.8153 109.014 117.845 105.091 121.4C100.728 125.353 96.3915 122.136 93.9375 115.214C91.5675 108.514 85.6635 94.0673 81.4375 88.5513C78.1645 83.9818 75.2149 79.1891 72.6104 74.2083L73.7095 67.4043Z" fill="#F09959"/>
<path d="M56.9706 68.1381C64.6936 77.1481 79.7706 76.781 83.0816 75.677L86.3915 74.577C87.2625 74.3419 88.1841 74.374 89.0366 74.6691C89.8892 74.9642 90.6333 75.5087 91.1725 76.2321C93.3785 78.8061 98.7115 94.988 99.6305 98.666C100.55 102.344 102.022 108.412 102.022 108.412C102.022 108.412 98.0766 113.147 98.0766 117.928C98.0766 122.709 99.7516 122.75 99.7516 122.75C99.7516 122.75 94.8516 121.65 93.7516 118.709C92.6516 115.768 82.7176 89.103 82.7176 89.103L55.3175 89.655L55.6856 119.812C55.6856 119.812 53.2955 117.605 49.9855 119.812C46.6755 122.019 45.5726 127.167 46.1236 127.903C46.6746 128.639 45.0236 128.639 45.0236 128.087C45.0236 127.535 41.8975 114.111 44.1045 92.0451C46.3115 69.9791 50.5406 67.588 52.9306 67.405C54.3186 67.2826 55.7141 67.5358 56.9706 68.1381Z" fill="#75A1DE"/>
<path d="M98.6345 122.367C98.6612 122.377 98.6891 122.383 98.7175 122.385L98.6345 122.367Z" fill="#6791C9"/>
<path d="M99.6946 109.079C98.1016 109.569 95.4036 115.209 95.4036 115.209C91.1699 105.042 88.4837 94.2974 87.4346 83.334L85.2466 95.8931C88.2676 104.003 93.0076 116.728 93.7466 118.708C94.7556 121.399 98.8255 122.522 99.3835 122.647C99.2315 122.595 98.8945 122.391 98.6145 121.584C98.4535 121.437 97.5326 121.007 97.3606 120.849C95.8896 119.501 96.5026 116.313 97.4836 112.758C98.4646 109.203 101.289 108.588 99.6946 109.079Z" fill="#6791C9"/>
<path d="M56.6386 89.6265L53.5995 75.7324C50.2895 80.3914 49.9215 96.3325 51.2705 107.24C52.3765 116.188 54.0316 118.51 55.1706 119.44C55.3552 119.546 55.5294 119.669 55.6906 119.808L55.3225 89.6515L56.6386 89.6265Z" fill="#6791C9"/>
<path d="M47.8374 75.6113C53.4774 90.8113 50.6574 93.8783 58.0784 111.721C62.2224 121.686 70.2144 129.19 70.2144 129.19C74.9787 130.253 79.8713 130.624 84.7413 130.29C92.8323 129.738 98.7563 129.182 98.7563 129.182C98.7563 129.182 90.2564 124.038 89.8904 120.544C89.5244 117.05 87.9264 103.192 90.0104 93.3843C91.6384 85.7253 84.9254 78.0673 84.9254 78.0673L73.7084 77.5162L47.8374 75.6113Z" fill="#75A1DE"/>
<path opacity="0.5" d="M57.7686 98.9043C56.7876 95.3493 61.9366 100.004 70.3956 100.866C78.8546 101.728 88.2956 100.375 83.6366 101.847C78.9776 103.319 66.2276 101.112 68.5576 105.77C71.2986 111.252 74.5356 116.558 79.2226 119.746C82.2876 121.83 89.6436 123.792 82.5326 122.688C75.4216 121.584 67.8206 113.248 64.5116 107.854C61.2026 102.46 57.9876 99.6973 57.7686 98.9043Z" fill="#6791C9"/>
<path d="M76.4984 70.1238C76.5734 66.4538 77.4685 60.1897 78.5155 57.7457C79.3735 55.7457 75.8255 53.2278 73.7435 51.9618L71.9835 51.8867C71.7169 52.4714 71.4651 53.0521 71.2284 53.6288C69.3694 65.8288 74.9286 70.8767 77.5866 71.8917C78.7187 72.2821 79.9236 72.4143 81.1134 72.2787C79.4948 71.7466 77.9455 71.0233 76.4984 70.1238Z" fill="#E38540"/>
<path d="M73.1303 75.549C72.4709 75.5483 71.8139 75.4688 71.1733 75.3121C69.5791 74.9218 68.1436 74.0501 67.062 72.8156C65.9803 71.5812 65.3048 70.0438 65.1273 68.4121C65.1229 68.3858 65.1237 68.3589 65.1297 68.333C65.1357 68.307 65.1467 68.2825 65.1622 68.2608C65.1777 68.2391 65.1972 68.2207 65.2198 68.2066C65.2424 68.1925 65.2675 68.183 65.2938 68.1786C65.3201 68.1742 65.3469 68.175 65.3729 68.181C65.3988 68.187 65.4234 68.198 65.445 68.2135C65.4667 68.2289 65.4851 68.2485 65.4992 68.2711C65.5133 68.2937 65.5229 68.3188 65.5273 68.3451C65.6927 69.8981 66.3326 71.3624 67.3598 72.5389C68.3871 73.7154 69.7517 74.5468 71.2683 74.92C73.5303 75.471 75.9303 74.961 76.8513 73.732C77.5903 72.747 77.1513 70.649 77.1423 70.632C77.1309 70.579 77.1411 70.5236 77.1705 70.478C77.1999 70.4324 77.2462 70.4004 77.2993 70.389C77.3523 70.3776 77.4078 70.3878 77.4533 70.4172C77.4989 70.4466 77.5309 70.4931 77.5423 70.5461C77.5623 70.6391 78.0293 72.8461 77.1793 73.9801C76.6631 74.5256 76.032 74.9494 75.3316 75.2208C74.6313 75.4922 73.8794 75.6043 73.1303 75.549Z" fill="#F5CE5C"/>
<path d="M90.4346 55.9543C89.1876 62.5403 86.3066 67.8544 81.4346 66.8544C76.5626 65.8544 71.4345 58.8953 72.7835 52.3293C74.1325 45.7633 79.1775 41.2513 84.0535 42.2523C88.9295 43.2533 92.0966 47.1773 90.4346 55.9543Z" fill="#F09959"/>
<path d="M107.787 88.4824C107.787 88.4824 98.7755 112.695 98.3465 115.208C97.9175 117.721 98.7756 119.315 99.0206 119.315C99.2656 119.315 106.928 106.198 106.928 106.198L107.787 88.4824Z" fill="#F09959"/>
<path d="M108.158 87.4203C108.532 85.5653 108.39 83.6436 107.75 81.8633L111.02 82.2712L108.158 87.4203Z" fill="#F09959"/>
<path d="M111.747 83.2384H102.625C102.496 83.2383 102.369 83.2081 102.254 83.1503C102.139 83.0924 102.039 83.0085 101.962 82.9052C101.885 82.8018 101.833 82.682 101.81 82.5552C101.788 82.4283 101.795 82.2978 101.832 82.1743L107.591 62.8663C107.642 62.6956 107.746 62.5459 107.889 62.4395C108.032 62.333 108.205 62.2755 108.384 62.2754H117.506C117.635 62.2753 117.762 62.3053 117.877 62.363C117.992 62.4208 118.092 62.5048 118.17 62.6082C118.247 62.7115 118.298 62.8315 118.321 62.9585C118.343 63.0855 118.336 63.2158 118.299 63.3394L112.541 82.6473C112.49 82.8182 112.385 82.9681 112.242 83.0746C112.099 83.1811 111.925 83.2385 111.747 83.2384Z" fill="#4381DB"/>
<path d="M112.887 83.2384H103.766C103.637 83.2383 103.51 83.2081 103.395 83.1503C103.279 83.0924 103.179 83.0085 103.102 82.9052C103.025 82.8018 102.973 82.682 102.951 82.5552C102.928 82.4283 102.936 82.2978 102.973 82.1743L108.731 62.8663C108.782 62.6955 108.887 62.5457 109.03 62.4392C109.173 62.3327 109.346 62.2753 109.525 62.2754H118.646C118.775 62.2755 118.902 62.3057 119.018 62.3635C119.133 62.4214 119.233 62.5052 119.31 62.6085C119.387 62.7118 119.439 62.8317 119.461 62.9586C119.484 63.0855 119.476 63.2158 119.439 63.3394L113.681 82.6473C113.63 82.8181 113.525 82.968 113.382 83.0745C113.239 83.181 113.066 83.2385 112.887 83.2384Z" fill="#2E5B9A"/>
<path d="M106.286 69.243C105.314 72.743 104.66 75.625 104.825 75.67C104.99 75.715 105.912 72.913 106.884 69.409C107.856 65.905 108.511 63.027 108.346 62.981C108.181 62.935 107.259 65.739 106.286 69.243Z" fill="#9CBEED"/>
<path d="M112.487 88.9731C112.757 85.7891 115.515 82.8052 116.564 81.8522C116.722 81.7097 116.847 81.5353 116.933 81.3404C117.018 81.1456 117.061 80.9348 117.059 80.7222C117.044 79.1352 116.973 75.3882 116.644 74.9502C116.226 74.3932 115.183 67.2192 114.695 67.4982C114.207 67.7772 114.834 74.0452 114.834 74.0452C114.834 74.0452 113.65 73.4882 113.023 73.2102C112.396 72.9322 109.823 75.7872 109.823 75.7872C109.823 75.7872 108.615 78.8392 111.923 77.5322C115.846 75.9792 112.904 80.3112 110.288 83.0892C108.134 85.3792 109.967 85.8892 109.967 85.8892L111.709 85.8202L112.487 88.9731Z" fill="#F09959"/>
<path d="M111.499 91.4784C111.178 91.4765 110.859 91.4266 110.553 91.3305C109.705 91.0665 108.223 90.2124 107.832 87.4694C107.828 87.4431 107.829 87.4164 107.836 87.3906C107.842 87.3649 107.854 87.3407 107.87 87.3195C107.886 87.2982 107.906 87.2803 107.928 87.2667C107.951 87.2532 107.976 87.2442 108.003 87.2404C108.029 87.2366 108.056 87.238 108.081 87.2445C108.107 87.251 108.131 87.2626 108.152 87.2785C108.174 87.2943 108.192 87.3142 108.205 87.337C108.219 87.3599 108.228 87.3851 108.232 87.4114C108.567 89.7574 109.705 90.6115 110.599 90.9185C111.075 91.107 111.602 91.1242 112.09 90.9674C112.093 90.921 112.112 90.877 112.144 90.8431C112.176 90.8093 112.219 90.7877 112.265 90.782C112.311 90.7763 112.358 90.7869 112.397 90.812C112.436 90.8371 112.465 90.8751 112.48 90.9194C112.498 90.9705 112.502 91.0257 112.491 91.0789C112.479 91.132 112.453 91.1807 112.415 91.2194C112.151 91.4146 111.825 91.5068 111.499 91.4784Z" fill="#F5CE5C"/>
<path d="M111.16 90.6905C110.885 90.6904 110.61 90.6707 110.338 90.6315C109.686 90.6134 109.056 90.3921 108.536 89.9988C108.017 89.6055 107.632 89.0597 107.438 88.4375C107.432 88.4113 107.431 88.3841 107.436 88.3576C107.44 88.3311 107.45 88.3056 107.464 88.2829C107.479 88.2601 107.498 88.2405 107.52 88.225C107.542 88.2095 107.566 88.1985 107.593 88.1925C107.619 88.1866 107.646 88.1859 107.673 88.1905C107.699 88.1951 107.724 88.2049 107.747 88.2193C107.77 88.2337 107.79 88.2525 107.805 88.2745C107.821 88.2965 107.832 88.3213 107.838 88.3476C107.979 88.8101 108.248 89.2232 108.614 89.5392C108.98 89.8553 109.428 90.0613 109.907 90.1336C110.661 90.368 111.471 90.3546 112.218 90.0955C112.231 90.0725 112.248 90.0523 112.269 90.0361C112.29 90.0198 112.314 90.0079 112.34 90.001C112.365 89.9941 112.392 89.9924 112.418 89.9959C112.445 89.9994 112.47 90.0081 112.493 90.0215C112.54 90.0489 112.574 90.0937 112.588 90.1462C112.602 90.1986 112.595 90.2544 112.568 90.3016C112.411 90.5716 111.819 90.6905 111.16 90.6905Z" fill="#F5CE5C"/>
<path d="M84.8387 59.3814C84.7382 59.3812 84.6382 59.3736 84.5389 59.3584C82.9919 59.1214 82.0567 57.1255 82.4107 54.8145C82.5464 53.8075 82.9624 52.8587 83.6109 52.0765C83.8634 51.7417 84.1975 51.4774 84.5816 51.3091C84.9656 51.1408 85.3865 51.0741 85.8038 51.1154C87.3498 51.3524 88.2847 53.3485 87.9307 55.6585C87.5977 57.8205 86.2747 59.3814 84.8387 59.3814ZM85.5069 51.8105C85.2405 51.8297 84.9813 51.9056 84.7466 52.033C84.5119 52.1604 84.307 52.3366 84.1458 52.5495C83.5882 53.2292 83.2323 54.0517 83.1187 54.9235C82.8357 56.7735 83.5348 58.4804 84.6458 58.6504C85.7568 58.8204 86.9358 57.4015 87.2188 55.5505C87.5018 53.6995 86.8017 51.9944 85.6907 51.8234C85.6301 51.8145 85.5691 51.8102 85.5079 51.8105H85.5069Z" fill="white"/>
<path d="M89.9394 59.391C89.8902 59.3911 89.841 59.3874 89.7924 59.38C88.7794 59.225 88.2304 57.509 88.5424 55.474C88.8544 53.439 89.8942 51.963 90.9042 52.121C91.4262 52.201 91.8374 52.6779 92.0614 53.4659C92.2704 54.3038 92.3024 55.176 92.1554 56.027C91.8574 57.963 90.9034 59.391 89.9394 59.391ZM90.7543 52.651C90.1543 52.651 89.3463 53.799 89.0773 55.551C88.7983 57.375 89.2774 58.751 89.8774 58.84C90.4774 58.929 91.3432 57.7639 91.6222 55.9399C91.7574 55.1658 91.7303 54.3721 91.5424 53.609C91.3824 53.046 91.1204 52.697 90.8254 52.652C90.8014 52.6498 90.7773 52.6495 90.7533 52.651H90.7543Z" fill="white"/>
<path d="M83.1453 53.2889C83.1115 53.2888 83.0777 53.2842 83.0452 53.2749L71.0313 49.842C70.9399 49.8154 70.8628 49.7537 70.8169 49.6703C70.7711 49.587 70.7601 49.4887 70.7867 49.3974C70.8132 49.306 70.8749 49.229 70.9583 49.1831C71.0416 49.1373 71.1399 49.1263 71.2312 49.1529L83.2452 52.5859C83.3254 52.6121 83.3939 52.6658 83.4385 52.7375C83.4831 52.8091 83.501 52.8943 83.489 52.9778C83.4771 53.0614 83.4359 53.1382 83.3731 53.1945C83.3102 53.2508 83.2297 53.2832 83.1453 53.2859V53.2889Z" fill="white"/>
<path d="M91.7266 45.8199C73.1326 56.7719 72.1116 49.4199 72.1116 49.4199L73.2117 38.959L84.2456 39.5719L91.7266 45.8199Z" fill="#303C60"/>
<path d="M73.5517 51.8466C73.9847 53.6976 73.3936 55.4187 72.2326 55.6907C71.0716 55.9627 69.7786 54.6806 69.3466 52.8296C68.9146 50.9786 69.5047 49.2576 70.6667 48.9856C71.8287 48.7136 73.1177 49.9956 73.5517 51.8466Z" fill="#F09959"/>
<path d="M72.2775 54.2788C72.2775 54.4236 72.2346 54.5652 72.1542 54.6855C72.0737 54.8059 71.9593 54.8997 71.8256 54.9551C71.6918 55.0105 71.5447 55.0249 71.4027 54.9967C71.2607 54.9685 71.1303 54.8988 71.028 54.7964C70.9256 54.694 70.8558 54.5636 70.8275 54.4216C70.7993 54.2796 70.8139 54.1324 70.8693 53.9987C70.9247 53.8649 71.0184 53.7506 71.1388 53.6702C71.2592 53.5897 71.4008 53.5469 71.5455 53.5469C71.7397 53.5469 71.9258 53.624 72.0631 53.7612C72.2004 53.8985 72.2775 54.0847 72.2775 54.2788Z" fill="#F5CE5C"/>
<path d="M215.719 132.522H29.7186C29.2666 132.522 28.8331 132.343 28.5134 132.023C28.1938 131.703 28.0142 131.27 28.0142 130.818C28.0142 130.366 28.1938 129.932 28.5134 129.612C28.8331 129.293 29.2666 129.113 29.7186 129.113H215.719C216.171 129.113 216.604 129.293 216.924 129.612C217.244 129.932 217.423 130.366 217.423 130.818C217.423 131.27 217.244 131.703 216.924 132.023C216.604 132.343 216.171 132.522 215.719 132.522Z" fill="#2E5B9A"/>
<path d="M73.8105 128.784C73.8105 128.784 66.7995 128.873 66.7105 129.494C66.6215 130.115 66.9765 130.381 69.4615 130.825C71.9465 131.269 99.9046 131.446 100.171 131.268C100.437 131.09 108.602 129.138 108.602 129.138L88.9875 128.783L73.8105 128.784Z" fill="#DBE5EB"/>
<path d="M77.6287 124.118C77.6287 124.118 82.6547 121.911 84.1287 122.892C86.1436 124.601 88.054 126.43 89.8496 128.368L77.6287 124.118Z" fill="#F09959"/>
<path d="M89.5705 128.767C89.4705 128.887 89.3324 128.937 89.2524 128.877L78.9094 121.177C78.3524 120.762 78.0874 120.128 78.3544 119.793C78.6214 119.458 79.3003 119.578 79.8263 120.03L89.6074 128.43C89.6844 128.498 89.6665 128.648 89.5705 128.767Z" fill="#2E5B9A"/>
<path d="M62.4276 123.178C62.4276 123.178 70.7635 126.488 71.7445 126.488C72.7255 126.488 78.2016 122.81 80.0446 123.301C81.8876 123.792 90.8745 128.327 90.6285 128.695C90.3825 129.063 87.8085 129.921 80.2075 129.676C72.6065 129.431 60.2246 128.327 60.2246 128.327L62.4276 123.178Z" fill="#F09959"/>
<path d="M133.288 122.066H165.448C166.402 122.066 167.316 122.445 167.991 123.119C168.665 123.794 169.043 124.708 169.043 125.661C169.043 126.133 168.951 126.601 168.77 127.037C168.589 127.473 168.325 127.869 167.991 128.203C167.657 128.536 167.261 128.801 166.825 128.982C166.389 129.162 165.921 129.255 165.449 129.255H133.287C132.908 129.255 132.543 129.105 132.275 128.836C132.006 128.567 131.855 128.203 131.855 127.823V123.499C131.855 123.119 132.006 122.755 132.275 122.486C132.544 122.217 132.908 122.066 133.288 122.066V122.066Z" fill="#F37168"/>
<path d="M164.12 123.281H131.86C131.626 123.667 131.502 124.11 131.501 124.561V126.761C131.502 127.213 131.626 127.655 131.86 128.041H164.12C164.672 128.04 165.201 127.82 165.591 127.43C165.982 127.04 166.202 126.511 166.203 125.959V125.368C166.203 124.816 165.983 124.286 165.593 123.895C165.203 123.503 164.673 123.283 164.12 123.281Z" fill="#F2E5DE"/>
<path d="M140.021 117.717H164.985C165.56 117.718 166.112 117.947 166.519 118.355C166.926 118.763 167.155 119.315 167.155 119.891C167.155 120.467 166.926 121.019 166.519 121.427C166.112 121.834 165.56 122.064 164.985 122.065H140.021C139.791 122.065 139.571 121.974 139.408 121.811C139.246 121.649 139.155 121.428 139.155 121.199V118.583C139.155 118.353 139.246 118.133 139.408 117.97C139.571 117.808 139.791 117.717 140.021 117.717V117.717Z" fill="#7BCEE8"/>
<path d="M163.453 118.452H139.158C138.986 118.673 138.891 118.945 138.888 119.226V120.555C138.891 120.835 138.986 121.107 139.158 121.329H163.453C163.827 121.364 164.199 121.252 164.492 121.017C164.785 120.781 164.975 120.441 165.021 120.069V119.712C164.975 119.339 164.785 118.999 164.492 118.764C164.199 118.528 163.827 118.417 163.453 118.452Z" fill="#F2E5DE"/>
<path d="M170.031 29.7819H142.475C142.282 29.7936 142.089 29.7533 141.917 29.6653C141.744 29.5773 141.599 29.4447 141.495 29.2814C141.391 29.1181 141.333 28.93 141.327 28.7366C141.32 28.5432 141.366 28.3517 141.459 28.1819L145.626 16.7329C145.801 16.2878 146.099 15.9013 146.484 15.6182C146.87 15.3351 147.328 15.1668 147.805 15.1328H175.363C175.556 15.1211 175.748 15.1614 175.921 15.2494C176.093 15.3374 176.239 15.47 176.342 15.6333C176.446 15.7967 176.504 15.9848 176.511 16.1781C176.517 16.3715 176.471 16.5631 176.379 16.7329L172.212 28.1819C172.036 28.6272 171.738 29.0137 171.352 29.2968C170.966 29.5799 170.508 29.7481 170.031 29.7819Z" fill="#9EC8FF"/>
<path d="M169.091 28.5836H144.274C144.107 28.5932 143.94 28.5581 143.792 28.4819C143.643 28.4057 143.517 28.291 143.427 28.15C143.338 28.0089 143.287 27.8465 143.281 27.6794C143.275 27.5123 143.314 27.3466 143.394 27.1995L146.845 17.7196C146.996 17.3343 147.254 16.9999 147.588 16.755C147.922 16.51 148.318 16.3647 148.732 16.3356H173.549C173.716 16.3257 173.882 16.3606 174.031 16.4367C174.18 16.5129 174.306 16.6274 174.396 16.7686C174.486 16.9098 174.536 17.0725 174.542 17.2397C174.548 17.4069 174.508 17.5725 174.429 17.7196L170.978 27.1995C170.825 27.5844 170.567 27.9185 170.233 28.1633C169.9 28.4081 169.504 28.5538 169.091 28.5836Z" fill="white"/>
<path d="M153.41 29.1152C151.125 35.1502 147.61 37.0153 147.61 37.0153C147.61 37.0153 150.11 33.5542 149.75 31.8672C149.644 31.3725 149.44 30.9045 149.147 30.4918C148.855 30.0791 148.481 29.7305 148.05 29.4673L153.41 29.1152Z" fill="#9EC8FF"/>
<path d="M171.09 19.7068H155.09C155.032 19.7094 154.975 19.6968 154.925 19.6702C154.874 19.6437 154.831 19.6042 154.801 19.5557C154.77 19.5072 154.753 19.4516 154.751 19.3943C154.749 19.3371 154.762 19.2804 154.789 19.2299L154.799 19.2079C154.851 19.0753 154.94 18.9602 155.055 18.8758C155.17 18.7914 155.306 18.7412 155.449 18.7309H171.449C171.506 18.728 171.563 18.7404 171.614 18.7669C171.665 18.7934 171.708 18.8329 171.738 18.8815C171.769 18.9301 171.786 18.9859 171.788 19.0433C171.79 19.1006 171.776 19.1575 171.748 19.2079L171.741 19.2299C171.688 19.3627 171.599 19.4779 171.484 19.5623C171.369 19.6467 171.232 19.6968 171.09 19.7068Z" fill="#9EC8FF"/>
<path d="M170.346 21.7498H154.346C154.288 21.7527 154.231 21.7403 154.18 21.7138C154.129 21.6873 154.086 21.6477 154.056 21.5992C154.025 21.5506 154.008 21.4948 154.007 21.4374C154.005 21.3801 154.018 21.3233 154.046 21.2729L154.054 21.2508C154.106 21.118 154.195 21.0029 154.31 20.9185C154.426 20.8341 154.562 20.784 154.705 20.7738H170.705C170.762 20.771 170.819 20.7834 170.87 20.8099C170.921 20.8363 170.964 20.8759 170.994 20.9245C171.025 20.9731 171.042 21.0289 171.044 21.0862C171.046 21.1436 171.032 21.2004 171.005 21.2508L170.997 21.2729C170.944 21.4057 170.855 21.5209 170.74 21.6053C170.625 21.6897 170.488 21.7398 170.346 21.7498Z" fill="#9EC8FF"/>
<path d="M169.502 24.0583H153.502C153.444 24.0609 153.388 24.0482 153.337 24.0217C153.286 23.9951 153.243 23.9557 153.213 23.9072C153.182 23.8587 153.165 23.8029 153.163 23.7457C153.161 23.6885 153.175 23.6317 153.202 23.5813L153.21 23.5593C153.262 23.4264 153.351 23.3111 153.466 23.2266C153.581 23.1422 153.718 23.0923 153.861 23.0824H169.861C169.918 23.0798 169.975 23.0924 170.026 23.119C170.076 23.1455 170.119 23.185 170.15 23.2335C170.18 23.282 170.197 23.3376 170.199 23.3949C170.201 23.4521 170.188 23.5088 170.161 23.5593L170.153 23.5813C170.1 23.714 170.011 23.8293 169.896 23.9137C169.781 23.998 169.644 24.0482 169.502 24.0583Z" fill="#9EC8FF"/>
<path d="M152.597 21.3502C151.964 23.0902 150.297 24.5012 148.877 24.5012C147.457 24.5012 146.816 23.0902 147.45 21.3502C148.084 19.6102 149.75 18.1992 151.17 18.1992C152.59 18.1992 153.231 19.6102 152.597 21.3502Z" fill="#9EC8FF"/>
<path d="M154.366 59.5565H152.997C152.934 59.5605 152.871 59.5476 152.815 59.5189C152.759 59.4903 152.711 59.447 152.677 59.3937C152.643 59.3403 152.624 59.2789 152.622 59.2157C152.62 59.1525 152.635 59.0898 152.665 59.0344L153.075 57.9094C153.133 57.764 153.23 57.6378 153.356 57.5454C153.482 57.453 153.631 57.3982 153.787 57.3874H155.154C155.216 57.3838 155.279 57.3969 155.335 57.4257C155.392 57.4544 155.439 57.4977 155.473 57.5509C155.507 57.6041 155.526 57.6655 155.528 57.7285C155.53 57.7916 155.515 57.854 155.485 57.9094L155.075 59.0344C155.018 59.1794 154.922 59.3055 154.796 59.3978C154.671 59.4902 154.522 59.5452 154.366 59.5565Z" fill="#9EC8FF"/>
<path d="M158.746 59.5565H157.38C157.316 59.5605 157.253 59.5475 157.197 59.5189C157.141 59.4903 157.093 59.447 157.059 59.3937C157.025 59.3403 157.006 59.2789 157.004 59.2157C157.002 59.1525 157.017 59.0898 157.048 59.0344L157.457 57.9094C157.515 57.764 157.612 57.6378 157.738 57.5454C157.864 57.453 158.014 57.3982 158.17 57.3874H159.535C159.598 57.3834 159.661 57.3964 159.717 57.425C159.773 57.4537 159.821 57.4969 159.855 57.5503C159.889 57.6036 159.908 57.6651 159.91 57.7283C159.912 57.7914 159.897 57.854 159.866 57.9094L159.457 59.0344C159.4 59.1798 159.303 59.306 159.177 59.3984C159.051 59.4908 158.901 59.5456 158.746 59.5565Z" fill="#9EC8FF"/>
<path d="M163.13 59.5566H161.764C161.701 59.5606 161.638 59.5476 161.582 59.519C161.526 59.4903 161.478 59.4471 161.444 59.3937C161.41 59.3404 161.391 59.2789 161.389 59.2157C161.387 59.1526 161.402 59.0899 161.432 59.0345L161.841 57.9095C161.899 57.7641 161.996 57.638 162.122 57.5456C162.248 57.4532 162.398 57.3984 162.553 57.3875H163.919C163.983 57.3833 164.046 57.3962 164.102 57.4247C164.159 57.4533 164.206 57.4965 164.24 57.5499C164.274 57.6032 164.294 57.6648 164.296 57.7281C164.298 57.7913 164.283 57.854 164.252 57.9095L163.842 59.0345C163.785 59.1799 163.688 59.3062 163.562 59.3986C163.436 59.491 163.286 59.5458 163.13 59.5566Z" fill="#9EC8FF"/>
<path d="M137.002 50.903H109.444C109.251 50.9143 109.059 50.8739 108.887 50.7858C108.715 50.6977 108.569 50.5651 108.465 50.4019C108.362 50.2387 108.304 50.0507 108.297 49.8574C108.291 49.6642 108.336 49.4729 108.428 49.303L112.595 37.8539C112.771 37.4088 113.068 37.0224 113.454 36.7393C113.839 36.4562 114.297 36.2879 114.774 36.2539H142.332C142.526 36.2422 142.718 36.2825 142.891 36.3705C143.063 36.4585 143.208 36.5911 143.312 36.7544C143.416 36.9177 143.474 37.1059 143.48 37.2992C143.487 37.4926 143.441 37.6841 143.348 37.8539L139.181 49.303C139.006 49.748 138.708 50.1343 138.323 50.4174C137.937 50.7005 137.479 50.8688 137.002 50.903Z" fill="#9EC8FF"/>
<path d="M136.068 49.7048H111.252C111.085 49.7147 110.918 49.6798 110.769 49.6037C110.62 49.5276 110.494 49.4129 110.404 49.2717C110.314 49.1305 110.264 48.9679 110.258 48.8007C110.253 48.6335 110.292 48.4678 110.371 48.3207L113.823 38.8408C113.975 38.4559 114.233 38.1218 114.567 37.877C114.901 37.6322 115.297 37.4865 115.71 37.4567H140.526C140.693 37.4468 140.86 37.4818 141.009 37.5579C141.158 37.6341 141.284 37.7487 141.374 37.8898C141.463 38.031 141.514 38.1936 141.52 38.3608C141.525 38.528 141.486 38.6937 141.407 38.8408L137.955 48.3207C137.803 48.7056 137.545 49.0397 137.211 49.2845C136.877 49.5293 136.481 49.675 136.068 49.7048Z" fill="white"/>
<path d="M110.841 50.2383C108.733 56.2733 110.895 58.1383 110.895 58.1383C110.895 58.1383 110.911 54.6772 112.501 52.9902C113.475 51.9647 114.648 51.1482 115.948 50.5903L110.841 50.2383Z" fill="#9EC8FF"/>
<path d="M129.333 41.6286H115.833C115.78 41.631 115.727 41.6194 115.681 41.5951C115.634 41.5707 115.594 41.5344 115.566 41.4898C115.538 41.4453 115.522 41.3942 115.52 41.3415C115.517 41.2888 115.529 41.2364 115.553 41.1897L115.59 41.0897C115.638 40.9676 115.72 40.8616 115.826 40.7839C115.933 40.7063 116.058 40.6602 116.189 40.6507H129.689C129.742 40.6482 129.795 40.6596 129.842 40.6839C129.889 40.7082 129.928 40.7445 129.957 40.789C129.985 40.8336 130.001 40.8848 130.004 40.9376C130.006 40.9904 129.994 41.0429 129.97 41.0897L129.934 41.1897C129.885 41.312 129.803 41.4181 129.696 41.4957C129.59 41.5734 129.464 41.6194 129.333 41.6286Z" fill="#9EC8FF"/>
<path d="M128.59 43.6697H115.09C115.037 43.672 114.985 43.6605 114.938 43.6361C114.891 43.6117 114.851 43.5754 114.823 43.5309C114.795 43.4863 114.779 43.4353 114.777 43.3825C114.774 43.3298 114.786 43.2774 114.811 43.2307L114.847 43.1307C114.895 43.0086 114.977 42.9026 115.084 42.8249C115.19 42.7473 115.315 42.7012 115.447 42.6917H128.947C128.999 42.6892 129.052 42.7007 129.099 42.725C129.146 42.7492 129.185 42.7855 129.214 42.8301C129.242 42.8746 129.259 42.9258 129.261 42.9786C129.263 43.0314 129.251 43.0839 129.227 43.1307L129.191 43.2307C129.142 43.353 129.06 43.4591 128.953 43.5367C128.847 43.6144 128.721 43.6604 128.59 43.6697Z" fill="#9EC8FF"/>
<path d="M127.751 45.9784H114.251C114.198 45.9809 114.145 45.9695 114.098 45.9452C114.051 45.9209 114.012 45.8846 113.983 45.8401C113.955 45.7955 113.939 45.7442 113.936 45.6914C113.934 45.6386 113.946 45.5862 113.97 45.5394L114.005 45.4394C114.054 45.3173 114.136 45.2113 114.242 45.1336C114.348 45.056 114.474 45.0098 114.605 45.0003H128.105C128.158 44.9978 128.211 45.0093 128.258 45.0335C128.305 45.0578 128.344 45.0941 128.373 45.1386C128.401 45.1832 128.417 45.2345 128.419 45.2873C128.422 45.3401 128.41 45.3926 128.386 45.4394L128.349 45.5394C128.301 45.6614 128.219 45.7672 128.113 45.8448C128.007 45.9225 127.881 45.9688 127.751 45.9784Z" fill="#9EC8FF"/>
<path d="M162.105 63.8602H135.505C135.029 63.8602 134.781 63.6603 134.954 63.4213L135.024 63.3213C135.182 63.1735 135.368 63.0585 135.571 62.9831C135.773 62.9078 135.989 62.8735 136.205 62.8822H162.805C163.281 62.8822 163.529 63.0823 163.356 63.3213L163.286 63.4213C163.128 63.5689 162.943 63.6837 162.74 63.759C162.537 63.8344 162.322 63.8688 162.105 63.8602Z" fill="#9EC8FF"/>
<path d="M160.643 67.2332H134.042C133.565 67.2332 133.317 67.0333 133.491 66.7943L133.561 66.6943C133.719 66.5466 133.905 66.4316 134.108 66.3563C134.311 66.2809 134.526 66.2466 134.742 66.2552H161.342C161.818 66.2552 162.067 66.4553 161.893 66.6943L161.823 66.7943C161.665 66.9418 161.48 67.0566 161.277 67.1319C161.074 67.2073 160.859 67.2417 160.643 67.2332Z" fill="#9EC8FF"/>
<path d="M134.022 46.775H132.07C131.877 46.7864 131.685 46.7459 131.513 46.6578C131.34 46.5697 131.195 46.4372 131.091 46.274C130.988 46.1108 130.93 45.9228 130.923 45.7296C130.917 45.5364 130.962 45.3449 131.054 45.175L132.508 41.182C132.684 40.7369 132.981 40.3506 133.367 40.0675C133.752 39.7844 134.21 39.6161 134.687 39.582H136.64C136.833 39.5705 137.026 39.6108 137.198 39.6988C137.371 39.7869 137.516 39.9194 137.62 40.0826C137.724 40.2459 137.782 40.4339 137.788 40.6272C137.795 40.8205 137.75 41.0121 137.657 41.182L136.203 45.175C136.028 45.6204 135.73 46.0069 135.344 46.29C134.958 46.5732 134.5 46.7413 134.022 46.775Z" fill="#9EC8FF"/>
<path d="M202.14 123.963C205.684 104.513 204.907 97.556 195.413 81.681C185.919 65.806 185.013 36.262 181.434 44.927C177.855 53.592 178.335 75.352 189.554 85.912C200.773 96.472 202.279 101.2 202.945 105.499C203.611 109.798 201.346 123.008 201.346 123.008L202.14 123.963Z" fill="#9CD499"/>
<path d="M203.916 111.429C203.922 111.354 203.928 111.281 203.933 111.206C203.725 109.606 202.598 101.406 201.039 98.1656C199.309 94.5706 191.72 88.3136 189.59 80.4586C187.46 72.6036 184.084 66.5157 181.869 61.5587C178.944 55.0077 180.543 46.2987 182.961 43.4697C182.907 43.4331 182.847 43.4057 182.784 43.3887L181.984 43.8737C181.766 44.2063 181.584 44.5605 181.44 44.9307C177.861 53.5957 178.34 75.3566 189.559 85.9156C200.778 96.4746 202.285 101.204 202.951 105.503C203.115 107.162 203.115 108.833 202.951 110.493L203.916 111.429Z" fill="#74B570"/>
<path d="M197.297 120.531C199.934 97.6744 199.055 89.7634 193.956 71.4774C188.857 53.1914 222.088 11.5224 221.033 18.7314C219.978 25.9404 216.462 43.8734 207.319 55.1264C198.176 66.3794 197.473 75.5264 199.232 85.1924C200.991 94.8584 198.88 117.367 198.88 117.367L197.825 121.411L197.297 120.531Z" fill="#9CD499"/>
<path d="M198.509 111.034H198.5C198.471 111.033 198.443 111.026 198.417 111.014C198.39 111.002 198.367 110.984 198.347 110.963C198.327 110.942 198.312 110.917 198.302 110.89C198.292 110.862 198.287 110.834 198.289 110.805C198.289 110.734 198.553 103.689 198.421 97.9046C198.108 91.4661 197.219 85.0686 195.766 78.7886C194.897 75.6886 193.805 65.2806 199.109 54.5346C201.415 49.9229 203.976 45.4427 206.779 41.1147C209.664 36.4857 213.253 30.7246 218.95 20.5756C218.979 20.5246 219.027 20.487 219.083 20.4711C219.14 20.4553 219.2 20.4625 219.251 20.4911C219.302 20.5198 219.34 20.5675 219.355 20.6238C219.371 20.6802 219.364 20.7406 219.335 20.7917C213.635 30.9487 210.042 36.7146 207.154 41.3476C204.358 45.6632 201.805 50.1308 199.505 54.7297C194.262 65.3507 195.334 75.6116 196.19 78.6686C197.652 84.9845 198.546 91.4185 198.862 97.8936C198.994 103.694 198.73 110.75 198.727 110.821C198.726 110.877 198.702 110.931 198.662 110.971C198.621 111.011 198.566 111.033 198.509 111.034Z" fill="#74B570"/>
<path d="M198.175 128.743C199.757 113.443 200.022 120.99 193.45 100.207C185.929 76.4202 212.768 55.3072 217.163 63.9172C221.558 72.5272 226.656 99.6082 224.722 98.7302C222.788 97.8522 209.954 72.7092 209.602 73.7632C209.25 74.8172 192.196 83.6092 192.902 92.5762C193.608 101.543 200.11 115.784 200.11 115.784L199.934 128.918L198.175 128.743Z" fill="#9CD499"/>
<path d="M199.934 128.739H199.912L198.153 128.562C198.124 128.56 198.095 128.552 198.069 128.538C198.044 128.524 198.021 128.506 198.002 128.483C197.984 128.461 197.97 128.435 197.961 128.407C197.952 128.379 197.95 128.35 197.953 128.321C198.136 126.554 198.304 125.066 198.44 123.87C199.177 117.376 199.178 117.376 197.161 111.813C196.251 109.299 195.003 105.856 193.238 100.274C191.919 96.1218 191.573 91.7225 192.225 87.4155C192.836 83.4562 194.164 79.6415 196.144 76.1586C199.625 69.9376 205.103 64.5936 210.102 62.5446C213.575 61.1206 216.22 61.5846 217.359 63.8156C219.225 67.4726 221.459 74.9606 223.326 83.8456C224.406 88.9736 225.992 97.9026 225.091 98.8456C225.033 98.9074 224.958 98.949 224.875 98.9641C224.792 98.9793 224.706 98.9672 224.631 98.9296C223.576 98.4496 220.082 92.2845 215.262 83.6295C212.845 79.2895 210.351 74.8106 209.678 74.0386C208.935 74.6816 208.141 75.2622 207.303 75.7745C202.526 79.0145 192.584 85.7576 193.118 92.5586C193.81 101.384 200.244 115.551 200.308 115.693C200.322 115.722 200.328 115.755 200.328 115.788L200.152 128.523C200.151 128.553 200.145 128.583 200.132 128.611C200.12 128.638 200.101 128.663 200.079 128.684C200.039 128.719 199.987 128.738 199.934 128.739ZM198.418 128.145L199.718 128.275L199.889 115.83C199.483 114.93 193.361 101.244 192.683 92.5925C192.129 85.5355 202.213 78.6926 207.059 75.4086C207.889 74.9059 208.672 74.3295 209.399 73.6865C209.414 73.639 209.443 73.5971 209.482 73.5658C209.521 73.5345 209.568 73.5153 209.617 73.5105C210.043 73.4705 210.888 74.8595 215.651 83.4105C219.069 89.5495 223.742 97.9405 224.794 98.5105C224.875 98.3785 225.113 97.6576 224.648 93.9456C224.311 91.2616 223.696 87.7295 222.912 84.0005C221.046 75.1195 218.824 67.6475 216.969 64.0105C215.948 62.0105 213.507 61.6205 210.269 62.9465C201.505 66.5385 188.076 82.4765 193.659 100.134C195.421 105.707 196.667 109.145 197.576 111.655C199.627 117.316 199.628 117.316 198.877 123.912C198.745 125.123 198.59 126.481 198.417 128.145H198.418Z" fill="#74B570"/>
<path d="M203.701 129.377H195.723C195.488 129.4 195.253 129.344 195.055 129.217C194.857 129.09 194.708 128.899 194.631 128.677L191.951 108.522C191.909 108.317 191.913 108.105 191.963 107.902C192.012 107.699 192.105 107.509 192.235 107.346C192.366 107.183 192.531 107.05 192.718 106.957C192.905 106.864 193.111 106.814 193.319 106.809H206.101C206.311 106.813 206.516 106.864 206.704 106.956C206.891 107.049 207.056 107.182 207.187 107.345C207.317 107.508 207.41 107.698 207.46 107.902C207.509 108.105 207.513 108.317 207.472 108.522L204.79 128.677C204.744 129.065 204.25 129.377 203.701 129.377Z" fill="#7BCEE8"/>
<path d="M202.756 128.681H201.613C201.054 128.681 200.605 128.358 200.613 127.954L201.013 110.544C201.02 110.127 201.188 109.728 201.482 109.431C201.776 109.134 202.172 108.961 202.59 108.949H204.323C204.522 108.95 204.719 108.994 204.9 109.078C205.081 109.162 205.242 109.283 205.371 109.435C205.501 109.586 205.597 109.763 205.653 109.954C205.709 110.146 205.722 110.347 205.694 110.544L203.843 127.954C203.806 128.358 203.314 128.681 202.756 128.681Z" fill="#A2DFF2"/>
<path d="M194.25 100.475L194.391 100.23C193.882 98.433 193.473 96.6095 193.166 94.7676C193.327 96.7025 193.69 98.6154 194.25 100.475Z" fill="#74B570"/>
<path d="M194.246 85.7406C193.744 87.0202 193.405 88.3576 193.237 89.7215C195.593 81.9895 208.707 75.0095 209.56 73.8325L209.711 73.5326C204.79 72.1616 196.912 79.0836 194.246 85.7406Z" fill="#74B570"/>
<path d="M224.736 98.2537C224.686 98.2536 224.639 98.2369 224.6 98.2064C224.561 98.176 224.534 98.1336 224.522 98.0857L222.139 88.3906C220.278 80.7906 217.962 71.3387 215.362 67.1297C214.934 66.4357 213.062 65.4977 210.411 65.6847C206.827 65.9387 199.918 68.4147 193.92 82.1457C193.896 82.1989 193.852 82.2407 193.798 82.2617C193.743 82.2828 193.683 82.2816 193.629 82.2582C193.576 82.2348 193.534 82.1914 193.512 82.1371C193.491 82.0829 193.492 82.0223 193.515 81.9687C199.608 68.0247 206.696 65.5047 210.38 65.2437C213.245 65.0437 215.239 66.0886 215.738 66.8966C218.374 71.1646 220.602 80.2607 222.568 88.2847L224.952 97.9796C224.965 98.0365 224.956 98.0965 224.926 98.1465C224.895 98.1965 224.846 98.2325 224.79 98.2467C224.772 98.2512 224.754 98.2535 224.736 98.2537Z" fill="#74B570"/>
<path d="M217.747 85.6073H217.721C217.663 85.6005 217.609 85.5709 217.573 85.5249C217.537 85.479 217.52 85.4205 217.527 85.3623C218.007 79.8574 217.604 74.311 216.334 68.9332C216.324 68.8779 216.335 68.8208 216.365 68.7734C216.395 68.7261 216.443 68.6921 216.497 68.6785C216.552 68.6648 216.61 68.6725 216.659 68.7C216.708 68.7274 216.745 68.7727 216.762 68.8263C218.043 74.2564 218.448 79.8564 217.962 85.4143C217.955 85.4669 217.93 85.5154 217.89 85.5508C217.851 85.5862 217.8 85.6063 217.747 85.6073Z" fill="#74B570"/>
<path d="M215.285 80.6805H215.259C215.201 80.6735 215.148 80.6438 215.112 80.5979C215.075 80.5519 215.059 80.4936 215.066 80.4355C215.557 75.9859 215.646 71.501 215.332 67.0355C215.326 66.9771 215.344 66.9189 215.381 66.8736C215.418 66.8283 215.472 66.7997 215.53 66.794C215.588 66.7883 215.647 66.806 215.692 66.8432C215.737 66.8804 215.766 66.9342 215.772 66.9925C216.089 71.4894 215.999 76.0057 215.504 80.4865C215.497 80.5401 215.472 80.5894 215.431 80.6252C215.391 80.661 215.339 80.6806 215.285 80.6805Z" fill="#74B570"/>
<path d="M206.896 41.5391C206.845 41.5411 206.795 41.5253 206.755 41.4945C206.714 41.4637 206.686 41.4197 206.674 41.3701C206.662 41.3205 206.668 41.2683 206.69 41.2225C206.712 41.1767 206.75 41.1402 206.797 41.119C211.009 38.8426 214.485 35.4117 216.816 31.229C216.828 31.2012 216.846 31.1762 216.868 31.1556C216.891 31.1351 216.917 31.1195 216.946 31.1096C216.975 31.0998 217.005 31.0959 217.036 31.0984C217.066 31.1009 217.095 31.1097 217.122 31.1242C217.149 31.1386 217.173 31.1584 217.191 31.1824C217.21 31.2063 217.224 31.2338 217.231 31.2633C217.239 31.2928 217.241 31.3236 217.236 31.3536C217.231 31.3837 217.22 31.4124 217.203 31.438C214.827 35.7019 211.282 39.1986 206.986 41.517C206.958 41.5308 206.928 41.5384 206.896 41.5391Z" fill="#74B570"/>
<path d="M202.236 49.5277C202.182 49.527 202.13 49.5064 202.09 49.4697C202.05 49.433 202.025 49.3829 202.019 49.3288C202.014 49.2748 202.028 49.2207 202.06 49.1767C202.092 49.1328 202.139 49.1021 202.193 49.0907C202.245 49.0797 207.412 47.9727 213.548 43.0117C213.593 42.978 213.65 42.9633 213.707 42.9706C213.763 42.9778 213.814 43.0064 213.85 43.0505C213.886 43.0946 213.903 43.1509 213.899 43.2075C213.894 43.2641 213.868 43.3169 213.826 43.3547C207.599 48.3887 202.335 49.5127 202.283 49.5237C202.267 49.5267 202.252 49.5281 202.236 49.5277Z" fill="#74B570"/>
<path d="M198.387 57.2522C198.296 57.2522 198.243 57.2522 198.227 57.2522C198.196 57.2518 198.167 57.2453 198.139 57.233C198.112 57.2207 198.087 57.2029 198.067 57.1807C198.046 57.1585 198.031 57.1324 198.021 57.104C198.011 57.0755 198.007 57.0452 198.009 57.0151C198.011 56.985 198.019 56.9557 198.033 56.9289C198.047 56.9022 198.067 56.8786 198.09 56.8596C198.113 56.8406 198.14 56.8266 198.169 56.8184C198.198 56.8103 198.229 56.8081 198.259 56.8121C198.294 56.8121 201.859 57.0121 207.559 52.7281C207.606 52.6928 207.664 52.6776 207.723 52.6857C207.781 52.6939 207.833 52.7249 207.868 52.7717C207.904 52.8185 207.919 52.8773 207.91 52.9354C207.902 52.9934 207.872 53.0459 207.825 53.0811C202.588 57.0081 199.158 57.2522 198.387 57.2522Z" fill="#74B570"/>
</svg>
