<svg width="94" height="100" viewBox="0 0 94 100" fill="none" xmlns="http://www.w3.org/2000/svg">
<path d="M52.0539 34.527C49.8854 31.9826 47.2661 29.9175 44.3459 28.4498C41.4257 26.9821 38.2618 26.1406 35.0353 25.9734C31.8087 25.8062 28.5828 26.3166 25.5421 27.4755C22.5013 28.6344 19.7054 30.4189 17.3143 32.727C16.7647 33.2301 16.251 33.7759 15.7776 34.36L15.1631 35.504L15.9319 36.484L16.0863 36.647C20.4735 41.729 26.5782 44.7547 33.0617 45.0609C39.5452 45.367 45.8783 42.9285 50.6724 38.28C51.2224 37.7774 51.7361 37.2315 52.2091 36.647L52.978 35.504L52.0539 34.527ZM30.8418 35.507C30.8418 34.8609 31.0221 34.2292 31.3599 33.692C31.6978 33.1547 32.1779 32.736 32.7397 32.4887C33.3015 32.2415 33.9196 32.1768 34.516 32.3028C35.1123 32.4289 35.6602 32.74 36.0901 33.1969C36.5201 33.6538 36.8129 34.2359 36.9315 34.8697C37.0501 35.5034 36.9893 36.1603 36.7566 36.7573C36.5239 37.3542 36.1298 37.8645 35.6242 38.2234C35.1187 38.5824 34.5243 38.774 33.9162 38.774C33.1015 38.7719 32.3207 38.4272 31.7445 37.8152C31.1682 37.2033 30.8434 36.3738 30.8409 35.508L30.8418 35.507ZM31.9174 29.299C30.3841 29.843 29.1098 30.9991 28.364 32.5232C27.6182 34.0472 27.4593 35.8197 27.9208 37.466C28.2158 38.4637 28.7333 39.3708 29.4291 40.1102C30.125 40.8497 30.9786 41.3995 31.9174 41.713C27.0815 41.2358 22.5355 39.0505 19.0054 35.506C22.5532 31.9895 27.0896 29.8084 31.9174 29.298V29.299ZM35.915 41.715C37.4485 41.1713 38.7229 40.0152 39.4687 38.4911C40.2145 36.9669 40.3734 35.1943 39.9116 33.548C39.6164 32.5505 39.0989 31.6435 38.4031 30.904C37.7073 30.1646 36.8537 29.6147 35.915 29.301C40.751 29.7786 45.2969 31.9643 48.827 35.509C45.2789 39.0246 40.7424 41.2046 35.915 41.714V41.715Z" fill="#24D07D"/>
<path d="M33.9162 7.73927C28.7478 7.73907 23.6953 9.36755 19.3978 12.4188C15.1003 15.47 11.7508 19.8069 9.77281 24.8811C7.79484 29.9552 7.27726 35.5387 8.28553 40.9255C9.2938 46.3122 11.7826 51.2603 15.4373 55.1439C19.092 59.0275 23.7483 61.6723 28.8175 62.7437C33.8866 63.8152 39.1409 63.2652 43.9159 61.1633C48.6909 59.0614 52.7722 55.502 55.6435 50.9353C58.5148 46.3685 60.0473 40.9995 60.0471 35.5073C60.05 31.8599 59.376 28.2477 58.0638 24.8773C56.7516 21.507 54.8269 18.4447 52.3999 15.8656C49.9729 13.2865 47.0911 11.2412 43.9194 9.84682C40.7478 8.45242 37.3486 7.73624 33.9162 7.73927ZM33.9162 60.0093C29.3563 60.0093 24.8987 58.5724 21.1072 55.8803C17.3158 53.1882 14.3607 49.3618 12.6157 44.885C10.8707 40.4082 10.4141 35.4821 11.3037 30.7296C12.1933 25.977 14.3891 21.6115 17.6135 18.1852C20.8379 14.7588 24.946 12.4254 29.4183 11.48C33.8906 10.5347 38.5264 11.0199 42.7392 12.8742C46.9521 14.7286 50.5528 17.8688 53.0862 21.8978C55.6196 25.9268 56.9718 30.6636 56.9718 35.5093C56.9756 38.7278 56.3819 41.9155 55.2246 44.8898C54.0673 47.8642 52.3692 50.5666 50.2275 52.8425C48.0859 55.1183 45.5427 56.9228 42.7437 58.1526C39.9448 59.3824 36.945 60.0134 33.9162 60.0093Z" fill="#24D07D"/>
<path d="M86.178 71.4434V17.5434C86.1879 16.4679 85.9959 15.4012 85.6132 14.4055C85.2305 13.4099 84.6647 12.5054 83.9491 11.7449C83.2334 10.9844 82.3822 10.3832 81.4453 9.97654C80.5084 9.56984 79.5045 9.36581 78.4925 9.37637H61.5838V12.6434H78.4925C79.1011 12.6316 79.7057 12.7502 80.2701 12.9923C80.8346 13.2344 81.3474 13.5949 81.7778 14.0523C82.2082 14.5096 82.5474 15.0545 82.7752 15.6543C83.003 16.2542 83.1147 16.8966 83.1036 17.5434V71.4434H86.178Z" fill="#24D07D"/>
<path d="M9.32111 66.543V82.878C9.31117 83.9534 9.50318 85.0202 9.8859 86.0158C10.2686 87.0114 10.8343 87.916 11.55 88.6765C12.2656 89.4369 13.1168 90.0381 14.0538 90.4448C14.9907 90.8515 15.9946 91.0555 17.0066 91.045H70.807V87.778H17.0075C16.399 87.7898 15.7944 87.6711 15.2299 87.429C14.6654 87.1869 14.1527 86.8265 13.7223 86.3691C13.2919 85.9117 12.9526 85.3668 12.7248 84.767C12.497 84.1672 12.3853 83.5247 12.3964 82.878V66.543H9.32111Z" fill="#24D07D"/>
<path d="M66.1959 17.54H80.0292V20.807H66.1959V17.54Z" fill="#24D07D"/>
<path d="M69.2703 25.707H80.0301V28.974H69.2703V25.707Z" fill="#24D07D"/>
<path d="M69.2703 33.874H80.0301V37.141H69.2703V33.874Z" fill="#24D07D"/>
<path d="M69.2703 42.041H80.0301V45.308H69.2703V42.041Z" fill="#24D07D"/>
<path d="M69.2703 50.208H80.0301V53.475H69.2703V50.208Z" fill="#24D07D"/>
<path d="M70.807 58.376H80.0292V61.643H70.807V58.376Z" fill="#24D07D"/>
<path d="M15.4699 73.0771H56.9699V76.3441H15.4699V73.0771Z" fill="#24D07D"/>
<path d="M15.4699 79.6104H63.1215V82.8773H15.4699V79.6104Z" fill="#24D07D"/>
<path d="M23.1554 48.5752H44.6752V51.8422H23.1554V48.5752Z" fill="#24D07D"/>
<path d="M23.1554 19.1729H44.6752V22.4398H23.1554V19.1729Z" fill="#24D07D"/>
<path d="M75.8792 69.6463C75.4642 69.1801 74.9637 68.8091 74.4085 68.5563C73.8534 68.3035 73.2554 68.1742 72.6515 68.1763H71.5759L60.5082 54.9453C65.2905 47.7677 67.3399 38.9331 66.245 30.216C65.1501 21.4988 60.9919 13.5447 54.6056 7.95118C48.2193 2.35769 40.0778 -0.460891 31.8165 0.0615429C23.5551 0.583976 15.7857 4.40873 10.0687 10.7676C4.35172 17.1265 1.11061 25.5485 0.996323 34.3422C0.882038 43.1358 3.90305 51.6497 9.45259 58.174C15.0021 64.6982 22.6692 68.7495 30.9138 69.5142C39.1585 70.2788 47.37 67.7002 53.8993 62.2963L64.6592 75.1963V76.5033C64.6422 77.1474 64.757 77.7877 64.9959 78.38C65.2347 78.9722 65.5919 79.5022 66.0425 79.9333L82.028 96.9253C83.3327 98.3116 85.1022 99.0903 86.9472 99.0902C88.7922 99.0902 90.5616 98.3112 91.8661 96.9248C93.1707 95.5384 93.9035 93.6581 93.9035 91.6974C93.9034 89.7368 93.1704 87.8566 91.8657 86.4703L75.8792 69.6463ZM4.71004 35.5073C4.71004 29.3689 6.42297 23.3684 9.63223 18.2645C12.8415 13.1607 17.4029 9.18269 22.7397 6.83368C28.0765 4.48467 33.949 3.87011 39.6144 5.06772C45.2799 6.26533 50.484 9.22133 54.5685 13.5619C58.653 17.9025 61.4346 23.4326 62.5614 29.4531C63.6882 35.4735 63.1097 41.7139 60.899 47.385C58.6883 53.056 54.9447 57.9031 50.1417 61.3133C45.3386 64.7234 39.6918 66.5435 33.9153 66.5433C30.0795 66.545 26.2809 65.7434 22.7368 64.1843C19.1927 62.6252 15.9724 60.3391 13.2601 57.4568C10.5478 54.5745 8.39669 51.1524 6.92961 47.3862C5.46253 43.62 4.7083 39.5834 4.71004 35.5073ZM56.2049 60.3353C56.9737 59.5183 57.8987 58.5353 58.5104 57.7223L68.6548 69.8093L66.1959 72.2583L56.2049 60.3353ZM86.9478 95.9453C85.9287 95.9143 84.9511 95.5102 84.1802 94.8013L68.1937 77.8133C68.0434 77.6695 67.9243 77.4928 67.8447 77.2952C67.7651 77.0977 67.7268 76.8841 67.7326 76.6693V75.3633L71.4215 71.4433H72.6505C72.8526 71.4373 73.0536 71.4781 73.2394 71.5627C73.4253 71.6473 73.5917 71.7737 73.7271 71.9333L89.7135 88.9213C90.0789 89.3063 90.3689 89.7643 90.5668 90.269C90.7647 90.7737 90.8666 91.315 90.8666 91.8618C90.8666 92.4086 90.7647 92.9499 90.5668 93.4546C90.3689 93.9593 90.0789 94.4173 89.7135 94.8023C88.9285 95.4853 87.9598 95.8859 86.9468 95.9463L86.9478 95.9453Z" fill="#24D07D"/>
</svg>
