<svg width="578" height="462" viewBox="0 0 578 462" fill="none" xmlns="http://www.w3.org/2000/svg">
<g clip-path="url(#clip0_2716_1648)">
<path d="M374.15 172.379L288.726 198.84L331.438 225.079L389.381 186.993L374.15 172.379Z" fill="#333333"/>
<path d="M271.398 340.662L256.057 252.314L298.77 278.553L291.265 347.637L271.398 340.662Z" fill="#333333"/>
<path d="M365.652 325.716C348.655 315.309 343.358 292.945 353.732 275.896C364.107 258.846 386.401 253.532 403.398 263.939C413.883 270.36 416.752 279.771 421.167 290.399C430.107 311.545 444.896 330.034 464.1 342.545C464.1 342.545 482.972 354.944 476.902 351.734C482.421 355.719 462.886 344.427 462.886 344.427C448.096 335.902 431.321 330.809 414.324 329.591C397.99 328.484 380.552 334.905 365.652 325.716Z" fill="#F45F38"/>
<path d="M372.274 314.977C361.237 308.113 357.706 293.61 364.548 282.539C371.391 271.467 385.849 267.925 396.886 274.789C407.923 281.653 419.622 312.32 417.745 315.309C416.311 317.634 383.311 321.841 372.274 314.977Z" fill="white"/>
<path d="M370.618 304.017C363.555 299.699 361.348 290.399 365.652 283.203C369.956 276.117 379.227 273.903 386.401 278.221C393.465 282.538 400.969 302.245 399.755 304.127C398.762 305.677 377.682 308.334 370.618 304.017Z" fill="#F45F38"/>
<path d="M210.697 130.309L146.904 85.0272C145.138 83.6987 143.262 82.5916 141.386 81.7059C118.871 71.0774 37.5302 48.3814 22.741 72.6274C7.95181 96.8735 64.3495 160.09 84.6571 174.594C94.0383 181.347 308.372 293.167 308.372 293.167L348.214 227.846L236.191 148.355" fill="white"/>
<path d="M210.697 130.309L146.904 85.0272C145.138 83.6987 143.262 82.5916 141.386 81.7059C118.871 71.0774 37.5302 48.3814 22.741 72.6274C7.9518 96.8735 64.3495 160.09 84.6571 174.594C94.0383 181.347 308.372 293.167 308.372 293.167L348.214 227.846L236.191 148.355" stroke="#333333" stroke-miterlimit="10" stroke-linecap="round" stroke-linejoin="round"/>
<path d="M22.6304 72.6273C22.7407 72.4059 22.8512 72.2952 22.9615 72.0738C26.4933 81.9272 34.7708 101.855 48.5667 116.248C67.5499 136.176 89.0715 156.88 102.095 164.74C114.677 172.269 304.288 275.121 315.545 281.21L308.261 293.056C308.261 293.056 93.9277 181.236 84.5464 174.483C64.3492 159.98 7.84116 96.7627 22.6304 72.6273Z" fill="#E4E4E4"/>
<path d="M346.007 302.799L374.04 256.853L348.214 227.736L308.372 293.056L346.007 302.799Z" fill="#333333" stroke="#333333" stroke-miterlimit="10"/>
<path d="M364.659 252.867L369.405 257.628" stroke="white" stroke-miterlimit="10" stroke-linecap="round"/>
<path d="M347.882 236.039L361.017 249.214" stroke="white" stroke-miterlimit="10" stroke-linecap="round"/>
<path d="M214.78 218.214C225.707 224.968 240.054 221.536 246.787 210.465C253.519 199.504 250.098 185.111 239.061 178.358C228.135 171.604 213.787 175.037 207.054 186.108C200.432 197.068 203.854 211.461 214.78 218.214Z" fill="#333333"/>
<path d="M217.87 213.122C226.038 218.104 236.743 215.557 241.82 207.365C246.787 199.172 244.248 188.433 236.081 183.34C227.914 178.358 217.208 180.904 212.131 189.097C207.054 197.29 209.703 208.14 217.87 213.122Z" fill="white" stroke="#333333" stroke-miterlimit="10" stroke-linecap="round" stroke-linejoin="round"/>
<path d="M217.87 213.122C209.702 208.14 207.053 197.29 212.13 189.097C213.013 187.547 214.227 186.218 215.441 185.111C225.816 193.747 233.542 206.257 237.074 212.457C231.556 216.443 224.05 216.886 217.87 213.122Z" fill="#E4E4E4"/>
<path d="M167.984 191.865C178.911 198.618 193.258 195.186 199.991 184.115C206.723 173.154 203.302 158.762 192.265 152.008C181.339 145.255 166.991 148.687 160.259 159.758C153.526 170.719 156.947 185.111 167.984 191.865Z" fill="#333333"/>
<path d="M198.446 160.201C198.997 160.976 199.439 161.862 199.77 162.637" stroke="white" stroke-miterlimit="10" stroke-linecap="round"/>
<path d="M195.245 156.437C195.245 156.437 195.797 156.88 196.569 157.765" stroke="white" stroke-miterlimit="10" stroke-linecap="round"/>
<path d="M176.478 189.05C167.062 187.026 161.063 177.727 163.081 168.281C165.099 158.835 174.368 152.817 183.785 154.841C193.202 156.865 199.201 166.164 197.183 175.61C195.165 185.056 185.895 191.074 176.478 189.05Z" fill="white" stroke="#333333" stroke-miterlimit="10" stroke-linecap="round" stroke-linejoin="round"/>
<path d="M171.075 186.772C162.907 181.79 160.259 170.94 165.336 162.747C166.218 161.197 167.432 159.869 168.647 158.762C179.021 167.397 186.747 179.908 190.279 186.108C184.76 190.093 177.145 190.647 171.075 186.772Z" fill="#E4E4E4"/>
<path d="M121.078 165.515C132.005 172.269 146.352 168.837 153.085 157.765C159.817 146.805 156.396 132.412 145.359 125.659C134.433 118.905 120.085 122.337 113.353 133.409C106.62 144.369 110.041 158.762 121.078 165.515Z" fill="#333333"/>
<path d="M150.988 133.187C151.54 133.962 151.981 134.848 152.312 135.623" stroke="white" stroke-miterlimit="10" stroke-linecap="round"/>
<path d="M147.677 129.423C147.677 129.423 148.229 129.866 149.001 130.751" stroke="white" stroke-miterlimit="10" stroke-linecap="round"/>
<path d="M124.168 160.533C132.336 165.515 143.041 162.969 148.118 154.776C153.085 146.583 150.546 135.844 142.379 130.751C134.212 125.769 123.506 128.316 118.429 136.508C113.352 144.701 116.001 155.44 124.168 160.533Z" fill="white" stroke="#333333" stroke-miterlimit="10" stroke-linecap="round" stroke-linejoin="round"/>
<path d="M124.168 160.533C116 155.551 113.352 144.701 118.429 136.509C119.312 134.959 120.526 133.63 121.74 132.523C132.115 141.158 139.841 153.669 143.373 159.869C137.854 163.744 130.238 164.297 124.168 160.533Z" fill="#E4E4E4"/>
<path d="M84.1052 64.8775L43.7108 130.973C26.7142 109.052 13.3598 84.695 21.1959 71.7417C29.2527 58.7883 56.9549 59.674 84.1052 64.8775Z" fill="#333333"/>
<path d="M69.0952 67.3132C59.2725 66.2061 42.3863 65.3204 29.3629 69.8596" stroke="white" stroke-miterlimit="10" stroke-linecap="round"/>
<path d="M77.1521 68.531C77.1521 68.531 75.6069 68.1989 73.0683 67.8667" stroke="white" stroke-miterlimit="10" stroke-linecap="round"/>
<path d="M286.85 174.926L288.064 175.811" stroke="#333333" stroke-miterlimit="10" stroke-linecap="round" stroke-linejoin="round"/>
<path d="M287.181 175.147L288.064 175.812" stroke="#333333" stroke-miterlimit="10" stroke-linecap="round" stroke-linejoin="round"/>
<path d="M287.719 175.479L288.064 175.826" stroke="#333333" stroke-miterlimit="10" stroke-linecap="round" stroke-linejoin="round"/>
<path d="M290.937 107.832V102.56V100.643L292.854 98.7261L293.333 95.8506L290.458 93.4543L289.02 92.0166L289.499 88.1825L287.582 86.7448L284.227 84.3485L281.831 81.473L279.914 83.39L277.997 86.2655L274.642 89.141L272.725 89.6203L271.767 91.0581L273.205 92.4958L271.767 95.3713L270.329 99.6846V102.081L273.205 103.519L278.956 104.477V109.749L290.937 107.832Z" fill="#FFEFD7"/>
<path d="M283.87 79.8237C282.435 80.2666 281 81.3737 279.897 83.4772C277.579 87.795 274.157 89.1236 274.157 89.1236C274.157 89.1236 272.281 89.0128 272.06 90.0093C271.84 91.0057 271.84 91.0057 271.84 91.0057L273.054 92.6664L272.06 94.5485C272.06 94.5485 269.963 99.4198 270.074 101.302C270.184 103.184 279.897 107.28 285.857 101.855" stroke="#333333" stroke-miterlimit="10" stroke-linecap="round" stroke-linejoin="round"/>
<path d="M287.622 97.9805C287.622 97.9805 290.602 94.1055 292.368 95.5448C294.134 96.9841 292.147 101.08 290.05 101.191C287.953 101.191 287.07 100.305 287.07 100.305" stroke="#333333" stroke-miterlimit="10" stroke-linecap="round" stroke-linejoin="round"/>
<path d="M279.234 87.7949C278.793 88.5699 278.793 89.4556 279.124 89.6771C279.455 89.8985 280.117 89.3449 280.559 88.5699C281 87.7949 281 86.9092 280.669 86.6878C280.338 86.4664 279.676 86.9092 279.234 87.7949Z" fill="#333333"/>
<path d="M271.73 96.5412C271.73 96.5412 274.599 97.9805 275.924 96.9841" stroke="#333333" stroke-miterlimit="10" stroke-linecap="round" stroke-linejoin="round"/>
<path d="M278.021 74.9523C278.241 70.1916 282.877 71.8523 288.285 72.0738C293.693 72.2952 294.796 69.6381 300.094 70.6345C305.392 71.5202 305.833 76.2808 305.833 76.2808C305.833 76.2808 305.06 77.6094 303.184 74.8416C302.081 73.1809 299.542 73.1809 297.776 73.8452C298.107 73.9559 298.438 74.1773 298.77 74.288C301.97 76.0594 304.178 77.9415 305.833 81.0415C307.157 83.5879 306.606 92.8878 310.358 92.777C314.773 92.6663 325.258 84.0307 334.639 84.8057C344.02 85.5807 355.388 94.8806 354.836 107.059C354.836 114.809 349.759 129.091 336.515 132.523C323.271 135.955 317.973 119.791 314.442 116.248C310.91 112.705 305.943 117.245 298.99 115.805C295.238 115.03 293.803 111.155 293.362 107.834C292.258 105.509 293.141 101.855 293.03 98.6448C292.92 94.2163 289.83 95.7663 287.512 94.6592C285.194 93.552 288.064 90.3414 288.174 88.57C288.285 86.7986 285.857 88.1271 283.649 85.6914C281.442 83.2557 281.883 81.2629 281.883 81.2629C281.773 81.1522 277.8 79.6022 278.021 74.9523Z" fill="#333333"/>
<path d="M278.793 104.845C278.793 104.845 279.013 106.616 278.903 109.052C278.793 111.377 290.713 107.945 290.713 107.945L290.933 102.52" stroke="#333333" stroke-miterlimit="10" stroke-linecap="round" stroke-linejoin="round"/>
<path d="M294.907 110.823L274.819 114.919L276.695 109.937L290.602 107.945" fill="white"/>
<path d="M294.907 110.823L274.819 114.919L276.695 109.937L290.602 107.945" stroke="#333333" stroke-miterlimit="10" stroke-linecap="round" stroke-linejoin="round"/>
<path d="M254.071 199.393L260.693 207.918L258.044 210.575L255.616 210.686L252.636 215.557C252.636 215.557 246.124 223.75 245.572 220.982C245.02 218.325 249.987 209.247 249.987 209.247L248.994 204.929L254.071 199.393Z" fill="#333333"/>
<path d="M278.021 159.869C278.021 159.869 260.693 137.062 252.857 136.398C245.021 135.734 242.593 142.487 242.593 142.487" fill="white"/>
<path d="M278.021 159.869C278.021 159.869 260.693 137.062 252.857 136.398C245.021 135.734 242.593 142.487 242.593 142.487" stroke="#333333" stroke-miterlimit="10"/>
<path d="M301.198 176.919C301.198 176.919 298.659 188.101 293.141 191.311C287.622 194.411 281.552 195.186 273.054 190.758C264.556 186.329 245.241 162.526 245.241 162.526C245.241 162.526 253.519 198.618 254.071 200.39L248.663 205.04C248.663 205.04 228.466 161.751 227.472 154.001C226.479 146.14 235.639 139.276 239.613 140.937C264.445 150.901 274.93 164.187 274.93 164.187" fill="white"/>
<path d="M301.198 176.919C301.198 176.919 298.659 188.101 293.141 191.311C287.622 194.411 281.552 195.186 273.054 190.758C264.556 186.329 245.241 162.526 245.241 162.526C245.241 162.526 253.519 198.618 254.071 200.39L248.663 205.04C248.663 205.04 228.466 161.751 227.472 154.001C226.479 146.14 235.639 139.276 239.613 140.937C264.445 150.901 274.93 164.187 274.93 164.187" stroke="#333333" stroke-miterlimit="10"/>
<path d="M278.021 114.477C278.021 114.477 272.171 127.984 271.619 131.748C271.067 135.401 278.021 144.923 278.572 147.58C279.124 150.348 278.352 159.426 276.586 161.64C274.82 163.965 275.151 167.508 275.151 167.508C275.151 167.508 275.372 173.044 286.298 176.254C297.224 179.465 301.75 175.701 301.75 175.701C301.75 175.701 312.014 127.541 294.686 112.152" fill="#0065EF"/>
<path d="M278.021 114.477C278.021 114.477 272.171 127.984 271.619 131.748C271.067 135.401 278.021 144.923 278.572 147.58C279.124 150.348 278.352 159.426 276.586 161.64C274.82 163.965 275.151 167.508 275.151 167.508C275.151 167.508 275.372 173.044 286.298 176.254C297.224 179.465 301.75 175.701 301.75 175.701C301.75 175.701 312.014 127.541 294.686 112.152" stroke="#333333" stroke-miterlimit="10" stroke-linecap="round" stroke-linejoin="round"/>
<path d="M309.627 204.641L310.586 203.203L307.231 200.807L303.397 198.411L301.001 196.014H294.77L295.25 198.411V201.766L295.729 205.12L297.167 207.037H298.125V204.641L297.646 202.245L298.604 201.766L301.48 203.683L305.314 207.996H307.231L308.189 207.517V206.558H309.627L310.586 206.079L309.627 204.641Z" fill="#FFEFD7"/>
<path d="M320.181 88.6807C320.181 88.6807 330.997 80.3773 341.261 83.5879C351.525 86.7986 355.719 98.7556 354.947 106.838" stroke="#333333" stroke-width="0.5" stroke-miterlimit="10"/>
<path d="M334.529 134.626C334.529 134.626 325.589 137.616 320.622 129.201C315.656 120.898 317.532 116.912 311.462 115.252C305.502 113.591 304.398 115.916 300.977 115.805" stroke="#333333" stroke-width="0.5" stroke-miterlimit="10"/>
<path d="M285.414 117.798C285.414 117.798 288.836 116.248 291.485 118.462C294.023 120.566 295.127 126.101 294.686 128.759C293.913 133.298 295.569 138.944 296.01 143.373C297.776 158.319 299.211 178.69 301.198 196.183L294.796 195.85C294.796 195.85 285.304 153.226 283.649 146.362C281.993 139.498 278.02 130.862 279.234 125.88" fill="white"/>
<path d="M285.414 117.798C285.414 117.798 288.836 116.248 291.485 118.462C294.023 120.566 295.127 126.101 294.686 128.759C293.913 133.298 295.569 138.944 296.01 143.373C297.776 158.319 299.211 178.69 301.198 196.183L294.796 195.85C294.796 195.85 285.304 153.226 283.649 146.362C281.993 139.498 278.02 130.862 279.234 125.88" stroke="#333333" stroke-miterlimit="10"/>
<path d="M301.308 196.183C301.308 196.183 302.301 197.622 305.171 199.393C308.151 201.275 308.482 201.275 310.358 203.379" fill="white"/>
<path d="M301.308 196.183C301.308 196.183 302.301 197.622 305.171 199.393C308.151 201.275 308.482 201.275 310.358 203.379" stroke="#333333" stroke-miterlimit="10" stroke-linecap="round"/>
<path d="M306.054 201.829C306.054 201.829 310.248 204.707 310.579 206.147L306.054 201.829Z" fill="white"/>
<path d="M306.054 201.829C306.054 201.829 310.248 204.707 310.579 206.147" stroke="#333333" stroke-miterlimit="10" stroke-linecap="round"/>
<path d="M303.405 201.718C303.405 201.718 307.268 205.261 308.151 207.365L303.405 201.718Z" fill="white"/>
<path d="M303.405 201.718C303.405 201.718 307.268 205.261 308.151 207.365" stroke="#333333" stroke-miterlimit="10" stroke-linecap="round"/>
<path d="M306.054 208.914C306.054 208.914 301.308 202.604 298.99 202.161C296.672 201.718 298.549 203.49 298.107 206.147C297.666 208.804 296.01 206.7 295.569 204.043C295.017 201.275 295.458 198.618 295.238 197.29" stroke="#333333" stroke-miterlimit="10" stroke-linecap="round"/>
<path d="M275.261 170.719C275.261 170.719 275.261 177.14 279.566 180.351L275.261 170.719Z" fill="white"/>
<path d="M275.261 170.719C275.261 170.719 275.261 177.14 279.566 180.351" stroke="#333333" stroke-miterlimit="10" stroke-linecap="round" stroke-linejoin="round"/>
<path d="M297.776 74.3987C297.776 74.3987 304.288 75.2844 307.268 81.0414C308.592 83.5878 308.482 87.1307 310.358 89.4556C313.007 92.5556 318.636 90.452 321.616 88.6806" stroke="#333333" stroke-width="0.5" stroke-miterlimit="10"/>
<path d="M345.234 127.541C345.234 127.541 337.067 132.855 329.783 126.766C322.498 120.677 323.05 108.941 316.87 106.284C310.689 103.516 301.97 110.491 299.211 106.505C296.452 102.52 300.646 92.3342 298.659 89.5663C296.562 86.6878 288.947 86.9092 288.947 86.9092" stroke="white" stroke-width="0.5" stroke-miterlimit="10"/>
<path d="M282.656 80.7094C282.656 80.7094 287.181 82.8129 290.823 80.2665C294.465 77.7201 300.315 79.9344 302.081 84.9164C303.736 89.8985 301.308 96.3198 305.502 98.4234C309.806 100.527 317.422 93.2199 327.465 94.5484C337.508 95.877 338.502 102.741 340.93 108.83C343.358 114.92 349.649 120.123 352.518 116.47" stroke="white" stroke-width="0.5" stroke-miterlimit="10"/>
<g clip-path="url(#clip1_2716_1648)">
<path d="M453.781 128.823C453.781 130.453 452.439 131.795 450.81 131.795C449.18 131.795 447.838 130.453 447.838 128.823C447.838 127.194 449.18 125.852 450.81 125.852C452.439 125.852 453.781 127.098 453.781 128.823Z" fill="#0065EF"/>
<path d="M478.03 130.836C478.03 132.466 476.688 133.808 475.059 133.808C473.43 133.808 472.088 132.466 472.088 130.836C472.088 129.207 473.43 127.865 475.059 127.865C476.688 127.865 478.03 129.207 478.03 130.836Z" fill="#0065EF"/>
<path d="M475.251 152.211C475.251 153.84 473.909 155.182 472.279 155.182C470.65 155.182 469.308 153.84 469.308 152.211C469.308 150.581 470.65 149.24 472.279 149.24C473.909 149.335 475.251 150.581 475.251 152.211Z" fill="#0065EF"/>
<path d="M395.123 127.577C395.123 129.207 393.781 130.549 392.151 130.549C390.522 130.549 389.18 129.207 389.18 127.577C389.18 125.948 390.522 124.606 392.151 124.606C393.781 124.606 395.123 125.948 395.123 127.577Z" fill="#0065EF"/>
<path d="M427.04 144.926C427.04 146.556 425.698 147.898 424.068 147.898C422.439 147.898 421.097 146.556 421.097 144.926C421.097 143.297 422.439 141.955 424.068 141.955C425.698 141.955 427.04 143.297 427.04 144.926Z" fill="#0065EF"/>
<path d="M472.567 151.061C473.621 144.351 474.101 137.546 475.443 130.836C475.538 130.453 474.867 130.357 474.772 130.645C472.663 137.067 472.663 144.255 471.992 150.965C471.992 151.348 472.471 151.348 472.567 151.061Z" fill="#0065EF"/>
<path d="M450.81 127.865C459.053 128.057 467.296 130.932 475.539 130.357C475.923 130.357 475.923 129.686 475.539 129.686C467.2 129.494 459.053 126.811 450.81 127.29C450.426 127.29 450.426 127.865 450.81 127.865Z" fill="#0065EF"/>
<path d="M425.027 145.693C434.037 140.613 442.088 134.095 450.619 128.248C451.002 127.961 450.523 127.481 450.236 127.673C441.705 133.328 433.653 139.75 424.835 145.022C424.452 145.31 424.739 145.885 425.027 145.693Z" fill="#0065EF"/>
<path d="M391.576 126.523C401.928 133.424 412.183 141.092 423.589 146.076C423.972 146.268 424.26 145.597 423.877 145.406C412.375 140.23 402.79 132.178 391.864 126.14C391.576 125.948 391.289 126.331 391.576 126.523Z" fill="#0065EF"/>
<path d="M450.235 129.015C458.286 136.204 464.9 144.447 472.089 152.403C472.376 152.69 472.76 152.307 472.568 152.019C466.529 143.393 458.765 135.245 450.618 128.536C450.331 128.344 450.043 128.728 450.235 129.015Z" fill="#0065EF"/>
</g>
<path d="M218.572 42.6535V38.3402L219.052 35.944L220.969 33.5477V29.7137L217.614 28.7552L216.655 26.8382L215.218 24.4419L217.614 21.0871V19.1701V17.7324L212.342 15.8153H209.946L208.029 18.2116L205.633 21.5664L202.757 23.9626L201.319 24.4419L199.882 24.9211L199.402 25.8797L199.882 27.3174L200.361 28.2759L199.882 29.7137L198.444 33.0684L197.485 36.9025L198.444 38.3402L202.278 39.778L206.112 40.2572V45.0498H207.55L218.093 43.612L218.572 42.6535Z" fill="#FFEFD7"/>
<path d="M211.579 15.1675C210.144 15.6104 208.71 16.7175 207.495 18.821C205.178 23.1388 201.646 24.5781 201.646 24.5781C201.646 24.5781 199.769 24.4674 199.549 25.4638C199.328 26.4602 199.328 26.4602 199.328 26.4602L200.542 28.1209L199.549 30.1137C199.549 30.1137 197.341 34.9851 197.452 36.9779C197.562 38.86 207.496 42.9564 213.456 37.6422" stroke="#333333" stroke-miterlimit="10" stroke-linecap="round" stroke-linejoin="round"/>
<path d="M218.201 32.1065C218.201 32.1065 215.552 30.003 215.552 29.228C215.552 28.453 216.104 28.1209 216.214 27.3459C216.214 26.5709 211.91 25.7959 213.896 23.9138C215.883 22.0317 217.318 22.1424 217.428 19.7067C217.539 17.2711 210.365 17.4925 208.819 14.614C207.274 11.7354 207.716 6.86407 210.585 5.53552C215.662 3.32127 218.091 3.09985 220.519 5.97837C222.505 8.41405 221.954 9.96403 224.492 10.6283C227.031 11.2926 230.452 13.7283 232.439 17.6032C234.425 21.5888 232.549 27.5673 229.348 30.778C226.037 33.8779 215 41.96 218.201 32.1065Z" fill="#333333"/>
<path d="M215.332 31.8851C215.332 31.8851 218.312 28.0102 220.188 29.4494C222.064 30.8887 219.967 35.0958 217.87 35.0958C215.663 35.2065 214.89 34.0994 214.89 34.0994" fill="#FFEFD7"/>
<path d="M215.332 31.8851C215.332 31.8851 218.312 28.0102 220.188 29.4494C222.064 30.8887 219.967 35.0958 217.87 35.0958C215.663 35.2065 214.89 34.0994 214.89 34.0994" stroke="#333333" stroke-miterlimit="10" stroke-linecap="round" stroke-linejoin="round"/>
<path d="M206.833 23.2495C206.392 24.1352 206.392 24.9102 206.723 25.1316C207.054 25.353 207.827 24.7995 208.268 24.0245C208.71 23.1388 208.71 22.3638 208.379 22.1424C207.937 21.8102 207.275 22.3638 206.833 23.2495Z" fill="#333333"/>
<path d="M199.218 32.1065C199.218 32.1065 202.088 33.5458 203.412 32.5494" stroke="#333333" stroke-miterlimit="10" stroke-linecap="round" stroke-linejoin="round"/>
<path d="M206.171 40.5207C206.171 40.5207 206.502 42.4028 206.392 44.7277C206.281 47.1634 218.422 43.6206 218.422 43.6206L218.643 38.1957" stroke="#333333" stroke-miterlimit="10" stroke-linecap="round" stroke-linejoin="round"/>
<path d="M220.74 46.6099L202.418 50.7063L204.295 45.7242L218.422 43.6207" fill="white"/>
<path d="M220.74 46.6099L202.418 50.7063L204.295 45.7242L218.422 43.6207" stroke="#333333" stroke-miterlimit="10" stroke-linecap="round" stroke-linejoin="round"/>
<path d="M192.927 97.6484C192.927 97.6484 179.794 78.4951 171.627 75.6166C163.459 72.738 160.59 79.1594 160.59 79.1594" fill="white"/>
<path d="M192.927 97.6484C192.927 97.6484 179.794 78.4951 171.627 75.6166C163.459 72.738 160.59 79.1594 160.59 79.1594" stroke="#333333" stroke-miterlimit="10"/>
<path d="M216.987 113.48C216.987 113.48 214.449 124.884 208.82 127.984C203.191 131.194 197.121 131.859 188.513 127.43C179.904 122.891 160.369 98.8663 160.369 98.8663C160.369 98.8663 170.964 144.48 171.516 146.251L164.452 148.023C164.452 148.023 143.372 98.0913 142.379 90.12C141.386 82.2594 150.657 75.1737 154.74 76.8344C179.904 87.02 190.499 100.416 190.499 100.416" fill="white"/>
<path d="M216.987 113.48C216.987 113.48 214.449 124.884 208.82 127.984C203.191 131.194 197.121 131.859 188.513 127.43C179.904 122.891 160.369 98.8663 160.369 98.8663C160.369 98.8663 170.964 144.48 171.516 146.251L164.452 148.023C164.452 148.023 143.372 98.0913 142.379 90.12C141.386 82.2594 150.657 75.1737 154.74 76.8344C179.904 87.02 190.499 100.416 190.499 100.416" stroke="#333333" stroke-miterlimit="10"/>
<path d="M190.61 107.17C190.61 107.17 190.61 113.702 194.914 116.912L190.61 107.17Z" fill="white"/>
<path d="M190.61 107.17C190.61 107.17 190.61 113.702 194.914 116.912" stroke="#333333" stroke-miterlimit="10" stroke-linecap="round" stroke-linejoin="round"/>
<path d="M221.623 48.6027C221.623 48.6027 224.272 57.7919 225.155 67.2024C226.148 76.613 221.733 105.952 219.636 109.052C216.656 113.591 209.814 113.702 205.178 112.705C201.646 111.93 192.375 107.613 192.155 103.073C192.044 100.084 196.68 89.7878 197.452 84.2522C198.225 78.7165 198.666 63.5489 201.095 53.6955" fill="#0065EF"/>
<path d="M221.623 48.6027C221.623 48.6027 224.272 57.7919 225.155 67.2024C226.148 76.613 221.733 105.952 219.636 109.052C216.656 113.591 209.814 113.702 205.178 112.705C201.646 111.93 192.375 107.613 192.155 103.073C192.044 100.084 196.68 89.7878 197.452 84.2522C198.225 78.7165 198.666 63.5489 201.095 53.6955" stroke="#333333" stroke-miterlimit="10" stroke-linecap="round" stroke-linejoin="round"/>
<path d="M206.723 6.0891C204.405 13.3961 208.82 14.5033 208.82 14.5033C208.82 14.5033 206.392 7.52836 211.8 4.42841C217.208 1.32846 221.512 3.76413 222.727 5.75696" stroke="#333333" stroke-width="0.5" stroke-miterlimit="10"/>
<path d="M220.63 9.29979C220.63 9.29979 214.007 3.98559 211.027 7.74982C208.047 11.514 210.144 14.614 215.332 15.9425" stroke="white" stroke-width="0.5" stroke-miterlimit="10"/>
<path d="M217.318 16.2747C217.318 16.2747 211.027 15.1675 213.676 12.1783C216.325 9.29977 223.058 11.514 226.479 14.9461" stroke="white" stroke-width="0.5" stroke-miterlimit="10"/>
<path d="M217.429 19.596C217.429 19.596 222.175 24.4674 223.058 29.7816" stroke="white" stroke-width="0.5" stroke-miterlimit="10"/>
<path d="M222.285 22.0317C222.285 22.0317 227.141 25.0209 225.154 32.4387" stroke="white" stroke-width="0.5" stroke-miterlimit="10"/>
<path d="M228.322 143.848L229.389 142.397L226.145 139.661L222.415 136.896L220.143 134.222L213.823 133.824L214.151 136.375L213.929 139.904L214.192 143.464L215.524 145.573L216.496 145.634L216.655 143.113L216.327 140.561L217.331 140.119L220.121 142.319L223.724 147.101L225.669 147.224L226.673 146.781L226.736 145.773L228.195 145.865L229.199 145.422L228.322 143.848Z" fill="#FFEFD7"/>
<path d="M209.924 54.2491C209.924 54.2491 213.456 52.9205 215.994 55.2455C218.422 57.5705 219.195 63.2168 218.533 65.8739C217.429 70.3024 218.643 76.2809 218.864 80.8201C219.636 95.9878 219.636 116.691 220.519 134.626L214.118 133.851C214.118 133.851 207.495 90.12 206.281 83.0344C205.067 76.0595 201.646 66.981 203.191 61.999" fill="white"/>
<path d="M209.924 54.2491C209.924 54.2491 213.456 52.9205 215.994 55.2455C218.422 57.5705 219.195 63.2168 218.533 65.8739C217.429 70.3024 218.643 76.2809 218.864 80.8201C219.636 95.9878 219.636 116.691 220.519 134.626L214.118 133.851C214.118 133.851 207.495 90.12 206.281 83.0344C205.067 76.0595 201.646 66.981 203.191 61.999" stroke="#333333" stroke-miterlimit="10"/>
<path d="M220.519 134.516C220.519 134.516 221.402 135.955 224.272 138.059C227.141 140.162 227.472 140.162 229.238 142.376" fill="white"/>
<path d="M220.519 134.516C220.519 134.516 221.402 135.955 224.272 138.059C227.141 140.162 227.472 140.162 229.238 142.376" stroke="#333333" stroke-miterlimit="10" stroke-linecap="round"/>
<path d="M225.044 140.605C225.044 140.605 229.128 143.816 229.349 145.255L225.044 140.605Z" fill="white"/>
<path d="M225.044 140.605C225.044 140.605 229.128 143.816 229.349 145.255" stroke="#333333" stroke-miterlimit="10" stroke-linecap="round"/>
<path d="M222.285 140.273C222.285 140.273 225.927 144.148 226.7 146.251L222.285 140.273Z" fill="white"/>
<path d="M222.285 140.273C222.285 140.273 225.927 144.148 226.7 146.251" stroke="#333333" stroke-miterlimit="10" stroke-linecap="round"/>
<path d="M224.492 147.691C224.492 147.691 220.078 140.937 217.76 140.384C215.442 139.719 217.318 141.712 216.656 144.369C215.994 147.026 214.559 144.812 214.228 142.044C213.897 139.276 214.559 136.619 214.338 135.18" stroke="#333333" stroke-miterlimit="10" stroke-linecap="round"/>
<path d="M171.516 146.251C171.516 146.251 171.626 146.362 171.737 146.473C172.509 147.137 174.496 148.908 174.165 150.126C173.724 151.565 172.951 152.673 172.951 152.673L168.426 153.89L166.991 153.115L164.342 155.551C164.342 155.551 157.94 158.983 157.278 157.765C156.616 156.658 163.9 150.68 163.9 150.68L164.452 147.912" fill="#333333"/>
<path d="M183.656 261.724L191.934 265.931" stroke="#333333" stroke-miterlimit="10"/>
<path d="M138.406 238.253L179.904 259.732" stroke="#333333" stroke-miterlimit="10"/>
<path d="M228.796 325.938L236.964 330.145" stroke="#333333" stroke-miterlimit="10"/>
<path d="M183.546 302.467L224.934 323.945" stroke="#333333" stroke-miterlimit="10"/>
<path d="M297.555 45.3922L305.723 49.5992" stroke="#333333" stroke-miterlimit="10"/>
<path d="M252.305 21.9211L293.803 43.3993" stroke="#333333" stroke-miterlimit="10"/>
<path d="M96.5764 273.792L104.744 278.11" stroke="#333333" stroke-miterlimit="10"/>
<path d="M51.2157 250.432L92.7139 271.91" stroke="#333333" stroke-miterlimit="10"/>
<path d="M432.976 224.525L441.254 228.732" stroke="#333333" stroke-miterlimit="10"/>
<path d="M387.726 201.054L429.224 222.532" stroke="#333333" stroke-miterlimit="10"/>
<path d="M93.4861 35.0958L101.654 39.4135" stroke="#333333" stroke-miterlimit="10"/>
<path d="M48.1255 11.7354L89.6235 33.2137" stroke="#333333" stroke-miterlimit="10"/>
<path d="M10.1588 190.758C17.0016 183.783 25.9414 173.597 35.2122 176.697C50.0015 181.679 35.5433 198.286 46.9112 204.154C58.1686 210.022 67.5499 199.504 71.192 208.915C74.8341 218.325 67.9913 226.296 77.5933 230.503C87.1953 234.711 96.5765 227.625 100.991 236.15C105.406 244.785 105.516 249.878 109.931 252.425C114.235 254.971 119.312 247.11 126.486 259.067C133.55 271.024 138.737 272.685 138.737 272.685C138.737 272.685 2.87463 197.068 1.21912 196.183C3.09537 197.511 6.29599 194.633 10.1588 190.758Z" fill="#DFECFF"/>
<path d="M385.927 224.964C389.362 221.499 393.859 216.301 398.519 217.868C405.96 220.344 398.683 228.759 404.406 231.73C410.048 234.7 414.791 229.337 416.589 234.122C418.388 238.908 415.036 242.868 419.778 245.013C424.602 247.158 429.263 243.528 431.552 247.901C433.76 252.274 433.842 254.831 436.05 256.152C438.257 257.389 440.792 253.429 444.308 259.534C447.905 265.557 450.522 266.465 450.522 266.465C450.522 266.465 382.33 228.264 381.512 227.852C382.412 228.429 383.965 226.944 385.927 224.964Z" fill="#DFECFF"/>
<path d="M271.84 10.0748C276.586 5.31416 282.656 -1.77144 289.057 0.3321C299.211 3.76419 289.278 15.2783 297.114 19.2639C304.95 23.3603 311.351 16.0533 313.89 22.5853C316.428 29.1174 311.683 34.5423 318.305 37.4208C324.927 40.2993 331.328 35.428 334.418 41.2957C337.508 47.1635 337.508 50.817 340.599 52.5884C343.579 54.3598 347.11 48.9349 351.967 57.1276C356.823 65.4311 360.465 66.5382 360.465 66.5382C360.465 66.5382 266.763 14.3926 265.549 13.7283C266.984 14.7247 269.191 12.7319 271.84 10.0748Z" fill="#DFECFF"/>
<path d="M488.391 68.484C498.186 61.8209 509.476 84.8018 496.281 88.7453C495.873 88.8813 495.465 88.3373 495.873 87.9294C500.498 84.5298 502.403 80.3144 499.546 74.7392C497.506 70.7957 493.289 67.1242 488.663 69.0279C488.255 69.2999 487.983 68.62 488.391 68.484Z" fill="black"/>
<path d="M489.072 72.1556C488.392 67.8042 486.759 63.8607 482.951 61.4131C479.278 58.9654 475.469 59.1014 471.388 60.0533C470.98 60.1892 470.708 59.5093 471.116 59.3734C479.958 54.614 489.888 62.9089 489.888 72.1556C489.888 72.6995 489.072 72.6995 489.072 72.1556Z" fill="black"/>
<path d="M470.844 59.6451C472.069 49.0385 464.451 41.2876 454.113 39.9278C441.734 38.296 436.157 46.7268 437.382 58.1493C437.518 58.8292 436.293 59.2372 436.157 58.4213C429.356 29.0492 478.054 35.1684 471.797 59.6451C471.661 60.325 470.844 60.189 470.844 59.6451Z" fill="black"/>
<path d="M473.837 66.7159C471.388 61.8206 467.307 60.5967 462.41 59.5089C461.866 59.3729 461.866 58.557 462.41 58.557C467.715 58.285 472.749 61.5486 474.653 66.4439C474.789 66.9879 473.973 67.1238 473.837 66.7159Z" fill="black"/>
<path d="M441.054 60.1892C436.701 59.7813 432.484 60.5971 428.811 63.0448C425.411 65.3565 423.778 68.4841 421.602 71.8836C421.33 72.2916 420.513 72.1556 420.65 71.6117C422.282 63.0448 433.028 57.4696 441.054 59.2373C441.735 59.3733 441.599 60.1892 441.054 60.1892Z" fill="black"/>
<path d="M425.955 64.6763C413.576 58.9651 400.653 69.1637 404.19 82.4898C404.462 83.3057 403.102 83.8496 402.83 83.0338C399.021 68.8917 412.896 56.6534 426.227 63.8604C426.907 64.1324 426.499 64.9482 425.955 64.6763Z" fill="black"/>
<path d="M436.157 47.4074C422.962 41.8322 412.624 52.1668 412.215 65.221C412.215 66.1729 410.719 66.3089 410.719 65.357C411.127 51.6229 422.69 39.6565 436.565 46.7275C437.109 46.8635 436.701 47.6794 436.157 47.4074Z" fill="black"/>
<path d="M496.146 88.6091C495.738 88.6091 495.601 87.9293 496.01 87.9293C496.554 87.9293 496.554 88.6091 496.146 88.6091Z" fill="black"/>
<path d="M494.513 85.7535C499.818 102.479 470.98 104.519 464.043 92.9605C463.771 92.5526 464.315 91.8726 464.723 92.2806C469.348 97.1759 475.469 99.4876 482.271 98.8077C489.48 97.9918 495.057 93.7764 493.561 85.8894C493.425 85.3455 494.377 85.0735 494.513 85.7535Z" fill="black"/>
<path d="M469.076 95.4089C460.642 110.911 437.11 110.367 430.172 93.7771C429.9 93.0972 430.988 92.4173 431.396 93.0972C439.558 108.191 458.738 109.551 468.396 95.0009C468.668 94.593 469.348 95.0009 469.076 95.4089Z" fill="black"/>
<path d="M434.117 98.6714C423.507 104.655 409.36 100.575 403.783 89.8326C403.375 89.0168 404.463 88.2009 404.871 89.0168C410.992 99.6233 422.827 102.343 433.709 97.8556C434.117 97.7196 434.525 98.3995 434.117 98.6714Z" fill="black"/>
<path d="M407.183 95.8159C399.293 96.3598 392.628 90.3766 392.084 82.4897C391.539 74.7387 398.749 71.2032 405.415 74.6027C405.959 74.8747 405.687 75.8266 405.007 75.6906C401.878 75.0107 398.341 73.7868 395.62 76.0985C393.58 77.8663 393.172 80.7219 393.58 83.1696C394.532 89.9687 400.246 94.864 407.047 94.864C407.727 94.864 407.863 95.6799 407.183 95.8159Z" fill="black"/>
<g clip-path="url(#clip2_2716_1648)">
<path d="M126.367 27.9884C129.147 30.0971 134.323 28.9469 136.24 26.1672C136.431 25.8797 136.144 25.5921 135.856 25.688C134.61 26.2631 133.556 27.2216 132.31 27.7008C130.393 28.4676 128.476 28.5635 126.655 27.605C126.367 27.4133 126.08 27.7967 126.367 27.9884Z" fill="#3A3A3A"/>
<path d="M135.281 26.1672C132.31 27.9884 131.639 33.0685 134.035 35.4647C134.419 35.944 135.185 35.3689 134.802 34.8896C133.46 33.2602 133.268 31.5348 134.035 29.522C134.419 28.4676 135.185 27.605 135.665 26.5506C135.761 26.2631 135.473 26.0714 135.281 26.1672Z" fill="#3A3A3A"/>
<path d="M124.45 26.5506C125.792 27.9884 126.751 29.3303 126.655 31.439C126.559 33.2602 125.6 34.5062 125.025 36.1357C124.93 36.4232 125.313 36.6149 125.6 36.4232C128.668 34.1228 128.284 27.7967 124.834 26.1672C124.546 26.0714 124.259 26.3589 124.45 26.5506Z" fill="#3A3A3A"/>
<path d="M125.505 36.0398C127.038 35.6564 128.38 34.9855 130.01 34.8896C132.022 34.7938 133.364 35.6564 135.09 36.6149C135.377 36.8066 135.665 36.4232 135.473 36.1357C133.269 32.8767 128.188 33.6436 125.313 35.3689C125.025 35.5606 125.121 36.1357 125.505 36.0398Z" fill="#3A3A3A"/>
<path d="M136.815 37.861C137.103 38.2444 137.294 38.7236 137.582 39.107C137.774 39.4905 137.869 39.8739 138.061 40.1614C138.157 40.2573 138.349 40.3531 138.54 40.1614C139.307 39.4905 137.869 37.9568 137.486 37.3817C137.198 37.0942 136.527 37.4776 136.815 37.861Z" fill="#3A3A3A"/>
<path d="M130.01 37.6693C130.01 38.0527 130.01 38.532 129.914 38.9154C129.818 39.2988 129.626 39.6822 129.626 40.0656C129.626 40.3531 129.914 40.449 130.105 40.3531C130.776 39.6822 130.872 38.4361 130.681 37.5734C130.585 37.0942 129.914 37.19 130.01 37.6693Z" fill="#3A3A3A"/>
<path d="M123.779 37.3817C123.204 37.9568 122.533 38.5319 121.958 39.0112C121.287 39.4904 120.52 39.9697 119.945 40.5448C119.754 40.7365 119.945 41.1199 120.233 41.024C121.096 40.6406 121.766 39.9697 122.533 39.4904C123.204 38.9153 123.779 38.4361 124.354 37.7651C124.642 37.3817 124.067 37.0942 123.779 37.3817Z" fill="#3A3A3A"/>
<path d="M121.287 31.9182C121.671 31.9182 121.958 31.9182 122.342 31.9182C122.629 32.0141 122.917 32.1099 123.204 32.2058C123.492 32.2058 123.588 31.9182 123.492 31.7265C122.917 31.0556 121.958 31.0556 121.191 31.2473C120.712 31.3431 120.808 31.9182 121.287 31.9182Z" fill="#3A3A3A"/>
<path d="M120.041 19.8411C120.808 20.6079 121.479 21.2788 122.15 21.9498C122.821 22.5249 123.396 23.2917 124.163 23.7709C124.546 23.8668 124.834 23.5792 124.642 23.2917C124.163 22.5249 123.3 21.9498 122.725 21.2788C122.054 20.6079 121.383 20.0328 120.712 19.3618C120.329 19.1701 119.754 19.5535 120.041 19.8411Z" fill="#3A3A3A"/>
<path d="M128.476 22.1415C128.38 22.8124 128.38 23.7709 128.668 24.4419C128.764 24.7294 129.147 24.6336 129.243 24.346C129.339 23.6751 129.051 22.9083 129.147 22.2373C129.243 21.7581 128.572 21.6622 128.476 22.1415Z" fill="#3A3A3A"/>
<path d="M143.62 19.266C142.662 20.7996 141.32 21.9498 140.362 23.4834C140.17 23.7709 140.553 24.0585 140.745 23.8668C142.183 22.8124 143.429 21.183 144.196 19.6494C144.387 19.266 143.812 18.9784 143.62 19.266Z" fill="#3A3A3A"/>
<path d="M137.965 31.1514C138.54 31.3431 139.211 31.5348 139.786 31.7265C140.266 31.9182 140.841 32.1099 141.416 32.0141C141.703 31.9182 141.799 31.6307 141.512 31.439C141.032 31.1514 140.361 31.0556 139.882 30.8639C139.307 30.6722 138.732 30.5763 138.157 30.4805C137.678 30.3846 137.582 31.0556 137.965 31.1514Z" fill="#3A3A3A"/>
</g>
</g>
<path d="M165.1 364.596C165.1 366.589 166.596 368.229 168.413 368.229C170.229 368.229 171.725 366.589 171.725 364.596C171.725 362.604 170.229 360.964 168.413 360.964C166.596 360.964 165.1 362.487 165.1 364.596Z" fill="#FFDA2F"/>
<path d="M138.066 367.057C138.066 369.049 139.562 370.69 141.378 370.69C143.195 370.69 144.691 369.049 144.691 367.057C144.691 365.065 143.195 363.425 141.378 363.425C139.562 363.425 138.066 365.065 138.066 367.057Z" fill="#FFDA2F"/>
<path d="M141.165 393.19C141.165 395.182 142.661 396.822 144.478 396.822C146.294 396.822 147.79 395.182 147.79 393.19C147.79 391.198 146.294 389.557 144.478 389.557C142.661 389.674 141.165 391.198 141.165 393.19Z" fill="#FFDA2F"/>
<path d="M230.497 363.073C230.497 365.065 231.993 366.705 233.81 366.705C235.627 366.705 237.123 365.065 237.123 363.073C237.123 361.08 235.627 359.44 233.81 359.44C231.993 359.44 230.497 361.08 230.497 363.073Z" fill="#FFDA2F"/>
<path d="M194.914 384.282C194.914 386.274 196.41 387.915 198.226 387.915C200.043 387.915 201.539 386.274 201.539 384.282C201.539 382.29 200.043 380.65 198.226 380.65C196.41 380.65 194.914 382.29 194.914 384.282Z" fill="#FFDA2F"/>
<path d="M144.157 391.783C142.981 383.58 142.447 375.26 140.951 367.057C140.844 366.588 141.592 366.471 141.699 366.823C144.05 374.674 144.05 383.463 144.798 391.666C144.798 392.134 144.264 392.134 144.157 391.783Z" fill="#FFDA2F"/>
<path d="M168.414 363.423C159.224 363.658 150.034 367.173 140.844 366.47C140.417 366.47 140.417 365.65 140.844 365.65C150.141 365.416 159.224 362.134 168.414 362.72C168.841 362.72 168.841 363.423 168.414 363.423Z" fill="#FFDA2F"/>
<path d="M197.159 385.221C187.114 379.01 178.138 371.041 168.628 363.893C168.2 363.542 168.734 362.956 169.055 363.19C178.565 370.104 187.541 377.955 197.372 384.4C197.8 384.752 197.479 385.455 197.159 385.221Z" fill="#FFDA2F"/>
<path d="M234.452 361.783C222.911 370.22 211.477 379.595 198.761 385.688C198.334 385.923 198.013 385.102 198.441 384.868C211.263 378.54 221.949 368.697 234.131 361.314C234.452 361.08 234.772 361.548 234.452 361.783Z" fill="#FFDA2F"/>
<g clip-path="url(#clip3_2716_1648)">
<path d="M476.122 246.9C466.057 231.252 463.847 213.421 474.526 197.288C483.241 184.309 499.444 177.638 514.787 179.7C531.358 182.004 544.492 194.256 548.665 210.146C552.716 225.794 546.824 241.805 534.427 252.116C516.506 267.036 491.097 264.973 476.122 247.021C475.876 246.657 475.385 247.142 475.631 247.506C487.169 263.275 509.755 267.763 526.939 258.423C541.546 250.417 551.979 235.134 550.998 218.152C550.138 201.291 538.723 185.765 522.397 180.428C507.054 175.333 488.765 179.7 477.718 191.587C463.233 207.235 462.742 230.524 475.631 247.142C475.876 247.506 476.367 247.142 476.122 246.9Z" fill="black"/>
<path d="M529.394 184.915C529.64 187.22 527.307 187.341 525.834 188.676C524.239 190.01 524.73 191.708 523.625 193.406C523.502 193.649 523.748 194.013 523.993 193.77C524.73 193.285 525.098 192.679 525.221 191.829C525.589 190.131 526.325 189.161 527.921 188.433C529.517 187.584 530.499 186.735 530.131 184.915C530.131 184.309 529.394 184.43 529.394 184.915Z" fill="black"/>
<path d="M523.748 193.164C521.784 194.377 521.538 196.682 522.029 198.865C522.152 198.744 522.398 198.501 522.52 198.38C522.275 198.38 521.907 198.501 521.661 198.38C521.416 198.258 520.802 197.409 520.434 197.167C519.329 196.56 518.101 196.803 517.242 197.652C516.997 197.895 517.242 198.258 517.488 198.137C518.224 197.773 518.961 197.409 519.82 197.652C520.311 197.773 520.679 198.137 521.047 198.622C521.17 198.744 521.17 198.986 521.293 199.108C521.538 199.35 522.029 199.229 522.398 199.229C522.643 199.229 523.011 198.986 522.889 198.744C522.398 196.924 522.52 195.105 523.993 193.77C524.362 193.406 524.116 192.921 523.748 193.164Z" fill="black"/>
<path d="M516.997 197.895C516.015 198.501 515.769 199.593 515.401 200.684C515.278 201.17 515.033 201.655 514.665 201.897C513.928 202.261 513.192 201.776 512.455 201.776C512.087 201.776 511.964 202.14 512.21 202.261C513.192 203.11 515.033 203.11 515.769 201.897C516.506 200.806 516.506 199.35 517.365 198.258C517.611 198.137 517.242 197.773 516.997 197.895Z" fill="black"/>
<path d="M511.719 202.019C510.982 202.261 510.491 202.747 510.123 203.353C509.877 203.596 509.755 203.838 509.509 204.081C509.141 204.323 508.65 204.323 508.404 204.566C508.282 204.687 508.159 204.93 508.404 204.93C509.141 205.294 509.877 204.93 510.368 204.445C510.982 203.838 511.35 203.11 512.087 202.504C512.332 202.261 511.964 201.897 511.719 202.019Z" fill="black"/>
<path d="M511.473 202.625C511.719 202.625 511.964 202.625 512.21 202.504C512.455 202.383 512.332 202.14 512.21 202.019C511.964 201.897 511.841 201.897 511.596 201.897C511.228 202.019 511.105 202.625 511.473 202.625Z" fill="black"/>
<path d="M508.65 204.566C506.932 205.052 505.459 204.93 503.74 205.173C502.144 205.294 502.881 205.658 501.899 206.022C499.935 206.871 500.303 206.143 498.83 205.537C498.094 205.173 496.989 204.93 496.252 205.415C495.639 205.779 495.884 205.779 495.516 206.507C495.393 206.871 495.884 207.114 495.761 207.356C495.516 208.205 494.657 208.448 493.92 208.933C492.324 210.025 491.22 211.238 491.956 213.3C492.079 213.664 492.57 213.421 492.447 213.179C491.956 210.025 495.516 209.904 496.866 207.963C497.112 207.72 496.621 207.235 496.743 207.114C497.971 205.294 499.076 207.114 500.303 207.599C501.531 207.963 501.531 207.478 502.513 206.992C504.599 205.901 506.932 206.386 509.019 205.052C509.141 204.809 509.019 204.445 508.65 204.566Z" fill="black"/>
<path d="M491.956 212.936C492.938 215.605 495.025 212.936 496.621 214.392C496.498 214.392 496.866 215.726 497.112 215.969C498.217 217.303 499.567 217.06 500.672 218.88C501.776 220.699 501.531 223.489 503.495 224.945C506.318 226.886 508.405 223.125 510.614 224.581C510.983 224.823 511.351 224.338 511.105 224.096C507.914 220.335 505.459 228.341 502.513 221.306C502.022 220.093 501.776 218.637 500.917 217.545C500.058 216.454 497.357 215.605 497.357 214.028C497.357 213.906 497.235 213.785 497.112 213.664C495.884 213.421 493.184 213.906 492.447 212.693C492.202 212.33 491.834 212.572 491.956 212.936Z" fill="black"/>
<path d="M510.368 224.338C512.455 224.581 514.051 223.489 515.033 221.67C515.524 220.699 515.769 219.729 516.26 218.88C516.874 217.909 517.488 217.788 518.593 217.545C518.838 217.545 518.961 217.181 518.715 217.06C517.12 216.211 515.892 217.667 515.278 219.001C514.174 221.427 513.56 223.61 510.491 223.61C510 223.61 509.877 224.217 510.368 224.338Z" fill="black"/>
<path d="M517.979 217.546C519.697 217.667 521.784 217.424 523.012 216.09C523.625 215.362 523.748 214.27 524.853 214.877C525.835 215.362 526.08 217.06 526.326 218.031C526.571 219.244 526.817 220.821 527.799 221.67C528.29 222.034 528.781 222.155 529.395 222.155C530.99 222.155 530.99 221.67 531.972 223.125C532.218 223.368 532.586 223.125 532.463 222.761C532.341 222.155 532.095 221.548 531.727 221.063C531.604 220.821 531.359 220.821 531.113 220.821C525.467 223.004 528.413 214.149 523.503 213.543C523.38 213.543 523.134 213.664 523.012 213.785C522.152 216.818 519.943 216.211 517.733 217.06C517.61 217.06 517.733 217.546 517.979 217.546Z" fill="black"/>
<path d="M531.972 223.125C533.445 223.731 535.163 223.246 536.268 222.154C537.496 220.82 536.882 219.243 535.777 218.03C535.777 218.273 535.777 218.515 535.777 218.758C537.005 217.666 537.496 216.332 537.25 214.755C537.127 214.27 536.514 214.391 536.514 214.755C536.268 216.089 536.268 217.06 535.163 218.03C534.918 218.152 534.918 218.515 535.163 218.758C536.268 219.971 536.636 221.305 535.04 222.154C534.181 222.64 533.199 222.761 532.217 222.518C531.726 222.397 531.603 223.004 531.972 223.125Z" fill="black"/>
<path d="M537.127 215.362C537.127 213.543 536.759 211.966 535.9 210.389C535.777 210.631 535.654 210.753 535.531 210.995C539.95 210.51 537.127 206.992 537.741 204.203C537.864 203.96 537.25 203.839 537.25 204.081C537.004 204.93 537.004 205.779 537.127 206.75C537.25 208.448 537.864 209.904 535.408 210.146C535.163 210.146 534.917 210.51 535.04 210.753C535.9 212.208 536.391 213.664 536.636 215.362C536.636 215.726 537.127 215.726 537.127 215.362Z" fill="black"/>
<path d="M537.373 204.688C537.618 204.324 537.986 203.475 538.6 203.596C539.091 203.717 539.459 204.566 539.582 204.93C540.073 205.658 540.564 207.356 541.546 207.599C541.792 207.599 541.914 207.478 541.914 207.356C541.792 206.75 541.178 206.022 540.932 205.415C540.564 204.688 540.196 203.96 539.582 203.353C539.214 202.989 538.723 202.626 538.232 202.747C537.495 202.989 537.25 203.839 537.004 204.445C536.759 204.688 537.127 204.93 537.373 204.688Z" fill="black"/>
<path d="M541.546 207.599C542.651 208.205 543.878 208.691 545.106 209.176C546.088 209.54 546.947 209.661 547.438 210.631C548.052 211.966 548.666 213.421 549.648 214.513C549.77 214.634 550.139 214.634 550.139 214.392C550.139 212.694 548.42 211.238 548.052 209.54C548.052 209.418 547.929 209.297 547.806 209.176C545.72 208.569 543.878 207.72 541.914 207.114C541.301 206.871 541.178 207.356 541.546 207.599Z" fill="black"/>
<path d="M518.347 225.187C517.856 224.217 517.12 223.489 515.892 223.611C514.787 223.611 513.805 224.46 513.437 225.551C513.314 225.794 513.682 226.158 513.928 225.915C514.419 225.43 514.91 224.702 515.769 224.581C516.629 224.46 517.242 225.066 517.733 225.673C517.979 225.915 518.47 225.551 518.347 225.187Z" fill="black"/>
<path d="M513.314 225.308C511.841 226.521 510.614 225.43 509.018 225.308C507.791 225.187 506.686 225.915 506.44 227.128C506.44 227.371 506.686 227.492 506.931 227.371C507.545 226.764 507.913 226.036 508.895 226.158C509.632 226.158 510.246 226.521 510.859 226.643C511.964 226.885 513.069 226.764 513.683 225.794C514.051 225.43 513.56 225.066 513.314 225.308Z" fill="black"/>
<path d="M506.809 226.764C504.6 228.341 503.004 227.613 501.04 226.036C500.794 225.794 500.426 226.036 500.303 226.279C499.076 228.947 495.761 225.43 494.288 227.856C492.447 231.01 495.516 232.344 497.848 233.314C498.216 233.436 498.339 232.95 498.094 232.829C496.866 231.859 494.534 231.495 494.657 229.554C494.779 227.249 496.498 227.977 497.971 228.22C499.567 228.462 500.549 228.098 501.163 226.643C500.917 226.764 500.672 226.764 500.426 226.885C502.636 228.705 504.845 229.554 507.055 227.371C507.546 227.007 507.177 226.522 506.809 226.764Z" fill="black"/>
<path d="M497.234 232.708C498.216 234.649 497.234 236.711 498.094 238.53C498.953 240.714 501.654 239.501 501.408 242.291C501.408 242.412 501.531 242.655 501.654 242.655C503.127 243.019 504.477 243.019 505.95 243.261C507.3 243.504 507.055 243.868 507.914 244.595C508.896 245.445 510.492 245.687 511.719 245.323C512.087 245.202 512.087 244.595 511.719 244.595C510.123 244.595 508.405 244.717 507.914 242.655C507.914 242.533 507.791 242.291 507.546 242.291C505.95 242.291 503.372 242.655 502.39 241.32C502.145 241.078 501.899 239.743 501.776 239.501C501.776 239.38 501.531 239.258 501.408 239.258C497.357 238.652 500.058 234.528 497.971 232.223C497.48 232.102 497.112 232.344 497.234 232.708Z" fill="black"/>
<path d="M511.227 245.565C512.946 245.565 512.087 247.506 512.209 248.477C512.455 249.811 513.437 251.388 514.419 252.358C514.664 252.601 514.91 252.358 514.787 252.116C514.419 251.266 513.805 250.296 513.437 249.447C513.314 249.083 513.069 248.598 512.946 248.234C512.946 247.87 512.946 247.506 512.946 247.142C512.946 245.929 512.455 244.595 510.982 245.202C510.982 245.202 510.982 245.565 511.227 245.565Z" fill="black"/>
<path d="M514.419 252.48C514.296 252.844 514.173 253.208 514.051 253.572C513.928 253.693 514.051 253.935 514.173 254.057C516.137 255.755 518.224 257.332 520.434 255.391C522.889 253.329 525.098 247.021 525.466 243.989C525.712 241.927 524.853 239.258 524.853 237.196C524.853 235.377 525.098 235.498 524.607 233.678C523.993 231.374 524.484 229.19 522.029 228.22C521.661 228.099 521.538 228.584 521.784 228.705C522.275 228.948 523.871 234.042 523.993 234.77C524.362 237.075 523.257 239.379 523.502 241.563C523.871 244.959 524.239 244.717 523.257 247.385C522.889 248.356 522.52 249.447 522.029 250.418C521.047 252.601 518.592 257.574 515.646 254.178C514.91 253.329 515.033 253.329 514.91 252.48C514.91 252.237 514.419 252.237 514.419 252.48Z" fill="black"/>
<path d="M522.152 228.948C521.416 228.22 520.679 227.492 519.943 226.764C519.329 226.158 518.715 225.309 517.856 224.823C517.488 224.702 517.242 225.066 517.365 225.43C517.856 226.279 518.838 227.128 519.574 227.856C520.311 228.462 520.925 229.069 521.907 229.433C522.152 229.554 522.275 229.19 522.152 228.948Z" fill="black"/>
<path d="M527.798 235.498C527.307 237.317 526.202 242.291 528.903 242.897C529.026 242.897 529.149 242.897 529.149 242.776C530.744 240.714 533.199 237.803 531.358 235.134C530.744 234.285 529.64 233.193 528.412 233.557C527.184 234.042 527.307 235.498 527.43 236.468C527.43 236.711 527.921 236.711 527.921 236.468C527.921 235.255 528.535 233.678 530.008 234.77C530.99 235.498 531.358 236.59 531.113 237.681C530.867 238.894 529.885 240.956 528.903 241.684C528.658 241.927 528.658 242.169 528.167 241.805C527.921 241.563 527.798 241.078 527.798 240.714C527.676 240.107 527.798 239.501 527.798 238.894C527.921 237.803 528.167 236.59 528.289 235.498C528.412 235.255 527.921 235.134 527.798 235.498Z" fill="black"/>
<path d="M470.476 236.59C471.335 235.983 471.826 234.406 472.071 233.436C472.317 232.465 472.317 231.495 471.703 230.646C471.458 230.282 470.967 230.646 471.089 231.01C471.58 232.101 471.335 233.072 470.967 234.164C470.721 234.891 470.107 235.619 470.107 236.468C469.985 236.59 470.23 236.711 470.476 236.59Z" fill="black"/>
<path d="M471.703 230.888C471.457 229.675 471.457 228.462 471.212 227.249C471.089 227.371 471.089 227.492 470.966 227.734C471.948 227.249 472.685 226.279 473.544 225.672C473.79 225.551 473.544 225.187 473.299 225.187C472.194 225.308 471.703 226.521 470.598 227.007C470.475 227.007 470.353 227.128 470.475 227.371C470.844 228.584 470.844 229.797 471.089 231.01C471.212 231.252 471.826 231.252 471.703 230.888Z" fill="black"/>
<path d="M473.299 225.551C475.754 223.732 473.299 220.82 473.912 218.516C474.035 218.273 473.667 218.03 473.421 218.273C472.685 219.122 472.808 220.093 473.053 221.063C473.544 222.64 474.035 223.732 472.808 225.187C472.685 225.43 473.053 225.672 473.299 225.551Z" fill="black"/>
<path d="M473.544 218.637C474.281 217.909 475.14 216.939 474.895 215.847C474.772 215.362 474.526 214.998 474.281 214.634C473.913 214.028 473.667 213.421 473.299 212.693C473.176 212.329 472.562 212.451 472.562 212.936C472.685 213.906 473.299 214.634 473.79 215.362C474.404 216.454 473.667 217.303 472.931 218.273C472.931 218.516 473.299 218.88 473.544 218.637Z" fill="black"/>
<path d="M473.299 212.33C474.649 208.569 482.75 212.208 485.451 208.812C485.697 208.448 485.206 208.084 484.96 208.327C482.505 210.146 479.559 209.54 476.736 209.782C475.754 209.904 474.526 209.904 473.667 210.51C472.808 211.117 472.93 211.238 472.808 212.208C472.808 212.572 473.176 212.693 473.299 212.33Z" fill="black"/>
<path d="M485.328 208.569C486.31 207.72 486.433 205.779 486.064 204.566C485.696 203.353 484.469 201.776 482.996 202.261C482.873 202.261 482.75 202.625 482.873 202.747C483.241 203.11 483.855 203.232 484.223 203.596C484.714 203.96 484.96 204.566 485.082 205.173C485.328 206.264 484.96 207.235 484.714 208.326C484.837 208.569 485.082 208.812 485.328 208.569Z" fill="black"/>
<path d="M483.609 202.019C483.118 201.655 482.505 201.291 482.382 200.563C482.259 199.957 482.505 199.229 482.627 198.622C482.627 198.38 482.382 198.258 482.136 198.38C481.523 199.107 481.277 200.078 481.523 200.927C481.768 201.897 482.505 202.261 483.487 202.383C483.732 202.625 483.855 202.261 483.609 202.019Z" fill="black"/>
<path d="M482.382 199.229C482.505 198.138 482.137 196.925 481.155 196.318C480.295 195.712 478.577 195.469 477.718 196.318C477.472 196.439 477.595 196.803 477.84 196.803C478.822 196.925 479.682 196.561 480.541 197.046C481.4 197.531 481.646 198.501 481.768 199.351C481.768 199.593 482.259 199.593 482.382 199.229Z" fill="black"/>
<path d="M478.209 195.833C477.718 195.59 477.349 195.348 477.104 194.862C476.981 194.499 477.104 194.013 476.858 193.528C476.981 193.407 476.613 193.286 476.49 193.407C475.508 194.499 476.858 196.318 478.086 196.561C478.577 196.682 478.7 195.954 478.209 195.833Z" fill="black"/>
<path d="M485.696 188.919C485.451 190.738 486.31 195.59 488.765 195.711C488.888 195.711 489.01 195.711 489.133 195.59C490.361 193.285 492.938 194.013 495.025 193.164C497.235 192.315 497.357 190.01 496.621 188.069C496.498 187.827 496.13 187.948 496.253 188.191C496.375 190.01 496.989 192.315 494.411 192.679C493.184 192.8 491.956 192.679 490.729 193.043C490.361 193.164 489.87 193.285 489.501 193.649C489.256 193.892 488.765 194.862 488.519 194.862C487.292 195.347 486.187 189.889 486.31 188.919C486.31 188.555 485.696 188.555 485.696 188.919Z" fill="black"/>
<path d="M486.433 188.797C487.783 186.978 489.256 189.04 490.852 188.797C491.588 188.676 491.834 188.312 492.325 187.827C493.061 187.22 493.798 186.492 494.534 186.007C495.025 185.643 495.516 185.158 495.884 185.522C496.498 186.007 496.007 187.705 496.007 188.312C496.007 188.555 496.375 188.676 496.498 188.433C496.866 187.584 497.357 185.158 496.253 184.552C495.393 184.066 494.289 185.037 493.675 185.643C492.202 186.856 491.711 188.433 489.624 187.705C488.151 187.099 486.555 186.614 486.064 188.555C485.942 188.918 486.31 189.04 486.433 188.797Z" fill="black"/>
<path d="M471.949 241.078C472.808 241.927 473.79 242.533 475.017 242.654C475.754 242.776 476.368 242.654 477.104 242.654C478.454 242.654 478.209 243.018 479.068 243.989C480.418 245.687 482.751 244.717 484.592 245.566C484.96 245.687 485.083 245.202 484.837 245.08C484.101 244.474 483.364 244.353 482.382 244.353C481.891 244.353 481.4 244.474 481.032 244.474C479.682 244.231 479.191 243.14 478.823 241.927C478.823 241.805 478.577 241.684 478.454 241.684C476.122 242.048 474.526 242.169 472.562 240.592C472.071 240.35 471.703 240.835 471.949 241.078Z" fill="black"/>
<path d="M484.1 245.566C486.064 246.657 485.696 248.719 486.678 250.539C486.924 251.024 487.66 250.66 487.415 250.175C487.169 250.296 487.046 250.539 486.801 250.781C487.415 251.024 488.274 251.509 488.888 251.873C489.501 252.358 489.624 252.844 489.87 253.571C490.361 254.906 491.465 255.391 492.939 255.148C493.307 255.148 493.307 254.542 492.939 254.542C491.465 254.42 490.974 254.057 490.483 252.844C490.361 252.358 490.238 251.994 489.87 251.631C489.256 251.024 488.028 250.296 487.169 250.054C486.801 249.932 486.433 250.296 486.678 250.66C486.924 250.539 487.169 250.418 487.415 250.296C486.555 248.598 486.678 245.566 484.223 245.202C484.1 244.959 483.855 245.444 484.1 245.566Z" fill="black"/>
<path d="M492.815 254.663C494.166 255.876 495.27 257.21 496.375 258.666C497.234 259.757 498.094 261.334 499.444 261.941C499.689 262.062 499.935 261.82 499.812 261.577C499.198 260.243 497.725 258.908 496.743 257.695C495.761 256.482 494.534 255.148 493.184 254.178C492.938 254.056 492.57 254.42 492.815 254.663Z" fill="black"/>
<path d="M540.196 220.82C542.528 220.335 545.351 218.758 546.824 216.817C546.947 216.575 546.702 216.453 546.456 216.575C544.369 218.03 542.528 219.607 540.073 220.456C539.828 220.456 539.95 220.82 540.196 220.82Z" fill="black"/>
<path d="M543.142 217.303C543.755 217.06 544.615 216.575 545.106 216.09C545.228 215.968 545.106 215.604 544.86 215.726C544.124 215.847 543.51 216.453 542.773 216.817C542.528 216.939 542.773 217.424 543.142 217.303Z" fill="black"/>
<path d="M533.69 241.442C534.427 241.442 535.286 241.199 535.9 240.835C536.023 240.714 535.9 240.35 535.654 240.471C535.041 240.592 534.304 240.835 533.69 240.956C533.322 240.956 533.322 241.442 533.69 241.442Z" fill="black"/>
<path d="M537.25 240.228C539.582 239.379 542.037 238.045 543.756 236.347C544.001 236.104 543.756 235.861 543.51 235.983C541.423 237.438 539.459 238.894 537.127 239.864C536.759 239.986 536.882 240.349 537.25 240.228Z" fill="black"/>
<path d="M534.058 244.11C536.391 243.382 538.723 242.533 540.564 240.956C540.81 240.835 540.564 240.471 540.319 240.592C538.232 241.805 536.022 242.654 533.813 243.625C533.69 243.867 533.813 244.231 534.058 244.11Z" fill="black"/>
<path d="M531.604 247.506C531.849 247.264 532.217 247.385 532.586 247.264C532.831 247.264 532.831 246.9 532.586 246.779C532.095 246.657 531.604 246.779 531.235 247.021C531.113 247.264 531.358 247.628 531.604 247.506Z" fill="black"/>
<path d="M535.286 246.293C536.513 245.687 537.864 245.323 538.968 244.595C539.214 244.474 538.968 244.11 538.723 244.231C537.495 244.716 536.268 245.323 535.04 245.929C534.795 246.051 534.918 246.536 535.286 246.293Z" fill="black"/>
<path d="M531.604 250.175C532.463 249.933 533.322 249.569 534.181 248.962C534.304 248.841 534.181 248.477 533.936 248.598C533.077 249.084 532.34 249.447 531.358 249.69C531.113 249.933 531.358 250.297 531.604 250.175Z" fill="black"/>
<path d="M518.347 192.8C521.784 191.223 524.607 187.827 526.571 184.673C526.694 184.431 526.448 184.188 526.203 184.431C523.625 187.342 521.661 190.374 518.101 192.436C517.979 192.558 518.101 192.922 518.347 192.8Z" fill="black"/>
<path d="M520.802 193.043C521.538 193.164 522.152 192.436 522.398 191.83C522.52 191.587 522.152 191.466 522.029 191.587C521.661 192.072 521.293 192.436 520.679 192.679C520.556 192.8 520.679 193.043 520.802 193.043Z" fill="black"/>
<path d="M516.383 191.951C516.997 191.708 517.61 191.345 517.856 190.617C517.979 190.374 517.61 190.253 517.488 190.374C517.119 190.859 516.628 191.102 516.137 191.345C515.892 191.708 516.137 192.194 516.383 191.951Z" fill="black"/>
<path d="M519.82 189.404C521.17 188.069 522.52 186.856 523.502 185.158C523.625 184.916 523.38 184.794 523.257 184.916C522.275 186.371 520.925 187.706 519.574 189.04C519.329 189.282 519.574 189.646 519.82 189.404Z" fill="black"/>
<path d="M514.419 189.768C516.874 188.676 519.206 186.614 520.679 184.431C520.802 184.188 520.557 183.945 520.311 184.188C518.224 186.008 516.751 188.191 514.173 189.404C513.928 189.404 514.173 189.889 514.419 189.768Z" fill="black"/>
<path d="M513.437 187.827C513.928 187.463 514.296 187.099 514.787 186.735C515.033 186.614 514.787 186.25 514.542 186.371C513.928 186.614 513.437 187.099 512.946 187.584C512.823 187.705 513.192 187.948 513.437 187.827Z" fill="black"/>
<path d="M516.26 185.28C517.12 184.673 517.733 183.824 518.224 182.975C518.347 182.732 518.102 182.49 517.856 182.732C517.242 183.46 516.751 184.309 515.892 184.916C515.647 185.037 515.892 185.401 516.26 185.28Z" fill="black"/>
<path d="M512.823 185.522C513.56 184.794 514.542 184.309 515.278 183.581C515.524 183.339 515.278 183.096 515.033 183.217C514.051 183.581 513.191 184.43 512.455 185.158C512.209 185.401 512.578 185.765 512.823 185.522Z" fill="black"/>
<path d="M474.403 238.53C478.086 239.015 482.014 239.137 485.697 238.288C485.942 238.288 485.819 237.924 485.574 237.924C481.769 238.53 478.209 238.652 474.403 238.166C474.281 238.166 474.158 238.53 474.403 238.53Z" fill="black"/>
<path d="M474.772 236.347C475.14 236.347 475.508 236.347 475.999 236.347C476.245 236.347 476.245 235.983 475.999 235.983C475.631 235.983 475.263 235.983 474.894 235.983C474.526 235.983 474.403 236.347 474.772 236.347Z" fill="black"/>
<path d="M479.559 236.589C482.014 236.832 484.469 236.468 486.924 235.983C487.169 235.983 487.047 235.619 486.801 235.619C484.346 235.74 482.014 236.347 479.559 236.104C479.313 236.225 479.191 236.589 479.559 236.589Z" fill="black"/>
<path d="M474.158 234.163C477.963 234.284 481.769 234.648 485.451 233.557C485.697 233.435 485.574 233.193 485.328 233.193C481.646 234.163 477.841 233.678 474.158 233.678C473.913 233.678 473.913 234.163 474.158 234.163Z" fill="black"/>
<path d="M475.017 231.98C475.263 231.98 475.631 231.98 475.876 231.98C476.122 231.98 476.122 231.616 475.876 231.616C475.631 231.616 475.263 231.616 475.017 231.616C474.772 231.495 474.649 231.98 475.017 231.98Z" fill="black"/>
<path d="M478.699 232.223C480.05 231.98 481.523 231.98 482.873 231.616C483.119 231.616 483.119 231.131 482.75 231.252C481.4 231.495 479.927 231.495 478.577 231.859C478.454 231.859 478.454 232.223 478.699 232.223Z" fill="black"/>
<path d="M475.017 229.433C476.858 229.433 478.822 229.433 480.664 229.433C480.909 229.433 480.909 229.069 480.664 229.069C478.822 228.947 476.981 229.069 475.017 229.069C474.772 229.069 474.772 229.433 475.017 229.433Z" fill="black"/>
<path d="M476.981 227.249C477.227 227.249 477.595 227.249 477.84 227.249C478.086 227.249 478.086 226.885 477.84 226.885C477.595 226.885 477.227 226.885 476.981 226.885C476.735 226.764 476.735 227.249 476.981 227.249Z" fill="black"/>
<path d="M480.909 240.835C483.732 241.563 487.292 241.32 490.115 240.228C490.361 240.107 490.238 239.743 489.992 239.865C487.046 240.592 484.1 240.835 481.032 240.35C480.663 240.35 480.663 240.714 480.909 240.835Z" fill="black"/>
<path d="M482.873 243.018C483.364 243.018 483.855 243.018 484.346 243.018C484.592 243.018 484.592 242.654 484.346 242.654C483.855 242.654 483.364 242.654 482.996 242.654C482.627 242.533 482.505 243.018 482.873 243.018Z" fill="black"/>
<path d="M485.942 243.018C487.537 243.261 489.133 243.14 490.729 242.776C490.975 242.776 490.852 242.412 490.606 242.412C489.01 242.533 487.537 242.897 485.942 242.655C485.696 242.533 485.696 243.018 485.942 243.018Z" fill="black"/>
<path d="M487.66 244.959C488.642 244.959 489.747 244.959 490.729 244.959C490.974 244.959 491.097 244.595 490.729 244.595C489.747 244.595 488.642 244.595 487.66 244.595C487.414 244.595 487.414 244.959 487.66 244.959Z" fill="black"/>
<path d="M496.743 253.814C498.585 253.571 500.671 253.329 502.39 252.601C502.635 252.48 502.513 252.237 502.267 252.237C500.426 252.601 498.462 252.843 496.621 253.329C496.375 253.45 496.375 253.935 496.743 253.814Z" fill="black"/>
<path d="M498.462 255.512C498.953 255.269 499.321 255.269 499.812 255.269C500.058 255.269 500.058 254.905 499.812 254.784C499.321 254.663 498.707 254.784 498.216 255.027C497.971 255.269 498.216 255.633 498.462 255.512Z" fill="black"/>
<path d="M501.776 254.906C503.004 254.663 504.231 254.421 505.459 254.299C505.704 254.299 505.704 253.936 505.459 253.936C504.231 253.814 503.004 254.178 501.776 254.542C501.408 254.663 501.531 255.027 501.776 254.906Z" fill="black"/>
<path d="M500.058 257.453C503.249 256.846 506.809 256.968 509.632 255.512C509.878 255.391 509.755 255.027 509.387 255.148C506.195 256.119 503.004 256.119 499.812 257.089C499.689 257.089 499.812 257.453 500.058 257.453Z" fill="black"/>
<path d="M500.794 259.151C503.495 259.394 506.441 259.03 508.773 257.695C509.018 257.574 508.896 257.21 508.65 257.331C506.072 258.302 503.617 258.787 500.917 258.666C500.549 258.666 500.549 259.151 500.794 259.151Z" fill="black"/>
<path d="M503.372 260.243C503.986 260.243 504.599 260.243 505.09 260.243C505.336 260.243 505.336 259.879 505.09 259.757C504.477 259.636 503.986 259.757 503.372 259.757C503.126 259.757 503.004 260.243 503.372 260.243Z" fill="black"/>
<path d="M508.159 260.243C509.632 260 511.228 259.758 512.701 259.151C512.946 259.03 512.824 258.666 512.578 258.787C511.105 259.272 509.632 259.636 508.036 259.879C507.913 259.879 507.913 260.243 508.159 260.243Z" fill="black"/>
<path d="M536.882 255.27C542.037 251.995 547.193 245.93 548.666 239.986C548.789 239.743 548.298 239.501 548.175 239.865C545.229 245.808 541.792 250.66 536.636 254.906C536.391 255.027 536.636 255.391 536.882 255.27Z" fill="black"/>
<path d="M550.016 237.317C550.875 234.649 552.102 231.616 551.857 228.705C551.857 228.462 551.366 228.462 551.366 228.705C550.998 231.616 550.261 234.285 549.525 237.196C549.525 237.438 550.016 237.681 550.016 237.317Z" fill="black"/>
<path d="M463.97 226.522C464.093 218.637 463.724 211.844 466.916 204.324C467.039 204.081 466.67 203.839 466.548 204.081C462.62 210.51 462.62 219.122 463.479 226.522C463.479 226.886 463.97 226.886 463.97 226.522Z" fill="black"/>
<path d="M469.616 199.957C470.721 196.318 473.913 194.256 475.631 191.102C475.754 190.86 475.386 190.738 475.263 190.86C473.053 193.528 469.984 196.439 469.248 199.836C469.002 200.2 469.493 200.321 469.616 199.957Z" fill="black"/>
<path d="M469.862 243.261C470.721 244.959 471.703 246.658 472.931 248.113C473.053 248.356 473.422 248.113 473.299 247.871C472.194 246.294 471.212 244.717 470.353 243.14C470.107 242.897 469.739 243.019 469.862 243.261Z" fill="black"/>
<path d="M465.811 241.441C468.88 248.355 472.808 254.542 478.945 259.394C479.191 259.636 479.559 259.151 479.314 258.908C473.299 254.178 469.616 247.991 466.179 241.32C466.057 240.956 465.688 241.199 465.811 241.441Z" fill="black"/>
<path d="M475.876 251.873C477.718 254.42 480.418 257.089 483.487 258.181C483.732 258.302 483.978 257.938 483.732 257.817C480.909 255.997 478.331 254.299 476.245 251.509C476.122 251.266 475.754 251.63 475.876 251.873Z" fill="black"/>
<path d="M531.358 181.883C537.25 185.765 541.792 190.132 545.965 195.954C546.088 196.197 546.456 195.954 546.334 195.711C543.51 189.768 537.373 184.794 531.604 181.519C531.358 181.519 531.113 181.762 531.358 181.883Z" fill="black"/>
<path d="M547.315 198.137C548.174 200.806 549.034 203.353 549.893 206.022C550.016 206.264 550.507 206.143 550.384 205.901C549.77 203.232 548.665 200.685 547.683 198.016C547.683 197.652 547.315 197.773 547.315 198.137Z" fill="black"/>
<path d="M537.25 180.791C537.741 181.277 538.232 181.762 538.723 182.126C539.214 182.611 539.705 183.217 540.319 183.703C540.441 183.824 540.81 183.703 540.687 183.46C540.073 182.247 538.6 181.277 537.618 180.428C537.372 180.306 537.127 180.549 537.25 180.791Z" fill="black"/>
<path d="M542.16 185.28C546.579 191.587 550.138 197.531 552.594 204.809C552.716 205.052 553.085 204.93 553.085 204.688C551.489 197.41 547.192 190.738 542.528 185.037C542.282 184.795 542.037 185.037 542.16 185.28Z" fill="black"/>
<path d="M552.348 215.847C552.348 214.392 552.348 212.936 552.348 211.359C552.348 210.995 551.857 210.995 551.857 211.359C551.857 212.815 551.857 214.27 551.857 215.847C551.857 216.09 552.348 216.09 552.348 215.847Z" fill="black"/>
<path d="M489.992 178.972C498.217 176.546 505.95 174.726 514.665 176.061C514.911 176.061 515.034 175.697 514.788 175.576C506.687 172.907 497.603 175.939 489.87 178.487C489.624 178.729 489.747 179.093 489.992 178.972Z" fill="black"/>
<path d="M494.411 174.241C495.516 173.999 496.743 173.999 497.848 173.877C498.094 173.877 498.094 173.513 497.848 173.392C496.621 173.271 495.516 173.271 494.288 173.756C494.043 173.877 494.166 174.363 494.411 174.241Z" fill="black"/>
<path d="M500.426 173.15C504.722 172.058 508.773 172.544 513.069 172.786C513.315 172.786 513.437 172.422 513.192 172.301C509.141 171.209 504.354 171.452 500.303 172.665C500.057 172.665 500.057 173.271 500.426 173.15Z" fill="black"/>
<path d="M519.083 177.153C521.784 178.002 524.484 179.336 527.43 179.7C527.676 179.7 527.799 179.336 527.553 179.336C524.853 178.366 522.029 177.517 519.329 176.789C518.961 176.667 518.715 177.031 519.083 177.153Z" fill="black"/>
<path d="M520.556 175.697C521.538 176.061 522.643 176.182 523.625 176.425C523.871 176.425 523.993 176.061 523.748 175.94C522.766 175.576 521.661 175.576 520.679 175.212C520.434 175.09 520.188 175.576 520.556 175.697Z" fill="black"/>
<path d="M503.372 265.58C510.369 266.793 519.084 266.915 524.853 262.305C525.099 262.063 524.731 261.699 524.485 261.941C518.225 266.066 510.86 266.187 503.372 265.217C503.126 265.217 503.126 265.58 503.372 265.58Z" fill="black"/>
<path d="M514.664 269.34C516.874 269.461 519.206 269.098 521.416 268.612C521.661 268.491 521.661 268.127 521.293 268.248C519.084 268.491 516.874 268.855 514.542 268.976C514.296 268.855 514.296 269.34 514.664 269.34Z" fill="black"/>
<path d="M467.775 254.542C468.634 254.542 468.757 253.207 467.898 253.207C467.039 253.329 466.916 254.542 467.775 254.542Z" fill="black"/>
</g>
<g clip-path="url(#clip4_2716_1648)">
<path d="M275.448 397.769C258.984 386.569 240.004 425.199 262.185 431.828C262.871 432.057 263.557 431.142 262.871 430.457C255.096 424.742 251.895 417.656 256.697 408.284C260.127 401.655 267.216 395.484 274.99 398.684C275.676 399.141 276.134 397.998 275.448 397.769Z" fill="black"/>
<path d="M274.303 403.941C275.447 396.626 278.191 389.997 284.593 385.883C290.767 381.768 297.169 381.997 304.029 383.597C304.715 383.825 305.172 382.683 304.486 382.454C289.623 374.454 272.931 388.397 272.931 403.941C272.931 404.855 274.303 404.855 274.303 403.941Z" fill="black"/>
<path d="M304.944 382.911C302.886 365.082 315.691 352.052 333.069 349.767C353.877 347.024 363.252 361.196 361.194 380.397C360.965 381.539 363.023 382.225 363.252 380.854C374.685 331.48 292.825 341.766 303.343 382.911C303.572 384.054 304.944 383.825 304.944 382.911Z" fill="black"/>
<path d="M299.913 394.797C304.029 386.568 310.889 384.511 319.122 382.682C320.036 382.453 320.036 381.082 319.122 381.082C310.203 380.625 301.743 386.111 298.541 394.34C298.313 395.254 299.685 395.483 299.913 394.797Z" fill="black"/>
<path d="M355.02 383.826C362.337 383.14 369.426 384.511 375.599 388.626C381.316 392.512 384.06 397.769 387.718 403.484C388.176 404.169 389.548 403.941 389.319 403.026C386.575 388.626 368.511 379.254 355.02 382.226C353.877 382.454 354.106 383.826 355.02 383.826Z" fill="black"/>
<path d="M380.401 391.368C401.209 381.768 422.932 398.911 416.987 421.312C416.529 422.684 418.816 423.598 419.273 422.227C425.676 398.454 402.352 377.882 379.944 389.997C378.801 390.454 379.487 391.825 380.401 391.368Z" fill="black"/>
<path d="M363.252 362.339C385.432 352.967 402.81 370.339 403.496 392.283C403.496 393.883 406.011 394.111 406.011 392.511C405.325 369.425 385.889 349.309 362.566 361.196C361.651 361.424 362.337 362.796 363.252 362.339Z" fill="black"/>
<path d="M262.413 431.599C263.099 431.599 263.328 430.457 262.642 430.457C261.727 430.457 261.727 431.599 262.413 431.599Z" fill="black"/>
<path d="M265.157 426.798C256.239 454.914 304.715 458.342 316.377 438.913C316.834 438.227 315.919 437.084 315.233 437.77C307.459 445.999 297.169 449.885 285.736 448.742C273.617 447.37 264.242 440.284 266.758 427.027C266.986 426.112 265.386 425.655 265.157 426.798Z" fill="black"/>
<path d="M307.916 443.028C322.093 469.087 361.651 468.172 373.313 440.285C373.77 439.142 371.941 438 371.255 439.142C357.535 464.515 325.294 466.801 309.06 442.343C308.602 441.657 307.459 442.343 307.916 443.028Z" fill="black"/>
<path d="M366.682 448.514C384.517 458.571 408.297 451.714 417.672 433.656C418.358 432.284 416.529 430.913 415.843 432.284C405.554 450.114 385.66 454.685 367.368 447.142C366.682 446.913 365.996 448.056 366.682 448.514Z" fill="black"/>
<path d="M411.956 443.714C425.219 444.628 436.424 434.571 437.338 421.313C438.253 408.284 426.134 402.341 414.929 408.055C414.014 408.513 414.472 410.113 415.615 409.884C420.874 408.741 426.82 406.684 431.393 410.57C434.823 413.541 435.509 418.342 434.823 422.456C433.222 433.885 423.618 442.114 412.185 442.114C411.042 442.114 410.813 443.486 411.956 443.714Z" fill="black"/>
</g>
<defs>
<clipPath id="clip0_2716_1648">
<rect width="577" height="352.73" fill="white" transform="matrix(-1 0 0 1 577.999 0)"/>
</clipPath>
<clipPath id="clip1_2716_1648">
<rect width="88.8503" height="30.5763" fill="white" transform="translate(389.18 124.606)"/>
</clipPath>
<clipPath id="clip2_2716_1648">
<rect width="24.4419" height="21.9498" fill="white" transform="translate(119.849 19.1701)"/>
</clipPath>
<clipPath id="clip3_2716_1648">
<rect width="90.0963" height="97.7677" fill="white" transform="translate(462.988 171.573)"/>
</clipPath>
<clipPath id="clip4_2716_1648">
<rect width="184.985" height="114.062" fill="white" transform="translate(252.124 347.938)"/>
</clipPath>
</defs>
</svg>
