<svg width="14" height="14" viewBox="0 0 14 14" fill="none" xmlns="http://www.w3.org/2000/svg">
<path fill-rule="evenodd" clip-rule="evenodd" d="M12.7349 12.7145H10.3623V9.00254C10.3623 8.11683 10.3474 6.97854 9.12973 6.97854C7.89544 6.97854 7.70687 7.94312 7.70687 8.93854V12.7145H5.33658V5.08026H7.61087V6.12426H7.64401C7.96001 5.52426 8.7343 4.89112 9.88858 4.89112C12.2909 4.89112 12.7343 6.47169 12.7343 8.52769V12.7145H12.7349ZM2.66173 4.03797C2.48091 4.03812 2.30184 4.00262 2.13476 3.93349C1.96768 3.86437 1.81587 3.76298 1.68801 3.63512C1.56015 3.50726 1.45876 3.35545 1.38964 3.18837C1.32051 3.02129 1.28501 2.84222 1.28516 2.6614C1.28516 2.3893 1.36583 2.12331 1.51698 1.89705C1.66812 1.6708 1.88296 1.49443 2.13432 1.39025C2.38569 1.28607 2.66229 1.25876 2.92918 1.31176C3.19607 1.36476 3.44125 1.4957 3.63373 1.68802C3.82621 1.88034 3.95736 2.12541 4.01058 2.39226C4.0638 2.6591 4.03671 2.93573 3.93274 3.18718C3.82877 3.43863 3.65258 3.65361 3.42645 3.80495C3.20032 3.95628 2.9344 4.03718 2.6623 4.0374L2.66173 4.03797ZM3.84858 12.7145H1.47373V5.08026H3.84858V12.7145Z" fill="#003681"/>
</svg>
