<svg width="28" height="28" viewBox="0 0 28 28" fill="none" xmlns="http://www.w3.org/2000/svg">
<circle cx="14" cy="14" r="14" fill="#5CA1FF"/>
<g clip-path="url(#clip0_2707_32)">
<path d="M15.8792 8.58492C14.6433 8.29772 13.3579 8.29772 12.122 8.58492C11.4081 8.1471 10.8631 7.94589 10.4668 7.86096C10.2976 7.82278 10.1245 7.80479 9.9511 7.80737C9.8722 7.80951 9.79367 7.81899 9.71652 7.83568L9.70641 7.8377L9.70237 7.83973H9.69933L9.83786 8.32607L9.69933 7.84074C9.6283 7.86081 9.56252 7.8962 9.50663 7.94441C9.45073 7.99262 9.40607 8.05249 9.37578 8.1198C9.07747 8.78785 9.02064 9.53882 9.21501 10.2441C8.71162 10.8542 8.43729 11.621 8.43949 12.412C8.43949 13.9822 8.90258 15.0378 9.69226 15.7163C10.2453 16.1915 10.9167 16.4443 11.5901 16.5889C11.4789 16.8973 11.4506 17.2239 11.4728 17.5575V18.1622C11.0613 18.2481 10.7762 18.2208 10.5729 18.1541C10.3191 18.0702 10.124 17.9013 9.93695 17.6586C9.83916 17.5278 9.74805 17.3922 9.66395 17.2522L9.60631 17.1581C9.53354 17.0371 9.45802 16.9178 9.37982 16.8002C9.18771 16.5161 8.90258 16.1602 8.44151 16.0388L7.95213 15.9104L7.69531 16.8892L8.18469 17.0176C8.26558 17.0378 8.37073 17.1136 8.54363 17.3674C8.60733 17.4615 8.66699 17.5595 8.73575 17.6728L8.8045 17.784C8.89955 17.9377 9.00875 18.1076 9.13513 18.2734C9.39095 18.6071 9.73978 18.9438 10.2575 19.1146C10.6114 19.2319 11.0138 19.2602 11.4728 19.1895V21.0772C11.4728 21.2113 11.5261 21.3399 11.6209 21.4347C11.7157 21.5295 11.8443 21.5828 11.9784 21.5828H16.0228C16.1569 21.5828 16.2855 21.5295 16.3803 21.4347C16.4751 21.3399 16.5284 21.2113 16.5284 21.0772V17.4746C16.5284 17.1561 16.5142 16.8639 16.4242 16.5919C17.0946 16.4504 17.7609 16.1976 18.311 15.7224C19.0996 15.0388 19.5617 13.9731 19.5617 12.3938V12.3928C19.5592 11.6083 19.2847 10.849 18.7852 10.2441C18.9793 9.53913 18.9225 8.78857 18.6244 8.12082C18.5943 8.05342 18.5499 7.99342 18.4942 7.94504C18.4385 7.89665 18.3728 7.86105 18.3019 7.84074L18.1633 8.32607C18.3019 7.84074 18.3009 7.84074 18.2998 7.84074L18.2978 7.83973L18.2938 7.8377L18.2847 7.83568C18.2597 7.82919 18.2344 7.82413 18.2088 7.82052C18.1559 7.81279 18.1026 7.8084 18.0491 7.80737C17.8757 7.80481 17.7026 7.8228 17.5334 7.86096C17.1381 7.94589 16.5931 8.1471 15.8792 8.58492Z" fill="white"/>
</g>
<defs>
<clipPath id="clip0_2707_32">
<rect width="15.1667" height="15.1667" fill="white" transform="translate(6.41797 6.41602)"/>
</clipPath>
</defs>
</svg>
