<svg width="28" height="28" viewBox="0 0 28 28" fill="none" xmlns="http://www.w3.org/2000/svg">
<circle cx="14" cy="14" r="14" fill="#5CA1FF"/>
<path fill-rule="evenodd" clip-rule="evenodd" d="M20.3459 20.3187H17.722V16.2136C17.722 15.2341 17.7056 13.9753 16.3589 13.9753C14.9939 13.9753 14.7854 15.042 14.7854 16.1428V20.3187H12.1641V11.8759H14.6792V13.0305H14.7159C15.0653 12.367 15.9216 11.6668 17.1982 11.6668C19.8548 11.6668 20.3452 13.4147 20.3452 15.6885V20.3187H20.3459ZM9.20595 10.7233C9.00598 10.7234 8.80795 10.6842 8.62317 10.6077C8.4384 10.5313 8.27051 10.4192 8.12911 10.2778C7.98771 10.1364 7.87558 9.96847 7.79914 9.7837C7.72269 9.59892 7.68343 9.40089 7.68359 9.20092C7.68359 8.90001 7.77281 8.60585 7.93996 8.35563C8.10712 8.10541 8.3447 7.91037 8.62269 7.79515C8.90067 7.67994 9.20657 7.64973 9.50173 7.70835C9.79688 7.76696 10.068 7.91177 10.2809 8.12446C10.4938 8.33715 10.6388 8.60817 10.6976 8.90327C10.7565 9.19838 10.7265 9.5043 10.6116 9.78239C10.4966 10.0605 10.3017 10.2982 10.0517 10.4656C9.80158 10.6329 9.50749 10.7224 9.20658 10.7226L9.20595 10.7233ZM10.5185 20.3187H7.89214V11.8759H10.5185V20.3187Z" fill="white"/>
</svg>
