<svg width="28" height="28" viewBox="0 0 28 28" fill="none" xmlns="http://www.w3.org/2000/svg">
<circle cx="14" cy="14" r="14" fill="#5CA1FF"/>
<path d="M17.75 8H10.25C8 8 6.5 9.125 6.5 11.75V17C6.5 19.625 8 20.75 10.25 20.75H17.75C20 20.75 21.5 19.625 21.5 17V11.75C21.5 9.125 20 8 17.75 8ZM18.1025 12.5675L15.755 14.4425C15.26 14.84 14.63 15.035 14 15.035C13.37 15.035 12.7325 14.84 12.245 14.4425L9.8975 12.5675C9.6575 12.3725 9.62 12.0125 9.8075 11.7725C10.0025 11.5325 10.355 11.4875 10.595 11.6825L12.9425 13.5575C13.5125 14.015 14.48 14.015 15.05 13.5575L17.3975 11.6825C17.6375 11.4875 17.9975 11.525 18.185 11.7725C18.38 12.0125 18.3425 12.3725 18.1025 12.5675Z" fill="white"/>
</svg>
