<svg width="248" height="122" viewBox="0 0 248 122" fill="none" xmlns="http://www.w3.org/2000/svg">
<path d="M235.614 120.434C235.614 120.434 256.381 94.6826 243.921 70.1776C231.461 45.6726 207.786 51.4876 174.559 26.5666C134.221 -3.6874 105.896 -5.34939 69.893 7.87561C49.541 15.3516 46.2179 46.0876 13.8219 65.1926C-15.3831 82.4166 8.42196 111.711 23.79 116.28C39.158 120.849 49.5409 120.849 49.5409 120.849L235.614 120.434Z" fill="#F5F5F9"/>
<path d="M111.974 65.0703C117.157 75.5923 123.656 104.344 125.428 105.919C127.2 107.494 137.44 113.599 139.213 116.553C140.986 119.507 140.198 118.522 139.413 118.719C138.628 118.916 94.1189 119.113 94.1189 119.113C94.1189 119.113 99.2388 88.5893 99.8298 88.3923C100.421 88.1953 111.974 65.0703 111.974 65.0703Z" fill="#A2DFF2"/>
<path d="M119.341 118.97C111.167 119.027 102.541 119.07 97.793 119.095L104.293 80.2153C107.761 73.4923 111.97 65.0684 111.97 65.0684C112.623 66.3954 113.298 68.0114 113.981 69.8264C114.655 99.0264 110.449 107.213 113.609 112.416C115.027 114.987 116.982 117.222 119.341 118.97Z" fill="#96CFE0"/>
<path d="M26.934 121.064H240.65C241.088 121.064 241.507 120.89 241.817 120.58C242.126 120.271 242.3 119.851 242.3 119.414C242.3 118.976 242.126 118.556 241.817 118.247C241.507 117.938 241.088 117.764 240.65 117.764H26.934C26.4964 117.764 26.0766 117.938 25.7672 118.247C25.4578 118.556 25.2839 118.976 25.2839 119.414C25.2839 119.851 25.4578 120.271 25.7672 120.58C26.0766 120.89 26.4964 121.064 26.934 121.064Z" fill="#2E5B9A"/>
<path d="M84.68 52.3711C77.287 59.1941 60.8329 65.6651 60.8329 65.6651C60.8329 65.6651 58.3329 88.7651 60.0389 101.842C61.7449 114.919 60.797 117.574 60.797 117.574H94.725C94.725 117.574 99.2779 111.255 107.614 91.6071C112.921 79.0971 111.974 65.0711 111.974 65.0711L91.316 55.7811L84.68 52.3711Z" fill="#A2DFF2"/>
<path d="M94.7219 117.576H60.7939C60.7939 117.576 61.7419 114.922 60.0349 101.844C58.6349 91.0753 60.0778 73.5133 60.6348 67.6443L63.7209 66.3223C71.4669 68.5543 75.9309 80.1083 77.2439 91.3993C78.1219 98.9543 90.6439 106.391 98.8259 110.486C97.6039 112.931 96.2333 115.299 94.7219 117.576Z" fill="#96CFE0"/>
<path d="M103.039 28.6641C107.129 37.7731 102.22 46.211 102.369 45.855C102.518 45.499 96.1787 30.476 96.1787 30.476L103.039 28.6641Z" fill="#2E5B9A"/>
<path d="M87.5408 35.3984L82.3538 54.3574C82.2823 54.6211 82.2747 54.898 82.3318 55.1651C82.3888 55.4323 82.509 55.682 82.6819 55.8934C83.8989 57.3934 85.6307 60.4744 89.1257 61.4634C89.8436 61.6387 90.581 61.7213 91.3198 61.7094C91.6651 61.7112 92 61.5922 92.2668 61.3731C92.5336 61.154 92.7154 60.8485 92.7808 60.5094L96.2559 42.5274L87.5408 35.3984Z" fill="#F09959"/>
<path d="M88.5349 36.9844L90.4348 37.7614L96.2639 42.5304L93.1347 58.4724C87.8247 55.1644 87.0519 52.9324 88.5349 36.9844Z" fill="#E38540"/>
<path d="M87.7349 43.7852C88.8829 50.0222 93.55 54.2402 98.159 53.2062C102.768 52.1722 104.966 48.1362 104.425 40.0422C104.001 33.6922 100.87 26.7902 96.26 27.8242C91.65 28.8582 86.5869 37.5492 87.7349 43.7852Z" fill="#F09959"/>
<path d="M60.832 65.6664C53.967 67.2164 52.692 81.1594 50.46 95.8664C50.203 97.5594 48.885 111.884 48.885 111.884C48.8882 112.709 49.1241 113.516 49.5654 114.213C50.0068 114.91 50.6356 115.468 51.3799 115.823C53.6229 116.945 54.5311 117.792 67.5291 117.923C80.0121 118.049 96.1079 117.529 96.1079 117.529C96.1079 117.529 96.251 112.884 94.97 110.614C93.044 107.2 73.306 102.299 71.47 102.036C71.207 98.3605 73.2829 85.0585 70.4189 76.0365C68.4499 69.8365 66.3319 66.5834 63.6799 65.7364C62.7546 65.4549 61.7701 65.4307 60.832 65.6664Z" fill="#A2DFF2"/>
<path d="M89.0491 117.81C82.8951 117.902 74.4491 117.991 67.5291 117.921C54.5291 117.79 53.6229 116.942 51.3799 115.821C50.6565 115.514 50.0237 115.027 49.5413 114.407C49.0588 113.786 48.7427 113.053 48.623 112.276C48.623 112.276 49.95 97.0332 50.198 95.3392C51.642 85.4922 53.198 74.2242 56.835 68.7852C54.3847 75.891 53.0279 83.3279 52.811 90.8412C52.7503 92.8872 52.9757 94.9316 53.481 96.9152C53.5775 97.3911 53.7756 97.8406 54.062 98.2328C54.3484 98.625 54.7162 98.9506 55.1401 99.1875C55.5641 99.4244 56.0342 99.5668 56.5183 99.605C57.0024 99.6433 57.4892 99.5765 57.9451 99.4092C62.6721 98.0962 68.5801 100.853 68.5801 100.853C65.7692 99.9457 62.7511 99.9001 59.9141 100.722C55.7141 102.166 47.047 111.751 56.5 115.296C59.393 116.38 76.7161 117.264 89.0491 117.81Z" fill="#96CFE0"/>
<path d="M93.9189 111.05C93.3406 110.155 92.5512 109.415 91.6201 108.896C90.689 108.377 89.6448 108.095 88.5791 108.074C84.9911 108.074 85.2531 113.938 85.7791 115.864C85.9613 116.426 86.3099 116.92 86.7788 117.279C87.2478 117.639 87.8149 117.847 88.405 117.877L96.105 117.527L93.9189 111.05Z" fill="#96CFE0"/>
<path d="M101.919 116.168H150.096C150.499 116.169 150.886 116.33 151.171 116.615C151.456 116.901 151.616 117.288 151.616 117.691C151.616 118.094 151.456 118.481 151.171 118.767C150.886 119.052 150.499 119.213 150.096 119.214H101.919C101.515 119.214 101.128 119.054 100.842 118.768C100.556 118.482 100.396 118.095 100.396 117.691C100.396 117.287 100.556 116.9 100.842 116.614C101.128 116.328 101.515 116.168 101.919 116.168V116.168Z" fill="#75A1DE"/>
<path d="M94.8818 111.4C102.409 108.687 104.382 109.708 106.082 109.212C110.282 107.987 111.334 109.037 114.047 116.477C114.587 117.959 112.996 118.053 111.421 118.053C109.846 118.053 107.921 114.989 107.307 114.639C106.576 114.361 105.81 114.184 105.032 114.114C105.032 114.114 105.557 114.114 106.344 115.69C107.131 117.266 108.095 117.878 106.87 117.878C105.645 117.878 105.47 115.865 103.194 116.302C100.918 116.739 101.794 117.878 96.1037 117.79C90.4137 117.702 86.1209 117.79 86.2129 114.376C86.3009 111.137 85.9417 109.518 89.0127 108.949C91.3807 108.512 94.8818 111.4 94.8818 111.4Z" fill="#F09959"/>
<path d="M94.7829 111.399C89.7509 110.83 91.2269 117.099 91.7519 117.625C92.2769 118.151 88.9518 117.809 88.9518 117.809C88.4963 116.989 88.2369 116.075 88.1935 115.138C88.1501 114.201 88.324 113.267 88.7018 112.409C89.0307 111.601 89.569 110.895 90.2614 110.364C90.9537 109.833 91.7751 109.497 92.6408 109.389L94.872 110.614L94.7829 111.399Z" fill="#A86B48"/>
<path d="M89.5281 110.855C89.5931 111.632 90.9131 112.155 92.4771 112.025C94.0411 111.895 95.256 111.159 95.191 110.381C95.126 109.603 93.806 109.081 92.242 109.211C90.678 109.341 89.4631 110.078 89.5281 110.855Z" fill="#2E5B9A"/>
<path d="M89.9321 110.466C89.9901 111.16 91.1701 111.628 92.5671 111.512C93.9641 111.396 95.0499 110.738 94.9919 110.044C94.9339 109.35 93.7539 108.882 92.3569 108.998C90.9599 109.114 89.8711 109.774 89.9321 110.466Z" fill="#3E6BAB"/>
<path d="M90.8011 110.147C90.8431 110.647 91.692 110.984 92.701 110.899C93.71 110.814 94.4891 110.342 94.4471 109.842C94.4051 109.342 93.556 109.005 92.547 109.089C91.538 109.173 90.7601 109.647 90.8011 110.147Z" fill="#F0CEB4"/>
<path d="M152.062 109.595H200.978C202.232 109.589 203.445 109.142 204.403 108.332C205.362 107.523 206.006 106.402 206.222 105.166L212.602 69.9514C212.748 69.1773 212.723 68.3805 212.527 67.6173C212.332 66.8541 211.972 66.1431 211.472 65.5344C210.971 64.9257 210.344 64.4342 209.633 64.0945C208.922 63.7548 208.146 63.5752 207.358 63.5684H158.443C157.188 63.5749 155.976 64.022 155.017 64.8315C154.059 65.641 153.415 66.7616 153.199 67.9974L146.819 103.212C146.673 103.986 146.698 104.783 146.893 105.546C147.089 106.309 147.449 107.02 147.949 107.629C148.449 108.238 149.076 108.729 149.787 109.069C150.498 109.409 151.274 109.588 152.062 109.595Z" fill="#75A1DE"/>
<path d="M149.776 103.344L156.287 68.8578C156.534 67.6247 157.204 66.5165 158.181 65.7245C159.158 64.9326 160.381 64.5065 161.639 64.5198H211.349C211.889 65.1436 212.282 65.8811 212.498 66.6775C212.714 67.4738 212.748 68.3086 212.597 69.1199L205.997 105.074C205.764 106.343 205.093 107.491 204.101 108.317C203.11 109.143 201.86 109.596 200.569 109.596H155.125C154.339 109.609 153.56 109.448 152.843 109.126C152.127 108.803 151.49 108.326 150.979 107.729C150.468 107.131 150.095 106.429 149.887 105.671C149.679 104.913 149.641 104.118 149.776 103.344Z" fill="#A8CEFF"/>
<path d="M161.571 114.31H170.861C171.695 114.269 172.479 113.9 173.041 113.282C173.603 112.665 173.898 111.85 173.861 111.016V94.0379C173.802 92.7105 174.271 91.4137 175.165 90.4311C176.059 89.4485 177.307 88.8602 178.634 88.7949H183.484C184.811 88.8602 186.058 89.4485 186.953 90.4311C187.847 91.4137 188.316 92.7105 188.257 94.0379V113.051C188.29 113.789 188.177 114.525 187.925 115.219C187.674 115.914 187.287 116.551 186.788 117.095C186.29 117.64 185.688 118.081 185.019 118.392C184.35 118.704 183.625 118.881 182.888 118.912L157.545 118.738C157.495 117.618 157.89 116.523 158.644 115.693C159.399 114.864 160.451 114.366 161.571 114.31Z" fill="#75A1DE"/>
<path d="M187.883 94.4188V113.141C187.883 114.598 187.331 116.002 186.338 117.069C185.345 118.137 183.986 118.789 182.532 118.895L157.799 118.741C157.799 118.336 159.751 117.597 162.159 117.597H172.204C173.064 117.597 173.889 117.255 174.498 116.647C175.106 116.038 175.448 115.213 175.448 114.353V94.4188C175.448 93.0495 175.992 91.7363 176.96 90.7681C177.928 89.7998 179.242 89.2559 180.611 89.2559H182.72C183.398 89.2559 184.069 89.3894 184.696 89.6489C185.322 89.9083 185.891 90.2886 186.371 90.7681C186.85 91.2475 187.23 91.8167 187.49 92.4431C187.749 93.0695 187.883 93.7408 187.883 94.4188Z" fill="#A8CEFF"/>
<path d="M136.112 112.155C132.374 110.078 127.806 110.77 126.145 112.847C124.484 114.924 124.207 116.308 127.945 116.308C131.683 116.308 139.158 116.585 140.404 116.446C141.65 116.307 136.112 112.155 136.112 112.155Z" fill="#F09959"/>
<path d="M130.574 110.903C126.559 109.934 123.816 112.27 120.468 114.503C117.561 116.441 116.976 118.325 120.191 116.718C122.522 115.437 125.047 114.549 127.666 114.088L130.574 110.903Z" fill="#F09959"/>
<path d="M134.228 112.141C136.256 112.141 138.028 111.495 139.457 111.614C140.886 111.733 145.42 116.385 144.704 116.742C144.65 116.769 144.594 116.793 144.537 116.813C144.01 117.002 143.435 117.003 142.907 116.819C142.379 116.634 141.931 116.273 141.637 115.797C140.996 114.768 139.953 113.57 138.737 113.997C137.397 114.439 135.993 114.657 134.582 114.644L134.228 112.141Z" fill="#F09959"/>
<path d="M135.42 117.137C137.496 116.306 134.174 109.385 133.067 109.385C131.96 109.385 127.806 112.707 127.806 112.707C127.806 112.707 128.783 113.258 132.098 112.153C132.928 111.876 133.621 116.583 134.589 117.137C135.557 117.691 135.42 117.137 135.42 117.137Z" fill="#F7A96F"/>
<path d="M104.428 43.688C104.621 51.31 102.028 52.599 100.207 53.634C98.3857 54.669 90.5646 52.959 89.4166 51.074C86.4786 46.251 88.9518 41.754 88.2948 41.822C87.6378 41.89 87.0367 43.768 85.3217 46.204C85.1617 46.431 84.0499 47.937 83.9909 47.436C83.1909 40.611 79.6409 38.491 80.4909 31.588C81.1149 26.499 84.3449 26.903 84.3449 26.903C84.3449 26.903 86.4287 22.645 92.9157 23.128C97.2627 23.452 101.138 25.145 105.616 26.299C110.094 27.453 100.316 37.608 94.5038 33.899C88.6918 30.19 91.5617 38.361 90.6447 38.999C89.7277 39.637 90.2038 39.083 89.7828 43.265C89.3618 47.447 94.6727 50.178 96.1957 50.536C101.063 51.681 101.877 50.878 102.943 49.045C103.674 47.3334 104.173 45.5318 104.428 43.688Z" fill="#2E5B9A"/>
<path d="M84.2821 41.327C84.8401 43.248 86.2052 44.489 87.3302 44.099C88.4552 43.709 88.4891 42.148 88.3561 39.914C88.2361 37.901 86.4332 36.752 85.3082 37.142C84.1832 37.532 83.7241 39.406 84.2821 41.327Z" fill="#F09959"/>
<path d="M194.419 16.6523H228.399C229.619 16.6523 230.789 17.137 231.652 17.9997C232.514 18.8623 232.999 20.0323 232.999 21.2523V31.5663C232.999 32.7863 232.514 33.9564 231.652 34.819C230.789 35.6817 229.619 36.1663 228.399 36.1663H194.419C193.199 36.1663 192.029 35.6817 191.166 34.819C190.303 33.9564 189.819 32.7863 189.819 31.5663V21.2523C189.819 20.0323 190.303 18.8623 191.166 17.9997C192.029 17.137 193.199 16.6523 194.419 16.6523V16.6523Z" fill="#B7E1FF"/>
<path d="M194.719 21.7812H228.108C228.596 21.7812 229.08 21.8774 229.531 22.0643C229.982 22.2512 230.392 22.5252 230.737 22.8705C231.083 23.2159 231.357 23.6258 231.544 24.0771C231.731 24.5283 231.827 25.0119 231.827 25.5003V31.5352C231.827 32.0238 231.731 32.5075 231.544 32.9588C231.357 33.4102 231.083 33.8203 230.737 34.1657C230.392 34.5111 229.982 34.7851 229.53 34.9721C229.079 35.159 228.595 35.2552 228.107 35.2552H194.719C193.732 35.2552 192.786 34.8634 192.089 34.166C191.392 33.4685 191 32.5226 191 31.5363V25.5003C191 24.5139 191.392 23.568 192.089 22.8705C192.786 22.1731 193.732 21.7812 194.719 21.7812V21.7812Z" fill="white"/>
<path d="M230.467 18.0879H230.297C229.877 18.0879 229.536 18.4286 229.536 18.8489V18.8499C229.536 19.2702 229.877 19.6109 230.297 19.6109H230.467C230.887 19.6109 231.228 19.2702 231.228 18.8499V18.8489C231.228 18.4286 230.887 18.0879 230.467 18.0879Z" fill="white"/>
<path d="M227.22 18.0879H227.389C227.489 18.0879 227.588 18.1076 227.68 18.1458C227.772 18.1841 227.856 18.2401 227.927 18.3108C227.998 18.3814 228.054 18.4653 228.092 18.5577C228.13 18.65 228.15 18.749 228.15 18.8489C228.15 18.9488 228.13 19.0478 228.092 19.1401C228.054 19.2324 227.998 19.3163 227.927 19.387C227.856 19.4577 227.772 19.5137 227.68 19.552C227.588 19.5902 227.489 19.6099 227.389 19.6099H227.22C227.018 19.6099 226.824 19.5297 226.682 19.387C226.539 19.2443 226.459 19.0507 226.459 18.8489V18.8489C226.459 18.6471 226.539 18.4535 226.682 18.3108C226.824 18.1681 227.018 18.0879 227.22 18.0879V18.0879Z" fill="white"/>
<path d="M224.144 18.0879H224.313C224.413 18.0879 224.512 18.1076 224.604 18.1458C224.696 18.1841 224.78 18.2401 224.851 18.3108C224.922 18.3814 224.978 18.4653 225.016 18.5577C225.054 18.65 225.074 18.749 225.074 18.8489C225.074 18.9488 225.054 19.0478 225.016 19.1401C224.978 19.2324 224.922 19.3163 224.851 19.387C224.78 19.4577 224.696 19.5137 224.604 19.552C224.512 19.5902 224.413 19.6099 224.313 19.6099H224.144C223.942 19.6099 223.748 19.5297 223.606 19.387C223.463 19.2443 223.383 19.0507 223.383 18.8489V18.8489C223.383 18.6471 223.463 18.4535 223.606 18.3108C223.748 18.1681 223.942 18.0879 224.144 18.0879V18.0879Z" fill="white"/>
<path d="M192.661 24.7334H214.261C214.346 24.7334 214.43 24.7167 214.508 24.6842C214.586 24.6518 214.658 24.6042 214.718 24.5442C214.778 24.4842 214.825 24.413 214.858 24.3346C214.89 24.2562 214.907 24.1722 214.907 24.0874C214.907 24.0026 214.89 23.9186 214.858 23.8402C214.825 23.7618 214.778 23.6906 214.718 23.6306C214.658 23.5706 214.586 23.523 214.508 23.4906C214.43 23.4581 214.346 23.4414 214.261 23.4414H192.661C192.576 23.4414 192.492 23.4581 192.414 23.4906C192.335 23.523 192.264 23.5706 192.204 23.6306C192.144 23.6906 192.096 23.7618 192.064 23.8402C192.032 23.9186 192.015 24.0026 192.015 24.0874C192.015 24.1722 192.032 24.2562 192.064 24.3346C192.096 24.413 192.144 24.4842 192.204 24.5442C192.264 24.6042 192.335 24.6518 192.414 24.6842C192.492 24.7167 192.576 24.7334 192.661 24.7334Z" fill="#B7E1FF"/>
<path d="M208.904 34.7002H230.504C230.675 34.7002 230.839 34.6321 230.961 34.511C231.082 34.3898 231.15 34.2255 231.15 34.0542C231.15 33.8829 231.082 33.7186 230.961 33.5974C230.839 33.4763 230.675 33.4082 230.504 33.4082H208.904C208.732 33.4082 208.568 33.4763 208.447 33.5974C208.326 33.7186 208.258 33.8829 208.258 34.0542C208.258 34.2255 208.326 34.3898 208.447 34.511C208.568 34.6321 208.732 34.7002 208.904 34.7002Z" fill="#B7E1FF"/>
<path d="M206.735 33.4082H205.351C204.994 33.4082 204.705 33.6974 204.705 34.0542C204.705 34.411 204.994 34.7002 205.351 34.7002H206.735C207.092 34.7002 207.381 34.411 207.381 34.0542C207.381 33.6974 207.092 33.4082 206.735 33.4082Z" fill="#B7E1FF"/>
<path d="M203.366 33.4082H201.982C201.625 33.4082 201.336 33.6974 201.336 34.0542C201.336 34.411 201.625 34.7002 201.982 34.7002H203.366C203.723 34.7002 204.012 34.411 204.012 34.0542C204.012 33.6974 203.723 33.4082 203.366 33.4082Z" fill="#B7E1FF"/>
<path d="M192.453 27.5489H228.215C228.331 27.5489 228.443 27.5027 228.525 27.4204C228.607 27.3382 228.653 27.2267 228.653 27.1104C228.653 26.9941 228.607 26.8825 228.525 26.8003C228.443 26.7181 228.331 26.6719 228.215 26.6719H192.453C192.337 26.6719 192.225 26.7181 192.143 26.8003C192.061 26.8825 192.014 26.9941 192.014 27.1104C192.014 27.2267 192.061 27.3382 192.143 27.4204C192.225 27.5027 192.337 27.5489 192.453 27.5489Z" fill="#B7E1FF"/>
<path d="M192.453 29.4395H228.215C228.331 29.4395 228.443 29.3933 228.525 29.3111C228.607 29.2288 228.653 29.1173 228.653 29.001C228.653 28.8847 228.607 28.7732 228.525 28.6909C228.443 28.6087 228.331 28.5625 228.215 28.5625H192.453C192.337 28.5625 192.225 28.6087 192.143 28.6909C192.061 28.7732 192.014 28.8847 192.014 29.001C192.014 29.1173 192.061 29.2288 192.143 29.3111C192.225 29.3933 192.337 29.4395 192.453 29.4395Z" fill="#B7E1FF"/>
<path d="M184.66 30.3555H218.64C219.861 30.3555 221.032 30.8406 221.896 31.7042C222.76 32.5678 223.245 33.7391 223.245 34.9605V45.2685C223.245 46.4898 222.76 47.6611 221.896 48.5247C221.032 49.3883 219.861 49.8735 218.64 49.8735H184.665C183.443 49.8735 182.272 49.3883 181.409 48.5247C180.545 47.6611 180.06 46.4898 180.06 45.2685V34.9555C180.06 33.7355 180.544 32.5654 181.407 31.7028C182.27 30.8401 183.44 30.3555 184.66 30.3555V30.3555Z" fill="#9EC8FF"/>
<path d="M184.961 35.4844H218.349C218.837 35.4844 219.321 35.5806 219.772 35.7675C220.223 35.9544 220.633 36.2283 220.978 36.5736C221.324 36.919 221.598 37.329 221.785 37.7802C221.972 38.2314 222.068 38.715 222.068 39.2034V45.2384C222.068 45.7269 221.972 46.2106 221.785 46.662C221.598 47.1133 221.324 47.5234 220.978 47.8688C220.633 48.2142 220.223 48.4883 219.771 48.6752C219.32 48.8622 218.836 48.9584 218.348 48.9584H184.96C183.973 48.9584 183.027 48.5666 182.33 47.8691C181.633 47.1717 181.241 46.2257 181.241 45.2394V39.2044C181.241 38.2178 181.633 37.2716 182.33 36.5739C183.028 35.8763 183.974 35.4844 184.961 35.4844V35.4844Z" fill="white"/>
<path d="M220.538 31.791H220.707C220.807 31.791 220.906 31.8107 220.998 31.8489C221.09 31.8872 221.174 31.9432 221.245 32.0139C221.316 32.0846 221.372 32.1685 221.41 32.2608C221.448 32.3531 221.468 32.4521 221.468 32.552C221.468 32.652 221.448 32.7509 221.41 32.8432C221.372 32.9356 221.316 33.0195 221.245 33.0901C221.174 33.1608 221.09 33.2168 220.998 33.2551C220.906 33.2933 220.807 33.313 220.707 33.313H220.538C220.336 33.313 220.142 33.2328 220 33.0901C219.857 32.9474 219.777 32.7538 219.777 32.552V32.552C219.777 32.3502 219.857 32.1566 220 32.0139C220.142 31.8712 220.336 31.791 220.538 31.791V31.791Z" fill="white"/>
<path d="M217.631 31.791H217.461C217.04 31.791 216.7 32.1317 216.7 32.552V32.553C216.7 32.9733 217.04 33.314 217.461 33.314H217.631C218.051 33.314 218.392 32.9733 218.392 32.553V32.552C218.392 32.1317 218.051 31.791 217.631 31.791Z" fill="white"/>
<path d="M214.386 31.791H214.555C214.655 31.791 214.754 31.8107 214.846 31.8489C214.938 31.8872 215.022 31.9432 215.093 32.0139C215.164 32.0846 215.22 32.1685 215.258 32.2608C215.296 32.3531 215.316 32.4521 215.316 32.552C215.316 32.6521 215.296 32.7512 215.258 32.8436C215.219 32.9361 215.163 33.0201 215.093 33.0908C215.022 33.1616 214.938 33.2177 214.845 33.256C214.753 33.2943 214.654 33.314 214.554 33.314H214.385C214.183 33.314 213.989 33.2338 213.847 33.0911C213.704 32.9484 213.624 32.7548 213.624 32.553V32.553C213.624 32.3509 213.704 32.1571 213.847 32.0142C213.99 31.8713 214.184 31.791 214.386 31.791V31.791Z" fill="white"/>
<path d="M182.902 38.4365H204.502C204.673 38.4365 204.837 38.3685 204.959 38.2473C205.08 38.1262 205.148 37.9619 205.148 37.7905C205.148 37.6192 205.08 37.4549 204.959 37.3337C204.837 37.2126 204.673 37.1445 204.502 37.1445H182.902C182.731 37.1445 182.566 37.2126 182.445 37.3337C182.324 37.4549 182.256 37.6192 182.256 37.7905C182.256 37.9619 182.324 38.1262 182.445 38.2473C182.566 38.3685 182.731 38.4365 182.902 38.4365Z" fill="#9EC8FF"/>
<path d="M199.147 48.4033H220.747C220.918 48.4033 221.082 48.3353 221.203 48.2141C221.325 48.093 221.393 47.9287 221.393 47.7573C221.393 47.586 221.325 47.4217 221.203 47.3005C221.082 47.1794 220.918 47.1113 220.747 47.1113H199.147C198.975 47.1113 198.811 47.1794 198.69 47.3005C198.569 47.4217 198.501 47.586 198.501 47.7573C198.501 47.9287 198.569 48.093 198.69 48.2141C198.811 48.3353 198.975 48.4033 199.147 48.4033Z" fill="#9EC8FF"/>
<path d="M196.976 47.1113H195.592C195.235 47.1113 194.946 47.4006 194.946 47.7573C194.946 48.1141 195.235 48.4033 195.592 48.4033H196.976C197.333 48.4033 197.622 48.1141 197.622 47.7573C197.622 47.4006 197.333 47.1113 196.976 47.1113Z" fill="#9EC8FF"/>
<path d="M193.607 47.1113H192.223C191.866 47.1113 191.577 47.4006 191.577 47.7573C191.577 48.1141 191.866 48.4033 192.223 48.4033H193.607C193.964 48.4033 194.253 48.1141 194.253 47.7573C194.253 47.4006 193.964 47.1113 193.607 47.1113Z" fill="#9EC8FF"/>
<path d="M182.693 41.252H218.455C218.571 41.252 218.683 41.2058 218.765 41.1236C218.847 41.0413 218.893 40.9298 218.893 40.8135C218.893 40.6972 218.847 40.5857 218.765 40.5034C218.683 40.4212 218.571 40.375 218.455 40.375H182.693C182.576 40.375 182.465 40.4212 182.383 40.5034C182.3 40.5857 182.254 40.6972 182.254 40.8135C182.254 40.9298 182.3 41.0413 182.383 41.1236C182.465 41.2058 182.576 41.252 182.693 41.252Z" fill="#9EC8FF"/>
<path d="M182.693 43.1426H218.455C218.571 43.1426 218.683 43.0964 218.765 43.0142C218.847 42.932 218.893 42.8204 218.893 42.7041C218.893 42.5878 218.847 42.4763 218.765 42.394C218.683 42.3118 218.571 42.2656 218.455 42.2656H182.693C182.576 42.2656 182.465 42.3118 182.383 42.394C182.3 42.4763 182.254 42.5878 182.254 42.7041C182.254 42.8204 182.3 42.932 182.383 43.0142C182.465 43.0964 182.576 43.1426 182.693 43.1426Z" fill="#9EC8FF"/>
<path d="M175.908 45.0982C175.908 46.2069 175.579 47.2908 174.963 48.2127C174.347 49.1346 173.472 49.8532 172.447 50.2775C171.423 50.7018 170.296 50.8128 169.208 50.5965C168.121 50.3802 167.122 49.8462 166.338 49.0622C165.554 48.2782 165.02 47.2793 164.804 46.1919C164.587 45.1044 164.698 43.9772 165.123 42.9529C165.547 41.9285 166.265 41.053 167.187 40.437C168.109 39.821 169.193 39.4922 170.302 39.4922C171.789 39.4922 173.215 40.0828 174.266 41.1342C175.317 42.1855 175.908 43.6114 175.908 45.0982Z" fill="#9CD499"/>
<path d="M169.746 47.1697H169.73C169.673 47.1669 169.617 47.1526 169.565 47.1277C169.514 47.1028 169.468 47.0678 169.43 47.0247L167.903 45.2917C167.831 45.2063 167.795 45.0962 167.804 44.9848C167.812 44.8735 167.864 44.7698 167.947 44.6961C168.031 44.6223 168.141 44.5843 168.252 44.5903C168.364 44.5962 168.468 44.6455 168.544 44.7277L169.769 46.1207L172.7 43.2517C172.74 43.2123 172.787 43.1812 172.839 43.1601C172.892 43.1391 172.947 43.1285 173.003 43.1289C173.06 43.1294 173.115 43.1409 173.167 43.1629C173.219 43.1848 173.266 43.2167 173.305 43.2567C173.344 43.2968 173.375 43.3442 173.396 43.3963C173.418 43.4484 173.428 43.5041 173.428 43.5603C173.427 43.6164 173.416 43.672 173.394 43.7237C173.372 43.7754 173.34 43.8223 173.3 43.8617L170.047 47.0457C169.967 47.1253 169.859 47.1699 169.746 47.1697Z" fill="white"/>
<path d="M135.142 2.99805H158.053C160.182 2.99805 162.224 3.84396 163.73 5.34969C165.236 6.85542 166.082 8.89762 166.082 11.027C166.082 12.0813 165.874 13.1252 165.471 14.0992C165.067 15.0732 164.476 15.9582 163.73 16.7037C162.985 17.4492 162.1 18.0405 161.126 18.444C160.152 18.8474 159.108 19.055 158.054 19.055H135.142C133.013 19.055 130.97 18.2093 129.465 16.7038C127.959 15.1982 127.113 13.1563 127.113 11.027V11.027C127.113 8.89762 127.959 6.85542 129.464 5.34969C130.97 3.84396 133.012 2.99805 135.142 2.99805V2.99805Z" fill="#9EC8FF"/>
<path d="M161.375 16.6372V25.4972L151.163 15.2832C151.163 15.2832 161.163 16.6372 161.375 16.6372Z" fill="#9EC8FF"/>
<path d="M135.565 4.58984H157.628C159.335 4.58984 160.972 5.26803 162.179 6.4752C163.387 7.68237 164.065 9.31964 164.065 11.0268C164.064 12.734 163.386 14.3711 162.179 15.5782C160.972 16.7853 159.335 17.4636 157.628 17.4638H135.565C133.858 17.4638 132.221 16.7858 131.013 15.5788C129.806 14.3719 129.128 12.7349 129.128 11.0278C129.128 10.1824 129.294 9.34529 129.617 8.5642C129.941 7.78312 130.415 7.07339 131.013 6.47555C131.61 5.87771 132.32 5.40348 133.101 5.07993C133.882 4.75637 134.719 4.58984 135.565 4.58984V4.58984Z" fill="white"/>
<path d="M145.039 7.77463H160.823C161.006 7.77463 161.182 7.70172 161.312 7.57195C161.442 7.44217 161.515 7.26616 161.515 7.08263C161.515 6.8991 161.442 6.72308 161.312 6.59331C161.182 6.46353 161.006 6.39062 160.823 6.39062H145.042C144.858 6.39062 144.682 6.46353 144.552 6.59331C144.423 6.72308 144.35 6.8991 144.35 7.08263C144.35 7.26616 144.423 7.44217 144.552 7.57195C144.682 7.70172 144.858 7.77463 145.042 7.77463H145.039Z" fill="#9EC8FF"/>
<path d="M161.124 9.64258H131.862C131.647 9.64258 131.473 9.81674 131.473 10.0316C131.473 10.2464 131.647 10.4206 131.862 10.4206H161.124C161.339 10.4206 161.513 10.2464 161.513 10.0316C161.513 9.81674 161.339 9.64258 161.124 9.64258Z" fill="#9EC8FF"/>
<path d="M161.124 11.1484H131.862C131.647 11.1484 131.473 11.3226 131.473 11.5374C131.473 11.7523 131.647 11.9264 131.862 11.9264H161.124C161.339 11.9264 161.513 11.7523 161.513 11.5374C161.513 11.3226 161.339 11.1484 161.124 11.1484Z" fill="#9EC8FF"/>
<path d="M138.303 15.3887H138.473C138.573 15.3887 138.672 15.4084 138.764 15.4466C138.856 15.4848 138.94 15.5409 139.011 15.6116C139.082 15.6822 139.138 15.7661 139.176 15.8584C139.214 15.9508 139.234 16.0497 139.234 16.1497C139.234 16.2496 139.214 16.3486 139.176 16.4409C139.138 16.5332 139.082 16.6171 139.011 16.6878C138.94 16.7584 138.856 16.8145 138.764 16.8527C138.672 16.891 138.573 16.9107 138.473 16.9107H138.303C138.101 16.9107 137.908 16.8306 137.765 16.6881C137.622 16.5456 137.542 16.3523 137.542 16.1507C137.542 16.0507 137.561 15.9516 137.599 15.8591C137.638 15.7667 137.694 15.6827 137.764 15.6119C137.835 15.5411 137.919 15.485 138.011 15.4467C138.104 15.4084 138.203 15.3887 138.303 15.3887V15.3887Z" fill="#9EC8FF"/>
<path d="M135.396 15.3887H135.226C134.805 15.3887 134.465 15.7294 134.465 16.1497V16.1507C134.465 16.571 134.805 16.9117 135.226 16.9117H135.396C135.816 16.9117 136.157 16.571 136.157 16.1507V16.1497C136.157 15.7294 135.816 15.3887 135.396 15.3887Z" fill="#9EC8FF"/>
<path d="M132.32 15.3887H132.15C131.729 15.3887 131.389 15.7294 131.389 16.1497V16.1507C131.389 16.571 131.729 16.9117 132.15 16.9117H132.32C132.74 16.9117 133.081 16.571 133.081 16.1507V16.1497C133.081 15.7294 132.74 15.3887 132.32 15.3887Z" fill="#9EC8FF"/>
<path d="M138.087 48.1938L132.628 45.4517V45.0771L138.087 42.0176V42.9697L134.012 45.2295V45.2549L138.087 47.248V48.1938ZM144.962 39.8975L140.595 50.5107H139.624L143.978 39.8975H144.962ZM152.052 45.4517L146.593 48.1938V47.248L150.681 45.2676V45.2295L146.593 42.9697V42.0176L152.052 45.0771V45.4517Z" fill="#9EC8FF"/>
</svg>
