<svg width="28" height="28" viewBox="0 0 28 28" fill="none" xmlns="http://www.w3.org/2000/svg">
<circle cx="14" cy="14" r="14" fill="#5CA1FF"/>
<path fill-rule="evenodd" clip-rule="evenodd" d="M20.3432 20.3187H17.7193V16.2136C17.7193 15.2341 17.7029 13.9753 16.3562 13.9753C14.9912 13.9753 14.7827 15.042 14.7827 16.1428V20.3187H12.1614V11.8759H14.6765V13.0305H14.7132C15.0627 12.367 15.9189 11.6668 17.1955 11.6668C19.8522 11.6668 20.3425 13.4147 20.3425 15.6885V20.3187H20.3432ZM9.20326 10.7233C9.0033 10.7234 8.80526 10.6842 8.62049 10.6077C8.43571 10.5313 8.26782 10.4192 8.12643 10.2778C7.98503 10.1364 7.8729 9.96847 7.79645 9.7837C7.72001 9.59892 7.68074 9.40089 7.68091 9.20092C7.68091 8.90001 7.77012 8.60585 7.93728 8.35563C8.10443 8.10541 8.34202 7.91037 8.62 7.79515C8.89799 7.67994 9.20389 7.64973 9.49904 7.70835C9.79419 7.76696 10.0653 7.91177 10.2782 8.12446C10.4911 8.33715 10.6361 8.60817 10.695 8.90327C10.7538 9.19838 10.7239 9.5043 10.6089 9.78239C10.4939 10.0605 10.2991 10.2982 10.049 10.4656C9.79889 10.6329 9.50481 10.7224 9.20389 10.7226L9.20326 10.7233ZM10.5158 20.3187H7.88945V11.8759H10.5158V20.3187Z" fill="white"/>
</svg>
