<svg width="14" height="14" viewBox="0 0 14 14" fill="none" xmlns="http://www.w3.org/2000/svg">
<g clip-path="url(#clip0_611_4020)">
<path d="M13.6531 2.96429C13.1759 3.17572 12.6634 3.31857 12.1245 3.38315C12.6805 3.05046 13.0965 2.52684 13.2948 1.91C12.7724 2.22028 12.2007 2.43869 11.6045 2.55572C11.2036 2.12764 10.6725 1.8439 10.0938 1.74856C9.51513 1.65321 8.92114 1.7516 8.40407 2.02843C7.88701 2.30527 7.47581 2.74507 7.23431 3.27955C6.99281 3.81403 6.93453 4.41329 7.06851 4.98429C6.01004 4.93114 4.97458 4.65603 4.02932 4.17681C3.08406 3.69758 2.25013 3.02495 1.58165 2.20257C1.35308 2.59686 1.22165 3.054 1.22165 3.54086C1.2214 3.97914 1.32933 4.41071 1.53587 4.79728C1.74241 5.18384 2.04117 5.51345 2.40565 5.75686C1.98295 5.74341 1.56958 5.62919 1.19994 5.42372V5.458C1.19989 6.07271 1.41253 6.6685 1.80176 7.14429C2.19098 7.62007 2.73284 7.94653 3.33537 8.06829C2.94324 8.17441 2.53213 8.19004 2.13308 8.114C2.30308 8.64292 2.63422 9.10545 3.08015 9.43682C3.52607 9.76819 4.06446 9.95182 4.61994 9.962C3.67698 10.7022 2.51244 11.1038 1.31365 11.102C1.1013 11.1021 0.889123 11.0897 0.678223 11.0649C1.89507 11.8472 3.31156 12.2625 4.75822 12.2609C9.65537 12.2609 12.3325 8.20486 12.3325 4.68715C12.3325 4.57286 12.3297 4.45743 12.3245 4.34315C12.8452 3.96656 13.2947 3.50023 13.6519 2.966L13.6531 2.96429Z" fill="#003681"/>
</g>
<defs>
<clipPath id="clip0_611_4020">
<rect width="13.7143" height="13.7143" fill="white" transform="translate(0.143066 0.143066)"/>
</clipPath>
</defs>
</svg>
