<svg width="40" height="40" viewBox="0 0 40 40" fill="none" xmlns="http://www.w3.org/2000/svg">
<circle cx="20" cy="20" r="20" fill="#ADD0FF"/>
<path fill-rule="evenodd" clip-rule="evenodd" d="M29.5594 29.5242H25.6051V23.3375C25.6051 21.8613 25.5804 19.9642 23.5508 19.9642C21.4937 19.9642 21.1794 21.5718 21.1794 23.2308V29.5242H17.2289V16.8003H21.0194V18.5403H21.0747C21.6013 17.5403 22.8918 16.4851 24.8156 16.4851C28.8194 16.4851 29.5585 19.1194 29.5585 22.5461V29.5242H29.5594ZM12.7708 15.0632C12.4695 15.0635 12.171 15.0043 11.8926 14.8891C11.6141 14.7739 11.3611 14.6049 11.148 14.3918C10.9349 14.1787 10.7659 13.9257 10.6507 13.6472C10.5355 13.3687 10.4763 13.0703 10.4766 12.7689C10.4766 12.3154 10.611 11.8721 10.8629 11.495C11.1148 11.1179 11.4729 10.824 11.8918 10.6503C12.3108 10.4767 12.7718 10.4312 13.2166 10.5195C13.6614 10.6078 14.0701 10.8261 14.3909 11.1466C14.7117 11.4672 14.9302 11.8756 15.0189 12.3203C15.1076 12.7651 15.0625 13.2261 14.8892 13.6452C14.7159 14.0643 14.4223 14.4226 14.0454 14.6748C13.6685 14.9271 13.2253 15.0619 12.7718 15.0623L12.7708 15.0632ZM14.7489 29.5242H10.7908V16.8003H14.7489V29.5242Z" fill="white"/>
</svg>
