<svg width="56" height="56" viewBox="0 0 56 56" fill="none" xmlns="http://www.w3.org/2000/svg">
<circle cx="28" cy="28" r="28" fill="#F5F5F5"/>
<path fill-rule="evenodd" clip-rule="evenodd" d="M41.3827 41.3333H35.8468V32.672C35.8468 30.6053 35.8121 27.9493 32.9707 27.9493C30.0907 27.9493 29.6507 30.2 29.6507 32.5226V41.3333H24.1201V23.52H29.4267V25.956H29.5041C30.2414 24.556 32.0481 23.0786 34.7414 23.0786C40.3468 23.0786 41.3814 26.7666 41.3814 31.564V41.3333H41.3827ZM17.8787 21.088C17.4568 21.0883 17.039 21.0055 16.6492 20.8442C16.2593 20.6829 15.9051 20.4463 15.6067 20.148C15.3084 19.8496 15.0718 19.4954 14.9105 19.1055C14.7492 18.7157 14.6664 18.2979 14.6667 17.876C14.6667 17.2411 14.855 16.6204 15.2077 16.0925C15.5603 15.5645 16.0616 15.153 16.6481 14.9099C17.2346 14.6669 17.8801 14.6031 18.5028 14.7268C19.1255 14.8505 19.6976 15.156 20.1468 15.6047C20.5959 16.0535 20.9019 16.6253 21.0261 17.2479C21.1503 17.8706 21.087 18.5161 20.8444 19.1028C20.6019 19.6895 20.1907 20.1911 19.6631 20.5442C19.1355 20.8973 18.515 21.0861 17.8801 21.0866L17.8787 21.088ZM20.6481 41.3333H15.1067V23.52H20.6481V41.3333Z" fill="#7B7B7B"/>
</svg>
