<svg width="56" height="56" viewBox="0 0 56 56" fill="none" xmlns="http://www.w3.org/2000/svg">
<circle cx="28" cy="28" r="28" fill="#F5F5F5"/>
<g clip-path="url(#clip0_100_735)">
<path d="M31.9632 16.5763C29.3555 15.9704 26.6435 15.9704 24.0358 16.5763C22.5296 15.6526 21.3798 15.2281 20.5435 15.0489C20.1866 14.9683 19.8214 14.9304 19.4555 14.9358C19.289 14.9403 19.1233 14.9603 18.9606 14.9955L18.9392 14.9998L18.9307 15.0041H18.9243L19.2166 16.0302L18.9243 15.0062C18.7744 15.0486 18.6357 15.1232 18.5177 15.2249C18.3998 15.3267 18.3055 15.453 18.2416 15.595C17.6123 17.0045 17.4923 18.589 17.9024 20.0771C16.8403 21.3643 16.2615 22.9822 16.2662 24.651C16.2662 27.9641 17.2432 30.1913 18.9094 31.6227C20.0763 32.6254 21.4928 33.1587 22.9136 33.4638C22.679 34.1145 22.6192 34.8035 22.6662 35.5075V36.7833C21.7979 36.9646 21.1963 36.907 20.7675 36.7662C20.232 36.5891 19.8203 36.2329 19.4256 35.7209C19.2193 35.4449 19.0271 35.1587 18.8496 34.8633L18.728 34.6649C18.5745 34.4096 18.4152 34.1578 18.2502 33.9097C17.8448 33.3102 17.2432 32.5593 16.2704 32.3033L15.2379 32.0323L14.696 34.0974L15.7286 34.3683C15.8992 34.411 16.1211 34.571 16.4859 35.1065C16.6203 35.3049 16.7462 35.5118 16.8912 35.7507L17.0363 35.9854C17.2368 36.3097 17.4672 36.6681 17.7339 37.0179C18.2736 37.7219 19.0096 38.4323 20.1019 38.7929C20.8486 39.0403 21.6976 39.1001 22.6662 38.9507V42.9337C22.6662 43.2166 22.7786 43.4879 22.9786 43.6879C23.1786 43.888 23.4499 44.0003 23.7328 44.0003H32.2662C32.5491 44.0003 32.8204 43.888 33.0204 43.6879C33.2205 43.4879 33.3328 43.2166 33.3328 42.9337V35.3326C33.3328 34.6606 33.303 34.0441 33.1131 33.4702C34.5275 33.1715 35.9334 32.6382 37.0939 31.6355C38.7579 30.1934 39.7328 27.9449 39.7328 24.6126V24.6105C39.7275 22.9554 39.1485 21.3533 38.0944 20.0771C38.504 18.5896 38.3841 17.006 37.7552 15.5971C37.6918 15.4549 37.598 15.3284 37.4805 15.2263C37.3629 15.1242 37.2244 15.0491 37.0747 15.0062L36.7824 16.0302C37.0747 15.0062 37.0726 15.0062 37.0704 15.0062L37.0662 15.0041L37.0576 14.9998L37.0384 14.9955C36.9858 14.9818 36.9323 14.9712 36.8784 14.9635C36.7668 14.9472 36.6542 14.938 36.5414 14.9358C36.1755 14.9304 35.8103 14.9684 35.4534 15.0489C34.6192 15.2281 33.4694 15.6526 31.9632 16.5763Z" fill="#7B7B7B"/>
</g>
<defs>
<clipPath id="clip0_100_735">
<rect width="32" height="32" fill="white" transform="translate(12 12)"/>
</clipPath>
</defs>
</svg>
