<svg width="40" height="40" viewBox="0 0 40 40" fill="none" xmlns="http://www.w3.org/2000/svg">
<circle cx="20" cy="20" r="20" fill="#ADD0FF"/>
<g clip-path="url(#clip0_1637_1483)">
<path d="M22.8313 11.8406C20.9686 11.4078 19.0315 11.4078 17.1688 11.8406C16.093 11.1808 15.2717 10.8776 14.6743 10.7496C14.4194 10.692 14.1585 10.6649 13.8972 10.6688C13.7783 10.672 13.6599 10.6863 13.5437 10.7115L13.5284 10.7145L13.5223 10.7176H13.5177L13.7265 11.4505L13.5177 10.7191C13.4107 10.7494 13.3116 10.8027 13.2273 10.8753C13.1431 10.948 13.0758 11.0382 13.0301 11.1397C12.5806 12.1465 12.4949 13.2782 12.7878 14.3412C12.0292 15.2606 11.6158 16.4163 11.6191 17.6082C11.6191 19.9747 12.317 21.5656 13.5071 22.5881C14.3406 23.3042 15.3524 23.6852 16.3673 23.9031C16.1997 24.3679 16.157 24.8601 16.1905 25.3629V26.2742C15.5703 26.4037 15.1406 26.3625 14.8343 26.262C14.4518 26.1355 14.1577 25.881 13.8758 25.5153C13.7285 25.3182 13.5912 25.1137 13.4644 24.9027L13.3776 24.761C13.2679 24.5786 13.1541 24.3988 13.0362 24.2216C12.7467 23.7934 12.317 23.257 11.6221 23.0742L10.8846 22.8806L10.4976 24.3557L11.2351 24.5492C11.357 24.5797 11.5155 24.694 11.776 25.0764C11.872 25.2182 11.9619 25.366 12.0656 25.5366L12.1692 25.7042C12.3124 25.9359 12.477 26.1919 12.6675 26.4418C13.053 26.9446 13.5787 27.4521 14.3589 27.7096C14.8922 27.8863 15.4987 27.929 16.1905 27.8223V30.6673C16.1905 30.8694 16.2708 31.0632 16.4137 31.206C16.5566 31.3489 16.7503 31.4292 16.9524 31.4292H23.0477C23.2497 31.4292 23.4435 31.3489 23.5864 31.206C23.7293 31.0632 23.8096 30.8694 23.8096 30.6673V25.238C23.8096 24.758 23.7882 24.3176 23.6526 23.9077C24.6629 23.6943 25.6671 23.3134 26.496 22.5972C27.6846 21.5671 28.381 19.961 28.381 17.5808V17.5793C28.3772 16.3971 27.9636 15.2527 27.2107 14.3412C27.5033 13.2787 27.4176 12.1475 26.9684 11.1412C26.9231 11.0396 26.8561 10.9492 26.7721 10.8763C26.6882 10.8034 26.5892 10.7497 26.4823 10.7191L26.2736 11.4505C26.4823 10.7191 26.4808 10.7191 26.4793 10.7191L26.4762 10.7176L26.4701 10.7145L26.4564 10.7115C26.4188 10.7017 26.3806 10.6941 26.3421 10.6886C26.2624 10.677 26.182 10.6704 26.1014 10.6688C25.84 10.665 25.5792 10.6921 25.3242 10.7496C24.7284 10.8776 23.9071 11.1808 22.8313 11.8406Z" fill="white"/>
</g>
<defs>
<clipPath id="clip0_1637_1483">
<rect width="22.8571" height="22.8571" fill="white" transform="translate(8.57178 8.57178)"/>
</clipPath>
</defs>
</svg>
