<svg width="40" height="40" viewBox="0 0 40 40" fill="none" xmlns="http://www.w3.org/2000/svg">
<circle cx="20" cy="20" r="20" fill="#ADD0FF"/>
<g clip-path="url(#clip0_1637_1478)">
<path d="M31.0889 13.2737C30.2936 13.6261 29.4393 13.8642 28.5413 13.9718C29.4679 13.4173 30.1612 12.5447 30.4917 11.5166C29.6211 12.0337 28.6682 12.3977 27.6746 12.5928C27.0064 11.8793 26.1213 11.4064 25.1568 11.2475C24.1923 11.0886 23.2023 11.2526 22.3405 11.714C21.4788 12.1754 20.7934 12.9084 20.3909 13.7992C19.9884 14.69 19.8913 15.6887 20.1146 16.6404C18.3505 16.5518 16.6247 16.0933 15.0493 15.2946C13.4738 14.4959 12.084 13.3748 10.9698 12.0042C10.5889 12.6614 10.3698 13.4233 10.3698 14.2347C10.3694 14.9652 10.5493 15.6844 10.8935 16.3287C11.2378 16.973 11.7357 17.5223 12.3432 17.928C11.6387 17.9056 10.9497 17.7152 10.3336 17.3728V17.4299C10.3336 18.4544 10.688 19.4474 11.3367 20.2404C11.9854 21.0334 12.8885 21.5775 13.8927 21.7804C13.2391 21.9573 12.554 21.9833 11.8889 21.8566C12.1722 22.7381 12.7241 23.509 13.4673 24.0613C14.2105 24.6136 15.1078 24.9196 16.0336 24.9366C14.462 26.1703 12.5211 26.8395 10.5232 26.8366C10.1692 26.8367 9.81561 26.816 9.46411 26.7747C11.4922 28.0787 13.853 28.7707 16.2641 28.768C24.426 28.768 28.8879 22.008 28.8879 16.1452C28.8879 15.9547 28.8832 15.7623 28.8746 15.5718C29.7425 14.9442 30.4916 14.167 31.087 13.2766L31.0889 13.2737Z" fill="white"/>
</g>
<defs>
<clipPath id="clip0_1637_1478">
<rect width="22.8571" height="22.8571" fill="white" transform="translate(8.57178 8.57178)"/>
</clipPath>
</defs>
</svg>
