<svg width="56" height="56" viewBox="0 0 56 56" fill="none" xmlns="http://www.w3.org/2000/svg">
<circle cx="28" cy="28" r="28" fill="#1DA1F2"/>
<path d="M43.5237 18.5824C42.4104 19.0758 41.2144 19.4091 39.957 19.5598C41.2544 18.7835 42.2249 17.5617 42.6877 16.1224C41.4688 16.8464 40.1348 17.356 38.7437 17.6291C37.8082 16.6303 36.5691 15.9682 35.2188 15.7457C33.8685 15.5233 32.4825 15.7528 31.276 16.3988C30.0695 17.0447 29.1101 18.0709 28.5466 19.318C27.9831 20.5652 27.8471 21.9634 28.1597 23.2958C25.6899 23.1718 23.2739 22.5298 21.0683 21.4117C18.8627 20.2935 16.9168 18.724 15.357 16.8051C14.8237 17.7251 14.517 18.7918 14.517 19.9278C14.5164 20.9504 14.7683 21.9574 15.2502 22.8594C15.7321 23.7614 16.4292 24.5305 17.2797 25.0984C16.2934 25.0671 15.3289 24.8006 14.4664 24.3211V24.4011C14.4663 25.8354 14.9624 27.2256 15.8706 28.3358C16.7788 29.4459 18.0431 30.2077 19.449 30.4918C18.5341 30.7394 17.5748 30.7759 16.6437 30.5984C17.0404 31.8326 17.813 32.9118 18.8535 33.685C19.894 34.4582 21.1502 34.8867 22.4464 34.9104C20.2461 36.6377 17.5289 37.5746 14.7317 37.5704C14.2362 37.5706 13.7411 37.5416 13.249 37.4838C16.0883 39.3093 19.3935 40.2782 22.769 40.2744C34.1957 40.2744 40.4424 30.8104 40.4424 22.6024C40.4424 22.3358 40.4357 22.0664 40.4237 21.7998C41.6387 20.9211 42.6876 19.833 43.521 18.5864L43.5237 18.5824Z" fill="white"/>
</svg>
