<?xml version="1.0" standalone="no"?>
<!DOCTYPE svg PUBLIC "-//W3C//DTD SVG 20010904//EN"
 "http://www.w3.org/TR/2001/REC-SVG-20010904/DTD/svg10.dtd">
<svg version="1.0" xmlns="http://www.w3.org/2000/svg"
 width="512.000000pt" height="512.000000pt" viewBox="0 0 512.000000 512.000000"
 preserveAspectRatio="xMidYMid meet">
<metadata>
Created by potrace 1.16, written by Peter Selinger 2001-2019
</metadata>
<g transform="translate(0.000000,512.000000) scale(0.100000,-0.100000)"
fill="#0F477C" stroke="none">
<path d="M325 5016 c-128 -31 -232 -115 -288 -233 -30 -64 -32 -74 -32 -183 0
-109 2 -119 32 -183 81 -171 274 -273 453 -239 258 48 410 285 345 536 -57
219 -288 356 -510 302z"/>
<path d="M2210 4099 c-236 -28 -466 -125 -660 -278 -255 -201 -426 -501 -476
-835 -13 -84 -14 -232 -11 -945 4 -929 1 -875 67 -1077 60 -179 153 -333 289
-476 180 -190 378 -306 642 -375 l104 -27 865 -4 c964 -3 962 -4 1169 64 200
66 372 175 525 335 179 186 288 392 343 649 17 79 18 152 18 965 0 822 -1 886
-19 965 -114 520 -495 904 -1014 1022 -95 21 -111 22 -932 24 -459 1 -869 -2
-910 -7z m29 -629 c267 -105 403 -399 308 -663 -144 -396 -670 -471 -914 -130
-151 212 -128 489 56 673 145 144 367 192 550 120z m1734 -1304 c156 -46 265
-113 383 -239 371 -390 277 -1018 -195 -1297 -200 -118 -468 -143 -694 -65
-365 128 -602 504 -558 883 38 324 255 596 561 704 154 55 345 60 503 14z"/>
</g>
</svg>
