<svg width="32" height="32" viewBox="0 0 32 32" fill="none" xmlns="http://www.w3.org/2000/svg">
<path d="M27.334 13.5865H23.4806C20.3207 13.5865 17.7473 11.0132 17.7473 7.85317V3.99984C17.7473 3.2665 17.1473 2.6665 16.414 2.6665H10.7607C6.65398 2.6665 3.33398 5.33317 3.33398 10.0932V21.9065C3.33398 26.6665 6.65398 29.3332 10.7607 29.3332H21.2407C25.3473 29.3332 28.6673 26.6665 28.6673 21.9065V14.9198C28.6673 14.1865 28.0673 13.5865 27.334 13.5865ZM16.374 21.0398L13.7073 23.7065C13.614 23.7998 13.494 23.8798 13.374 23.9198C13.254 23.9732 13.134 23.9998 13.0007 23.9998C12.8673 23.9998 12.7473 23.9732 12.6273 23.9198C12.5207 23.8798 12.414 23.7998 12.334 23.7198C12.3207 23.7065 12.3073 23.7065 12.3073 23.6932L9.64065 21.0265C9.25398 20.6398 9.25398 19.9998 9.64065 19.6132C10.0273 19.2265 10.6673 19.2265 11.054 19.6132L12.0007 20.5865V14.9998C12.0007 14.4532 12.454 13.9998 13.0007 13.9998C13.5473 13.9998 14.0007 14.4532 14.0007 14.9998V20.5865L14.9607 19.6265C15.3473 19.2398 15.9873 19.2398 16.374 19.6265C16.7606 20.0132 16.7606 20.6532 16.374 21.0398Z" fill="#0064EF"/>
<path d="M23.2409 11.7468C24.5076 11.7602 26.2676 11.7602 27.7742 11.7602C28.5342 11.7602 28.9342 10.8668 28.4009 10.3335C26.4809 8.40015 23.0409 4.92015 21.0676 2.94682C20.5209 2.40015 19.5742 2.77349 19.5742 3.53349V8.18682C19.5742 10.1335 21.2276 11.7468 23.2409 11.7468Z" fill="#0064EF"/>
</svg>
