<svg width="64" height="64" viewBox="0 0 64 64" fill="none" xmlns="http://www.w3.org/2000/svg">
<path d="M54.666 27.1735H46.9593C40.6393 27.1735 35.4927 22.0268 35.4927 15.7068V8.00016C35.4927 6.5335 34.2927 5.3335 32.826 5.3335H21.5193C13.306 5.3335 6.66602 10.6668 6.66602 20.1868V43.8135C6.66602 53.3335 13.306 58.6668 21.5193 58.6668H42.4793C50.6927 58.6668 57.3327 53.3335 57.3327 43.8135V29.8402C57.3327 28.3735 56.1327 27.1735 54.666 27.1735ZM32.746 42.0802L27.4127 47.4135C27.226 47.6002 26.986 47.7602 26.746 47.8402C26.506 47.9468 26.266 48.0002 25.9993 48.0002C25.7327 48.0002 25.4927 47.9468 25.2527 47.8402C25.0393 47.7602 24.826 47.6002 24.666 47.4402C24.6393 47.4135 24.6127 47.4135 24.6127 47.3868L19.2793 42.0535C18.506 41.2802 18.506 40.0002 19.2793 39.2268C20.0527 38.4535 21.3327 38.4535 22.106 39.2268L23.9993 41.1735V30.0002C23.9993 28.9068 24.906 28.0002 25.9993 28.0002C27.0927 28.0002 27.9993 28.9068 27.9993 30.0002V41.1735L29.9193 39.2535C30.6927 38.4802 31.9727 38.4802 32.746 39.2535C33.5193 40.0268 33.5193 41.3068 32.746 42.0802Z" fill="white"/>
<path d="M46.4798 23.4932C49.0132 23.5198 52.5332 23.5198 55.5465 23.5198C57.0665 23.5198 57.8665 21.7332 56.7998 20.6665C52.9598 16.7998 46.0798 9.83982 42.1332 5.89315C41.0398 4.79982 39.1465 5.54649 39.1465 7.06649V16.3732C39.1465 20.2665 42.4532 23.4932 46.4798 23.4932Z" fill="white"/>
</svg>
