<svg width="1261" height="678" viewBox="0 0 1261 678" fill="none" xmlns="http://www.w3.org/2000/svg">
<path d="M387.181 221.118C386.755 220.621 386.813 219.872 387.31 219.446C387.807 219.019 388.555 219.077 388.981 219.574L439.824 278.933L438.024 280.477L387.181 221.118Z" fill="url(#paint0_linear_1611_9602)"/>
<path d="M882.041 213.222C882.467 212.724 883.215 212.667 883.712 213.093C884.21 213.52 884.267 214.268 883.841 214.766L826.756 281.418L824.956 279.874L882.041 213.222Z" fill="url(#paint1_linear_1611_9602)"/>
<path d="M242.795 574.348C242.248 574.708 241.513 574.556 241.153 574.009C240.793 573.462 240.945 572.726 241.492 572.366L437.45 443.325L438.753 445.307L242.795 574.348Z" fill="url(#paint2_linear_1611_9602)"/>
<path d="M1019.51 572.242C1020.06 572.602 1020.21 573.338 1019.85 573.885C1019.49 574.433 1018.75 574.584 1018.21 574.224L823.965 446.292L825.269 444.31L1019.51 572.242Z" fill="url(#paint3_linear_1611_9602)"/>
<path d="M717.43 107.927L718.335 105.734L796.077 137.897L795.171 140.09L717.43 107.927Z" fill="url(#paint4_linear_1611_9602)"/>
<path d="M553.009 106.509C553.615 106.259 554.308 106.546 554.558 107.152C554.808 107.757 554.52 108.451 553.915 108.701L475.356 141.201L474.45 139.009L553.009 106.509Z" fill="url(#paint5_linear_1611_9602)"/>
<g filter="url(#filter0_i_1611_9602)">
<rect x="309.289" y="54.5684" width="165.946" height="166.066" rx="9.48252" fill="#0B1033" fill-opacity="0.01"/>
<rect x="310.474" y="55.7537" width="163.575" height="163.695" rx="8.2972" stroke="#C960FF" stroke-opacity="0.6" stroke-width="2.37063"/>
<g clip-path="url(#clip0_1611_9602)">
<path d="M442.784 114.342C442.783 112.447 442.38 110.773 441.564 109.337C440.762 107.924 439.561 106.74 437.95 105.803C424.655 98.108 411.347 90.4363 398.056 82.7331C394.473 80.6566 390.999 80.7327 387.443 82.839C382.151 85.9715 355.656 101.209 347.761 105.799C344.51 107.689 342.928 110.58 342.927 114.338C342.922 129.814 342.927 145.29 342.922 160.766C342.922 162.618 343.309 164.26 344.089 165.675C344.892 167.131 346.109 168.347 347.757 169.305C355.652 173.895 382.15 189.131 387.441 192.265C390.999 194.372 394.473 194.448 398.058 192.371C411.349 184.667 424.658 176.996 437.955 169.3C439.602 168.343 440.82 167.126 441.622 165.671C442.401 164.256 442.789 162.615 442.789 160.761C442.789 160.761 442.789 129.818 442.784 114.342Z" fill="#A179DC"/>
<path d="M393.005 137.4L344.086 165.674C344.888 167.13 346.106 168.347 347.753 169.304C355.649 173.895 382.147 189.131 387.438 192.264C390.996 194.372 394.47 194.447 398.054 192.37C411.345 184.667 424.654 176.995 437.951 169.299C439.599 168.342 440.816 167.125 441.619 165.67L393.005 137.4Z" fill="#280068"/>
<path d="M442.791 114.343C442.791 112.448 442.387 110.774 441.571 109.338L393.016 137.402L441.629 165.672C442.409 164.257 442.796 162.615 442.797 160.762C442.797 160.762 442.797 129.819 442.791 114.343Z" fill="#390091"/>
<path d="M421.768 126.821V132.106H427.033V126.821H429.665V132.106H434.93V134.749H429.665V140.033H434.93V142.676H429.665V147.961H427.033V142.676H421.768V147.961H419.136V142.676H413.871V140.033H419.136V134.749H413.871V132.106H419.136V126.821H421.768ZM427.033 134.748H421.768V140.033H427.033V134.748Z" fill="white"/>
<path d="M393.082 100.287C406.814 100.287 418.804 107.773 425.226 118.901L425.163 118.793L409.006 128.132C405.823 122.722 399.987 119.07 393.293 118.995L393.082 118.994C382.874 118.994 374.598 127.301 374.598 137.549C374.594 140.778 375.435 143.953 377.035 146.754C380.222 152.338 386.211 156.104 393.082 156.104C399.996 156.104 406.019 152.29 409.189 146.647L409.112 146.782L425.245 156.164C418.893 167.197 407.068 174.661 393.496 174.809L393.082 174.812C379.306 174.812 367.283 167.279 360.877 156.092C357.75 150.631 355.961 144.3 355.961 137.549C355.961 116.97 372.58 100.286 393.082 100.286L393.082 100.287Z" fill="white"/>
</g>
</g>
<g filter="url(#filter1_i_1611_9602)">
<rect x="706.367" y="279.938" width="165.946" height="166.066" rx="9.48252" fill="#0B1033" fill-opacity="0.01"/>
<rect x="707.553" y="281.123" width="163.575" height="163.695" rx="8.2972" stroke="#7A33E9" stroke-width="2.37063"/>
<path d="M837.055 347.589C834.903 361.07 828.033 373.35 817.669 382.245C807.305 391.14 794.118 396.074 780.455 396.169C777.687 396.275 774.916 396.107 772.181 395.667C766.463 394.697 761.25 391.797 757.413 387.452C753.576 383.106 751.346 377.578 751.095 371.789C751.151 365.332 753.745 359.156 758.319 354.593C762.892 350.031 769.078 347.448 775.542 347.403C782.005 347.357 788.227 349.852 792.865 354.35C797.502 358.847 800.184 364.986 800.331 371.441C800.434 375.519 798.666 379.095 795.033 379.198C791.15 379.198 789.331 376.431 789.331 372.701V362.338C789.332 360.663 788.67 359.054 787.489 357.864C786.308 356.674 784.704 355.998 783.026 355.985H774.33C771.801 355.968 769.308 356.584 767.078 357.777C764.849 358.97 762.954 360.703 761.568 362.816C760.181 364.93 759.347 367.357 759.141 369.875C758.935 372.393 759.364 374.923 760.389 377.233C761.414 379.543 763.002 381.56 765.008 383.099C767.014 384.638 769.374 385.65 771.873 386.044C774.372 386.436 776.929 386.197 779.311 385.348C781.694 384.499 783.825 383.068 785.511 381.184L785.815 380.731L786.119 381.234C787.165 382.653 788.546 383.792 790.139 384.55C791.732 385.308 793.487 385.661 795.25 385.577C798.391 385.349 801.319 383.904 803.408 381.549C805.497 379.194 806.581 376.117 806.43 372.974C806.461 370.277 806.158 367.587 805.529 364.964C803.917 357.555 799.615 351.004 793.455 346.575C787.295 342.147 779.711 340.153 772.167 340.978C764.622 341.804 757.65 345.39 752.596 351.046C747.541 356.703 744.761 364.028 744.792 371.61C744.889 379.65 748.101 387.34 753.755 393.063C759.408 398.786 767.062 402.097 775.108 402.301C775.108 402.301 777.385 402.508 779.953 402.449C792.432 402.37 804.63 398.734 815.113 391.969C815.262 391.865 815.411 392.072 815.312 392.223C810.209 397.715 803.968 402.03 797.025 404.866C790.081 407.703 782.602 408.993 775.109 408.648C770.21 408.737 765.344 407.833 760.804 405.992C756.264 404.151 752.145 401.41 748.695 397.935C745.244 394.459 742.534 390.322 740.727 385.772C738.921 381.222 738.056 376.353 738.184 371.46C738.187 365.627 739.551 359.874 742.169 354.659C744.787 349.445 748.586 344.912 753.265 341.421C759.553 336.795 767.151 334.29 774.96 334.266H786.631C791.19 334.263 795.698 333.311 799.869 331.472C804.04 329.632 807.781 326.945 810.855 323.582C810.92 323.51 811.006 323.461 811.101 323.441C811.196 323.421 811.295 323.431 811.384 323.469C811.473 323.508 811.548 323.574 811.597 323.657C811.647 323.741 811.669 323.838 811.661 323.936C811.167 329.176 809.42 334.221 806.569 338.647C806.527 338.724 806.508 338.812 806.514 338.899C806.521 338.987 806.553 339.07 806.607 339.14C806.66 339.209 806.732 339.262 806.814 339.291C806.897 339.32 806.986 339.325 807.071 339.305C812.459 338.089 817.485 335.627 821.746 332.117C826.008 328.606 829.384 324.146 831.605 319.094C831.662 319.004 831.739 318.929 831.832 318.876C831.925 318.823 832.03 318.796 832.137 318.796C832.244 318.796 832.349 318.823 832.442 318.876C832.534 318.929 832.612 319.004 832.668 319.094C837.242 327.847 838.785 337.868 837.055 347.589ZM775.078 362.209C773.735 362.209 772.41 362.506 771.196 363.079C769.982 363.652 768.911 364.487 768.059 365.524C767.208 366.561 766.597 367.773 766.271 369.074C765.944 370.375 765.911 371.732 766.173 373.047C766.524 374.806 767.388 376.422 768.658 377.691C769.927 378.959 771.545 379.823 773.306 380.173C774.623 380.435 775.981 380.401 777.283 380.075C778.585 379.749 779.799 379.139 780.836 378.288C781.874 377.437 782.71 376.367 783.284 375.155C783.857 373.943 784.155 372.618 784.154 371.277V362.811C784.146 362.649 784.078 362.496 783.963 362.381C783.849 362.267 783.695 362.199 783.533 362.19L775.078 362.209Z" fill="#933BFF"/>
</g>
<g filter="url(#filter2_i_1611_9602)">
<g clip-path="url(#clip1_1611_9602)">
<rect x="795.285" y="47.4385" width="165.946" height="166.066" rx="9.48252" fill="#060E2D" fill-opacity="0.01"/>
<g clip-path="url(#clip2_1611_9602)">
<path d="M836.85 178.96L828.48 77.2783L928.432 77.4827L919.583 178.96L878.834 190.689L836.85 178.96Z" fill="#E34F26"/>
<path d="M878.809 180.869V86.9619L919.969 87.0981L912.629 171.116L878.809 180.869Z" fill="#EF652A"/>
<path d="M908.657 110.42L909.823 98.0078H846.504L850.002 136.062H893.701L891.988 152.293L877.993 156.043L863.792 151.951L863.038 142.267H850.483L852.198 162.044L877.992 169.205L903.992 162.044L907.49 123.445H861.597L860.293 110.42H908.657Z" fill="white"/>
</g>
</g>
<rect x="796.47" y="48.6238" width="163.575" height="163.695" rx="8.2972" stroke="#FF6B00" stroke-width="2.37063"/>
</g>
<rect x="554.638" y="1.185" width="163.576" height="163.696" rx="8.295" stroke="#01E9F0" stroke-width="2.37"/>
<g filter="url(#filter3_i_1611_9602)">
<rect x="553.453" y="0.000976562" width="165.946" height="165.945" rx="11.8531" fill="#070F2F" fill-opacity="0.01"/>
</g>
<rect x="554.638" y="1.18629" width="163.575" height="163.575" rx="10.6678" stroke="#01E9F0" stroke-opacity="0.01" stroke-width="2.37063"/>
<g clip-path="url(#clip3_1611_9602)">
<path d="M593.95 131.255L585.457 27.457L686.89 27.6656L677.909 131.255L636.556 143.229L593.95 131.255Z" fill="#1B73BA"/>
<path d="M636.555 133.207V37.3447L678.325 37.4838L670.877 123.251L636.555 133.207Z" fill="#1C88C7"/>
<path d="M667.948 49.5986H603.691L605.432 62.1288H635.924L605.92 75.0083L607.66 87.1213H651.867L650.265 104.038L635.298 106.962L621.723 103.481L620.678 93.8739H608.217L609.887 113.854L636.62 121.303L662.24 113.158L665.512 74.1027H638.43L667.947 61.8507L667.948 49.5986Z" fill="white"/>
</g>
<g filter="url(#filter4_i_1611_9602)">
<rect x="395.816" y="279.949" width="165.946" height="165.945" rx="11.8531" fill="#070F2F" fill-opacity="0.01"/>
</g>
<rect x="397.002" y="281.135" width="163.575" height="163.575" rx="10.6678" stroke="#1A7BFF" stroke-width="2.37063"/>
<g clip-path="url(#clip4_1611_9602)">
<path d="M437.452 347.843H437.517L438.314 348.921C441.14 346.829 444.237 345.318 447.615 344.383L447.623 344.381L447.63 344.379C451.049 343.392 454.518 343.119 458.047 343.557C461.522 343.996 464.803 345.091 467.899 346.848L467.907 346.853L467.916 346.858C470.998 348.553 473.608 350.791 475.756 353.58C477.465 355.828 478.789 358.293 479.728 360.982L479.728 360.982L479.731 360.991C480.67 363.625 481.195 366.338 481.306 369.137C481.36 371.372 481.113 373.547 480.566 375.666L480.562 375.683L480.558 375.7C480.061 377.84 479.316 379.897 478.322 381.874C477.331 383.786 476.09 385.595 474.595 387.301L474.592 387.304C473.165 388.939 471.516 390.388 469.639 391.65C465.714 394.286 461.415 395.792 456.72 396.177C452.024 396.505 447.562 395.684 443.31 393.711C441.268 392.723 439.364 391.518 437.596 390.093C435.885 388.61 434.368 386.965 433.044 385.157C431.773 383.344 430.693 381.393 429.805 379.3C428.983 377.172 428.464 374.995 428.245 372.764L428.243 372.745L428.241 372.725C428.187 372.294 428.132 371.886 428.078 371.502V371.499V371.497V371.494V371.491V371.489V371.486V371.483V371.48V371.478V371.475V371.472V371.47V371.467V371.464V371.462V371.459V371.456V371.453V371.451V371.448V371.445V371.443V371.44V371.437V371.434V371.432V371.429V371.426V371.424V371.421V371.418V371.415V371.413V371.41V371.407V371.405V371.402V371.399V371.396V371.394V371.391V371.388V371.386V371.383V371.38V371.377V371.375V371.372V371.369V371.367V371.364V371.361V371.359V371.356V371.353V371.35V371.348V371.345V371.342V371.34V371.337V371.334V371.331V371.329V371.326V371.323V371.321V371.318V371.315V371.312V371.31V371.307V371.304V371.302V371.299V371.296V371.293V371.291V371.288V371.285V371.283V371.28V371.277V371.275V371.272V371.269V371.266V371.264V371.261V371.258V371.256V371.253V371.25V371.247V371.245V371.242V371.239V371.237V371.234V371.231V371.228V371.226V371.223V371.22V371.218V371.215V371.212V371.209V371.207V371.204V371.201V371.199V371.196V371.193V371.19V371.188V371.185V371.182V371.18V371.177V371.174V371.172V371.169V371.166V371.163V371.161V371.158V371.155V371.153V371.15V371.147V371.144V371.142V371.139V371.136V371.134V371.131V371.128V371.125V371.123V371.12V371.117V371.115V371.112V371.109V371.106V371.104V371.101V371.098V371.096V371.093V371.09V371.088V371.085V371.082V371.079V371.077V371.074V371.071V371.069V371.066V371.063V371.06V371.058V371.055V371.052V371.05V371.047V371.044V371.041V371.039V371.036V371.033V371.031V371.028V371.025V371.022V371.02V371.017V371.014V371.012V371.009V371.006V371.004V371.001V370.998V370.995V370.993V370.99V370.987V370.985V370.982V370.979V370.976V370.974V370.971V370.968V370.966V370.963V370.96V370.957V370.955V370.952V370.949V370.947V370.944V370.941V370.938V370.936V370.933V370.93V370.928V370.925V370.922V370.92V370.917V370.914V370.911V370.909V370.906V370.903V370.901V370.898V370.895V370.892V370.89V370.887V370.884V370.882V370.879V370.876V370.873V370.871V370.868V370.865V370.863V370.86V370.857V370.854V370.852V370.849V370.846V370.844V370.841V370.838V370.836V370.833V370.83V370.827V370.825V370.822V370.819V370.817V370.814V370.811V370.808V370.806V370.803V370.8V370.798V370.795V370.792V370.789V370.787V370.784V370.781V370.779V370.776V370.773V370.77V370.768V370.765V370.762V370.76V370.757V370.754V370.752V370.749V370.746V370.743V370.741V370.738V370.735V370.733V370.73V370.727V370.724V370.722V370.719V370.716V370.714V370.711V370.708V370.705V370.703V370.7V370.697V370.695V370.692V370.689V370.686V370.684V370.681V370.678V370.676V370.673V370.67V370.668V370.665V370.662V370.659V370.657V370.654V370.651V370.649V370.646V370.643V370.64V370.638V370.635V370.632V370.63V370.627V370.624V370.621V370.619V370.616V370.613V370.611V370.608V370.605V370.602V370.6V370.597V370.594V370.592V370.589V370.586V370.584V370.581V370.578V370.575V370.573V370.57V370.567V370.565V370.562V370.559V370.556V370.554V370.551V370.548V370.546V370.543V370.54V370.537V370.535V370.532V370.529V370.527V370.524V370.521V370.518V370.516V370.513V370.51V370.508V370.505V370.502V370.5V370.497V370.494V370.491V370.489V370.486V370.483V370.481V370.478V370.475V370.472V370.47V370.467V370.464V370.462V370.459V370.456V370.453V370.451V370.448V370.445V370.443V370.44V370.437V370.434V370.432V370.429V370.426V370.424V370.421V370.418V370.415V370.413V370.41V370.407V370.405V370.402V370.399V370.397V370.394V370.391V370.388V370.386V370.383V370.38V370.378V370.375V370.372V370.369V370.367V370.364V370.361V370.359V370.356V370.353V370.35V370.348V370.345V370.342V370.34V370.337V370.334V370.331V370.329V370.326V370.323V370.321V370.318V370.315V370.312V370.31V370.307V370.304V370.302V370.299V370.296V370.294V370.291V370.288V370.285V370.283V370.28V370.277V370.275V370.272V370.269V370.266V370.264V370.261V370.258V370.256V370.253V370.25V370.247V370.245V370.242V370.239V370.237V370.234V370.231V370.228V370.226V370.223V370.22V370.218V369.09V333.534C428.078 332.409 428.453 331.509 429.221 330.746C429.99 329.982 430.9 329.606 432.041 329.606C433.182 329.606 434.092 329.982 434.86 330.746C435.628 331.509 436.004 332.409 436.004 333.534V347.026V347.757V347.843H437.452ZM446.678 386.61C447.207 386.9 447.738 387.163 448.271 387.399C448.382 387.454 448.49 387.508 448.592 387.559L448.66 387.592L448.73 387.619L450.127 388.139L450.211 387.92C453.261 388.698 456.389 388.639 459.568 387.746C461.702 387.183 463.658 386.275 465.427 385.021C467.252 383.769 468.798 382.234 470.059 380.42C472.581 376.907 473.688 372.935 473.377 368.565C473.249 366.242 472.678 364.036 471.665 361.958C470.664 359.847 469.347 357.977 467.715 356.355L467.694 356.335L467.673 356.315C466.85 355.56 465.962 354.898 465.011 354.329C464.154 353.783 463.242 353.27 462.276 352.79L462.248 352.776L462.219 352.763C459.825 351.699 457.327 351.164 454.735 351.164C452.157 351.164 449.668 351.665 447.281 352.664L447.266 352.67L447.251 352.677C444.867 353.737 442.787 355.207 441.023 357.085C439.263 358.958 437.937 361.089 437.054 363.47L437.051 363.479L437.047 363.489C435.914 366.679 435.661 369.945 436.291 373.263L436.294 373.276L436.296 373.289C436.986 376.591 438.433 379.53 440.628 382.085C442.322 384.079 444.341 385.594 446.678 386.61Z" fill="#0094FF" stroke="#0094FF" stroke-width="2.89742"/>
<path d="M496.679 358.66C497.781 358.66 498.722 358.998 499.356 359.475C499.99 359.953 500.249 360.503 500.249 360.991V393.756C500.249 394.245 499.99 394.795 499.356 395.272C498.722 395.75 497.781 396.088 496.679 396.088C495.578 396.088 494.636 395.75 494.002 395.272C493.368 394.795 493.109 394.245 493.109 393.756V360.991C493.109 360.503 493.368 359.953 494.002 359.475C494.636 358.998 495.578 358.66 496.679 358.66Z" fill="#0094FF" stroke="#0094FF" stroke-width="2.89742"/>
<path d="M500.249 347.017C500.249 348.962 498.66 350.555 496.679 350.555C494.698 350.555 493.109 348.962 493.109 347.017C493.109 345.072 494.698 343.479 496.679 343.479C498.66 343.479 500.249 345.072 500.249 347.017Z" fill="#0094FF" stroke="#0094FF" stroke-width="2.89742"/>
<path d="M517.637 343.479C519.502 343.479 520.771 344.822 520.771 346.193V393.37C520.771 394.741 519.502 396.084 517.637 396.084C515.772 396.084 514.503 394.741 514.503 393.37V346.193C514.503 344.822 515.772 343.479 517.637 343.479Z" fill="#0094FF" stroke="#0094FF" stroke-width="2.89742"/>
<path d="M510.007 358.743H525.718C528.008 358.743 529.507 360.316 529.507 361.847C529.507 363.377 528.008 364.951 525.718 364.951H510.007C507.717 364.951 506.218 363.377 506.218 361.847C506.218 360.316 507.717 358.743 510.007 358.743Z" fill="#0094FF" stroke="#0094FF" stroke-width="2.89742"/>
</g>
<g filter="url(#filter5_d_1611_9602)">
<g clip-path="url(#clip5_1611_9602)">
<g filter="url(#filter6_f_1611_9602)">
<path d="M262 623C262 679.885 220.139 726 168.5 726C116.861 726 75 679.885 75 623C75 566.115 116.861 520 168.5 520C220.139 520 262 566.115 262 623Z" fill="#1F3986" fill-opacity="0.9"/>
</g>
<path d="M73.1283 615.878C72.2981 621.083 69.6488 625.824 65.6517 629.258C61.6545 632.692 56.5688 634.597 51.2993 634.634C50.2319 634.675 49.1631 634.61 48.1086 634.44C45.9031 634.065 43.8928 632.946 42.4129 631.268C40.933 629.591 40.073 627.456 39.9764 625.221C39.9977 622.728 40.9982 620.344 42.7622 618.582C44.526 616.821 46.9118 615.824 49.4045 615.806C51.8972 615.789 54.2969 616.752 56.0854 618.488C57.8741 620.225 58.9083 622.595 58.9648 625.087C59.0047 626.661 58.3229 628.042 56.9215 628.082C55.4243 628.082 54.7224 627.013 54.7224 625.573V621.573C54.723 620.926 54.4677 620.305 54.0122 619.845C53.5567 619.386 52.9381 619.125 52.2911 619.12H48.9374C47.9619 619.113 47.0003 619.351 46.1404 619.812C45.2805 620.272 44.5498 620.941 44.0152 621.757C43.4804 622.573 43.1586 623.51 43.0792 624.482C42.9998 625.455 43.1653 626.431 43.5606 627.323C43.9559 628.215 44.5684 628.994 45.3421 629.588C46.1158 630.182 47.026 630.573 47.9897 630.725C48.9533 630.876 49.9396 630.784 50.8584 630.456C51.7772 630.128 52.5992 629.576 53.2493 628.848L53.3665 628.674L53.4839 628.868C53.8873 629.416 54.4198 629.856 55.0342 630.148C55.6485 630.441 56.3256 630.577 57.0053 630.545C58.2169 630.457 59.346 629.898 60.1516 628.989C60.9572 628.08 61.3755 626.892 61.3172 625.679C61.329 624.638 61.2123 623.599 60.9698 622.586C60.3478 619.726 58.689 617.197 56.3132 615.487C53.9373 613.777 51.0126 613.007 48.1029 613.326C45.1931 613.645 42.5044 615.029 40.555 617.213C38.6055 619.397 37.5334 622.225 37.5452 625.152C37.5827 628.256 38.8217 631.225 41.0021 633.435C43.1823 635.644 46.1341 636.923 49.2373 637.001C49.2373 637.001 50.1155 637.081 51.1057 637.058C55.9187 637.028 60.6231 635.624 64.6659 633.012C64.7235 632.972 64.781 633.052 64.7427 633.11C62.7744 635.231 60.3676 636.897 57.6898 637.992C55.012 639.087 52.1276 639.585 49.2376 639.452C47.3483 639.486 45.4716 639.137 43.7207 638.426C41.9699 637.715 40.3812 636.657 39.0505 635.316C37.7197 633.974 36.6745 632.376 35.9778 630.62C35.2811 628.863 34.9475 626.983 34.997 625.094C34.9979 622.842 35.5241 620.621 36.5337 618.608C37.5434 616.595 39.0086 614.845 40.8131 613.497C43.2381 611.711 46.1686 610.743 49.1803 610.735H53.6813C55.4396 610.733 57.1783 610.366 58.7868 609.656C60.3952 608.945 61.8382 607.908 63.0236 606.609C63.0487 606.582 63.082 606.563 63.1186 606.555C63.1553 606.547 63.1934 606.551 63.2277 606.566C63.2621 606.581 63.2908 606.606 63.3099 606.639C63.3292 606.671 63.3378 606.708 63.3347 606.746C63.1439 608.769 62.4704 610.717 61.3708 612.426C61.3545 612.456 61.3472 612.489 61.3497 612.523C61.3523 612.557 61.3646 612.589 61.3853 612.616C61.4057 612.643 61.4336 612.663 61.4654 612.674C61.4972 612.686 61.5316 612.688 61.5644 612.68C63.6422 612.21 65.5808 611.26 67.2242 609.905C68.8676 608.549 70.1699 606.827 71.0264 604.877C71.0482 604.842 71.0781 604.813 71.1138 604.793C71.1497 604.772 71.1902 604.762 71.2314 604.762C71.2726 604.762 71.3131 604.772 71.349 604.793C71.3848 604.813 71.4148 604.842 71.4363 604.877C73.2004 608.256 73.7954 612.125 73.1283 615.878ZM49.2257 621.523C48.7079 621.523 48.1966 621.637 47.7285 621.859C47.2604 622.08 46.8473 622.402 46.5188 622.802C46.1903 623.203 45.9547 623.671 45.829 624.173C45.7032 624.675 45.6904 625.199 45.7915 625.707C45.9266 626.386 46.26 627.01 46.7497 627.5C47.2393 627.989 47.8631 628.323 48.5423 628.458C49.0501 628.559 49.574 628.546 50.0762 628.42C50.5784 628.295 51.0464 628.059 51.4466 627.73C51.8467 627.402 52.1691 626.989 52.3903 626.521C52.6116 626.053 52.7263 625.541 52.7262 625.024V621.755C52.7231 621.692 52.6968 621.633 52.6525 621.589C52.6083 621.545 52.5491 621.519 52.4866 621.515L49.2257 621.523Z" fill="white"/>
</g>
<rect x="6.5" y="571.5" width="96" height="96" rx="7.5" stroke="#1A7BFF" stroke-opacity="0.3" shape-rendering="crispEdges"/>
</g>
<g filter="url(#filter7_d_1611_9602)">
<g clip-path="url(#clip6_1611_9602)">
<g filter="url(#filter8_f_1611_9602)">
<path d="M406 623C406 679.885 364.139 726 312.5 726C260.861 726 219 679.885 219 623C219 566.115 260.861 520 312.5 520C364.139 520 406 566.115 406 623Z" fill="#1F3986" fill-opacity="0.9"/>
</g>
<path d="M204.492 596H223V643.999H175V596H193.508C193.504 596.086 193.495 596.171 193.495 596.258C193.495 599.298 195.96 601.763 199 601.763C202.04 601.763 204.505 599.298 204.505 596.258C204.505 596.171 204.496 596.086 204.492 596ZM215.428 638.863H218.728L213.73 621.869H208.713L204.597 638.863H207.796L208.629 635.079H214.345L215.428 638.863ZM197.916 638.863H201.074L205.125 621.869H202.007L199.526 633.579H199.485L197.128 621.869H194.153L191.531 633.436H191.49L189.314 621.869H186.136L189.798 638.863H193.016L195.537 627.296H195.578L197.916 638.863ZM210.625 626.058H211.962L213.556 632.294H209.238L210.625 626.058Z" fill="white"/>
</g>
<rect x="150.5" y="571.5" width="96" height="96" rx="7.5" stroke="#1A7BFF" stroke-opacity="0.3" shape-rendering="crispEdges"/>
</g>
<g filter="url(#filter9_d_1611_9602)">
<g clip-path="url(#clip7_1611_9602)">
<g filter="url(#filter10_f_1611_9602)">
<path d="M550 623C550 679.885 508.139 726 456.5 726C404.861 726 363 679.885 363 623C363 566.115 404.861 520 456.5 520C508.139 520 550 566.115 550 623Z" fill="#1F3986" fill-opacity="0.9"/>
</g>
<path d="M320.434 630.413V624.852C321.563 625.533 322.686 626.04 323.801 626.373C324.931 626.706 325.995 626.873 326.994 626.873C328.211 626.873 329.167 626.706 329.862 626.373C330.571 626.04 330.926 625.533 330.926 624.852C330.926 624.418 330.767 624.056 330.448 623.766C330.13 623.476 329.717 623.223 329.21 623.006C328.718 622.789 328.175 622.593 327.581 622.419C326.987 622.245 326.415 622.05 325.865 621.833C324.981 621.5 324.199 621.145 323.518 620.768C322.852 620.377 322.287 619.928 321.824 619.421C321.375 618.915 321.028 618.328 320.781 617.662C320.55 616.996 320.434 616.206 320.434 615.294C320.434 614.048 320.702 612.977 321.238 612.079C321.788 611.181 322.512 610.45 323.41 609.885C324.322 609.305 325.358 608.885 326.516 608.625C327.689 608.35 328.906 608.212 330.166 608.212C331.151 608.212 332.15 608.292 333.164 608.451C334.177 608.596 335.177 608.813 336.162 609.103V614.403C335.293 613.896 334.358 613.52 333.359 613.274C332.374 613.013 331.404 612.883 330.448 612.883C329.999 612.883 329.572 612.926 329.167 613.013C328.776 613.085 328.428 613.201 328.124 613.361C327.82 613.505 327.581 613.701 327.407 613.947C327.233 614.179 327.146 614.447 327.146 614.751C327.146 615.156 327.277 615.504 327.537 615.794C327.798 616.083 328.138 616.337 328.558 616.554C328.978 616.757 329.442 616.945 329.949 617.119C330.47 617.278 330.984 617.445 331.491 617.618C332.403 617.937 333.229 618.285 333.967 618.661C334.706 619.038 335.336 619.479 335.857 619.986C336.393 620.493 336.799 621.087 337.074 621.768C337.364 622.448 337.508 623.259 337.508 624.201C337.508 625.518 337.219 626.648 336.639 627.589C336.075 628.516 335.314 629.277 334.358 629.87C333.417 630.45 332.324 630.87 331.078 631.13C329.847 631.406 328.566 631.543 327.233 631.543C324.786 631.543 322.519 631.167 320.434 630.413Z" fill="white"/>
<rect x="333.828" y="604.293" width="3.70747" height="27.8061" fill="#0B163C"/>
<path d="M342.811 622.667H346.489C347.602 622.667 348.594 622.543 349.464 622.294L350.415 619.364L353.073 611.176C352.87 610.855 352.639 610.552 352.379 610.266C351.015 608.755 349.018 608 346.39 608H337.145V630.334H342.811V622.667ZM347.679 613.138C348.212 613.675 348.478 614.392 348.478 615.292C348.478 616.198 348.244 616.917 347.775 617.448C347.261 618.038 346.315 618.334 344.936 618.334H342.811V612.333H344.952C346.237 612.333 347.146 612.602 347.679 613.138Z" fill="white"/>
<path d="M351.219 626.334L352.932 622H357.88L355.532 615.427L358.469 608L366.881 630.334H360.677L359.24 626.334H351.219Z" fill="white"/>
</g>
<rect x="294.5" y="571.5" width="96" height="96" rx="7.5" stroke="#1A7BFF" stroke-opacity="0.3" shape-rendering="crispEdges"/>
</g>
<g filter="url(#filter11_d_1611_9602)">
<g clip-path="url(#clip8_1611_9602)">
<g filter="url(#filter12_f_1611_9602)">
<path d="M694 623C694 679.885 652.139 726 600.5 726C548.861 726 507 679.885 507 623C507 566.115 548.861 520 600.5 520C652.139 520 694 566.115 694 623Z" fill="#1F3986" fill-opacity="0.9"/>
</g>
<path d="M498.324 625.788L499.711 622.282H503.715L501.815 616.963L504.191 610.953L510.997 629.025H505.978L504.815 625.788H498.324Z" fill="white"/>
<path d="M494.045 629.025L501.331 610.953L496.5 610.953L491.516 622.632L487.972 610.953H484.258L480.453 622.632L477.769 617.31L475.34 624.793L477.806 629.025H482.56L485.999 618.552L489.278 629.025H494.045Z" fill="white"/>
<path d="M467.585 622.821H470.561C471.462 622.821 472.265 622.721 472.969 622.52L473.738 620.149L475.889 613.523C475.725 613.263 475.538 613.018 475.328 612.786C474.223 611.564 472.608 610.953 470.481 610.953H463V629.025H467.585V622.821ZM471.524 615.111C471.955 615.545 472.171 616.126 472.171 616.854C472.171 617.587 471.981 618.168 471.602 618.598C471.186 619.076 470.42 619.315 469.305 619.315H467.585V614.46H469.318C470.357 614.46 471.093 614.677 471.524 615.111Z" fill="white"/>
</g>
<rect x="438.5" y="571.5" width="96" height="96" rx="7.5" stroke="#1A7BFF" stroke-opacity="0.3" shape-rendering="crispEdges"/>
</g>
<g filter="url(#filter13_d_1611_9602)">
<g clip-path="url(#clip9_1611_9602)">
<g filter="url(#filter14_f_1611_9602)">
<path d="M838 623C838 679.885 796.139 726 744.5 726C692.861 726 651 679.885 651 623C651 566.115 692.861 520 744.5 520C796.139 520 838 566.115 838 623Z" fill="#1F3986" fill-opacity="0.9"/>
</g>
<path d="M621.74 591C621.476 591.003 621.202 591.066 620.952 591.205C620.159 591.644 619.868 592.663 620.307 593.456L622.098 596.689C617.784 599.359 614.925 603.918 614.925 609.122C614.925 609.143 614.925 609.176 614.925 609.209C614.925 609.22 614.925 609.226 614.925 609.239C614.925 609.256 614.925 609.281 614.925 609.285V610.089C614.096 609.135 612.878 608.533 611.518 608.533C609.024 608.533 607 610.558 607 613.051V626.967C607 629.46 609.024 631.484 611.518 631.484C612.878 631.484 614.096 630.882 614.925 629.929V631.878C614.925 634.506 617.075 636.657 619.703 636.657H620.916V642.847C620.916 645.341 622.94 647.365 625.434 647.365C627.927 647.365 629.951 645.341 629.951 642.847V636.657H632.049V642.847C632.049 645.341 634.073 647.365 636.566 647.365C639.06 647.365 641.084 645.341 641.084 642.847V636.657H642.297C644.925 636.657 647.075 634.506 647.075 631.878V629.929C647.904 630.882 649.122 631.484 650.482 631.484C652.976 631.484 655 629.46 655 626.967V613.051C655 610.558 652.976 608.533 650.482 608.533C649.122 608.533 647.904 609.135 647.075 610.089V609.301V609.285C647.075 609.261 647.075 609.236 647.075 609.239C647.075 609.19 647.075 609.151 647.075 609.122C647.075 603.919 644.21 599.364 639.897 596.694L641.693 593.456C642.132 592.663 641.841 591.644 641.048 591.205C640.798 591.066 640.524 591.003 640.26 591C639.675 590.994 639.1 591.303 638.797 591.849L636.919 595.241C635.083 594.564 633.086 594.193 631 594.193C628.916 594.193 626.915 594.56 625.081 595.236L623.203 591.849C622.9 591.303 622.325 590.994 621.74 591Z" fill="#070D22"/>
<path d="M611.521 609.709C609.66 609.709 608.18 611.189 608.18 613.05V626.966C608.18 628.826 609.66 630.307 611.521 630.307C613.381 630.307 614.861 628.826 614.861 626.966V613.05C614.861 611.189 613.381 609.709 611.521 609.709ZM650.485 609.709C648.625 609.709 647.145 611.189 647.145 613.05V626.966C647.145 628.826 648.625 630.307 650.485 630.307C652.346 630.307 653.826 628.826 653.826 626.966V613.05C653.826 611.189 652.346 609.709 650.485 609.709Z" fill="white"/>
<path d="M625.435 625.591C623.574 625.591 622.094 627.071 622.094 628.932V642.848C622.094 644.708 623.574 646.189 625.435 646.189C627.295 646.189 628.775 644.708 628.775 642.848V628.932C628.775 627.071 627.295 625.591 625.435 625.591ZM636.567 625.591C634.707 625.591 633.227 627.071 633.227 628.932V642.848C633.227 644.708 634.707 646.189 636.567 646.189C638.428 646.189 639.908 644.708 639.908 642.848V628.932C639.908 627.071 638.428 625.591 636.567 625.591Z" fill="white"/>
<path d="M621.754 592.177C621.675 592.178 621.601 592.198 621.529 592.238C621.29 592.37 621.212 592.644 621.344 592.883L623.698 597.134C619.17 599.49 616.112 603.968 616.105 609.106H645.902C645.896 603.968 642.838 599.49 638.31 597.134L640.663 592.883C640.796 592.644 640.717 592.37 640.479 592.238C640.406 592.198 640.333 592.178 640.254 592.177C640.085 592.175 639.925 592.26 639.834 592.422L637.45 596.72C635.5 595.855 633.312 595.369 631.004 595.369C628.695 595.369 626.508 595.855 624.557 596.72L622.173 592.422C622.083 592.26 621.923 592.175 621.754 592.177ZM616.105 610.283V631.878C616.105 633.874 617.712 635.48 619.707 635.48H642.3C644.296 635.48 645.902 633.874 645.902 631.878V610.283H616.105Z" fill="white"/>
<path d="M624.122 601.167C623.442 601.167 622.879 601.73 622.879 602.41C622.879 603.09 623.442 603.653 624.122 603.653C624.802 603.653 625.365 603.09 625.365 602.41C625.365 601.73 624.802 601.167 624.122 601.167ZM637.874 601.167C637.194 601.167 636.631 601.73 636.631 602.41C636.631 603.09 637.194 603.653 637.874 603.653C638.555 603.653 639.118 603.09 639.118 602.41C639.118 601.73 638.555 601.167 637.874 601.167Z" fill="#070D22"/>
</g>
<rect x="582.5" y="571.5" width="96" height="96" rx="7.5" stroke="#1A7BFF" stroke-opacity="0.3" shape-rendering="crispEdges"/>
</g>
<g filter="url(#filter15_d_1611_9602)">
<g clip-path="url(#clip10_1611_9602)">
<g filter="url(#filter16_f_1611_9602)">
<path d="M982 623C982 679.885 940.139 726 888.5 726C836.861 726 795 679.885 795 623C795 566.115 836.861 520 888.5 520C940.139 520 982 566.115 982 623Z" fill="#1F3986" fill-opacity="0.9"/>
</g>
<g clip-path="url(#clip11_1611_9602)">
<path d="M764.091 596C756.869 596 751 601.869 751 609.091V630.908C751 638.131 756.869 644 764.091 644H785.908C793.131 644 799 638.131 799 630.909V609.091C799 601.869 793.131 596 785.909 596H764.091ZM760.402 612.44C761.165 612.44 761.734 612.985 761.734 613.705C761.734 614.415 761.165 614.96 760.402 614.96C759.628 614.96 759.062 614.414 759.062 613.705C759.062 612.986 759.628 612.44 760.402 612.44ZM771.77 613.062C775.752 613.062 778.206 615.842 778.206 620.304C778.206 624.755 775.773 627.559 771.77 627.559C767.744 627.559 765.301 624.765 765.301 620.304C765.301 615.832 767.799 613.062 771.77 613.062ZM785.877 613.062C788.68 613.062 790.73 614.697 790.86 617.032H788.766C788.559 615.755 787.458 614.961 785.843 614.961C784.141 614.961 783.018 615.766 783.018 617.021C783.018 618.003 783.738 618.571 785.549 618.996L787.066 619.366C789.914 620.032 791.081 621.178 791.081 623.261C791.081 625.912 789.029 627.57 785.745 627.57C782.68 627.57 780.618 625.989 780.465 623.513H782.594C782.779 624.822 784.065 625.66 785.908 625.66C787.633 625.66 788.898 624.766 788.898 623.534C788.898 622.486 788.101 621.855 786.268 621.418L784.479 620.992C781.981 620.402 780.836 619.192 780.836 617.163C780.836 614.699 782.856 613.062 785.877 613.062ZM771.77 615.059C769.162 615.059 767.506 617.097 767.506 620.304C767.506 623.5 769.108 625.563 771.77 625.563C774.399 625.563 776.014 623.501 776.014 620.304C776.015 617.098 774.399 615.059 771.77 615.059ZM759.378 616.794H761.429V627.234H759.378V616.794Z" fill="white"/>
</g>
</g>
<rect x="726.5" y="571.5" width="96" height="96" rx="7.5" stroke="#1A7BFF" stroke-opacity="0.3" shape-rendering="crispEdges"/>
</g>
<g filter="url(#filter17_d_1611_9602)">
<g clip-path="url(#clip12_1611_9602)">
<g filter="url(#filter18_f_1611_9602)">
<path d="M1126 623C1126 679.885 1084.14 726 1032.5 726C980.861 726 939 679.885 939 623C939 566.115 980.861 520 1032.5 520C1084.14 520 1126 566.115 1126 623Z" fill="#1F3986" fill-opacity="0.9"/>
</g>
<g clip-path="url(#clip13_1611_9602)">
<path fill-rule="evenodd" clip-rule="evenodd" d="M895.015 618.4L895 602.796L914.201 600.189V618.4H895.015H895.015ZM917.399 599.724L942.993 595.999V618.4H917.399L917.399 599.724ZM943 621.6L942.995 644.001L917.4 640.4V621.6H943L943 621.6ZM914.199 639.991L895.014 637.36V621.596H914.199V639.991Z" fill="white"/>
</g>
</g>
<rect x="870.5" y="571.5" width="96" height="96" rx="7.5" stroke="#1A7BFF" stroke-opacity="0.3" shape-rendering="crispEdges"/>
</g>
<g filter="url(#filter19_d_1611_9602)">
<g clip-path="url(#clip14_1611_9602)">
<g filter="url(#filter20_f_1611_9602)">
<path d="M1270 623C1270 679.885 1228.14 726 1176.5 726C1124.86 726 1083 679.885 1083 623C1083 566.115 1124.86 520 1176.5 520C1228.14 520 1270 566.115 1270 623Z" fill="#1F3986" fill-opacity="0.9"/>
</g>
<circle cx="1063" cy="620" r="24" fill="white"/>
<path d="M1065.84 611.697V611.343C1061.25 611.343 1065.4 614.35 1065.84 611.697ZM1067.97 610.105C1068.59 608.248 1071.77 608.071 1072.12 610.37H1071.24C1070.97 609.044 1068.76 608.955 1068.76 611.343C1068.76 612.67 1070.8 613.466 1071.24 611.874H1072.12C1071.59 614.792 1066.91 613.731 1067.97 610.105ZM1055.05 608.69H1055.94V609.486C1056.38 608.425 1058.33 608.336 1058.68 609.574C1059.3 608.248 1061.78 608.336 1061.78 610.193V613.466H1060.8V610.459C1060.8 609.132 1058.86 609.132 1058.86 610.547V613.466H1057.88V610.37C1057.67 609.543 1056.57 609.377 1056.12 610.105L1055.94 610.547V613.466H1055.05V608.69ZM1057.09 631.596C1052.93 631.596 1050.37 628.678 1050.37 623.99C1050.37 619.303 1052.93 616.473 1057.09 616.473C1061.25 616.473 1063.9 619.391 1063.9 623.99C1063.9 628.589 1061.33 631.596 1057.09 631.596ZM1064.87 613.466C1062.31 614.085 1061.95 610.813 1064.61 610.724L1065.84 610.636V610.282C1065.93 609.221 1064.16 609.132 1063.9 610.105H1063.01C1063.02 609.887 1063.08 609.673 1063.19 609.486C1063.9 608.248 1066.82 608.248 1066.82 610.193V613.466H1065.93V612.67C1065.82 612.871 1065.67 613.046 1065.49 613.184C1065.31 613.321 1065.1 613.417 1064.87 613.466ZM1070.89 631.596C1067.7 631.419 1065.49 629.916 1065.31 627.263H1067.44C1069.47 633.63 1080.35 626.82 1069.65 624.609C1067.97 624.256 1066.73 623.46 1066.2 622.487C1062.84 615.942 1075.84 613.996 1076.19 620.718H1074.16C1073.54 616.384 1065.49 618.772 1068.41 621.779C1069.65 623.017 1072.21 622.929 1074.07 623.725C1078.49 625.759 1076.37 631.773 1070.89 631.596ZM1057.09 618.33C1054.26 618.33 1052.49 620.541 1052.49 623.99C1052.49 627.44 1054.26 629.651 1057.09 629.651C1059.92 629.651 1061.78 627.528 1061.78 623.99C1061.78 620.453 1060.01 618.33 1057.09 618.33Z" fill="#070D22"/>
</g>
<rect x="1014.5" y="571.5" width="96" height="96" rx="7.5" stroke="#1A7BFF" stroke-opacity="0.3" shape-rendering="crispEdges"/>
</g>
<g filter="url(#filter21_d_1611_9602)">
<g clip-path="url(#clip15_1611_9602)">
<g filter="url(#filter22_f_1611_9602)">
<path d="M1414 623C1414 679.885 1372.14 726 1320.5 726C1268.86 726 1227 679.885 1227 623C1227 566.115 1268.86 520 1320.5 520C1372.14 520 1414 566.115 1414 623Z" fill="#1F3986" fill-opacity="0.9"/>
</g>
<path d="M1229.51 636.126C1227.86 635.451 1227.16 634.555 1227.23 633.219C1227.3 631.659 1226.41 630.516 1225.99 630.065C1226.24 629.095 1226.99 625.739 1225.99 622.824C1224.92 619.705 1221.66 614.94 1218.29 610.256C1216.91 608.333 1216.84 606.242 1216.77 603.821C1216.7 601.512 1216.61 598.895 1215.33 595.985C1213.93 592.817 1211.12 591 1207.62 591C1205.54 591 1203.4 591.65 1201.76 592.784C1198.39 595.108 1198.83 600.174 1199.13 603.526C1199.17 603.985 1199.21 604.419 1199.23 604.789C1199.43 608.072 1199.25 609.802 1199.01 610.328C1198.86 610.672 1198.12 611.65 1197.33 612.685C1196.52 613.756 1195.6 614.97 1194.84 616.102C1193.94 617.463 1193.21 619.543 1192.51 621.555C1191.99 623.028 1191.51 624.418 1191.03 625.25C1190.14 626.848 1190.36 628.339 1190.55 629.028C1190.21 629.264 1189.72 629.729 1189.3 630.605C1188.8 631.674 1187.78 632.248 1185.67 632.654C1184.7 632.853 1184.03 633.261 1183.68 633.868C1183.17 634.751 1183.45 635.86 1183.7 636.618C1184.08 637.733 1183.84 638.438 1183.42 639.719C1183.32 640.014 1183.21 640.349 1183.1 640.718C1182.92 641.301 1182.98 641.83 1183.29 642.292C1184.08 643.512 1186.41 643.942 1188.81 644.225C1190.24 644.395 1191.81 644.968 1193.32 645.522C1194.81 646.064 1196.34 646.625 1197.74 646.796C1197.95 646.822 1198.16 646.836 1198.36 646.836C1200.47 646.836 1201.42 645.438 1201.73 644.863C1202.48 644.709 1205.09 644.214 1207.78 644.148C1210.47 644.071 1213.07 644.602 1213.8 644.767C1214.03 645.21 1214.64 646.222 1215.62 646.743C1216.15 647.035 1216.9 647.203 1217.66 647.203H1217.66C1218.47 647.203 1220.02 647.01 1221.24 645.721C1222.47 644.426 1225.52 642.773 1227.75 641.566C1228.25 641.296 1228.71 641.044 1229.12 640.817C1230.37 640.122 1231.06 639.13 1231 638.095C1230.95 637.235 1230.38 636.48 1229.51 636.126ZM1201.78 635.877C1201.63 634.778 1200.21 633.689 1198.58 632.428C1197.24 631.397 1195.72 630.228 1195.31 629.238C1194.44 627.196 1195.12 623.605 1196.31 621.756C1196.9 620.83 1197.38 619.426 1197.84 618.069C1198.34 616.603 1198.86 615.087 1199.43 614.423C1200.35 613.387 1201.2 611.371 1201.35 609.783C1202.2 610.602 1203.54 611.641 1204.76 611.641C1204.95 611.641 1205.14 611.616 1205.31 611.567C1206.15 611.324 1207.39 610.609 1208.59 609.918C1209.62 609.322 1210.89 608.587 1211.37 608.52C1212.19 609.698 1216.96 620.25 1217.45 623.639C1217.83 626.32 1217.42 628.536 1217.22 629.404C1217.05 629.382 1216.86 629.364 1216.65 629.364C1215.32 629.364 1214.97 630.089 1214.88 630.521C1214.64 631.646 1214.62 635.242 1214.62 636.05C1214.14 636.66 1211.71 639.533 1208.22 640.05C1206.8 640.256 1205.48 640.361 1204.28 640.361C1203.26 640.361 1202.61 640.282 1202.34 640.241L1200.58 638.236C1201.27 637.895 1201.97 637.175 1201.78 635.877ZM1204.01 602.821C1203.95 602.844 1203.9 602.87 1203.85 602.897C1203.84 602.778 1203.83 602.658 1203.81 602.537C1203.62 601.436 1202.89 600.637 1202.07 600.637C1202.01 600.637 1201.95 600.641 1201.89 600.651C1201.4 600.732 1201.02 601.096 1200.81 601.612C1201 600.48 1201.64 599.642 1202.4 599.642C1203.29 599.642 1204.05 600.846 1204.05 602.272C1204.05 602.451 1204.03 602.63 1204.01 602.821ZM1210.95 603.67C1211.03 603.409 1211.08 603.127 1211.08 602.835C1211.08 601.542 1210.26 600.53 1209.21 600.53C1208.19 600.53 1207.35 601.564 1207.35 602.835C1207.35 602.921 1207.36 603.008 1207.37 603.095C1207.31 603.074 1207.26 603.054 1207.21 603.034C1207.09 602.677 1207.03 602.305 1207.03 601.926C1207.03 600.38 1208.02 599.123 1209.23 599.123C1210.45 599.123 1211.44 600.38 1211.44 601.926C1211.44 602.569 1211.26 603.182 1210.95 603.67ZM1210.06 606.678C1210.04 606.756 1210 606.791 1209.59 607.005C1209.38 607.113 1209.12 607.248 1208.8 607.445L1208.58 607.576C1207.71 608.103 1205.68 609.337 1205.12 609.41C1204.75 609.46 1204.52 609.315 1204 608.96C1203.88 608.88 1203.75 608.795 1203.62 608.709C1202.68 608.091 1202.07 607.411 1202 607.145C1202.31 606.908 1203.07 606.315 1203.46 605.963C1204.25 605.228 1205.05 604.735 1205.44 604.735C1205.46 604.735 1205.48 604.736 1205.5 604.74C1205.96 604.821 1207.1 605.277 1207.94 605.609C1208.32 605.763 1208.65 605.895 1208.89 605.979C1209.62 606.233 1210.01 606.557 1210.06 606.678ZM1216.68 641.021C1217.1 639.145 1217.57 636.592 1217.5 635.088C1217.48 634.746 1217.45 634.374 1217.42 634.014C1217.36 633.342 1217.28 632.342 1217.37 632.045C1217.38 632.038 1217.4 632.031 1217.42 632.025C1217.43 632.886 1217.61 634.601 1218.99 635.2C1219.39 635.378 1219.86 635.468 1220.37 635.468C1221.75 635.468 1223.27 634.794 1223.9 634.169C1224.27 633.802 1224.58 633.352 1224.79 632.995C1224.84 633.134 1224.87 633.315 1224.85 633.549C1224.77 634.818 1225.39 636.501 1226.56 637.121L1226.73 637.211C1227.15 637.43 1228.26 638.013 1228.28 638.289C1228.28 638.289 1228.27 638.322 1228.21 638.379C1227.93 638.634 1226.95 639.133 1226 639.617C1224.33 640.474 1222.42 641.446 1221.57 642.344C1220.36 643.611 1219 644.461 1218.18 644.461C1218.08 644.461 1217.99 644.449 1217.91 644.423C1217.02 644.145 1216.28 642.857 1216.68 641.021ZM1186.25 636.235C1186.16 635.808 1186.09 635.472 1186.17 635.146C1186.22 634.905 1187.42 634.646 1187.93 634.536C1188.64 634.381 1189.38 634.22 1189.86 633.926C1190.52 633.53 1190.87 632.799 1191.19 632.154C1191.41 631.688 1191.65 631.205 1191.92 631.047C1191.94 631.038 1191.96 631.027 1192.01 631.027C1192.53 631.027 1193.62 632.122 1194.25 633.102C1194.41 633.35 1194.71 633.845 1195.05 634.418C1196.08 636.131 1197.48 638.478 1198.21 639.265C1198.87 639.972 1199.94 641.331 1199.67 642.497C1199.48 643.401 1198.46 644.137 1198.22 644.3C1198.13 644.32 1198.02 644.33 1197.89 644.33C1196.49 644.33 1193.72 643.164 1192.23 642.537L1192.01 642.444C1191.17 642.095 1189.81 641.876 1188.5 641.663C1187.45 641.494 1186.02 641.262 1185.79 641.053C1185.59 640.837 1185.82 640.135 1186.01 639.516C1186.16 639.072 1186.3 638.612 1186.38 638.13C1186.5 637.362 1186.36 636.737 1186.25 636.235Z" fill="white"/>
</g>
<rect x="1158.5" y="571.5" width="96" height="96" rx="7.5" stroke="#1A7BFF" stroke-opacity="0.3" shape-rendering="crispEdges"/>
</g>
<defs>
<filter id="filter0_i_1611_9602" x="309.289" y="54.5684" width="165.945" height="170.808" filterUnits="userSpaceOnUse" color-interpolation-filters="sRGB">
<feFlood flood-opacity="0" result="BackgroundImageFix"/>
<feBlend mode="normal" in="SourceGraphic" in2="BackgroundImageFix" result="shape"/>
<feColorMatrix in="SourceAlpha" type="matrix" values="0 0 0 0 0 0 0 0 0 0 0 0 0 0 0 0 0 0 127 0" result="hardAlpha"/>
<feOffset dy="4.74126"/>
<feGaussianBlur stdDeviation="14.8164"/>
<feComposite in2="hardAlpha" operator="arithmetic" k2="-1" k3="1"/>
<feColorMatrix type="matrix" values="0 0 0 0 0.705882 0 0 0 0 0.341176 0 0 0 0 0.917647 0 0 0 1 0"/>
<feBlend mode="normal" in2="shape" result="effect1_innerShadow_1611_9602"/>
</filter>
<filter id="filter1_i_1611_9602" x="706.367" y="279.938" width="165.945" height="170.808" filterUnits="userSpaceOnUse" color-interpolation-filters="sRGB">
<feFlood flood-opacity="0" result="BackgroundImageFix"/>
<feBlend mode="normal" in="SourceGraphic" in2="BackgroundImageFix" result="shape"/>
<feColorMatrix in="SourceAlpha" type="matrix" values="0 0 0 0 0 0 0 0 0 0 0 0 0 0 0 0 0 0 127 0" result="hardAlpha"/>
<feOffset dy="4.74126"/>
<feGaussianBlur stdDeviation="14.8164"/>
<feComposite in2="hardAlpha" operator="arithmetic" k2="-1" k3="1"/>
<feColorMatrix type="matrix" values="0 0 0 0 0.478431 0 0 0 0 0.2 0 0 0 0 0.913725 0 0 0 1 0"/>
<feBlend mode="normal" in2="shape" result="effect1_innerShadow_1611_9602"/>
</filter>
<filter id="filter2_i_1611_9602" x="795.285" y="47.4385" width="165.945" height="170.808" filterUnits="userSpaceOnUse" color-interpolation-filters="sRGB">
<feFlood flood-opacity="0" result="BackgroundImageFix"/>
<feBlend mode="normal" in="SourceGraphic" in2="BackgroundImageFix" result="shape"/>
<feColorMatrix in="SourceAlpha" type="matrix" values="0 0 0 0 0 0 0 0 0 0 0 0 0 0 0 0 0 0 127 0" result="hardAlpha"/>
<feOffset dy="4.74126"/>
<feGaussianBlur stdDeviation="14.8164"/>
<feComposite in2="hardAlpha" operator="arithmetic" k2="-1" k3="1"/>
<feColorMatrix type="matrix" values="0 0 0 0 0.996078 0 0 0 0 0.419608 0 0 0 0 0 0 0 0 0.8 0"/>
<feBlend mode="normal" in2="shape" result="effect1_innerShadow_1611_9602"/>
</filter>
<filter id="filter3_i_1611_9602" x="553.453" y="0.000976562" width="165.945" height="170.687" filterUnits="userSpaceOnUse" color-interpolation-filters="sRGB">
<feFlood flood-opacity="0" result="BackgroundImageFix"/>
<feBlend mode="normal" in="SourceGraphic" in2="BackgroundImageFix" result="shape"/>
<feColorMatrix in="SourceAlpha" type="matrix" values="0 0 0 0 0 0 0 0 0 0 0 0 0 0 0 0 0 0 127 0" result="hardAlpha"/>
<feOffset dy="4.74126"/>
<feGaussianBlur stdDeviation="14.8164"/>
<feComposite in2="hardAlpha" operator="arithmetic" k2="-1" k3="1"/>
<feColorMatrix type="matrix" values="0 0 0 0 0 0 0 0 0 0.703766 0 0 0 0 0.725 0 0 0 0.8 0"/>
<feBlend mode="normal" in2="shape" result="effect1_innerShadow_1611_9602"/>
</filter>
<filter id="filter4_i_1611_9602" x="395.816" y="279.949" width="165.945" height="170.687" filterUnits="userSpaceOnUse" color-interpolation-filters="sRGB">
<feFlood flood-opacity="0" result="BackgroundImageFix"/>
<feBlend mode="normal" in="SourceGraphic" in2="BackgroundImageFix" result="shape"/>
<feColorMatrix in="SourceAlpha" type="matrix" values="0 0 0 0 0 0 0 0 0 0 0 0 0 0 0 0 0 0 127 0" result="hardAlpha"/>
<feOffset dy="4.74126"/>
<feGaussianBlur stdDeviation="14.8164"/>
<feComposite in2="hardAlpha" operator="arithmetic" k2="-1" k3="1"/>
<feColorMatrix type="matrix" values="0 0 0 0 0.101961 0 0 0 0 0.482353 0 0 0 0 1 0 0 0 1 0"/>
<feBlend mode="normal" in2="shape" result="effect1_innerShadow_1611_9602"/>
</filter>
<filter id="filter5_d_1611_9602" x="0" y="569" width="109" height="109" filterUnits="userSpaceOnUse" color-interpolation-filters="sRGB">
<feFlood flood-opacity="0" result="BackgroundImageFix"/>
<feColorMatrix in="SourceAlpha" type="matrix" values="0 0 0 0 0 0 0 0 0 0 0 0 0 0 0 0 0 0 127 0" result="hardAlpha"/>
<feOffset dy="4"/>
<feGaussianBlur stdDeviation="3"/>
<feComposite in2="hardAlpha" operator="out"/>
<feColorMatrix type="matrix" values="0 0 0 0 0.0156863 0 0 0 0 0.0392157 0 0 0 0 0.141176 0 0 0 0.25 0"/>
<feBlend mode="normal" in2="BackgroundImageFix" result="effect1_dropShadow_1611_9602"/>
<feBlend mode="normal" in="SourceGraphic" in2="effect1_dropShadow_1611_9602" result="shape"/>
</filter>
<filter id="filter6_f_1611_9602" x="-35" y="410" width="407" height="426" filterUnits="userSpaceOnUse" color-interpolation-filters="sRGB">
<feFlood flood-opacity="0" result="BackgroundImageFix"/>
<feBlend mode="normal" in="SourceGraphic" in2="BackgroundImageFix" result="shape"/>
<feGaussianBlur stdDeviation="55" result="effect1_foregroundBlur_1611_9602"/>
</filter>
<filter id="filter7_d_1611_9602" x="144" y="569" width="109" height="109" filterUnits="userSpaceOnUse" color-interpolation-filters="sRGB">
<feFlood flood-opacity="0" result="BackgroundImageFix"/>
<feColorMatrix in="SourceAlpha" type="matrix" values="0 0 0 0 0 0 0 0 0 0 0 0 0 0 0 0 0 0 127 0" result="hardAlpha"/>
<feOffset dy="4"/>
<feGaussianBlur stdDeviation="3"/>
<feComposite in2="hardAlpha" operator="out"/>
<feColorMatrix type="matrix" values="0 0 0 0 0.0156863 0 0 0 0 0.0392157 0 0 0 0 0.141176 0 0 0 0.25 0"/>
<feBlend mode="normal" in2="BackgroundImageFix" result="effect1_dropShadow_1611_9602"/>
<feBlend mode="normal" in="SourceGraphic" in2="effect1_dropShadow_1611_9602" result="shape"/>
</filter>
<filter id="filter8_f_1611_9602" x="109" y="410" width="407" height="426" filterUnits="userSpaceOnUse" color-interpolation-filters="sRGB">
<feFlood flood-opacity="0" result="BackgroundImageFix"/>
<feBlend mode="normal" in="SourceGraphic" in2="BackgroundImageFix" result="shape"/>
<feGaussianBlur stdDeviation="55" result="effect1_foregroundBlur_1611_9602"/>
</filter>
<filter id="filter9_d_1611_9602" x="288" y="569" width="109" height="109" filterUnits="userSpaceOnUse" color-interpolation-filters="sRGB">
<feFlood flood-opacity="0" result="BackgroundImageFix"/>
<feColorMatrix in="SourceAlpha" type="matrix" values="0 0 0 0 0 0 0 0 0 0 0 0 0 0 0 0 0 0 127 0" result="hardAlpha"/>
<feOffset dy="4"/>
<feGaussianBlur stdDeviation="3"/>
<feComposite in2="hardAlpha" operator="out"/>
<feColorMatrix type="matrix" values="0 0 0 0 0.0156863 0 0 0 0 0.0392157 0 0 0 0 0.141176 0 0 0 0.25 0"/>
<feBlend mode="normal" in2="BackgroundImageFix" result="effect1_dropShadow_1611_9602"/>
<feBlend mode="normal" in="SourceGraphic" in2="effect1_dropShadow_1611_9602" result="shape"/>
</filter>
<filter id="filter10_f_1611_9602" x="253" y="410" width="407" height="426" filterUnits="userSpaceOnUse" color-interpolation-filters="sRGB">
<feFlood flood-opacity="0" result="BackgroundImageFix"/>
<feBlend mode="normal" in="SourceGraphic" in2="BackgroundImageFix" result="shape"/>
<feGaussianBlur stdDeviation="55" result="effect1_foregroundBlur_1611_9602"/>
</filter>
<filter id="filter11_d_1611_9602" x="432" y="569" width="109" height="109" filterUnits="userSpaceOnUse" color-interpolation-filters="sRGB">
<feFlood flood-opacity="0" result="BackgroundImageFix"/>
<feColorMatrix in="SourceAlpha" type="matrix" values="0 0 0 0 0 0 0 0 0 0 0 0 0 0 0 0 0 0 127 0" result="hardAlpha"/>
<feOffset dy="4"/>
<feGaussianBlur stdDeviation="3"/>
<feComposite in2="hardAlpha" operator="out"/>
<feColorMatrix type="matrix" values="0 0 0 0 0.0156863 0 0 0 0 0.0392157 0 0 0 0 0.141176 0 0 0 0.25 0"/>
<feBlend mode="normal" in2="BackgroundImageFix" result="effect1_dropShadow_1611_9602"/>
<feBlend mode="normal" in="SourceGraphic" in2="effect1_dropShadow_1611_9602" result="shape"/>
</filter>
<filter id="filter12_f_1611_9602" x="397" y="410" width="407" height="426" filterUnits="userSpaceOnUse" color-interpolation-filters="sRGB">
<feFlood flood-opacity="0" result="BackgroundImageFix"/>
<feBlend mode="normal" in="SourceGraphic" in2="BackgroundImageFix" result="shape"/>
<feGaussianBlur stdDeviation="55" result="effect1_foregroundBlur_1611_9602"/>
</filter>
<filter id="filter13_d_1611_9602" x="576" y="569" width="109" height="109" filterUnits="userSpaceOnUse" color-interpolation-filters="sRGB">
<feFlood flood-opacity="0" result="BackgroundImageFix"/>
<feColorMatrix in="SourceAlpha" type="matrix" values="0 0 0 0 0 0 0 0 0 0 0 0 0 0 0 0 0 0 127 0" result="hardAlpha"/>
<feOffset dy="4"/>
<feGaussianBlur stdDeviation="3"/>
<feComposite in2="hardAlpha" operator="out"/>
<feColorMatrix type="matrix" values="0 0 0 0 0.0156863 0 0 0 0 0.0392157 0 0 0 0 0.141176 0 0 0 0.25 0"/>
<feBlend mode="normal" in2="BackgroundImageFix" result="effect1_dropShadow_1611_9602"/>
<feBlend mode="normal" in="SourceGraphic" in2="effect1_dropShadow_1611_9602" result="shape"/>
</filter>
<filter id="filter14_f_1611_9602" x="541" y="410" width="407" height="426" filterUnits="userSpaceOnUse" color-interpolation-filters="sRGB">
<feFlood flood-opacity="0" result="BackgroundImageFix"/>
<feBlend mode="normal" in="SourceGraphic" in2="BackgroundImageFix" result="shape"/>
<feGaussianBlur stdDeviation="55" result="effect1_foregroundBlur_1611_9602"/>
</filter>
<filter id="filter15_d_1611_9602" x="720" y="569" width="109" height="109" filterUnits="userSpaceOnUse" color-interpolation-filters="sRGB">
<feFlood flood-opacity="0" result="BackgroundImageFix"/>
<feColorMatrix in="SourceAlpha" type="matrix" values="0 0 0 0 0 0 0 0 0 0 0 0 0 0 0 0 0 0 127 0" result="hardAlpha"/>
<feOffset dy="4"/>
<feGaussianBlur stdDeviation="3"/>
<feComposite in2="hardAlpha" operator="out"/>
<feColorMatrix type="matrix" values="0 0 0 0 0.0156863 0 0 0 0 0.0392157 0 0 0 0 0.141176 0 0 0 0.25 0"/>
<feBlend mode="normal" in2="BackgroundImageFix" result="effect1_dropShadow_1611_9602"/>
<feBlend mode="normal" in="SourceGraphic" in2="effect1_dropShadow_1611_9602" result="shape"/>
</filter>
<filter id="filter16_f_1611_9602" x="685" y="410" width="407" height="426" filterUnits="userSpaceOnUse" color-interpolation-filters="sRGB">
<feFlood flood-opacity="0" result="BackgroundImageFix"/>
<feBlend mode="normal" in="SourceGraphic" in2="BackgroundImageFix" result="shape"/>
<feGaussianBlur stdDeviation="55" result="effect1_foregroundBlur_1611_9602"/>
</filter>
<filter id="filter17_d_1611_9602" x="864" y="569" width="109" height="109" filterUnits="userSpaceOnUse" color-interpolation-filters="sRGB">
<feFlood flood-opacity="0" result="BackgroundImageFix"/>
<feColorMatrix in="SourceAlpha" type="matrix" values="0 0 0 0 0 0 0 0 0 0 0 0 0 0 0 0 0 0 127 0" result="hardAlpha"/>
<feOffset dy="4"/>
<feGaussianBlur stdDeviation="3"/>
<feComposite in2="hardAlpha" operator="out"/>
<feColorMatrix type="matrix" values="0 0 0 0 0.0156863 0 0 0 0 0.0392157 0 0 0 0 0.141176 0 0 0 0.25 0"/>
<feBlend mode="normal" in2="BackgroundImageFix" result="effect1_dropShadow_1611_9602"/>
<feBlend mode="normal" in="SourceGraphic" in2="effect1_dropShadow_1611_9602" result="shape"/>
</filter>
<filter id="filter18_f_1611_9602" x="829" y="410" width="407" height="426" filterUnits="userSpaceOnUse" color-interpolation-filters="sRGB">
<feFlood flood-opacity="0" result="BackgroundImageFix"/>
<feBlend mode="normal" in="SourceGraphic" in2="BackgroundImageFix" result="shape"/>
<feGaussianBlur stdDeviation="55" result="effect1_foregroundBlur_1611_9602"/>
</filter>
<filter id="filter19_d_1611_9602" x="1008" y="569" width="109" height="109" filterUnits="userSpaceOnUse" color-interpolation-filters="sRGB">
<feFlood flood-opacity="0" result="BackgroundImageFix"/>
<feColorMatrix in="SourceAlpha" type="matrix" values="0 0 0 0 0 0 0 0 0 0 0 0 0 0 0 0 0 0 127 0" result="hardAlpha"/>
<feOffset dy="4"/>
<feGaussianBlur stdDeviation="3"/>
<feComposite in2="hardAlpha" operator="out"/>
<feColorMatrix type="matrix" values="0 0 0 0 0.0156863 0 0 0 0 0.0392157 0 0 0 0 0.141176 0 0 0 0.25 0"/>
<feBlend mode="normal" in2="BackgroundImageFix" result="effect1_dropShadow_1611_9602"/>
<feBlend mode="normal" in="SourceGraphic" in2="effect1_dropShadow_1611_9602" result="shape"/>
</filter>
<filter id="filter20_f_1611_9602" x="973" y="410" width="407" height="426" filterUnits="userSpaceOnUse" color-interpolation-filters="sRGB">
<feFlood flood-opacity="0" result="BackgroundImageFix"/>
<feBlend mode="normal" in="SourceGraphic" in2="BackgroundImageFix" result="shape"/>
<feGaussianBlur stdDeviation="55" result="effect1_foregroundBlur_1611_9602"/>
</filter>
<filter id="filter21_d_1611_9602" x="1152" y="569" width="109" height="109" filterUnits="userSpaceOnUse" color-interpolation-filters="sRGB">
<feFlood flood-opacity="0" result="BackgroundImageFix"/>
<feColorMatrix in="SourceAlpha" type="matrix" values="0 0 0 0 0 0 0 0 0 0 0 0 0 0 0 0 0 0 127 0" result="hardAlpha"/>
<feOffset dy="4"/>
<feGaussianBlur stdDeviation="3"/>
<feComposite in2="hardAlpha" operator="out"/>
<feColorMatrix type="matrix" values="0 0 0 0 0.0156863 0 0 0 0 0.0392157 0 0 0 0 0.141176 0 0 0 0.25 0"/>
<feBlend mode="normal" in2="BackgroundImageFix" result="effect1_dropShadow_1611_9602"/>
<feBlend mode="normal" in="SourceGraphic" in2="effect1_dropShadow_1611_9602" result="shape"/>
</filter>
<filter id="filter22_f_1611_9602" x="1117" y="410" width="407" height="426" filterUnits="userSpaceOnUse" color-interpolation-filters="sRGB">
<feFlood flood-opacity="0" result="BackgroundImageFix"/>
<feBlend mode="normal" in="SourceGraphic" in2="BackgroundImageFix" result="shape"/>
<feGaussianBlur stdDeviation="55" result="effect1_foregroundBlur_1611_9602"/>
</filter>
<linearGradient id="paint0_linear_1611_9602" x1="338.233" y1="176.389" x2="494.465" y2="357.499" gradientUnits="userSpaceOnUse">
<stop offset="0.262861" stop-color="#C960FF"/>
<stop offset="0.629166" stop-color="#1A7BFF" stop-opacity="0.2"/>
</linearGradient>
<linearGradient id="paint1_linear_1611_9602" x1="900.157" y1="180.294" x2="753.344" y2="358.947" gradientUnits="userSpaceOnUse">
<stop stop-color="#FF6B00"/>
<stop offset="0.623958" stop-color="#7A33E9" stop-opacity="0.2"/>
</linearGradient>
<linearGradient id="paint2_linear_1611_9602" x1="85.8046" y1="687.403" x2="663.136" y2="351.851" gradientUnits="userSpaceOnUse">
<stop offset="0.244876" stop-color="#081130" stop-opacity="0"/>
<stop offset="0.633045" stop-color="#1A7BFF"/>
</linearGradient>
<linearGradient id="paint3_linear_1611_9602" x1="1183.98" y1="670.891" x2="651.54" y2="277.436" gradientUnits="userSpaceOnUse">
<stop offset="0.244876" stop-color="#060F2E" stop-opacity="0"/>
<stop offset="0.633045" stop-color="#7A33E9"/>
</linearGradient>
<linearGradient id="paint4_linear_1611_9602" x1="576.383" y1="70.8828" x2="882.015" y2="194.473" gradientUnits="userSpaceOnUse">
<stop offset="0.363924" stop-color="#01E9F0"/>
<stop offset="0.764583" stop-color="#FF6500" stop-opacity="0.2"/>
</linearGradient>
<linearGradient id="paint5_linear_1611_9602" x1="683.403" y1="31.2568" x2="372.201" y2="162.618" gradientUnits="userSpaceOnUse">
<stop offset="0.310709" stop-color="#02D9E3"/>
<stop offset="0.701419" stop-color="#C960FF" stop-opacity="0.23"/>
</linearGradient>
<clipPath id="clip0_1611_9602">
<rect width="100.753" height="113.791" fill="white" transform="translate(342.484 80.6572)"/>
</clipPath>
<clipPath id="clip1_1611_9602">
<rect x="795.285" y="47.4385" width="165.946" height="166.066" rx="9.48252" fill="white"/>
</clipPath>
<clipPath id="clip2_1611_9602">
<rect width="99.9519" height="113.791" fill="white" transform="translate(828.477 77.0859)"/>
</clipPath>
<clipPath id="clip3_1611_9602">
<rect width="101.433" height="116.162" fill="white" transform="translate(585.457 27.2627)"/>
</clipPath>
<clipPath id="clip4_1611_9602">
<rect width="104.309" height="104.308" fill="white" transform="translate(426.629 310.771)"/>
</clipPath>
<clipPath id="clip5_1611_9602">
<rect x="6" y="571" width="97" height="97" rx="8" fill="white"/>
</clipPath>
<clipPath id="clip6_1611_9602">
<rect x="150" y="571" width="97" height="97" rx="8" fill="white"/>
</clipPath>
<clipPath id="clip7_1611_9602">
<rect x="294" y="571" width="97" height="97" rx="8" fill="white"/>
</clipPath>
<clipPath id="clip8_1611_9602">
<rect x="438" y="571" width="97" height="97" rx="8" fill="white"/>
</clipPath>
<clipPath id="clip9_1611_9602">
<rect x="582" y="571" width="97" height="97" rx="8" fill="white"/>
</clipPath>
<clipPath id="clip10_1611_9602">
<rect x="726" y="571" width="97" height="97" rx="8" fill="white"/>
</clipPath>
<clipPath id="clip11_1611_9602">
<rect width="48" height="48" fill="white" transform="translate(751 596)"/>
</clipPath>
<clipPath id="clip12_1611_9602">
<rect x="870" y="571" width="97" height="97" rx="8" fill="white"/>
</clipPath>
<clipPath id="clip13_1611_9602">
<rect width="48" height="48" fill="white" transform="translate(895 596)"/>
</clipPath>
<clipPath id="clip14_1611_9602">
<rect x="1014" y="571" width="97" height="97" rx="8" fill="white"/>
</clipPath>
<clipPath id="clip15_1611_9602">
<rect x="1158" y="571" width="97" height="97" rx="8" fill="white"/>
</clipPath>
</defs>
</svg>
