<svg width="961" height="668" viewBox="0 0 961 668" fill="none" xmlns="http://www.w3.org/2000/svg">
<path d="M237.179 221.155C236.744 220.647 236.803 219.882 237.311 219.446V219.446C237.819 219.01 238.584 219.069 239.019 219.577L290.995 280.259L289.155 281.838L237.179 221.155Z" fill="url(#paint0_linear_1660_11765)"/>
<path d="M732.041 213.222C732.467 212.724 733.215 212.667 733.712 213.093V213.093C734.21 213.52 734.267 214.268 733.841 214.766L676.756 281.418L674.956 279.874L732.041 213.222Z" fill="url(#paint1_linear_1660_11765)"/>
<path d="M92.7952 574.348C92.2481 574.708 91.513 574.556 91.1531 574.009V574.009C90.7933 573.462 90.945 572.726 91.4921 572.366L287.45 443.325L288.753 445.307L92.7952 574.348Z" fill="url(#paint2_linear_1660_11765)"/>
<path d="M869.51 572.242C870.057 572.602 870.208 573.338 869.848 573.885V573.885C869.488 574.433 868.753 574.584 868.206 574.224L673.965 446.292L675.269 444.31L869.51 572.242Z" fill="url(#paint3_linear_1660_11765)"/>
<path d="M567.43 107.927L568.335 105.734L646.077 137.897L645.171 140.09L567.43 107.927Z" fill="url(#paint4_linear_1660_11765)"/>
<path d="M403.009 106.509C403.615 106.259 404.308 106.546 404.558 107.152V107.152C404.808 107.757 404.52 108.451 403.915 108.701L325.356 141.201L324.45 139.009L403.009 106.509Z" fill="url(#paint5_linear_1660_11765)"/>
<rect x="160.474" y="55.7537" width="163.575" height="163.695" rx="8.2972" fill="white"/>
<rect x="160.474" y="55.7537" width="163.575" height="163.695" rx="8.2972" stroke="#C960FF" stroke-width="2.37063"/>
<g clip-path="url(#clip0_1660_11765)">
<path d="M292.784 114.341C292.783 112.446 292.38 110.772 291.564 109.336C290.762 107.923 289.561 106.739 287.95 105.802C274.655 98.1071 261.347 90.4353 248.056 82.7322C244.473 80.6557 240.999 80.7318 237.443 82.8381C232.151 85.9705 205.656 101.208 197.761 105.798C194.51 107.688 192.928 110.579 192.927 114.337C192.922 129.813 192.927 145.289 192.922 160.765C192.922 162.618 193.309 164.259 194.089 165.674C194.892 167.13 196.109 168.347 197.757 169.304C205.652 173.894 232.15 189.13 237.441 192.264C240.999 194.371 244.473 194.447 248.058 192.37C261.349 184.666 274.658 176.995 287.955 169.299C289.602 168.342 290.82 167.125 291.622 165.67C292.401 164.255 292.789 162.614 292.789 160.76C292.789 160.76 292.789 129.817 292.784 114.341Z" fill="#A179DC"/>
<path d="M243.005 137.4L194.086 165.674C194.888 167.13 196.106 168.347 197.753 169.304C205.649 173.895 232.147 189.131 237.438 192.264C240.996 194.372 244.47 194.447 248.054 192.37C261.345 184.667 274.654 176.995 287.951 169.299C289.599 168.342 290.816 167.125 291.619 165.67L243.005 137.4Z" fill="#280068"/>
<path d="M292.791 114.342C292.791 112.448 292.387 110.774 291.571 109.337L243.016 137.402L291.629 165.672C292.409 164.256 292.796 162.615 292.797 160.762C292.797 160.762 292.797 129.818 292.791 114.342Z" fill="#390091"/>
<path d="M271.768 126.82V132.105H277.033V126.82H279.665V132.105H284.93V134.748H279.665V140.032H284.93V142.675H279.665V147.96H277.033V142.675H271.768V147.96H269.136V142.675H263.871V140.032H269.136V134.748H263.871V132.105H269.136V126.82H271.768ZM277.033 134.747H271.768V140.032H277.033V134.747Z" fill="white"/>
<path d="M243.082 100.286C256.814 100.286 268.804 107.772 275.226 118.9L275.163 118.792L259.006 128.131C255.823 122.721 249.987 119.069 243.293 118.994L243.082 118.993C232.874 118.993 224.598 127.3 224.598 137.548C224.594 140.777 225.435 143.952 227.035 146.753C230.222 152.337 236.211 156.103 243.082 156.103C249.996 156.103 256.019 152.289 259.189 146.646L259.112 146.781L275.245 156.163C268.893 167.196 257.068 174.66 243.496 174.808L243.082 174.811C229.306 174.811 217.283 167.278 210.877 156.091C207.75 150.63 205.961 144.299 205.961 137.548C205.961 116.969 222.58 100.285 243.082 100.285L243.082 100.286Z" fill="white"/>
</g>
<rect x="557.553" y="281.123" width="163.575" height="163.695" rx="8.2972" fill="white"/>
<rect x="557.553" y="281.123" width="163.575" height="163.695" rx="8.2972" stroke="#7A33E9" stroke-width="2.37063"/>
<path d="M687.055 347.59C684.903 361.07 678.033 373.35 667.669 382.246C657.305 391.141 644.118 396.075 630.455 396.169C627.687 396.276 624.916 396.107 622.181 395.668C616.463 394.697 611.25 391.797 607.413 387.452C603.576 383.107 601.346 377.579 601.095 371.79C601.151 365.333 603.745 359.157 608.319 354.594C612.892 350.031 619.078 347.449 625.542 347.403C632.005 347.357 638.227 349.853 642.865 354.35C647.502 358.848 650.184 364.987 650.331 371.442C650.434 375.519 648.666 379.095 645.033 379.199C641.15 379.199 639.331 376.431 639.331 372.702V362.339C639.332 360.663 638.67 359.055 637.489 357.864C636.308 356.674 634.704 355.999 633.026 355.986H624.33C621.801 355.968 619.308 356.584 617.078 357.778C614.849 358.971 612.954 360.704 611.568 362.817C610.181 364.93 609.347 367.357 609.141 369.875C608.935 372.394 609.364 374.924 610.389 377.234C611.414 379.544 613.002 381.56 615.008 383.099C617.014 384.638 619.374 385.651 621.873 386.044C624.372 386.437 626.929 386.198 629.311 385.349C631.694 384.5 633.825 383.068 635.511 381.184L635.815 380.731L636.119 381.234C637.165 382.654 638.546 383.793 640.139 384.551C641.732 385.309 643.487 385.661 645.25 385.578C648.391 385.35 651.319 383.904 653.408 381.549C655.497 379.195 656.581 376.117 656.43 372.975C656.461 370.278 656.158 367.588 655.529 364.965C653.917 357.555 649.615 351.005 643.455 346.576C637.295 342.147 629.711 340.153 622.167 340.979C614.622 341.804 607.65 345.391 602.596 351.047C597.541 356.703 594.761 364.028 594.792 371.611C594.889 379.651 598.101 387.34 603.755 393.063C609.408 398.787 617.062 402.098 625.108 402.301C625.108 402.301 627.385 402.508 629.953 402.449C642.432 402.37 654.63 398.735 665.113 391.969C665.262 391.866 665.411 392.073 665.312 392.224C660.209 397.716 653.968 402.03 647.025 404.867C640.081 407.703 632.602 408.994 625.109 408.648C620.21 408.737 615.344 407.834 610.804 405.992C606.264 404.151 602.145 401.41 598.695 397.935C595.244 394.46 592.534 390.322 590.727 385.772C588.921 381.222 588.056 376.354 588.184 371.461C588.187 365.627 589.551 359.875 592.169 354.66C594.787 349.445 598.586 344.912 603.265 341.422C609.553 336.796 617.151 334.29 624.96 334.267H636.631C641.19 334.263 645.698 333.312 649.869 331.472C654.04 329.633 657.781 326.946 660.855 323.582C660.92 323.51 661.006 323.461 661.101 323.442C661.196 323.421 661.295 323.431 661.384 323.47C661.473 323.509 661.548 323.574 661.597 323.658C661.647 323.742 661.669 323.839 661.661 323.936C661.167 329.176 659.42 334.221 656.569 338.648C656.527 338.725 656.508 338.812 656.514 338.9C656.521 338.987 656.553 339.071 656.607 339.14C656.66 339.21 656.732 339.262 656.814 339.292C656.897 339.321 656.986 339.326 657.071 339.305C662.459 338.09 667.485 335.628 671.746 332.117C676.008 328.607 679.384 324.146 681.605 319.095C681.662 319.004 681.739 318.929 681.832 318.876C681.925 318.824 682.03 318.796 682.137 318.796C682.244 318.796 682.349 318.824 682.442 318.876C682.534 318.929 682.612 319.004 682.668 319.095C687.242 327.848 688.785 337.868 687.055 347.59ZM625.078 362.209C623.735 362.209 622.41 362.506 621.196 363.08C619.982 363.653 618.911 364.488 618.059 365.525C617.208 366.561 616.597 367.774 616.271 369.075C615.944 370.375 615.911 371.732 616.173 373.048C616.524 374.807 617.388 376.423 618.658 377.691C619.927 378.96 621.545 379.824 623.306 380.174C624.623 380.435 625.981 380.402 627.283 380.076C628.585 379.75 629.799 379.14 630.836 378.289C631.874 377.438 632.71 376.368 633.284 375.155C633.857 373.943 634.155 372.619 634.154 371.278V362.811C634.146 362.649 634.078 362.496 633.963 362.382C633.849 362.267 633.695 362.199 633.533 362.191L625.078 362.209Z" fill="#933BFF"/>
<g clip-path="url(#clip1_1660_11765)">
<rect x="645.285" y="47.4385" width="165.946" height="166.066" rx="9.48252" fill="white"/>
<g clip-path="url(#clip2_1660_11765)">
<path d="M686.85 178.96L678.48 77.2783L778.432 77.4827L769.583 178.96L728.834 190.689L686.85 178.96Z" fill="#E34F26"/>
<path d="M728.809 180.868V86.9614L769.969 87.0976L762.629 171.116L728.809 180.868Z" fill="#EF652A"/>
<path d="M758.657 110.42L759.823 98.0078H696.504L700.002 136.062H743.701L741.988 152.293L727.993 156.043L713.792 151.951L713.038 142.267H700.483L702.198 162.044L727.992 169.205L753.992 162.044L757.49 123.445H711.597L710.293 110.42H758.657Z" fill="white"/>
</g>
</g>
<rect x="646.47" y="48.6238" width="163.575" height="163.695" rx="8.2972" stroke="#FF6B00" stroke-width="2.37063"/>
<rect x="404.638" y="1.185" width="163.576" height="163.696" rx="8.295" fill="white"/>
<rect x="404.638" y="1.185" width="163.576" height="163.696" rx="8.295" stroke="#01E9F0" stroke-width="2.37"/>
<rect x="404.638" y="1.18678" width="163.575" height="163.575" rx="10.6678" fill="#070F2F" fill-opacity="0.01" stroke="#1C88C7" stroke-width="2.37063"/>
<g clip-path="url(#clip3_1660_11765)">
<path d="M443.95 131.255L435.457 27.457L536.89 27.6656L527.909 131.255L486.556 143.229L443.95 131.255Z" fill="#1B73BA"/>
<path d="M486.555 133.207V37.3447L528.325 37.4838L520.877 123.251L486.555 133.207Z" fill="#1C88C7"/>
<path d="M517.948 49.5991H453.691L455.432 62.1293H485.924L455.92 75.0088L457.66 87.1217H501.867L500.265 104.038L485.298 106.962L471.723 103.482L470.678 93.8744H458.217L459.887 113.855L486.62 121.304L512.24 113.159L515.512 74.1032H488.43L517.947 61.8512L517.948 49.5991Z" fill="white"/>
</g>
<rect x="247.002" y="281.135" width="163.575" height="163.575" rx="10.6678" fill="white" stroke="#1A7BFF" stroke-width="2.37063"/>
<g clip-path="url(#clip4_1660_11765)">
<path d="M287.452 347.843H287.517L288.314 348.921C291.14 346.829 294.237 345.318 297.615 344.383L297.623 344.381L297.63 344.379C301.049 343.392 304.518 343.119 308.047 343.557C311.522 343.996 314.802 345.091 317.899 346.848L317.907 346.853L317.916 346.858C320.998 348.553 323.608 350.791 325.756 353.58C327.465 355.828 328.789 358.293 329.728 360.982L329.728 360.982L329.731 360.991C330.67 363.625 331.195 366.338 331.306 369.137C331.36 371.372 331.113 373.547 330.566 375.666L330.562 375.683L330.558 375.7C330.061 377.84 329.316 379.897 328.322 381.874C327.331 383.786 326.09 385.595 324.595 387.301L324.592 387.304C323.166 388.939 321.516 390.388 319.639 391.65C315.714 394.286 311.415 395.792 306.72 396.177C302.024 396.505 297.562 395.684 293.31 393.711C291.268 392.723 289.364 391.517 287.596 390.093C285.885 388.61 284.368 386.965 283.044 385.157C281.773 383.344 280.693 381.392 279.805 379.3C278.983 377.172 278.464 374.995 278.245 372.764L278.243 372.745L278.241 372.725C278.187 372.294 278.132 371.886 278.078 371.502V371.499V371.497V371.494V371.491V371.489V371.486V371.483V371.48V371.478V371.475V371.472V371.47V371.467V371.464V371.462V371.459V371.456V371.453V371.451V371.448V371.445V371.443V371.44V371.437V371.434V371.432V371.429V371.426V371.424V371.421V371.418V371.415V371.413V371.41V371.407V371.405V371.402V371.399V371.396V371.394V371.391V371.388V371.386V371.383V371.38V371.377V371.375V371.372V371.369V371.367V371.364V371.361V371.359V371.356V371.353V371.35V371.348V371.345V371.342V371.34V371.337V371.334V371.331V371.329V371.326V371.323V371.321V371.318V371.315V371.312V371.31V371.307V371.304V371.302V371.299V371.296V371.293V371.291V371.288V371.285V371.283V371.28V371.277V371.275V371.272V371.269V371.266V371.264V371.261V371.258V371.256V371.253V371.25V371.247V371.245V371.242V371.239V371.237V371.234V371.231V371.228V371.226V371.223V371.22V371.218V371.215V371.212V371.209V371.207V371.204V371.201V371.199V371.196V371.193V371.19V371.188V371.185V371.182V371.18V371.177V371.174V371.172V371.169V371.166V371.163V371.161V371.158V371.155V371.153V371.15V371.147V371.144V371.142V371.139V371.136V371.134V371.131V371.128V371.125V371.123V371.12V371.117V371.115V371.112V371.109V371.106V371.104V371.101V371.098V371.096V371.093V371.09V371.088V371.085V371.082V371.079V371.077V371.074V371.071V371.069V371.066V371.063V371.06V371.058V371.055V371.052V371.05V371.047V371.044V371.041V371.039V371.036V371.033V371.031V371.028V371.025V371.022V371.02V371.017V371.014V371.012V371.009V371.006V371.004V371.001V370.998V370.995V370.993V370.99V370.987V370.985V370.982V370.979V370.976V370.974V370.971V370.968V370.966V370.963V370.96V370.957V370.955V370.952V370.949V370.947V370.944V370.941V370.938V370.936V370.933V370.93V370.928V370.925V370.922V370.92V370.917V370.914V370.911V370.909V370.906V370.903V370.901V370.898V370.895V370.892V370.89V370.887V370.884V370.882V370.879V370.876V370.873V370.871V370.868V370.865V370.863V370.86V370.857V370.854V370.852V370.849V370.846V370.844V370.841V370.838V370.836V370.833V370.83V370.827V370.825V370.822V370.819V370.817V370.814V370.811V370.808V370.806V370.803V370.8V370.798V370.795V370.792V370.789V370.787V370.784V370.781V370.779V370.776V370.773V370.77V370.768V370.765V370.762V370.76V370.757V370.754V370.752V370.749V370.746V370.743V370.741V370.738V370.735V370.733V370.73V370.727V370.724V370.722V370.719V370.716V370.714V370.711V370.708V370.705V370.703V370.7V370.697V370.695V370.692V370.689V370.686V370.684V370.681V370.678V370.676V370.673V370.67V370.668V370.665V370.662V370.659V370.657V370.654V370.651V370.649V370.646V370.643V370.64V370.638V370.635V370.632V370.63V370.627V370.624V370.621V370.619V370.616V370.613V370.611V370.608V370.605V370.602V370.6V370.597V370.594V370.592V370.589V370.586V370.584V370.581V370.578V370.575V370.573V370.57V370.567V370.565V370.562V370.559V370.556V370.554V370.551V370.548V370.546V370.543V370.54V370.537V370.535V370.532V370.529V370.527V370.524V370.521V370.518V370.516V370.513V370.51V370.508V370.505V370.502V370.5V370.497V370.494V370.491V370.489V370.486V370.483V370.481V370.478V370.475V370.472V370.47V370.467V370.464V370.462V370.459V370.456V370.453V370.451V370.448V370.445V370.443V370.44V370.437V370.434V370.432V370.429V370.426V370.424V370.421V370.418V370.415V370.413V370.41V370.407V370.405V370.402V370.399V370.397V370.394V370.391V370.388V370.386V370.383V370.38V370.378V370.375V370.372V370.369V370.367V370.364V370.361V370.359V370.356V370.353V370.35V370.348V370.345V370.342V370.34V370.337V370.334V370.331V370.329V370.326V370.323V370.321V370.318V370.315V370.312V370.31V370.307V370.304V370.302V370.299V370.296V370.294V370.291V370.288V370.285V370.283V370.28V370.277V370.275V370.272V370.269V370.266V370.264V370.261V370.258V370.256V370.253V370.25V370.247V370.245V370.242V370.239V370.237V370.234V370.231V370.228V370.226V370.223V370.22V370.218V369.09V333.534C278.078 332.409 278.453 331.509 279.221 330.746C279.99 329.982 280.9 329.606 282.041 329.606C283.182 329.606 284.092 329.982 284.86 330.746C285.628 331.509 286.004 332.409 286.004 333.534V347.026V347.757V347.843H287.452ZM296.678 386.61C297.207 386.9 297.738 387.163 298.271 387.4L298.592 387.559L298.66 387.592L298.73 387.619L299.429 387.879L300.127 388.139L300.211 387.92C303.262 388.698 306.389 388.639 309.568 387.746C311.702 387.183 313.658 386.275 315.427 385.021C317.252 383.769 318.798 382.234 320.059 380.42C322.581 376.907 323.688 372.935 323.377 368.565C323.248 366.242 322.678 364.036 321.665 361.959C320.665 359.848 319.347 357.977 317.715 356.355L317.694 356.335L317.673 356.315C316.85 355.56 315.962 354.898 315.011 354.329C314.154 353.783 313.242 353.27 312.276 352.79L312.248 352.776L312.219 352.763C309.825 351.699 307.327 351.164 304.735 351.164C302.157 351.164 299.668 351.665 297.281 352.664L297.266 352.67L297.251 352.677C294.867 353.737 292.787 355.207 291.023 357.085C289.263 358.958 287.937 361.089 287.054 363.47L287.051 363.479L287.047 363.489C285.914 366.679 285.661 369.945 286.291 373.263L286.294 373.276L286.296 373.289C286.986 376.591 288.433 379.53 290.628 382.085C292.322 384.08 294.341 385.594 296.678 386.61Z" fill="#0065EF" stroke="#0065EF" stroke-width="2.89742"/>
<path d="M346.679 358.659C347.781 358.659 348.722 358.997 349.356 359.475C349.99 359.952 350.249 360.503 350.249 360.991V393.756C350.249 394.244 349.99 394.795 349.356 395.272C348.722 395.75 347.781 396.088 346.679 396.088C345.578 396.088 344.636 395.75 344.002 395.272C343.368 394.795 343.109 394.244 343.109 393.756V360.991C343.109 360.503 343.368 359.952 344.002 359.475C344.636 358.997 345.578 358.659 346.679 358.659Z" fill="#0065EF" stroke="#0065EF" stroke-width="2.89742"/>
<path d="M350.249 347.016C350.249 348.961 348.66 350.554 346.679 350.554C344.698 350.554 343.109 348.961 343.109 347.016C343.109 345.071 344.698 343.478 346.679 343.478C348.66 343.478 350.249 345.071 350.249 347.016Z" fill="#0065EF" stroke="#0065EF" stroke-width="2.89742"/>
<path d="M367.637 343.478C369.502 343.478 370.771 344.821 370.771 346.192V393.369C370.771 394.74 369.502 396.083 367.637 396.083C365.772 396.083 364.503 394.74 364.503 393.369V346.192C364.503 344.821 365.772 343.478 367.637 343.478Z" fill="#0065EF" stroke="#0065EF" stroke-width="2.89742"/>
<path d="M360.007 358.743H375.718C378.008 358.743 379.507 360.316 379.507 361.847C379.507 363.377 378.008 364.951 375.718 364.951H360.007C357.717 364.951 356.218 363.377 356.218 361.847C356.218 360.316 357.717 358.743 360.007 358.743Z" fill="#0065EF" stroke="#0065EF" stroke-width="2.89742"/>
</g>
<g clip-path="url(#clip5_1660_11765)">
<rect y="571" width="97" height="97" rx="8" fill="#0C8CE9"/>
<g filter="url(#filter0_f_1660_11765)">
<path d="M256 623C256 679.885 214.139 726 162.5 726C110.861 726 69 679.885 69 623C69 566.115 110.861 520 162.5 520C214.139 520 256 566.115 256 623Z" fill="#1F3986" fill-opacity="0.9"/>
</g>
<path d="M26.4337 630.413V624.852C27.5634 625.532 28.6858 626.039 29.8009 626.372C30.9305 626.706 31.995 626.872 32.9942 626.872C34.2108 626.872 35.1666 626.706 35.8617 626.372C36.5714 626.039 36.9262 625.532 36.9262 624.852C36.9262 624.417 36.7669 624.055 36.4483 623.766C36.1297 623.476 35.7169 623.223 35.21 623.005C34.7176 622.788 34.1745 622.593 33.5808 622.419C32.987 622.245 32.4149 622.049 31.8646 621.832C30.9812 621.499 30.1992 621.144 29.5185 620.768C28.8523 620.377 28.2875 619.928 27.8241 619.421C27.3751 618.914 27.0275 618.327 26.7813 617.661C26.5496 616.995 26.4337 616.206 26.4337 615.293C26.4337 614.048 26.7017 612.976 27.2375 612.078C27.7878 611.18 28.512 610.449 29.4099 609.884C30.3223 609.305 31.3577 608.885 32.5163 608.624C33.6894 608.349 34.9059 608.212 36.1659 608.212C37.1507 608.212 38.1499 608.291 39.1637 608.451C40.1775 608.595 41.1768 608.813 42.1615 609.102V614.403C41.2926 613.896 40.3585 613.519 39.3592 613.273C38.3744 613.012 37.4041 612.882 36.4483 612.882C35.9993 612.882 35.5721 612.926 35.1666 613.012C34.7756 613.085 34.428 613.201 34.1239 613.36C33.8197 613.505 33.5808 613.7 33.407 613.947C33.2332 614.178 33.1463 614.446 33.1463 614.75C33.1463 615.156 33.2766 615.503 33.5373 615.793C33.798 616.083 34.1383 616.336 34.5583 616.553C34.9783 616.756 35.4418 616.944 35.9486 617.118C36.47 617.278 36.9841 617.444 37.491 617.618C38.4034 617.936 39.2289 618.284 39.9675 618.661C40.7061 619.037 41.3361 619.479 41.8574 619.986C42.3933 620.493 42.7988 621.086 43.0739 621.767C43.3636 622.448 43.5084 623.259 43.5084 624.2C43.5084 625.518 43.2188 626.648 42.6395 627.589C42.0747 628.516 41.3143 629.276 40.3585 629.87C39.4171 630.449 38.3237 630.869 37.0783 631.13C35.8473 631.405 34.5656 631.543 33.2332 631.543C30.7857 631.543 28.5192 631.166 26.4337 630.413Z" fill="white"/>
<rect x="39.8281" y="604.292" width="3.70747" height="27.8061" fill="#1A72EF"/>
<path d="M48.8114 622.667H52.4885C53.6024 622.667 54.5943 622.542 55.4642 622.294L56.4151 619.364L59.0729 611.176C58.8704 610.855 58.6392 610.551 58.3793 610.265C57.0147 608.755 55.0181 608 52.3896 608H43.1445V630.333H48.8114V622.667ZM53.6787 613.138C54.2117 613.674 54.4782 614.392 54.4782 615.291C54.4782 616.198 54.2438 616.916 53.775 617.448C53.2612 618.038 52.3149 618.333 50.9364 618.333H48.8114V612.333H50.952C52.2368 612.333 53.1457 612.601 53.6787 613.138Z" fill="white"/>
<path d="M57.2188 626.333L58.9324 622H63.8804L61.5322 615.426L64.469 608L72.8807 630.333H66.6774L65.24 626.333H57.2188Z" fill="white"/>
</g>
<g clip-path="url(#clip6_1660_11765)">
<rect x="144" y="571" width="97" height="97" rx="8" fill="#0C8CE9"/>
<g filter="url(#filter1_f_1660_11765)">
<path d="M400 623C400 679.885 358.139 726 306.5 726C254.861 726 213 679.885 213 623C213 566.115 254.861 520 306.5 520C358.139 520 400 566.115 400 623Z" fill="#1F3986" fill-opacity="0.9"/>
</g>
<path d="M204.324 625.788L205.711 622.282H209.715L207.815 616.963L210.191 610.953L216.997 629.025H211.978L210.815 625.788H204.324Z" fill="white"/>
<path d="M200.045 629.025L207.331 610.953L202.5 610.953L197.516 622.632L193.972 610.953H190.258L186.453 622.632L183.769 617.31L181.34 624.793L183.806 629.025H188.56L191.999 618.552L195.278 629.025H200.045Z" fill="white"/>
<path d="M173.585 622.821H176.561C177.462 622.821 178.265 622.721 178.969 622.52L179.738 620.149L181.889 613.523C181.725 613.263 181.538 613.018 181.328 612.786C180.223 611.564 178.608 610.953 176.481 610.953H169V629.025H173.585V622.821ZM177.524 615.111C177.955 615.545 178.171 616.126 178.171 616.854C178.171 617.587 177.981 618.168 177.602 618.598C177.186 619.076 176.42 619.315 175.305 619.315H173.585V614.46H175.318C176.357 614.46 177.093 614.677 177.524 615.111Z" fill="white"/>
</g>
<g clip-path="url(#clip7_1660_11765)">
<rect x="288" y="571" width="97" height="97" rx="8" fill="#0C8CE9"/>
<g filter="url(#filter2_f_1660_11765)">
<path d="M544 623C544 679.885 502.139 726 450.5 726C398.861 726 357 679.885 357 623C357 566.115 398.861 520 450.5 520C502.139 520 544 566.115 544 623Z" fill="#1F3986" fill-opacity="0.9"/>
</g>
<path d="M327.74 591C327.476 591.003 327.202 591.066 326.952 591.205C326.159 591.644 325.868 592.663 326.307 593.456L328.098 596.689C323.784 599.359 320.925 603.918 320.925 609.122C320.925 609.143 320.925 609.176 320.925 609.209C320.925 609.22 320.925 609.226 320.925 609.239C320.925 609.256 320.925 609.281 320.925 609.285V610.089C320.096 609.135 318.878 608.533 317.518 608.533C315.024 608.533 313 610.558 313 613.051V626.967C313 629.46 315.024 631.484 317.518 631.484C318.878 631.484 320.096 630.882 320.925 629.929V631.878C320.925 634.506 323.075 636.657 325.703 636.657H326.916V642.847C326.916 645.341 328.94 647.365 331.434 647.365C333.927 647.365 335.951 645.341 335.951 642.847V636.657H338.049V642.847C338.049 645.341 340.073 647.365 342.566 647.365C345.06 647.365 347.084 645.341 347.084 642.847V636.657H348.297C350.925 636.657 353.075 634.506 353.075 631.878V629.929C353.904 630.882 355.122 631.484 356.482 631.484C358.976 631.484 361 629.46 361 626.967V613.051C361 610.558 358.976 608.533 356.482 608.533C355.122 608.533 353.904 609.135 353.075 610.089V609.301V609.285C353.075 609.261 353.075 609.236 353.075 609.239C353.075 609.19 353.075 609.151 353.075 609.122C353.075 603.919 350.21 599.364 345.897 596.694L347.693 593.456C348.132 592.663 347.841 591.644 347.048 591.205C346.798 591.066 346.524 591.003 346.26 591C345.675 590.994 345.1 591.303 344.797 591.849L342.919 595.241C341.083 594.564 339.086 594.193 337 594.193C334.916 594.193 332.915 594.56 331.081 595.236L329.203 591.849C328.9 591.303 328.325 590.994 327.74 591Z" fill="#1C5CC7"/>
<path d="M317.521 609.709C315.66 609.709 314.18 611.189 314.18 613.05V626.966C314.18 628.826 315.66 630.307 317.521 630.307C319.381 630.307 320.861 628.826 320.861 626.966V613.05C320.861 611.189 319.381 609.709 317.521 609.709ZM356.485 609.709C354.625 609.709 353.145 611.189 353.145 613.05V626.966C353.145 628.826 354.625 630.307 356.485 630.307C358.346 630.307 359.826 628.826 359.826 626.966V613.05C359.826 611.189 358.346 609.709 356.485 609.709Z" fill="white"/>
<path d="M331.435 625.59C329.574 625.59 328.094 627.071 328.094 628.931V642.847C328.094 644.708 329.574 646.188 331.435 646.188C333.295 646.188 334.775 644.708 334.775 642.847V628.931C334.775 627.071 333.295 625.59 331.435 625.59ZM342.567 625.59C340.707 625.59 339.227 627.071 339.227 628.931V642.847C339.227 644.708 340.707 646.188 342.567 646.188C344.428 646.188 345.908 644.708 345.908 642.847V628.931C345.908 627.071 344.428 625.59 342.567 625.59Z" fill="white"/>
<path d="M327.754 592.177C327.675 592.178 327.601 592.198 327.529 592.238C327.29 592.37 327.212 592.644 327.344 592.883L329.698 597.134C325.17 599.49 322.112 603.968 322.105 609.106H351.902C351.896 603.968 348.838 599.49 344.31 597.134L346.663 592.883C346.796 592.644 346.717 592.37 346.479 592.238C346.406 592.198 346.333 592.178 346.254 592.177C346.085 592.175 345.925 592.26 345.834 592.422L343.45 596.72C341.5 595.855 339.312 595.369 337.004 595.369C334.695 595.369 332.508 595.855 330.557 596.72L328.173 592.422C328.083 592.26 327.923 592.175 327.754 592.177ZM322.105 610.283V631.878C322.105 633.874 323.712 635.48 325.707 635.48H348.3C350.296 635.48 351.902 633.874 351.902 631.878V610.283H322.105Z" fill="white"/>
<path d="M330.122 601.167C329.442 601.167 328.879 601.73 328.879 602.41C328.879 603.09 329.442 603.653 330.122 603.653C330.802 603.653 331.365 603.09 331.365 602.41C331.365 601.73 330.802 601.167 330.122 601.167ZM343.874 601.167C343.194 601.167 342.631 601.73 342.631 602.41C342.631 603.09 343.194 603.653 343.874 603.653C344.555 603.653 345.118 603.09 345.118 602.41C345.118 601.73 344.555 601.167 343.874 601.167Z" fill="#1C5CC7"/>
</g>
<g clip-path="url(#clip8_1660_11765)">
<rect x="432" y="571" width="97" height="97" rx="8" fill="#0C8CE9"/>
<g filter="url(#filter3_f_1660_11765)">
<path d="M688 623C688 679.885 646.139 726 594.5 726C542.861 726 501 679.885 501 623C501 566.115 542.861 520 594.5 520C646.139 520 688 566.115 688 623Z" fill="#1F3986" fill-opacity="0.9"/>
</g>
<g clip-path="url(#clip9_1660_11765)">
<path d="M470.091 596C462.869 596 457 601.869 457 609.091V630.908C457 638.131 462.869 644 470.091 644H491.908C499.131 644 505 638.131 505 630.909V609.091C505 601.869 499.131 596 491.909 596H470.091ZM466.402 612.44C467.165 612.44 467.734 612.985 467.734 613.705C467.734 614.415 467.165 614.96 466.402 614.96C465.628 614.96 465.062 614.414 465.062 613.705C465.062 612.986 465.628 612.44 466.402 612.44ZM477.77 613.062C481.752 613.062 484.206 615.842 484.206 620.304C484.206 624.755 481.773 627.559 477.77 627.559C473.744 627.559 471.301 624.765 471.301 620.304C471.301 615.832 473.799 613.062 477.77 613.062ZM491.877 613.062C494.68 613.062 496.73 614.697 496.86 617.032H494.766C494.559 615.755 493.458 614.961 491.843 614.961C490.141 614.961 489.018 615.766 489.018 617.021C489.018 618.003 489.738 618.571 491.549 618.996L493.066 619.366C495.914 620.032 497.081 621.178 497.081 623.261C497.081 625.912 495.029 627.57 491.745 627.57C488.68 627.57 486.618 625.989 486.465 623.513H488.594C488.779 624.822 490.065 625.66 491.908 625.66C493.633 625.66 494.898 624.766 494.898 623.534C494.898 622.486 494.101 621.855 492.268 621.418L490.479 620.992C487.981 620.402 486.836 619.192 486.836 617.163C486.836 614.699 488.856 613.062 491.877 613.062ZM477.77 615.059C475.162 615.059 473.506 617.097 473.506 620.304C473.506 623.5 475.108 625.563 477.77 625.563C480.399 625.563 482.014 623.501 482.014 620.304C482.015 617.098 480.399 615.059 477.77 615.059ZM465.378 616.794H467.429V627.234H465.378V616.794Z" fill="white"/>
</g>
</g>
<g clip-path="url(#clip10_1660_11765)">
<rect x="576" y="571" width="97" height="97" rx="8" fill="#0C8CE9"/>
<g filter="url(#filter4_f_1660_11765)">
<path d="M832 623C832 679.885 790.139 726 738.5 726C686.861 726 645 679.885 645 623C645 566.115 686.861 520 738.5 520C790.139 520 832 566.115 832 623Z" fill="#1F3986" fill-opacity="0.9"/>
</g>
<g clip-path="url(#clip11_1660_11765)">
<path fill-rule="evenodd" clip-rule="evenodd" d="M601.015 618.4L601 602.796L620.201 600.189V618.4H601.015H601.015ZM623.399 599.723L648.993 595.999V618.4H623.399L623.399 599.723ZM649 621.599L648.995 644L623.4 640.399V621.599H649L649 621.599ZM620.199 639.99L601.014 637.359V621.596H620.199V639.99Z" fill="white"/>
</g>
</g>
<g clip-path="url(#clip12_1660_11765)">
<rect x="720" y="571" width="97" height="97" rx="8" fill="#0C8CE9"/>
<g filter="url(#filter5_f_1660_11765)">
<path d="M976 623C976 679.885 934.139 726 882.5 726C830.861 726 789 679.885 789 623C789 566.115 830.861 520 882.5 520C934.139 520 976 566.115 976 623Z" fill="#1F3986" fill-opacity="0.9"/>
</g>
<circle cx="769" cy="620" r="24" fill="white"/>
<path d="M771.844 611.697V611.344C767.245 611.344 771.402 614.351 771.844 611.697ZM773.967 610.105C774.586 608.248 777.77 608.071 778.124 610.371H777.239C776.974 609.044 774.763 608.956 774.763 611.344C774.763 612.67 776.797 613.466 777.239 611.874H778.124C777.593 614.793 772.906 613.732 773.967 610.105ZM761.055 608.69H761.939V609.486C762.381 608.425 764.327 608.337 764.681 609.575C765.3 608.248 767.776 608.337 767.776 610.194V613.466H766.803V610.459C766.803 609.133 764.858 609.133 764.858 610.548V613.466H763.885V610.371C763.668 609.543 762.566 609.378 762.116 610.105L761.939 610.548V613.466H761.055V608.69ZM763.089 631.597C758.932 631.597 756.367 628.678 756.367 623.991C756.367 619.303 758.932 616.473 763.089 616.473C767.245 616.473 769.899 619.392 769.899 623.991C769.899 628.59 767.334 631.597 763.089 631.597ZM770.872 613.466C768.307 614.085 767.953 610.813 770.606 610.725L771.844 610.636V610.282C771.933 609.221 770.164 609.133 769.899 610.105H769.014C769.018 609.887 769.079 609.674 769.191 609.486C769.899 608.248 772.817 608.248 772.817 610.194V613.466H771.933V612.67C771.824 612.871 771.672 613.047 771.489 613.184C771.306 613.321 771.095 613.418 770.872 613.466ZM776.886 631.597C773.702 631.42 771.491 629.916 771.314 627.263H773.436C775.471 633.631 786.349 626.821 775.647 624.61C773.967 624.256 772.729 623.46 772.198 622.487C768.837 615.943 781.838 613.997 782.192 620.718H780.158C779.539 616.385 771.491 618.773 774.409 621.78C775.647 623.018 778.212 622.93 780.069 623.725C784.492 625.76 782.369 631.774 776.886 631.597ZM763.089 618.331C760.259 618.331 758.49 620.542 758.49 623.991C758.49 627.44 760.259 629.651 763.089 629.651C765.919 629.651 767.776 627.528 767.776 623.991C767.776 620.453 766.007 618.331 763.089 618.331Z" fill="#1469BF"/>
</g>
<g clip-path="url(#clip13_1660_11765)">
<rect x="864" y="571" width="97" height="97" rx="8" fill="#0C8CE9"/>
<g filter="url(#filter6_f_1660_11765)">
<path d="M1120 623C1120 679.885 1078.14 726 1026.5 726C974.861 726 933 679.885 933 623C933 566.115 974.861 520 1026.5 520C1078.14 520 1120 566.115 1120 623Z" fill="#1F3986" fill-opacity="0.9"/>
</g>
<path d="M935.511 636.126C933.863 635.451 933.157 634.555 933.226 633.219C933.296 631.659 932.411 630.516 931.99 630.065C932.244 629.095 932.986 625.739 931.991 622.824C930.922 619.705 927.656 614.94 924.287 610.256C922.908 608.333 922.843 606.242 922.767 603.821C922.695 601.512 922.614 598.895 921.326 595.985C919.926 592.817 917.116 591 913.618 591C911.536 591 909.4 591.65 907.756 592.784C904.389 595.108 904.834 600.174 905.129 603.526C905.169 603.985 905.207 604.419 905.229 604.789C905.425 608.072 905.247 609.802 905.013 610.328C904.863 610.672 904.12 611.65 903.333 612.685C902.52 613.756 901.598 614.97 900.842 616.102C899.941 617.463 899.213 619.543 898.509 621.555C897.994 623.028 897.507 624.418 897.034 625.25C896.136 626.848 896.36 628.339 896.546 629.028C896.206 629.264 895.715 629.729 895.301 630.605C894.8 631.674 893.784 632.248 891.671 632.654C890.7 632.853 890.03 633.261 889.68 633.868C889.17 634.751 889.448 635.86 889.701 636.618C890.075 637.733 889.842 638.438 889.418 639.719C889.32 640.014 889.21 640.349 889.098 640.718C888.921 641.301 888.985 641.83 889.287 642.292C890.085 643.512 892.413 643.942 894.811 644.225C896.242 644.395 897.809 644.968 899.324 645.522C900.809 646.064 902.344 646.625 903.74 646.796C903.952 646.822 904.162 646.836 904.364 646.836C906.471 646.836 907.423 645.438 907.725 644.863C908.482 644.709 911.092 644.214 913.782 644.148C916.468 644.071 919.067 644.602 919.803 644.767C920.035 645.21 920.645 646.222 921.617 646.743C922.152 647.035 922.896 647.203 923.658 647.203H923.658C924.472 647.203 926.02 647.01 927.245 645.721C928.467 644.426 931.52 642.773 933.75 641.566C934.248 641.296 934.713 641.044 935.121 640.817C936.374 640.122 937.057 639.13 936.996 638.095C936.945 637.235 936.376 636.48 935.511 636.126ZM907.783 635.877C907.627 634.778 906.215 633.689 904.578 632.428C903.241 631.397 901.724 630.228 901.306 629.238C900.443 627.196 901.124 623.605 902.31 621.756C902.897 620.83 903.375 619.426 903.839 618.069C904.339 616.603 904.856 615.087 905.435 614.423C906.351 613.387 907.197 611.371 907.347 609.783C908.205 610.602 909.535 611.641 910.765 611.641C910.954 611.641 911.138 611.616 911.313 611.567C912.154 611.324 913.391 610.609 914.588 609.918C915.619 609.322 916.891 608.587 917.369 608.52C918.19 609.698 922.958 620.25 923.445 623.639C923.831 626.32 923.424 628.536 923.219 629.404C923.054 629.382 922.858 629.364 922.651 629.364C921.323 629.364 920.972 630.089 920.88 630.521C920.644 631.646 920.62 635.242 920.617 636.05C920.137 636.66 917.708 639.533 914.222 640.05C912.802 640.256 911.475 640.361 910.28 640.361C909.259 640.361 908.607 640.282 908.336 640.241L906.584 638.236C907.275 637.895 907.965 637.175 907.783 635.877ZM910.006 602.821C909.952 602.844 909.898 602.87 909.845 602.897C909.84 602.778 909.827 602.658 909.808 602.537C909.617 601.436 908.887 600.637 908.073 600.637C908.012 600.637 907.952 600.641 907.885 600.651C907.401 600.732 907.021 601.096 906.813 601.612C906.995 600.48 907.637 599.642 908.398 599.642C909.292 599.642 910.046 600.846 910.046 602.272C910.046 602.451 910.033 602.63 910.006 602.821ZM916.951 603.67C917.033 603.409 917.077 603.127 917.077 602.835C917.077 601.542 916.257 600.53 915.21 600.53C914.187 600.53 913.355 601.564 913.355 602.835C913.355 602.921 913.359 603.008 913.367 603.095C913.313 603.074 913.26 603.054 913.208 603.034C913.091 602.677 913.031 602.305 913.031 601.926C913.031 600.38 914.019 599.123 915.233 599.123C916.447 599.123 917.435 600.38 917.435 601.926C917.435 602.569 917.258 603.182 916.951 603.67ZM916.056 606.678C916.038 606.756 916.001 606.791 915.589 607.005C915.381 607.113 915.123 607.248 914.799 607.445L914.583 607.576C913.713 608.103 911.677 609.337 911.125 609.41C910.749 609.46 910.517 609.315 909.995 608.96C909.877 608.88 909.752 608.795 909.619 608.709C908.678 608.091 908.072 607.411 908.004 607.145C908.311 606.908 909.071 606.315 909.46 605.963C910.251 605.228 911.046 604.735 911.44 604.735C911.461 604.735 911.479 604.736 911.499 604.74C911.961 604.821 913.102 605.277 913.936 605.609C914.321 605.763 914.653 605.895 914.887 605.979C915.625 606.233 916.009 606.557 916.056 606.678ZM922.68 641.021C923.095 639.145 923.575 636.592 923.497 635.088C923.479 634.746 923.449 634.374 923.42 634.014C923.365 633.342 923.284 632.342 923.367 632.045C923.384 632.038 923.402 632.031 923.423 632.025C923.426 632.886 923.613 634.601 924.985 635.2C925.394 635.378 925.862 635.468 926.374 635.468C927.749 635.468 929.274 634.794 929.898 634.169C930.266 633.802 930.576 633.352 930.792 632.995C930.84 633.134 930.869 633.315 930.854 633.549C930.772 634.818 931.388 636.501 932.562 637.121L932.733 637.211C933.151 637.43 934.261 638.013 934.279 638.289C934.279 638.289 934.269 638.322 934.207 638.379C933.929 638.634 932.951 639.133 932.004 639.617C930.325 640.474 928.422 641.446 927.568 642.344C926.364 643.611 925.003 644.461 924.181 644.461C924.082 644.461 923.992 644.449 923.912 644.423C923.02 644.145 922.285 642.857 922.68 641.021ZM892.254 636.235C892.163 635.808 892.091 635.472 892.169 635.146C892.225 634.905 893.416 634.646 893.925 634.536C894.641 634.381 895.381 634.22 895.865 633.926C896.519 633.53 896.873 632.799 897.186 632.154C897.412 631.688 897.646 631.205 897.924 631.047C897.94 631.038 897.964 631.027 898.009 631.027C898.53 631.027 899.623 632.122 900.253 633.102C900.413 633.35 900.709 633.845 901.051 634.418C902.075 636.131 903.477 638.478 904.21 639.265C904.87 639.972 905.938 641.331 905.675 642.497C905.483 643.401 904.458 644.137 904.217 644.3C904.129 644.32 904.021 644.33 903.893 644.33C902.491 644.33 899.717 643.164 898.226 642.537L898.006 642.444C897.173 642.095 895.815 641.876 894.501 641.663C893.455 641.494 892.023 641.262 891.786 641.053C891.593 640.837 891.817 640.135 892.013 639.516C892.155 639.072 892.301 638.612 892.382 638.13C892.495 637.362 892.362 636.737 892.254 636.235Z" fill="white"/>
</g>
<defs>
<filter id="filter0_f_1660_11765" x="-1" y="450" width="327" height="346" filterUnits="userSpaceOnUse" color-interpolation-filters="sRGB">
<feFlood flood-opacity="0" result="BackgroundImageFix"/>
<feBlend mode="normal" in="SourceGraphic" in2="BackgroundImageFix" result="shape"/>
<feGaussianBlur stdDeviation="35" result="effect1_foregroundBlur_1660_11765"/>
</filter>
<filter id="filter1_f_1660_11765" x="143" y="450" width="327" height="346" filterUnits="userSpaceOnUse" color-interpolation-filters="sRGB">
<feFlood flood-opacity="0" result="BackgroundImageFix"/>
<feBlend mode="normal" in="SourceGraphic" in2="BackgroundImageFix" result="shape"/>
<feGaussianBlur stdDeviation="35" result="effect1_foregroundBlur_1660_11765"/>
</filter>
<filter id="filter2_f_1660_11765" x="307" y="470" width="287" height="306" filterUnits="userSpaceOnUse" color-interpolation-filters="sRGB">
<feFlood flood-opacity="0" result="BackgroundImageFix"/>
<feBlend mode="normal" in="SourceGraphic" in2="BackgroundImageFix" result="shape"/>
<feGaussianBlur stdDeviation="25" result="effect1_foregroundBlur_1660_11765"/>
</filter>
<filter id="filter3_f_1660_11765" x="431" y="450" width="327" height="346" filterUnits="userSpaceOnUse" color-interpolation-filters="sRGB">
<feFlood flood-opacity="0" result="BackgroundImageFix"/>
<feBlend mode="normal" in="SourceGraphic" in2="BackgroundImageFix" result="shape"/>
<feGaussianBlur stdDeviation="35" result="effect1_foregroundBlur_1660_11765"/>
</filter>
<filter id="filter4_f_1660_11765" x="575" y="450" width="327" height="346" filterUnits="userSpaceOnUse" color-interpolation-filters="sRGB">
<feFlood flood-opacity="0" result="BackgroundImageFix"/>
<feBlend mode="normal" in="SourceGraphic" in2="BackgroundImageFix" result="shape"/>
<feGaussianBlur stdDeviation="35" result="effect1_foregroundBlur_1660_11765"/>
</filter>
<filter id="filter5_f_1660_11765" x="719" y="450" width="327" height="346" filterUnits="userSpaceOnUse" color-interpolation-filters="sRGB">
<feFlood flood-opacity="0" result="BackgroundImageFix"/>
<feBlend mode="normal" in="SourceGraphic" in2="BackgroundImageFix" result="shape"/>
<feGaussianBlur stdDeviation="35" result="effect1_foregroundBlur_1660_11765"/>
</filter>
<filter id="filter6_f_1660_11765" x="863" y="450" width="327" height="346" filterUnits="userSpaceOnUse" color-interpolation-filters="sRGB">
<feFlood flood-opacity="0" result="BackgroundImageFix"/>
<feBlend mode="normal" in="SourceGraphic" in2="BackgroundImageFix" result="shape"/>
<feGaussianBlur stdDeviation="35" result="effect1_foregroundBlur_1660_11765"/>
</filter>
<linearGradient id="paint0_linear_1660_11765" x1="195" y1="171" x2="346.849" y2="360.567" gradientUnits="userSpaceOnUse">
<stop offset="0.269028" stop-color="#C960FF"/>
<stop offset="0.578541" stop-color="#1A7BFF"/>
</linearGradient>
<linearGradient id="paint1_linear_1660_11765" x1="732.5" y1="209.5" x2="602.831" y2="358.649" gradientUnits="userSpaceOnUse">
<stop stop-color="#FF6B00"/>
<stop offset="0.451837" stop-color="#7A33E9"/>
</linearGradient>
<linearGradient id="paint2_linear_1660_11765" x1="-64.1954" y1="687.403" x2="513.136" y2="351.851" gradientUnits="userSpaceOnUse">
<stop offset="0.28114" stop-color="#1C5CC6"/>
<stop offset="0.845313" stop-color="#6EABFF"/>
</linearGradient>
<linearGradient id="paint3_linear_1660_11765" x1="1033.98" y1="670.891" x2="501.54" y2="277.436" gradientUnits="userSpaceOnUse">
<stop offset="0.0534461" stop-color="#1A7AFE"/>
<stop offset="0.644687" stop-color="#7A33E9"/>
</linearGradient>
<linearGradient id="paint4_linear_1660_11765" x1="430.5" y1="48" x2="731.32" y2="194.326" gradientUnits="userSpaceOnUse">
<stop offset="0.443719" stop-color="#1C88C7"/>
<stop offset="0.71037" stop-color="#FF6B00"/>
</linearGradient>
<linearGradient id="paint5_linear_1660_11765" x1="533.403" y1="31.2568" x2="222.201" y2="162.618" gradientUnits="userSpaceOnUse">
<stop offset="0.44696" stop-color="#1C88C7"/>
<stop offset="0.6848" stop-color="#C960FF"/>
</linearGradient>
<clipPath id="clip0_1660_11765">
<rect width="100.753" height="113.791" fill="white" transform="translate(192.484 80.6567)"/>
</clipPath>
<clipPath id="clip1_1660_11765">
<rect x="645.285" y="47.4385" width="165.946" height="166.066" rx="9.48252" fill="white"/>
</clipPath>
<clipPath id="clip2_1660_11765">
<rect width="99.9519" height="113.791" fill="white" transform="translate(678.477 77.0859)"/>
</clipPath>
<clipPath id="clip3_1660_11765">
<rect width="101.433" height="116.162" fill="white" transform="translate(435.457 27.2627)"/>
</clipPath>
<clipPath id="clip4_1660_11765">
<rect width="104.309" height="104.308" fill="white" transform="translate(276.629 310.77)"/>
</clipPath>
<clipPath id="clip5_1660_11765">
<rect y="571" width="97" height="97" rx="8" fill="white"/>
</clipPath>
<clipPath id="clip6_1660_11765">
<rect x="144" y="571" width="97" height="97" rx="8" fill="white"/>
</clipPath>
<clipPath id="clip7_1660_11765">
<rect x="288" y="571" width="97" height="97" rx="8" fill="white"/>
</clipPath>
<clipPath id="clip8_1660_11765">
<rect x="432" y="571" width="97" height="97" rx="8" fill="white"/>
</clipPath>
<clipPath id="clip9_1660_11765">
<rect width="48" height="48" fill="white" transform="translate(457 596)"/>
</clipPath>
<clipPath id="clip10_1660_11765">
<rect x="576" y="571" width="97" height="97" rx="8" fill="white"/>
</clipPath>
<clipPath id="clip11_1660_11765">
<rect width="48" height="48" fill="white" transform="translate(601 596)"/>
</clipPath>
<clipPath id="clip12_1660_11765">
<rect x="720" y="571" width="97" height="97" rx="8" fill="white"/>
</clipPath>
<clipPath id="clip13_1660_11765">
<rect x="864" y="571" width="97" height="97" rx="8" fill="white"/>
</clipPath>
</defs>
</svg>
