<svg width="1440" height="888" viewBox="0 0 1440 888" fill="none" xmlns="http://www.w3.org/2000/svg">
<g filter="url(#filter0_f_1582_10115)">
<path d="M1440 0L720.5 887.5L0 0H1440Z" fill="url(#paint0_linear_1582_10115)" fill-opacity="0.41"/>
</g>
<g filter="url(#filter1_f_1582_10115)">
<path d="M720.5 887.5L1440 178.5V246.5L720.5 887.5ZM720.5 887.5L1440 335M720.5 887.5L1440 431.5M720.5 887.5L1440 531.5M720.5 887.5L1440 628M720.5 887.5L1440 720.5" stroke="url(#paint1_linear_1582_10115)" stroke-opacity="0.2"/>
</g>
<g filter="url(#filter2_f_1582_10115)">
<path d="M720 887.5L0.5 178.5V246.5L720 887.5ZM720 887.5L0.5 335M720 887.5L0.5 431.5M720 887.5L0.5 531.5M720 887.5L0.5 628M720 887.5L0.5 720.5" stroke="url(#paint2_linear_1582_10115)" stroke-opacity="0.2"/>
</g>
<defs>
<filter id="filter0_f_1582_10115" x="-240" y="-240" width="1920" height="1367.5" filterUnits="userSpaceOnUse" color-interpolation-filters="sRGB">
<feFlood flood-opacity="0" result="BackgroundImageFix"/>
<feBlend mode="normal" in="SourceGraphic" in2="BackgroundImageFix" result="shape"/>
<feGaussianBlur stdDeviation="120" result="effect1_foregroundBlur_1582_10115"/>
</filter>
<filter id="filter1_f_1582_10115" x="716.887" y="175.306" width="725.613" height="715.082" filterUnits="userSpaceOnUse" color-interpolation-filters="sRGB">
<feFlood flood-opacity="0" result="BackgroundImageFix"/>
<feBlend mode="normal" in="SourceGraphic" in2="BackgroundImageFix" result="shape"/>
<feGaussianBlur stdDeviation="1" result="effect1_foregroundBlur_1582_10115"/>
</filter>
<filter id="filter2_f_1582_10115" x="-2" y="175.306" width="725.613" height="715.082" filterUnits="userSpaceOnUse" color-interpolation-filters="sRGB">
<feFlood flood-opacity="0" result="BackgroundImageFix"/>
<feBlend mode="normal" in="SourceGraphic" in2="BackgroundImageFix" result="shape"/>
<feGaussianBlur stdDeviation="1" result="effect1_foregroundBlur_1582_10115"/>
</filter>
<linearGradient id="paint0_linear_1582_10115" x1="720" y1="-134" x2="720" y2="874" gradientUnits="userSpaceOnUse">
<stop stop-color="#060E2D"/>
<stop offset="0.602183" stop-color="#1F3986"/>
</linearGradient>
<linearGradient id="paint1_linear_1582_10115" x1="721" y1="888" x2="1531" y2="190" gradientUnits="userSpaceOnUse">
<stop stop-color="#A6CBFF"/>
<stop offset="1" stop-color="#A6CBFF" stop-opacity="0"/>
</linearGradient>
<linearGradient id="paint2_linear_1582_10115" x1="719.5" y1="888" x2="-90.5" y2="190" gradientUnits="userSpaceOnUse">
<stop stop-color="#A6CBFF"/>
<stop offset="1" stop-color="#A6CBFF" stop-opacity="0"/>
</linearGradient>
</defs>
</svg>
