<svg width="1920" height="1703" viewBox="0 0 1920 1703" fill="none" xmlns="http://www.w3.org/2000/svg">
<g filter="url(#filter0_f_1587_10172)">
<path d="M1680 240L960.5 1127.5L240 240H1680Z" fill="url(#paint0_linear_1587_10172)" fill-opacity="0.41"/>
</g>
<g filter="url(#filter1_f_1587_10172)">
<path d="M960.5 1127.5L1680 418.5V486.5L960.5 1127.5ZM960.5 1127.5L1680 575M960.5 1127.5L1680 671.5M960.5 1127.5L1680 771.5M960.5 1127.5L1680 868M960.5 1127.5L1680 960.5" stroke="url(#paint1_linear_1587_10172)" stroke-opacity="0.2"/>
</g>
<g filter="url(#filter2_f_1587_10172)">
<path d="M960 1127.5L240.5 418.5V486.5L960 1127.5ZM960 1127.5L240.5 575M960 1127.5L240.5 671.5M960 1127.5L240.5 771.5M960 1127.5L240.5 868M960 1127.5L240.5 960.5" stroke="url(#paint2_linear_1587_10172)" stroke-opacity="0.2"/>
</g>
<path d="M706.681 1349.12C706.255 1348.62 706.313 1347.87 706.81 1347.45V1347.45C707.307 1347.02 708.055 1347.08 708.481 1347.57L759.324 1406.93L757.524 1408.48L706.681 1349.12Z" fill="url(#paint3_linear_1587_10172)"/>
<path d="M1201.54 1341.22C1201.97 1340.72 1202.72 1340.67 1203.21 1341.09V1341.09C1203.71 1341.52 1203.77 1342.27 1203.34 1342.77L1146.26 1409.42L1144.46 1407.87L1201.54 1341.22Z" fill="url(#paint4_linear_1587_10172)"/>
<path d="M562.295 1702.35C561.748 1702.71 561.013 1702.56 560.653 1702.01V1702.01C560.293 1701.46 560.445 1700.73 560.992 1700.37L756.95 1571.33L758.253 1573.31L562.295 1702.35Z" fill="url(#paint5_linear_1587_10172)"/>
<path d="M1339.01 1700.24C1339.56 1700.6 1339.71 1701.34 1339.35 1701.89V1701.89C1338.99 1702.43 1338.25 1702.58 1337.71 1702.22L1143.47 1574.29L1144.77 1572.31L1339.01 1700.24Z" fill="url(#paint6_linear_1587_10172)"/>
<path d="M1036.93 1235.93L1037.84 1233.73L1115.58 1265.9L1114.67 1268.09L1036.93 1235.93Z" fill="url(#paint7_linear_1587_10172)"/>
<path d="M872.509 1234.51C873.115 1234.26 873.808 1234.55 874.058 1235.15V1235.15C874.308 1235.76 874.02 1236.45 873.415 1236.7L794.856 1269.2L793.95 1267.01L872.509 1234.51Z" fill="url(#paint8_linear_1587_10172)"/>
<g filter="url(#filter3_i_1587_10172)">
<rect x="628.789" y="1182.57" width="165.946" height="166.066" rx="9.48252" fill="#0B1033" fill-opacity="0.3"/>
<rect x="629.974" y="1183.75" width="163.575" height="163.695" rx="8.2972" stroke="#C960FF" stroke-opacity="0.6" stroke-width="2.37063"/>
<g clip-path="url(#clip0_1587_10172)">
<path d="M762.284 1242.34C762.283 1240.45 761.88 1238.77 761.064 1237.34C760.262 1235.92 759.061 1234.74 757.45 1233.8C744.155 1226.11 730.847 1218.44 717.556 1210.73C713.973 1208.66 710.499 1208.73 706.943 1210.84C701.651 1213.97 675.156 1229.21 667.261 1233.8C664.01 1235.69 662.428 1238.58 662.427 1242.34C662.422 1257.81 662.427 1273.29 662.422 1288.77C662.422 1290.62 662.809 1292.26 663.589 1293.68C664.392 1295.13 665.609 1296.35 667.257 1297.3C675.152 1301.9 701.65 1317.13 706.941 1320.26C710.499 1322.37 713.973 1322.45 717.558 1320.37C730.849 1312.67 744.158 1305 757.455 1297.3C759.102 1296.34 760.32 1295.13 761.122 1293.67C761.901 1292.26 762.289 1290.61 762.289 1288.76C762.289 1288.76 762.289 1257.82 762.284 1242.34Z" fill="#A179DC"/>
<path d="M712.505 1265.4L663.586 1293.67C664.388 1295.13 665.606 1296.35 667.253 1297.3C675.149 1301.89 701.647 1317.13 706.938 1320.26C710.496 1322.37 713.97 1322.45 717.554 1320.37C730.845 1312.67 744.154 1304.99 757.451 1297.3C759.099 1296.34 760.316 1295.12 761.119 1293.67L712.505 1265.4Z" fill="#280068"/>
<path d="M762.291 1242.34C762.291 1240.45 761.887 1238.77 761.071 1237.34L712.516 1265.4L761.129 1293.67C761.909 1292.26 762.296 1290.62 762.297 1288.76C762.297 1288.76 762.297 1257.82 762.291 1242.34Z" fill="#390091"/>
<path d="M741.268 1254.82V1260.11H746.533V1254.82H749.165V1260.11H754.43V1262.75H749.165V1268.03H754.43V1270.68H749.165V1275.96H746.533V1270.68H741.268V1275.96H738.636V1270.68H733.371V1268.03H738.636V1262.75H733.371V1260.11H738.636V1254.82H741.268ZM746.533 1262.75H741.268V1268.03H746.533V1262.75Z" fill="white"/>
<path d="M712.582 1228.29C726.314 1228.29 738.304 1235.77 744.726 1246.9L744.663 1246.79L728.506 1256.13C725.323 1250.72 719.487 1247.07 712.793 1247L712.582 1246.99C702.374 1246.99 694.098 1255.3 694.098 1265.55C694.094 1268.78 694.935 1271.95 696.535 1274.75C699.722 1280.34 705.711 1284.1 712.582 1284.1C719.496 1284.1 725.519 1280.29 728.689 1274.65L728.612 1274.78L744.745 1284.16C738.393 1295.2 726.568 1302.66 712.996 1302.81L712.582 1302.81C698.806 1302.81 686.783 1295.28 680.377 1284.09C677.25 1278.63 675.461 1272.3 675.461 1265.55C675.461 1244.97 692.08 1228.29 712.582 1228.29L712.582 1228.29Z" fill="white"/>
</g>
</g>
<g filter="url(#filter4_i_1587_10172)">
<rect x="1025.87" y="1407.94" width="165.946" height="166.066" rx="9.48252" fill="#0B1033" fill-opacity="0.6"/>
<rect x="1027.05" y="1409.12" width="163.575" height="163.695" rx="8.2972" stroke="#7A33E9" stroke-width="2.37063"/>
<path d="M1156.56 1475.59C1154.4 1489.07 1147.53 1501.35 1137.17 1510.25C1126.8 1519.14 1113.62 1524.07 1099.95 1524.17C1097.19 1524.28 1094.42 1524.11 1091.68 1523.67C1085.96 1522.7 1080.75 1519.8 1076.91 1515.45C1073.08 1511.11 1070.85 1505.58 1070.6 1499.79C1070.65 1493.33 1073.25 1487.16 1077.82 1482.59C1082.39 1478.03 1088.58 1475.45 1095.04 1475.4C1101.5 1475.36 1107.73 1477.85 1112.36 1482.35C1117 1486.85 1119.68 1492.99 1119.83 1499.44C1119.93 1503.52 1118.17 1507.09 1114.53 1507.2C1110.65 1507.2 1108.83 1504.43 1108.83 1500.7V1490.34C1108.83 1488.66 1108.17 1487.05 1106.99 1485.86C1105.81 1484.67 1104.2 1484 1102.53 1483.99H1093.83C1091.3 1483.97 1088.81 1484.58 1086.58 1485.78C1084.35 1486.97 1082.45 1488.7 1081.07 1490.82C1079.68 1492.93 1078.85 1495.36 1078.64 1497.87C1078.43 1500.39 1078.86 1502.92 1079.89 1505.23C1080.91 1507.54 1082.5 1509.56 1084.51 1511.1C1086.51 1512.64 1088.87 1513.65 1091.37 1514.04C1093.87 1514.44 1096.43 1514.2 1098.81 1513.35C1101.19 1512.5 1103.33 1511.07 1105.01 1509.18L1105.31 1508.73L1105.62 1509.23C1106.67 1510.65 1108.05 1511.79 1109.64 1512.55C1111.23 1513.31 1112.99 1513.66 1114.75 1513.58C1117.89 1513.35 1120.82 1511.9 1122.91 1509.55C1125 1507.19 1126.08 1504.12 1125.93 1500.97C1125.96 1498.28 1125.66 1495.59 1125.03 1492.96C1123.42 1485.55 1119.12 1479 1112.96 1474.58C1106.79 1470.15 1099.21 1468.15 1091.67 1468.98C1084.12 1469.8 1077.15 1473.39 1072.1 1479.05C1067.04 1484.7 1064.26 1492.03 1064.29 1499.61C1064.39 1507.65 1067.6 1515.34 1073.26 1521.06C1078.91 1526.79 1086.56 1530.1 1094.61 1530.3C1094.61 1530.3 1096.89 1530.51 1099.45 1530.45C1111.93 1530.37 1124.13 1526.73 1134.61 1519.97C1134.76 1519.87 1134.91 1520.07 1134.81 1520.22C1129.71 1525.72 1123.47 1530.03 1116.52 1532.87C1109.58 1535.7 1102.1 1536.99 1094.61 1536.65C1089.71 1536.74 1084.84 1535.83 1080.3 1533.99C1075.76 1532.15 1071.65 1529.41 1068.19 1525.93C1064.74 1522.46 1062.03 1518.32 1060.23 1513.77C1058.42 1509.22 1057.56 1504.35 1057.68 1499.46C1057.69 1493.63 1059.05 1487.87 1061.67 1482.66C1064.29 1477.44 1068.09 1472.91 1072.76 1469.42C1079.05 1464.8 1086.65 1462.29 1094.46 1462.27H1106.13C1110.69 1462.26 1115.2 1461.31 1119.37 1459.47C1123.54 1457.63 1127.28 1454.95 1130.35 1451.58C1130.42 1451.51 1130.51 1451.46 1130.6 1451.44C1130.7 1451.42 1130.79 1451.43 1130.88 1451.47C1130.97 1451.51 1131.05 1451.57 1131.1 1451.66C1131.15 1451.74 1131.17 1451.84 1131.16 1451.94C1130.67 1457.18 1128.92 1462.22 1126.07 1466.65C1126.03 1466.72 1126.01 1466.81 1126.01 1466.9C1126.02 1466.99 1126.05 1467.07 1126.11 1467.14C1126.16 1467.21 1126.23 1467.26 1126.31 1467.29C1126.4 1467.32 1126.49 1467.33 1126.57 1467.3C1131.96 1466.09 1136.99 1463.63 1141.25 1460.12C1145.51 1456.61 1148.88 1452.15 1151.11 1447.09C1151.16 1447 1151.24 1446.93 1151.33 1446.88C1151.42 1446.82 1151.53 1446.8 1151.64 1446.8C1151.74 1446.8 1151.85 1446.82 1151.94 1446.88C1152.03 1446.93 1152.11 1447 1152.17 1447.09C1156.74 1455.85 1158.28 1465.87 1156.56 1475.59ZM1094.58 1490.21C1093.24 1490.21 1091.91 1490.51 1090.7 1491.08C1089.48 1491.65 1088.41 1492.49 1087.56 1493.52C1086.71 1494.56 1086.1 1495.77 1085.77 1497.07C1085.44 1498.37 1085.41 1499.73 1085.67 1501.05C1086.02 1502.81 1086.89 1504.42 1088.16 1505.69C1089.43 1506.96 1091.05 1507.82 1092.81 1508.17C1094.12 1508.43 1095.48 1508.4 1096.78 1508.08C1098.09 1507.75 1099.3 1507.14 1100.34 1506.29C1101.37 1505.44 1102.21 1504.37 1102.78 1503.15C1103.36 1501.94 1103.65 1500.62 1103.65 1499.28V1490.81C1103.65 1490.65 1103.58 1490.5 1103.46 1490.38C1103.35 1490.27 1103.2 1490.2 1103.03 1490.19L1094.58 1490.21Z" fill="#933BFF"/>
</g>
<g filter="url(#filter5_i_1587_10172)">
<g clip-path="url(#clip1_1587_10172)">
<rect x="1114.79" y="1175.44" width="165.946" height="166.066" rx="9.48252" fill="#060E2D" fill-opacity="0.6"/>
<g clip-path="url(#clip2_1587_10172)">
<path d="M1156.35 1306.96L1147.98 1205.28L1247.93 1205.48L1239.08 1306.96L1198.33 1318.69L1156.35 1306.96Z" fill="#E34F26"/>
<path d="M1198.31 1308.87V1214.96L1239.47 1215.1L1232.13 1299.12L1198.31 1308.87Z" fill="#EF652A"/>
<path d="M1228.16 1238.42L1229.32 1226.01H1166L1169.5 1264.06H1213.2L1211.49 1280.29L1197.49 1284.04L1183.29 1279.95L1182.54 1270.27H1169.98L1171.7 1290.04L1197.49 1297.2L1223.49 1290.04L1226.99 1251.45H1181.1L1179.79 1238.42H1228.16Z" fill="white"/>
</g>
</g>
<rect x="1115.97" y="1176.62" width="163.575" height="163.695" rx="8.2972" stroke="#FF6B00" stroke-width="2.37063"/>
</g>
<g filter="url(#filter6_i_1587_10172)">
<rect x="872.953" y="1128" width="165.946" height="165.945" rx="11.8531" fill="#070F2F"/>
</g>
<rect x="874.138" y="1129.19" width="163.575" height="163.575" rx="10.6678" stroke="#01E9F0" stroke-opacity="0.6" stroke-width="2.37063"/>
<g clip-path="url(#clip3_1587_10172)">
<path d="M913.45 1259.26L904.957 1155.46L1006.39 1155.67L997.409 1259.26L956.056 1271.23L913.45 1259.26Z" fill="#1B73BA"/>
<path d="M956.055 1261.21V1165.34L997.825 1165.48L990.377 1251.25L956.055 1261.21Z" fill="#1C88C7"/>
<path d="M987.448 1177.6H923.191L924.932 1190.13H955.424L925.42 1203.01L927.16 1215.12H971.367L969.765 1232.04L954.798 1234.96L941.223 1231.48L940.178 1221.87H927.717L929.387 1241.85L956.12 1249.3L981.74 1241.16L985.012 1202.1H957.93L987.447 1189.85L987.448 1177.6Z" fill="white"/>
</g>
<g filter="url(#filter7_i_1587_10172)">
<rect x="715.316" y="1407.95" width="165.946" height="165.945" rx="11.8531" fill="#070F2F" fill-opacity="0.6"/>
</g>
<rect x="716.502" y="1409.13" width="163.575" height="163.575" rx="10.6678" stroke="#1A7BFF" stroke-width="2.37063"/>
<g clip-path="url(#clip4_1587_10172)">
<path d="M756.952 1475.84H757.017L757.814 1476.92C760.64 1474.83 763.737 1473.32 767.115 1472.38L767.123 1472.38L767.13 1472.38C770.549 1471.39 774.018 1471.12 777.547 1471.56C781.022 1472 784.302 1473.09 787.399 1474.85L787.407 1474.85L787.416 1474.86C790.498 1476.55 793.108 1478.79 795.256 1481.58C796.965 1483.83 798.289 1486.29 799.228 1488.98L799.228 1488.98L799.231 1488.99C800.17 1491.62 800.695 1494.34 800.806 1497.14C800.86 1499.37 800.613 1501.55 800.066 1503.67L800.062 1503.68L800.058 1503.7C799.561 1505.84 798.816 1507.9 797.822 1509.87C796.831 1511.79 795.59 1513.59 794.095 1515.3L794.092 1515.3C792.666 1516.94 791.016 1518.39 789.139 1519.65C785.214 1522.29 780.915 1523.79 776.22 1524.18C771.524 1524.51 767.062 1523.68 762.81 1521.71C760.768 1520.72 758.864 1519.52 757.096 1518.09C755.385 1516.61 753.868 1514.97 752.544 1513.16C751.273 1511.34 750.193 1509.39 749.305 1507.3C748.483 1505.17 747.964 1502.99 747.745 1500.76L747.743 1500.74L747.741 1500.73C747.687 1500.29 747.632 1499.89 747.578 1499.5V1499.5V1499.5V1499.49V1499.49V1499.49V1499.49V1499.48V1499.48V1499.48V1499.48V1499.47V1499.47V1499.47V1499.46V1499.46V1499.46V1499.46V1499.45V1499.45V1499.45V1499.45V1499.44V1499.44V1499.44V1499.43V1499.43V1499.43V1499.43V1499.42V1499.42V1499.42V1499.42V1499.41V1499.41V1499.41V1499.4V1499.4V1499.4V1499.4V1499.39V1499.39V1499.39V1499.39V1499.38V1499.38V1499.38V1499.37V1499.37V1499.37V1499.37V1499.36V1499.36V1499.36V1499.36V1499.35V1499.35V1499.35V1499.34V1499.34V1499.34V1499.34V1499.33V1499.33V1499.33V1499.33V1499.32V1499.32V1499.32V1499.32V1499.31V1499.31V1499.31V1499.3V1499.3V1499.3V1499.3V1499.29V1499.29V1499.29V1499.29V1499.28V1499.28V1499.28V1499.27V1499.27V1499.27V1499.27V1499.26V1499.26V1499.26V1499.26V1499.25V1499.25V1499.25V1499.24V1499.24V1499.24V1499.24V1499.23V1499.23V1499.23V1499.23V1499.22V1499.22V1499.22V1499.21V1499.21V1499.21V1499.21V1499.2V1499.2V1499.2V1499.2V1499.19V1499.19V1499.19V1499.19V1499.18V1499.18V1499.18V1499.17V1499.17V1499.17V1499.17V1499.16V1499.16V1499.16V1499.16V1499.15V1499.15V1499.15V1499.14V1499.14V1499.14V1499.14V1499.13V1499.13V1499.13V1499.13V1499.12V1499.12V1499.12V1499.11V1499.11V1499.11V1499.11V1499.1V1499.1V1499.1V1499.1V1499.09V1499.09V1499.09V1499.08V1499.08V1499.08V1499.08V1499.07V1499.07V1499.07V1499.07V1499.06V1499.06V1499.06V1499.06V1499.05V1499.05V1499.05V1499.04V1499.04V1499.04V1499.04V1499.03V1499.03V1499.03V1499.03V1499.02V1499.02V1499.02V1499.01V1499.01V1499.01V1499.01V1499V1499V1499V1499V1498.99V1498.99V1498.99V1498.98V1498.98V1498.98V1498.98V1498.97V1498.97V1498.97V1498.97V1498.96V1498.96V1498.96V1498.95V1498.95V1498.95V1498.95V1498.94V1498.94V1498.94V1498.94V1498.93V1498.93V1498.93V1498.92V1498.92V1498.92V1498.92V1498.91V1498.91V1498.91V1498.91V1498.9V1498.9V1498.9V1498.9V1498.89V1498.89V1498.89V1498.88V1498.88V1498.88V1498.88V1498.87V1498.87V1498.87V1498.87V1498.86V1498.86V1498.86V1498.85V1498.85V1498.85V1498.85V1498.84V1498.84V1498.84V1498.84V1498.83V1498.83V1498.83V1498.82V1498.82V1498.82V1498.82V1498.81V1498.81V1498.81V1498.81V1498.8V1498.8V1498.8V1498.79V1498.79V1498.79V1498.79V1498.78V1498.78V1498.78V1498.78V1498.77V1498.77V1498.77V1498.77V1498.76V1498.76V1498.76V1498.75V1498.75V1498.75V1498.75V1498.74V1498.74V1498.74V1498.74V1498.73V1498.73V1498.73V1498.72V1498.72V1498.72V1498.72V1498.71V1498.71V1498.71V1498.71V1498.7V1498.7V1498.7V1498.69V1498.69V1498.69V1498.69V1498.68V1498.68V1498.68V1498.68V1498.67V1498.67V1498.67V1498.66V1498.66V1498.66V1498.66V1498.65V1498.65V1498.65V1498.65V1498.64V1498.64V1498.64V1498.64V1498.63V1498.63V1498.63V1498.62V1498.62V1498.62V1498.62V1498.61V1498.61V1498.61V1498.61V1498.6V1498.6V1498.6V1498.59V1498.59V1498.59V1498.59V1498.58V1498.58V1498.58V1498.58V1498.57V1498.57V1498.57V1498.56V1498.56V1498.56V1498.56V1498.55V1498.55V1498.55V1498.55V1498.54V1498.54V1498.54V1498.53V1498.53V1498.53V1498.53V1498.52V1498.52V1498.52V1498.52V1498.51V1498.51V1498.51V1498.5V1498.5V1498.5V1498.5V1498.49V1498.49V1498.49V1498.49V1498.48V1498.48V1498.48V1498.48V1498.47V1498.47V1498.47V1498.46V1498.46V1498.46V1498.46V1498.45V1498.45V1498.45V1498.45V1498.44V1498.44V1498.44V1498.43V1498.43V1498.43V1498.43V1498.42V1498.42V1498.42V1498.42V1498.41V1498.41V1498.41V1498.4V1498.4V1498.4V1498.4V1498.39V1498.39V1498.39V1498.39V1498.38V1498.38V1498.38V1498.37V1498.37V1498.37V1498.37V1498.36V1498.36V1498.36V1498.36V1498.35V1498.35V1498.35V1498.35V1498.34V1498.34V1498.34V1498.33V1498.33V1498.33V1498.33V1498.32V1498.32V1498.32V1498.32V1498.31V1498.31V1498.31V1498.3V1498.3V1498.3V1498.3V1498.29V1498.29V1498.29V1498.29V1498.28V1498.28V1498.28V1498.27V1498.27V1498.27V1498.27V1498.26V1498.26V1498.26V1498.26V1498.25V1498.25V1498.25V1498.24V1498.24V1498.24V1498.24V1498.23V1498.23V1498.23V1498.23V1498.22V1498.22V1498.22V1497.09V1461.53C747.578 1460.41 747.953 1459.51 748.721 1458.75C749.49 1457.98 750.4 1457.61 751.541 1457.61C752.682 1457.61 753.592 1457.98 754.36 1458.75C755.128 1459.51 755.504 1460.41 755.504 1461.53V1475.03V1475.76V1475.84H756.952ZM766.178 1514.61C766.707 1514.9 767.238 1515.16 767.771 1515.4L768.092 1515.56L768.16 1515.59L768.23 1515.62L768.929 1515.88L769.627 1516.14L769.711 1515.92C772.762 1516.7 775.889 1516.64 779.068 1515.75C781.202 1515.18 783.158 1514.28 784.927 1513.02C786.752 1511.77 788.298 1510.23 789.559 1508.42C792.081 1504.91 793.188 1500.93 792.877 1496.57C792.748 1494.24 792.178 1492.04 791.165 1489.96C790.165 1487.85 788.847 1485.98 787.215 1484.35L787.194 1484.33L787.173 1484.32C786.35 1483.56 785.462 1482.9 784.511 1482.33C783.654 1481.78 782.742 1481.27 781.776 1480.79L781.748 1480.78L781.719 1480.76C779.325 1479.7 776.827 1479.16 774.235 1479.16C771.657 1479.16 769.168 1479.67 766.781 1480.66L766.766 1480.67L766.751 1480.68C764.367 1481.74 762.287 1483.21 760.523 1485.08C758.763 1486.96 757.437 1489.09 756.554 1491.47L756.551 1491.48L756.547 1491.49C755.414 1494.68 755.161 1497.95 755.791 1501.26L755.794 1501.28L755.796 1501.29C756.486 1504.59 757.933 1507.53 760.128 1510.09C761.822 1512.08 763.841 1513.59 766.178 1514.61Z" fill="#0094FF" stroke="#0094FF" stroke-width="2.89742"/>
<path d="M816.179 1486.66C817.281 1486.66 818.222 1487 818.856 1487.48C819.49 1487.95 819.749 1488.5 819.749 1488.99V1521.76C819.749 1522.24 819.49 1522.8 818.856 1523.27C818.222 1523.75 817.281 1524.09 816.179 1524.09C815.078 1524.09 814.136 1523.75 813.502 1523.27C812.868 1522.8 812.609 1522.24 812.609 1521.76V1488.99C812.609 1488.5 812.868 1487.95 813.502 1487.48C814.136 1487 815.078 1486.66 816.179 1486.66Z" fill="#0094FF" stroke="#0094FF" stroke-width="2.89742"/>
<path d="M819.749 1475.02C819.749 1476.96 818.16 1478.55 816.179 1478.55C814.198 1478.55 812.609 1476.96 812.609 1475.02C812.609 1473.07 814.198 1471.48 816.179 1471.48C818.16 1471.48 819.749 1473.07 819.749 1475.02Z" fill="#0094FF" stroke="#0094FF" stroke-width="2.89742"/>
<path d="M837.137 1471.48C839.002 1471.48 840.271 1472.82 840.271 1474.19V1521.37C840.271 1522.74 839.002 1524.08 837.137 1524.08C835.272 1524.08 834.003 1522.74 834.003 1521.37V1474.19C834.003 1472.82 835.272 1471.48 837.137 1471.48Z" fill="#0094FF" stroke="#0094FF" stroke-width="2.89742"/>
<path d="M829.507 1486.74H845.218C847.508 1486.74 849.007 1488.32 849.007 1489.85C849.007 1491.38 847.508 1492.95 845.218 1492.95H829.507C827.217 1492.95 825.718 1491.38 825.718 1489.85C825.718 1488.32 827.217 1486.74 829.507 1486.74Z" fill="#0094FF" stroke="#0094FF" stroke-width="2.89742"/>
</g>
<defs>
<filter id="filter0_f_1587_10172" x="0" y="0" width="1920" height="1367.5" filterUnits="userSpaceOnUse" color-interpolation-filters="sRGB">
<feFlood flood-opacity="0" result="BackgroundImageFix"/>
<feBlend mode="normal" in="SourceGraphic" in2="BackgroundImageFix" result="shape"/>
<feGaussianBlur stdDeviation="120" result="effect1_foregroundBlur_1587_10172"/>
</filter>
<filter id="filter1_f_1587_10172" x="956.887" y="415.306" width="725.613" height="715.082" filterUnits="userSpaceOnUse" color-interpolation-filters="sRGB">
<feFlood flood-opacity="0" result="BackgroundImageFix"/>
<feBlend mode="normal" in="SourceGraphic" in2="BackgroundImageFix" result="shape"/>
<feGaussianBlur stdDeviation="1" result="effect1_foregroundBlur_1587_10172"/>
</filter>
<filter id="filter2_f_1587_10172" x="238" y="415.306" width="725.613" height="715.082" filterUnits="userSpaceOnUse" color-interpolation-filters="sRGB">
<feFlood flood-opacity="0" result="BackgroundImageFix"/>
<feBlend mode="normal" in="SourceGraphic" in2="BackgroundImageFix" result="shape"/>
<feGaussianBlur stdDeviation="1" result="effect1_foregroundBlur_1587_10172"/>
</filter>
<filter id="filter3_i_1587_10172" x="628.789" y="1182.57" width="165.945" height="170.808" filterUnits="userSpaceOnUse" color-interpolation-filters="sRGB">
<feFlood flood-opacity="0" result="BackgroundImageFix"/>
<feBlend mode="normal" in="SourceGraphic" in2="BackgroundImageFix" result="shape"/>
<feColorMatrix in="SourceAlpha" type="matrix" values="0 0 0 0 0 0 0 0 0 0 0 0 0 0 0 0 0 0 127 0" result="hardAlpha"/>
<feOffset dy="4.74126"/>
<feGaussianBlur stdDeviation="14.8164"/>
<feComposite in2="hardAlpha" operator="arithmetic" k2="-1" k3="1"/>
<feColorMatrix type="matrix" values="0 0 0 0 0.705882 0 0 0 0 0.341176 0 0 0 0 0.917647 0 0 0 1 0"/>
<feBlend mode="normal" in2="shape" result="effect1_innerShadow_1587_10172"/>
</filter>
<filter id="filter4_i_1587_10172" x="1025.87" y="1407.94" width="165.945" height="170.808" filterUnits="userSpaceOnUse" color-interpolation-filters="sRGB">
<feFlood flood-opacity="0" result="BackgroundImageFix"/>
<feBlend mode="normal" in="SourceGraphic" in2="BackgroundImageFix" result="shape"/>
<feColorMatrix in="SourceAlpha" type="matrix" values="0 0 0 0 0 0 0 0 0 0 0 0 0 0 0 0 0 0 127 0" result="hardAlpha"/>
<feOffset dy="4.74126"/>
<feGaussianBlur stdDeviation="14.8164"/>
<feComposite in2="hardAlpha" operator="arithmetic" k2="-1" k3="1"/>
<feColorMatrix type="matrix" values="0 0 0 0 0.478431 0 0 0 0 0.2 0 0 0 0 0.913725 0 0 0 1 0"/>
<feBlend mode="normal" in2="shape" result="effect1_innerShadow_1587_10172"/>
</filter>
<filter id="filter5_i_1587_10172" x="1114.79" y="1175.44" width="165.945" height="170.808" filterUnits="userSpaceOnUse" color-interpolation-filters="sRGB">
<feFlood flood-opacity="0" result="BackgroundImageFix"/>
<feBlend mode="normal" in="SourceGraphic" in2="BackgroundImageFix" result="shape"/>
<feColorMatrix in="SourceAlpha" type="matrix" values="0 0 0 0 0 0 0 0 0 0 0 0 0 0 0 0 0 0 127 0" result="hardAlpha"/>
<feOffset dy="4.74126"/>
<feGaussianBlur stdDeviation="14.8164"/>
<feComposite in2="hardAlpha" operator="arithmetic" k2="-1" k3="1"/>
<feColorMatrix type="matrix" values="0 0 0 0 0.996078 0 0 0 0 0.419608 0 0 0 0 0 0 0 0 0.8 0"/>
<feBlend mode="normal" in2="shape" result="effect1_innerShadow_1587_10172"/>
</filter>
<filter id="filter6_i_1587_10172" x="872.953" y="1128" width="165.945" height="170.687" filterUnits="userSpaceOnUse" color-interpolation-filters="sRGB">
<feFlood flood-opacity="0" result="BackgroundImageFix"/>
<feBlend mode="normal" in="SourceGraphic" in2="BackgroundImageFix" result="shape"/>
<feColorMatrix in="SourceAlpha" type="matrix" values="0 0 0 0 0 0 0 0 0 0 0 0 0 0 0 0 0 0 127 0" result="hardAlpha"/>
<feOffset dy="4.74126"/>
<feGaussianBlur stdDeviation="14.8164"/>
<feComposite in2="hardAlpha" operator="arithmetic" k2="-1" k3="1"/>
<feColorMatrix type="matrix" values="0 0 0 0 0 0 0 0 0 0.703766 0 0 0 0 0.725 0 0 0 1 0"/>
<feBlend mode="normal" in2="shape" result="effect1_innerShadow_1587_10172"/>
</filter>
<filter id="filter7_i_1587_10172" x="715.316" y="1407.95" width="165.945" height="170.687" filterUnits="userSpaceOnUse" color-interpolation-filters="sRGB">
<feFlood flood-opacity="0" result="BackgroundImageFix"/>
<feBlend mode="normal" in="SourceGraphic" in2="BackgroundImageFix" result="shape"/>
<feColorMatrix in="SourceAlpha" type="matrix" values="0 0 0 0 0 0 0 0 0 0 0 0 0 0 0 0 0 0 127 0" result="hardAlpha"/>
<feOffset dy="4.74126"/>
<feGaussianBlur stdDeviation="14.8164"/>
<feComposite in2="hardAlpha" operator="arithmetic" k2="-1" k3="1"/>
<feColorMatrix type="matrix" values="0 0 0 0 0.101961 0 0 0 0 0.482353 0 0 0 0 1 0 0 0 1 0"/>
<feBlend mode="normal" in2="shape" result="effect1_innerShadow_1587_10172"/>
</filter>
<linearGradient id="paint0_linear_1587_10172" x1="960" y1="106" x2="960" y2="1114" gradientUnits="userSpaceOnUse">
<stop stop-color="#060E2D"/>
<stop offset="0.602183" stop-color="#1F3986"/>
</linearGradient>
<linearGradient id="paint1_linear_1587_10172" x1="961" y1="1128" x2="1771" y2="430" gradientUnits="userSpaceOnUse">
<stop stop-color="#A6CBFF"/>
<stop offset="1" stop-color="#A6CBFF" stop-opacity="0"/>
</linearGradient>
<linearGradient id="paint2_linear_1587_10172" x1="959.5" y1="1128" x2="149.5" y2="430" gradientUnits="userSpaceOnUse">
<stop stop-color="#A6CBFF"/>
<stop offset="1" stop-color="#A6CBFF" stop-opacity="0"/>
</linearGradient>
<linearGradient id="paint3_linear_1587_10172" x1="657.733" y1="1304.39" x2="813.965" y2="1485.5" gradientUnits="userSpaceOnUse">
<stop offset="0.262861" stop-color="#C960FF"/>
<stop offset="0.629166" stop-color="#1A7BFF" stop-opacity="0.2"/>
</linearGradient>
<linearGradient id="paint4_linear_1587_10172" x1="1219.66" y1="1308.29" x2="1072.84" y2="1486.95" gradientUnits="userSpaceOnUse">
<stop stop-color="#FF6B00"/>
<stop offset="0.623958" stop-color="#7A33E9" stop-opacity="0.2"/>
</linearGradient>
<linearGradient id="paint5_linear_1587_10172" x1="405.305" y1="1815.4" x2="982.636" y2="1479.85" gradientUnits="userSpaceOnUse">
<stop offset="0.244876" stop-color="#081130" stop-opacity="0"/>
<stop offset="0.633045" stop-color="#1A7BFF"/>
</linearGradient>
<linearGradient id="paint6_linear_1587_10172" x1="1503.48" y1="1798.89" x2="971.04" y2="1405.44" gradientUnits="userSpaceOnUse">
<stop offset="0.244876" stop-color="#060F2E" stop-opacity="0"/>
<stop offset="0.633045" stop-color="#7A33E9"/>
</linearGradient>
<linearGradient id="paint7_linear_1587_10172" x1="895.883" y1="1198.88" x2="1201.52" y2="1322.47" gradientUnits="userSpaceOnUse">
<stop offset="0.363924" stop-color="#01E9F0"/>
<stop offset="0.764583" stop-color="#FF6500" stop-opacity="0.2"/>
</linearGradient>
<linearGradient id="paint8_linear_1587_10172" x1="1002.9" y1="1159.26" x2="691.701" y2="1290.62" gradientUnits="userSpaceOnUse">
<stop offset="0.310709" stop-color="#02D9E3"/>
<stop offset="0.701419" stop-color="#C960FF" stop-opacity="0.23"/>
</linearGradient>
<clipPath id="clip0_1587_10172">
<rect width="100.753" height="113.791" fill="white" transform="translate(661.984 1208.66)"/>
</clipPath>
<clipPath id="clip1_1587_10172">
<rect x="1114.79" y="1175.44" width="165.946" height="166.066" rx="9.48252" fill="white"/>
</clipPath>
<clipPath id="clip2_1587_10172">
<rect width="99.9519" height="113.791" fill="white" transform="translate(1147.98 1205.09)"/>
</clipPath>
<clipPath id="clip3_1587_10172">
<rect width="101.433" height="116.162" fill="white" transform="translate(904.957 1155.26)"/>
</clipPath>
<clipPath id="clip4_1587_10172">
<rect width="104.309" height="104.308" fill="white" transform="translate(746.129 1438.77)"/>
</clipPath>
</defs>
</svg>
