<svg width="973" height="678" viewBox="0 0 973 678" fill="none" xmlns="http://www.w3.org/2000/svg">
<path d="M243.181 221.118C242.755 220.621 242.813 219.872 243.31 219.446C243.807 219.019 244.555 219.077 244.981 219.574L295.824 278.933L294.024 280.477L243.181 221.118Z" fill="url(#paint0_linear_1611_9602)"/>
<path d="M738.041 213.222C738.467 212.724 739.215 212.667 739.712 213.093C740.21 213.52 740.267 214.268 739.841 214.766L682.756 281.418L680.956 279.874L738.041 213.222Z" fill="url(#paint1_linear_1611_9602)"/>
<path d="M98.7952 574.348C98.2481 574.708 97.513 574.556 97.1531 574.009C96.7933 573.462 96.945 572.726 97.4921 572.366L293.45 443.325L294.753 445.307L98.7952 574.348Z" fill="url(#paint2_linear_1611_9602)"/>
<path d="M875.51 572.242C876.057 572.602 876.208 573.338 875.848 573.885C875.488 574.433 874.753 574.584 874.206 574.224L679.965 446.292L681.269 444.31L875.51 572.242Z" fill="url(#paint3_linear_1611_9602)"/>
<path d="M573.43 107.927L574.335 105.734L652.077 137.897L651.171 140.09L573.43 107.927Z" fill="url(#paint4_linear_1611_9602)"/>
<path d="M409.009 106.509C409.615 106.259 410.308 106.546 410.558 107.152C410.808 107.757 410.52 108.451 409.915 108.701L331.356 141.201L330.45 139.009L409.009 106.509Z" fill="url(#paint5_linear_1611_9602)"/>
<g filter="url(#filter0_i_1611_9602)">
<rect x="165.289" y="54.5684" width="165.946" height="166.066" rx="9.48252" fill="#0B1033" fill-opacity="0.01"/>
<rect x="166.474" y="55.7537" width="163.575" height="163.695" rx="8.2972" stroke="#C960FF" stroke-opacity="0.6" stroke-width="2.37063"/>
<g clip-path="url(#clip0_1611_9602)">
<path d="M298.784 114.342C298.783 112.447 298.38 110.773 297.564 109.337C296.762 107.924 295.561 106.74 293.95 105.803C280.655 98.108 267.347 90.4363 254.056 82.7331C250.473 80.6566 246.999 80.7327 243.443 82.839C238.151 85.9715 211.656 101.209 203.761 105.799C200.51 107.689 198.928 110.58 198.927 114.338C198.922 129.814 198.927 145.29 198.922 160.766C198.922 162.618 199.309 164.26 200.089 165.675C200.892 167.131 202.109 168.347 203.757 169.305C211.652 173.895 238.15 189.131 243.441 192.265C246.999 194.372 250.473 194.448 254.058 192.371C267.349 184.667 280.658 176.996 293.955 169.3C295.602 168.343 296.82 167.126 297.622 165.671C298.401 164.256 298.789 162.615 298.789 160.761C298.789 160.761 298.789 129.818 298.784 114.342Z" fill="#A179DC"/>
<path d="M249.005 137.4L200.086 165.674C200.888 167.13 202.106 168.347 203.753 169.304C211.649 173.895 238.147 189.131 243.438 192.264C246.996 194.372 250.47 194.447 254.054 192.37C267.345 184.667 280.654 176.995 293.951 169.299C295.599 168.342 296.816 167.125 297.619 165.67L249.005 137.4Z" fill="#280068"/>
<path d="M298.791 114.343C298.791 112.448 298.387 110.774 297.571 109.338L249.016 137.402L297.629 165.672C298.409 164.257 298.796 162.615 298.797 160.762C298.797 160.762 298.797 129.819 298.791 114.343Z" fill="#390091"/>
<path d="M277.768 126.821V132.106H283.033V126.821H285.665V132.106H290.93V134.749H285.665V140.033H290.93V142.676H285.665V147.961H283.033V142.676H277.768V147.961H275.136V142.676H269.871V140.033H275.136V134.749H269.871V132.106H275.136V126.821H277.768ZM283.033 134.748H277.768V140.033H283.033V134.748Z" fill="white"/>
<path d="M249.082 100.287C262.814 100.287 274.804 107.773 281.226 118.901L281.163 118.793L265.006 128.132C261.823 122.722 255.987 119.07 249.293 118.995L249.082 118.994C238.874 118.994 230.598 127.301 230.598 137.549C230.594 140.778 231.435 143.953 233.035 146.754C236.222 152.338 242.211 156.104 249.082 156.104C255.996 156.104 262.019 152.29 265.189 146.647L265.112 146.782L281.245 156.164C274.893 167.197 263.068 174.661 249.496 174.809L249.082 174.812C235.306 174.812 223.283 167.279 216.877 156.092C213.75 150.631 211.961 144.3 211.961 137.549C211.961 116.97 228.58 100.286 249.082 100.286L249.082 100.287Z" fill="white"/>
</g>
</g>
<g filter="url(#filter1_i_1611_9602)">
<rect x="562.367" y="279.938" width="165.946" height="166.066" rx="9.48252" fill="#0B1033" fill-opacity="0.01"/>
<rect x="563.553" y="281.123" width="163.575" height="163.695" rx="8.2972" stroke="#7A33E9" stroke-width="2.37063"/>
<path d="M693.055 347.589C690.903 361.07 684.033 373.35 673.669 382.245C663.305 391.14 650.118 396.074 636.455 396.169C633.687 396.275 630.916 396.107 628.181 395.667C622.463 394.697 617.25 391.797 613.413 387.452C609.576 383.106 607.346 377.578 607.095 371.789C607.151 365.332 609.745 359.156 614.319 354.593C618.892 350.031 625.078 347.448 631.542 347.403C638.005 347.357 644.227 349.852 648.865 354.35C653.502 358.847 656.184 364.986 656.331 371.441C656.434 375.519 654.666 379.095 651.033 379.198C647.15 379.198 645.331 376.431 645.331 372.701V362.338C645.332 360.663 644.67 359.054 643.489 357.864C642.308 356.674 640.704 355.998 639.026 355.985H630.33C627.801 355.968 625.308 356.584 623.078 357.777C620.849 358.97 618.954 360.703 617.568 362.816C616.181 364.93 615.347 367.357 615.141 369.875C614.935 372.393 615.364 374.923 616.389 377.233C617.414 379.543 619.002 381.56 621.008 383.099C623.014 384.638 625.374 385.65 627.873 386.044C630.372 386.436 632.929 386.197 635.311 385.348C637.694 384.499 639.825 383.068 641.511 381.184L641.815 380.731L642.119 381.234C643.165 382.653 644.546 383.792 646.139 384.55C647.732 385.308 649.487 385.661 651.25 385.577C654.391 385.349 657.319 383.904 659.408 381.549C661.497 379.194 662.581 376.117 662.43 372.974C662.461 370.277 662.158 367.587 661.529 364.964C659.917 357.555 655.615 351.004 649.455 346.575C643.295 342.147 635.711 340.153 628.167 340.978C620.622 341.804 613.65 345.39 608.596 351.046C603.541 356.703 600.761 364.028 600.792 371.61C600.889 379.65 604.101 387.34 609.755 393.063C615.408 398.786 623.062 402.097 631.108 402.301C631.108 402.301 633.385 402.508 635.953 402.449C648.432 402.37 660.63 398.734 671.113 391.969C671.262 391.865 671.411 392.072 671.312 392.223C666.209 397.715 659.968 402.03 653.025 404.866C646.081 407.703 638.602 408.993 631.109 408.648C626.21 408.737 621.344 407.833 616.804 405.992C612.264 404.151 608.145 401.41 604.695 397.935C601.244 394.459 598.534 390.322 596.727 385.772C594.921 381.222 594.056 376.353 594.184 371.46C594.187 365.627 595.551 359.874 598.169 354.659C600.787 349.445 604.586 344.912 609.265 341.421C615.553 336.795 623.151 334.29 630.96 334.266H642.631C647.19 334.263 651.698 333.311 655.869 331.472C660.04 329.632 663.781 326.945 666.855 323.582C666.92 323.51 667.006 323.461 667.101 323.441C667.196 323.421 667.295 323.431 667.384 323.469C667.473 323.508 667.548 323.574 667.597 323.657C667.647 323.741 667.669 323.838 667.661 323.936C667.167 329.176 665.42 334.221 662.569 338.647C662.527 338.724 662.508 338.812 662.514 338.899C662.521 338.987 662.553 339.07 662.607 339.14C662.66 339.209 662.732 339.262 662.814 339.291C662.897 339.32 662.986 339.325 663.071 339.305C668.459 338.089 673.485 335.627 677.746 332.117C682.008 328.606 685.384 324.146 687.605 319.094C687.662 319.004 687.739 318.929 687.832 318.876C687.925 318.823 688.03 318.796 688.137 318.796C688.244 318.796 688.349 318.823 688.442 318.876C688.534 318.929 688.612 319.004 688.668 319.094C693.242 327.847 694.785 337.868 693.055 347.589ZM631.078 362.209C629.735 362.209 628.41 362.506 627.196 363.079C625.982 363.652 624.911 364.487 624.059 365.524C623.208 366.561 622.597 367.773 622.271 369.074C621.944 370.375 621.911 371.732 622.173 373.047C622.524 374.806 623.388 376.422 624.658 377.691C625.927 378.959 627.545 379.823 629.306 380.173C630.623 380.435 631.981 380.401 633.283 380.075C634.585 379.749 635.799 379.139 636.836 378.288C637.874 377.437 638.71 376.367 639.284 375.155C639.857 373.943 640.155 372.618 640.154 371.277V362.811C640.146 362.649 640.078 362.496 639.963 362.381C639.849 362.267 639.695 362.199 639.533 362.19L631.078 362.209Z" fill="#933BFF"/>
</g>
<g filter="url(#filter2_i_1611_9602)">
<g clip-path="url(#clip1_1611_9602)">
<rect x="651.285" y="47.4385" width="165.946" height="166.066" rx="9.48252" fill="#060E2D" fill-opacity="0.01"/>
<g clip-path="url(#clip2_1611_9602)">
<path d="M692.85 178.96L684.48 77.2783L784.432 77.4827L775.583 178.96L734.834 190.689L692.85 178.96Z" fill="#E34F26"/>
<path d="M734.809 180.869V86.9619L775.969 87.0981L768.629 171.116L734.809 180.869Z" fill="#EF652A"/>
<path d="M764.657 110.42L765.823 98.0078H702.504L706.002 136.062H749.701L747.988 152.293L733.993 156.043L719.792 151.951L719.038 142.267H706.483L708.198 162.044L733.992 169.205L759.992 162.044L763.49 123.445H717.597L716.293 110.42H764.657Z" fill="white"/>
</g>
</g>
<rect x="652.47" y="48.6238" width="163.575" height="163.695" rx="8.2972" stroke="#FF6B00" stroke-width="2.37063"/>
</g>
<rect x="410.638" y="1.185" width="163.576" height="163.696" rx="8.295" stroke="#01E9F0" stroke-width="2.37"/>
<g filter="url(#filter3_i_1611_9602)">
<rect x="409.453" y="0.000976562" width="165.946" height="165.945" rx="11.8531" fill="#070F2F" fill-opacity="0.01"/>
</g>
<rect x="410.638" y="1.18629" width="163.575" height="163.575" rx="10.6678" stroke="#01E9F0" stroke-opacity="0.01" stroke-width="2.37063"/>
<g clip-path="url(#clip3_1611_9602)">
<path d="M449.95 131.255L441.457 27.457L542.89 27.6656L533.909 131.255L492.556 143.229L449.95 131.255Z" fill="#1B73BA"/>
<path d="M492.555 133.207V37.3447L534.325 37.4838L526.877 123.251L492.555 133.207Z" fill="#1C88C7"/>
<path d="M523.948 49.5986H459.691L461.432 62.1288H491.924L461.92 75.0083L463.66 87.1213H507.867L506.265 104.038L491.298 106.962L477.723 103.481L476.678 93.8739H464.217L465.887 113.854L492.62 121.303L518.24 113.158L521.512 74.1027H494.43L523.947 61.8507L523.948 49.5986Z" fill="white"/>
</g>
<g filter="url(#filter4_i_1611_9602)">
<rect x="251.816" y="279.949" width="165.946" height="165.945" rx="11.8531" fill="#070F2F" fill-opacity="0.01"/>
</g>
<rect x="253.002" y="281.135" width="163.575" height="163.575" rx="10.6678" stroke="#1A7BFF" stroke-width="2.37063"/>
<g clip-path="url(#clip4_1611_9602)">
<path d="M293.452 347.843H293.517L294.314 348.921C297.14 346.829 300.237 345.318 303.615 344.383L303.623 344.381L303.63 344.379C307.049 343.392 310.518 343.119 314.047 343.557C317.522 343.996 320.803 345.091 323.899 346.848L323.907 346.853L323.916 346.858C326.998 348.553 329.608 350.791 331.756 353.58C333.465 355.828 334.789 358.293 335.728 360.982L335.728 360.982L335.731 360.991C336.67 363.625 337.195 366.338 337.306 369.137C337.36 371.372 337.113 373.547 336.566 375.666L336.562 375.683L336.558 375.7C336.061 377.84 335.316 379.897 334.322 381.874C333.331 383.786 332.09 385.595 330.595 387.301L330.592 387.304C329.165 388.939 327.516 390.388 325.639 391.65C321.714 394.286 317.415 395.792 312.72 396.177C308.024 396.505 303.562 395.684 299.31 393.711C297.268 392.723 295.364 391.518 293.596 390.093C291.885 388.61 290.368 386.965 289.044 385.157C287.773 383.344 286.693 381.393 285.805 379.3C284.983 377.172 284.464 374.995 284.245 372.764L284.243 372.745L284.241 372.725C284.187 372.294 284.132 371.886 284.078 371.502V371.499V371.497V371.494V371.491V371.489V371.486V371.483V371.48V371.478V371.475V371.472V371.47V371.467V371.464V371.462V371.459V371.456V371.453V371.451V371.448V371.445V371.443V371.44V371.437V371.434V371.432V371.429V371.426V371.424V371.421V371.418V371.415V371.413V371.41V371.407V371.405V371.402V371.399V371.396V371.394V371.391V371.388V371.386V371.383V371.38V371.377V371.375V371.372V371.369V371.367V371.364V371.361V371.359V371.356V371.353V371.35V371.348V371.345V371.342V371.34V371.337V371.334V371.331V371.329V371.326V371.323V371.321V371.318V371.315V371.312V371.31V371.307V371.304V371.302V371.299V371.296V371.293V371.291V371.288V371.285V371.283V371.28V371.277V371.275V371.272V371.269V371.266V371.264V371.261V371.258V371.256V371.253V371.25V371.247V371.245V371.242V371.239V371.237V371.234V371.231V371.228V371.226V371.223V371.22V371.218V371.215V371.212V371.209V371.207V371.204V371.201V371.199V371.196V371.193V371.19V371.188V371.185V371.182V371.18V371.177V371.174V371.172V371.169V371.166V371.163V371.161V371.158V371.155V371.153V371.15V371.147V371.144V371.142V371.139V371.136V371.134V371.131V371.128V371.125V371.123V371.12V371.117V371.115V371.112V371.109V371.106V371.104V371.101V371.098V371.096V371.093V371.09V371.088V371.085V371.082V371.079V371.077V371.074V371.071V371.069V371.066V371.063V371.06V371.058V371.055V371.052V371.05V371.047V371.044V371.041V371.039V371.036V371.033V371.031V371.028V371.025V371.022V371.02V371.017V371.014V371.012V371.009V371.006V371.004V371.001V370.998V370.995V370.993V370.99V370.987V370.985V370.982V370.979V370.976V370.974V370.971V370.968V370.966V370.963V370.96V370.957V370.955V370.952V370.949V370.947V370.944V370.941V370.938V370.936V370.933V370.93V370.928V370.925V370.922V370.92V370.917V370.914V370.911V370.909V370.906V370.903V370.901V370.898V370.895V370.892V370.89V370.887V370.884V370.882V370.879V370.876V370.873V370.871V370.868V370.865V370.863V370.86V370.857V370.854V370.852V370.849V370.846V370.844V370.841V370.838V370.836V370.833V370.83V370.827V370.825V370.822V370.819V370.817V370.814V370.811V370.808V370.806V370.803V370.8V370.798V370.795V370.792V370.789V370.787V370.784V370.781V370.779V370.776V370.773V370.77V370.768V370.765V370.762V370.76V370.757V370.754V370.752V370.749V370.746V370.743V370.741V370.738V370.735V370.733V370.73V370.727V370.724V370.722V370.719V370.716V370.714V370.711V370.708V370.705V370.703V370.7V370.697V370.695V370.692V370.689V370.686V370.684V370.681V370.678V370.676V370.673V370.67V370.668V370.665V370.662V370.659V370.657V370.654V370.651V370.649V370.646V370.643V370.64V370.638V370.635V370.632V370.63V370.627V370.624V370.621V370.619V370.616V370.613V370.611V370.608V370.605V370.602V370.6V370.597V370.594V370.592V370.589V370.586V370.584V370.581V370.578V370.575V370.573V370.57V370.567V370.565V370.562V370.559V370.556V370.554V370.551V370.548V370.546V370.543V370.54V370.537V370.535V370.532V370.529V370.527V370.524V370.521V370.518V370.516V370.513V370.51V370.508V370.505V370.502V370.5V370.497V370.494V370.491V370.489V370.486V370.483V370.481V370.478V370.475V370.472V370.47V370.467V370.464V370.462V370.459V370.456V370.453V370.451V370.448V370.445V370.443V370.44V370.437V370.434V370.432V370.429V370.426V370.424V370.421V370.418V370.415V370.413V370.41V370.407V370.405V370.402V370.399V370.397V370.394V370.391V370.388V370.386V370.383V370.38V370.378V370.375V370.372V370.369V370.367V370.364V370.361V370.359V370.356V370.353V370.35V370.348V370.345V370.342V370.34V370.337V370.334V370.331V370.329V370.326V370.323V370.321V370.318V370.315V370.312V370.31V370.307V370.304V370.302V370.299V370.296V370.294V370.291V370.288V370.285V370.283V370.28V370.277V370.275V370.272V370.269V370.266V370.264V370.261V370.258V370.256V370.253V370.25V370.247V370.245V370.242V370.239V370.237V370.234V370.231V370.228V370.226V370.223V370.22V370.218V369.09V333.534C284.078 332.409 284.453 331.509 285.221 330.746C285.99 329.982 286.9 329.606 288.041 329.606C289.182 329.606 290.092 329.982 290.86 330.746C291.628 331.509 292.004 332.409 292.004 333.534V347.026V347.757V347.843H293.452ZM302.678 386.61C303.207 386.9 303.738 387.163 304.271 387.399C304.382 387.454 304.49 387.508 304.592 387.559L304.66 387.592L304.73 387.619L306.127 388.139L306.211 387.92C309.261 388.698 312.389 388.639 315.568 387.746C317.702 387.183 319.658 386.275 321.427 385.021C323.252 383.769 324.798 382.234 326.059 380.42C328.581 376.907 329.688 372.935 329.377 368.565C329.249 366.242 328.678 364.036 327.665 361.958C326.664 359.847 325.347 357.977 323.715 356.355L323.694 356.335L323.673 356.315C322.85 355.56 321.962 354.898 321.011 354.329C320.154 353.783 319.242 353.27 318.276 352.79L318.248 352.776L318.219 352.763C315.825 351.699 313.327 351.164 310.735 351.164C308.157 351.164 305.668 351.665 303.281 352.664L303.266 352.67L303.251 352.677C300.867 353.737 298.787 355.207 297.023 357.085C295.263 358.958 293.937 361.089 293.054 363.47L293.051 363.479L293.047 363.489C291.914 366.679 291.661 369.945 292.291 373.263L292.294 373.276L292.296 373.289C292.986 376.591 294.433 379.53 296.628 382.085C298.322 384.079 300.341 385.594 302.678 386.61Z" fill="#0094FF" stroke="#0094FF" stroke-width="2.89742"/>
<path d="M352.679 358.66C353.781 358.66 354.722 358.998 355.356 359.475C355.99 359.953 356.249 360.503 356.249 360.991V393.756C356.249 394.245 355.99 394.795 355.356 395.272C354.722 395.75 353.781 396.088 352.679 396.088C351.578 396.088 350.636 395.75 350.002 395.272C349.368 394.795 349.109 394.245 349.109 393.756V360.991C349.109 360.503 349.368 359.953 350.002 359.475C350.636 358.998 351.578 358.66 352.679 358.66Z" fill="#0094FF" stroke="#0094FF" stroke-width="2.89742"/>
<path d="M356.249 347.017C356.249 348.962 354.66 350.555 352.679 350.555C350.698 350.555 349.109 348.962 349.109 347.017C349.109 345.072 350.698 343.479 352.679 343.479C354.66 343.479 356.249 345.072 356.249 347.017Z" fill="#0094FF" stroke="#0094FF" stroke-width="2.89742"/>
<path d="M373.637 343.479C375.502 343.479 376.771 344.822 376.771 346.193V393.37C376.771 394.741 375.502 396.084 373.637 396.084C371.772 396.084 370.503 394.741 370.503 393.37V346.193C370.503 344.822 371.772 343.479 373.637 343.479Z" fill="#0094FF" stroke="#0094FF" stroke-width="2.89742"/>
<path d="M366.007 358.743H381.718C384.008 358.743 385.507 360.316 385.507 361.847C385.507 363.377 384.008 364.951 381.718 364.951H366.007C363.717 364.951 362.218 363.377 362.218 361.847C362.218 360.316 363.717 358.743 366.007 358.743Z" fill="#0094FF" stroke="#0094FF" stroke-width="2.89742"/>
</g>
<g filter="url(#filter5_d_1611_9602)">
<g clip-path="url(#clip5_1611_9602)">
<g filter="url(#filter6_f_1611_9602)">
<path d="M262 623C262 679.885 220.139 726 168.5 726C116.861 726 75 679.885 75 623C75 566.115 116.861 520 168.5 520C220.139 520 262 566.115 262 623Z" fill="#1F3986" fill-opacity="0.9"/>
</g>
<path d="M32.4337 630.413V624.852C33.5634 625.533 34.6858 626.04 35.8009 626.373C36.9305 626.706 37.995 626.873 38.9942 626.873C40.2108 626.873 41.1666 626.706 41.8617 626.373C42.5714 626.04 42.9262 625.533 42.9262 624.852C42.9262 624.418 42.7669 624.056 42.4483 623.766C42.1297 623.476 41.7169 623.223 41.21 623.006C40.7176 622.789 40.1745 622.593 39.5808 622.419C38.987 622.245 38.4149 622.05 37.8646 621.833C36.9812 621.5 36.1992 621.145 35.5185 620.768C34.8523 620.377 34.2875 619.928 33.8241 619.421C33.3751 618.915 33.0275 618.328 32.7813 617.662C32.5496 616.996 32.4337 616.206 32.4337 615.294C32.4337 614.048 32.7017 612.977 33.2375 612.079C33.7878 611.181 34.512 610.45 35.4099 609.885C36.3223 609.305 37.3577 608.885 38.5163 608.625C39.6894 608.35 40.9059 608.212 42.1659 608.212C43.1507 608.212 44.1499 608.292 45.1637 608.451C46.1775 608.596 47.1768 608.813 48.1615 609.103V614.403C47.2926 613.896 46.3585 613.52 45.3592 613.274C44.3744 613.013 43.4041 612.883 42.4483 612.883C41.9993 612.883 41.5721 612.926 41.1666 613.013C40.7756 613.085 40.428 613.201 40.1239 613.361C39.8197 613.505 39.5808 613.701 39.407 613.947C39.2332 614.179 39.1463 614.447 39.1463 614.751C39.1463 615.156 39.2766 615.504 39.5373 615.794C39.798 616.083 40.1383 616.337 40.5583 616.554C40.9783 616.757 41.4418 616.945 41.9486 617.119C42.47 617.278 42.9841 617.445 43.491 617.618C44.4034 617.937 45.2289 618.285 45.9675 618.661C46.7061 619.038 47.3361 619.479 47.8574 619.986C48.3933 620.493 48.7988 621.087 49.0739 621.768C49.3636 622.448 49.5084 623.259 49.5084 624.201C49.5084 625.518 49.2188 626.648 48.6395 627.589C48.0747 628.516 47.3143 629.277 46.3585 629.87C45.4171 630.45 44.3237 630.87 43.0783 631.13C41.8473 631.406 40.5656 631.543 39.2332 631.543C36.7857 631.543 34.5192 631.167 32.4337 630.413Z" fill="white"/>
<rect x="45.8281" y="604.293" width="3.70747" height="27.8061" fill="#0B163C"/>
<path d="M54.8114 622.667H58.4885C59.6024 622.667 60.5943 622.543 61.4642 622.294L62.4151 619.364L65.0729 611.176C64.8704 610.855 64.6392 610.552 64.3793 610.266C63.0147 608.755 61.0181 608 58.3896 608H49.1445V630.334H54.8114V622.667ZM59.6787 613.138C60.2117 613.675 60.4782 614.392 60.4782 615.292C60.4782 616.198 60.2438 616.917 59.775 617.448C59.2612 618.038 58.3149 618.334 56.9364 618.334H54.8114V612.333H56.952C58.2368 612.333 59.1457 612.602 59.6787 613.138Z" fill="white"/>
<path d="M63.2188 626.334L64.9324 622H69.8804L67.5322 615.427L70.469 608L78.8807 630.334H72.6774L71.24 626.334H63.2188Z" fill="white"/>
</g>
<rect x="6.5" y="571.5" width="96" height="96" rx="7.5" stroke="#1A7BFF" stroke-opacity="0.3" shape-rendering="crispEdges"/>
</g>
<g filter="url(#filter7_d_1611_9602)">
<g clip-path="url(#clip6_1611_9602)">
<g filter="url(#filter8_f_1611_9602)">
<path d="M406 623C406 679.885 364.139 726 312.5 726C260.861 726 219 679.885 219 623C219 566.115 260.861 520 312.5 520C364.139 520 406 566.115 406 623Z" fill="#1F3986" fill-opacity="0.9"/>
</g>
<path d="M210.324 625.788L211.711 622.282H215.715L213.815 616.963L216.191 610.953L222.997 629.025H217.978L216.815 625.788H210.324Z" fill="white"/>
<path d="M206.045 629.025L213.331 610.953L208.5 610.953L203.516 622.632L199.972 610.953H196.258L192.453 622.632L189.769 617.31L187.34 624.793L189.806 629.025H194.56L197.999 618.552L201.278 629.025H206.045Z" fill="white"/>
<path d="M179.585 622.821H182.561C183.462 622.821 184.265 622.721 184.969 622.52L185.738 620.149L187.889 613.523C187.725 613.263 187.538 613.018 187.328 612.786C186.223 611.564 184.608 610.953 182.481 610.953H175V629.025H179.585V622.821ZM183.524 615.111C183.955 615.545 184.171 616.126 184.171 616.854C184.171 617.587 183.981 618.168 183.602 618.598C183.186 619.076 182.42 619.315 181.305 619.315H179.585V614.46H181.318C182.357 614.46 183.093 614.677 183.524 615.111Z" fill="white"/>
</g>
<rect x="150.5" y="571.5" width="96" height="96" rx="7.5" stroke="#1A7BFF" stroke-opacity="0.3" shape-rendering="crispEdges"/>
</g>
<g filter="url(#filter9_d_1611_9602)">
<g clip-path="url(#clip7_1611_9602)">
<g filter="url(#filter10_f_1611_9602)">
<path d="M550 623C550 679.885 508.139 726 456.5 726C404.861 726 363 679.885 363 623C363 566.115 404.861 520 456.5 520C508.139 520 550 566.115 550 623Z" fill="#1F3986" fill-opacity="0.9"/>
</g>
<path d="M333.74 591C333.476 591.003 333.202 591.066 332.952 591.205C332.159 591.644 331.868 592.663 332.307 593.456L334.098 596.689C329.784 599.359 326.925 603.918 326.925 609.122C326.925 609.143 326.925 609.176 326.925 609.209C326.925 609.22 326.925 609.226 326.925 609.239C326.925 609.256 326.925 609.281 326.925 609.285V610.089C326.096 609.135 324.878 608.533 323.518 608.533C321.024 608.533 319 610.558 319 613.051V626.967C319 629.46 321.024 631.484 323.518 631.484C324.878 631.484 326.096 630.882 326.925 629.929V631.878C326.925 634.506 329.075 636.657 331.703 636.657H332.916V642.847C332.916 645.341 334.94 647.365 337.434 647.365C339.927 647.365 341.951 645.341 341.951 642.847V636.657H344.049V642.847C344.049 645.341 346.073 647.365 348.566 647.365C351.06 647.365 353.084 645.341 353.084 642.847V636.657H354.297C356.925 636.657 359.075 634.506 359.075 631.878V629.929C359.904 630.882 361.122 631.484 362.482 631.484C364.976 631.484 367 629.46 367 626.967V613.051C367 610.558 364.976 608.533 362.482 608.533C361.122 608.533 359.904 609.135 359.075 610.089V609.301V609.285C359.075 609.261 359.075 609.236 359.075 609.239C359.075 609.19 359.075 609.151 359.075 609.122C359.075 603.919 356.21 599.364 351.897 596.694L353.693 593.456C354.132 592.663 353.841 591.644 353.048 591.205C352.798 591.066 352.524 591.003 352.26 591C351.675 590.994 351.1 591.303 350.797 591.849L348.919 595.241C347.083 594.564 345.086 594.193 343 594.193C340.916 594.193 338.915 594.56 337.081 595.236L335.203 591.849C334.9 591.303 334.325 590.994 333.74 591Z" fill="#070D22"/>
<path d="M323.521 609.709C321.66 609.709 320.18 611.189 320.18 613.05V626.966C320.18 628.826 321.66 630.307 323.521 630.307C325.381 630.307 326.861 628.826 326.861 626.966V613.05C326.861 611.189 325.381 609.709 323.521 609.709ZM362.485 609.709C360.625 609.709 359.145 611.189 359.145 613.05V626.966C359.145 628.826 360.625 630.307 362.485 630.307C364.346 630.307 365.826 628.826 365.826 626.966V613.05C365.826 611.189 364.346 609.709 362.485 609.709Z" fill="white"/>
<path d="M337.435 625.591C335.574 625.591 334.094 627.071 334.094 628.932V642.848C334.094 644.708 335.574 646.189 337.435 646.189C339.295 646.189 340.775 644.708 340.775 642.848V628.932C340.775 627.071 339.295 625.591 337.435 625.591ZM348.567 625.591C346.707 625.591 345.227 627.071 345.227 628.932V642.848C345.227 644.708 346.707 646.189 348.567 646.189C350.428 646.189 351.908 644.708 351.908 642.848V628.932C351.908 627.071 350.428 625.591 348.567 625.591Z" fill="white"/>
<path d="M333.754 592.177C333.675 592.178 333.601 592.198 333.529 592.238C333.29 592.37 333.212 592.644 333.344 592.883L335.698 597.134C331.17 599.49 328.112 603.968 328.105 609.106H357.902C357.896 603.968 354.838 599.49 350.31 597.134L352.663 592.883C352.796 592.644 352.717 592.37 352.479 592.238C352.406 592.198 352.333 592.178 352.254 592.177C352.085 592.175 351.925 592.26 351.834 592.422L349.45 596.72C347.5 595.855 345.312 595.369 343.004 595.369C340.695 595.369 338.508 595.855 336.557 596.72L334.173 592.422C334.083 592.26 333.923 592.175 333.754 592.177ZM328.105 610.283V631.878C328.105 633.874 329.712 635.48 331.707 635.48H354.3C356.296 635.48 357.902 633.874 357.902 631.878V610.283H328.105Z" fill="white"/>
<path d="M336.122 601.167C335.442 601.167 334.879 601.73 334.879 602.41C334.879 603.09 335.442 603.653 336.122 603.653C336.802 603.653 337.365 603.09 337.365 602.41C337.365 601.73 336.802 601.167 336.122 601.167ZM349.874 601.167C349.194 601.167 348.631 601.73 348.631 602.41C348.631 603.09 349.194 603.653 349.874 603.653C350.555 603.653 351.118 603.09 351.118 602.41C351.118 601.73 350.555 601.167 349.874 601.167Z" fill="#070D22"/>
</g>
<rect x="294.5" y="571.5" width="96" height="96" rx="7.5" stroke="#1A7BFF" stroke-opacity="0.3" shape-rendering="crispEdges"/>
</g>
<g filter="url(#filter11_d_1611_9602)">
<g clip-path="url(#clip8_1611_9602)">
<g filter="url(#filter12_f_1611_9602)">
<path d="M694 623C694 679.885 652.139 726 600.5 726C548.861 726 507 679.885 507 623C507 566.115 548.861 520 600.5 520C652.139 520 694 566.115 694 623Z" fill="#1F3986" fill-opacity="0.9"/>
</g>
<g clip-path="url(#clip9_1611_9602)">
<path d="M476.091 596C468.869 596 463 601.869 463 609.091V630.908C463 638.131 468.869 644 476.091 644H497.908C505.131 644 511 638.131 511 630.909V609.091C511 601.869 505.131 596 497.909 596H476.091ZM472.402 612.44C473.165 612.44 473.734 612.985 473.734 613.705C473.734 614.415 473.165 614.96 472.402 614.96C471.628 614.96 471.062 614.414 471.062 613.705C471.062 612.986 471.628 612.44 472.402 612.44ZM483.77 613.062C487.752 613.062 490.206 615.842 490.206 620.304C490.206 624.755 487.773 627.559 483.77 627.559C479.744 627.559 477.301 624.765 477.301 620.304C477.301 615.832 479.799 613.062 483.77 613.062ZM497.877 613.062C500.68 613.062 502.73 614.697 502.86 617.032H500.766C500.559 615.755 499.458 614.961 497.843 614.961C496.141 614.961 495.018 615.766 495.018 617.021C495.018 618.003 495.738 618.571 497.549 618.996L499.066 619.366C501.914 620.032 503.081 621.178 503.081 623.261C503.081 625.912 501.029 627.57 497.745 627.57C494.68 627.57 492.618 625.989 492.465 623.513H494.594C494.779 624.822 496.065 625.66 497.908 625.66C499.633 625.66 500.898 624.766 500.898 623.534C500.898 622.486 500.101 621.855 498.268 621.418L496.479 620.992C493.981 620.402 492.836 619.192 492.836 617.163C492.836 614.699 494.856 613.062 497.877 613.062ZM483.77 615.059C481.162 615.059 479.506 617.097 479.506 620.304C479.506 623.5 481.108 625.563 483.77 625.563C486.399 625.563 488.014 623.501 488.014 620.304C488.015 617.098 486.399 615.059 483.77 615.059ZM471.378 616.794H473.429V627.234H471.378V616.794Z" fill="white"/>
</g>
</g>
<rect x="438.5" y="571.5" width="96" height="96" rx="7.5" stroke="#1A7BFF" stroke-opacity="0.3" shape-rendering="crispEdges"/>
</g>
<g filter="url(#filter13_d_1611_9602)">
<g clip-path="url(#clip10_1611_9602)">
<g filter="url(#filter14_f_1611_9602)">
<path d="M838 623C838 679.885 796.139 726 744.5 726C692.861 726 651 679.885 651 623C651 566.115 692.861 520 744.5 520C796.139 520 838 566.115 838 623Z" fill="#1F3986" fill-opacity="0.9"/>
</g>
<g clip-path="url(#clip11_1611_9602)">
<path fill-rule="evenodd" clip-rule="evenodd" d="M607.015 618.4L607 602.796L626.201 600.189V618.4H607.015H607.015ZM629.399 599.724L654.993 595.999V618.4H629.399L629.399 599.724ZM655 621.6L654.995 644.001L629.4 640.4V621.6H655L655 621.6ZM626.199 639.991L607.014 637.36V621.596H626.199V639.991Z" fill="white"/>
</g>
</g>
<rect x="582.5" y="571.5" width="96" height="96" rx="7.5" stroke="#1A7BFF" stroke-opacity="0.3" shape-rendering="crispEdges"/>
</g>
<g filter="url(#filter15_d_1611_9602)">
<g clip-path="url(#clip12_1611_9602)">
<g filter="url(#filter16_f_1611_9602)">
<path d="M982 623C982 679.885 940.139 726 888.5 726C836.861 726 795 679.885 795 623C795 566.115 836.861 520 888.5 520C940.139 520 982 566.115 982 623Z" fill="#1F3986" fill-opacity="0.9"/>
</g>
<circle cx="775" cy="620" r="24" fill="white"/>
<path d="M777.844 611.697V611.343C773.245 611.343 777.402 614.35 777.844 611.697ZM779.967 610.105C780.586 608.248 783.77 608.071 784.124 610.37H783.239C782.974 609.044 780.763 608.955 780.763 611.343C780.763 612.67 782.797 613.466 783.239 611.874H784.124C783.593 614.792 778.906 613.731 779.967 610.105ZM767.055 608.69H767.939V609.486C768.381 608.425 770.327 608.336 770.681 609.574C771.3 608.248 773.776 608.336 773.776 610.193V613.466H772.803V610.459C772.803 609.132 770.858 609.132 770.858 610.547V613.466H769.885V610.37C769.668 609.543 768.566 609.377 768.116 610.105L767.939 610.547V613.466H767.055V608.69ZM769.089 631.596C764.932 631.596 762.367 628.678 762.367 623.99C762.367 619.303 764.932 616.473 769.089 616.473C773.245 616.473 775.899 619.391 775.899 623.99C775.899 628.589 773.334 631.596 769.089 631.596ZM776.872 613.466C774.307 614.085 773.953 610.813 776.606 610.724L777.844 610.636V610.282C777.933 609.221 776.164 609.132 775.899 610.105H775.014C775.018 609.887 775.079 609.673 775.191 609.486C775.899 608.248 778.817 608.248 778.817 610.193V613.466H777.933V612.67C777.824 612.871 777.672 613.046 777.489 613.184C777.306 613.321 777.095 613.417 776.872 613.466ZM782.886 631.596C779.702 631.419 777.491 629.916 777.314 627.263H779.436C781.471 633.63 792.349 626.82 781.647 624.609C779.967 624.256 778.729 623.46 778.198 622.487C774.837 615.942 787.838 613.996 788.192 620.718H786.158C785.539 616.384 777.491 618.772 780.409 621.779C781.647 623.017 784.212 622.929 786.069 623.725C790.492 625.759 788.369 631.773 782.886 631.596ZM769.089 618.33C766.259 618.33 764.49 620.541 764.49 623.99C764.49 627.44 766.259 629.651 769.089 629.651C771.919 629.651 773.776 627.528 773.776 623.99C773.776 620.453 772.007 618.33 769.089 618.33Z" fill="#070D22"/>
</g>
<rect x="726.5" y="571.5" width="96" height="96" rx="7.5" stroke="#1A7BFF" stroke-opacity="0.3" shape-rendering="crispEdges"/>
</g>
<g filter="url(#filter17_d_1611_9602)">
<g clip-path="url(#clip13_1611_9602)">
<g filter="url(#filter18_f_1611_9602)">
<path d="M1126 623C1126 679.885 1084.14 726 1032.5 726C980.861 726 939 679.885 939 623C939 566.115 980.861 520 1032.5 520C1084.14 520 1126 566.115 1126 623Z" fill="#1F3986" fill-opacity="0.9"/>
</g>
<path d="M941.511 636.126C939.863 635.451 939.157 634.555 939.226 633.219C939.296 631.659 938.411 630.516 937.99 630.065C938.244 629.095 938.986 625.739 937.991 622.824C936.922 619.705 933.656 614.94 930.287 610.256C928.908 608.333 928.843 606.242 928.767 603.821C928.695 601.512 928.614 598.895 927.326 595.985C925.926 592.817 923.116 591 919.618 591C917.536 591 915.4 591.65 913.756 592.784C910.389 595.108 910.834 600.174 911.129 603.526C911.169 603.985 911.207 604.419 911.229 604.789C911.425 608.072 911.247 609.802 911.013 610.328C910.863 610.672 910.12 611.65 909.333 612.685C908.52 613.756 907.598 614.97 906.842 616.102C905.941 617.463 905.213 619.543 904.509 621.555C903.994 623.028 903.507 624.418 903.034 625.25C902.136 626.848 902.36 628.339 902.546 629.028C902.206 629.264 901.715 629.729 901.301 630.605C900.8 631.674 899.784 632.248 897.671 632.654C896.7 632.853 896.03 633.261 895.68 633.868C895.17 634.751 895.448 635.86 895.701 636.618C896.075 637.733 895.842 638.438 895.418 639.719C895.32 640.014 895.21 640.349 895.098 640.718C894.921 641.301 894.985 641.83 895.287 642.292C896.085 643.512 898.413 643.942 900.811 644.225C902.242 644.395 903.809 644.968 905.324 645.522C906.809 646.064 908.344 646.625 909.74 646.796C909.952 646.822 910.162 646.836 910.364 646.836C912.471 646.836 913.423 645.438 913.725 644.863C914.482 644.709 917.092 644.214 919.782 644.148C922.468 644.071 925.067 644.602 925.803 644.767C926.035 645.21 926.645 646.222 927.617 646.743C928.152 647.035 928.896 647.203 929.658 647.203H929.658C930.472 647.203 932.02 647.01 933.245 645.721C934.467 644.426 937.52 642.773 939.75 641.566C940.248 641.296 940.713 641.044 941.121 640.817C942.374 640.122 943.057 639.13 942.996 638.095C942.945 637.235 942.376 636.48 941.511 636.126ZM913.783 635.877C913.627 634.778 912.215 633.689 910.578 632.428C909.241 631.397 907.724 630.228 907.306 629.238C906.443 627.196 907.124 623.605 908.31 621.756C908.897 620.83 909.375 619.426 909.839 618.069C910.339 616.603 910.856 615.087 911.435 614.423C912.351 613.387 913.197 611.371 913.347 609.783C914.205 610.602 915.535 611.641 916.765 611.641C916.954 611.641 917.138 611.616 917.313 611.567C918.154 611.324 919.391 610.609 920.588 609.918C921.619 609.322 922.891 608.587 923.369 608.52C924.19 609.698 928.958 620.25 929.445 623.639C929.831 626.32 929.424 628.536 929.219 629.404C929.054 629.382 928.858 629.364 928.651 629.364C927.323 629.364 926.972 630.089 926.88 630.521C926.644 631.646 926.62 635.242 926.617 636.05C926.137 636.66 923.708 639.533 920.222 640.05C918.802 640.256 917.475 640.361 916.28 640.361C915.259 640.361 914.607 640.282 914.336 640.241L912.584 638.236C913.275 637.895 913.965 637.175 913.783 635.877ZM916.006 602.821C915.952 602.844 915.898 602.87 915.845 602.897C915.84 602.778 915.827 602.658 915.808 602.537C915.617 601.436 914.887 600.637 914.073 600.637C914.012 600.637 913.952 600.641 913.885 600.651C913.401 600.732 913.021 601.096 912.813 601.612C912.995 600.48 913.637 599.642 914.398 599.642C915.292 599.642 916.046 600.846 916.046 602.272C916.046 602.451 916.033 602.63 916.006 602.821ZM922.951 603.67C923.033 603.409 923.077 603.127 923.077 602.835C923.077 601.542 922.257 600.53 921.21 600.53C920.187 600.53 919.355 601.564 919.355 602.835C919.355 602.921 919.359 603.008 919.367 603.095C919.313 603.074 919.26 603.054 919.208 603.034C919.091 602.677 919.031 602.305 919.031 601.926C919.031 600.38 920.019 599.123 921.233 599.123C922.447 599.123 923.435 600.38 923.435 601.926C923.435 602.569 923.258 603.182 922.951 603.67ZM922.056 606.678C922.038 606.756 922.001 606.791 921.589 607.005C921.381 607.113 921.123 607.248 920.799 607.445L920.583 607.576C919.713 608.103 917.677 609.337 917.125 609.41C916.749 609.46 916.517 609.315 915.995 608.96C915.877 608.88 915.752 608.795 915.619 608.709C914.678 608.091 914.072 607.411 914.004 607.145C914.311 606.908 915.071 606.315 915.46 605.963C916.251 605.228 917.046 604.735 917.44 604.735C917.461 604.735 917.479 604.736 917.499 604.74C917.961 604.821 919.102 605.277 919.936 605.609C920.321 605.763 920.653 605.895 920.887 605.979C921.625 606.233 922.009 606.557 922.056 606.678ZM928.68 641.021C929.096 639.145 929.575 636.592 929.497 635.088C929.479 634.746 929.449 634.374 929.42 634.014C929.365 633.342 929.284 632.342 929.367 632.045C929.384 632.038 929.402 632.031 929.423 632.025C929.426 632.886 929.613 634.601 930.985 635.2C931.394 635.378 931.862 635.468 932.374 635.468C933.749 635.468 935.274 634.794 935.898 634.169C936.266 633.802 936.576 633.352 936.792 632.995C936.84 633.134 936.869 633.315 936.854 633.549C936.772 634.818 937.388 636.501 938.562 637.121L938.733 637.211C939.151 637.43 940.261 638.013 940.279 638.289C940.279 638.289 940.269 638.322 940.207 638.379C939.929 638.634 938.951 639.133 938.004 639.617C936.325 640.474 934.422 641.446 933.568 642.344C932.364 643.611 931.003 644.461 930.181 644.461C930.082 644.461 929.992 644.449 929.912 644.423C929.02 644.145 928.285 642.857 928.68 641.021ZM898.254 636.235C898.163 635.808 898.091 635.472 898.169 635.146C898.225 634.905 899.416 634.646 899.925 634.536C900.641 634.381 901.381 634.22 901.865 633.926C902.519 633.53 902.873 632.799 903.186 632.154C903.412 631.688 903.646 631.205 903.924 631.047C903.94 631.038 903.964 631.027 904.009 631.027C904.53 631.027 905.623 632.122 906.253 633.102C906.413 633.35 906.709 633.845 907.051 634.418C908.075 636.131 909.477 638.478 910.21 639.265C910.87 639.972 911.938 641.331 911.675 642.497C911.483 643.401 910.458 644.137 910.217 644.3C910.129 644.32 910.021 644.33 909.893 644.33C908.491 644.33 905.717 643.164 904.226 642.537L904.006 642.444C903.173 642.095 901.815 641.876 900.501 641.663C899.455 641.494 898.023 641.262 897.786 641.053C897.593 640.837 897.817 640.135 898.013 639.516C898.155 639.072 898.301 638.612 898.382 638.13C898.495 637.362 898.362 636.737 898.254 636.235Z" fill="white"/>
</g>
<rect x="870.5" y="571.5" width="96" height="96" rx="7.5" stroke="#1A7BFF" stroke-opacity="0.3" shape-rendering="crispEdges"/>
</g>
<defs>
<filter id="filter0_i_1611_9602" x="165.289" y="54.5684" width="165.945" height="170.808" filterUnits="userSpaceOnUse" color-interpolation-filters="sRGB">
<feFlood flood-opacity="0" result="BackgroundImageFix"/>
<feBlend mode="normal" in="SourceGraphic" in2="BackgroundImageFix" result="shape"/>
<feColorMatrix in="SourceAlpha" type="matrix" values="0 0 0 0 0 0 0 0 0 0 0 0 0 0 0 0 0 0 127 0" result="hardAlpha"/>
<feOffset dy="4.74126"/>
<feGaussianBlur stdDeviation="14.8164"/>
<feComposite in2="hardAlpha" operator="arithmetic" k2="-1" k3="1"/>
<feColorMatrix type="matrix" values="0 0 0 0 0.705882 0 0 0 0 0.341176 0 0 0 0 0.917647 0 0 0 1 0"/>
<feBlend mode="normal" in2="shape" result="effect1_innerShadow_1611_9602"/>
</filter>
<filter id="filter1_i_1611_9602" x="562.367" y="279.938" width="165.945" height="170.808" filterUnits="userSpaceOnUse" color-interpolation-filters="sRGB">
<feFlood flood-opacity="0" result="BackgroundImageFix"/>
<feBlend mode="normal" in="SourceGraphic" in2="BackgroundImageFix" result="shape"/>
<feColorMatrix in="SourceAlpha" type="matrix" values="0 0 0 0 0 0 0 0 0 0 0 0 0 0 0 0 0 0 127 0" result="hardAlpha"/>
<feOffset dy="4.74126"/>
<feGaussianBlur stdDeviation="14.8164"/>
<feComposite in2="hardAlpha" operator="arithmetic" k2="-1" k3="1"/>
<feColorMatrix type="matrix" values="0 0 0 0 0.478431 0 0 0 0 0.2 0 0 0 0 0.913725 0 0 0 1 0"/>
<feBlend mode="normal" in2="shape" result="effect1_innerShadow_1611_9602"/>
</filter>
<filter id="filter2_i_1611_9602" x="651.285" y="47.4385" width="165.945" height="170.808" filterUnits="userSpaceOnUse" color-interpolation-filters="sRGB">
<feFlood flood-opacity="0" result="BackgroundImageFix"/>
<feBlend mode="normal" in="SourceGraphic" in2="BackgroundImageFix" result="shape"/>
<feColorMatrix in="SourceAlpha" type="matrix" values="0 0 0 0 0 0 0 0 0 0 0 0 0 0 0 0 0 0 127 0" result="hardAlpha"/>
<feOffset dy="4.74126"/>
<feGaussianBlur stdDeviation="14.8164"/>
<feComposite in2="hardAlpha" operator="arithmetic" k2="-1" k3="1"/>
<feColorMatrix type="matrix" values="0 0 0 0 0.996078 0 0 0 0 0.419608 0 0 0 0 0 0 0 0 0.8 0"/>
<feBlend mode="normal" in2="shape" result="effect1_innerShadow_1611_9602"/>
</filter>
<filter id="filter3_i_1611_9602" x="409.453" y="0.000976562" width="165.945" height="170.687" filterUnits="userSpaceOnUse" color-interpolation-filters="sRGB">
<feFlood flood-opacity="0" result="BackgroundImageFix"/>
<feBlend mode="normal" in="SourceGraphic" in2="BackgroundImageFix" result="shape"/>
<feColorMatrix in="SourceAlpha" type="matrix" values="0 0 0 0 0 0 0 0 0 0 0 0 0 0 0 0 0 0 127 0" result="hardAlpha"/>
<feOffset dy="4.74126"/>
<feGaussianBlur stdDeviation="14.8164"/>
<feComposite in2="hardAlpha" operator="arithmetic" k2="-1" k3="1"/>
<feColorMatrix type="matrix" values="0 0 0 0 0 0 0 0 0 0.703766 0 0 0 0 0.725 0 0 0 0.8 0"/>
<feBlend mode="normal" in2="shape" result="effect1_innerShadow_1611_9602"/>
</filter>
<filter id="filter4_i_1611_9602" x="251.816" y="279.949" width="165.945" height="170.687" filterUnits="userSpaceOnUse" color-interpolation-filters="sRGB">
<feFlood flood-opacity="0" result="BackgroundImageFix"/>
<feBlend mode="normal" in="SourceGraphic" in2="BackgroundImageFix" result="shape"/>
<feColorMatrix in="SourceAlpha" type="matrix" values="0 0 0 0 0 0 0 0 0 0 0 0 0 0 0 0 0 0 127 0" result="hardAlpha"/>
<feOffset dy="4.74126"/>
<feGaussianBlur stdDeviation="14.8164"/>
<feComposite in2="hardAlpha" operator="arithmetic" k2="-1" k3="1"/>
<feColorMatrix type="matrix" values="0 0 0 0 0.101961 0 0 0 0 0.482353 0 0 0 0 1 0 0 0 1 0"/>
<feBlend mode="normal" in2="shape" result="effect1_innerShadow_1611_9602"/>
</filter>
<filter id="filter5_d_1611_9602" x="0" y="569" width="109" height="109" filterUnits="userSpaceOnUse" color-interpolation-filters="sRGB">
<feFlood flood-opacity="0" result="BackgroundImageFix"/>
<feColorMatrix in="SourceAlpha" type="matrix" values="0 0 0 0 0 0 0 0 0 0 0 0 0 0 0 0 0 0 127 0" result="hardAlpha"/>
<feOffset dy="4"/>
<feGaussianBlur stdDeviation="3"/>
<feComposite in2="hardAlpha" operator="out"/>
<feColorMatrix type="matrix" values="0 0 0 0 0.0156863 0 0 0 0 0.0392157 0 0 0 0 0.141176 0 0 0 0.25 0"/>
<feBlend mode="normal" in2="BackgroundImageFix" result="effect1_dropShadow_1611_9602"/>
<feBlend mode="normal" in="SourceGraphic" in2="effect1_dropShadow_1611_9602" result="shape"/>
</filter>
<filter id="filter6_f_1611_9602" x="-35" y="410" width="407" height="426" filterUnits="userSpaceOnUse" color-interpolation-filters="sRGB">
<feFlood flood-opacity="0" result="BackgroundImageFix"/>
<feBlend mode="normal" in="SourceGraphic" in2="BackgroundImageFix" result="shape"/>
<feGaussianBlur stdDeviation="55" result="effect1_foregroundBlur_1611_9602"/>
</filter>
<filter id="filter7_d_1611_9602" x="144" y="569" width="109" height="109" filterUnits="userSpaceOnUse" color-interpolation-filters="sRGB">
<feFlood flood-opacity="0" result="BackgroundImageFix"/>
<feColorMatrix in="SourceAlpha" type="matrix" values="0 0 0 0 0 0 0 0 0 0 0 0 0 0 0 0 0 0 127 0" result="hardAlpha"/>
<feOffset dy="4"/>
<feGaussianBlur stdDeviation="3"/>
<feComposite in2="hardAlpha" operator="out"/>
<feColorMatrix type="matrix" values="0 0 0 0 0.0156863 0 0 0 0 0.0392157 0 0 0 0 0.141176 0 0 0 0.25 0"/>
<feBlend mode="normal" in2="BackgroundImageFix" result="effect1_dropShadow_1611_9602"/>
<feBlend mode="normal" in="SourceGraphic" in2="effect1_dropShadow_1611_9602" result="shape"/>
</filter>
<filter id="filter8_f_1611_9602" x="109" y="410" width="407" height="426" filterUnits="userSpaceOnUse" color-interpolation-filters="sRGB">
<feFlood flood-opacity="0" result="BackgroundImageFix"/>
<feBlend mode="normal" in="SourceGraphic" in2="BackgroundImageFix" result="shape"/>
<feGaussianBlur stdDeviation="55" result="effect1_foregroundBlur_1611_9602"/>
</filter>
<filter id="filter9_d_1611_9602" x="288" y="569" width="109" height="109" filterUnits="userSpaceOnUse" color-interpolation-filters="sRGB">
<feFlood flood-opacity="0" result="BackgroundImageFix"/>
<feColorMatrix in="SourceAlpha" type="matrix" values="0 0 0 0 0 0 0 0 0 0 0 0 0 0 0 0 0 0 127 0" result="hardAlpha"/>
<feOffset dy="4"/>
<feGaussianBlur stdDeviation="3"/>
<feComposite in2="hardAlpha" operator="out"/>
<feColorMatrix type="matrix" values="0 0 0 0 0.0156863 0 0 0 0 0.0392157 0 0 0 0 0.141176 0 0 0 0.25 0"/>
<feBlend mode="normal" in2="BackgroundImageFix" result="effect1_dropShadow_1611_9602"/>
<feBlend mode="normal" in="SourceGraphic" in2="effect1_dropShadow_1611_9602" result="shape"/>
</filter>
<filter id="filter10_f_1611_9602" x="253" y="410" width="407" height="426" filterUnits="userSpaceOnUse" color-interpolation-filters="sRGB">
<feFlood flood-opacity="0" result="BackgroundImageFix"/>
<feBlend mode="normal" in="SourceGraphic" in2="BackgroundImageFix" result="shape"/>
<feGaussianBlur stdDeviation="55" result="effect1_foregroundBlur_1611_9602"/>
</filter>
<filter id="filter11_d_1611_9602" x="432" y="569" width="109" height="109" filterUnits="userSpaceOnUse" color-interpolation-filters="sRGB">
<feFlood flood-opacity="0" result="BackgroundImageFix"/>
<feColorMatrix in="SourceAlpha" type="matrix" values="0 0 0 0 0 0 0 0 0 0 0 0 0 0 0 0 0 0 127 0" result="hardAlpha"/>
<feOffset dy="4"/>
<feGaussianBlur stdDeviation="3"/>
<feComposite in2="hardAlpha" operator="out"/>
<feColorMatrix type="matrix" values="0 0 0 0 0.0156863 0 0 0 0 0.0392157 0 0 0 0 0.141176 0 0 0 0.25 0"/>
<feBlend mode="normal" in2="BackgroundImageFix" result="effect1_dropShadow_1611_9602"/>
<feBlend mode="normal" in="SourceGraphic" in2="effect1_dropShadow_1611_9602" result="shape"/>
</filter>
<filter id="filter12_f_1611_9602" x="397" y="410" width="407" height="426" filterUnits="userSpaceOnUse" color-interpolation-filters="sRGB">
<feFlood flood-opacity="0" result="BackgroundImageFix"/>
<feBlend mode="normal" in="SourceGraphic" in2="BackgroundImageFix" result="shape"/>
<feGaussianBlur stdDeviation="55" result="effect1_foregroundBlur_1611_9602"/>
</filter>
<filter id="filter13_d_1611_9602" x="576" y="569" width="109" height="109" filterUnits="userSpaceOnUse" color-interpolation-filters="sRGB">
<feFlood flood-opacity="0" result="BackgroundImageFix"/>
<feColorMatrix in="SourceAlpha" type="matrix" values="0 0 0 0 0 0 0 0 0 0 0 0 0 0 0 0 0 0 127 0" result="hardAlpha"/>
<feOffset dy="4"/>
<feGaussianBlur stdDeviation="3"/>
<feComposite in2="hardAlpha" operator="out"/>
<feColorMatrix type="matrix" values="0 0 0 0 0.0156863 0 0 0 0 0.0392157 0 0 0 0 0.141176 0 0 0 0.25 0"/>
<feBlend mode="normal" in2="BackgroundImageFix" result="effect1_dropShadow_1611_9602"/>
<feBlend mode="normal" in="SourceGraphic" in2="effect1_dropShadow_1611_9602" result="shape"/>
</filter>
<filter id="filter14_f_1611_9602" x="541" y="410" width="407" height="426" filterUnits="userSpaceOnUse" color-interpolation-filters="sRGB">
<feFlood flood-opacity="0" result="BackgroundImageFix"/>
<feBlend mode="normal" in="SourceGraphic" in2="BackgroundImageFix" result="shape"/>
<feGaussianBlur stdDeviation="55" result="effect1_foregroundBlur_1611_9602"/>
</filter>
<filter id="filter15_d_1611_9602" x="720" y="569" width="109" height="109" filterUnits="userSpaceOnUse" color-interpolation-filters="sRGB">
<feFlood flood-opacity="0" result="BackgroundImageFix"/>
<feColorMatrix in="SourceAlpha" type="matrix" values="0 0 0 0 0 0 0 0 0 0 0 0 0 0 0 0 0 0 127 0" result="hardAlpha"/>
<feOffset dy="4"/>
<feGaussianBlur stdDeviation="3"/>
<feComposite in2="hardAlpha" operator="out"/>
<feColorMatrix type="matrix" values="0 0 0 0 0.0156863 0 0 0 0 0.0392157 0 0 0 0 0.141176 0 0 0 0.25 0"/>
<feBlend mode="normal" in2="BackgroundImageFix" result="effect1_dropShadow_1611_9602"/>
<feBlend mode="normal" in="SourceGraphic" in2="effect1_dropShadow_1611_9602" result="shape"/>
</filter>
<filter id="filter16_f_1611_9602" x="685" y="410" width="407" height="426" filterUnits="userSpaceOnUse" color-interpolation-filters="sRGB">
<feFlood flood-opacity="0" result="BackgroundImageFix"/>
<feBlend mode="normal" in="SourceGraphic" in2="BackgroundImageFix" result="shape"/>
<feGaussianBlur stdDeviation="55" result="effect1_foregroundBlur_1611_9602"/>
</filter>
<filter id="filter17_d_1611_9602" x="864" y="569" width="109" height="109" filterUnits="userSpaceOnUse" color-interpolation-filters="sRGB">
<feFlood flood-opacity="0" result="BackgroundImageFix"/>
<feColorMatrix in="SourceAlpha" type="matrix" values="0 0 0 0 0 0 0 0 0 0 0 0 0 0 0 0 0 0 127 0" result="hardAlpha"/>
<feOffset dy="4"/>
<feGaussianBlur stdDeviation="3"/>
<feComposite in2="hardAlpha" operator="out"/>
<feColorMatrix type="matrix" values="0 0 0 0 0.0156863 0 0 0 0 0.0392157 0 0 0 0 0.141176 0 0 0 0.25 0"/>
<feBlend mode="normal" in2="BackgroundImageFix" result="effect1_dropShadow_1611_9602"/>
<feBlend mode="normal" in="SourceGraphic" in2="effect1_dropShadow_1611_9602" result="shape"/>
</filter>
<filter id="filter18_f_1611_9602" x="829" y="410" width="407" height="426" filterUnits="userSpaceOnUse" color-interpolation-filters="sRGB">
<feFlood flood-opacity="0" result="BackgroundImageFix"/>
<feBlend mode="normal" in="SourceGraphic" in2="BackgroundImageFix" result="shape"/>
<feGaussianBlur stdDeviation="55" result="effect1_foregroundBlur_1611_9602"/>
</filter>
<linearGradient id="paint0_linear_1611_9602" x1="194.233" y1="176.389" x2="350.465" y2="357.499" gradientUnits="userSpaceOnUse">
<stop offset="0.262861" stop-color="#C960FF"/>
<stop offset="0.629166" stop-color="#1A7BFF" stop-opacity="0.2"/>
</linearGradient>
<linearGradient id="paint1_linear_1611_9602" x1="756.157" y1="180.294" x2="609.344" y2="358.947" gradientUnits="userSpaceOnUse">
<stop stop-color="#FF6B00"/>
<stop offset="0.623958" stop-color="#7A33E9" stop-opacity="0.2"/>
</linearGradient>
<linearGradient id="paint2_linear_1611_9602" x1="-58.1954" y1="687.403" x2="519.136" y2="351.851" gradientUnits="userSpaceOnUse">
<stop offset="0.244876" stop-color="#081130" stop-opacity="0"/>
<stop offset="0.633045" stop-color="#1A7BFF"/>
</linearGradient>
<linearGradient id="paint3_linear_1611_9602" x1="1039.98" y1="670.891" x2="507.54" y2="277.436" gradientUnits="userSpaceOnUse">
<stop offset="0.244876" stop-color="#060F2E" stop-opacity="0"/>
<stop offset="0.633045" stop-color="#7A33E9"/>
</linearGradient>
<linearGradient id="paint4_linear_1611_9602" x1="432.383" y1="70.8828" x2="738.015" y2="194.473" gradientUnits="userSpaceOnUse">
<stop offset="0.363924" stop-color="#01E9F0"/>
<stop offset="0.764583" stop-color="#FF6500" stop-opacity="0.2"/>
</linearGradient>
<linearGradient id="paint5_linear_1611_9602" x1="539.403" y1="31.2568" x2="228.201" y2="162.618" gradientUnits="userSpaceOnUse">
<stop offset="0.310709" stop-color="#02D9E3"/>
<stop offset="0.701419" stop-color="#C960FF" stop-opacity="0.23"/>
</linearGradient>
<clipPath id="clip0_1611_9602">
<rect width="100.753" height="113.791" fill="white" transform="translate(198.484 80.6572)"/>
</clipPath>
<clipPath id="clip1_1611_9602">
<rect x="651.285" y="47.4385" width="165.946" height="166.066" rx="9.48252" fill="white"/>
</clipPath>
<clipPath id="clip2_1611_9602">
<rect width="99.9519" height="113.791" fill="white" transform="translate(684.477 77.0859)"/>
</clipPath>
<clipPath id="clip3_1611_9602">
<rect width="101.433" height="116.162" fill="white" transform="translate(441.457 27.2627)"/>
</clipPath>
<clipPath id="clip4_1611_9602">
<rect width="104.309" height="104.308" fill="white" transform="translate(282.629 310.771)"/>
</clipPath>
<clipPath id="clip5_1611_9602">
<rect x="6" y="571" width="97" height="97" rx="8" fill="white"/>
</clipPath>
<clipPath id="clip6_1611_9602">
<rect x="150" y="571" width="97" height="97" rx="8" fill="white"/>
</clipPath>
<clipPath id="clip7_1611_9602">
<rect x="294" y="571" width="97" height="97" rx="8" fill="white"/>
</clipPath>
<clipPath id="clip8_1611_9602">
<rect x="438" y="571" width="97" height="97" rx="8" fill="white"/>
</clipPath>
<clipPath id="clip9_1611_9602">
<rect width="48" height="48" fill="white" transform="translate(463 596)"/>
</clipPath>
<clipPath id="clip10_1611_9602">
<rect x="582" y="571" width="97" height="97" rx="8" fill="white"/>
</clipPath>
<clipPath id="clip11_1611_9602">
<rect width="48" height="48" fill="white" transform="translate(607 596)"/>
</clipPath>
<clipPath id="clip12_1611_9602">
<rect x="726" y="571" width="97" height="97" rx="8" fill="white"/>
</clipPath>
<clipPath id="clip13_1611_9602">
<rect x="870" y="571" width="97" height="97" rx="8" fill="white"/>
</clipPath>
</defs>
</svg>
