<svg width="1249" height="668" viewBox="0 0 1249 668" fill="none" xmlns="http://www.w3.org/2000/svg">
<path d="M381.179 221.155C380.744 220.647 380.803 219.882 381.311 219.446V219.446C381.819 219.01 382.584 219.069 383.019 219.577L434.995 280.259L433.155 281.838L381.179 221.155Z" fill="url(#paint0_linear_1640_9205)"/>
<path d="M876.041 213.222C876.467 212.724 877.215 212.667 877.712 213.093V213.093C878.21 213.52 878.267 214.268 877.841 214.766L820.756 281.418L818.956 279.874L876.041 213.222Z" fill="url(#paint1_linear_1640_9205)"/>
<path d="M236.795 574.348C236.248 574.708 235.513 574.556 235.153 574.009V574.009C234.793 573.462 234.945 572.726 235.492 572.366L431.45 443.325L432.753 445.307L236.795 574.348Z" fill="url(#paint2_linear_1640_9205)"/>
<path d="M1013.51 572.242C1014.06 572.602 1014.21 573.338 1013.85 573.885V573.885C1013.49 574.433 1012.75 574.584 1012.21 574.224L817.965 446.292L819.269 444.31L1013.51 572.242Z" fill="url(#paint3_linear_1640_9205)"/>
<path d="M711.43 107.927L712.335 105.734L790.077 137.897L789.171 140.09L711.43 107.927Z" fill="url(#paint4_linear_1640_9205)"/>
<path d="M547.009 106.509C547.615 106.259 548.308 106.546 548.558 107.152V107.152C548.808 107.757 548.52 108.451 547.915 108.701L469.356 141.201L468.45 139.009L547.009 106.509Z" fill="url(#paint5_linear_1640_9205)"/>
<g filter="url(#filter0_i_1640_9205)">
<rect x="303.289" y="54.5684" width="165.946" height="166.066" rx="9.48252" fill="#0B1033" fill-opacity="0.01"/>
<rect x="304.474" y="55.7537" width="163.575" height="163.695" rx="8.2972" stroke="#C960FF" stroke-width="2.37063"/>
<g clip-path="url(#clip0_1640_9205)">
<path d="M436.784 114.341C436.783 112.446 436.38 110.772 435.564 109.336C434.762 107.923 433.561 106.739 431.95 105.802C418.655 98.1071 405.347 90.4353 392.056 82.7322C388.473 80.6557 384.999 80.7318 381.443 82.8381C376.151 85.9705 349.656 101.208 341.761 105.798C338.51 107.688 336.928 110.579 336.927 114.337C336.922 129.813 336.927 145.289 336.922 160.765C336.922 162.618 337.309 164.259 338.089 165.674C338.892 167.13 340.109 168.347 341.757 169.304C349.652 173.894 376.15 189.13 381.441 192.264C384.999 194.371 388.473 194.447 392.058 192.37C405.349 184.666 418.658 176.995 431.955 169.299C433.602 168.342 434.82 167.125 435.622 165.67C436.401 164.255 436.789 162.614 436.789 160.76C436.789 160.76 436.789 129.817 436.784 114.341Z" fill="#A179DC"/>
<path d="M387.005 137.4L338.086 165.674C338.888 167.13 340.106 168.347 341.753 169.304C349.649 173.895 376.147 189.131 381.438 192.264C384.996 194.372 388.47 194.447 392.054 192.37C405.345 184.667 418.654 176.995 431.951 169.299C433.599 168.342 434.816 167.125 435.619 165.67L387.005 137.4Z" fill="#280068"/>
<path d="M436.791 114.342C436.791 112.448 436.387 110.774 435.571 109.337L387.016 137.402L435.629 165.672C436.409 164.256 436.796 162.615 436.797 160.762C436.797 160.762 436.797 129.818 436.791 114.342Z" fill="#390091"/>
<path d="M415.768 126.82V132.105H421.033V126.82H423.665V132.105H428.93V134.748H423.665V140.032H428.93V142.675H423.665V147.96H421.033V142.675H415.768V147.96H413.136V142.675H407.871V140.032H413.136V134.748H407.871V132.105H413.136V126.82H415.768ZM421.033 134.747H415.768V140.032H421.033V134.747Z" fill="white"/>
<path d="M387.082 100.286C400.814 100.286 412.804 107.772 419.226 118.9L419.163 118.792L403.006 128.131C399.823 122.721 393.987 119.069 387.293 118.994L387.082 118.993C376.874 118.993 368.598 127.3 368.598 137.548C368.594 140.777 369.435 143.952 371.035 146.753C374.222 152.337 380.211 156.103 387.082 156.103C393.996 156.103 400.019 152.289 403.189 146.646L403.112 146.781L419.245 156.163C412.893 167.196 401.068 174.66 387.496 174.808L387.082 174.811C373.306 174.811 361.283 167.278 354.877 156.091C351.75 150.63 349.961 144.299 349.961 137.548C349.961 116.969 366.58 100.285 387.082 100.285L387.082 100.286Z" fill="white"/>
</g>
</g>
<g filter="url(#filter1_i_1640_9205)">
<rect x="700.367" y="279.938" width="165.946" height="166.066" rx="9.48252" fill="#0B1033" fill-opacity="0.01"/>
<rect x="701.553" y="281.123" width="163.575" height="163.695" rx="8.2972" stroke="#7A33E9" stroke-width="2.37063"/>
<path d="M831.055 347.59C828.903 361.07 822.033 373.35 811.669 382.246C801.305 391.141 788.118 396.075 774.455 396.169C771.687 396.276 768.916 396.107 766.181 395.668C760.463 394.697 755.25 391.797 751.413 387.452C747.576 383.107 745.346 377.579 745.095 371.79C745.151 365.333 747.745 359.157 752.319 354.594C756.892 350.031 763.078 347.449 769.542 347.403C776.005 347.357 782.227 349.853 786.865 354.35C791.502 358.848 794.184 364.987 794.331 371.442C794.434 375.519 792.666 379.095 789.033 379.199C785.15 379.199 783.331 376.431 783.331 372.702V362.339C783.332 360.663 782.67 359.055 781.489 357.864C780.308 356.674 778.704 355.999 777.026 355.986H768.33C765.801 355.968 763.308 356.584 761.078 357.778C758.849 358.971 756.954 360.704 755.568 362.817C754.181 364.93 753.347 367.357 753.141 369.875C752.935 372.394 753.364 374.924 754.389 377.234C755.414 379.544 757.002 381.56 759.008 383.099C761.014 384.638 763.374 385.651 765.873 386.044C768.372 386.437 770.929 386.198 773.311 385.349C775.694 384.5 777.825 383.068 779.511 381.184L779.815 380.731L780.119 381.234C781.165 382.654 782.546 383.793 784.139 384.551C785.732 385.309 787.487 385.661 789.25 385.578C792.391 385.35 795.319 383.904 797.408 381.549C799.497 379.195 800.581 376.117 800.43 372.975C800.461 370.278 800.158 367.588 799.529 364.965C797.917 357.555 793.615 351.005 787.455 346.576C781.295 342.147 773.711 340.153 766.167 340.979C758.622 341.804 751.65 345.391 746.596 351.047C741.541 356.703 738.761 364.028 738.792 371.611C738.889 379.651 742.101 387.34 747.755 393.063C753.408 398.787 761.062 402.098 769.108 402.301C769.108 402.301 771.385 402.508 773.953 402.449C786.432 402.37 798.63 398.735 809.113 391.969C809.262 391.866 809.411 392.073 809.312 392.224C804.209 397.716 797.968 402.03 791.025 404.867C784.081 407.703 776.602 408.994 769.109 408.648C764.21 408.737 759.344 407.834 754.804 405.992C750.264 404.151 746.145 401.41 742.695 397.935C739.244 394.46 736.534 390.322 734.727 385.772C732.921 381.222 732.056 376.354 732.184 371.461C732.187 365.627 733.551 359.875 736.169 354.66C738.787 349.445 742.586 344.912 747.265 341.422C753.553 336.796 761.151 334.29 768.96 334.267H780.631C785.19 334.263 789.698 333.312 793.869 331.472C798.04 329.633 801.781 326.946 804.855 323.582C804.92 323.51 805.006 323.461 805.101 323.442C805.196 323.421 805.295 323.431 805.384 323.47C805.473 323.509 805.548 323.574 805.597 323.658C805.647 323.742 805.669 323.839 805.661 323.936C805.167 329.176 803.42 334.221 800.569 338.648C800.527 338.725 800.508 338.812 800.514 338.9C800.521 338.987 800.553 339.071 800.607 339.14C800.66 339.21 800.732 339.262 800.814 339.292C800.897 339.321 800.986 339.326 801.071 339.305C806.459 338.09 811.485 335.628 815.746 332.117C820.008 328.607 823.384 324.146 825.605 319.095C825.662 319.004 825.739 318.929 825.832 318.876C825.925 318.824 826.03 318.796 826.137 318.796C826.244 318.796 826.349 318.824 826.442 318.876C826.534 318.929 826.612 319.004 826.668 319.095C831.242 327.848 832.785 337.868 831.055 347.59ZM769.078 362.209C767.735 362.209 766.41 362.506 765.196 363.08C763.982 363.653 762.911 364.488 762.059 365.525C761.208 366.561 760.597 367.774 760.271 369.075C759.944 370.375 759.911 371.732 760.173 373.048C760.524 374.807 761.388 376.423 762.658 377.691C763.927 378.96 765.545 379.824 767.306 380.174C768.623 380.435 769.981 380.402 771.283 380.076C772.585 379.75 773.799 379.14 774.836 378.289C775.874 377.438 776.71 376.368 777.284 375.155C777.857 373.943 778.155 372.619 778.154 371.278V362.811C778.146 362.649 778.078 362.496 777.963 362.382C777.849 362.267 777.695 362.199 777.533 362.191L769.078 362.209Z" fill="#933BFF"/>
</g>
<g filter="url(#filter2_i_1640_9205)">
<g clip-path="url(#clip1_1640_9205)">
<rect x="789.285" y="47.4385" width="165.946" height="166.066" rx="9.48252" fill="#060E2D" fill-opacity="0.01"/>
<g clip-path="url(#clip2_1640_9205)">
<path d="M830.85 178.96L822.48 77.2783L922.432 77.4827L913.583 178.96L872.834 190.689L830.85 178.96Z" fill="#E34F26"/>
<path d="M872.809 180.868V86.9614L913.969 87.0976L906.629 171.116L872.809 180.868Z" fill="#EF652A"/>
<path d="M902.657 110.42L903.823 98.0078H840.504L844.002 136.062H887.701L885.988 152.293L871.993 156.043L857.792 151.951L857.038 142.267H844.483L846.198 162.044L871.992 169.205L897.992 162.044L901.49 123.445H855.597L854.293 110.42H902.657Z" fill="white"/>
</g>
</g>
<rect x="790.47" y="48.6238" width="163.575" height="163.695" rx="8.2972" stroke="#FF6B00" stroke-width="2.37063"/>
</g>
<g filter="url(#filter3_i_1640_9205)">
<rect x="548.638" y="1.185" width="163.576" height="163.696" rx="8.295" stroke="#01E9F0" stroke-width="2.37"/>
<rect x="548.638" y="1.18678" width="163.575" height="163.575" rx="10.6678" fill="#070F2F" fill-opacity="0.01" stroke="#1C88C7" stroke-width="2.37063"/>
<g clip-path="url(#clip3_1640_9205)">
<path d="M587.95 131.255L579.457 27.457L680.89 27.6656L671.909 131.255L630.556 143.229L587.95 131.255Z" fill="#1B73BA"/>
<path d="M630.555 133.207V37.3447L672.325 37.4838L664.877 123.251L630.555 133.207Z" fill="#1C88C7"/>
<path d="M661.948 49.5991H597.691L599.432 62.1293H629.924L599.92 75.0088L601.66 87.1217H645.867L644.265 104.038L629.298 106.962L615.723 103.482L614.678 93.8744H602.217L603.887 113.855L630.62 121.304L656.24 113.159L659.512 74.1032H632.43L661.947 61.8512L661.948 49.5991Z" fill="white"/>
</g>
</g>
<g filter="url(#filter4_i_1640_9205)">
<rect x="389.816" y="279.949" width="165.946" height="165.945" rx="11.8531" fill="#070F2F" fill-opacity="0.01"/>
</g>
<rect x="391.002" y="281.135" width="163.575" height="163.575" rx="10.6678" stroke="#1A7BFF" stroke-width="2.37063"/>
<g clip-path="url(#clip4_1640_9205)">
<path d="M431.452 347.843H431.517L432.314 348.921C435.14 346.829 438.237 345.318 441.615 344.383L441.623 344.381L441.63 344.379C445.049 343.392 448.518 343.119 452.047 343.557C455.522 343.996 458.802 345.091 461.899 346.848L461.907 346.853L461.916 346.858C464.998 348.553 467.608 350.791 469.756 353.58C471.465 355.828 472.789 358.293 473.728 360.982L473.728 360.982L473.731 360.991C474.67 363.625 475.195 366.338 475.306 369.137C475.36 371.372 475.113 373.547 474.566 375.666L474.562 375.683L474.558 375.7C474.061 377.84 473.316 379.897 472.322 381.874C471.331 383.786 470.09 385.595 468.595 387.301L468.592 387.304C467.166 388.939 465.516 390.388 463.639 391.65C459.714 394.286 455.415 395.792 450.72 396.177C446.024 396.505 441.562 395.684 437.31 393.711C435.268 392.723 433.364 391.517 431.596 390.093C429.885 388.61 428.368 386.965 427.044 385.157C425.773 383.344 424.693 381.392 423.805 379.3C422.983 377.172 422.464 374.995 422.245 372.764L422.243 372.745L422.241 372.725C422.187 372.294 422.132 371.886 422.078 371.502V371.499V371.497V371.494V371.491V371.489V371.486V371.483V371.48V371.478V371.475V371.472V371.47V371.467V371.464V371.462V371.459V371.456V371.453V371.451V371.448V371.445V371.443V371.44V371.437V371.434V371.432V371.429V371.426V371.424V371.421V371.418V371.415V371.413V371.41V371.407V371.405V371.402V371.399V371.396V371.394V371.391V371.388V371.386V371.383V371.38V371.377V371.375V371.372V371.369V371.367V371.364V371.361V371.359V371.356V371.353V371.35V371.348V371.345V371.342V371.34V371.337V371.334V371.331V371.329V371.326V371.323V371.321V371.318V371.315V371.312V371.31V371.307V371.304V371.302V371.299V371.296V371.293V371.291V371.288V371.285V371.283V371.28V371.277V371.275V371.272V371.269V371.266V371.264V371.261V371.258V371.256V371.253V371.25V371.247V371.245V371.242V371.239V371.237V371.234V371.231V371.228V371.226V371.223V371.22V371.218V371.215V371.212V371.209V371.207V371.204V371.201V371.199V371.196V371.193V371.19V371.188V371.185V371.182V371.18V371.177V371.174V371.172V371.169V371.166V371.163V371.161V371.158V371.155V371.153V371.15V371.147V371.144V371.142V371.139V371.136V371.134V371.131V371.128V371.125V371.123V371.12V371.117V371.115V371.112V371.109V371.106V371.104V371.101V371.098V371.096V371.093V371.09V371.088V371.085V371.082V371.079V371.077V371.074V371.071V371.069V371.066V371.063V371.06V371.058V371.055V371.052V371.05V371.047V371.044V371.041V371.039V371.036V371.033V371.031V371.028V371.025V371.022V371.02V371.017V371.014V371.012V371.009V371.006V371.004V371.001V370.998V370.995V370.993V370.99V370.987V370.985V370.982V370.979V370.976V370.974V370.971V370.968V370.966V370.963V370.96V370.957V370.955V370.952V370.949V370.947V370.944V370.941V370.938V370.936V370.933V370.93V370.928V370.925V370.922V370.92V370.917V370.914V370.911V370.909V370.906V370.903V370.901V370.898V370.895V370.892V370.89V370.887V370.884V370.882V370.879V370.876V370.873V370.871V370.868V370.865V370.863V370.86V370.857V370.854V370.852V370.849V370.846V370.844V370.841V370.838V370.836V370.833V370.83V370.827V370.825V370.822V370.819V370.817V370.814V370.811V370.808V370.806V370.803V370.8V370.798V370.795V370.792V370.789V370.787V370.784V370.781V370.779V370.776V370.773V370.77V370.768V370.765V370.762V370.76V370.757V370.754V370.752V370.749V370.746V370.743V370.741V370.738V370.735V370.733V370.73V370.727V370.724V370.722V370.719V370.716V370.714V370.711V370.708V370.705V370.703V370.7V370.697V370.695V370.692V370.689V370.686V370.684V370.681V370.678V370.676V370.673V370.67V370.668V370.665V370.662V370.659V370.657V370.654V370.651V370.649V370.646V370.643V370.64V370.638V370.635V370.632V370.63V370.627V370.624V370.621V370.619V370.616V370.613V370.611V370.608V370.605V370.602V370.6V370.597V370.594V370.592V370.589V370.586V370.584V370.581V370.578V370.575V370.573V370.57V370.567V370.565V370.562V370.559V370.556V370.554V370.551V370.548V370.546V370.543V370.54V370.537V370.535V370.532V370.529V370.527V370.524V370.521V370.518V370.516V370.513V370.51V370.508V370.505V370.502V370.5V370.497V370.494V370.491V370.489V370.486V370.483V370.481V370.478V370.475V370.472V370.47V370.467V370.464V370.462V370.459V370.456V370.453V370.451V370.448V370.445V370.443V370.44V370.437V370.434V370.432V370.429V370.426V370.424V370.421V370.418V370.415V370.413V370.41V370.407V370.405V370.402V370.399V370.397V370.394V370.391V370.388V370.386V370.383V370.38V370.378V370.375V370.372V370.369V370.367V370.364V370.361V370.359V370.356V370.353V370.35V370.348V370.345V370.342V370.34V370.337V370.334V370.331V370.329V370.326V370.323V370.321V370.318V370.315V370.312V370.31V370.307V370.304V370.302V370.299V370.296V370.294V370.291V370.288V370.285V370.283V370.28V370.277V370.275V370.272V370.269V370.266V370.264V370.261V370.258V370.256V370.253V370.25V370.247V370.245V370.242V370.239V370.237V370.234V370.231V370.228V370.226V370.223V370.22V370.218V369.09V333.534C422.078 332.409 422.453 331.509 423.221 330.746C423.99 329.982 424.9 329.606 426.041 329.606C427.182 329.606 428.092 329.982 428.86 330.746C429.628 331.509 430.004 332.409 430.004 333.534V347.026V347.757V347.843H431.452ZM440.678 386.61C441.207 386.9 441.738 387.163 442.271 387.4L442.592 387.559L442.66 387.592L442.73 387.619L443.429 387.879L444.127 388.139L444.211 387.92C447.262 388.698 450.389 388.639 453.568 387.746C455.702 387.183 457.658 386.275 459.427 385.021C461.252 383.769 462.798 382.234 464.059 380.42C466.581 376.907 467.688 372.935 467.377 368.565C467.248 366.242 466.678 364.036 465.665 361.959C464.665 359.848 463.347 357.977 461.715 356.355L461.694 356.335L461.673 356.315C460.85 355.56 459.962 354.898 459.011 354.329C458.154 353.783 457.242 353.27 456.276 352.79L456.248 352.776L456.219 352.763C453.825 351.699 451.327 351.164 448.735 351.164C446.157 351.164 443.668 351.665 441.281 352.664L441.266 352.67L441.251 352.677C438.867 353.737 436.787 355.207 435.023 357.085C433.263 358.958 431.937 361.089 431.054 363.47L431.051 363.479L431.047 363.489C429.914 366.679 429.661 369.945 430.291 373.263L430.294 373.276L430.296 373.289C430.986 376.591 432.433 379.53 434.628 382.085C436.322 384.08 438.341 385.594 440.678 386.61Z" fill="#0065EF" stroke="#0065EF" stroke-width="2.89742"/>
<path d="M490.679 358.659C491.781 358.659 492.722 358.997 493.356 359.475C493.99 359.952 494.249 360.503 494.249 360.991V393.756C494.249 394.244 493.99 394.795 493.356 395.272C492.722 395.75 491.781 396.088 490.679 396.088C489.578 396.088 488.636 395.75 488.002 395.272C487.368 394.795 487.109 394.244 487.109 393.756V360.991C487.109 360.503 487.368 359.952 488.002 359.475C488.636 358.997 489.578 358.659 490.679 358.659Z" fill="#0065EF" stroke="#0065EF" stroke-width="2.89742"/>
<path d="M494.249 347.016C494.249 348.961 492.66 350.554 490.679 350.554C488.698 350.554 487.109 348.961 487.109 347.016C487.109 345.071 488.698 343.478 490.679 343.478C492.66 343.478 494.249 345.071 494.249 347.016Z" fill="#0065EF" stroke="#0065EF" stroke-width="2.89742"/>
<path d="M511.637 343.478C513.502 343.478 514.771 344.821 514.771 346.192V393.369C514.771 394.74 513.502 396.083 511.637 396.083C509.772 396.083 508.503 394.74 508.503 393.369V346.192C508.503 344.821 509.772 343.478 511.637 343.478Z" fill="#0065EF" stroke="#0065EF" stroke-width="2.89742"/>
<path d="M504.007 358.743H519.718C522.008 358.743 523.507 360.316 523.507 361.847C523.507 363.377 522.008 364.951 519.718 364.951H504.007C501.717 364.951 500.218 363.377 500.218 361.847C500.218 360.316 501.717 358.743 504.007 358.743Z" fill="#0065EF" stroke="#0065EF" stroke-width="2.89742"/>
</g>
<g clip-path="url(#clip5_1640_9205)">
<rect y="571" width="97" height="97" rx="8" fill="#0C8CE9"/>
<g filter="url(#filter5_f_1640_9205)">
<path d="M256 623C256 679.885 214.139 726 162.5 726C110.861 726 69 679.885 69 623C69 566.115 110.861 520 162.5 520C214.139 520 256 566.115 256 623Z" fill="#1F3986" fill-opacity="0.9"/>
</g>
<path d="M67.1283 615.879C66.2981 621.083 63.6488 625.824 59.6517 629.259C55.6545 632.693 50.5688 634.598 45.2993 634.634C44.2319 634.675 43.1631 634.61 42.1086 634.441C39.9031 634.066 37.8928 632.946 36.4129 631.269C34.933 629.591 34.073 627.457 33.9764 625.222C33.9977 622.729 34.9982 620.344 36.7622 618.583C38.526 616.821 40.9118 615.824 43.4045 615.807C45.8972 615.789 48.2969 616.752 50.0854 618.489C51.8741 620.225 52.9083 622.595 52.9648 625.088C53.0047 626.662 52.3229 628.042 50.9215 628.082C49.4243 628.082 48.7224 627.014 48.7224 625.574V621.573C48.723 620.926 48.4677 620.305 48.0122 619.846C47.5567 619.386 46.9381 619.125 46.2911 619.12H42.9374C41.9619 619.113 41.0003 619.351 40.1404 619.812C39.2805 620.273 38.5498 620.942 38.0152 621.758C37.4804 622.574 37.1586 623.51 37.0792 624.483C36.9998 625.455 37.1653 626.432 37.5606 627.324C37.9559 628.215 38.5684 628.994 39.3421 629.588C40.1158 630.182 41.026 630.573 41.9897 630.725C42.9533 630.877 43.9396 630.784 44.8584 630.457C45.7772 630.129 46.5992 629.576 47.2493 628.849L47.3665 628.674L47.4839 628.868C47.8873 629.416 48.4198 629.856 49.0342 630.149C49.6485 630.441 50.3256 630.577 51.0053 630.545C52.2169 630.457 53.346 629.899 54.1516 628.99C54.9572 628.081 55.3755 626.893 55.3172 625.679C55.329 624.638 55.2123 623.599 54.9698 622.587C54.3478 619.726 52.689 617.197 50.3132 615.487C47.9373 613.777 45.0126 613.008 42.1029 613.326C39.1931 613.645 36.5044 615.03 34.555 617.213C32.6055 619.397 31.5334 622.225 31.5452 625.153C31.5827 628.257 32.8217 631.226 35.0021 633.435C37.1823 635.645 40.1341 636.923 43.2373 637.002C43.2373 637.002 44.1155 637.082 45.1057 637.059C49.9187 637.028 54.6231 635.625 58.6659 633.013C58.7235 632.973 58.781 633.053 58.7427 633.111C56.7744 635.231 54.3676 636.897 51.6898 637.992C49.012 639.087 46.1276 639.586 43.2376 639.452C41.3483 639.486 39.4716 639.138 37.7207 638.427C35.9699 637.716 34.3812 636.658 33.0505 635.316C31.7197 633.974 30.6745 632.377 29.9778 630.62C29.2811 628.864 28.9475 626.984 28.997 625.095C28.9979 622.843 29.5241 620.622 30.5337 618.608C31.5434 616.595 33.0086 614.845 34.8131 613.497C37.2381 611.711 40.1686 610.744 43.1803 610.735H47.6813C49.4396 610.734 51.1783 610.366 52.7868 609.656C54.3952 608.946 55.8382 607.908 57.0236 606.61C57.0487 606.582 57.082 606.563 57.1186 606.556C57.1553 606.548 57.1934 606.552 57.2277 606.567C57.2621 606.581 57.2908 606.607 57.3099 606.639C57.3292 606.671 57.3378 606.709 57.3347 606.747C57.1439 608.77 56.4704 610.718 55.3708 612.426C55.3545 612.456 55.3472 612.49 55.3497 612.524C55.3523 612.557 55.3646 612.59 55.3853 612.617C55.4057 612.643 55.4336 612.664 55.4654 612.675C55.4972 612.686 55.5316 612.688 55.5644 612.68C57.6422 612.211 59.5808 611.26 61.2242 609.905C62.8676 608.55 64.1699 606.828 65.0264 604.877C65.0482 604.843 65.0781 604.814 65.1138 604.793C65.1497 604.773 65.1902 604.762 65.2314 604.762C65.2726 604.762 65.3131 604.773 65.349 604.793C65.3848 604.813 65.4148 604.842 65.4363 604.877C67.2004 608.257 67.7954 612.125 67.1283 615.879ZM43.2257 621.523C42.7079 621.523 42.1966 621.638 41.7285 621.859C41.2604 622.08 40.8473 622.403 40.5188 622.803C40.1903 623.203 39.9547 623.671 39.829 624.174C39.7032 624.676 39.6904 625.2 39.7915 625.707C39.9266 626.387 40.26 627.011 40.7497 627.5C41.2393 627.99 41.8631 628.324 42.5423 628.459C43.0501 628.56 43.574 628.547 44.0762 628.421C44.5784 628.295 45.0464 628.059 45.4466 627.731C45.8467 627.402 46.1691 626.989 46.3903 626.521C46.6116 626.053 46.7263 625.542 46.7262 625.024V621.755C46.7231 621.693 46.6968 621.634 46.6525 621.59C46.6083 621.545 46.5491 621.519 46.4866 621.516L43.2257 621.523Z" fill="white"/>
</g>
<g clip-path="url(#clip6_1640_9205)">
<rect x="144" y="571" width="97" height="97" rx="8" fill="#0C8CE9"/>
<g filter="url(#filter6_f_1640_9205)">
<path d="M400 623C400 679.885 358.139 726 306.5 726C254.861 726 213 679.885 213 623C213 566.115 254.861 520 306.5 520C358.139 520 400 566.115 400 623Z" fill="#1F3986" fill-opacity="0.9"/>
</g>
<path d="M198.492 596H217V643.999H169V596H187.508C187.504 596.086 187.495 596.171 187.495 596.258C187.495 599.298 189.96 601.763 193 601.763C196.04 601.763 198.505 599.298 198.505 596.258C198.505 596.171 198.496 596.086 198.492 596ZM209.428 638.863H212.728L207.73 621.869H202.713L198.597 638.863H201.796L202.629 635.079H208.345L209.428 638.863ZM191.916 638.863H195.074L199.125 621.869H196.007L193.526 633.579H193.485L191.128 621.869H188.153L185.531 633.436H185.49L183.314 621.869H180.136L183.798 638.863H187.016L189.537 627.296H189.578L191.916 638.863ZM204.625 626.058H205.962L207.556 632.294H203.238L204.625 626.058Z" fill="white"/>
</g>
<g clip-path="url(#clip7_1640_9205)">
<rect x="288" y="571" width="97" height="97" rx="8" fill="#0C8CE9"/>
<g filter="url(#filter7_f_1640_9205)">
<path d="M544 623C544 679.885 502.139 726 450.5 726C398.861 726 357 679.885 357 623C357 566.115 398.861 520 450.5 520C502.139 520 544 566.115 544 623Z" fill="#1F3986" fill-opacity="0.9"/>
</g>
<path d="M314.434 630.413V624.852C315.563 625.532 316.686 626.039 317.801 626.372C318.931 626.706 319.995 626.872 320.994 626.872C322.211 626.872 323.167 626.706 323.862 626.372C324.571 626.039 324.926 625.532 324.926 624.852C324.926 624.417 324.767 624.055 324.448 623.766C324.13 623.476 323.717 623.223 323.21 623.005C322.718 622.788 322.175 622.593 321.581 622.419C320.987 622.245 320.415 622.049 319.865 621.832C318.981 621.499 318.199 621.144 317.518 620.768C316.852 620.377 316.287 619.928 315.824 619.421C315.375 618.914 315.028 618.327 314.781 617.661C314.55 616.995 314.434 616.206 314.434 615.293C314.434 614.048 314.702 612.976 315.238 612.078C315.788 611.18 316.512 610.449 317.41 609.884C318.322 609.305 319.358 608.885 320.516 608.624C321.689 608.349 322.906 608.212 324.166 608.212C325.151 608.212 326.15 608.291 327.164 608.451C328.177 608.595 329.177 608.813 330.162 609.102V614.403C329.293 613.896 328.358 613.519 327.359 613.273C326.374 613.012 325.404 612.882 324.448 612.882C323.999 612.882 323.572 612.926 323.167 613.012C322.776 613.085 322.428 613.201 322.124 613.36C321.82 613.505 321.581 613.7 321.407 613.947C321.233 614.178 321.146 614.446 321.146 614.75C321.146 615.156 321.277 615.503 321.537 615.793C321.798 616.083 322.138 616.336 322.558 616.553C322.978 616.756 323.442 616.944 323.949 617.118C324.47 617.278 324.984 617.444 325.491 617.618C326.403 617.936 327.229 618.284 327.967 618.661C328.706 619.037 329.336 619.479 329.857 619.986C330.393 620.493 330.799 621.086 331.074 621.767C331.364 622.448 331.508 623.259 331.508 624.2C331.508 625.518 331.219 626.648 330.639 627.589C330.075 628.516 329.314 629.276 328.358 629.87C327.417 630.449 326.324 630.869 325.078 631.13C323.847 631.405 322.566 631.543 321.233 631.543C318.786 631.543 316.519 631.166 314.434 630.413Z" fill="white"/>
<rect x="327.828" y="604.292" width="3.70747" height="27.8061" fill="#1A72EF"/>
<path d="M336.811 622.667H340.489C341.602 622.667 342.594 622.542 343.464 622.294L344.415 619.364L347.073 611.176C346.87 610.855 346.639 610.551 346.379 610.265C345.015 608.755 343.018 608 340.39 608H331.145V630.333H336.811V622.667ZM341.679 613.138C342.212 613.674 342.478 614.392 342.478 615.291C342.478 616.198 342.244 616.916 341.775 617.448C341.261 618.038 340.315 618.333 338.936 618.333H336.811V612.333H338.952C340.237 612.333 341.146 612.601 341.679 613.138Z" fill="white"/>
<path d="M345.219 626.333L346.932 622H351.88L349.532 615.426L352.469 608L360.881 630.333H354.677L353.24 626.333H345.219Z" fill="white"/>
</g>
<g clip-path="url(#clip8_1640_9205)">
<rect x="432" y="571" width="97" height="97" rx="8" fill="#0C8CE9"/>
<g filter="url(#filter8_f_1640_9205)">
<path d="M688 623C688 679.885 646.139 726 594.5 726C542.861 726 501 679.885 501 623C501 566.115 542.861 520 594.5 520C646.139 520 688 566.115 688 623Z" fill="#1F3986" fill-opacity="0.9"/>
</g>
<path d="M492.324 625.788L493.711 622.282H497.715L495.815 616.963L498.191 610.953L504.997 629.025H499.978L498.815 625.788H492.324Z" fill="white"/>
<path d="M488.045 629.025L495.331 610.953L490.5 610.953L485.516 622.632L481.972 610.953H478.258L474.453 622.632L471.769 617.31L469.34 624.793L471.806 629.025H476.56L479.999 618.552L483.278 629.025H488.045Z" fill="white"/>
<path d="M461.585 622.821H464.561C465.462 622.821 466.265 622.721 466.969 622.52L467.738 620.149L469.889 613.523C469.725 613.263 469.538 613.018 469.328 612.786C468.223 611.564 466.608 610.953 464.481 610.953H457V629.025H461.585V622.821ZM465.524 615.111C465.955 615.545 466.171 616.126 466.171 616.854C466.171 617.587 465.981 618.168 465.602 618.598C465.186 619.076 464.42 619.315 463.305 619.315H461.585V614.46H463.318C464.357 614.46 465.093 614.677 465.524 615.111Z" fill="white"/>
</g>
<g clip-path="url(#clip9_1640_9205)">
<rect x="576" y="571" width="97" height="97" rx="8" fill="#0C8CE9"/>
<g filter="url(#filter9_f_1640_9205)">
<path d="M832 623C832 679.885 790.139 726 738.5 726C686.861 726 645 679.885 645 623C645 566.115 686.861 520 738.5 520C790.139 520 832 566.115 832 623Z" fill="#1F3986" fill-opacity="0.9"/>
</g>
<path d="M615.74 591C615.476 591.003 615.202 591.066 614.952 591.205C614.159 591.644 613.868 592.663 614.307 593.456L616.098 596.689C611.784 599.359 608.925 603.918 608.925 609.122C608.925 609.143 608.925 609.176 608.925 609.209C608.925 609.22 608.925 609.226 608.925 609.239C608.925 609.256 608.925 609.281 608.925 609.285V610.089C608.096 609.135 606.878 608.533 605.518 608.533C603.024 608.533 601 610.558 601 613.051V626.967C601 629.46 603.024 631.484 605.518 631.484C606.878 631.484 608.096 630.882 608.925 629.929V631.878C608.925 634.506 611.075 636.657 613.703 636.657H614.916V642.847C614.916 645.341 616.94 647.365 619.434 647.365C621.927 647.365 623.951 645.341 623.951 642.847V636.657H626.049V642.847C626.049 645.341 628.073 647.365 630.566 647.365C633.06 647.365 635.084 645.341 635.084 642.847V636.657H636.297C638.925 636.657 641.075 634.506 641.075 631.878V629.929C641.904 630.882 643.122 631.484 644.482 631.484C646.976 631.484 649 629.46 649 626.967V613.051C649 610.558 646.976 608.533 644.482 608.533C643.122 608.533 641.904 609.135 641.075 610.089V609.301V609.285C641.075 609.261 641.075 609.236 641.075 609.239C641.075 609.19 641.075 609.151 641.075 609.122C641.075 603.919 638.21 599.364 633.897 596.694L635.693 593.456C636.132 592.663 635.841 591.644 635.048 591.205C634.798 591.066 634.524 591.003 634.26 591C633.675 590.994 633.1 591.303 632.797 591.849L630.919 595.241C629.083 594.564 627.086 594.193 625 594.193C622.916 594.193 620.915 594.56 619.081 595.236L617.203 591.849C616.9 591.303 616.325 590.994 615.74 591Z" fill="#1C5CC7"/>
<path d="M605.521 609.709C603.66 609.709 602.18 611.189 602.18 613.05V626.966C602.18 628.826 603.66 630.307 605.521 630.307C607.381 630.307 608.861 628.826 608.861 626.966V613.05C608.861 611.189 607.381 609.709 605.521 609.709ZM644.485 609.709C642.625 609.709 641.145 611.189 641.145 613.05V626.966C641.145 628.826 642.625 630.307 644.485 630.307C646.346 630.307 647.826 628.826 647.826 626.966V613.05C647.826 611.189 646.346 609.709 644.485 609.709Z" fill="white"/>
<path d="M619.435 625.59C617.574 625.59 616.094 627.071 616.094 628.931V642.847C616.094 644.708 617.574 646.188 619.435 646.188C621.295 646.188 622.775 644.708 622.775 642.847V628.931C622.775 627.071 621.295 625.59 619.435 625.59ZM630.567 625.59C628.707 625.59 627.227 627.071 627.227 628.931V642.847C627.227 644.708 628.707 646.188 630.567 646.188C632.428 646.188 633.908 644.708 633.908 642.847V628.931C633.908 627.071 632.428 625.59 630.567 625.59Z" fill="white"/>
<path d="M615.754 592.177C615.675 592.178 615.601 592.198 615.529 592.238C615.29 592.37 615.212 592.644 615.344 592.883L617.698 597.134C613.17 599.49 610.112 603.968 610.105 609.106H639.902C639.896 603.968 636.838 599.49 632.31 597.134L634.663 592.883C634.796 592.644 634.717 592.37 634.479 592.238C634.406 592.198 634.333 592.178 634.254 592.177C634.085 592.175 633.925 592.26 633.834 592.422L631.45 596.72C629.5 595.855 627.312 595.369 625.004 595.369C622.695 595.369 620.508 595.855 618.557 596.72L616.173 592.422C616.083 592.26 615.923 592.175 615.754 592.177ZM610.105 610.283V631.878C610.105 633.874 611.712 635.48 613.707 635.48H636.3C638.296 635.48 639.902 633.874 639.902 631.878V610.283H610.105Z" fill="white"/>
<path d="M618.122 601.167C617.442 601.167 616.879 601.73 616.879 602.41C616.879 603.09 617.442 603.653 618.122 603.653C618.802 603.653 619.365 603.09 619.365 602.41C619.365 601.73 618.802 601.167 618.122 601.167ZM631.874 601.167C631.194 601.167 630.631 601.73 630.631 602.41C630.631 603.09 631.194 603.653 631.874 603.653C632.555 603.653 633.118 603.09 633.118 602.41C633.118 601.73 632.555 601.167 631.874 601.167Z" fill="#1C5CC7"/>
</g>
<g clip-path="url(#clip10_1640_9205)">
<rect x="720" y="571" width="97" height="97" rx="8" fill="#0C8CE9"/>
<g filter="url(#filter10_f_1640_9205)">
<path d="M976 623C976 679.885 934.139 726 882.5 726C830.861 726 789 679.885 789 623C789 566.115 830.861 520 882.5 520C934.139 520 976 566.115 976 623Z" fill="#1F3986" fill-opacity="0.9"/>
</g>
<g clip-path="url(#clip11_1640_9205)">
<path d="M758.091 596C750.869 596 745 601.869 745 609.091V630.908C745 638.131 750.869 644 758.091 644H779.908C787.131 644 793 638.131 793 630.909V609.091C793 601.869 787.131 596 779.909 596H758.091ZM754.402 612.44C755.165 612.44 755.734 612.985 755.734 613.705C755.734 614.415 755.165 614.96 754.402 614.96C753.628 614.96 753.062 614.414 753.062 613.705C753.062 612.986 753.628 612.44 754.402 612.44ZM765.77 613.062C769.752 613.062 772.206 615.842 772.206 620.304C772.206 624.755 769.773 627.559 765.77 627.559C761.744 627.559 759.301 624.765 759.301 620.304C759.301 615.832 761.799 613.062 765.77 613.062ZM779.877 613.062C782.68 613.062 784.73 614.697 784.86 617.032H782.766C782.559 615.755 781.458 614.961 779.843 614.961C778.141 614.961 777.018 615.766 777.018 617.021C777.018 618.003 777.738 618.571 779.549 618.996L781.066 619.366C783.914 620.032 785.081 621.178 785.081 623.261C785.081 625.912 783.029 627.57 779.745 627.57C776.68 627.57 774.618 625.989 774.465 623.513H776.594C776.779 624.822 778.065 625.66 779.908 625.66C781.633 625.66 782.898 624.766 782.898 623.534C782.898 622.486 782.101 621.855 780.268 621.418L778.479 620.992C775.981 620.402 774.836 619.192 774.836 617.163C774.836 614.699 776.856 613.062 779.877 613.062ZM765.77 615.059C763.162 615.059 761.506 617.097 761.506 620.304C761.506 623.5 763.108 625.563 765.77 625.563C768.399 625.563 770.014 623.501 770.014 620.304C770.015 617.098 768.399 615.059 765.77 615.059ZM753.378 616.794H755.429V627.234H753.378V616.794Z" fill="white"/>
</g>
</g>
<g clip-path="url(#clip12_1640_9205)">
<rect x="864" y="571" width="97" height="97" rx="8" fill="#0C8CE9"/>
<g filter="url(#filter11_f_1640_9205)">
<path d="M1120 623C1120 679.885 1078.14 726 1026.5 726C974.861 726 933 679.885 933 623C933 566.115 974.861 520 1026.5 520C1078.14 520 1120 566.115 1120 623Z" fill="#1F3986" fill-opacity="0.9"/>
</g>
<g clip-path="url(#clip13_1640_9205)">
<path fill-rule="evenodd" clip-rule="evenodd" d="M889.015 618.4L889 602.796L908.201 600.189V618.4H889.015H889.015ZM911.399 599.723L936.993 595.999V618.4H911.399L911.399 599.723ZM937 621.599L936.995 644L911.4 640.399V621.599H937L937 621.599ZM908.199 639.99L889.014 637.359V621.596H908.199V639.99Z" fill="white"/>
</g>
</g>
<g clip-path="url(#clip14_1640_9205)">
<rect x="1008" y="571" width="97" height="97" rx="8" fill="#0C8CE9"/>
<g filter="url(#filter12_f_1640_9205)">
<path d="M1264 623C1264 679.885 1222.14 726 1170.5 726C1118.86 726 1077 679.885 1077 623C1077 566.115 1118.86 520 1170.5 520C1222.14 520 1264 566.115 1264 623Z" fill="#1F3986" fill-opacity="0.9"/>
</g>
<circle cx="1057" cy="620" r="24" fill="white"/>
<path d="M1059.84 611.697V611.344C1055.25 611.344 1059.4 614.351 1059.84 611.697ZM1061.97 610.105C1062.59 608.248 1065.77 608.071 1066.12 610.371H1065.24C1064.97 609.044 1062.76 608.956 1062.76 611.344C1062.76 612.67 1064.8 613.466 1065.24 611.874H1066.12C1065.59 614.793 1060.91 613.732 1061.97 610.105ZM1049.05 608.69H1049.94V609.486C1050.38 608.425 1052.33 608.337 1052.68 609.575C1053.3 608.248 1055.78 608.337 1055.78 610.194V613.466H1054.8V610.459C1054.8 609.133 1052.86 609.133 1052.86 610.548V613.466H1051.88V610.371C1051.67 609.543 1050.57 609.378 1050.12 610.105L1049.94 610.548V613.466H1049.05V608.69ZM1051.09 631.597C1046.93 631.597 1044.37 628.678 1044.37 623.991C1044.37 619.303 1046.93 616.473 1051.09 616.473C1055.25 616.473 1057.9 619.392 1057.9 623.991C1057.9 628.59 1055.33 631.597 1051.09 631.597ZM1058.87 613.466C1056.31 614.085 1055.95 610.813 1058.61 610.725L1059.84 610.636V610.282C1059.93 609.221 1058.16 609.133 1057.9 610.105H1057.01C1057.02 609.887 1057.08 609.674 1057.19 609.486C1057.9 608.248 1060.82 608.248 1060.82 610.194V613.466H1059.93V612.67C1059.82 612.871 1059.67 613.047 1059.49 613.184C1059.31 613.321 1059.1 613.418 1058.87 613.466ZM1064.89 631.597C1061.7 631.42 1059.49 629.916 1059.31 627.263H1061.44C1063.47 633.631 1074.35 626.821 1063.65 624.61C1061.97 624.256 1060.73 623.46 1060.2 622.487C1056.84 615.943 1069.84 613.997 1070.19 620.718H1068.16C1067.54 616.385 1059.49 618.773 1062.41 621.78C1063.65 623.018 1066.21 622.93 1068.07 623.725C1072.49 625.76 1070.37 631.774 1064.89 631.597ZM1051.09 618.331C1048.26 618.331 1046.49 620.542 1046.49 623.991C1046.49 627.44 1048.26 629.651 1051.09 629.651C1053.92 629.651 1055.78 627.528 1055.78 623.991C1055.78 620.453 1054.01 618.331 1051.09 618.331Z" fill="#1469BF"/>
</g>
<g clip-path="url(#clip15_1640_9205)">
<rect x="1152" y="571" width="97" height="97" rx="8" fill="#0C8CE9"/>
<g filter="url(#filter13_f_1640_9205)">
<path d="M1408 623C1408 679.885 1366.14 726 1314.5 726C1262.86 726 1221 679.885 1221 623C1221 566.115 1262.86 520 1314.5 520C1366.14 520 1408 566.115 1408 623Z" fill="#1F3986" fill-opacity="0.9"/>
</g>
<path d="M1223.51 636.126C1221.86 635.451 1221.16 634.555 1221.23 633.219C1221.3 631.659 1220.41 630.516 1219.99 630.065C1220.24 629.095 1220.99 625.739 1219.99 622.824C1218.92 619.705 1215.66 614.94 1212.29 610.256C1210.91 608.333 1210.84 606.242 1210.77 603.821C1210.7 601.512 1210.61 598.895 1209.33 595.985C1207.93 592.817 1205.12 591 1201.62 591C1199.54 591 1197.4 591.65 1195.76 592.784C1192.39 595.108 1192.83 600.174 1193.13 603.526C1193.17 603.985 1193.21 604.419 1193.23 604.789C1193.43 608.072 1193.25 609.802 1193.01 610.328C1192.86 610.672 1192.12 611.65 1191.33 612.685C1190.52 613.756 1189.6 614.97 1188.84 616.102C1187.94 617.463 1187.21 619.543 1186.51 621.555C1185.99 623.028 1185.51 624.418 1185.03 625.25C1184.14 626.848 1184.36 628.339 1184.55 629.028C1184.21 629.264 1183.72 629.729 1183.3 630.605C1182.8 631.674 1181.78 632.248 1179.67 632.654C1178.7 632.853 1178.03 633.261 1177.68 633.868C1177.17 634.751 1177.45 635.86 1177.7 636.618C1178.08 637.733 1177.84 638.438 1177.42 639.719C1177.32 640.014 1177.21 640.349 1177.1 640.718C1176.92 641.301 1176.98 641.83 1177.29 642.292C1178.08 643.512 1180.41 643.942 1182.81 644.225C1184.24 644.395 1185.81 644.968 1187.32 645.522C1188.81 646.064 1190.34 646.625 1191.74 646.796C1191.95 646.822 1192.16 646.836 1192.36 646.836C1194.47 646.836 1195.42 645.438 1195.73 644.863C1196.48 644.709 1199.09 644.214 1201.78 644.148C1204.47 644.071 1207.07 644.602 1207.8 644.767C1208.03 645.21 1208.64 646.222 1209.62 646.743C1210.15 647.035 1210.9 647.203 1211.66 647.203H1211.66C1212.47 647.203 1214.02 647.01 1215.24 645.721C1216.47 644.426 1219.52 642.773 1221.75 641.566C1222.25 641.296 1222.71 641.044 1223.12 640.817C1224.37 640.122 1225.06 639.13 1225 638.095C1224.95 637.235 1224.38 636.48 1223.51 636.126ZM1195.78 635.877C1195.63 634.778 1194.21 633.689 1192.58 632.428C1191.24 631.397 1189.72 630.228 1189.31 629.238C1188.44 627.196 1189.12 623.605 1190.31 621.756C1190.9 620.83 1191.38 619.426 1191.84 618.069C1192.34 616.603 1192.86 615.087 1193.43 614.423C1194.35 613.387 1195.2 611.371 1195.35 609.783C1196.2 610.602 1197.54 611.641 1198.76 611.641C1198.95 611.641 1199.14 611.616 1199.31 611.567C1200.15 611.324 1201.39 610.609 1202.59 609.918C1203.62 609.322 1204.89 608.587 1205.37 608.52C1206.19 609.698 1210.96 620.25 1211.45 623.639C1211.83 626.32 1211.42 628.536 1211.22 629.404C1211.05 629.382 1210.86 629.364 1210.65 629.364C1209.32 629.364 1208.97 630.089 1208.88 630.521C1208.64 631.646 1208.62 635.242 1208.62 636.05C1208.14 636.66 1205.71 639.533 1202.22 640.05C1200.8 640.256 1199.48 640.361 1198.28 640.361C1197.26 640.361 1196.61 640.282 1196.34 640.241L1194.58 638.236C1195.27 637.895 1195.97 637.175 1195.78 635.877ZM1198.01 602.821C1197.95 602.844 1197.9 602.87 1197.85 602.897C1197.84 602.778 1197.83 602.658 1197.81 602.537C1197.62 601.436 1196.89 600.637 1196.07 600.637C1196.01 600.637 1195.95 600.641 1195.89 600.651C1195.4 600.732 1195.02 601.096 1194.81 601.612C1195 600.48 1195.64 599.642 1196.4 599.642C1197.29 599.642 1198.05 600.846 1198.05 602.272C1198.05 602.451 1198.03 602.63 1198.01 602.821ZM1204.95 603.67C1205.03 603.409 1205.08 603.127 1205.08 602.835C1205.08 601.542 1204.26 600.53 1203.21 600.53C1202.19 600.53 1201.35 601.564 1201.35 602.835C1201.35 602.921 1201.36 603.008 1201.37 603.095C1201.31 603.074 1201.26 603.054 1201.21 603.034C1201.09 602.677 1201.03 602.305 1201.03 601.926C1201.03 600.38 1202.02 599.123 1203.23 599.123C1204.45 599.123 1205.44 600.38 1205.44 601.926C1205.44 602.569 1205.26 603.182 1204.95 603.67ZM1204.06 606.678C1204.04 606.756 1204 606.791 1203.59 607.005C1203.38 607.113 1203.12 607.248 1202.8 607.445L1202.58 607.576C1201.71 608.103 1199.68 609.337 1199.12 609.41C1198.75 609.46 1198.52 609.315 1198 608.96C1197.88 608.88 1197.75 608.795 1197.62 608.709C1196.68 608.091 1196.07 607.411 1196 607.145C1196.31 606.908 1197.07 606.315 1197.46 605.963C1198.25 605.228 1199.05 604.735 1199.44 604.735C1199.46 604.735 1199.48 604.736 1199.5 604.74C1199.96 604.821 1201.1 605.277 1201.94 605.609C1202.32 605.763 1202.65 605.895 1202.89 605.979C1203.62 606.233 1204.01 606.557 1204.06 606.678ZM1210.68 641.021C1211.1 639.145 1211.57 636.592 1211.5 635.088C1211.48 634.746 1211.45 634.374 1211.42 634.014C1211.36 633.342 1211.28 632.342 1211.37 632.045C1211.38 632.038 1211.4 632.031 1211.42 632.025C1211.43 632.886 1211.61 634.601 1212.99 635.2C1213.39 635.378 1213.86 635.468 1214.37 635.468C1215.75 635.468 1217.27 634.794 1217.9 634.169C1218.27 633.802 1218.58 633.352 1218.79 632.995C1218.84 633.134 1218.87 633.315 1218.85 633.549C1218.77 634.818 1219.39 636.501 1220.56 637.121L1220.73 637.211C1221.15 637.43 1222.26 638.013 1222.28 638.289C1222.28 638.289 1222.27 638.322 1222.21 638.379C1221.93 638.634 1220.95 639.133 1220 639.617C1218.33 640.474 1216.42 641.446 1215.57 642.344C1214.36 643.611 1213 644.461 1212.18 644.461C1212.08 644.461 1211.99 644.449 1211.91 644.423C1211.02 644.145 1210.28 642.857 1210.68 641.021ZM1180.25 636.235C1180.16 635.808 1180.09 635.472 1180.17 635.146C1180.22 634.905 1181.42 634.646 1181.93 634.536C1182.64 634.381 1183.38 634.22 1183.86 633.926C1184.52 633.53 1184.87 632.799 1185.19 632.154C1185.41 631.688 1185.65 631.205 1185.92 631.047C1185.94 631.038 1185.96 631.027 1186.01 631.027C1186.53 631.027 1187.62 632.122 1188.25 633.102C1188.41 633.35 1188.71 633.845 1189.05 634.418C1190.08 636.131 1191.48 638.478 1192.21 639.265C1192.87 639.972 1193.94 641.331 1193.67 642.497C1193.48 643.401 1192.46 644.137 1192.22 644.3C1192.13 644.32 1192.02 644.33 1191.89 644.33C1190.49 644.33 1187.72 643.164 1186.23 642.537L1186.01 642.444C1185.17 642.095 1183.81 641.876 1182.5 641.663C1181.45 641.494 1180.02 641.262 1179.79 641.053C1179.59 640.837 1179.82 640.135 1180.01 639.516C1180.16 639.072 1180.3 638.612 1180.38 638.13C1180.5 637.362 1180.36 636.737 1180.25 636.235Z" fill="white"/>
</g>
<defs>
<filter id="filter0_i_1640_9205" x="303.289" y="54.5684" width="165.945" height="170.066" filterUnits="userSpaceOnUse" color-interpolation-filters="sRGB">
<feFlood flood-opacity="0" result="BackgroundImageFix"/>
<feBlend mode="normal" in="SourceGraphic" in2="BackgroundImageFix" result="shape"/>
<feColorMatrix in="SourceAlpha" type="matrix" values="0 0 0 0 0 0 0 0 0 0 0 0 0 0 0 0 0 0 127 0" result="hardAlpha"/>
<feOffset dy="4"/>
<feGaussianBlur stdDeviation="36"/>
<feComposite in2="hardAlpha" operator="arithmetic" k2="-1" k3="1"/>
<feColorMatrix type="matrix" values="0 0 0 0 0.705882 0 0 0 0 0.341176 0 0 0 0 0.917647 0 0 0 0.6 0"/>
<feBlend mode="normal" in2="shape" result="effect1_innerShadow_1640_9205"/>
</filter>
<filter id="filter1_i_1640_9205" x="700.367" y="279.938" width="165.945" height="170.066" filterUnits="userSpaceOnUse" color-interpolation-filters="sRGB">
<feFlood flood-opacity="0" result="BackgroundImageFix"/>
<feBlend mode="normal" in="SourceGraphic" in2="BackgroundImageFix" result="shape"/>
<feColorMatrix in="SourceAlpha" type="matrix" values="0 0 0 0 0 0 0 0 0 0 0 0 0 0 0 0 0 0 127 0" result="hardAlpha"/>
<feOffset dy="4"/>
<feGaussianBlur stdDeviation="36"/>
<feComposite in2="hardAlpha" operator="arithmetic" k2="-1" k3="1"/>
<feColorMatrix type="matrix" values="0 0 0 0 0.478431 0 0 0 0 0.2 0 0 0 0 0.913725 0 0 0 0.6 0"/>
<feBlend mode="normal" in2="shape" result="effect1_innerShadow_1640_9205"/>
</filter>
<filter id="filter2_i_1640_9205" x="789.285" y="47.4385" width="165.945" height="170.066" filterUnits="userSpaceOnUse" color-interpolation-filters="sRGB">
<feFlood flood-opacity="0" result="BackgroundImageFix"/>
<feBlend mode="normal" in="SourceGraphic" in2="BackgroundImageFix" result="shape"/>
<feColorMatrix in="SourceAlpha" type="matrix" values="0 0 0 0 0 0 0 0 0 0 0 0 0 0 0 0 0 0 127 0" result="hardAlpha"/>
<feOffset dy="4"/>
<feGaussianBlur stdDeviation="36"/>
<feComposite in2="hardAlpha" operator="arithmetic" k2="-1" k3="1"/>
<feColorMatrix type="matrix" values="0 0 0 0 0.996078 0 0 0 0 0.419608 0 0 0 0 0 0 0 0 0.6 0"/>
<feBlend mode="normal" in2="shape" result="effect1_innerShadow_1640_9205"/>
</filter>
<filter id="filter3_i_1640_9205" x="547.453" y="0" width="165.945" height="170.066" filterUnits="userSpaceOnUse" color-interpolation-filters="sRGB">
<feFlood flood-opacity="0" result="BackgroundImageFix"/>
<feBlend mode="normal" in="SourceGraphic" in2="BackgroundImageFix" result="shape"/>
<feColorMatrix in="SourceAlpha" type="matrix" values="0 0 0 0 0 0 0 0 0 0 0 0 0 0 0 0 0 0 127 0" result="hardAlpha"/>
<feOffset dy="4"/>
<feGaussianBlur stdDeviation="36"/>
<feComposite in2="hardAlpha" operator="arithmetic" k2="-1" k3="1"/>
<feColorMatrix type="matrix" values="0 0 0 0 0.105882 0 0 0 0 0.509804 0 0 0 0 0.745098 0 0 0 0.6 0"/>
<feBlend mode="normal" in2="shape" result="effect1_innerShadow_1640_9205"/>
</filter>
<filter id="filter4_i_1640_9205" x="389.816" y="279.949" width="165.945" height="169.945" filterUnits="userSpaceOnUse" color-interpolation-filters="sRGB">
<feFlood flood-opacity="0" result="BackgroundImageFix"/>
<feBlend mode="normal" in="SourceGraphic" in2="BackgroundImageFix" result="shape"/>
<feColorMatrix in="SourceAlpha" type="matrix" values="0 0 0 0 0 0 0 0 0 0 0 0 0 0 0 0 0 0 127 0" result="hardAlpha"/>
<feOffset dy="4"/>
<feGaussianBlur stdDeviation="36"/>
<feComposite in2="hardAlpha" operator="arithmetic" k2="-1" k3="1"/>
<feColorMatrix type="matrix" values="0 0 0 0 0.101961 0 0 0 0 0.482353 0 0 0 0 1 0 0 0 0.6 0"/>
<feBlend mode="normal" in2="shape" result="effect1_innerShadow_1640_9205"/>
</filter>
<filter id="filter5_f_1640_9205" x="-1" y="450" width="327" height="346" filterUnits="userSpaceOnUse" color-interpolation-filters="sRGB">
<feFlood flood-opacity="0" result="BackgroundImageFix"/>
<feBlend mode="normal" in="SourceGraphic" in2="BackgroundImageFix" result="shape"/>
<feGaussianBlur stdDeviation="35" result="effect1_foregroundBlur_1640_9205"/>
</filter>
<filter id="filter6_f_1640_9205" x="143" y="450" width="327" height="346" filterUnits="userSpaceOnUse" color-interpolation-filters="sRGB">
<feFlood flood-opacity="0" result="BackgroundImageFix"/>
<feBlend mode="normal" in="SourceGraphic" in2="BackgroundImageFix" result="shape"/>
<feGaussianBlur stdDeviation="35" result="effect1_foregroundBlur_1640_9205"/>
</filter>
<filter id="filter7_f_1640_9205" x="287" y="450" width="327" height="346" filterUnits="userSpaceOnUse" color-interpolation-filters="sRGB">
<feFlood flood-opacity="0" result="BackgroundImageFix"/>
<feBlend mode="normal" in="SourceGraphic" in2="BackgroundImageFix" result="shape"/>
<feGaussianBlur stdDeviation="35" result="effect1_foregroundBlur_1640_9205"/>
</filter>
<filter id="filter8_f_1640_9205" x="431" y="450" width="327" height="346" filterUnits="userSpaceOnUse" color-interpolation-filters="sRGB">
<feFlood flood-opacity="0" result="BackgroundImageFix"/>
<feBlend mode="normal" in="SourceGraphic" in2="BackgroundImageFix" result="shape"/>
<feGaussianBlur stdDeviation="35" result="effect1_foregroundBlur_1640_9205"/>
</filter>
<filter id="filter9_f_1640_9205" x="595" y="470" width="287" height="306" filterUnits="userSpaceOnUse" color-interpolation-filters="sRGB">
<feFlood flood-opacity="0" result="BackgroundImageFix"/>
<feBlend mode="normal" in="SourceGraphic" in2="BackgroundImageFix" result="shape"/>
<feGaussianBlur stdDeviation="25" result="effect1_foregroundBlur_1640_9205"/>
</filter>
<filter id="filter10_f_1640_9205" x="719" y="450" width="327" height="346" filterUnits="userSpaceOnUse" color-interpolation-filters="sRGB">
<feFlood flood-opacity="0" result="BackgroundImageFix"/>
<feBlend mode="normal" in="SourceGraphic" in2="BackgroundImageFix" result="shape"/>
<feGaussianBlur stdDeviation="35" result="effect1_foregroundBlur_1640_9205"/>
</filter>
<filter id="filter11_f_1640_9205" x="863" y="450" width="327" height="346" filterUnits="userSpaceOnUse" color-interpolation-filters="sRGB">
<feFlood flood-opacity="0" result="BackgroundImageFix"/>
<feBlend mode="normal" in="SourceGraphic" in2="BackgroundImageFix" result="shape"/>
<feGaussianBlur stdDeviation="35" result="effect1_foregroundBlur_1640_9205"/>
</filter>
<filter id="filter12_f_1640_9205" x="1007" y="450" width="327" height="346" filterUnits="userSpaceOnUse" color-interpolation-filters="sRGB">
<feFlood flood-opacity="0" result="BackgroundImageFix"/>
<feBlend mode="normal" in="SourceGraphic" in2="BackgroundImageFix" result="shape"/>
<feGaussianBlur stdDeviation="35" result="effect1_foregroundBlur_1640_9205"/>
</filter>
<filter id="filter13_f_1640_9205" x="1151" y="450" width="327" height="346" filterUnits="userSpaceOnUse" color-interpolation-filters="sRGB">
<feFlood flood-opacity="0" result="BackgroundImageFix"/>
<feBlend mode="normal" in="SourceGraphic" in2="BackgroundImageFix" result="shape"/>
<feGaussianBlur stdDeviation="35" result="effect1_foregroundBlur_1640_9205"/>
</filter>
<linearGradient id="paint0_linear_1640_9205" x1="339" y1="171" x2="490.849" y2="360.567" gradientUnits="userSpaceOnUse">
<stop offset="0.269028" stop-color="#C960FF"/>
<stop offset="0.578541" stop-color="#1A7BFF"/>
</linearGradient>
<linearGradient id="paint1_linear_1640_9205" x1="876.5" y1="209.5" x2="746.831" y2="358.649" gradientUnits="userSpaceOnUse">
<stop stop-color="#FF6B00"/>
<stop offset="0.451837" stop-color="#7A33E9"/>
</linearGradient>
<linearGradient id="paint2_linear_1640_9205" x1="79.8046" y1="687.403" x2="657.136" y2="351.851" gradientUnits="userSpaceOnUse">
<stop offset="0.28114" stop-color="#1C5CC6"/>
<stop offset="0.845313" stop-color="#6EABFF"/>
</linearGradient>
<linearGradient id="paint3_linear_1640_9205" x1="1177.98" y1="670.891" x2="645.54" y2="277.436" gradientUnits="userSpaceOnUse">
<stop offset="0.0534461" stop-color="#1A7AFE"/>
<stop offset="0.644687" stop-color="#7A33E9"/>
</linearGradient>
<linearGradient id="paint4_linear_1640_9205" x1="574.5" y1="48" x2="875.32" y2="194.326" gradientUnits="userSpaceOnUse">
<stop offset="0.443719" stop-color="#1C88C7"/>
<stop offset="0.71037" stop-color="#FF6B00"/>
</linearGradient>
<linearGradient id="paint5_linear_1640_9205" x1="677.403" y1="31.2568" x2="366.201" y2="162.618" gradientUnits="userSpaceOnUse">
<stop offset="0.44696" stop-color="#1C88C7"/>
<stop offset="0.6848" stop-color="#C960FF"/>
</linearGradient>
<clipPath id="clip0_1640_9205">
<rect width="100.753" height="113.791" fill="white" transform="translate(336.484 80.6567)"/>
</clipPath>
<clipPath id="clip1_1640_9205">
<rect x="789.285" y="47.4385" width="165.946" height="166.066" rx="9.48252" fill="white"/>
</clipPath>
<clipPath id="clip2_1640_9205">
<rect width="99.9519" height="113.791" fill="white" transform="translate(822.477 77.0859)"/>
</clipPath>
<clipPath id="clip3_1640_9205">
<rect width="101.433" height="116.162" fill="white" transform="translate(579.457 27.2627)"/>
</clipPath>
<clipPath id="clip4_1640_9205">
<rect width="104.309" height="104.308" fill="white" transform="translate(420.629 310.77)"/>
</clipPath>
<clipPath id="clip5_1640_9205">
<rect y="571" width="97" height="97" rx="8" fill="white"/>
</clipPath>
<clipPath id="clip6_1640_9205">
<rect x="144" y="571" width="97" height="97" rx="8" fill="white"/>
</clipPath>
<clipPath id="clip7_1640_9205">
<rect x="288" y="571" width="97" height="97" rx="8" fill="white"/>
</clipPath>
<clipPath id="clip8_1640_9205">
<rect x="432" y="571" width="97" height="97" rx="8" fill="white"/>
</clipPath>
<clipPath id="clip9_1640_9205">
<rect x="576" y="571" width="97" height="97" rx="8" fill="white"/>
</clipPath>
<clipPath id="clip10_1640_9205">
<rect x="720" y="571" width="97" height="97" rx="8" fill="white"/>
</clipPath>
<clipPath id="clip11_1640_9205">
<rect width="48" height="48" fill="white" transform="translate(745 596)"/>
</clipPath>
<clipPath id="clip12_1640_9205">
<rect x="864" y="571" width="97" height="97" rx="8" fill="white"/>
</clipPath>
<clipPath id="clip13_1640_9205">
<rect width="48" height="48" fill="white" transform="translate(889 596)"/>
</clipPath>
<clipPath id="clip14_1640_9205">
<rect x="1008" y="571" width="97" height="97" rx="8" fill="white"/>
</clipPath>
<clipPath id="clip15_1640_9205">
<rect x="1152" y="571" width="97" height="97" rx="8" fill="white"/>
</clipPath>
</defs>
</svg>
