<svg width="1261" height="692" viewBox="0 0 1261 692" fill="none" xmlns="http://www.w3.org/2000/svg">
<path d="M387.181 221.118C386.755 220.621 386.813 219.872 387.31 219.446C387.807 219.019 388.555 219.077 388.981 219.574L439.824 278.933L438.024 280.477L387.181 221.118Z" fill="url(#paint0_linear_1611_9602)"/>
<path d="M882.041 213.222C882.467 212.724 883.215 212.667 883.712 213.093C884.21 213.52 884.267 214.268 883.841 214.766L826.756 281.418L824.956 279.874L882.041 213.222Z" fill="url(#paint1_linear_1611_9602)"/>
<path d="M242.795 574.348C242.248 574.708 241.513 574.556 241.153 574.009C240.793 573.462 240.945 572.726 241.492 572.366L437.45 443.325L438.753 445.307L242.795 574.348Z" fill="url(#paint2_linear_1611_9602)"/>
<path d="M1019.51 572.242C1020.06 572.602 1020.21 573.338 1019.85 573.885C1019.49 574.433 1018.75 574.584 1018.21 574.224L823.965 446.292L825.269 444.31L1019.51 572.242Z" fill="url(#paint3_linear_1611_9602)"/>
<path d="M717.43 107.927L718.335 105.734L796.077 137.897L795.171 140.09L717.43 107.927Z" fill="url(#paint4_linear_1611_9602)"/>
<path d="M553.009 106.509C553.615 106.259 554.308 106.546 554.558 107.152C554.808 107.757 554.52 108.451 553.915 108.701L475.356 141.201L474.45 139.009L553.009 106.509Z" fill="url(#paint5_linear_1611_9602)"/>
<g filter="url(#filter0_i_1611_9602)">
<rect x="309.289" y="54.5684" width="165.946" height="166.066" rx="9.48252" fill="#0B1033" fill-opacity="0.01"/>
<rect x="310.474" y="55.7537" width="163.575" height="163.695" rx="8.2972" stroke="#C960FF" stroke-opacity="0.6" stroke-width="2.37063"/>
<g clip-path="url(#clip0_1611_9602)">
<path d="M442.784 114.342C442.783 112.447 442.38 110.773 441.564 109.337C440.762 107.924 439.561 106.74 437.95 105.803C424.655 98.108 411.347 90.4363 398.056 82.7331C394.473 80.6566 390.999 80.7327 387.443 82.839C382.151 85.9715 355.656 101.209 347.761 105.799C344.51 107.689 342.928 110.58 342.927 114.338C342.922 129.814 342.927 145.29 342.922 160.766C342.922 162.618 343.309 164.26 344.089 165.675C344.892 167.131 346.109 168.347 347.757 169.305C355.652 173.895 382.15 189.131 387.441 192.265C390.999 194.372 394.473 194.448 398.058 192.371C411.349 184.667 424.658 176.996 437.955 169.3C439.602 168.343 440.82 167.126 441.622 165.671C442.401 164.256 442.789 162.615 442.789 160.761C442.789 160.761 442.789 129.818 442.784 114.342Z" fill="#A179DC"/>
<path d="M393.005 137.4L344.086 165.674C344.888 167.13 346.106 168.347 347.753 169.304C355.649 173.895 382.147 189.131 387.438 192.264C390.996 194.372 394.47 194.447 398.054 192.37C411.345 184.667 424.654 176.995 437.951 169.299C439.599 168.342 440.816 167.125 441.619 165.67L393.005 137.4Z" fill="#280068"/>
<path d="M442.791 114.343C442.791 112.448 442.387 110.774 441.571 109.338L393.016 137.402L441.629 165.672C442.409 164.257 442.796 162.615 442.797 160.762C442.797 160.762 442.797 129.819 442.791 114.343Z" fill="#390091"/>
<path d="M421.768 126.821V132.106H427.033V126.821H429.665V132.106H434.93V134.749H429.665V140.033H434.93V142.676H429.665V147.961H427.033V142.676H421.768V147.961H419.136V142.676H413.871V140.033H419.136V134.749H413.871V132.106H419.136V126.821H421.768ZM427.033 134.748H421.768V140.033H427.033V134.748Z" fill="white"/>
<path d="M393.082 100.287C406.814 100.287 418.804 107.773 425.226 118.901L425.163 118.793L409.006 128.132C405.823 122.722 399.987 119.07 393.293 118.995L393.082 118.994C382.874 118.994 374.598 127.301 374.598 137.549C374.594 140.778 375.435 143.953 377.035 146.754C380.222 152.338 386.211 156.104 393.082 156.104C399.996 156.104 406.019 152.29 409.189 146.647L409.112 146.782L425.245 156.164C418.893 167.197 407.068 174.661 393.496 174.809L393.082 174.812C379.306 174.812 367.283 167.279 360.877 156.092C357.75 150.631 355.961 144.3 355.961 137.549C355.961 116.97 372.58 100.286 393.082 100.286L393.082 100.287Z" fill="white"/>
</g>
</g>
<g filter="url(#filter1_i_1611_9602)">
<rect x="706.367" y="279.938" width="165.946" height="166.066" rx="9.48252" fill="#0B1033" fill-opacity="0.01"/>
<rect x="707.553" y="281.123" width="163.575" height="163.695" rx="8.2972" stroke="#7A33E9" stroke-width="2.37063"/>
<path d="M837.055 347.589C834.903 361.07 828.033 373.35 817.669 382.245C807.305 391.14 794.118 396.074 780.455 396.169C777.687 396.275 774.916 396.107 772.181 395.667C766.463 394.697 761.25 391.797 757.413 387.452C753.576 383.106 751.346 377.578 751.095 371.789C751.151 365.332 753.745 359.156 758.319 354.593C762.892 350.031 769.078 347.448 775.542 347.403C782.005 347.357 788.227 349.852 792.865 354.35C797.502 358.847 800.184 364.986 800.331 371.441C800.434 375.519 798.666 379.095 795.033 379.198C791.15 379.198 789.331 376.431 789.331 372.701V362.338C789.332 360.663 788.67 359.054 787.489 357.864C786.308 356.674 784.704 355.998 783.026 355.985H774.33C771.801 355.968 769.308 356.584 767.078 357.777C764.849 358.97 762.954 360.703 761.568 362.816C760.181 364.93 759.347 367.357 759.141 369.875C758.935 372.393 759.364 374.923 760.389 377.233C761.414 379.543 763.002 381.56 765.008 383.099C767.014 384.638 769.374 385.65 771.873 386.044C774.372 386.436 776.929 386.197 779.311 385.348C781.694 384.499 783.825 383.068 785.511 381.184L785.815 380.731L786.119 381.234C787.165 382.653 788.546 383.792 790.139 384.55C791.732 385.308 793.487 385.661 795.25 385.577C798.391 385.349 801.319 383.904 803.408 381.549C805.497 379.194 806.581 376.117 806.43 372.974C806.461 370.277 806.158 367.587 805.529 364.964C803.917 357.555 799.615 351.004 793.455 346.575C787.295 342.147 779.711 340.153 772.167 340.978C764.622 341.804 757.65 345.39 752.596 351.046C747.541 356.703 744.761 364.028 744.792 371.61C744.889 379.65 748.101 387.34 753.755 393.063C759.408 398.786 767.062 402.097 775.108 402.301C775.108 402.301 777.385 402.508 779.953 402.449C792.432 402.37 804.63 398.734 815.113 391.969C815.262 391.865 815.411 392.072 815.312 392.223C810.209 397.715 803.968 402.03 797.025 404.866C790.081 407.703 782.602 408.993 775.109 408.648C770.21 408.737 765.344 407.833 760.804 405.992C756.264 404.151 752.145 401.41 748.695 397.935C745.244 394.459 742.534 390.322 740.727 385.772C738.921 381.222 738.056 376.353 738.184 371.46C738.187 365.627 739.551 359.874 742.169 354.659C744.787 349.445 748.586 344.912 753.265 341.421C759.553 336.795 767.151 334.29 774.96 334.266H786.631C791.19 334.263 795.698 333.311 799.869 331.472C804.04 329.632 807.781 326.945 810.855 323.582C810.92 323.51 811.006 323.461 811.101 323.441C811.196 323.421 811.295 323.431 811.384 323.469C811.473 323.508 811.548 323.574 811.597 323.657C811.647 323.741 811.669 323.838 811.661 323.936C811.167 329.176 809.42 334.221 806.569 338.647C806.527 338.724 806.508 338.812 806.514 338.899C806.521 338.987 806.553 339.07 806.607 339.14C806.66 339.209 806.732 339.262 806.814 339.291C806.897 339.32 806.986 339.325 807.071 339.305C812.459 338.089 817.485 335.627 821.746 332.117C826.008 328.606 829.384 324.146 831.605 319.094C831.662 319.004 831.739 318.929 831.832 318.876C831.925 318.823 832.03 318.796 832.137 318.796C832.244 318.796 832.349 318.823 832.442 318.876C832.534 318.929 832.612 319.004 832.668 319.094C837.242 327.847 838.785 337.868 837.055 347.589ZM775.078 362.209C773.735 362.209 772.41 362.506 771.196 363.079C769.982 363.652 768.911 364.487 768.059 365.524C767.208 366.561 766.597 367.773 766.271 369.074C765.944 370.375 765.911 371.732 766.173 373.047C766.524 374.806 767.388 376.422 768.658 377.691C769.927 378.959 771.545 379.823 773.306 380.173C774.623 380.435 775.981 380.401 777.283 380.075C778.585 379.749 779.799 379.139 780.836 378.288C781.874 377.437 782.71 376.367 783.284 375.155C783.857 373.943 784.155 372.618 784.154 371.277V362.811C784.146 362.649 784.078 362.496 783.963 362.381C783.849 362.267 783.695 362.199 783.533 362.19L775.078 362.209Z" fill="#933BFF"/>
</g>
<g filter="url(#filter2_i_1611_9602)">
<g clip-path="url(#clip1_1611_9602)">
<rect x="795.285" y="47.4385" width="165.946" height="166.066" rx="9.48252" fill="#060E2D" fill-opacity="0.01"/>
<g clip-path="url(#clip2_1611_9602)">
<path d="M836.85 178.96L828.48 77.2783L928.432 77.4827L919.583 178.96L878.834 190.689L836.85 178.96Z" fill="#E34F26"/>
<path d="M878.809 180.869V86.9619L919.969 87.0981L912.629 171.116L878.809 180.869Z" fill="#EF652A"/>
<path d="M908.657 110.42L909.823 98.0078H846.504L850.002 136.062H893.701L891.988 152.293L877.993 156.043L863.792 151.951L863.038 142.267H850.483L852.198 162.044L877.992 169.205L903.992 162.044L907.49 123.445H861.597L860.293 110.42H908.657Z" fill="white"/>
</g>
</g>
<rect x="796.47" y="48.6238" width="163.575" height="163.695" rx="8.2972" stroke="#FF6B00" stroke-width="2.37063"/>
</g>
<rect x="554.638" y="1.185" width="163.576" height="163.696" rx="8.295" stroke="#01E9F0" stroke-width="2.37"/>
<g filter="url(#filter3_i_1611_9602)">
<rect x="553.453" y="0.000976562" width="165.946" height="165.945" rx="11.8531" fill="#070F2F" fill-opacity="0.01"/>
</g>
<rect x="554.638" y="1.18629" width="163.575" height="163.575" rx="10.6678" stroke="#01E9F0" stroke-opacity="0.01" stroke-width="2.37063"/>
<g clip-path="url(#clip3_1611_9602)">
<path d="M593.95 131.255L585.457 27.457L686.89 27.6656L677.909 131.255L636.556 143.229L593.95 131.255Z" fill="#1B73BA"/>
<path d="M636.555 133.207V37.3447L678.325 37.4838L670.877 123.251L636.555 133.207Z" fill="#1C88C7"/>
<path d="M667.948 49.5986H603.691L605.432 62.1288H635.924L605.92 75.0083L607.66 87.1213H651.867L650.265 104.038L635.298 106.962L621.723 103.481L620.678 93.8739H608.217L609.887 113.854L636.62 121.303L662.24 113.158L665.512 74.1027H638.43L667.947 61.8507L667.948 49.5986Z" fill="white"/>
</g>
<g filter="url(#filter4_i_1611_9602)">
<rect x="395.816" y="279.949" width="165.946" height="165.945" rx="11.8531" fill="#070F2F" fill-opacity="0.01"/>
</g>
<rect x="397.002" y="281.135" width="163.575" height="163.575" rx="10.6678" stroke="#1A7BFF" stroke-width="2.37063"/>
<g clip-path="url(#clip4_1611_9602)">
<path d="M437.452 347.843H437.517L438.314 348.921C441.14 346.829 444.237 345.318 447.615 344.383L447.623 344.381L447.63 344.379C451.049 343.392 454.518 343.119 458.047 343.557C461.522 343.996 464.803 345.091 467.899 346.848L467.907 346.853L467.916 346.858C470.998 348.553 473.608 350.791 475.756 353.58C477.465 355.828 478.789 358.293 479.728 360.982L479.728 360.982L479.731 360.991C480.67 363.625 481.195 366.338 481.306 369.137C481.36 371.372 481.113 373.547 480.566 375.666L480.562 375.683L480.558 375.7C480.061 377.84 479.316 379.897 478.322 381.874C477.331 383.786 476.09 385.595 474.595 387.301L474.592 387.304C473.165 388.939 471.516 390.388 469.639 391.65C465.714 394.286 461.415 395.792 456.72 396.177C452.024 396.505 447.562 395.684 443.31 393.711C441.268 392.723 439.364 391.518 437.596 390.093C435.885 388.61 434.368 386.965 433.044 385.157C431.773 383.344 430.693 381.393 429.805 379.3C428.983 377.172 428.464 374.995 428.245 372.764L428.243 372.745L428.241 372.725C428.187 372.294 428.132 371.886 428.078 371.502V371.499V371.497V371.494V371.491V371.489V371.486V371.483V371.48V371.478V371.475V371.472V371.47V371.467V371.464V371.462V371.459V371.456V371.453V371.451V371.448V371.445V371.443V371.44V371.437V371.434V371.432V371.429V371.426V371.424V371.421V371.418V371.415V371.413V371.41V371.407V371.405V371.402V371.399V371.396V371.394V371.391V371.388V371.386V371.383V371.38V371.377V371.375V371.372V371.369V371.367V371.364V371.361V371.359V371.356V371.353V371.35V371.348V371.345V371.342V371.34V371.337V371.334V371.331V371.329V371.326V371.323V371.321V371.318V371.315V371.312V371.31V371.307V371.304V371.302V371.299V371.296V371.293V371.291V371.288V371.285V371.283V371.28V371.277V371.275V371.272V371.269V371.266V371.264V371.261V371.258V371.256V371.253V371.25V371.247V371.245V371.242V371.239V371.237V371.234V371.231V371.228V371.226V371.223V371.22V371.218V371.215V371.212V371.209V371.207V371.204V371.201V371.199V371.196V371.193V371.19V371.188V371.185V371.182V371.18V371.177V371.174V371.172V371.169V371.166V371.163V371.161V371.158V371.155V371.153V371.15V371.147V371.144V371.142V371.139V371.136V371.134V371.131V371.128V371.125V371.123V371.12V371.117V371.115V371.112V371.109V371.106V371.104V371.101V371.098V371.096V371.093V371.09V371.088V371.085V371.082V371.079V371.077V371.074V371.071V371.069V371.066V371.063V371.06V371.058V371.055V371.052V371.05V371.047V371.044V371.041V371.039V371.036V371.033V371.031V371.028V371.025V371.022V371.02V371.017V371.014V371.012V371.009V371.006V371.004V371.001V370.998V370.995V370.993V370.99V370.987V370.985V370.982V370.979V370.976V370.974V370.971V370.968V370.966V370.963V370.96V370.957V370.955V370.952V370.949V370.947V370.944V370.941V370.938V370.936V370.933V370.93V370.928V370.925V370.922V370.92V370.917V370.914V370.911V370.909V370.906V370.903V370.901V370.898V370.895V370.892V370.89V370.887V370.884V370.882V370.879V370.876V370.873V370.871V370.868V370.865V370.863V370.86V370.857V370.854V370.852V370.849V370.846V370.844V370.841V370.838V370.836V370.833V370.83V370.827V370.825V370.822V370.819V370.817V370.814V370.811V370.808V370.806V370.803V370.8V370.798V370.795V370.792V370.789V370.787V370.784V370.781V370.779V370.776V370.773V370.77V370.768V370.765V370.762V370.76V370.757V370.754V370.752V370.749V370.746V370.743V370.741V370.738V370.735V370.733V370.73V370.727V370.724V370.722V370.719V370.716V370.714V370.711V370.708V370.705V370.703V370.7V370.697V370.695V370.692V370.689V370.686V370.684V370.681V370.678V370.676V370.673V370.67V370.668V370.665V370.662V370.659V370.657V370.654V370.651V370.649V370.646V370.643V370.64V370.638V370.635V370.632V370.63V370.627V370.624V370.621V370.619V370.616V370.613V370.611V370.608V370.605V370.602V370.6V370.597V370.594V370.592V370.589V370.586V370.584V370.581V370.578V370.575V370.573V370.57V370.567V370.565V370.562V370.559V370.556V370.554V370.551V370.548V370.546V370.543V370.54V370.537V370.535V370.532V370.529V370.527V370.524V370.521V370.518V370.516V370.513V370.51V370.508V370.505V370.502V370.5V370.497V370.494V370.491V370.489V370.486V370.483V370.481V370.478V370.475V370.472V370.47V370.467V370.464V370.462V370.459V370.456V370.453V370.451V370.448V370.445V370.443V370.44V370.437V370.434V370.432V370.429V370.426V370.424V370.421V370.418V370.415V370.413V370.41V370.407V370.405V370.402V370.399V370.397V370.394V370.391V370.388V370.386V370.383V370.38V370.378V370.375V370.372V370.369V370.367V370.364V370.361V370.359V370.356V370.353V370.35V370.348V370.345V370.342V370.34V370.337V370.334V370.331V370.329V370.326V370.323V370.321V370.318V370.315V370.312V370.31V370.307V370.304V370.302V370.299V370.296V370.294V370.291V370.288V370.285V370.283V370.28V370.277V370.275V370.272V370.269V370.266V370.264V370.261V370.258V370.256V370.253V370.25V370.247V370.245V370.242V370.239V370.237V370.234V370.231V370.228V370.226V370.223V370.22V370.218V369.09V333.534C428.078 332.409 428.453 331.509 429.221 330.746C429.99 329.982 430.9 329.606 432.041 329.606C433.182 329.606 434.092 329.982 434.86 330.746C435.628 331.509 436.004 332.409 436.004 333.534V347.026V347.757V347.843H437.452ZM446.678 386.61C447.207 386.9 447.738 387.163 448.271 387.399C448.382 387.454 448.49 387.508 448.592 387.559L448.66 387.592L448.73 387.619L450.127 388.139L450.211 387.92C453.261 388.698 456.389 388.639 459.568 387.746C461.702 387.183 463.658 386.275 465.427 385.021C467.252 383.769 468.798 382.234 470.059 380.42C472.581 376.907 473.688 372.935 473.377 368.565C473.249 366.242 472.678 364.036 471.665 361.958C470.664 359.847 469.347 357.977 467.715 356.355L467.694 356.335L467.673 356.315C466.85 355.56 465.962 354.898 465.011 354.329C464.154 353.783 463.242 353.27 462.276 352.79L462.248 352.776L462.219 352.763C459.825 351.699 457.327 351.164 454.735 351.164C452.157 351.164 449.668 351.665 447.281 352.664L447.266 352.67L447.251 352.677C444.867 353.737 442.787 355.207 441.023 357.085C439.263 358.958 437.937 361.089 437.054 363.47L437.051 363.479L437.047 363.489C435.914 366.679 435.661 369.945 436.291 373.263L436.294 373.276L436.296 373.289C436.986 376.591 438.433 379.53 440.628 382.085C442.322 384.079 444.341 385.594 446.678 386.61Z" fill="#0094FF" stroke="#0094FF" stroke-width="2.89742"/>
<path d="M496.679 358.66C497.781 358.66 498.722 358.998 499.356 359.475C499.99 359.953 500.249 360.503 500.249 360.991V393.756C500.249 394.245 499.99 394.795 499.356 395.272C498.722 395.75 497.781 396.088 496.679 396.088C495.578 396.088 494.636 395.75 494.002 395.272C493.368 394.795 493.109 394.245 493.109 393.756V360.991C493.109 360.503 493.368 359.953 494.002 359.475C494.636 358.998 495.578 358.66 496.679 358.66Z" fill="#0094FF" stroke="#0094FF" stroke-width="2.89742"/>
<path d="M500.249 347.017C500.249 348.962 498.66 350.555 496.679 350.555C494.698 350.555 493.109 348.962 493.109 347.017C493.109 345.072 494.698 343.479 496.679 343.479C498.66 343.479 500.249 345.072 500.249 347.017Z" fill="#0094FF" stroke="#0094FF" stroke-width="2.89742"/>
<path d="M517.637 343.479C519.502 343.479 520.771 344.822 520.771 346.193V393.37C520.771 394.741 519.502 396.084 517.637 396.084C515.772 396.084 514.503 394.741 514.503 393.37V346.193C514.503 344.822 515.772 343.479 517.637 343.479Z" fill="#0094FF" stroke="#0094FF" stroke-width="2.89742"/>
<path d="M510.007 358.743H525.718C528.008 358.743 529.507 360.316 529.507 361.847C529.507 363.377 528.008 364.951 525.718 364.951H510.007C507.717 364.951 506.218 363.377 506.218 361.847C506.218 360.316 507.717 358.743 510.007 358.743Z" fill="#0094FF" stroke="#0094FF" stroke-width="2.89742"/>
</g>
<g filter="url(#filter5_d_1611_9602)">
<g clip-path="url(#clip5_1611_9602)">
<g filter="url(#filter6_f_1611_9602)">
<path d="M262 637C262 693.885 220.139 740 168.5 740C116.861 740 75 693.885 75 637C75 580.115 116.861 534 168.5 534C220.139 534 262 580.115 262 637Z" fill="#1F3986" fill-opacity="0.9"/>
</g>
<path d="M73.1283 629.878C72.2981 635.083 69.6488 639.824 65.6517 643.258C61.6545 646.692 56.5688 648.597 51.2993 648.634C50.2319 648.675 49.1631 648.61 48.1086 648.44C45.9031 648.065 43.8928 646.946 42.4129 645.268C40.933 643.591 40.073 641.456 39.9764 639.221C39.9977 636.728 40.9982 634.344 42.7622 632.582C44.526 630.821 46.9118 629.824 49.4045 629.806C51.8972 629.789 54.2969 630.752 56.0854 632.488C57.8741 634.225 58.9083 636.595 58.9648 639.087C59.0047 640.661 58.3229 642.042 56.9215 642.082C55.4243 642.082 54.7224 641.013 54.7224 639.573V635.573C54.723 634.926 54.4677 634.305 54.0122 633.845C53.5567 633.386 52.9381 633.125 52.2911 633.12H48.9374C47.9619 633.113 47.0003 633.351 46.1404 633.812C45.2805 634.272 44.5498 634.941 44.0152 635.757C43.4804 636.573 43.1586 637.51 43.0792 638.482C42.9998 639.455 43.1653 640.431 43.5606 641.323C43.9559 642.215 44.5684 642.994 45.3421 643.588C46.1158 644.182 47.026 644.573 47.9897 644.725C48.9533 644.876 49.9396 644.784 50.8584 644.456C51.7772 644.128 52.5992 643.576 53.2493 642.848L53.3665 642.674L53.4839 642.868C53.8873 643.416 54.4198 643.856 55.0342 644.148C55.6485 644.441 56.3256 644.577 57.0053 644.545C58.2169 644.457 59.346 643.898 60.1516 642.989C60.9572 642.08 61.3755 640.892 61.3172 639.679C61.329 638.638 61.2123 637.599 60.9698 636.586C60.3478 633.726 58.689 631.197 56.3132 629.487C53.9373 627.777 51.0126 627.007 48.1029 627.326C45.1931 627.645 42.5044 629.029 40.555 631.213C38.6055 633.397 37.5334 636.225 37.5452 639.152C37.5827 642.256 38.8217 645.225 41.0021 647.435C43.1823 649.644 46.1341 650.923 49.2373 651.001C49.2373 651.001 50.1155 651.081 51.1057 651.058C55.9187 651.028 60.6231 649.624 64.6659 647.012C64.7235 646.972 64.781 647.052 64.7427 647.11C62.7744 649.231 60.3676 650.897 57.6898 651.992C55.012 653.087 52.1276 653.585 49.2376 653.452C47.3483 653.486 45.4716 653.137 43.7207 652.426C41.9699 651.715 40.3812 650.657 39.0505 649.316C37.7197 647.974 36.6745 646.376 35.9778 644.62C35.2811 642.863 34.9475 640.983 34.997 639.094C34.9979 636.842 35.5241 634.621 36.5337 632.608C37.5434 630.595 39.0086 628.845 40.8131 627.497C43.2381 625.711 46.1686 624.743 49.1803 624.735H53.6813C55.4396 624.733 57.1783 624.366 58.7868 623.656C60.3952 622.945 61.8382 621.908 63.0236 620.609C63.0487 620.582 63.082 620.563 63.1186 620.555C63.1553 620.547 63.1934 620.551 63.2277 620.566C63.2621 620.581 63.2908 620.606 63.3099 620.639C63.3292 620.671 63.3378 620.708 63.3347 620.746C63.1439 622.769 62.4704 624.717 61.3708 626.426C61.3545 626.456 61.3472 626.489 61.3497 626.523C61.3523 626.557 61.3646 626.589 61.3853 626.616C61.4057 626.643 61.4336 626.663 61.4654 626.674C61.4972 626.686 61.5316 626.688 61.5644 626.68C63.6422 626.21 65.5808 625.26 67.2242 623.905C68.8676 622.549 70.1699 620.827 71.0264 618.877C71.0482 618.842 71.0781 618.813 71.1138 618.793C71.1497 618.772 71.1902 618.762 71.2314 618.762C71.2726 618.762 71.3131 618.772 71.349 618.793C71.3848 618.813 71.4148 618.842 71.4363 618.877C73.2004 622.256 73.7954 626.125 73.1283 629.878ZM49.2257 635.523C48.7079 635.523 48.1966 635.637 47.7285 635.859C47.2604 636.08 46.8473 636.402 46.5188 636.802C46.1903 637.203 45.9547 637.671 45.829 638.173C45.7032 638.675 45.6904 639.199 45.7915 639.707C45.9266 640.386 46.26 641.01 46.7497 641.5C47.2393 641.989 47.8631 642.323 48.5423 642.458C49.0501 642.559 49.574 642.546 50.0762 642.42C50.5784 642.295 51.0464 642.059 51.4466 641.73C51.8467 641.402 52.1691 640.989 52.3903 640.521C52.6116 640.053 52.7263 639.541 52.7262 639.024V635.755C52.7231 635.692 52.6968 635.633 52.6525 635.589C52.6083 635.545 52.5491 635.519 52.4866 635.515L49.2257 635.523Z" fill="white"/>
</g>
<rect x="6.5" y="585.5" width="96" height="96" rx="7.5" stroke="#1A7BFF" stroke-opacity="0.3" shape-rendering="crispEdges"/>
</g>
<g filter="url(#filter7_d_1611_9602)">
<g clip-path="url(#clip6_1611_9602)">
<g filter="url(#filter8_f_1611_9602)">
<path d="M406 637C406 693.885 364.139 740 312.5 740C260.861 740 219 693.885 219 637C219 580.115 260.861 534 312.5 534C364.139 534 406 580.115 406 637Z" fill="#1F3986" fill-opacity="0.9"/>
</g>
<path d="M204.492 610H223V657.999H175V610H193.508C193.504 610.086 193.495 610.171 193.495 610.258C193.495 613.298 195.96 615.763 199 615.763C202.04 615.763 204.505 613.298 204.505 610.258C204.505 610.171 204.496 610.086 204.492 610ZM215.428 652.863H218.728L213.73 635.869H208.713L204.597 652.863H207.796L208.629 649.079H214.345L215.428 652.863ZM197.916 652.863H201.074L205.125 635.869H202.007L199.526 647.579H199.485L197.128 635.869H194.153L191.531 647.436H191.49L189.314 635.869H186.136L189.798 652.863H193.016L195.537 641.296H195.578L197.916 652.863ZM210.625 640.058H211.962L213.556 646.294H209.238L210.625 640.058Z" fill="white"/>
</g>
<rect x="150.5" y="585.5" width="96" height="96" rx="7.5" stroke="#1A7BFF" stroke-opacity="0.3" shape-rendering="crispEdges"/>
</g>
<g filter="url(#filter9_d_1611_9602)">
<g clip-path="url(#clip7_1611_9602)">
<g filter="url(#filter10_f_1611_9602)">
<path d="M550 637C550 693.885 508.139 740 456.5 740C404.861 740 363 693.885 363 637C363 580.115 404.861 534 456.5 534C508.139 534 550 580.115 550 637Z" fill="#1F3986" fill-opacity="0.9"/>
</g>
<path d="M320.434 644.413V638.852C321.563 639.533 322.686 640.04 323.801 640.373C324.931 640.706 325.995 640.873 326.994 640.873C328.211 640.873 329.167 640.706 329.862 640.373C330.571 640.04 330.926 639.533 330.926 638.852C330.926 638.418 330.767 638.056 330.448 637.766C330.13 637.476 329.717 637.223 329.21 637.006C328.718 636.789 328.175 636.593 327.581 636.419C326.987 636.245 326.415 636.05 325.865 635.833C324.981 635.5 324.199 635.145 323.518 634.768C322.852 634.377 322.287 633.928 321.824 633.421C321.375 632.915 321.028 632.328 320.781 631.662C320.55 630.996 320.434 630.206 320.434 629.294C320.434 628.048 320.702 626.977 321.238 626.079C321.788 625.181 322.512 624.45 323.41 623.885C324.322 623.305 325.358 622.885 326.516 622.625C327.689 622.35 328.906 622.212 330.166 622.212C331.151 622.212 332.15 622.292 333.164 622.451C334.177 622.596 335.177 622.813 336.162 623.103V628.403C335.293 627.896 334.358 627.52 333.359 627.274C332.374 627.013 331.404 626.883 330.448 626.883C329.999 626.883 329.572 626.926 329.167 627.013C328.776 627.085 328.428 627.201 328.124 627.361C327.82 627.505 327.581 627.701 327.407 627.947C327.233 628.179 327.146 628.447 327.146 628.751C327.146 629.156 327.277 629.504 327.537 629.794C327.798 630.083 328.138 630.337 328.558 630.554C328.978 630.757 329.442 630.945 329.949 631.119C330.47 631.278 330.984 631.445 331.491 631.618C332.403 631.937 333.229 632.285 333.967 632.661C334.706 633.038 335.336 633.479 335.857 633.986C336.393 634.493 336.799 635.087 337.074 635.768C337.364 636.448 337.508 637.259 337.508 638.201C337.508 639.518 337.219 640.648 336.639 641.589C336.075 642.516 335.314 643.277 334.358 643.87C333.417 644.45 332.324 644.87 331.078 645.13C329.847 645.406 328.566 645.543 327.233 645.543C324.786 645.543 322.519 645.167 320.434 644.413Z" fill="white"/>
<rect x="333.828" y="618.293" width="3.70747" height="27.8061" fill="#0B163C"/>
<path d="M342.811 636.667H346.489C347.602 636.667 348.594 636.543 349.464 636.294L350.415 633.364L353.073 625.176C352.87 624.855 352.639 624.552 352.379 624.266C351.015 622.755 349.018 622 346.39 622H337.145V644.334H342.811V636.667ZM347.679 627.138C348.212 627.675 348.478 628.392 348.478 629.292C348.478 630.198 348.244 630.917 347.775 631.448C347.261 632.038 346.315 632.334 344.936 632.334H342.811V626.333H344.952C346.237 626.333 347.146 626.602 347.679 627.138Z" fill="white"/>
<path d="M351.219 640.334L352.932 636H357.88L355.532 629.427L358.469 622L366.881 644.334H360.677L359.24 640.334H351.219Z" fill="white"/>
</g>
<rect x="294.5" y="585.5" width="96" height="96" rx="7.5" stroke="#1A7BFF" stroke-opacity="0.3" shape-rendering="crispEdges"/>
</g>
<g filter="url(#filter11_d_1611_9602)">
<g clip-path="url(#clip8_1611_9602)">
<g filter="url(#filter12_f_1611_9602)">
<path d="M694 637C694 693.885 652.139 740 600.5 740C548.861 740 507 693.885 507 637C507 580.115 548.861 534 600.5 534C652.139 534 694 580.115 694 637Z" fill="#1F3986" fill-opacity="0.9"/>
</g>
<path d="M498.324 639.788L499.711 636.282H503.715L501.815 630.963L504.191 624.953L510.997 643.025H505.978L504.815 639.788H498.324Z" fill="white"/>
<path d="M494.045 643.025L501.331 624.953L496.5 624.953L491.516 636.632L487.972 624.953H484.258L480.453 636.632L477.769 631.31L475.34 638.793L477.806 643.025H482.56L485.999 632.552L489.278 643.025H494.045Z" fill="white"/>
<path d="M467.585 636.821H470.561C471.462 636.821 472.265 636.721 472.969 636.52L473.738 634.149L475.889 627.523C475.725 627.263 475.538 627.018 475.328 626.786C474.223 625.564 472.608 624.953 470.481 624.953H463V643.025H467.585V636.821ZM471.524 629.111C471.955 629.545 472.171 630.126 472.171 630.854C472.171 631.587 471.981 632.168 471.602 632.598C471.186 633.076 470.42 633.315 469.305 633.315H467.585V628.46H469.318C470.357 628.46 471.093 628.677 471.524 629.111Z" fill="white"/>
</g>
<rect x="438.5" y="585.5" width="96" height="96" rx="7.5" stroke="#1A7BFF" stroke-opacity="0.3" shape-rendering="crispEdges"/>
</g>
<g filter="url(#filter13_d_1611_9602)">
<g clip-path="url(#clip9_1611_9602)">
<g filter="url(#filter14_f_1611_9602)">
<path d="M838 637C838 693.885 796.139 740 744.5 740C692.861 740 651 693.885 651 637C651 580.115 692.861 534 744.5 534C796.139 534 838 580.115 838 637Z" fill="#1F3986" fill-opacity="0.9"/>
</g>
<path d="M621.74 605C621.476 605.003 621.202 605.066 620.952 605.205C620.159 605.644 619.868 606.663 620.307 607.456L622.098 610.689C617.784 613.359 614.925 617.918 614.925 623.122C614.925 623.143 614.925 623.176 614.925 623.209C614.925 623.22 614.925 623.226 614.925 623.239C614.925 623.256 614.925 623.281 614.925 623.285V624.089C614.096 623.135 612.878 622.533 611.518 622.533C609.024 622.533 607 624.558 607 627.051V640.967C607 643.46 609.024 645.484 611.518 645.484C612.878 645.484 614.096 644.882 614.925 643.929V645.878C614.925 648.506 617.075 650.657 619.703 650.657H620.916V656.847C620.916 659.341 622.94 661.365 625.434 661.365C627.927 661.365 629.951 659.341 629.951 656.847V650.657H632.049V656.847C632.049 659.341 634.073 661.365 636.566 661.365C639.06 661.365 641.084 659.341 641.084 656.847V650.657H642.297C644.925 650.657 647.075 648.506 647.075 645.878V643.929C647.904 644.882 649.122 645.484 650.482 645.484C652.976 645.484 655 643.46 655 640.967V627.051C655 624.558 652.976 622.533 650.482 622.533C649.122 622.533 647.904 623.135 647.075 624.089V623.301V623.285C647.075 623.261 647.075 623.236 647.075 623.239C647.075 623.19 647.075 623.151 647.075 623.122C647.075 617.919 644.21 613.364 639.897 610.694L641.693 607.456C642.132 606.663 641.841 605.644 641.048 605.205C640.798 605.066 640.524 605.003 640.26 605C639.675 604.994 639.1 605.303 638.797 605.849L636.919 609.241C635.083 608.564 633.086 608.193 631 608.193C628.916 608.193 626.915 608.56 625.081 609.236L623.203 605.849C622.9 605.303 622.325 604.994 621.74 605Z" fill="#070D22"/>
<path d="M611.521 623.709C609.66 623.709 608.18 625.189 608.18 627.05V640.966C608.18 642.826 609.66 644.307 611.521 644.307C613.381 644.307 614.861 642.826 614.861 640.966V627.05C614.861 625.189 613.381 623.709 611.521 623.709ZM650.485 623.709C648.625 623.709 647.145 625.189 647.145 627.05V640.966C647.145 642.826 648.625 644.307 650.485 644.307C652.346 644.307 653.826 642.826 653.826 640.966V627.05C653.826 625.189 652.346 623.709 650.485 623.709Z" fill="white"/>
<path d="M625.435 639.591C623.574 639.591 622.094 641.071 622.094 642.932V656.848C622.094 658.708 623.574 660.189 625.435 660.189C627.295 660.189 628.775 658.708 628.775 656.848V642.932C628.775 641.071 627.295 639.591 625.435 639.591ZM636.567 639.591C634.707 639.591 633.227 641.071 633.227 642.932V656.848C633.227 658.708 634.707 660.189 636.567 660.189C638.428 660.189 639.908 658.708 639.908 656.848V642.932C639.908 641.071 638.428 639.591 636.567 639.591Z" fill="white"/>
<path d="M621.754 606.177C621.675 606.178 621.601 606.198 621.529 606.238C621.29 606.37 621.212 606.644 621.344 606.883L623.698 611.134C619.17 613.49 616.112 617.968 616.105 623.106H645.902C645.896 617.968 642.838 613.49 638.31 611.134L640.663 606.883C640.796 606.644 640.717 606.37 640.479 606.238C640.406 606.198 640.333 606.178 640.254 606.177C640.085 606.175 639.925 606.26 639.834 606.422L637.45 610.72C635.5 609.855 633.312 609.369 631.004 609.369C628.695 609.369 626.508 609.855 624.557 610.72L622.173 606.422C622.083 606.26 621.923 606.175 621.754 606.177ZM616.105 624.283V645.878C616.105 647.874 617.712 649.48 619.707 649.48H642.3C644.296 649.48 645.902 647.874 645.902 645.878V624.283H616.105Z" fill="white"/>
<path d="M624.122 615.167C623.442 615.167 622.879 615.73 622.879 616.41C622.879 617.09 623.442 617.653 624.122 617.653C624.802 617.653 625.365 617.09 625.365 616.41C625.365 615.73 624.802 615.167 624.122 615.167ZM637.874 615.167C637.194 615.167 636.631 615.73 636.631 616.41C636.631 617.09 637.194 617.653 637.874 617.653C638.555 617.653 639.118 617.09 639.118 616.41C639.118 615.73 638.555 615.167 637.874 615.167Z" fill="#070D22"/>
</g>
<rect x="582.5" y="585.5" width="96" height="96" rx="7.5" stroke="#1A7BFF" stroke-opacity="0.3" shape-rendering="crispEdges"/>
</g>
<g filter="url(#filter15_d_1611_9602)">
<g clip-path="url(#clip10_1611_9602)">
<g filter="url(#filter16_f_1611_9602)">
<path d="M982 637C982 693.885 940.139 740 888.5 740C836.861 740 795 693.885 795 637C795 580.115 836.861 534 888.5 534C940.139 534 982 580.115 982 637Z" fill="#1F3986" fill-opacity="0.9"/>
</g>
<g clip-path="url(#clip11_1611_9602)">
<path d="M764.091 610C756.869 610 751 615.869 751 623.091V644.908C751 652.131 756.869 658 764.091 658H785.908C793.131 658 799 652.131 799 644.909V623.091C799 615.869 793.131 610 785.909 610H764.091ZM760.402 626.44C761.165 626.44 761.734 626.985 761.734 627.705C761.734 628.415 761.165 628.96 760.402 628.96C759.628 628.96 759.062 628.414 759.062 627.705C759.062 626.986 759.628 626.44 760.402 626.44ZM771.77 627.062C775.752 627.062 778.206 629.842 778.206 634.304C778.206 638.755 775.773 641.559 771.77 641.559C767.744 641.559 765.301 638.765 765.301 634.304C765.301 629.832 767.799 627.062 771.77 627.062ZM785.877 627.062C788.68 627.062 790.73 628.697 790.86 631.032H788.766C788.559 629.755 787.458 628.961 785.843 628.961C784.141 628.961 783.018 629.766 783.018 631.021C783.018 632.003 783.738 632.571 785.549 632.996L787.066 633.366C789.914 634.032 791.081 635.178 791.081 637.261C791.081 639.912 789.029 641.57 785.745 641.57C782.68 641.57 780.618 639.989 780.465 637.513H782.594C782.779 638.822 784.065 639.66 785.908 639.66C787.633 639.66 788.898 638.766 788.898 637.534C788.898 636.486 788.101 635.855 786.268 635.418L784.479 634.992C781.981 634.402 780.836 633.192 780.836 631.163C780.836 628.699 782.856 627.062 785.877 627.062ZM771.77 629.059C769.162 629.059 767.506 631.097 767.506 634.304C767.506 637.5 769.108 639.563 771.77 639.563C774.399 639.563 776.014 637.501 776.014 634.304C776.015 631.098 774.399 629.059 771.77 629.059ZM759.378 630.794H761.429V641.234H759.378V630.794Z" fill="white"/>
</g>
</g>
<rect x="726.5" y="585.5" width="96" height="96" rx="7.5" stroke="#1A7BFF" stroke-opacity="0.3" shape-rendering="crispEdges"/>
</g>
<g filter="url(#filter17_d_1611_9602)">
<g clip-path="url(#clip12_1611_9602)">
<g filter="url(#filter18_f_1611_9602)">
<path d="M1126 637C1126 693.885 1084.14 740 1032.5 740C980.861 740 939 693.885 939 637C939 580.115 980.861 534 1032.5 534C1084.14 534 1126 580.115 1126 637Z" fill="#1F3986" fill-opacity="0.9"/>
</g>
<g clip-path="url(#clip13_1611_9602)">
<path fill-rule="evenodd" clip-rule="evenodd" d="M895.015 632.4L895 616.796L914.201 614.189V632.4H895.015H895.015ZM917.399 613.724L942.993 609.999V632.4H917.399L917.399 613.724ZM943 635.6L942.995 658.001L917.4 654.4V635.6H943L943 635.6ZM914.199 653.991L895.014 651.36V635.596H914.199V653.991Z" fill="white"/>
</g>
</g>
<rect x="870.5" y="585.5" width="96" height="96" rx="7.5" stroke="#1A7BFF" stroke-opacity="0.3" shape-rendering="crispEdges"/>
</g>
<g filter="url(#filter19_d_1611_9602)">
<g clip-path="url(#clip14_1611_9602)">
<g filter="url(#filter20_f_1611_9602)">
<path d="M1270 637C1270 693.885 1228.14 740 1176.5 740C1124.86 740 1083 693.885 1083 637C1083 580.115 1124.86 534 1176.5 534C1228.14 534 1270 580.115 1270 637Z" fill="#1F3986" fill-opacity="0.9"/>
</g>
<circle cx="1063" cy="634" r="24" fill="white"/>
<path d="M1065.84 625.697V625.343C1061.25 625.343 1065.4 628.35 1065.84 625.697ZM1067.97 624.105C1068.59 622.248 1071.77 622.071 1072.12 624.37H1071.24C1070.97 623.044 1068.76 622.955 1068.76 625.343C1068.76 626.67 1070.8 627.466 1071.24 625.874H1072.12C1071.59 628.792 1066.91 627.731 1067.97 624.105ZM1055.05 622.69H1055.94V623.486C1056.38 622.425 1058.33 622.336 1058.68 623.574C1059.3 622.248 1061.78 622.336 1061.78 624.193V627.466H1060.8V624.459C1060.8 623.132 1058.86 623.132 1058.86 624.547V627.466H1057.88V624.37C1057.67 623.543 1056.57 623.377 1056.12 624.105L1055.94 624.547V627.466H1055.05V622.69ZM1057.09 645.596C1052.93 645.596 1050.37 642.678 1050.37 637.99C1050.37 633.303 1052.93 630.473 1057.09 630.473C1061.25 630.473 1063.9 633.391 1063.9 637.99C1063.9 642.589 1061.33 645.596 1057.09 645.596ZM1064.87 627.466C1062.31 628.085 1061.95 624.813 1064.61 624.724L1065.84 624.636V624.282C1065.93 623.221 1064.16 623.132 1063.9 624.105H1063.01C1063.02 623.887 1063.08 623.673 1063.19 623.486C1063.9 622.248 1066.82 622.248 1066.82 624.193V627.466H1065.93V626.67C1065.82 626.871 1065.67 627.046 1065.49 627.184C1065.31 627.321 1065.1 627.417 1064.87 627.466ZM1070.89 645.596C1067.7 645.419 1065.49 643.916 1065.31 641.263H1067.44C1069.47 647.63 1080.35 640.82 1069.65 638.609C1067.97 638.256 1066.73 637.46 1066.2 636.487C1062.84 629.942 1075.84 627.996 1076.19 634.718H1074.16C1073.54 630.384 1065.49 632.772 1068.41 635.779C1069.65 637.017 1072.21 636.929 1074.07 637.725C1078.49 639.759 1076.37 645.773 1070.89 645.596ZM1057.09 632.33C1054.26 632.33 1052.49 634.541 1052.49 637.99C1052.49 641.44 1054.26 643.651 1057.09 643.651C1059.92 643.651 1061.78 641.528 1061.78 637.99C1061.78 634.453 1060.01 632.33 1057.09 632.33Z" fill="#070D22"/>
</g>
<rect x="1014.5" y="585.5" width="96" height="96" rx="7.5" stroke="#1A7BFF" stroke-opacity="0.3" shape-rendering="crispEdges"/>
</g>
<g filter="url(#filter21_d_1611_9602)">
<g clip-path="url(#clip15_1611_9602)">
<g filter="url(#filter22_f_1611_9602)">
<path d="M1414 637C1414 693.885 1372.14 740 1320.5 740C1268.86 740 1227 693.885 1227 637C1227 580.115 1268.86 534 1320.5 534C1372.14 534 1414 580.115 1414 637Z" fill="#1F3986" fill-opacity="0.9"/>
</g>
<path d="M1229.51 650.126C1227.86 649.451 1227.16 648.555 1227.23 647.219C1227.3 645.659 1226.41 644.516 1225.99 644.065C1226.24 643.095 1226.99 639.739 1225.99 636.824C1224.92 633.705 1221.66 628.94 1218.29 624.256C1216.91 622.333 1216.84 620.242 1216.77 617.821C1216.7 615.512 1216.61 612.895 1215.33 609.985C1213.93 606.817 1211.12 605 1207.62 605C1205.54 605 1203.4 605.65 1201.76 606.784C1198.39 609.108 1198.83 614.174 1199.13 617.526C1199.17 617.985 1199.21 618.419 1199.23 618.789C1199.43 622.072 1199.25 623.802 1199.01 624.328C1198.86 624.672 1198.12 625.65 1197.33 626.685C1196.52 627.756 1195.6 628.97 1194.84 630.102C1193.94 631.463 1193.21 633.543 1192.51 635.555C1191.99 637.028 1191.51 638.418 1191.03 639.25C1190.14 640.848 1190.36 642.339 1190.55 643.028C1190.21 643.264 1189.72 643.729 1189.3 644.605C1188.8 645.674 1187.78 646.248 1185.67 646.654C1184.7 646.853 1184.03 647.261 1183.68 647.868C1183.17 648.751 1183.45 649.86 1183.7 650.618C1184.08 651.733 1183.84 652.438 1183.42 653.719C1183.32 654.014 1183.21 654.349 1183.1 654.718C1182.92 655.301 1182.98 655.83 1183.29 656.292C1184.08 657.512 1186.41 657.942 1188.81 658.225C1190.24 658.395 1191.81 658.968 1193.32 659.522C1194.81 660.064 1196.34 660.625 1197.74 660.796C1197.95 660.822 1198.16 660.836 1198.36 660.836C1200.47 660.836 1201.42 659.438 1201.73 658.863C1202.48 658.709 1205.09 658.214 1207.78 658.148C1210.47 658.071 1213.07 658.602 1213.8 658.767C1214.03 659.21 1214.64 660.222 1215.62 660.743C1216.15 661.035 1216.9 661.203 1217.66 661.203H1217.66C1218.47 661.203 1220.02 661.01 1221.24 659.721C1222.47 658.426 1225.52 656.773 1227.75 655.566C1228.25 655.296 1228.71 655.044 1229.12 654.817C1230.37 654.122 1231.06 653.13 1231 652.095C1230.95 651.235 1230.38 650.48 1229.51 650.126ZM1201.78 649.877C1201.63 648.778 1200.21 647.689 1198.58 646.428C1197.24 645.397 1195.72 644.228 1195.31 643.238C1194.44 641.196 1195.12 637.605 1196.31 635.756C1196.9 634.83 1197.38 633.426 1197.84 632.069C1198.34 630.603 1198.86 629.087 1199.43 628.423C1200.35 627.387 1201.2 625.371 1201.35 623.783C1202.2 624.602 1203.54 625.641 1204.76 625.641C1204.95 625.641 1205.14 625.616 1205.31 625.567C1206.15 625.324 1207.39 624.609 1208.59 623.918C1209.62 623.322 1210.89 622.587 1211.37 622.52C1212.19 623.698 1216.96 634.25 1217.45 637.639C1217.83 640.32 1217.42 642.536 1217.22 643.404C1217.05 643.382 1216.86 643.364 1216.65 643.364C1215.32 643.364 1214.97 644.089 1214.88 644.521C1214.64 645.646 1214.62 649.242 1214.62 650.05C1214.14 650.66 1211.71 653.533 1208.22 654.05C1206.8 654.256 1205.48 654.361 1204.28 654.361C1203.26 654.361 1202.61 654.282 1202.34 654.241L1200.58 652.236C1201.27 651.895 1201.97 651.175 1201.78 649.877ZM1204.01 616.821C1203.95 616.844 1203.9 616.87 1203.85 616.897C1203.84 616.778 1203.83 616.658 1203.81 616.537C1203.62 615.436 1202.89 614.637 1202.07 614.637C1202.01 614.637 1201.95 614.641 1201.89 614.651C1201.4 614.732 1201.02 615.096 1200.81 615.612C1201 614.48 1201.64 613.642 1202.4 613.642C1203.29 613.642 1204.05 614.846 1204.05 616.272C1204.05 616.451 1204.03 616.63 1204.01 616.821ZM1210.95 617.67C1211.03 617.409 1211.08 617.127 1211.08 616.835C1211.08 615.542 1210.26 614.53 1209.21 614.53C1208.19 614.53 1207.35 615.564 1207.35 616.835C1207.35 616.921 1207.36 617.008 1207.37 617.095C1207.31 617.074 1207.26 617.054 1207.21 617.034C1207.09 616.677 1207.03 616.305 1207.03 615.926C1207.03 614.38 1208.02 613.123 1209.23 613.123C1210.45 613.123 1211.44 614.38 1211.44 615.926C1211.44 616.569 1211.26 617.182 1210.95 617.67ZM1210.06 620.678C1210.04 620.756 1210 620.791 1209.59 621.005C1209.38 621.113 1209.12 621.248 1208.8 621.445L1208.58 621.576C1207.71 622.103 1205.68 623.337 1205.12 623.41C1204.75 623.46 1204.52 623.315 1204 622.96C1203.88 622.88 1203.75 622.795 1203.62 622.709C1202.68 622.091 1202.07 621.411 1202 621.145C1202.31 620.908 1203.07 620.315 1203.46 619.963C1204.25 619.228 1205.05 618.735 1205.44 618.735C1205.46 618.735 1205.48 618.736 1205.5 618.74C1205.96 618.821 1207.1 619.277 1207.94 619.609C1208.32 619.763 1208.65 619.895 1208.89 619.979C1209.62 620.233 1210.01 620.557 1210.06 620.678ZM1216.68 655.021C1217.1 653.145 1217.57 650.592 1217.5 649.088C1217.48 648.746 1217.45 648.374 1217.42 648.014C1217.36 647.342 1217.28 646.342 1217.37 646.045C1217.38 646.038 1217.4 646.031 1217.42 646.025C1217.43 646.886 1217.61 648.601 1218.99 649.2C1219.39 649.378 1219.86 649.468 1220.37 649.468C1221.75 649.468 1223.27 648.794 1223.9 648.169C1224.27 647.802 1224.58 647.352 1224.79 646.995C1224.84 647.134 1224.87 647.315 1224.85 647.549C1224.77 648.818 1225.39 650.501 1226.56 651.121L1226.73 651.211C1227.15 651.43 1228.26 652.013 1228.28 652.289C1228.28 652.289 1228.27 652.322 1228.21 652.379C1227.93 652.634 1226.95 653.133 1226 653.617C1224.33 654.474 1222.42 655.446 1221.57 656.344C1220.36 657.611 1219 658.461 1218.18 658.461C1218.08 658.461 1217.99 658.449 1217.91 658.423C1217.02 658.145 1216.28 656.857 1216.68 655.021ZM1186.25 650.235C1186.16 649.808 1186.09 649.472 1186.17 649.146C1186.22 648.905 1187.42 648.646 1187.93 648.536C1188.64 648.381 1189.38 648.22 1189.86 647.926C1190.52 647.53 1190.87 646.799 1191.19 646.154C1191.41 645.688 1191.65 645.205 1191.92 645.047C1191.94 645.038 1191.96 645.027 1192.01 645.027C1192.53 645.027 1193.62 646.122 1194.25 647.102C1194.41 647.35 1194.71 647.845 1195.05 648.418C1196.08 650.131 1197.48 652.478 1198.21 653.265C1198.87 653.972 1199.94 655.331 1199.67 656.497C1199.48 657.401 1198.46 658.137 1198.22 658.3C1198.13 658.32 1198.02 658.33 1197.89 658.33C1196.49 658.33 1193.72 657.164 1192.23 656.537L1192.01 656.444C1191.17 656.095 1189.81 655.876 1188.5 655.663C1187.45 655.494 1186.02 655.262 1185.79 655.053C1185.59 654.837 1185.82 654.135 1186.01 653.516C1186.16 653.072 1186.3 652.612 1186.38 652.13C1186.5 651.362 1186.36 650.737 1186.25 650.235Z" fill="white"/>
</g>
<rect x="1158.5" y="585.5" width="96" height="96" rx="7.5" stroke="#1A7BFF" stroke-opacity="0.3" shape-rendering="crispEdges"/>
</g>
<defs>
<filter id="filter0_i_1611_9602" x="309.289" y="54.5684" width="165.945" height="170.808" filterUnits="userSpaceOnUse" color-interpolation-filters="sRGB">
<feFlood flood-opacity="0" result="BackgroundImageFix"/>
<feBlend mode="normal" in="SourceGraphic" in2="BackgroundImageFix" result="shape"/>
<feColorMatrix in="SourceAlpha" type="matrix" values="0 0 0 0 0 0 0 0 0 0 0 0 0 0 0 0 0 0 127 0" result="hardAlpha"/>
<feOffset dy="4.74126"/>
<feGaussianBlur stdDeviation="14.8164"/>
<feComposite in2="hardAlpha" operator="arithmetic" k2="-1" k3="1"/>
<feColorMatrix type="matrix" values="0 0 0 0 0.705882 0 0 0 0 0.341176 0 0 0 0 0.917647 0 0 0 1 0"/>
<feBlend mode="normal" in2="shape" result="effect1_innerShadow_1611_9602"/>
</filter>
<filter id="filter1_i_1611_9602" x="706.367" y="279.938" width="165.945" height="170.808" filterUnits="userSpaceOnUse" color-interpolation-filters="sRGB">
<feFlood flood-opacity="0" result="BackgroundImageFix"/>
<feBlend mode="normal" in="SourceGraphic" in2="BackgroundImageFix" result="shape"/>
<feColorMatrix in="SourceAlpha" type="matrix" values="0 0 0 0 0 0 0 0 0 0 0 0 0 0 0 0 0 0 127 0" result="hardAlpha"/>
<feOffset dy="4.74126"/>
<feGaussianBlur stdDeviation="14.8164"/>
<feComposite in2="hardAlpha" operator="arithmetic" k2="-1" k3="1"/>
<feColorMatrix type="matrix" values="0 0 0 0 0.478431 0 0 0 0 0.2 0 0 0 0 0.913725 0 0 0 1 0"/>
<feBlend mode="normal" in2="shape" result="effect1_innerShadow_1611_9602"/>
</filter>
<filter id="filter2_i_1611_9602" x="795.285" y="47.4385" width="165.945" height="170.808" filterUnits="userSpaceOnUse" color-interpolation-filters="sRGB">
<feFlood flood-opacity="0" result="BackgroundImageFix"/>
<feBlend mode="normal" in="SourceGraphic" in2="BackgroundImageFix" result="shape"/>
<feColorMatrix in="SourceAlpha" type="matrix" values="0 0 0 0 0 0 0 0 0 0 0 0 0 0 0 0 0 0 127 0" result="hardAlpha"/>
<feOffset dy="4.74126"/>
<feGaussianBlur stdDeviation="14.8164"/>
<feComposite in2="hardAlpha" operator="arithmetic" k2="-1" k3="1"/>
<feColorMatrix type="matrix" values="0 0 0 0 0.996078 0 0 0 0 0.419608 0 0 0 0 0 0 0 0 0.8 0"/>
<feBlend mode="normal" in2="shape" result="effect1_innerShadow_1611_9602"/>
</filter>
<filter id="filter3_i_1611_9602" x="553.453" y="0.000976562" width="165.945" height="170.687" filterUnits="userSpaceOnUse" color-interpolation-filters="sRGB">
<feFlood flood-opacity="0" result="BackgroundImageFix"/>
<feBlend mode="normal" in="SourceGraphic" in2="BackgroundImageFix" result="shape"/>
<feColorMatrix in="SourceAlpha" type="matrix" values="0 0 0 0 0 0 0 0 0 0 0 0 0 0 0 0 0 0 127 0" result="hardAlpha"/>
<feOffset dy="4.74126"/>
<feGaussianBlur stdDeviation="14.8164"/>
<feComposite in2="hardAlpha" operator="arithmetic" k2="-1" k3="1"/>
<feColorMatrix type="matrix" values="0 0 0 0 0 0 0 0 0 0.703766 0 0 0 0 0.725 0 0 0 0.8 0"/>
<feBlend mode="normal" in2="shape" result="effect1_innerShadow_1611_9602"/>
</filter>
<filter id="filter4_i_1611_9602" x="395.816" y="279.949" width="165.945" height="170.687" filterUnits="userSpaceOnUse" color-interpolation-filters="sRGB">
<feFlood flood-opacity="0" result="BackgroundImageFix"/>
<feBlend mode="normal" in="SourceGraphic" in2="BackgroundImageFix" result="shape"/>
<feColorMatrix in="SourceAlpha" type="matrix" values="0 0 0 0 0 0 0 0 0 0 0 0 0 0 0 0 0 0 127 0" result="hardAlpha"/>
<feOffset dy="4.74126"/>
<feGaussianBlur stdDeviation="14.8164"/>
<feComposite in2="hardAlpha" operator="arithmetic" k2="-1" k3="1"/>
<feColorMatrix type="matrix" values="0 0 0 0 0.101961 0 0 0 0 0.482353 0 0 0 0 1 0 0 0 1 0"/>
<feBlend mode="normal" in2="shape" result="effect1_innerShadow_1611_9602"/>
</filter>
<filter id="filter5_d_1611_9602" x="0" y="583" width="109" height="109" filterUnits="userSpaceOnUse" color-interpolation-filters="sRGB">
<feFlood flood-opacity="0" result="BackgroundImageFix"/>
<feColorMatrix in="SourceAlpha" type="matrix" values="0 0 0 0 0 0 0 0 0 0 0 0 0 0 0 0 0 0 127 0" result="hardAlpha"/>
<feOffset dy="4"/>
<feGaussianBlur stdDeviation="3"/>
<feComposite in2="hardAlpha" operator="out"/>
<feColorMatrix type="matrix" values="0 0 0 0 0.0156863 0 0 0 0 0.0392157 0 0 0 0 0.141176 0 0 0 0.25 0"/>
<feBlend mode="normal" in2="BackgroundImageFix" result="effect1_dropShadow_1611_9602"/>
<feBlend mode="normal" in="SourceGraphic" in2="effect1_dropShadow_1611_9602" result="shape"/>
</filter>
<filter id="filter6_f_1611_9602" x="-35" y="424" width="407" height="426" filterUnits="userSpaceOnUse" color-interpolation-filters="sRGB">
<feFlood flood-opacity="0" result="BackgroundImageFix"/>
<feBlend mode="normal" in="SourceGraphic" in2="BackgroundImageFix" result="shape"/>
<feGaussianBlur stdDeviation="55" result="effect1_foregroundBlur_1611_9602"/>
</filter>
<filter id="filter7_d_1611_9602" x="144" y="583" width="109" height="109" filterUnits="userSpaceOnUse" color-interpolation-filters="sRGB">
<feFlood flood-opacity="0" result="BackgroundImageFix"/>
<feColorMatrix in="SourceAlpha" type="matrix" values="0 0 0 0 0 0 0 0 0 0 0 0 0 0 0 0 0 0 127 0" result="hardAlpha"/>
<feOffset dy="4"/>
<feGaussianBlur stdDeviation="3"/>
<feComposite in2="hardAlpha" operator="out"/>
<feColorMatrix type="matrix" values="0 0 0 0 0.0156863 0 0 0 0 0.0392157 0 0 0 0 0.141176 0 0 0 0.25 0"/>
<feBlend mode="normal" in2="BackgroundImageFix" result="effect1_dropShadow_1611_9602"/>
<feBlend mode="normal" in="SourceGraphic" in2="effect1_dropShadow_1611_9602" result="shape"/>
</filter>
<filter id="filter8_f_1611_9602" x="109" y="424" width="407" height="426" filterUnits="userSpaceOnUse" color-interpolation-filters="sRGB">
<feFlood flood-opacity="0" result="BackgroundImageFix"/>
<feBlend mode="normal" in="SourceGraphic" in2="BackgroundImageFix" result="shape"/>
<feGaussianBlur stdDeviation="55" result="effect1_foregroundBlur_1611_9602"/>
</filter>
<filter id="filter9_d_1611_9602" x="288" y="583" width="109" height="109" filterUnits="userSpaceOnUse" color-interpolation-filters="sRGB">
<feFlood flood-opacity="0" result="BackgroundImageFix"/>
<feColorMatrix in="SourceAlpha" type="matrix" values="0 0 0 0 0 0 0 0 0 0 0 0 0 0 0 0 0 0 127 0" result="hardAlpha"/>
<feOffset dy="4"/>
<feGaussianBlur stdDeviation="3"/>
<feComposite in2="hardAlpha" operator="out"/>
<feColorMatrix type="matrix" values="0 0 0 0 0.0156863 0 0 0 0 0.0392157 0 0 0 0 0.141176 0 0 0 0.25 0"/>
<feBlend mode="normal" in2="BackgroundImageFix" result="effect1_dropShadow_1611_9602"/>
<feBlend mode="normal" in="SourceGraphic" in2="effect1_dropShadow_1611_9602" result="shape"/>
</filter>
<filter id="filter10_f_1611_9602" x="253" y="424" width="407" height="426" filterUnits="userSpaceOnUse" color-interpolation-filters="sRGB">
<feFlood flood-opacity="0" result="BackgroundImageFix"/>
<feBlend mode="normal" in="SourceGraphic" in2="BackgroundImageFix" result="shape"/>
<feGaussianBlur stdDeviation="55" result="effect1_foregroundBlur_1611_9602"/>
</filter>
<filter id="filter11_d_1611_9602" x="432" y="583" width="109" height="109" filterUnits="userSpaceOnUse" color-interpolation-filters="sRGB">
<feFlood flood-opacity="0" result="BackgroundImageFix"/>
<feColorMatrix in="SourceAlpha" type="matrix" values="0 0 0 0 0 0 0 0 0 0 0 0 0 0 0 0 0 0 127 0" result="hardAlpha"/>
<feOffset dy="4"/>
<feGaussianBlur stdDeviation="3"/>
<feComposite in2="hardAlpha" operator="out"/>
<feColorMatrix type="matrix" values="0 0 0 0 0.0156863 0 0 0 0 0.0392157 0 0 0 0 0.141176 0 0 0 0.25 0"/>
<feBlend mode="normal" in2="BackgroundImageFix" result="effect1_dropShadow_1611_9602"/>
<feBlend mode="normal" in="SourceGraphic" in2="effect1_dropShadow_1611_9602" result="shape"/>
</filter>
<filter id="filter12_f_1611_9602" x="397" y="424" width="407" height="426" filterUnits="userSpaceOnUse" color-interpolation-filters="sRGB">
<feFlood flood-opacity="0" result="BackgroundImageFix"/>
<feBlend mode="normal" in="SourceGraphic" in2="BackgroundImageFix" result="shape"/>
<feGaussianBlur stdDeviation="55" result="effect1_foregroundBlur_1611_9602"/>
</filter>
<filter id="filter13_d_1611_9602" x="576" y="583" width="109" height="109" filterUnits="userSpaceOnUse" color-interpolation-filters="sRGB">
<feFlood flood-opacity="0" result="BackgroundImageFix"/>
<feColorMatrix in="SourceAlpha" type="matrix" values="0 0 0 0 0 0 0 0 0 0 0 0 0 0 0 0 0 0 127 0" result="hardAlpha"/>
<feOffset dy="4"/>
<feGaussianBlur stdDeviation="3"/>
<feComposite in2="hardAlpha" operator="out"/>
<feColorMatrix type="matrix" values="0 0 0 0 0.0156863 0 0 0 0 0.0392157 0 0 0 0 0.141176 0 0 0 0.25 0"/>
<feBlend mode="normal" in2="BackgroundImageFix" result="effect1_dropShadow_1611_9602"/>
<feBlend mode="normal" in="SourceGraphic" in2="effect1_dropShadow_1611_9602" result="shape"/>
</filter>
<filter id="filter14_f_1611_9602" x="541" y="424" width="407" height="426" filterUnits="userSpaceOnUse" color-interpolation-filters="sRGB">
<feFlood flood-opacity="0" result="BackgroundImageFix"/>
<feBlend mode="normal" in="SourceGraphic" in2="BackgroundImageFix" result="shape"/>
<feGaussianBlur stdDeviation="55" result="effect1_foregroundBlur_1611_9602"/>
</filter>
<filter id="filter15_d_1611_9602" x="720" y="583" width="109" height="109" filterUnits="userSpaceOnUse" color-interpolation-filters="sRGB">
<feFlood flood-opacity="0" result="BackgroundImageFix"/>
<feColorMatrix in="SourceAlpha" type="matrix" values="0 0 0 0 0 0 0 0 0 0 0 0 0 0 0 0 0 0 127 0" result="hardAlpha"/>
<feOffset dy="4"/>
<feGaussianBlur stdDeviation="3"/>
<feComposite in2="hardAlpha" operator="out"/>
<feColorMatrix type="matrix" values="0 0 0 0 0.0156863 0 0 0 0 0.0392157 0 0 0 0 0.141176 0 0 0 0.25 0"/>
<feBlend mode="normal" in2="BackgroundImageFix" result="effect1_dropShadow_1611_9602"/>
<feBlend mode="normal" in="SourceGraphic" in2="effect1_dropShadow_1611_9602" result="shape"/>
</filter>
<filter id="filter16_f_1611_9602" x="685" y="424" width="407" height="426" filterUnits="userSpaceOnUse" color-interpolation-filters="sRGB">
<feFlood flood-opacity="0" result="BackgroundImageFix"/>
<feBlend mode="normal" in="SourceGraphic" in2="BackgroundImageFix" result="shape"/>
<feGaussianBlur stdDeviation="55" result="effect1_foregroundBlur_1611_9602"/>
</filter>
<filter id="filter17_d_1611_9602" x="864" y="583" width="109" height="109" filterUnits="userSpaceOnUse" color-interpolation-filters="sRGB">
<feFlood flood-opacity="0" result="BackgroundImageFix"/>
<feColorMatrix in="SourceAlpha" type="matrix" values="0 0 0 0 0 0 0 0 0 0 0 0 0 0 0 0 0 0 127 0" result="hardAlpha"/>
<feOffset dy="4"/>
<feGaussianBlur stdDeviation="3"/>
<feComposite in2="hardAlpha" operator="out"/>
<feColorMatrix type="matrix" values="0 0 0 0 0.0156863 0 0 0 0 0.0392157 0 0 0 0 0.141176 0 0 0 0.25 0"/>
<feBlend mode="normal" in2="BackgroundImageFix" result="effect1_dropShadow_1611_9602"/>
<feBlend mode="normal" in="SourceGraphic" in2="effect1_dropShadow_1611_9602" result="shape"/>
</filter>
<filter id="filter18_f_1611_9602" x="829" y="424" width="407" height="426" filterUnits="userSpaceOnUse" color-interpolation-filters="sRGB">
<feFlood flood-opacity="0" result="BackgroundImageFix"/>
<feBlend mode="normal" in="SourceGraphic" in2="BackgroundImageFix" result="shape"/>
<feGaussianBlur stdDeviation="55" result="effect1_foregroundBlur_1611_9602"/>
</filter>
<filter id="filter19_d_1611_9602" x="1008" y="583" width="109" height="109" filterUnits="userSpaceOnUse" color-interpolation-filters="sRGB">
<feFlood flood-opacity="0" result="BackgroundImageFix"/>
<feColorMatrix in="SourceAlpha" type="matrix" values="0 0 0 0 0 0 0 0 0 0 0 0 0 0 0 0 0 0 127 0" result="hardAlpha"/>
<feOffset dy="4"/>
<feGaussianBlur stdDeviation="3"/>
<feComposite in2="hardAlpha" operator="out"/>
<feColorMatrix type="matrix" values="0 0 0 0 0.0156863 0 0 0 0 0.0392157 0 0 0 0 0.141176 0 0 0 0.25 0"/>
<feBlend mode="normal" in2="BackgroundImageFix" result="effect1_dropShadow_1611_9602"/>
<feBlend mode="normal" in="SourceGraphic" in2="effect1_dropShadow_1611_9602" result="shape"/>
</filter>
<filter id="filter20_f_1611_9602" x="973" y="424" width="407" height="426" filterUnits="userSpaceOnUse" color-interpolation-filters="sRGB">
<feFlood flood-opacity="0" result="BackgroundImageFix"/>
<feBlend mode="normal" in="SourceGraphic" in2="BackgroundImageFix" result="shape"/>
<feGaussianBlur stdDeviation="55" result="effect1_foregroundBlur_1611_9602"/>
</filter>
<filter id="filter21_d_1611_9602" x="1152" y="583" width="109" height="109" filterUnits="userSpaceOnUse" color-interpolation-filters="sRGB">
<feFlood flood-opacity="0" result="BackgroundImageFix"/>
<feColorMatrix in="SourceAlpha" type="matrix" values="0 0 0 0 0 0 0 0 0 0 0 0 0 0 0 0 0 0 127 0" result="hardAlpha"/>
<feOffset dy="4"/>
<feGaussianBlur stdDeviation="3"/>
<feComposite in2="hardAlpha" operator="out"/>
<feColorMatrix type="matrix" values="0 0 0 0 0.0156863 0 0 0 0 0.0392157 0 0 0 0 0.141176 0 0 0 0.25 0"/>
<feBlend mode="normal" in2="BackgroundImageFix" result="effect1_dropShadow_1611_9602"/>
<feBlend mode="normal" in="SourceGraphic" in2="effect1_dropShadow_1611_9602" result="shape"/>
</filter>
<filter id="filter22_f_1611_9602" x="1117" y="424" width="407" height="426" filterUnits="userSpaceOnUse" color-interpolation-filters="sRGB">
<feFlood flood-opacity="0" result="BackgroundImageFix"/>
<feBlend mode="normal" in="SourceGraphic" in2="BackgroundImageFix" result="shape"/>
<feGaussianBlur stdDeviation="55" result="effect1_foregroundBlur_1611_9602"/>
</filter>
<linearGradient id="paint0_linear_1611_9602" x1="338.233" y1="176.389" x2="494.465" y2="357.499" gradientUnits="userSpaceOnUse">
<stop offset="0.262861" stop-color="#C960FF"/>
<stop offset="0.629166" stop-color="#1A7BFF" stop-opacity="0.2"/>
</linearGradient>
<linearGradient id="paint1_linear_1611_9602" x1="900.157" y1="180.294" x2="753.344" y2="358.947" gradientUnits="userSpaceOnUse">
<stop stop-color="#FF6B00"/>
<stop offset="0.623958" stop-color="#7A33E9" stop-opacity="0.2"/>
</linearGradient>
<linearGradient id="paint2_linear_1611_9602" x1="85.8046" y1="687.403" x2="663.136" y2="351.851" gradientUnits="userSpaceOnUse">
<stop offset="0.244876" stop-color="#081130" stop-opacity="0"/>
<stop offset="0.633045" stop-color="#1A7BFF"/>
</linearGradient>
<linearGradient id="paint3_linear_1611_9602" x1="1183.98" y1="670.891" x2="651.54" y2="277.436" gradientUnits="userSpaceOnUse">
<stop offset="0.244876" stop-color="#060F2E" stop-opacity="0"/>
<stop offset="0.633045" stop-color="#7A33E9"/>
</linearGradient>
<linearGradient id="paint4_linear_1611_9602" x1="576.383" y1="70.8828" x2="882.015" y2="194.473" gradientUnits="userSpaceOnUse">
<stop offset="0.363924" stop-color="#01E9F0"/>
<stop offset="0.764583" stop-color="#FF6500" stop-opacity="0.2"/>
</linearGradient>
<linearGradient id="paint5_linear_1611_9602" x1="683.403" y1="31.2568" x2="372.201" y2="162.618" gradientUnits="userSpaceOnUse">
<stop offset="0.310709" stop-color="#02D9E3"/>
<stop offset="0.701419" stop-color="#C960FF" stop-opacity="0.23"/>
</linearGradient>
<clipPath id="clip0_1611_9602">
<rect width="100.753" height="113.791" fill="white" transform="translate(342.484 80.6572)"/>
</clipPath>
<clipPath id="clip1_1611_9602">
<rect x="795.285" y="47.4385" width="165.946" height="166.066" rx="9.48252" fill="white"/>
</clipPath>
<clipPath id="clip2_1611_9602">
<rect width="99.9519" height="113.791" fill="white" transform="translate(828.477 77.0859)"/>
</clipPath>
<clipPath id="clip3_1611_9602">
<rect width="101.433" height="116.162" fill="white" transform="translate(585.457 27.2627)"/>
</clipPath>
<clipPath id="clip4_1611_9602">
<rect width="104.309" height="104.308" fill="white" transform="translate(426.629 310.771)"/>
</clipPath>
<clipPath id="clip5_1611_9602">
<rect x="6" y="585" width="97" height="97" rx="8" fill="white"/>
</clipPath>
<clipPath id="clip6_1611_9602">
<rect x="150" y="585" width="97" height="97" rx="8" fill="white"/>
</clipPath>
<clipPath id="clip7_1611_9602">
<rect x="294" y="585" width="97" height="97" rx="8" fill="white"/>
</clipPath>
<clipPath id="clip8_1611_9602">
<rect x="438" y="585" width="97" height="97" rx="8" fill="white"/>
</clipPath>
<clipPath id="clip9_1611_9602">
<rect x="582" y="585" width="97" height="97" rx="8" fill="white"/>
</clipPath>
<clipPath id="clip10_1611_9602">
<rect x="726" y="585" width="97" height="97" rx="8" fill="white"/>
</clipPath>
<clipPath id="clip11_1611_9602">
<rect width="48" height="48" fill="white" transform="translate(751 610)"/>
</clipPath>
<clipPath id="clip12_1611_9602">
<rect x="870" y="585" width="97" height="97" rx="8" fill="white"/>
</clipPath>
<clipPath id="clip13_1611_9602">
<rect width="48" height="48" fill="white" transform="translate(895 610)"/>
</clipPath>
<clipPath id="clip14_1611_9602">
<rect x="1014" y="585" width="97" height="97" rx="8" fill="white"/>
</clipPath>
<clipPath id="clip15_1611_9602">
<rect x="1158" y="585" width="97" height="97" rx="8" fill="white"/>
</clipPath>
</defs>
</svg>
