<svg width="283" height="117" viewBox="0 0 283 117" fill="none" xmlns="http://www.w3.org/2000/svg">
<path d="M61.6938 116.44C57.8538 116.44 54.8138 115.373 52.5738 113.24C50.4404 111.107 49.3738 108.013 49.3738 103.96V94.84H13.5338C9.58708 94.84 6.44042 93.9867 4.09375 92.28C1.74708 90.4667 0.57375 87.7467 0.57375 84.12C0.57375 81.9867 1.05375 79.8 2.01375 77.56C2.97375 75.32 4.68042 72.5467 7.13375 69.24L48.5738 8.91999C50.3871 6.25333 52.4138 4.22666 54.6538 2.83999C56.8938 1.45333 59.4538 0.759993 62.3338 0.759993C65.7471 0.759993 68.4671 1.82666 70.4938 3.96C72.6271 5.98667 73.6938 9.08 73.6938 13.24V75.32H79.6138C83.1338 75.32 85.8004 76.1733 87.6138 77.88C89.4271 79.48 90.3338 81.88 90.3338 85.08C90.3338 88.1733 89.4271 90.5733 87.6138 92.28C85.9071 93.9867 83.2404 94.84 79.6138 94.84H73.6938V103.96C73.6938 108.013 72.6271 111.107 70.4938 113.24C68.4671 115.373 65.5338 116.44 61.6938 116.44ZM49.3738 75.32V31.32H54.0138L19.9338 81.4V75.32H49.3738ZM140.031 116.76C126.378 116.76 115.925 111.693 108.671 101.56C101.525 91.32 97.9513 76.8667 97.9513 58.2C97.9513 45.72 99.5513 35.2133 102.751 26.68C106.058 18.04 110.805 11.5333 116.991 7.16C123.285 2.68 130.965 0.439997 140.031 0.439997C153.791 0.439997 164.245 5.4 171.391 15.32C178.538 25.1333 182.111 39.4267 182.111 58.2C182.111 70.68 180.458 81.2933 177.151 90.04C173.951 98.68 169.258 105.293 163.071 109.88C156.885 114.467 149.205 116.76 140.031 116.76ZM140.031 96.6C146.218 96.6 150.805 93.56 153.791 87.48C156.778 81.2933 158.271 71.5333 158.271 58.2C158.271 44.8667 156.778 35.2667 153.791 29.4C150.805 23.5333 146.218 20.6 140.031 20.6C133.845 20.6 129.258 23.5333 126.271 29.4C123.285 35.2667 121.791 44.8667 121.791 58.2C121.791 71.5333 123.285 81.2933 126.271 87.48C129.258 93.56 133.845 96.6 140.031 96.6ZM253.569 116.44C249.729 116.44 246.689 115.373 244.449 113.24C242.315 111.107 241.249 108.013 241.249 103.96V94.84H205.409C201.462 94.84 198.315 93.9867 195.969 92.28C193.622 90.4667 192.449 87.7467 192.449 84.12C192.449 81.9867 192.929 79.8 193.889 77.56C194.849 75.32 196.555 72.5467 199.009 69.24L240.449 8.91999C242.262 6.25333 244.289 4.22666 246.529 2.83999C248.769 1.45333 251.329 0.759993 254.209 0.759993C257.622 0.759993 260.342 1.82666 262.369 3.96C264.502 5.98667 265.569 9.08 265.569 13.24V75.32H271.489C275.009 75.32 277.675 76.1733 279.489 77.88C281.302 79.48 282.209 81.88 282.209 85.08C282.209 88.1733 281.302 90.5733 279.489 92.28C277.782 93.9867 275.115 94.84 271.489 94.84H265.569V103.96C265.569 108.013 264.502 111.107 262.369 113.24C260.342 115.373 257.409 116.44 253.569 116.44ZM241.249 75.32V31.32H245.889L211.809 81.4V75.32H241.249Z" fill="#ADD0FF"/>
</svg>
