<svg width="1920" height="84" viewBox="0 0 1920 84" fill="none" xmlns="http://www.w3.org/2000/svg">
<path d="M1069.9 0H1057.8V84H1069.9V0Z" fill="#9E9E9E"/>
<path d="M1057.82 6.20605H1011.83V76.932H1057.82V6.20605Z" fill="#9E9E9E"/>
<path opacity="0.2" d="M1057.81 6.21729V76.9433H1046.38L1041.26 6.21729H1057.81Z" fill="#2E2E2E"/>
<path d="M1011.83 29.4779H976.556C974.035 29.4779 972 27.4436 972 24.9497V23.4442C972 20.9388 974.047 18.9161 976.556 18.9161H1011.83V29.4779Z" fill="#DDDDDD"/>
<path d="M1011.82 18.9048H999.439V29.4665H1011.82V18.9048Z" fill="#9E9E9E"/>
<path d="M1011.83 64.244H976.556C974.035 64.244 972 62.2098 972 59.7158V58.2103C972 55.7049 974.047 53.6822 976.556 53.6822H1011.83V64.244Z" fill="#DDDDDD"/>
<path d="M1011.82 53.6709H999.439V64.2327H1011.82V53.6709Z" fill="#9E9E9E"/>
<path d="M1141.37 34.8232H1105.44V48.9248H1141.37V34.8232Z" fill="#9E9E9E"/>
<path d="M1920 34H1105V50H1920V34Z" fill="#E9E9E9"/>
<path opacity="0.2" d="M1118.06 34.8345L1116.88 48.936H1105.44V34.8345H1118.06Z" fill="#2E2E2E"/>
<path d="M1098.33 74.2774H1069.9V8.87256H1098.33C1102.26 8.87256 1105.44 12.0331 1105.44 15.9406V67.2094C1105.44 71.1054 1102.25 74.2774 1098.33 74.2774Z" fill="#9E9E9E"/>
<path opacity="0.2" d="M1085.02 8.87256L1079.91 74.2774H1069.9V8.87256H1085.02Z" fill="#2E2E2E"/>
<g opacity="0.2">
<path opacity="0.2" d="M1082.38 22.0894H1080.11V61.0495H1082.38V22.0894Z" fill="#2E2E2E"/>
<path opacity="0.2" d="M1088.81 22.0894H1086.54V61.0495H1088.81V22.0894Z" fill="#2E2E2E"/>
<path opacity="0.2" d="M1095.24 22.0894H1092.97V61.0495H1095.24V22.0894Z" fill="#2E2E2E"/>
</g>
<path d="M904.052 84H916V0H904.052V84Z" fill="#9E9E9E"/>
<path d="M904.05 3.98438H858.646V79.1457H904.05V3.98438Z" fill="#9E9E9E"/>
<path opacity="0.2" d="M904.051 3.98438V79.1457H892.775L887.712 3.98438H904.051Z" fill="#2E2E2E"/>
<path d="M793.616 48.3999L823.551 48.3999V35.011H793.616V48.3999Z" fill="#9E9E9E"/>
<path d="M794 35H0V48H794V35Z" fill="#E9E9E9"/>
<path opacity="0.2" d="M813.039 48.3951L814.022 35.0171H823.551V48.3951H813.039Z" fill="#2E2E2E"/>
<path d="M830.22 9.29785H858.646V74.7039H830.22C826.534 74.7039 823.553 71.7031 823.553 67.9931V16.0087C823.553 12.2986 826.534 9.29785 830.22 9.29785Z" fill="#9E9E9E"/>
<path opacity="0.2" d="M843.707 74.693L848.77 9.29785H858.647V74.693H843.707Z" fill="#2E2E2E"/>
<g opacity="0.2">
<path opacity="0.2" d="M846.323 61.4736H848.567V22.5181H846.323V61.4736Z" fill="#2E2E2E"/>
<path opacity="0.2" d="M839.981 61.4736H842.225V22.5181H839.981V61.4736Z" fill="#2E2E2E"/>
<path opacity="0.2" d="M833.629 61.4736H835.873V22.5181H833.629V61.4736Z" fill="#2E2E2E"/>
</g>
</svg>
