<svg width="28" height="28" viewBox="0 0 28 28" fill="none" xmlns="http://www.w3.org/2000/svg">
<path d="M13.9875 0.384279C6.25938 0.381154 0 6.6374 0 14.3593C0 20.4655 3.91563 25.6562 9.36875 27.5624C10.1031 27.7468 9.99063 27.2249 9.99063 26.8687V24.4468C5.75 24.9437 5.57813 22.1374 5.29375 21.6687C4.71875 20.6874 3.35938 20.4374 3.76563 19.9687C4.73125 19.4718 5.71563 20.0937 6.85625 21.778C7.68125 22.9999 9.29063 22.7937 10.1063 22.5905C10.2844 21.8562 10.6656 21.1999 11.1906 20.6905C6.79688 19.903 4.96563 17.2218 4.96563 14.0343C4.96563 12.4874 5.475 11.0655 6.475 9.91865C5.8375 8.02803 6.53438 6.40928 6.62813 6.16865C8.44375 6.00615 10.3313 7.46865 10.4781 7.58428C11.5094 7.30615 12.6875 7.15928 14.0063 7.15928C15.3313 7.15928 16.5125 7.3124 17.5531 7.59365C17.9063 7.3249 19.6563 6.06865 21.3438 6.22178C21.4344 6.4624 22.1156 8.04365 21.5156 9.90928C22.5281 11.0593 23.0438 12.4937 23.0438 14.0437C23.0438 17.2374 21.2 19.9218 16.7938 20.6968C17.1712 21.0679 17.4708 21.5106 17.6753 21.9988C17.8797 22.4871 17.9848 23.0112 17.9844 23.5405V27.0562C18.0094 27.3374 17.9844 27.6155 18.4531 27.6155C23.9875 25.7499 27.9719 20.5218 27.9719 14.3624C27.9719 6.6374 21.7094 0.384279 13.9875 0.384279Z" fill="#24292F"/>
</svg>
