<svg width="56" height="56" viewBox="0 0 56 56" fill="none" xmlns="http://www.w3.org/2000/svg">
<path d="M27.9781 4.17258C14.4539 4.16711 3.5 15.1155 3.5 28.6288C3.5 39.3148 10.3523 48.3984 19.8953 51.7343C21.1805 52.0569 20.9836 51.1437 20.9836 50.5202V46.2819C13.5625 47.1515 13.2617 42.2405 12.7641 41.4202C11.7578 39.703 9.37891 39.2655 10.0898 38.4452C11.7797 37.5757 13.5023 38.664 15.4984 41.6116C16.9422 43.7499 19.7586 43.389 21.1859 43.0335C21.4977 41.7484 22.1648 40.5999 23.0836 39.7085C15.3945 38.3304 12.1898 33.6382 12.1898 28.0601C12.1898 25.353 13.0813 22.8648 14.8313 20.8577C13.7156 17.5491 14.9352 14.7163 15.0992 14.2952C18.2766 14.0109 21.5797 16.5702 21.8367 16.7726C23.6414 16.2859 25.7031 16.0288 28.0109 16.0288C30.3297 16.0288 32.3969 16.2968 34.218 16.789C34.8359 16.3187 37.8984 14.1202 40.8516 14.3882C41.0102 14.8093 42.2023 17.5765 41.1523 20.8413C42.9242 22.8538 43.8266 25.364 43.8266 28.0765C43.8266 33.6655 40.6 38.3632 32.8891 39.7194C33.5495 40.369 34.0739 41.1436 34.4317 41.998C34.7894 42.8525 34.9733 43.7697 34.9727 44.696V50.8484C35.0164 51.3405 34.9727 51.8273 35.793 51.8273C45.4781 48.5624 52.4508 39.4132 52.4508 28.6343C52.4508 15.1155 41.4914 4.17258 27.9781 4.17258Z" fill="#5CA1FF"/>
</svg>
