<svg width="129" height="120" viewBox="0 0 129 120" fill="none" xmlns="http://www.w3.org/2000/svg">
<path d="M66.7846 47.5455C66.8179 48.909 66.6673 50.2392 66.3327 51.5362C66.0314 52.8332 65.5795 54.0803 64.977 55.2775C64.3745 56.4416 63.6214 57.5391 62.7176 58.5699C61.8472 59.5676 60.843 60.4488 59.705 61.2138C57.3284 62.8101 54.7175 63.7247 51.8723 63.9574C49.0272 64.157 46.3158 63.6581 43.7384 62.4609C42.4999 61.8623 41.3451 61.1307 40.274 60.266C39.2363 59.3681 38.3158 58.3704 37.5124 57.2729C36.7426 56.1755 36.0898 54.995 35.5543 53.7311C35.0522 52.4341 34.7342 51.104 34.6003 49.7404C34.5668 49.4742 34.5333 49.2248 34.4999 48.9921C34.4999 48.726 34.4999 48.4601 34.4999 48.194V47.5455V27.0928C34.4999 26.2282 34.8011 25.4965 35.4036 24.8979C36.0062 24.2993 36.7426 24 37.6129 24C38.4832 24 39.2196 24.2993 39.8221 24.8979C40.4246 25.4965 40.7259 26.2282 40.7259 27.0928V35.3238V35.2739C42.433 34.0101 44.3075 33.0956 46.3493 32.5302C48.4246 31.9316 50.5335 31.7653 52.6757 32.0314C54.7845 32.2975 56.7761 32.9626 58.6506 34.0268C60.5252 35.0577 62.1151 36.4212 63.4205 38.1173C64.4581 39.4809 65.2615 40.9774 65.8306 42.6069C66.3997 44.2032 66.7175 45.8494 66.7846 47.5455ZM58.8013 53.5815C60.1401 51.719 60.726 49.6239 60.5586 47.296C60.4916 46.0656 60.1903 44.9016 59.6548 43.8041C59.1193 42.6735 58.4164 41.6758 57.546 40.8111C57.111 40.412 56.6422 40.0628 56.1402 39.7635C55.6714 39.4642 55.1694 39.1816 54.6339 38.9154C53.3618 38.3501 52.0398 38.0674 50.6673 38.0674C49.2949 38.0674 47.9728 38.3335 46.7008 38.8656C45.4288 39.431 44.3242 40.2124 43.387 41.2101C42.4497 42.2078 41.7468 43.3385 41.2782 44.6023C40.6756 46.2983 40.5418 48.0276 40.8765 49.7903C41.2447 51.5529 42.0146 53.1158 43.1861 54.4794C44.0899 55.5437 45.161 56.3418 46.3995 56.8738C46.7008 57.0402 47.002 57.1899 47.3033 57.3228C47.638 57.4557 47.9728 57.5889 48.3075 57.7219C48.0397 57.6221 47.7719 57.5223 47.5041 57.4226C47.2363 57.2896 46.9686 57.1564 46.7008 57.0235C48.8096 57.9546 50.9854 58.1042 53.228 57.4725C54.366 57.1732 55.4038 56.691 56.341 56.0258C57.3118 55.3606 58.1317 54.546 58.8013 53.5815Z" fill="#C7E0F4"/>
<path d="M77.6841 42.8858C77.6841 41.6848 76.3915 40.7112 74.797 40.7112C73.2025 40.7112 71.91 41.6848 71.91 42.8858V61.7328C71.91 62.9338 73.2025 63.9074 74.797 63.9074C76.3915 63.9074 77.6841 62.9338 77.6841 61.7328V42.8858Z" fill="#C7E0F4"/>
<path d="M74.797 37.7184C76.3915 37.7184 77.6841 36.4342 77.6841 34.85C77.6841 33.2659 76.3915 31.9817 74.797 31.9817C73.2025 31.9817 71.91 33.2659 71.91 34.85C71.91 36.4342 73.2025 37.7184 74.797 37.7184Z" fill="#C7E0F4"/>
<path d="M89.4827 34.3761C89.4827 33.0537 88.3025 31.9817 86.8467 31.9817C85.3909 31.9817 84.2107 33.0537 84.2107 34.3761V61.5133C84.2107 62.8357 85.3909 63.9077 86.8467 63.9077C88.3025 63.9077 89.4827 62.8357 89.4827 61.5133V34.3761Z" fill="#C7E0F4"/>
<path d="M91.4876 40.7612H82.4499C80.7861 40.7612 79.4373 41.9338 79.4373 43.3802C79.4373 44.8266 80.7861 45.9991 82.4499 45.9991H91.4876C93.1514 45.9991 94.5002 44.8266 94.5002 43.3802C94.5002 41.9338 93.1514 40.7612 91.4876 40.7612Z" fill="#C7E0F4"/>
<path d="M30.8965 85.7815H28.4824V93.0002H27.0879V85.7815H24.6797V84.5979H30.8965V85.7815ZM33.4629 93.1409C32.5371 93.1409 31.7969 92.8616 31.2422 92.303C30.6914 91.7405 30.416 90.9963 30.416 90.0706C30.416 89.0627 30.7031 88.2756 31.2773 87.7092C31.8555 87.1428 32.6328 86.8596 33.6094 86.8596C34.5469 86.8596 35.2773 87.135 35.8008 87.6858C36.3242 88.2366 36.5859 89.0002 36.5859 89.9768C36.5859 90.9338 36.3027 91.7014 35.7363 92.2795C35.1738 92.8538 34.416 93.1409 33.4629 93.1409ZM33.5273 87.9436C32.9961 87.9436 32.5762 88.1292 32.2676 88.5002C31.959 88.8713 31.8047 89.3831 31.8047 90.0354C31.8047 90.6643 31.9609 91.1604 32.2734 91.5237C32.5859 91.8831 33.0039 92.0627 33.5273 92.0627C34.0625 92.0627 34.4727 91.885 34.7578 91.5295C35.0469 91.1741 35.1914 90.6682 35.1914 90.012C35.1914 89.3518 35.0469 88.842 34.7578 88.4827C34.4727 88.1233 34.0625 87.9436 33.5273 87.9436ZM43.4297 93.0002H42.0703V91.9807H42.0469C41.6094 92.7542 40.9355 93.1409 40.0254 93.1409C39.2871 93.1409 38.6953 92.8733 38.25 92.3381C37.8086 91.7991 37.5879 91.0667 37.5879 90.1409C37.5879 89.1487 37.832 88.3538 38.3203 87.7561C38.8125 87.1584 39.4668 86.8596 40.2832 86.8596C41.0918 86.8596 41.6797 87.1838 42.0469 87.8323H42.0703V84.1174H43.4297V93.0002ZM42.0879 90.2581V89.4729C42.0879 89.0471 41.9492 88.6858 41.6719 88.3889C41.3945 88.092 41.041 87.9436 40.6113 87.9436C40.1035 87.9436 39.7031 88.1331 39.4102 88.512C39.1211 88.8909 38.9766 89.4163 38.9766 90.0881C38.9766 90.6975 39.1152 91.1799 39.3926 91.5354C39.6738 91.887 40.0508 92.0627 40.5234 92.0627C40.9883 92.0627 41.3652 91.8928 41.6543 91.553C41.9434 91.2092 42.0879 90.7776 42.0879 90.2581ZM47.8652 93.1409C46.9395 93.1409 46.1992 92.8616 45.6445 92.303C45.0938 91.7405 44.8184 90.9963 44.8184 90.0706C44.8184 89.0627 45.1055 88.2756 45.6797 87.7092C46.2578 87.1428 47.0352 86.8596 48.0117 86.8596C48.9492 86.8596 49.6797 87.135 50.2031 87.6858C50.7266 88.2366 50.9883 89.0002 50.9883 89.9768C50.9883 90.9338 50.7051 91.7014 50.1387 92.2795C49.5762 92.8538 48.8184 93.1409 47.8652 93.1409ZM47.9297 87.9436C47.3984 87.9436 46.9785 88.1292 46.6699 88.5002C46.3613 88.8713 46.207 89.3831 46.207 90.0354C46.207 90.6643 46.3633 91.1604 46.6758 91.5237C46.9883 91.8831 47.4062 92.0627 47.9297 92.0627C48.4648 92.0627 48.875 91.885 49.1602 91.5295C49.4492 91.1741 49.5938 90.6682 49.5938 90.012C49.5938 89.3518 49.4492 88.842 49.1602 88.4827C48.875 88.1233 48.4648 87.9436 47.9297 87.9436ZM61.2246 85.7815H58.8105V93.0002H57.416V85.7815H55.0078V84.5979H61.2246V85.7815ZM66.2109 90.3694H62.1211C62.1367 90.9241 62.3066 91.3518 62.6309 91.6526C62.959 91.9534 63.4082 92.1038 63.9785 92.1038C64.6191 92.1038 65.207 91.9124 65.7422 91.5295V92.6252C65.1953 92.969 64.4727 93.1409 63.5742 93.1409C62.6914 93.1409 61.998 92.8694 61.4941 92.3264C60.9941 91.7795 60.7441 91.012 60.7441 90.0237C60.7441 89.0901 61.0195 88.3303 61.5703 87.7444C62.125 87.1545 62.8125 86.8596 63.6328 86.8596C64.4531 86.8596 65.0879 87.1233 65.5371 87.6506C65.9863 88.178 66.2109 88.9104 66.2109 89.8479V90.3694ZM64.8984 89.4084C64.8945 88.9202 64.7793 88.5413 64.5527 88.2717C64.3262 87.9983 64.0137 87.8616 63.6152 87.8616C63.2246 87.8616 62.8926 88.0042 62.6191 88.2893C62.3496 88.5745 62.1836 88.9475 62.1211 89.4084H64.8984ZM76.4766 93.0002H75.1172V89.7307C75.1172 89.1018 75.0273 88.6467 74.8477 88.3655C74.6719 88.0842 74.373 87.9436 73.9512 87.9436C73.5957 87.9436 73.293 88.1213 73.043 88.4768C72.7969 88.8323 72.6738 89.2581 72.6738 89.7542V93.0002H71.3086V89.6194C71.3086 88.5022 70.9141 87.9436 70.125 87.9436C69.7578 87.9436 69.4551 88.1116 69.2168 88.4475C68.9824 88.7834 68.8652 89.219 68.8652 89.7542V93.0002H67.5059V87.0002H68.8652V87.9495H68.8887C69.3223 87.2229 69.9531 86.8596 70.7812 86.8596C71.1953 86.8596 71.5566 86.9749 71.8652 87.2053C72.1777 87.4319 72.3906 87.7307 72.5039 88.1018C72.9492 87.2737 73.6133 86.8596 74.4961 86.8596C75.8164 86.8596 76.4766 87.6741 76.4766 89.303V93.0002ZM79.5176 92.1155H79.4941V95.76H78.1348V87.0002H79.4941V88.0549H79.5176C79.9824 87.2581 80.6621 86.8596 81.5566 86.8596C82.3184 86.8596 82.9121 87.1272 83.3379 87.6624C83.7637 88.1975 83.9766 88.9163 83.9766 89.8186C83.9766 90.8186 83.7363 91.6194 83.2559 92.2209C82.7754 92.8225 82.1191 93.1233 81.2871 93.1233C80.5215 93.1233 79.9316 92.7874 79.5176 92.1155ZM79.4824 89.7483V90.4924C79.4824 90.9299 79.6211 91.301 79.8984 91.6057C80.1797 91.9104 80.5352 92.0627 80.9648 92.0627C81.4688 92.0627 81.8633 91.8674 82.1484 91.4768C82.4375 91.0823 82.582 90.5334 82.582 89.8303C82.582 89.2405 82.4473 88.7795 82.1777 88.4475C81.9121 88.1116 81.5508 87.9436 81.0938 87.9436C80.6094 87.9436 80.2188 88.1155 79.9219 88.4592C79.6289 88.803 79.4824 89.2327 79.4824 89.7483ZM86.7305 93.0002H85.3652V84.1174H86.7305V93.0002ZM93.1113 93.0002H91.793V92.0627H91.7695C91.3555 92.7815 90.748 93.1409 89.9473 93.1409C89.3574 93.1409 88.8945 92.9807 88.5586 92.6604C88.2266 92.3401 88.0605 91.9163 88.0605 91.3889C88.0605 90.2561 88.7129 89.5959 90.0176 89.4084L91.7988 89.1565C91.7988 88.301 91.3926 87.8733 90.5801 87.8733C89.8652 87.8733 89.2207 88.1194 88.6465 88.6116V87.4221C89.2793 87.0471 90.0098 86.8596 90.8379 86.8596C92.3535 86.8596 93.1113 87.6057 93.1113 89.0979V93.0002ZM91.7988 90.053L90.5391 90.2288C90.1484 90.2795 89.8535 90.3752 89.6543 90.5159C89.459 90.6526 89.3613 90.8948 89.3613 91.2424C89.3613 91.4963 89.4512 91.7053 89.6309 91.8694C89.8145 92.0295 90.0586 92.1096 90.3633 92.1096C90.7773 92.1096 91.1191 91.9651 91.3887 91.676C91.6621 91.3831 91.7988 91.0159 91.7988 90.5745V90.053ZM97.9395 92.9358C97.6738 93.0686 97.3242 93.135 96.8906 93.135C95.7266 93.135 95.1445 92.5764 95.1445 91.4592V88.0667H94.1426V87.0002H95.1445V85.6116L96.5039 85.2249V87.0002H97.9395V88.0667H96.5039V91.0667C96.5039 91.4221 96.5684 91.676 96.6973 91.8284C96.8262 91.9807 97.041 92.0569 97.3418 92.0569C97.5723 92.0569 97.7715 91.9905 97.9395 91.8577V92.9358ZM104.121 90.3694H100.031C100.047 90.9241 100.217 91.3518 100.541 91.6526C100.869 91.9534 101.318 92.1038 101.889 92.1038C102.529 92.1038 103.117 91.9124 103.652 91.5295V92.6252C103.105 92.969 102.383 93.1409 101.484 93.1409C100.602 93.1409 99.9082 92.8694 99.4043 92.3264C98.9043 91.7795 98.6543 91.012 98.6543 90.0237C98.6543 89.0901 98.9297 88.3303 99.4805 87.7444C100.035 87.1545 100.723 86.8596 101.543 86.8596C102.363 86.8596 102.998 87.1233 103.447 87.6506C103.896 88.178 104.121 88.9104 104.121 89.8479V90.3694ZM102.809 89.4084C102.805 88.9202 102.689 88.5413 102.463 88.2717C102.236 87.9983 101.924 87.8616 101.525 87.8616C101.135 87.8616 100.803 88.0042 100.529 88.2893C100.26 88.5745 100.094 88.9475 100.031 89.4084H102.809Z" fill="#C8C6C4"/>
</svg>
