<svg width="120" height="120" viewBox="0 0 120 120" fill="none" xmlns="http://www.w3.org/2000/svg">
<path d="M62.2846 47.5455C62.318 48.909 62.1673 50.2392 61.8327 51.5362C61.5314 52.8332 61.0795 54.0803 60.477 55.2775C59.8745 56.4416 59.1214 57.5391 58.2176 58.5699C57.3472 59.5676 56.343 60.4488 55.205 61.2138C52.8284 62.8101 50.2175 63.7247 47.3723 63.9574C44.5272 64.157 41.8158 63.6581 39.2384 62.4609C37.9999 61.8623 36.8451 61.1307 35.774 60.266C34.7363 59.3681 33.8158 58.3704 33.0124 57.2729C32.2426 56.1755 31.5898 54.995 31.0543 53.7311C30.5522 52.4341 30.2342 51.104 30.1003 49.7404C30.0668 49.4742 30.0333 49.2248 29.9999 48.9921C29.9999 48.726 29.9999 48.4601 29.9999 48.194V47.5455V27.0928C29.9999 26.2282 30.3011 25.4965 30.9036 24.8979C31.5062 24.2993 32.2426 24 33.1129 24C33.9832 24 34.7196 24.2993 35.3221 24.8979C35.9246 25.4965 36.2259 26.2282 36.2259 27.0928V35.3238V35.2739C37.933 34.0101 39.8075 33.0956 41.8493 32.5302C43.9246 31.9316 46.0335 31.7653 48.1757 32.0314C50.2845 32.2975 52.2761 32.9626 54.1506 34.0268C56.0252 35.0577 57.6151 36.4212 58.9205 38.1173C59.9581 39.4809 60.7615 40.9774 61.3306 42.6069C61.8997 44.2032 62.2175 45.8494 62.2846 47.5455ZM54.3013 53.5815C55.6401 51.719 56.226 49.6239 56.0586 47.296C55.9916 46.0656 55.6903 44.9016 55.1548 43.8041C54.6193 42.6735 53.9164 41.6758 53.046 40.8111C52.611 40.412 52.1422 40.0628 51.6402 39.7635C51.1714 39.4642 50.6694 39.1816 50.1339 38.9154C48.8618 38.3501 47.5398 38.0674 46.1673 38.0674C44.7949 38.0674 43.4728 38.3335 42.2008 38.8656C40.9288 39.431 39.8242 40.2124 38.887 41.2101C37.9497 42.2078 37.2468 43.3385 36.7782 44.6023C36.1756 46.2983 36.0418 48.0276 36.3765 49.7903C36.7447 51.5529 37.5146 53.1158 38.6861 54.4794C39.5899 55.5437 40.661 56.3418 41.8995 56.8738C42.2008 57.0402 42.502 57.1899 42.8033 57.3228C43.138 57.4557 43.4728 57.5889 43.8075 57.7219C43.5397 57.6221 43.2719 57.5223 43.0041 57.4226C42.7363 57.2896 42.4686 57.1564 42.2008 57.0235C44.3096 57.9546 46.4854 58.1042 48.728 57.4725C49.866 57.1732 50.9038 56.691 51.841 56.0258C52.8118 55.3606 53.6317 54.546 54.3013 53.5815Z" fill="#C7E0F4"/>
<path d="M73.1841 42.8858C73.1841 41.6848 71.8915 40.7112 70.297 40.7112C68.7025 40.7112 67.41 41.6848 67.41 42.8858V61.7328C67.41 62.9338 68.7025 63.9074 70.297 63.9074C71.8915 63.9074 73.1841 62.9338 73.1841 61.7328V42.8858Z" fill="#C7E0F4"/>
<path d="M70.297 37.7184C71.8915 37.7184 73.1841 36.4342 73.1841 34.85C73.1841 33.2659 71.8915 31.9817 70.297 31.9817C68.7025 31.9817 67.41 33.2659 67.41 34.85C67.41 36.4342 68.7025 37.7184 70.297 37.7184Z" fill="#C7E0F4"/>
<path d="M84.9827 34.3761C84.9827 33.0537 83.8025 31.9817 82.3467 31.9817C80.8909 31.9817 79.7107 33.0537 79.7107 34.3761V61.5133C79.7107 62.8357 80.8909 63.9077 82.3467 63.9077C83.8025 63.9077 84.9827 62.8357 84.9827 61.5133V34.3761Z" fill="#C7E0F4"/>
<path d="M86.9876 40.7612H77.9499C76.2861 40.7612 74.9373 41.9338 74.9373 43.3802C74.9373 44.8266 76.2861 45.9991 77.9499 45.9991H86.9876C88.6514 45.9991 90.0002 44.8266 90.0002 43.3802C90.0002 41.9338 88.6514 40.7612 86.9876 40.7612Z" fill="#C7E0F4"/>
<path d="M26.3965 85.7815H23.9824V93.0002H22.5879V85.7815H20.1797V84.5979H26.3965V85.7815ZM28.9629 93.1409C28.0371 93.1409 27.2969 92.8616 26.7422 92.303C26.1914 91.7405 25.916 90.9963 25.916 90.0706C25.916 89.0627 26.2031 88.2756 26.7773 87.7092C27.3555 87.1428 28.1328 86.8596 29.1094 86.8596C30.0469 86.8596 30.7773 87.135 31.3008 87.6858C31.8242 88.2366 32.0859 89.0002 32.0859 89.9768C32.0859 90.9338 31.8027 91.7014 31.2363 92.2795C30.6738 92.8538 29.916 93.1409 28.9629 93.1409ZM29.0273 87.9436C28.4961 87.9436 28.0762 88.1292 27.7676 88.5002C27.459 88.8713 27.3047 89.3831 27.3047 90.0354C27.3047 90.6643 27.4609 91.1604 27.7734 91.5237C28.0859 91.8831 28.5039 92.0627 29.0273 92.0627C29.5625 92.0627 29.9727 91.885 30.2578 91.5295C30.5469 91.1741 30.6914 90.6682 30.6914 90.012C30.6914 89.3518 30.5469 88.842 30.2578 88.4827C29.9727 88.1233 29.5625 87.9436 29.0273 87.9436ZM38.9297 93.0002H37.5703V91.9807H37.5469C37.1094 92.7542 36.4355 93.1409 35.5254 93.1409C34.7871 93.1409 34.1953 92.8733 33.75 92.3381C33.3086 91.7991 33.0879 91.0667 33.0879 90.1409C33.0879 89.1487 33.332 88.3538 33.8203 87.7561C34.3125 87.1584 34.9668 86.8596 35.7832 86.8596C36.5918 86.8596 37.1797 87.1838 37.5469 87.8323H37.5703V84.1174H38.9297V93.0002ZM37.5879 90.2581V89.4729C37.5879 89.0471 37.4492 88.6858 37.1719 88.3889C36.8945 88.092 36.541 87.9436 36.1113 87.9436C35.6035 87.9436 35.2031 88.1331 34.9102 88.512C34.6211 88.8909 34.4766 89.4163 34.4766 90.0881C34.4766 90.6975 34.6152 91.1799 34.8926 91.5354C35.1738 91.887 35.5508 92.0627 36.0234 92.0627C36.4883 92.0627 36.8652 91.8928 37.1543 91.553C37.4434 91.2092 37.5879 90.7776 37.5879 90.2581ZM43.3652 93.1409C42.4395 93.1409 41.6992 92.8616 41.1445 92.303C40.5938 91.7405 40.3184 90.9963 40.3184 90.0706C40.3184 89.0627 40.6055 88.2756 41.1797 87.7092C41.7578 87.1428 42.5352 86.8596 43.5117 86.8596C44.4492 86.8596 45.1797 87.135 45.7031 87.6858C46.2266 88.2366 46.4883 89.0002 46.4883 89.9768C46.4883 90.9338 46.2051 91.7014 45.6387 92.2795C45.0762 92.8538 44.3184 93.1409 43.3652 93.1409ZM43.4297 87.9436C42.8984 87.9436 42.4785 88.1292 42.1699 88.5002C41.8613 88.8713 41.707 89.3831 41.707 90.0354C41.707 90.6643 41.8633 91.1604 42.1758 91.5237C42.4883 91.8831 42.9062 92.0627 43.4297 92.0627C43.9648 92.0627 44.375 91.885 44.6602 91.5295C44.9492 91.1741 45.0938 90.6682 45.0938 90.012C45.0938 89.3518 44.9492 88.842 44.6602 88.4827C44.375 88.1233 43.9648 87.9436 43.4297 87.9436ZM56.7246 85.7815H54.3105V93.0002H52.916V85.7815H50.5078V84.5979H56.7246V85.7815ZM61.7109 90.3694H57.6211C57.6367 90.9241 57.8066 91.3518 58.1309 91.6526C58.459 91.9534 58.9082 92.1038 59.4785 92.1038C60.1191 92.1038 60.707 91.9124 61.2422 91.5295V92.6252C60.6953 92.969 59.9727 93.1409 59.0742 93.1409C58.1914 93.1409 57.498 92.8694 56.9941 92.3264C56.4941 91.7795 56.2441 91.012 56.2441 90.0237C56.2441 89.0901 56.5195 88.3303 57.0703 87.7444C57.625 87.1545 58.3125 86.8596 59.1328 86.8596C59.9531 86.8596 60.5879 87.1233 61.0371 87.6506C61.4863 88.178 61.7109 88.9104 61.7109 89.8479V90.3694ZM60.3984 89.4084C60.3945 88.9202 60.2793 88.5413 60.0527 88.2717C59.8262 87.9983 59.5137 87.8616 59.1152 87.8616C58.7246 87.8616 58.3926 88.0042 58.1191 88.2893C57.8496 88.5745 57.6836 88.9475 57.6211 89.4084H60.3984ZM71.9766 93.0002H70.6172V89.7307C70.6172 89.1018 70.5273 88.6467 70.3477 88.3655C70.1719 88.0842 69.873 87.9436 69.4512 87.9436C69.0957 87.9436 68.793 88.1213 68.543 88.4768C68.2969 88.8323 68.1738 89.2581 68.1738 89.7542V93.0002H66.8086V89.6194C66.8086 88.5022 66.4141 87.9436 65.625 87.9436C65.2578 87.9436 64.9551 88.1116 64.7168 88.4475C64.4824 88.7834 64.3652 89.219 64.3652 89.7542V93.0002H63.0059V87.0002H64.3652V87.9495H64.3887C64.8223 87.2229 65.4531 86.8596 66.2812 86.8596C66.6953 86.8596 67.0566 86.9749 67.3652 87.2053C67.6777 87.4319 67.8906 87.7307 68.0039 88.1018C68.4492 87.2737 69.1133 86.8596 69.9961 86.8596C71.3164 86.8596 71.9766 87.6741 71.9766 89.303V93.0002ZM75.0176 92.1155H74.9941V95.76H73.6348V87.0002H74.9941V88.0549H75.0176C75.4824 87.2581 76.1621 86.8596 77.0566 86.8596C77.8184 86.8596 78.4121 87.1272 78.8379 87.6624C79.2637 88.1975 79.4766 88.9163 79.4766 89.8186C79.4766 90.8186 79.2363 91.6194 78.7559 92.2209C78.2754 92.8225 77.6191 93.1233 76.7871 93.1233C76.0215 93.1233 75.4316 92.7874 75.0176 92.1155ZM74.9824 89.7483V90.4924C74.9824 90.9299 75.1211 91.301 75.3984 91.6057C75.6797 91.9104 76.0352 92.0627 76.4648 92.0627C76.9688 92.0627 77.3633 91.8674 77.6484 91.4768C77.9375 91.0823 78.082 90.5334 78.082 89.8303C78.082 89.2405 77.9473 88.7795 77.6777 88.4475C77.4121 88.1116 77.0508 87.9436 76.5938 87.9436C76.1094 87.9436 75.7188 88.1155 75.4219 88.4592C75.1289 88.803 74.9824 89.2327 74.9824 89.7483ZM82.2305 93.0002H80.8652V84.1174H82.2305V93.0002ZM88.6113 93.0002H87.293V92.0627H87.2695C86.8555 92.7815 86.248 93.1409 85.4473 93.1409C84.8574 93.1409 84.3945 92.9807 84.0586 92.6604C83.7266 92.3401 83.5605 91.9163 83.5605 91.3889C83.5605 90.2561 84.2129 89.5959 85.5176 89.4084L87.2988 89.1565C87.2988 88.301 86.8926 87.8733 86.0801 87.8733C85.3652 87.8733 84.7207 88.1194 84.1465 88.6116V87.4221C84.7793 87.0471 85.5098 86.8596 86.3379 86.8596C87.8535 86.8596 88.6113 87.6057 88.6113 89.0979V93.0002ZM87.2988 90.053L86.0391 90.2288C85.6484 90.2795 85.3535 90.3752 85.1543 90.5159C84.959 90.6526 84.8613 90.8948 84.8613 91.2424C84.8613 91.4963 84.9512 91.7053 85.1309 91.8694C85.3145 92.0295 85.5586 92.1096 85.8633 92.1096C86.2773 92.1096 86.6191 91.9651 86.8887 91.676C87.1621 91.3831 87.2988 91.0159 87.2988 90.5745V90.053ZM93.4395 92.9358C93.1738 93.0686 92.8242 93.135 92.3906 93.135C91.2266 93.135 90.6445 92.5764 90.6445 91.4592V88.0667H89.6426V87.0002H90.6445V85.6116L92.0039 85.2249V87.0002H93.4395V88.0667H92.0039V91.0667C92.0039 91.4221 92.0684 91.676 92.1973 91.8284C92.3262 91.9807 92.541 92.0569 92.8418 92.0569C93.0723 92.0569 93.2715 91.9905 93.4395 91.8577V92.9358ZM99.6211 90.3694H95.5312C95.5469 90.9241 95.7168 91.3518 96.041 91.6526C96.3691 91.9534 96.8184 92.1038 97.3887 92.1038C98.0293 92.1038 98.6172 91.9124 99.1523 91.5295V92.6252C98.6055 92.969 97.8828 93.1409 96.9844 93.1409C96.1016 93.1409 95.4082 92.8694 94.9043 92.3264C94.4043 91.7795 94.1543 91.012 94.1543 90.0237C94.1543 89.0901 94.4297 88.3303 94.9805 87.7444C95.5352 87.1545 96.2227 86.8596 97.043 86.8596C97.8633 86.8596 98.498 87.1233 98.9473 87.6506C99.3965 88.178 99.6211 88.9104 99.6211 89.8479V90.3694ZM98.3086 89.4084C98.3047 88.9202 98.1895 88.5413 97.9629 88.2717C97.7363 87.9983 97.4238 87.8616 97.0254 87.8616C96.6348 87.8616 96.3027 88.0042 96.0293 88.2893C95.7598 88.5745 95.5938 88.9475 95.5312 89.4084H98.3086Z" fill="#C8C6C4"/>
</svg>
