<svg width="89" height="89" viewBox="0 0 89 89" fill="none" xmlns="http://www.w3.org/2000/svg">
<g clip-path="url(#clip0)">
<path d="M69.4842 59.5742L76.0078 60.9623L79.2003 51.9402L73.2318 48.8865C73.787 45.0001 73.6482 41.1137 72.6766 37.5049L78.2287 33.896L74.0646 25.1516L67.6798 27.0948C65.459 24.0411 62.5441 21.4039 59.2129 19.4607L60.6009 12.937L51.7176 9.88342L48.664 15.7131C44.7776 15.1579 40.8912 15.2967 37.2823 16.2683L33.6735 10.7162L24.929 14.7415L27.011 20.9875C23.9574 23.2083 21.3202 26.1232 19.377 29.4544L12.8533 28.0664L9.66089 37.0884L15.6293 40.1421C15.0741 44.0285 15.2129 47.9149 16.1845 51.5238L10.6325 55.1326L14.7965 63.8771L21.1814 61.9339C23.4022 64.9875 26.317 67.6247 29.6483 69.5679L28.2602 76.0916L37.2823 79.284L40.3359 73.4544C44.2224 74.0096 48.1088 73.8708 51.7176 72.8992L55.3265 78.4512L64.0709 74.426L61.9889 68.1799C64.9038 65.8203 67.541 62.9055 69.4842 59.5742Z" fill="white"/>
<path d="M37.6987 80.9496L26.4558 76.9244L27.8438 70.2619C25.0678 68.4575 22.5694 66.2367 20.4874 63.5994L13.9637 65.6815L8.82808 54.855L14.6577 51.1073C13.9637 47.7761 13.8249 44.4449 14.1025 41.1137L7.99527 37.9212L11.8817 26.5395L18.5442 27.9275C20.3486 25.1515 22.5694 22.6531 25.2066 20.5711L23.2634 14.0474L34.2287 8.91179L37.9763 14.6026C41.3076 13.9086 44.6388 13.7698 47.97 14.1862L51.1624 8.07898L62.5441 12.1042L61.1561 18.7667C63.9321 20.5711 66.4306 22.7919 68.5126 25.4291L75.0362 23.3471L80.1719 34.1736L74.3422 37.9212C75.0362 41.2525 75.175 44.5837 74.8974 47.9149L81.0047 51.1073L76.9795 62.6278L70.317 61.2398C68.5126 64.0159 66.2918 66.5143 63.6545 68.5963L65.7366 75.1199L54.7713 80.2556L51.0236 74.5647C47.6924 75.2588 44.3612 75.3975 41.0299 74.9811L37.6987 80.9496ZM29.6483 75.1199L36.4495 77.6184L39.3643 71.9275L40.3359 72.0663C43.9448 72.6215 47.6924 72.4827 51.1624 71.5111L52.134 71.2335L55.6041 76.6468L62.1277 73.5931L60.1845 67.4859L61.0173 66.9307C63.9321 64.7099 66.4306 62.0726 68.3738 58.8802L68.929 58.0474L75.175 59.4354L77.5347 52.6342L71.8438 49.7193L71.9826 48.7477C72.5378 45.1389 72.399 41.5301 71.4274 37.9212L71.1498 36.9496L76.563 33.4796L73.5094 26.9559L67.4022 28.8992L66.847 28.0664C64.6261 25.1515 61.9889 22.6531 58.7965 20.7099L57.9637 20.1547L59.3517 13.9086L52.5504 11.4102L49.6356 17.1011L48.664 16.9623C45.0552 16.4071 41.3075 16.5459 37.8375 17.5175L36.8659 17.7951L33.3959 12.3818L26.8722 15.4354L28.8154 21.5427L27.8438 22.2367C24.929 24.4575 22.4306 27.0947 20.4874 30.2872L19.9322 31.12L13.6861 29.732L11.3265 36.5332L17.0173 39.448L16.8785 40.4197C16.3233 44.0285 16.4621 47.6373 17.4337 51.2461L17.7114 52.2178L12.2981 55.6878L15.3517 62.2114L21.459 60.2682L22.0142 61.101C24.235 64.0159 26.8722 66.5143 30.0647 68.4575L30.8975 69.0127L29.6483 75.1199Z" fill="#193651"/>
<path d="M78.7839 18.0726H67.4022V15.2966H76.0078V6.69092H78.7839V18.0726Z" fill="#193651"/>
<path d="M12.8533 82.4762H10.0773V71.0945H21.459V73.8705H12.8533V82.4762Z" fill="#193651"/>
<path d="M7.85645 69.7064C7.30125 68.8736 6.74604 68.0408 6.32964 67.3468L8.68926 65.9588C9.10566 66.7916 9.66087 67.4856 10.0773 68.1796L7.85645 69.7064ZM4.94163 64.8483C4.52523 64.0155 4.10882 63.1827 3.69242 62.2111L6.19084 61.1007C6.60724 61.9335 6.88485 62.7663 7.30125 63.5991L4.94163 64.8483ZM2.72081 59.5739C2.44321 58.7411 2.16561 57.7695 1.888 56.7979L4.52523 55.9651C4.80283 56.7979 5.08043 57.6307 5.35803 58.4635L2.72081 59.5739ZM1.0552 54.0219C0.916395 53.0502 0.638792 52.0786 0.499991 51.2458L3.27601 50.8294C3.41482 51.6622 3.55362 52.6338 3.83122 53.4666L1.0552 54.0219ZM0.222389 48.4698C0.222389 47.4982 0.0835876 46.5266 0.0835876 45.555H2.85961C2.85961 46.3878 2.85961 47.3594 2.99841 48.1922L0.222389 48.4698ZM2.85961 42.779L0.0835876 42.6402C0.0835876 41.6686 0.222389 40.6969 0.36119 39.7253L3.13721 40.0029C2.99841 40.9745 2.99841 41.9462 2.85961 42.779ZM3.41482 37.5045L0.638792 37.0881C0.777593 36.1165 1.0552 35.1449 1.194 34.3121L3.97002 34.8673C3.83122 35.7001 3.69242 36.5329 3.41482 37.5045ZM4.66403 32.2301L2.0268 31.3973C2.30441 30.4257 2.58201 29.5928 2.99841 28.6212L5.63563 29.7317C5.21923 30.5645 4.94163 31.3973 4.66403 32.2301ZM6.60724 27.2332L4.10882 26.1228C4.52522 25.29 4.94163 24.4572 5.35803 23.6244L7.85645 24.8736C7.44005 25.5676 7.02365 26.4004 6.60724 27.2332ZM9.24447 22.514L6.88485 20.9872C7.44005 20.1544 7.99525 19.3216 8.55046 18.6276L10.7713 20.2932C10.2161 20.9872 9.66087 21.82 9.24447 22.514ZM12.2981 18.2112L10.2161 16.4067C10.7713 15.7127 11.4653 14.8799 12.1593 14.1859L14.2413 16.1291C13.4085 16.8231 12.8533 17.5171 12.2981 18.2112ZM16.0457 14.1859L14.1025 12.1039L14.5189 11.6875L16.3233 13.7695L16.0457 14.1859Z" fill="#193651"/>
<path d="M75.0362 16.2682C67.4022 8.21772 57.1309 3.35968 46.0268 2.94328C34.9227 2.52688 24.235 6.41331 16.1845 13.9086L14.2413 11.8266C22.9858 3.77609 34.2287 -0.387947 46.1656 0.0284567C57.9637 0.44486 68.929 5.5805 76.9795 14.325L75.0362 16.2682Z" fill="#193651"/>
<path d="M74.481 77.3408L72.6766 75.2588L73.093 74.9812L75.0362 77.0632L74.481 77.3408ZM76.9794 74.9812L74.8974 73.0379C75.4526 72.3439 76.1466 71.6499 76.7018 70.9559L78.7838 72.7603C78.2286 73.5931 77.5346 74.2872 76.9794 74.9812ZM80.5882 70.5395L78.3674 68.8739C78.9226 68.1799 79.339 67.3471 79.8942 66.6531L82.2538 68.1799C81.6986 69.0127 81.1434 69.8455 80.5882 70.5395ZM83.6418 65.6815L81.1434 64.4323C81.5598 63.5995 81.9762 62.9055 82.3926 62.0726L84.8911 63.1831C84.4747 64.0159 84.0583 64.8487 83.6418 65.6815ZM86.0015 60.5458L83.3642 59.4354C83.6418 58.6026 83.9195 57.7698 84.1971 56.937L86.8343 57.7698C86.6955 58.7414 86.2791 59.5742 86.0015 60.5458ZM87.6671 54.9938L85.0299 54.2998C85.3075 53.467 85.4463 52.4954 85.5851 51.6626L88.3611 52.079C88.0835 53.1894 87.9447 54.0222 87.6671 54.9938ZM88.6387 49.4417L85.8627 49.1641C86.0015 48.3313 86.0015 47.3597 86.0015 46.5269L88.7775 46.6657C88.7775 47.4985 88.7775 48.4701 88.6387 49.4417ZM86.1403 43.7509C86.1403 42.9181 86.1403 41.9465 86.0015 41.1137L88.7775 40.8361C88.9163 41.8077 88.9163 42.7793 88.9163 43.7509H86.1403ZM85.7239 38.3376C85.5851 37.5048 85.4463 36.5332 85.1687 35.7004L87.9447 35.1452C88.0835 36.1168 88.3611 37.0884 88.4999 37.9212L85.7239 38.3376ZM84.4747 33.0632C84.1971 32.2304 83.9195 31.3976 83.6418 30.5648L86.2791 29.5932C86.5567 30.426 86.8343 31.3976 87.1119 32.3692L84.4747 33.0632ZM82.6702 28.0664C82.2538 27.2336 81.9762 26.4007 81.5598 25.5679L84.0583 24.3187C84.4747 25.1515 84.8911 25.9843 85.3075 26.9559L82.6702 28.0664ZM80.3106 23.3471C79.8942 22.5143 79.339 21.8203 78.9226 21.1263L81.1434 19.5995C81.6986 20.4323 82.2538 21.2651 82.6702 21.9591L80.3106 23.3471Z" fill="#193651"/>
<path d="M44.5 88.9997C32.5631 88.9997 20.6262 84.1417 11.8817 74.7032L13.9637 72.76C29.5094 89.6938 55.8817 90.8042 72.6766 75.1196L74.6198 77.2016C66.0141 85.1133 55.1876 88.9997 44.5 88.9997Z" fill="#193651"/>
<path d="M27.1499 60.9623C18.1278 51.385 18.5442 36.2557 28.1215 27.2336C37.6988 18.2115 52.8281 18.7667 61.8502 28.344C70.8723 37.9213 70.4558 53.0506 60.8786 62.0727C51.3013 71.0947 36.172 70.5395 27.1499 60.9623Z" fill="#FFBF5D"/>
<path d="M44.5 40.9747C42.5568 40.9747 40.8912 42.6403 40.8912 44.5836C40.8912 46.5268 42.5568 48.1924 44.5 48.1924C46.4432 48.1924 48.1088 46.5268 48.1088 44.5836C48.1088 42.6403 46.4432 40.9747 44.5 40.9747Z" fill="white"/>
<path d="M44.5 49.5805C41.724 49.5805 39.5032 47.3597 39.5032 44.5836C39.5032 41.8076 41.724 39.5868 44.5 39.5868C47.276 39.5868 49.4969 41.8076 49.4969 44.5836C49.4969 47.3597 47.1372 49.5805 44.5 49.5805ZM44.5 42.3628C43.2508 42.3628 42.2792 43.3344 42.2792 44.5836C42.2792 45.8328 43.2508 46.8045 44.5 46.8045C45.7492 46.8045 46.7208 45.8328 46.7208 44.5836C46.7208 43.3344 45.6104 42.3628 44.5 42.3628Z" fill="#193651"/>
<path d="M46.0268 63.877H42.8344V66.653H46.0268V63.877Z" fill="#193651"/>
<path d="M46.0268 22.5142H42.8344V25.2902H46.0268V22.5142Z" fill="#193651"/>
<path d="M25.2067 42.9182H22.4306V46.1106H25.2067V42.9182Z" fill="#193651"/>
<path d="M66.4306 42.9182H63.6546V46.1106H66.4306V42.9182Z" fill="#193651"/>
<path d="M45.8881 29.4542H43.112V40.9747H45.8881V29.4542Z" fill="#193651"/>
<path d="M56.2981 43.1957H48.1089V45.9717H56.2981V43.1957Z" fill="#193651"/>
</g>
<defs>
<clipPath id="clip0">
<rect width="89" height="89" fill="white"/>
</clipPath>
</defs>
</svg>
