<svg width="87" height="87" viewBox="0 0 87 87" fill="none" xmlns="http://www.w3.org/2000/svg">
<g clip-path="url(#clip0)">
<path d="M43.5001 86.9999C42.5489 86.9999 41.5977 86.9999 40.6465 86.864L40.7824 84.1463C41.5977 84.1463 42.5489 84.2822 43.3642 84.2822V86.9999H43.5001ZM37.9288 86.5922C36.9777 86.4564 36.0265 86.3205 35.2112 86.1846L35.7547 83.4669C36.57 83.6028 37.5212 83.7387 38.3365 83.8746L37.9288 86.5922ZM32.3576 85.6411C31.4064 85.3693 30.5911 85.0975 29.6399 84.8258L30.4552 82.244C31.2705 82.5157 32.0858 82.7875 33.037 83.0593L32.3576 85.6411ZM27.0582 83.8746C26.2428 83.4669 25.2917 83.1951 24.4764 82.7875L25.6993 80.3416C26.5146 80.7492 27.3299 81.021 28.1452 81.4287L27.0582 83.8746ZM22.0305 81.2928C21.2152 80.8851 20.3999 80.3416 19.5846 79.7981L21.0793 77.488C21.7587 78.0316 22.574 78.4392 23.3893 78.8469L22.0305 81.2928ZM17.4104 78.3033C16.731 77.7598 15.9157 77.2163 15.2363 76.5368L17.0028 74.4986C17.6822 75.0421 18.3616 75.5857 19.041 76.1292L17.4104 78.3033ZM13.0621 74.6345C12.3827 73.9551 11.7033 73.2756 11.1598 72.5962L13.198 70.8297C13.7416 71.5091 14.421 72.0527 14.9645 72.7321L13.0621 74.6345ZM9.39328 70.4221C8.84974 69.7427 8.30621 68.9274 7.76267 68.1121L9.93681 66.6173C10.4803 67.2968 10.888 67.9762 11.4315 68.7915L9.39328 70.4221ZM6.13207 65.802C5.58853 64.9867 5.18088 64.1714 4.77323 63.3561L7.21914 62.1332C7.62679 62.9485 8.03444 63.6279 8.44209 64.4432L6.13207 65.802ZM3.55028 60.9102C3.14263 60.0949 2.87086 59.1437 2.46321 58.3284L5.045 57.3773C5.45265 58.1926 5.72442 59.0079 6.13207 59.8232L3.55028 60.9102ZM1.64791 55.6108C1.37614 54.6596 1.10437 53.8443 0.968489 52.8931L3.68616 52.3496C3.82205 53.1649 4.09381 54.1161 4.36558 54.9314L1.64791 55.6108ZM0.560838 50.1754C0.424954 49.2242 0.289071 48.2731 0.289071 47.4578L3.00674 47.186C3.14263 48.0013 3.14263 48.9525 3.27851 49.7678L0.560838 50.1754ZM0.0173035 44.4683C0.0173035 44.1965 0.0173035 43.7889 0.0173035 43.5171C0.0173035 42.9736 0.0173035 42.2942 0.0173035 41.7506L2.73498 41.8865C2.73498 42.4301 2.73498 42.9736 2.73498 43.5171C2.73498 43.7889 2.73498 44.1965 2.73498 44.4683H0.0173035ZM3.00674 39.1688L0.289071 38.8971C0.424954 37.9459 0.560838 36.9947 0.696722 36.1794L3.4144 36.5871C3.14263 37.5382 3.00674 38.3535 3.00674 39.1688ZM3.82205 34.0053L1.24026 33.3259C1.51202 32.3747 1.64791 31.5594 1.91967 30.6082L4.50146 31.4235C4.2297 32.3747 4.09381 33.19 3.82205 34.0053ZM5.45265 28.9776L2.87086 28.0264C3.14263 27.2111 3.55028 26.2599 3.95793 25.4446L6.40384 26.5317C5.99618 27.347 5.72442 28.1623 5.45265 28.9776ZM7.62679 24.2216L5.18088 22.9987C5.58853 22.1834 6.13207 21.3681 6.53972 20.5528L8.84974 22.0475C8.44209 22.7269 8.03444 23.4063 7.62679 24.2216ZM10.3445 19.7375L8.17032 18.2428C8.71386 17.4275 9.25739 16.748 9.93681 16.0686L11.9751 17.6992C11.4315 18.3787 10.888 19.0581 10.3445 19.7375ZM13.7416 15.661L11.7033 13.7586C12.3827 13.0792 13.0621 12.3998 13.7416 11.7204L15.6439 13.7586C14.9645 14.438 14.2851 15.1174 13.7416 15.661ZM17.5463 12.128L15.7798 10.0898C16.4592 9.54622 17.2745 8.8668 17.9539 8.32326L19.5846 10.4974C18.9051 11.0409 18.2257 11.5845 17.5463 12.128ZM21.7587 9.00268L20.3999 6.69266C21.2152 6.14913 22.0305 5.74148 22.8458 5.33382L24.2046 7.77973C23.2534 8.0515 22.574 8.59503 21.7587 9.00268ZM26.3787 6.55678L25.2917 4.11087C26.107 3.70322 27.0582 3.29557 27.8735 3.0238L28.8246 5.46971C28.0093 5.87736 27.194 6.14913 26.3787 6.55678ZM31.2705 4.65441L30.4552 2.07262C31.4064 1.80085 32.2217 1.52908 33.1729 1.25732L33.8523 3.8391C33.037 4.11087 32.0858 4.38264 31.2705 4.65441ZM36.4341 3.43145L36.0265 0.713781C36.9777 0.577897 37.9288 0.442014 38.7441 0.30613L39.0159 3.0238C38.0647 3.15969 37.2494 3.29557 36.4341 3.43145ZM41.5977 2.75204L41.4618 0.0343628C42.1412 0.0343628 42.8207 0.0343628 43.5001 0.0343628V2.75204C42.8207 2.75204 42.2771 2.75204 41.5977 2.75204Z" fill="#193651"/>
<path d="M71.2204 63.628H43.9078V77.0805H71.2204V63.628Z" fill="white"/>
<path d="M72.5792 78.3034H42.5489V62.2691H72.5792V78.3034ZM45.2666 75.5857H69.8615V64.8509H45.2666V75.5857Z" fill="#193651"/>
<path d="M66.0567 77.3524H48.9354V81.4289C48.9354 83.7389 50.8377 85.6413 53.1478 85.6413H61.7084C64.0184 85.6413 65.9208 83.7389 65.9208 81.4289V77.3524H66.0567Z" fill="white"/>
<path d="M61.8444 87.0002H53.2837C50.1584 87.0002 47.7125 84.4184 47.7125 81.4289V75.9936H67.5515V81.4289C67.4156 84.5543 64.9697 87.0002 61.8444 87.0002ZM50.2943 78.7113V81.4289C50.2943 83.0595 51.6531 84.2825 53.1478 84.2825H61.7085C63.3391 84.2825 64.5621 82.9237 64.5621 81.4289V78.7113H50.2943Z" fill="#193651"/>
<path d="M85.624 29.9291C85.624 13.6231 72.3074 0.578242 56.1373 1.39354C42.2771 2.07296 30.727 13.3513 29.5041 27.3473C28.9605 34.5491 30.8629 41.0716 34.6676 46.371C39.1518 52.7575 42.413 52.6217 43.3642 60.5029L43.7718 63.4924H71.0845L71.3562 61.3182C72.4433 53.1652 75.7045 52.8934 80.4604 46.0993C83.7216 41.6151 85.624 36.0439 85.624 29.9291Z" fill="white"/>
<path d="M72.4433 64.9865H42.6847L42.1412 60.7742C41.4618 56.0182 40.103 54.6594 37.7929 52.3494C36.57 51.1264 35.2111 49.6317 33.5805 47.3217C29.504 41.6146 27.6017 34.4127 28.1452 27.3468C29.504 12.5355 41.4618 0.849477 56.0013 0.0341749C72.9868 -0.781127 86.9828 12.9431 86.9828 29.9286C86.9828 36.0433 85.2163 42.0222 81.6833 47.0499C80.0527 49.3599 78.6939 50.8547 77.4709 52.2135C75.025 54.9312 73.5303 56.5618 72.8509 61.5895L72.4433 64.9865ZM44.9948 62.2689H69.9973L70.1332 61.3177C70.9485 55.3388 72.8509 53.1647 75.4327 50.447C76.6556 49.0882 78.0145 47.7293 79.5092 45.5552C82.6345 40.9352 84.2651 35.4998 84.2651 29.9286C84.2651 14.4378 71.4921 2.07243 56.1372 2.75185C42.8206 3.43127 31.9499 14.0302 30.8629 27.4827C30.3193 34.0051 32.0858 40.3916 35.7547 45.6911C37.2494 47.7293 38.6082 49.0882 39.6953 50.3111C42.1412 52.757 44.0436 54.6594 44.723 60.3665L44.9948 62.2689Z" fill="#193651"/>
<path d="M74.8892 62.2691H40.103V64.9868H74.8892V62.2691Z" fill="#193651"/>
<path d="M74.8892 68.9273H40.103V71.645H74.8892V68.9273Z" fill="#193651"/>
<path d="M74.8892 75.5858H40.103V78.3035H74.8892V75.5858Z" fill="#193651"/>
<path d="M36.5701 24.0856C35.483 28.5698 35.8906 33.054 37.5212 37.1305L14.6928 48.4088C11.4316 49.9035 10.2086 53.8442 11.9751 56.9695C13.8775 59.9589 17.954 60.7742 20.8076 58.4642L41.326 43.2452C45.4025 47.8653 51.5173 50.8547 58.7191 50.583C68.2309 50.3112 76.2481 43.3811 78.5581 34.141C81.1399 22.5909 74.0739 10.9049 62.5238 8.18725C50.9737 5.3337 39.4236 12.5355 36.5701 24.0856Z" fill="#FFBF5D"/>
<path d="M55.4578 40.6636L55.8655 43.3813L59.942 43.2454L60.2138 40.3918C61.8444 39.9842 63.3391 39.3047 64.562 38.4894L66.8721 40.12L69.7256 37.1306L67.9591 35.0924C68.7744 33.7335 69.4539 32.2388 69.7256 30.6082L72.4433 30.2005L72.3074 26.124L69.5897 25.8523C69.1821 24.2217 68.5027 22.7269 67.6874 21.3681L69.318 19.0581L66.3285 16.3404L64.1544 18.1069C62.7956 17.2916 61.3008 16.6122 59.6702 16.3404L59.2626 13.6227L55.1861 13.7586L54.9143 16.6122C53.2837 17.0198 51.789 17.6992 50.566 18.5146L48.256 16.8839L45.4025 19.8734L47.1689 22.0475C46.3536 23.4064 45.6742 24.9011 45.4025 26.5317L42.6848 26.9393L42.8207 31.0158L45.5383 31.2876C45.946 32.9182 46.6254 34.4129 47.4407 35.6359L45.8101 37.9459L48.7995 40.7995L50.9737 39.033C52.3325 39.8483 53.8272 40.3918 55.4578 40.6636Z" fill="white"/>
<path d="M63.2032 26.5318C62.1162 23.4065 58.7191 21.7759 55.5938 22.863C52.4684 23.95 50.8378 27.3471 51.9249 30.4725C53.012 33.5978 56.4091 35.2284 59.5344 34.1413C62.6597 33.0542 64.2903 29.6572 63.2032 26.5318Z" fill="white"/>
<path d="M57.4962 35.9078C54.3708 35.9078 51.6532 34.0054 50.5661 31.016C49.2072 27.2113 51.2455 22.9989 55.0502 21.64C55.8655 21.3683 56.6809 21.2324 57.4962 21.2324C60.6215 21.2324 63.3391 23.1348 64.4262 26.1242C65.7851 29.9289 63.7468 34.1413 59.9421 35.5002C59.1268 35.7719 58.3115 35.9078 57.4962 35.9078ZM57.4962 23.9501C56.9526 23.9501 56.4091 24.0859 56.0014 24.2218C53.5555 25.0371 52.3326 27.7548 53.1479 30.0648C53.8273 31.9672 55.5938 33.1901 57.4962 33.1901C58.0397 33.1901 58.5832 33.0543 58.9909 32.9184C61.4368 32.1031 62.6597 29.3854 61.8444 27.0754C61.165 25.173 59.5344 23.9501 57.4962 23.9501Z" fill="#193651"/>
</g>
<defs>
<clipPath id="clip0">
<rect width="87" height="87" fill="white"/>
</clipPath>
</defs>
</svg>
