<svg width="83" height="113" viewBox="0 0 83 113" fill="none" xmlns="http://www.w3.org/2000/svg">
<path d="M44.55 40.2C40.5 40.2 36.3 40.8 31.95 42L33.6 25.95H74.4V0.149997H13.05L7.35 55.8L22.65 69.9C27.75 65.7 33.3 63.6 39.45 63.6C47.85 63.6 54.15 68.4 54.15 75C54.15 81.75 48.3 87.15 37.5 87.15C29.4 87.15 20.4 84.45 10.65 78.9L0.6 101.4C12.45 109.05 25.35 112.8 39 112.8C52.2 112.8 62.7 109.2 70.35 102.15C78.15 94.95 82.05 85.95 82.05 75.15C82.05 64.65 78.45 56.25 71.1 49.8C63.9 43.35 55.05 40.2 44.55 40.2Z" fill="white"/>
<path d="M31.95 42L30.9552 41.8977L30.8056 43.353L32.2159 42.964L31.95 42ZM33.6 25.95V24.95H32.6975L32.6052 25.8477L33.6 25.95ZM74.4 25.95V26.95H75.4V25.95H74.4ZM74.4 0.149998H75.4V-0.850002H74.4V0.149998ZM13.05 0.149998V-0.850002H12.1472L12.0552 0.0481033L13.05 0.149998ZM7.35 55.8L6.35521 55.6981L6.3042 56.1961L6.67232 56.5354L7.35 55.8ZM22.65 69.9L21.9723 70.6354L22.6131 71.2259L23.2857 70.6719L22.65 69.9ZM10.65 78.9L11.1447 78.0309L10.1866 77.4855L9.73694 78.4922L10.65 78.9ZM0.6 101.4L-0.313057 100.992L-0.662757 101.775L0.057631 102.24L0.6 101.4ZM70.35 102.15L71.0277 102.885L71.0283 102.885L70.35 102.15ZM71.1 49.8L70.4327 50.5449L70.4404 50.5516L71.1 49.8ZM44.55 39.2C40.4006 39.2 36.111 39.8148 31.6841 41.036L32.2159 42.964C36.4891 41.7852 40.5994 41.2 44.55 41.2V39.2ZM32.9448 42.1023L34.5948 26.0523L32.6052 25.8477L30.9552 41.8977L32.9448 42.1023ZM33.6 26.95H74.4V24.95H33.6V26.95ZM75.4 25.95V0.149998H73.4V25.95H75.4ZM74.4 -0.850002H13.05V1.15H74.4V-0.850002ZM12.0552 0.0481033L6.35521 55.6981L8.3448 55.9019L14.0448 0.251888L12.0552 0.0481033ZM6.67232 56.5354L21.9723 70.6354L23.3277 69.1646L8.02768 55.0646L6.67232 56.5354ZM23.2857 70.6719C28.2235 66.6055 33.5528 64.6 39.45 64.6V62.6C33.0472 62.6 27.2765 64.7944 22.0143 69.1281L23.2857 70.6719ZM39.45 64.6C47.5545 64.6 53.15 69.1781 53.15 75H55.15C55.15 67.6219 48.1455 62.6 39.45 62.6V64.6ZM53.15 75C53.15 78.0615 51.8338 80.8102 49.26 82.8177C46.6685 84.8391 42.7424 86.15 37.5 86.15V88.15C43.0577 88.15 47.4565 86.7609 50.49 84.3947C53.5412 82.0148 55.15 78.6885 55.15 75H53.15ZM37.5 86.15C29.6217 86.15 20.7923 83.5227 11.1447 78.0309L10.1553 79.7691C20.0077 85.3773 29.1783 88.15 37.5 88.15V86.15ZM9.73694 78.4922L-0.313057 100.992L1.51306 101.808L11.5631 79.3078L9.73694 78.4922ZM0.057631 102.24C12.0687 109.994 25.1569 113.8 39 113.8V111.8C25.5431 111.8 12.8313 108.106 1.14237 100.56L0.057631 102.24ZM39 113.8C52.3844 113.8 63.1492 110.146 71.0277 102.885L69.6723 101.415C62.2508 108.254 52.0156 111.8 39 111.8V113.8ZM71.0283 102.885C79.0374 95.4918 83.05 86.2236 83.05 75.15H81.05C81.05 85.6764 77.2626 94.4082 69.6717 101.415L71.0283 102.885ZM83.05 75.15C83.05 64.3894 79.3456 55.7055 71.7596 49.0484L70.4404 50.5516C77.5544 56.7945 81.05 64.9106 81.05 75.15H83.05ZM71.7673 49.0552C64.3636 42.4227 55.2676 39.2 44.55 39.2V41.2C54.8324 41.2 63.4364 44.2773 70.4328 50.5448L71.7673 49.0552Z" fill="#1C5BFF"/>
</svg>
