<svg width="88" height="88" viewBox="0 0 88 88" fill="none" xmlns="http://www.w3.org/2000/svg">
<path d="M77.9938 44.1371H75.2523V41.3956H77.9938V44.1371ZM12.7477 43.3146H10.0062V40.5732H12.7477V43.3146ZM77.9938 38.6542H75.2523V35.9128H77.9938V38.6542ZM12.7477 37.8318H10.0062V35.0903H12.7477V37.8318ZM77.9938 33.1713H75.2523V30.4299H77.9938V33.1713ZM12.7477 32.3489H10.0062V29.6075H12.7477V32.3489ZM77.9938 27.6885H75.2523V24.947H77.9938V27.6885ZM12.7477 26.866H10.0062V24.1246H12.7477V26.866ZM77.9938 22.2056H75.2523V19.4642H77.9938V22.2056ZM12.7477 21.3832H10.0062V18.6417H12.7477V21.3832ZM77.9938 16.7227H75.2523V13.9813H77.9938V16.7227ZM12.7477 15.9003H10.0062V13.1589H12.7477V15.9003ZM74.9782 11.6511C74.8411 10.9657 74.4299 10.2804 74.0187 9.73206L76.2118 8.08721C76.8972 8.77256 77.3084 9.73207 77.5825 10.8286L74.9782 11.6511ZM13.1589 11.1028L10.6916 10.0062C11.1028 9.04671 11.6511 8.08721 12.4735 7.26478L14.3925 9.18378C13.8442 9.73206 13.433 10.4174 13.1589 11.1028ZM72.3738 8.22428C71.6885 7.81306 71.0031 7.67599 70.3177 7.53892L70.5919 4.79749C71.6885 4.93456 72.785 5.2087 73.7445 5.75699L72.3738 8.22428ZM16.1744 7.95013L15.0779 5.48284C16.0374 5.07163 17.134 4.79749 18.2305 4.79749V7.53892C17.5452 7.53892 16.8598 7.67599 16.1744 7.95013ZM67.7134 7.53892H64.972V4.79749H67.7134V7.53892ZM62.2305 7.53892H59.4891V4.79749H62.2305V7.53892ZM56.7477 7.53892H54.0062V4.79749H56.7477V7.53892ZM51.2648 7.53892H48.5234V4.79749H51.2648V7.53892ZM45.7819 7.53892H43.0405V4.79749H45.7819V7.53892ZM40.2991 7.53892H37.5576V4.79749H40.2991V7.53892ZM34.8162 7.53892H32.0748V4.79749H34.8162V7.53892ZM29.3333 7.53892H26.5919V4.79749H29.3333V7.53892ZM23.8505 7.53892H21.109V4.79749H23.8505V7.53892Z" fill="#193651"/>
<path d="M15.6262 52.6355C20.3197 52.6355 24.1246 48.8306 24.1246 44.1371C24.1246 39.4435 20.3197 35.6386 15.6262 35.6386C10.9326 35.6386 7.12775 39.4435 7.12775 44.1371C7.12775 48.8306 10.9326 52.6355 15.6262 52.6355Z" fill="white"/>
<path d="M15.6262 54.0063C10.1433 54.0063 5.75702 49.62 5.75702 44.1371C5.75702 38.6542 10.1433 34.2679 15.6262 34.2679C21.109 34.2679 25.4953 38.6542 25.4953 44.1371C25.4953 49.4829 21.109 54.0063 15.6262 54.0063ZM15.6262 37.0094C11.6511 37.0094 8.49845 40.162 8.49845 44.1371C8.49845 48.1122 11.6511 51.2648 15.6262 51.2648C19.6013 51.2648 22.7539 48.1122 22.7539 44.1371C22.7539 40.162 19.6013 37.0094 15.6262 37.0094Z" fill="#193651"/>
<path d="M15.6261 58.3927C7.81305 58.3927 1.50775 64.698 1.50775 72.5111H29.8816C29.8816 64.698 23.4392 58.3927 15.6261 58.3927Z" fill="#FFBF5D"/>
<path d="M31.2523 73.8818H0.137024V72.5111C0.137024 64.0126 7.12768 57.022 15.6261 57.022C24.1246 57.022 31.1152 64.0126 31.1152 72.5111V73.8818H31.2523ZM3.01553 71.1404H28.5109C27.8255 64.698 22.3426 59.7634 15.7632 59.7634C9.18375 59.7634 3.70089 64.698 3.01553 71.1404Z" fill="#193651"/>
<path d="M44 66.754C48.6936 66.754 52.4985 62.9491 52.4985 58.2555C52.4985 53.562 48.6936 49.7571 44 49.7571C39.3065 49.7571 35.5016 53.562 35.5016 58.2555C35.5016 62.9491 39.3065 66.754 44 66.754Z" fill="white"/>
<path d="M44 68.1247C38.5172 68.1247 34.1309 63.7384 34.1309 58.2555C34.1309 52.7726 38.5172 48.3864 44 48.3864C49.4829 48.3864 53.8692 52.7726 53.8692 58.2555C53.8692 63.7384 49.4829 68.1247 44 68.1247ZM44 51.1278C40.025 51.1278 36.8723 54.2804 36.8723 58.2555C36.8723 62.2306 40.025 65.3832 44 65.3832C47.9751 65.3832 51.1278 62.2306 51.1278 58.2555C51.1278 54.2804 47.9751 51.1278 44 51.1278Z" fill="#193651"/>
<path d="M44 72.5107C36.1869 72.5107 29.8816 78.816 29.8816 86.6291H58.2554C58.1184 78.816 51.8131 72.5107 44 72.5107Z" fill="#FFBF5D"/>
<path d="M59.4891 87.9998H28.5109V86.6291C28.5109 78.1307 35.5015 71.14 44 71.14C52.6355 71.14 59.4891 78.1307 59.4891 86.6291V87.9998ZM31.2523 85.2584H56.7476C56.0623 78.816 50.5794 73.8814 44 73.8814C37.4205 73.8814 31.9377 78.9531 31.2523 85.2584Z" fill="#193651"/>
<path d="M72.3738 52.6355C77.0673 52.6355 80.8722 48.8306 80.8722 44.1371C80.8722 39.4435 77.0673 35.6386 72.3738 35.6386C67.6802 35.6386 63.8753 39.4435 63.8753 44.1371C63.8753 48.8306 67.6802 52.6355 72.3738 52.6355Z" fill="white"/>
<path d="M72.3738 54.0063C66.8909 54.0063 62.5046 49.62 62.5046 44.1371C62.5046 38.6542 66.8909 34.2679 72.3738 34.2679C77.8566 34.2679 82.2429 38.6542 82.2429 44.1371C82.2429 49.4829 77.7196 54.0063 72.3738 54.0063ZM72.3738 37.0094C68.3987 37.0094 65.246 40.162 65.246 44.1371C65.246 48.1122 68.3987 51.2648 72.3738 51.2648C76.3488 51.2648 79.5015 48.1122 79.5015 44.1371C79.5015 40.162 76.2118 37.0094 72.3738 37.0094Z" fill="#193651"/>
<path d="M72.3738 58.3927C64.5608 58.3927 58.2555 64.698 58.2555 72.5111H86.4922C86.4922 64.698 80.1869 58.3927 72.3738 58.3927Z" fill="#FFBF5D"/>
<path d="M87.863 73.8818H56.7477V72.5111C56.7477 64.0126 63.7384 57.022 72.2368 57.022C80.7353 57.022 87.863 63.8756 87.863 72.5111V73.8818ZM59.6262 71.1404H85.1215C84.4362 64.698 78.9533 59.7634 72.3739 59.7634C65.7944 59.7634 60.3116 64.698 59.6262 71.1404Z" fill="#193651"/>
<path d="M34.8162 37.4206L33.9938 41.2586L39.3396 43.4518L41.2586 39.8879C43.5888 40.2991 45.7819 40.2991 47.9751 39.7508L50.0312 43.1776L55.2399 40.8474L54.0062 37.1465C55.7882 35.9128 57.433 34.1309 58.6667 32.2119L62.5047 33.1714L64.5607 27.6885L61.134 25.7695C61.5452 23.4393 61.4081 21.1091 60.8598 18.7789L64.1495 16.7228L61.8193 11.5141L58.1184 12.6106C56.8847 10.6916 55.1028 9.04678 53.1838 7.81313L54.0062 3.97513L48.6604 1.78198L46.7414 5.34585C44.4112 4.93463 42.2181 4.93463 40.0249 5.48292L37.9689 2.05613L32.7601 4.38634L33.8567 8.22435C32.0748 9.45799 30.4299 11.2399 29.1963 13.1589L25.3583 12.1994L23.3022 17.6823L26.729 19.6013C26.3178 21.9315 26.4548 24.2617 27.0031 26.592L23.7134 28.648L26.0436 33.9938L29.7446 32.8972C31.2523 34.5421 32.8972 36.187 34.8162 37.4206Z" fill="white"/>
<path d="M39.8879 45.2336L32.349 42.2181L33.3085 38.1059C31.8007 37.0093 30.567 35.7757 29.3334 34.2679L25.3583 35.3645L22.0686 27.8255L25.6324 25.6324C25.3583 23.8505 25.2212 21.9315 25.4954 20.1495L21.7944 18.0935L24.6729 10.4174L28.7851 11.514C29.8817 10.0062 30.9782 8.77259 32.486 7.53894L31.2524 3.42679L38.5172 0.137072L40.7103 3.83801C42.4923 3.56386 44.2742 3.56386 46.0561 3.70093L48.1122 0L55.6511 3.01558L54.6916 7.12773C56.1994 8.2243 57.5701 9.45794 58.6667 10.9657L62.6418 9.86916L65.9315 17.4081L62.3676 19.6012C62.6418 21.3832 62.7789 23.3022 62.5047 25.0841L66.2057 27.1402L63.3271 34.8162L59.215 33.7196C58.1184 35.2274 57.0218 36.4611 55.5141 37.6947L56.7477 41.8069L49.4829 45.0966L47.2898 41.3956C45.5078 41.6698 43.7259 41.6698 41.944 41.5327L39.8879 45.2336ZM35.5016 40.5732L38.6542 41.8069L40.4362 38.5171L41.3957 38.6542C43.4518 39.0654 45.6449 39.0654 47.5639 38.5171L48.5234 38.243L50.4424 41.5327L53.458 40.162L52.3614 36.4611L53.1838 35.9128C54.9658 34.6791 56.3365 33.1713 57.4331 31.3894L57.9813 30.567L61.5452 31.5265L62.7789 28.3738L59.4891 26.4548L59.6262 25.4953C60.0374 23.3022 59.9004 21.2461 59.4891 19.053L59.215 18.0935L62.3676 16.1745L60.9969 13.0218L57.4331 13.9813L56.8848 13.1589C55.6511 11.3769 54.1433 9.86916 52.3614 8.63551L51.6761 8.36137L52.4985 4.66044L49.3458 3.42679L47.5639 6.71651L46.6044 6.57944C44.5483 6.16822 42.3552 6.16822 40.4362 6.71651L39.4767 6.99065L37.5577 3.70093L34.5421 5.07165L35.6387 8.77259L34.8162 9.32087C33.0343 10.5545 31.6636 12.0623 30.567 13.8442L30.0187 14.6667L26.4549 13.7072L25.2212 16.8598L28.5109 18.7788L28.3739 19.7383C27.9627 21.9315 28.0997 23.9875 28.5109 26.1807L28.7851 27.1402L25.4954 28.9221L26.8661 32.0748L30.4299 31.1153L30.9782 31.9377C32.2119 33.7196 33.7197 35.2274 35.5016 36.4611L36.324 37.0093L35.5016 40.5732Z" fill="#193651"/>
<path d="M44 31.5265C48.9206 31.5265 52.9096 27.5375 52.9096 22.6168C52.9096 17.6961 48.9206 13.7072 44 13.7072C39.0793 13.7072 35.0903 17.6961 35.0903 22.6168C35.0903 27.5375 39.0793 31.5265 44 31.5265Z" fill="white"/>
<path d="M44 32.897C42.7664 32.897 41.5327 32.6229 40.4362 32.2117C37.8318 31.2522 35.7757 29.3332 34.6792 26.8659C33.5826 24.3986 33.4455 21.5201 34.405 18.9157C35.9128 14.9407 39.7508 12.1992 44.1371 12.1992C45.3708 12.1992 46.6044 12.4734 47.701 12.8846C53.0468 14.9407 55.7882 20.8347 53.7321 26.1805C52.2243 30.2927 48.2493 32.897 44 32.897ZM44 15.0777C40.8474 15.0777 37.9689 16.9967 36.8723 20.0123C36.1869 21.9313 36.1869 23.9874 37.0094 25.7693C37.8318 27.5512 39.3396 29.059 41.2586 29.7444C42.081 30.0185 43.0405 30.2927 43.863 30.2927C47.0156 30.2927 49.8941 28.3737 50.9907 25.3581C52.4985 21.383 50.4424 17.1338 46.6044 15.626C45.782 15.2148 44.9595 15.0777 44 15.0777Z" fill="#193651"/>
</svg>
