<svg width="86" height="86" viewBox="0 0 86 86" fill="none" xmlns="http://www.w3.org/2000/svg">
<g clip-path="url(#clip0)">
<path d="M57.035 36.172C57.4367 33.2265 57.4367 30.281 56.9011 27.3356L62.5243 23.7207L59.0433 15.8214L52.6168 17.5619C50.8763 15.152 48.7341 13.0099 46.1903 11.4032L47.663 4.84288L39.63 1.62964L36.2828 7.38669C33.3374 6.98504 30.3919 6.98504 27.4464 7.52058L23.8315 1.89741L15.7984 5.5123L17.5389 11.9388C15.129 13.6793 12.9868 15.8214 11.3802 18.3653L4.81987 16.8925L1.60663 24.9256L7.36368 28.2727C6.96203 31.2182 6.96203 34.1637 7.49757 37.1091L1.8744 40.724L5.48929 48.6233L11.9158 47.0166C13.6563 49.4266 15.7984 51.5687 18.3422 53.1753L16.8695 59.7357L24.9026 62.9489L28.2497 57.1919C31.1952 57.5935 34.1407 57.5936 37.0861 57.058L40.701 62.6812L48.6002 59.2002L46.9936 52.5059C49.4036 50.7654 51.5457 48.6233 53.1523 46.0794L59.7127 47.5522L62.9259 39.5191L57.035 36.172Z" fill="#FDBF5E"/>
<path d="M32.1323 47.6862C40.7097 47.6862 47.663 40.7329 47.663 32.1555C47.663 23.5782 40.7097 16.6249 32.1323 16.6249C23.555 16.6249 16.6017 23.5782 16.6017 32.1555C16.6017 40.7329 23.555 47.6862 32.1323 47.6862Z" fill="white"/>
<path d="M42.3076 65.3586L65.3358 42.3304C70.4235 43.937 76.1805 42.5982 80.3309 38.5816C84.3475 34.5651 85.5525 28.808 84.0797 23.5865L72.4317 35.2345L62.5243 25.327L74.1722 13.679C69.0846 12.0724 63.3276 13.4113 59.1771 17.4278C55.1606 21.4444 53.9556 27.2014 55.4283 32.4229L32.2662 55.4511C27.1786 53.8445 21.4216 55.1834 17.2711 59.1999C13.2546 63.2165 12.0496 68.9735 13.5223 74.195L25.1703 62.547L35.0778 72.4545L23.4298 84.1025C28.5175 85.7091 34.2745 84.3703 38.425 80.3537C42.5754 76.2033 43.7804 70.4462 42.3076 65.3586Z" fill="white"/>
<path d="M57.035 61.2081L61.1854 56.9237L40.0316 35.7699L40.4332 32.0211L28.7852 24.6575L24.6348 28.8079L31.9985 40.5898L35.8811 40.0542L57.035 61.2081Z" fill="white"/>
<path d="M66.4069 57.7274V55.5852C66.4069 54.1125 64.6664 53.4431 63.5954 54.3803L54.4912 63.4844C53.4201 64.5555 54.2234 66.296 55.6962 66.296H57.7044C59.0433 66.296 60.3821 66.6977 61.4532 67.501C61.5871 67.6349 61.721 67.7688 61.8549 67.9026C63.1937 69.2415 63.7292 70.982 63.5954 72.5886L63.8631 72.8564L72.8334 81.8267C75.2433 84.2366 79.2599 84.2366 81.8037 81.8267C84.3475 79.2829 84.3475 75.4002 81.8037 72.8564L72.8334 63.8861L72.5656 63.6183C70.959 63.7522 69.2185 63.2167 67.8797 61.8778C67.7458 61.7439 67.6119 61.6101 67.478 61.4762C66.6747 60.4051 66.4069 59.0662 66.4069 57.7274Z" fill="#F16051"/>
<path d="M73.2351 62.2798H72.5656C71.2268 62.4137 69.8879 61.8782 68.9508 60.941C68.8169 60.8071 68.683 60.6732 68.683 60.5393C68.0136 59.736 67.7458 58.7988 67.7458 57.5938V55.4517C67.7458 54.6484 67.478 53.8451 66.9425 53.3095C65.8714 52.2384 63.8631 52.1046 62.792 53.3095L61.1854 55.05L57.8383 51.7029L65.7375 43.8037C67.0764 44.0715 68.4152 44.3392 69.7541 44.3392C74.1723 44.3392 78.1888 42.5987 81.2682 39.5194C85.5525 35.2351 87.0252 29.0763 85.2847 23.1854L84.6153 21.0433L72.2979 33.3607L64.2648 25.3276L76.5822 13.0102L74.44 12.3407C72.9673 11.9391 71.3607 11.6713 69.7541 11.6713C66.273 11.6713 62.9259 12.7424 60.1143 14.8845L59.8466 14.2151L53.1523 15.9556C51.5457 13.9473 49.8052 12.2068 47.7969 10.7341L49.2697 4.03986L39.0944 0.0233154L35.6134 5.91425C33.0696 5.64648 30.5258 5.64648 28.1158 6.04814L24.2332 0.291085L14.1918 4.70929L15.9323 11.4035C13.924 13.0102 12.1835 14.7507 10.7108 16.7589L4.01655 15.2862L0 25.4615L5.89094 28.9425C5.62317 31.4863 5.62317 34.0301 6.02482 36.44L0.26777 40.1888L4.68597 50.2302L11.3802 48.4897C12.9868 50.4979 14.7273 52.2384 16.7356 53.7112L15.5307 59.2005C11.9158 63.3509 10.7108 69.1079 12.3174 74.4633L12.9868 76.6055L25.3043 64.2881L33.3374 72.3212L21.0199 84.6386L23.1621 85.308C24.6348 85.7097 26.2414 85.9774 27.8481 85.9774C32.2663 85.9774 36.2828 84.2369 39.3622 81.1576C43.3787 77.141 44.9853 71.2501 43.6465 65.6269L51.6796 57.5938L55.0267 60.941L53.554 62.4137C52.7507 63.217 52.4829 64.5559 52.8846 65.6269C53.2862 66.698 54.3573 67.5013 55.6961 67.5013H57.8383C58.9094 67.5013 59.9805 67.7691 60.7838 68.4385C60.9177 68.5724 61.0515 68.5724 61.1854 68.7063C62.2565 69.6435 62.6582 70.9823 62.5243 72.3212V72.9906L72.164 82.6303C73.6367 84.1031 75.5111 84.9064 77.5194 84.9064C79.5277 84.9064 81.5359 84.1031 83.0087 82.6303C85.9541 79.6849 86.088 74.7311 83.0087 71.7856L73.2351 62.2798ZM71.3607 14.4829L60.516 25.3276L72.4318 37.2433L83.2764 26.3986C83.812 30.5491 82.3392 34.6995 79.3938 37.645C76.85 40.1888 73.3689 41.6615 69.7541 41.6615C68.4152 41.6615 67.0764 41.5276 65.7375 41.126L64.9342 40.8582L55.9639 49.8285L47.9308 41.7954L56.9011 32.8251L56.6333 32.0218C55.1606 27.202 56.4995 21.9804 59.9805 18.3656C62.5243 15.8217 66.0053 14.349 69.6202 14.349C70.2896 14.349 70.8251 14.349 71.3607 14.4829ZM12.9868 46.2136L12.4513 45.4103L6.29259 47.0169L3.74878 41.126L9.10418 37.645L8.97029 36.7078C8.43475 33.8962 8.30087 31.0846 8.83641 28.273L8.97029 27.3358L3.48101 24.1226L5.75705 18.2317L12.0496 19.5705L12.5852 18.7672C14.1918 16.3573 16.0662 14.349 18.3422 12.7424L19.1455 12.2068L17.5389 6.04814L23.4299 3.50432L26.9109 8.85972L27.8481 8.72584C30.5258 8.1903 33.4712 8.05641 36.2828 8.59195L37.22 8.72584L40.4333 3.23655L46.3242 5.5126L44.9853 11.8052L45.7887 12.3407C48.1986 13.9473 50.2069 15.8217 51.8135 18.0978L52.349 18.9011L57.4366 17.5622C54.0895 21.5788 52.8846 26.8003 54.2234 31.8879L46.3242 39.7871L41.7721 35.2351L42.1738 31.2185L28.7853 22.9176L22.8943 28.6747L31.3291 41.9293L35.4795 41.3938L40.0316 45.812L32.1324 53.7112C30.7935 53.4434 29.4547 53.1756 28.1158 53.1756C24.9026 53.1756 21.8232 54.1128 19.1455 55.8533L19.9489 52.2384L19.1455 51.7029C16.6017 50.4979 14.5935 48.4897 12.9868 46.2136ZM40.701 64.9575L40.9688 65.7608C42.4415 70.5807 41.1027 75.8022 37.6217 79.4171C35.0779 81.9609 31.5968 83.4336 27.982 83.4336C27.4464 83.4336 26.9109 83.4336 26.3753 83.2998L37.22 72.4551L25.3043 60.5393L14.4596 71.384C13.924 67.2336 15.3968 63.0831 18.3422 60.1377C20.8861 57.5938 24.3671 56.1211 27.982 56.1211C29.3208 56.1211 30.6597 56.255 31.9985 56.6566L32.8018 56.9244L41.906 47.8202L49.9391 55.8533L40.701 64.9575ZM36.4167 38.5822L32.6679 39.1177L26.3753 29.0763L29.053 26.3986L39.0944 32.6912L38.6928 36.3061L59.311 56.9244L57.035 59.2005L36.4167 38.5822ZM80.8665 80.7559C78.9921 82.6303 75.645 82.6303 73.7706 80.7559L65.0681 72.0534C65.0681 70.179 64.2648 68.3046 62.9259 66.9658C62.792 66.8319 62.5243 66.5641 62.3904 66.4303C61.1854 65.4931 59.5788 64.9575 57.7044 64.9575H55.6961C55.5623 64.9575 55.4284 64.9575 55.4284 64.8236C55.4284 64.6897 55.4284 64.5559 55.4284 64.5559L56.9011 63.0831L63.0598 56.9244L64.5325 55.4517C64.6664 55.3178 64.8003 55.3178 64.9342 55.4517L65.0681 55.5856V57.7277C65.0681 59.4682 65.6036 61.0749 66.6747 62.4137C66.8086 62.5476 66.9425 62.8154 67.2103 62.9492C68.5491 64.2881 70.4235 65.0914 72.2979 65.0914L81.0004 73.7939C82.8748 75.6683 82.8748 78.8815 80.8665 80.7559Z" fill="#193651"/>
<path d="M38.0085 57.7314L39.9019 59.6248L41.7953 57.7314L39.9019 55.838L38.0085 57.7314Z" fill="#193651"/>
<path d="M57.8354 37.9785L55.942 39.8719L57.8354 41.7654L59.7289 39.8719L57.8354 37.9785Z" fill="#193651"/>
</g>
<defs>
<clipPath id="clip0">
<rect width="86" height="86" fill="white"/>
</clipPath>
</defs>
</svg>
