<svg width="21" height="21" viewBox="0 0 21 21" fill="none" xmlns="http://www.w3.org/2000/svg">
<path d="M19.8554 1.1454C19.4986 0.77641 19.0699 0.484441 18.5959 0.287512C18.1219 0.0905829 17.6126 -0.00712919 17.0994 0.00040476H4.09035C3.5778 -0.00652178 3.06925 0.0914836 2.59598 0.288393C2.12271 0.485302 1.69473 0.776952 1.33835 1.1454C0.968989 1.50187 0.676567 1.93022 0.479124 2.40405C0.281681 2.87788 0.183404 3.38713 0.190354 3.9004V16.9004C0.182743 17.4138 0.280415 17.9233 0.477345 18.3975C0.674275 18.8717 0.966284 19.3005 1.33535 19.6574C1.69165 20.0271 2.11992 20.3199 2.59376 20.5177C3.0676 20.7155 3.57694 20.8141 4.09035 20.8074H17.0904C18.1241 20.8053 19.1148 20.3937 19.8457 19.6628C20.5767 18.9319 20.9882 17.9411 20.9904 16.9074V3.9004C20.999 3.38807 20.9028 2.87938 20.7076 2.40561C20.5124 1.93183 20.2224 1.50298 19.8554 1.1454ZM6.53335 17.4204H3.40335V8.0204H6.53335V17.4204ZM6.24835 6.2794C6.07521 6.43825 5.87237 6.56129 5.65149 6.64144C5.43062 6.72158 5.19607 6.75726 4.96135 6.7464H4.94835C4.71808 6.75672 4.48809 6.7207 4.27199 6.64048C4.0559 6.56027 3.85811 6.43748 3.69035 6.2794C3.53394 6.13054 3.41036 5.95063 3.32753 5.75122C3.2447 5.5518 3.20445 5.33728 3.20935 5.1214C3.20345 4.90317 3.2445 4.6862 3.32972 4.48521C3.41495 4.28421 3.54237 4.10388 3.70335 3.9564C4.05504 3.63947 4.51742 3.47384 4.99035 3.4954C5.22049 3.48453 5.45047 3.5197 5.66684 3.59886C5.8832 3.67802 6.08158 3.79958 6.25035 3.9564C6.40649 4.10731 6.53028 4.28843 6.61418 4.48871C6.69808 4.689 6.74032 4.90427 6.73835 5.1214C6.74274 5.33803 6.70136 5.55315 6.61693 5.75269C6.53249 5.95224 6.4069 6.13172 6.24835 6.2794ZM17.7904 17.4204H14.6604V12.3954C14.6604 10.9781 14.1367 10.2691 13.0894 10.2684C12.7273 10.2574 12.373 10.3751 12.0894 10.6004C11.823 10.815 11.6135 11.0918 11.4794 11.4064C11.4044 11.6517 11.3723 11.9082 11.3844 12.1644V17.4204H8.25335C8.28069 11.7491 8.28069 8.61574 8.25335 8.0204H11.3824V9.3464C11.6686 8.86048 12.0804 8.46054 12.5745 8.18853C13.0685 7.91652 13.6267 7.78246 14.1904 7.80041C14.6775 7.78026 15.1633 7.86542 15.6146 8.05008C16.0659 8.23473 16.472 8.51453 16.8054 8.8704C17.5237 9.75873 17.8772 10.887 17.7944 12.0264V17.4204H17.7904Z" fill="white"/>
</svg>
