<svg width="20" height="20" viewBox="0 0 20 20" fill="none" xmlns="http://www.w3.org/2000/svg">
<path fill-rule="evenodd" clip-rule="evenodd" d="M19.5594 19.5242H15.6051V13.3375C15.6051 11.8613 15.5804 9.96416 13.5508 9.96416C11.4937 9.96416 11.1794 11.5718 11.1794 13.2308V19.5242H7.22894V6.80035H11.0194V8.54035H11.0747C11.6013 7.54035 12.8918 6.48511 14.8156 6.48511C18.8194 6.48511 19.5585 9.1194 19.5585 12.5461V19.5242H19.5594ZM2.77085 5.06321C2.46949 5.06346 2.17104 5.00428 1.89257 4.88907C1.6141 4.77386 1.36108 4.60488 1.14799 4.39178C0.934891 4.17869 0.765905 3.92567 0.650695 3.6472C0.535485 3.36873 0.476313 3.07028 0.476563 2.76892C0.476563 2.31542 0.611017 1.87211 0.862928 1.49501C1.11484 1.11791 1.4729 0.823971 1.89184 0.650339C2.31078 0.476706 2.77179 0.431179 3.2166 0.519514C3.66141 0.607848 4.07005 0.826078 4.39085 1.14662C4.71166 1.46715 4.93023 1.87561 5.01893 2.32035C5.10764 2.76508 5.06249 3.22614 4.88921 3.64522C4.71592 4.06431 4.42228 4.42261 4.04539 4.67483C3.6685 4.92705 3.2253 5.06188 2.7718 5.06225L2.77085 5.06321ZM4.74894 19.5242H0.790849V6.80035H4.74894V19.5242Z" fill="white"/>
</svg>
