<svg width="116" height="109" viewBox="0 0 116 109" fill="none" xmlns="http://www.w3.org/2000/svg">
<g clip-path="url(#clip0_1594_1991)">
<path d="M15.7866 109C15.7866 95.8678 18.3732 82.8642 23.3987 70.7317C28.4241 58.5991 35.7901 47.5752 45.0759 38.2893C54.3618 29.0035 65.3857 21.6375 77.5183 16.612C89.6508 11.5866 102.654 9 115.787 9L115.787 109L15.7866 109Z" fill="#FFEEFA"/>
<path d="M10.2168 7.25802C10.8765 12.8278 13.4964 18.3149 16.3006 23.0983C18.6946 27.1879 22.025 30.1224 26.2919 31.7962C33.8841 34.7703 45.149 36.2206 51.4566 29.9279C57.3563 24.0399 49.0308 13.2326 41.9252 14.7505C38.6149 15.4618 37.8187 20.2333 37.6825 23.1958C37.4197 28.9212 40.0177 34.342 42.6336 39.2786C45.595 44.8653 49.327 49.9176 54.1338 53.913C55.9155 55.3948 57.4037 56.2149 59.4529 57.0591C60.6401 57.5519 64.0893 58.6203 64.0943 60.3248C64.095 60.7261 65.0605 60.3017 65.0551 59.9124C65.0447 57.9592 61.5909 56.9379 60.2628 56.3878C56.986 55.0324 54.4476 53.0152 51.8764 50.3993C48.6123 47.0659 45.972 43.2437 43.7512 39.0925C41.4578 34.7956 39.1601 30.2294 38.7029 25.2936C38.4943 23.0107 38.7185 20.7145 39.3905 18.5593C39.7485 17.4074 39.8674 17.4686 40.9443 16.5113C42.2212 15.3709 42.0989 15.301 43.6697 15.5751C44.7072 15.7534 45.7458 16.0868 46.6871 16.6011C49.9415 18.3824 53.6266 23.0123 52.4377 27.0276C51.0946 31.5634 45.1237 33.0437 41.1339 33.4237C36.3843 33.8719 31.5176 32.8527 27.0257 31.0762C22.715 29.3753 19.4067 26.3664 17.0369 22.1965C14.3734 17.5055 11.8249 12.2549 11.18 6.83961C11.1251 6.42061 10.1734 6.87944 10.2168 7.25802Z" fill="#2E2E2E"/>
</g>
<defs>
<clipPath id="clip0_1594_1991">
<rect width="116" height="109" fill="white"/>
</clipPath>
</defs>
</svg>
