<svg width="60" height="60" viewBox="0 0 60 60" fill="none" xmlns="http://www.w3.org/2000/svg">
<path d="M12.5756 41.8182C11.0695 41.8182 9.84836 43.0393 9.84836 44.5455C9.84836 46.0516 11.0695 47.2727 12.5756 47.2727H30.0004C31.5065 47.2727 32.7276 46.0516 32.7276 44.5455V32.7273H41.8182V44.5455C41.8182 46.0516 43.0393 47.2727 44.5455 47.2727C46.0516 47.2727 47.2727 46.0516 47.2727 44.5455V13.0085C47.2727 11.5024 46.0516 10.2813 44.5455 10.2813C43.0393 10.2813 41.8182 11.5024 41.8182 13.0085V27.2727H5.45455V5.45455H19.1058C20.612 5.45455 21.8331 4.23345 21.8331 2.72727C21.8331 1.22109 20.612 0 19.1058 0H2.72727C1.22109 0 0 1.22109 0 2.72727V57.2727C0 58.7789 1.22109 60 2.72727 60H30C31.5062 60 32.7273 58.7789 32.7273 57.2727C32.7273 55.7665 31.5062 54.5455 30 54.5455H5.45455V32.7273H27.2731V41.8182H12.5756Z" fill="white"/>
<path d="M57.2727 0H30.0004C28.4942 0 27.2731 1.22109 27.2731 2.72727V14.5455H13.6364C12.1302 14.5455 10.9091 15.7665 10.9091 17.2727C10.9091 18.7789 12.1302 20 13.6364 20H30.0004C31.5065 20 32.7276 18.7789 32.7276 17.2727V5.45455H54.5454V54.5455H40.9091C39.4029 54.5455 38.1818 55.7665 38.1818 57.2727C38.1818 58.7789 39.4029 60 40.9091 60H57.2727C58.7789 60 60 58.7789 60 57.2727V2.72727C60 1.22109 58.7789 0 57.2727 0Z" fill="white"/>
</svg>
