<svg width="12" height="11" viewBox="0 0 12 11" fill="none" xmlns="http://www.w3.org/2000/svg">
<path d="M11.7258 2.27222C12 3.35812 12 5.625 12 5.625C12 5.625 12 7.89188 11.7258 8.97778C11.5734 9.57802 11.1276 10.0503 10.563 10.2099C9.5376 10.5 6 10.5 6 10.5C6 10.5 2.4642 10.5 1.437 10.2099C0.87 10.0478 0.4248 9.57619 0.2742 8.97778C2.55448e-08 7.89188 0 5.625 0 5.625C0 5.625 2.55448e-08 3.35812 0.2742 2.27222C0.4266 1.67198 0.8724 1.19972 1.437 1.04006C2.4642 0.75 6 0.75 6 0.75C6 0.75 9.5376 0.75 10.563 1.04006C11.13 1.20216 11.5752 1.67381 11.7258 2.27222ZM4.8 7.75781L8.4 5.625L4.8 3.49219V7.75781Z" fill="#003681"/>
</svg>
