<svg width="18" height="18" viewBox="0 0 18 18" fill="none" xmlns="http://www.w3.org/2000/svg">
<path d="M16.1999 12.5757C15.4231 12.5757 14.7789 13.0603 14.5325 13.7314H13.1304C12.9409 13.7314 12.7894 13.5822 12.7894 13.3959V9.92877H13.5094C15.3473 9.92877 16.8441 8.45624 16.8441 6.64807C16.8441 4.83994 15.3474 3.36737 13.5094 3.36737C13.2631 3.36737 13.0168 3.40469 12.7894 3.44188C12.0316 2.00652 10.5158 1 8.73467 1C6.6126 1 4.83151 2.45396 4.33888 4.39258C4.22522 4.37398 4.11155 4.35526 3.97885 4.35526C2.42509 4.35526 1.15565 5.60418 1.15565 7.13273C1.15565 8.66132 2.42513 9.91021 3.97885 9.91021L5.21049 9.91008V13.4145C5.21049 13.601 5.0589 13.75 4.86951 13.75H3.46737C3.22101 13.0789 2.55793 12.5943 1.79997 12.5943C0.814669 12.5943 0 13.3772 0 14.3651C0 15.353 0.79579 16.1359 1.79997 16.1359C2.57684 16.1359 3.22102 15.6513 3.46737 14.9802H4.86951C5.74115 14.9802 6.44214 14.2906 6.44214 13.4331L6.44201 9.92865H8.37467V14.5888C7.69257 14.8311 7.19997 15.4835 7.19997 16.2292C7.19997 17.1985 7.99576 18 8.99994 18C9.98523 18 10.7999 17.2171 10.7999 16.2292C10.7999 15.4649 10.3073 14.8311 9.6252 14.5888V9.92865H11.5579V13.4144C11.5579 14.272 12.2589 14.9616 13.1305 14.9616H14.5326C14.779 15.6327 15.4421 16.1173 16.2 16.1173C17.1853 16.1173 18 15.3344 18 14.3465C17.9999 13.3585 17.2041 12.5755 16.1999 12.5755L16.1999 12.5757ZM8.99993 8.36293C8.6399 8.36293 8.35575 8.08338 8.35575 7.72919C8.35575 7.375 8.63991 7.09544 8.99993 7.09544C9.35995 7.09544 9.64411 7.375 9.64411 7.72919C9.64411 8.08338 9.35995 8.36293 8.99993 8.36293ZM10.6862 6.61069C10.6105 6.6852 10.5158 6.72251 10.421 6.72251C10.3262 6.72251 10.2315 6.6852 10.1557 6.61069C9.53047 5.99555 8.46942 5.99555 7.86304 6.61069C7.71144 6.75983 7.46507 6.75983 7.31363 6.61069C7.16203 6.46155 7.16203 6.21917 7.31363 6.07018C8.22307 5.17547 9.7957 5.17547 10.7052 6.07018C10.8379 6.21932 10.8379 6.46157 10.6863 6.61069H10.6862ZM11.9178 5.39912C11.842 5.47363 11.7473 5.51095 11.6525 5.51095C11.5577 5.51095 11.463 5.47363 11.3872 5.39912C10.762 4.78398 9.90935 4.42978 8.99991 4.42978C8.09047 4.42978 7.25675 4.76524 6.61258 5.39912C6.46098 5.54826 6.21461 5.54826 6.06317 5.39912C5.91157 5.24998 5.91157 5.00761 6.06317 4.85861C6.84005 4.09432 7.88219 3.66562 8.981 3.66562C10.0799 3.66562 11.141 4.09432 11.8988 4.85861C12.0693 5.00763 12.0693 5.25 11.9177 5.39912H11.9178Z" fill="#8A8886"/>
</svg>
