<svg width="18" height="18" viewBox="0 0 18 18" fill="none" xmlns="http://www.w3.org/2000/svg">
<g clip-path="url(#clip0_3203_5319)">
<path d="M7.27214 13.8007C7.65447 13.6521 8.08529 13.4201 8.56659 13.0945C8.41205 12.5649 8.12662 12.0658 7.70976 11.6489C7.16751 11.1066 6.47407 10.7713 5.72469 10.6799C5.40399 11.2813 5.21081 11.7978 5.1272 12.2343C6.04171 12.4335 6.8153 13.0141 7.27214 13.8007Z" fill="#8A8886"/>
<path d="M4.4449 17.9994C5.8468 17.9899 6.9804 16.8509 6.9804 15.4467C6.9804 14.0367 5.83736 12.8937 4.42734 12.8937C3.0236 12.8937 1.8839 14.0328 1.87376 15.4341C1.87376 15.4334 1.87376 15.4328 1.87376 15.4328C1.87376 15.4328 1.87376 15.4333 1.87376 15.4345C1.87376 16.0161 1.10571 17.9998 0 17.9998H4.4449V17.9994Z" fill="#8A8886"/>
<path d="M17.92 0.0649248L17.92 0.0649983L17.9128 0.0584595L17.9129 0.058386C17.3462 -0.458838 12.5188 2.51542 8.84828 6.51807C7.61888 7.87149 6.72722 9.02716 6.12036 9.99857C6.91416 10.1562 7.64397 10.5443 8.22915 11.1295C8.67089 11.5712 8.99125 12.089 9.19079 12.641C10.0818 11.952 11.12 10.9812 12.313 9.68034C15.9646 5.66039 18.4868 0.582186 17.92 0.0649248Z" fill="#8A8886"/>
</g>
<defs>
<clipPath id="clip0_3203_5319">
<rect width="18" height="18" fill="white"/>
</clipPath>
</defs>
</svg>
