<svg width="18" height="18" viewBox="0 0 18 18" fill="none" xmlns="http://www.w3.org/2000/svg">
<path fill-rule="evenodd" clip-rule="evenodd" d="M14.0655 9.3455C12.572 9.3455 11.3612 10.5554 11.3612 12.0478C11.3612 13.5401 12.572 14.75 14.0655 14.75C15.5589 14.75 16.7697 13.5401 16.7697 12.0478C16.7699 10.5554 15.5592 9.3455 14.0655 9.3455ZM5.36013 4.31631C5.47973 4.43009 5.4844 4.61915 5.37066 4.73867C5.2568 4.85818 5.0676 4.86284 4.94799 4.74919C4.2756 4.11274 3.15306 4.47606 2.9868 5.39045C2.95773 5.5526 2.80267 5.66038 2.64014 5.63134C2.47788 5.60229 2.37001 5.44734 2.39908 5.28494C2.65068 3.89958 4.34068 3.35158 5.36013 4.31635L5.36013 4.31631ZM4.94801 9.28581C5.06761 9.17203 5.25681 9.17683 5.37068 9.29634C5.48454 9.41585 5.47974 9.60491 5.36015 9.7187C4.35362 10.6712 2.65348 10.1506 2.39895 8.74997C2.36988 8.58782 2.47775 8.43287 2.64002 8.40357C2.80228 8.37452 2.95735 8.48231 2.98667 8.64445C3.15481 9.56976 4.28295 9.9151 4.948 9.28585L4.94801 9.28581ZM1.17321 8.68132C1.30001 8.57527 1.48855 8.59219 1.59469 8.71876C1.70082 8.84533 1.68389 9.03386 1.55722 9.13992C1.03095 9.58026 0.998153 10.3189 1.49029 10.7983C1.77562 11.0761 2.18203 11.19 2.56907 11.1025C2.73374 11.0529 2.90814 11.1529 2.94734 11.321C3.00614 11.5713 3.1452 11.7911 3.3356 11.951C3.42507 12.0262 3.52573 12.0883 3.6348 12.1345C3.62027 11.6844 3.77733 11.2453 4.07505 10.9073C4.18438 10.7831 4.37358 10.7713 4.49772 10.8804C4.62199 10.9896 4.63385 11.1787 4.52465 11.3027C4.33426 11.5188 4.23332 11.788 4.23332 12.0758C4.23332 12.7223 4.75771 13.2465 5.40491 13.2465C6.04863 13.2465 6.5765 12.719 6.5765 12.0758V8.46442C6.5765 7.81784 6.05211 7.29371 5.40491 7.29371C4.96865 7.29371 4.57465 7.53046 4.36972 7.91525C4.29212 8.06127 4.11065 8.11684 3.96452 8.03916C3.81839 7.96162 3.76279 7.78029 3.84052 7.63426C3.90586 7.51129 3.98572 7.39711 4.07745 7.29345L1.26972 7.29372C0.564939 7.29372 0 7.86475 0 8.56771C0 8.99113 0.229335 9.37832 0.596001 9.58655C0.689201 9.23295 0.892666 8.91585 1.17319 8.68122L1.17321 8.68132ZM4.23333 1.91229C4.23333 2.19994 4.33452 2.4692 4.52466 2.68531C4.63399 2.80948 4.62186 2.99854 4.49773 3.10767C4.37346 3.21692 4.18426 3.2048 4.07505 3.08075C3.77732 2.74274 3.62026 2.30361 3.6348 1.85356C3.2904 1.99905 3.03307 2.30214 2.94733 2.66696C2.90813 2.83483 2.73373 2.93503 2.56906 2.88546C2.1824 2.79793 1.77666 2.91091 1.49028 3.18963C0.997874 3.66888 1.03095 4.40766 1.55721 4.84799C1.68401 4.95404 1.70081 5.14243 1.59468 5.26915C1.48855 5.39587 1.30001 5.41264 1.1732 5.30659C0.892669 5.07197 0.68933 4.75486 0.59601 4.40154C0.229487 4.60992 9.63539e-06 4.9971 9.63539e-06 5.42051C9.63539e-06 6.12344 0.564949 6.6945 1.26973 6.6945H4.0776C3.98587 6.59085 3.906 6.47667 3.84067 6.35369C3.76307 6.20767 3.81853 6.02634 3.96467 5.9488C4.1108 5.87126 4.29227 5.92668 4.36986 6.0727C4.5748 6.45747 4.96894 6.69425 5.40506 6.69425C5.96931 6.69425 6.44039 6.2955 6.55173 5.76468L9.59078 5.78653C9.75625 5.78653 9.89038 5.65236 9.89038 5.48715V3.87914H10.817C10.926 4.09045 11.1461 4.23489 11.4002 4.23489C11.7623 4.23489 12.056 3.94164 12.056 3.57964C12.056 3.21779 11.7625 2.9244 11.4002 2.9244C11.1462 2.9244 10.9257 3.06882 10.817 3.28014H9.59076C9.42529 3.28014 9.29116 3.41431 9.29116 3.57952V5.18753L6.57664 5.16621V4.64808L8.27918 4.6686C8.44464 4.6686 8.57877 4.53443 8.57877 4.36922L8.57891 2.06603H9.64612C9.75505 2.27733 9.97518 2.42177 10.2293 2.42177C10.5914 2.42177 10.8851 2.12852 10.8851 1.76653C10.8851 1.40468 10.5916 1.11128 10.2293 1.11128C9.97532 1.11128 9.7548 1.25571 9.64612 1.46703H8.27905C8.11358 1.46703 7.97945 1.60119 7.97945 1.7664V4.0696L6.5765 4.04974V1.91241C6.5765 1.26918 6.04863 0.741699 5.40492 0.741699C4.75024 0.741832 4.23333 1.27385 4.23333 1.91241L4.23333 1.91229ZM6.47864 17.2587C6.11652 17.2587 5.82291 16.9655 5.82291 16.6035C5.82291 16.2417 6.11638 15.9483 6.47864 15.9483C6.73264 15.9483 6.95316 16.0927 7.06184 16.304H8.66464L8.66477 13.1659C8.66477 13.0006 8.79904 12.8666 8.96437 12.8666H10.217C10.1812 12.6972 10.1561 12.5239 10.1425 12.3475L7.95291 12.3474V14.7905C7.95291 14.9558 7.81865 15.0898 7.65332 15.0898H5.89132C5.78239 15.3011 5.56226 15.4456 5.30812 15.4456C4.946 15.4456 4.65239 15.1523 4.65239 14.7903C4.65239 14.4285 4.94586 14.1351 5.30812 14.1351C5.56212 14.1351 5.78264 14.2795 5.89132 14.4908H7.35359V12.0477C7.35359 11.8824 7.48786 11.7484 7.65319 11.7484H10.143C10.1693 11.4006 10.241 11.0655 10.352 10.7487H8.69265C8.58372 10.96 8.36359 11.1044 8.10945 11.1044C7.74733 11.1044 7.45372 10.8112 7.45372 10.4492C7.45372 10.0873 7.74719 9.79394 8.10945 9.79394C8.36345 9.79394 8.58397 9.93837 8.69265 10.1497H10.6204C11.2907 8.93767 12.5823 8.11669 14.0661 8.11669C16.2388 8.11669 18 9.87672 18 12.0476C18 14.2185 16.2387 15.9785 14.0661 15.9785C12.3936 15.9785 10.9652 14.9356 10.3958 13.4651H9.26459V16.6033C9.26459 16.7686 9.13032 16.9027 8.96499 16.9027H7.06234C6.95327 17.1141 6.73301 17.2585 6.47873 17.2585L6.47864 17.2587ZM15.2267 11.0201C15.2905 11.1725 15.2189 11.348 15.0661 11.4121C14.9136 11.4759 14.738 11.4043 14.6739 11.2516C14.5471 10.9496 14.2303 10.8238 13.9216 10.8859C13.7 10.9305 13.4887 11.0782 13.5009 11.3276C13.5151 11.6187 13.884 11.7038 14.1165 11.742C14.6831 11.8349 15.2435 12.0721 15.3216 12.7153C15.3248 12.7424 15.3269 12.7749 15.3277 12.8124C15.3413 13.3789 14.8744 13.7062 14.3655 13.7965V13.9473C14.3655 14.1127 14.2312 14.2467 14.0659 14.2467C13.9004 14.2467 13.7663 14.1125 13.7663 13.9473V13.7908C13.3058 13.6971 12.9288 13.3951 12.8119 12.9266C12.7724 12.7665 12.8704 12.6045 13.031 12.5652C13.1912 12.5257 13.3534 12.6237 13.3927 12.7841C13.4714 13.099 13.7991 13.2317 14.0983 13.2245C14.1274 13.224 14.1628 13.2209 14.2048 13.216C14.4152 13.1906 14.7373 13.0885 14.7311 12.8267C14.731 12.8195 14.7298 12.8061 14.7271 12.7859C14.688 12.4638 14.286 12.3757 14.0209 12.3321C13.4733 12.2425 12.9345 11.9833 12.9041 11.3561C12.8779 10.8185 13.2664 10.4256 13.7665 10.3098V10.1486C13.7665 9.98322 13.9007 9.84919 14.0661 9.84919C14.2315 9.84919 14.3657 9.98335 14.3657 10.1486V10.3054C14.7607 10.3926 15.0695 10.6462 15.2267 11.02L15.2267 11.0201ZM14.0657 8.7466C15.8904 8.7466 17.3696 10.2247 17.3696 12.048C17.3696 13.8713 15.8904 15.3494 14.0657 15.3494C12.241 15.3494 10.7619 13.8713 10.7619 12.048C10.7621 10.2246 12.2413 8.7466 14.0657 8.7466Z" fill="#8A8886"/>
</svg>
