<svg width="18" height="18" viewBox="0 0 18 18" fill="none" xmlns="http://www.w3.org/2000/svg">
<path d="M14.4523 5.61093V6.82657C15.9506 7.51036 16.899 8.46008 16.899 9.50481C16.899 10.5115 15.9696 11.4992 14.3574 12.2209C14.073 12.354 13.959 12.6768 14.073 12.9617C14.2058 13.2466 14.5282 13.3796 14.8127 13.2466C16.8422 12.3349 17.9991 10.9673 17.9991 9.50468C18.0182 7.89023 16.6336 6.48461 14.4522 5.61084L14.4523 5.61093Z" fill="#8A8886"/>
<path d="M9.08525 11.5752C8.93349 11.4613 8.70594 11.4613 8.53526 11.5372C8.36459 11.6322 8.25081 11.8031 8.25081 12.012V13.2466C4.3246 13.0567 1.11913 11.4232 1.11913 9.50472C1.11913 8.45999 2.0675 7.51028 3.56584 6.82648V5.61084C1.38468 6.48451 0 7.89013 0 9.50469C0 12.1069 3.56584 14.1583 8.26971 14.3482V15.6209C8.26971 15.8109 8.38349 16.0007 8.55416 16.0957C8.62998 16.1338 8.72484 16.1527 8.80078 16.1527C8.91456 16.1527 9.00942 16.1147 9.10428 16.0577L11.7407 14.2533C11.8925 14.1583 11.9683 13.9874 11.9683 13.8164C11.9683 13.6455 11.8734 13.4746 11.7407 13.3796L9.08525 11.5752Z" fill="#8A8886"/>
<path d="M13.0301 3.67344L9.69191 5.19303C9.6161 5.23105 9.57812 5.30697 9.57812 5.38303V9.99866C9.57812 10.1506 9.72988 10.2456 9.88163 10.1887L13.2198 8.66907C13.2956 8.63104 13.3336 8.55512 13.3336 8.47907V3.86344C13.3336 3.71147 13.1629 3.61647 13.0301 3.67344Z" fill="#8A8886"/>
<path d="M5.80379 2.81864L8.93331 4.24322C8.9902 4.26217 9.04709 4.26217 9.10399 4.24322L12.2335 2.81864C12.4042 2.74272 12.4042 2.5147 12.2335 2.43879L9.10399 1.01421C9.04709 0.995263 8.9902 0.995263 8.93331 1.01421L5.80379 2.43879C5.63311 2.51471 5.63311 2.7426 5.80379 2.81864Z" fill="#8A8886"/>
<path d="M4.81825 8.68812L8.15645 10.2077C8.28928 10.2647 8.45995 10.1697 8.45995 10.0177L8.46009 5.40207C8.46009 5.32615 8.40319 5.2501 8.32725 5.21207L4.98905 3.69249C4.85622 3.63552 4.68555 3.73051 4.68555 3.88249V8.49812C4.68555 8.57417 4.74244 8.65009 4.81825 8.68812Z" fill="#8A8886"/>
</svg>
