<svg width="18" height="18" viewBox="0 0 18 18" fill="none" xmlns="http://www.w3.org/2000/svg">
<path d="M14.9721 7.41507C14.9725 7.38966 14.9731 7.36429 14.9731 7.33879C14.9731 4.90945 13.0037 2.94006 10.5743 2.94006C8.48079 2.94006 6.72906 4.40264 6.28467 6.36174C5.87033 6.12979 5.39303 5.99696 4.88439 5.99696C3.29731 5.99696 2.01076 7.28356 2.01076 8.87059C2.01076 8.93546 2.01368 8.99958 2.01791 9.0634C0.839683 9.50077 0 10.6348 0 11.9653C0 13.6744 1.38555 15.06 3.09469 15.06H14.1316C16.2681 15.06 18 13.328 18 11.1916C18 9.34379 16.7044 7.79886 14.9721 7.41507Z" fill="#8A8886"/>
</svg>
