<svg width="20" height="22" viewBox="0 0 20 22" fill="none" xmlns="http://www.w3.org/2000/svg">
<path fill-rule="evenodd" clip-rule="evenodd" d="M14.1471 0C14.5717 0 14.9164 0.343812 14.9164 0.767438L14.9168 1.63496C16.4144 1.73739 17.6581 2.24915 18.5384 3.1292C19.4994 4.09208 20.0051 5.47654 20 7.13728V16.4724C20 19.8819 17.8297 22 14.3374 22H5.66254C2.17025 22 0 19.8522 0 16.3946V7.13523C0 3.91935 1.93543 1.85509 5.09197 1.63531L5.0926 0.767438C5.0926 0.343812 5.43721 0 5.86182 0C6.28644 0 6.63105 0.343812 6.63105 0.767438L6.63074 1.61571H13.3774L13.3779 0.767438C13.3779 0.343812 13.7225 0 14.1471 0ZM18.4615 9.11103H1.53846V16.3946C1.53846 19.0203 3.00307 20.4651 5.66254 20.4651H14.3374C16.9969 20.4651 18.4615 19.0469 18.4615 16.4724L18.4615 9.11103ZM14.5653 15.5496C14.9899 15.5496 15.3345 15.8934 15.3345 16.3171C15.3345 16.7407 14.9899 17.0845 14.5653 17.0845C14.1407 17.0845 13.7919 16.7407 13.7919 16.3171C13.7919 15.8934 14.1314 15.5496 14.556 15.5496H14.5653ZM10.014 15.5496C10.4386 15.5496 10.7832 15.8934 10.7832 16.3171C10.7832 16.7407 10.4386 17.0845 10.014 17.0845C9.5894 17.0845 9.24068 16.7407 9.24068 16.3171C9.24068 15.8934 9.58017 15.5496 10.0048 15.5496H10.014ZM5.45321 15.5496C5.87782 15.5496 6.22244 15.8934 6.22244 16.3171C6.22244 16.7407 5.87782 17.0845 5.45321 17.0845C5.0286 17.0845 4.67885 16.7407 4.67885 16.3171C4.67885 15.8934 5.01937 15.5496 5.44398 15.5496H5.45321ZM14.5653 11.5726C14.9899 11.5726 15.3345 11.9164 15.3345 12.34C15.3345 12.7636 14.9899 13.1074 14.5653 13.1074C14.1407 13.1074 13.7919 12.7636 13.7919 12.34C13.7919 11.9164 14.1314 11.5726 14.556 11.5726H14.5653ZM10.014 11.5726C10.4386 11.5726 10.7832 11.9164 10.7832 12.34C10.7832 12.7636 10.4386 13.1074 10.014 13.1074C9.5894 13.1074 9.24068 12.7636 9.24068 12.34C9.24068 11.9164 9.58017 11.5726 10.0048 11.5726H10.014ZM5.45321 11.5726C5.87782 11.5726 6.22244 11.9164 6.22244 12.34C6.22244 12.7636 5.87782 13.1074 5.45321 13.1074C5.0286 13.1074 4.67885 12.7636 4.67885 12.34C4.67885 11.9164 5.01937 11.5726 5.44398 11.5726H5.45321ZM13.3774 3.15059H6.63074L6.63105 4.13496C6.63105 4.55858 6.28644 4.9024 5.86182 4.9024C5.43721 4.9024 5.0926 4.55858 5.0926 4.13496L5.09205 3.17382C2.79439 3.36639 1.53846 4.75592 1.53846 7.13523V7.57615H18.4615L18.4615 7.13523C18.4656 5.87152 18.1251 4.8892 17.4492 4.21385C16.8558 3.62017 15.9885 3.2656 14.9172 3.17431L14.9164 4.13496C14.9164 4.55858 14.5717 4.9024 14.1471 4.9024C13.7225 4.9024 13.3779 4.55858 13.3779 4.13496L13.3774 3.15059Z" fill="white"/>
</svg>
