<svg width="20" height="20" viewBox="0 0 20 20" fill="none" xmlns="http://www.w3.org/2000/svg">
<path fill-rule="evenodd" clip-rule="evenodd" d="M13.6123 1.6665C16.4365 1.6665 18.3332 3.64817 18.3332 6.5965V13.4032C18.3332 16.3515 16.4365 18.3332 13.6123 18.3332H6.38817C3.564 18.3332 1.6665 16.3515 1.6665 13.4032V6.5965C1.6665 3.64817 3.564 1.6665 6.38817 1.6665H13.6123ZM13.6123 2.9165H6.38817C4.27984 2.9165 2.9165 4.36067 2.9165 6.5965V13.4032C2.9165 15.639 4.27984 17.0832 6.38817 17.0832H13.6123C15.7207 17.0832 17.0832 15.639 17.0832 13.4032V6.5965C17.0832 4.36067 15.7207 2.9165 13.6123 2.9165Z" fill="#F5F9FF"/>
<path d="M13.5196 9.39995C13.763 9.15495 13.7621 8.75912 13.518 8.51579C13.273 8.27246 12.8771 8.27245 12.6338 8.51745L10.1838 10.9791L7.73463 8.51745C7.4913 8.27245 7.09546 8.27246 6.85046 8.51579C6.6063 8.75912 6.60463 9.15495 6.8488 9.39995L9.7413 12.305C9.85796 12.4233 10.018 12.4891 10.1838 12.4891L10.2823 12.4813C10.4119 12.4607 10.533 12.3996 10.6263 12.305L13.5196 9.39995Z" fill="#F5F9FF"/>
</svg>
