<svg width="222" height="216" viewBox="0 0 222 216" fill="none" xmlns="http://www.w3.org/2000/svg">
<g clip-path="url(#clip0_1637_1496)">
<path d="M22.0002 116C22.0002 102.868 24.5868 89.8642 29.6123 77.7317C34.6378 65.5991 42.0037 54.5752 51.2896 45.2893C60.5754 36.0035 71.5993 28.6375 83.7319 23.612C95.8645 18.5866 108.868 16 122 16L122 116L22.0002 116Z" fill="#FFEEFA"/>
<path d="M18.916 7.5318C19.115 13.2264 21.276 18.7762 23.679 23.5985C25.73 27.7215 28.8102 30.6306 32.9284 32.2177C40.2565 35.0374 51.3736 36.1815 58.1841 29.5325C64.5543 23.3112 57.1404 12.4768 49.9275 14.2511C46.5668 15.0821 45.3794 20.002 44.9994 23.0458C44.2653 28.9282 46.4101 34.4107 48.6125 39.3959C51.1061 45.0375 54.4123 50.1073 58.8778 54.06C60.5329 55.5259 61.9498 56.3219 63.9243 57.1255C65.0679 57.5949 68.4204 58.5857 68.2849 60.3345C68.2525 60.7462 69.2505 60.2813 69.2773 59.882C69.4279 57.8783 66.0669 56.9359 64.7875 56.4121C61.6306 55.1214 59.2648 53.1292 56.9157 50.5237C53.9344 47.2033 51.6158 43.3623 49.7427 39.1708C47.8092 34.8321 45.8936 30.2172 45.8443 25.167C45.8243 22.8311 46.2373 20.4682 47.0852 18.2365C47.5373 17.0436 47.6507 17.1029 48.8039 16.0878C50.1716 14.8787 50.0553 14.8107 51.5996 15.0439C52.6199 15.1952 53.6283 15.5057 54.5249 16.0045C57.6243 17.7328 60.9187 22.3707 59.4017 26.5268C57.6882 31.2216 51.6103 32.9227 47.5991 33.4344C42.8245 34.0393 38.054 33.1422 33.7198 31.4565C29.5601 29.843 26.5079 26.8569 24.4878 22.6507C22.2177 17.919 20.1082 12.6096 19.9113 7.0731C19.891 6.64488 18.9039 7.1447 18.916 7.5318Z" fill="#5CA1FF"/>
</g>
<defs>
<clipPath id="clip0_1637_1496">
<rect width="222" height="216" fill="white"/>
</clipPath>
</defs>
</svg>
