<svg width="104" height="208" viewBox="0 0 104 208" fill="none" xmlns="http://www.w3.org/2000/svg">
<path d="M11.1172 204.819C-1.09072 208.669 0.30098 194.444 12.3868 199.374C12.5359 199.464 12.703 199.521 12.8761 199.54C13.0495 199.56 13.2246 199.54 13.3899 199.484C13.5549 199.429 13.7058 199.337 13.832 199.217C13.9583 199.096 14.0566 198.949 14.1203 198.785C14.7795 197.289 13.4855 196.922 12.2403 196.505C5.57479 194.273 12.9972 181.495 22.2263 197.093C22.9832 198.369 24.2772 197.486 23.9843 196.505C22.031 189.515 14.218 184.242 9.33481 188.534C8.29653 189.415 7.6019 190.637 7.37402 191.984C7.14614 193.331 7.39966 194.714 8.08961 195.891C2.32749 196.039 0.764878 198.344 0.105653 201.361C-1.2128 208.473 10.1894 209.307 13.0948 206.511C14.218 205.383 13.2902 204.132 11.1172 204.819Z" fill="#515151"/>
<path d="M41.3692 204.553C39.7578 204.847 39.4404 207.005 41.5157 207.005C52.1122 206.834 52.6493 187.557 42.4435 187.704C41.334 187.663 40.2262 187.82 39.1718 188.17C39.0253 186.772 41.6134 180.665 38.8788 175.907C35.8513 170.659 27.086 171.002 24.2294 178.237C23.1329 181.367 22.6633 184.683 22.8476 187.996C23.032 191.309 23.8668 194.551 25.3037 197.539C25.8652 198.642 27.2813 198.005 26.9395 196.533C19.6148 175.613 33.9468 170.218 37.1697 177.771C39.8554 184.074 34.0445 191.039 36.5593 192.486C38.3417 193.492 39.245 189.543 42.6877 190.034C47.1557 190.819 47.9615 195.699 47.229 198.961C45.9838 204.332 42.6144 204.308 41.3692 204.553Z" fill="#515151"/>
<path d="M18.5869 188.981C4.93848 166.467 1.49586 127.104 18.3671 95.0244C22.2478 88.1896 26.5963 81.6337 31.3807 75.4041C33.6514 73.1723 31.3807 71.995 30.1355 73.4175C15.9988 90.2174 4.91406 114.547 4.91406 136.472C4.91406 168.601 12.9224 184.248 16.9266 189.055C18.8799 191.311 19.8809 191.115 18.5869 188.981Z" fill="#515151"/>
<path d="M42.1992 42.8594C44.0792 42.6142 38.7566 46.9552 34.8745 52.8413C33.9955 54.1166 30.675 58.5802 29.3809 58.7519C29.3809 58.7519 17.173 59.1198 17.173 59.0462C16.8312 58.5802 23.3502 52.3262 29.3809 45.3856C30.1378 44.2329 30.1378 44.4291 42.1992 42.8594Z" fill="#ADD0FF"/>
<path d="M68.673 74.7489C69.1125 75.8035 68.9172 75.4111 53.5352 90.7149C52.7539 91.5243 53.1202 91.4997 52.2656 79.2125C52.2656 78.0598 62.0319 70.3834 65.1816 66.6065C68.3312 62.8295 67.501 63.4672 68.673 74.7489Z" fill="#ADD0FF"/>
<path d="M74.5146 41.2261C86.3074 40.6129 85.4773 23.2735 74.1483 23.5433C61.6719 25.0639 63.9426 41.6675 74.5146 41.2261ZM73.2206 25.9468C74.1713 25.7773 75.1476 25.8215 76.0792 26.0757C77.0111 26.33 77.8752 26.7882 78.6099 27.4175C79.3446 28.047 79.9314 28.8318 80.3284 29.7159C80.7255 30.5998 80.9229 31.5612 80.9062 32.531C80.8897 33.5008 80.6598 34.4548 80.233 35.3247C79.8061 36.1947 79.1928 36.9589 78.4372 37.5626C77.6815 38.1663 76.8021 38.5945 75.8623 38.8167C74.9223 39.0388 73.9453 39.0492 73.0008 38.8471C71.5163 38.5295 70.1877 37.7034 69.2428 36.5101C68.2979 35.3169 67.7954 33.8307 67.8214 32.3062C67.8472 30.7815 68.4001 29.3135 69.3852 28.1534C70.3702 26.9934 71.7261 26.2133 73.2206 25.9468Z" fill="#515151"/>
<path d="M80.5958 30.4828C80.9793 31.7571 80.9688 33.1185 80.5653 34.3867C80.1618 35.6546 79.3846 36.7699 78.3363 37.5844C77.2879 38.399 76.0181 38.8746 74.6949 38.9484C73.3716 39.0219 72.0572 38.6904 70.9256 37.9972C69.7941 37.3041 68.8988 36.2821 68.3582 35.0666C67.8176 33.8512 67.6571 32.4994 67.8982 31.1904C68.1391 29.8811 68.7703 28.6765 69.7078 27.7356C70.6456 26.7946 71.8454 26.1621 73.149 25.9211C74.7309 25.6344 76.3625 25.9403 77.7351 26.7811C79.1075 27.6217 80.1254 28.939 80.5958 30.4828Z" fill="#FFE25E"/>
<path d="M101.653 7.59024C101.413 11.0606 100.656 14.4749 99.4064 17.7192C93.5222 32.1402 94.0349 30.8403 92.4235 27.9463C84.9523 14.58 74.6 13.2311 76.5532 12.0293C81.505 8.36667 87.0703 5.62555 92.985 3.936C102.239 1.48346 101.213 3.936 101.653 7.59024Z" fill="#FFE25E"/>
<path d="M39.595 75.2487C40.767 73.9734 40.7914 73.9734 41.8657 75.2487C42.9591 76.5549 43.7885 78.0628 44.3073 79.6878C44.7468 81.2575 43.0865 80.4236 42.5738 80.4481C40.1321 80.4481 41.1332 82.2875 41.7436 82.5818C47.75 85.5004 50.3381 78.5597 50.509 80.8405C50.7776 83.9307 50.7532 87.2907 50.8997 91.3374C50.8997 93.1768 52.389 94.5747 53.6343 93.4466C54.8795 92.3184 58.2001 88.9339 62.9124 84.3231C70.6279 76.7448 70.9453 76.9655 70.8477 75.4695C69.7245 59.0375 68.406 63.2068 73.7776 57.3452C80.2723 50.3064 93.3105 35.9836 97.5345 27.3997C104.054 14.4258 106.642 0.765175 100.562 0.0784647C92.4315 -0.828975 78.2946 6.30789 71.2627 12.5128C66.2198 16.8505 61.5105 21.5647 57.1746 26.6149C42.5249 42.7771 46.6757 40.1529 40.0833 41.0358C26.8254 42.7526 31.4644 39.8831 14.9835 57.9338C12.957 60.1656 14.3975 61.6862 15.716 61.6862C19.6733 61.2709 23.6551 61.1399 27.6311 61.2938C26.9411 62.011 26.4341 62.8853 26.1535 63.8418C25.8729 64.7985 25.8269 65.8091 26.0196 66.7875C26.5289 68.7313 27.5495 70.5017 28.974 71.9133C29.7797 72.4283 30.3657 71.5209 30.0483 70.5644C29.9018 70.0739 27.3869 66.346 28.1194 65.4386C28.8519 64.5312 30.7075 65.4386 36.1035 69.5589C37.5929 70.687 34.7362 71.7661 32.319 75.3469C30.9273 77.456 33.3933 78.5351 34.0525 79.0257C34.7118 79.5162 35.3222 79.6143 35.9814 79.1483L39.595 75.2487ZM27.6311 91.7543C10.5398 118.732 6.73087 146.985 19.9156 182.106C20.1597 182.719 20.9899 185.49 21.82 184.926C24.457 183.185 10.5154 161.112 15.1056 128.641C19.3296 98.7686 38.9602 81.5273 39.5217 78.9276C39.8147 77.6522 39.3508 77.1127 37.837 77.7013C34.0965 82.1279 30.6851 86.8249 27.6311 91.7543ZM35.2489 66.1253C30.4878 62.5201 28.6077 64.1142 29.5111 62.5691C29.9506 61.8088 30.3901 60.9505 31.0982 61.2693C34.492 61.5636 35.664 62.8634 39.7659 65.6593C40.474 66.1498 39.9124 66.6894 38.7893 67.793C38.13 68.5288 38.2765 68.3816 35.3466 66.1253H35.2489ZM34.9559 77.2108C33.1491 75.96 32.3434 78.5106 54.0982 53.0533C55.1725 51.827 56.5398 50.6007 57.199 52.2439C57.2723 52.3175 35.078 77.1617 34.9559 77.2108ZM48.0186 79.6633C45.8699 81.5027 47.7988 79.6633 44.0876 74.7582C42.3784 72.5019 42.1587 72.5019 42.4761 72.134C44.4538 69.8041 44.0387 68.7005 48.7755 77.9956C49.2638 78.6578 48.7755 79.0257 48.0918 79.6143L48.0186 79.6633ZM53.6831 90.7488C52.9018 91.5581 53.268 91.5336 52.4135 79.2464C52.4135 78.0937 62.1799 70.4173 65.3296 66.6403C68.4793 62.8634 67.7712 63.5011 68.8211 74.7828C69.3338 75.7883 69.1385 75.3959 53.7564 90.6997L53.6831 90.7488ZM76.4634 11.9487C81.393 8.29404 86.9328 5.55312 92.8222 3.85537C102.076 1.40284 101.05 3.85537 101.49 7.50964C101.253 10.9802 100.495 14.3949 99.2436 17.6386C93.3593 32.0595 93.8721 30.7597 92.2606 27.8657C84.7893 14.4994 74.4612 13.1995 76.4634 11.9487ZM73.3137 14.4013C76.4389 11.4337 94.1895 29.7542 91.6258 33.1877C84.13 43.2922 58.0536 72.7226 51.1682 76.9655C49.7342 74.1623 48.1024 71.4657 46.285 68.8967C45.6746 67.9892 45.6014 68.6024 54.2203 58.9639C59.1035 53.3721 60.4952 52.7344 58.7861 50.6253C58.0536 49.7178 56.1003 48.3935 54.8551 49.6688C53.6099 50.9441 52.9262 51.8025 46.7978 58.8658C41.1576 65.3405 42.3296 64.6047 40.3275 63.0842C32.2702 56.9773 30.8296 61.7843 35.9814 55.187C47.5353 40.8033 59.9796 27.1647 73.2404 14.3522L73.3137 14.4013ZM29.1449 45.5485C30.1459 44.3713 30.1459 44.5675 42.1343 43.096C44.0143 42.8507 38.6916 47.1917 34.8094 53.0778C33.9304 54.3531 30.6099 58.8167 29.3158 58.9884C29.3158 58.9884 17.1077 59.3563 17.1077 59.2827C16.595 58.8413 23.1141 52.5873 29.1449 45.5485Z" fill="#515151"/>
</svg>
