<svg width="65" height="41" viewBox="0 0 65 41" fill="none" xmlns="http://www.w3.org/2000/svg">
<path fill-rule="evenodd" clip-rule="evenodd" d="M33.5427 1.90801C31.5356 2.7759 28.6536 4.25662 27.1097 5.17557C18.6697 10.1277 8.58297 11.1489 5.39223 7.42208C3.43661 5.12472 0.863281 4.8181 0.863281 6.8602C0.863281 10.2297 6.11257 12.7312 13.2145 12.7312H18.1036L15.5304 16.3049C8.17111 26.4644 7.50224 35.9092 13.8837 39.1255C18.7728 41.6271 25.8233 40.2488 39.6155 33.9694C43.5268 32.1825 43.8355 32.08 43.4753 33.05C40.9021 39.7379 56.5469 40.7593 63.5974 34.3777C66.5308 31.723 64.0093 30.9061 59.6863 33.1014C51.7609 37.1345 48.6216 33.8673 54.1796 27.3326C56.2896 24.882 54.1796 21.2569 40.2845 27.6895C21.809 36.2153 18.7212 37.0836 18.1551 33.9694C16.6112 24.9331 26.1833 11.2506 38.1229 5.48168C48.5185 0.427486 40.7476 -1.25725 33.5427 1.90801Z" fill="#ADD0FF"/>
</svg>
