<svg width="73" height="67" viewBox="0 0 73 67" fill="none" xmlns="http://www.w3.org/2000/svg">
<path fill-rule="evenodd" clip-rule="evenodd" d="M49.2477 16.5781C42.846 10.5751 29.7032 9.59885 18.6067 25.0678C15.9047 28.8344 9.57378 27.6262 7.75625 31.9279C3.06982 43.0185 24.2638 57.0433 32.3722 59.484C35.4072 60.3975 40.0105 61.6593 42.9501 59.4866C46.4245 56.9185 43.8774 50.8538 46.4003 47.5035C53.0353 38.6927 59.7735 26.4483 49.2477 16.5781V16.5781Z" stroke="#ADD0FF" stroke-width="3" stroke-miterlimit="1.5" stroke-linecap="round" stroke-linejoin="round"/>
<path d="M40.2384 57.6501C41.1002 56.9512 40.611 55.9259 40.1693 55.1473C39.1245 53.3057 37.6655 51.8261 36.1843 50.3487C30.917 45.0943 25.0515 39.5559 18.3528 36.1899C16.1448 35.0806 10.373 32.3743 10.6303 37.1352" stroke="#ADD0FF" stroke-width="3" stroke-miterlimit="1.5" stroke-linecap="round" stroke-linejoin="round"/>
<path d="M43.2045 45.5804C41.016 41.0303 37.9255 37.005 34.0139 33.8704C32.0672 32.3103 29.7884 31.1488 27.6132 29.951C24.168 28.0544 20.4087 26.6525 16.3886 26.8758" stroke="#ADD0FF" stroke-width="3" stroke-miterlimit="1.5" stroke-linecap="round" stroke-linejoin="round"/>
<path fill-rule="evenodd" clip-rule="evenodd" d="M30.7172 45.1391C29.7291 46.2849 28.0419 47.7779 26.5528 48.0133C23.7425 48.4574 20.7876 46.6433 20.979 43.5703C21.0247 42.8388 21.2873 42.1041 21.5841 41.4377C21.9171 40.69 22.6073 39.6692 23.2155 39.1233C25.9224 40.9254 28.5079 43.1284 30.7172 45.1391Z" stroke="#ADD0FF" stroke-width="3" stroke-miterlimit="1.5" stroke-linecap="round" stroke-linejoin="round"/>
<path fill-rule="evenodd" clip-rule="evenodd" d="M51.3397 19.0609C49.9159 17.3578 48.5491 15.9253 46.4563 14.7402C47.0875 13.8297 47.8608 13.1128 48.7367 12.234C50.9437 10.0201 54.9227 9.9422 54.754 13.6483C54.6677 15.5428 52.577 17.7223 51.3397 19.0609Z" stroke="#ADD0FF" stroke-width="3" stroke-miterlimit="1.5" stroke-linecap="round" stroke-linejoin="round"/>
<path d="M10.1562 15.1011C11.4327 16.0497 12.7408 16.994 13.941 18.0401" stroke="#FFE25E" stroke-width="3" stroke-miterlimit="1.5" stroke-linecap="round" stroke-linejoin="round"/>
<path d="M14.7383 1.79028C16.3667 5.2632 18.1939 8.60145 20.04 11.9537" stroke="#FFE25E" stroke-width="3" stroke-miterlimit="1.5" stroke-linecap="round" stroke-linejoin="round"/>
<path d="M26.1758 3.26221C26.3349 4.86238 26.4985 6.46206 26.6642 8.0614" stroke="#FFE25E" stroke-width="3" stroke-miterlimit="1.5" stroke-linecap="round" stroke-linejoin="round"/>
<path d="M57.6891 36.9214C58.8677 37.1515 60.0493 37.3767 61.2312 37.59" stroke="#FFE25E" stroke-width="3" stroke-miterlimit="1.5" stroke-linecap="round" stroke-linejoin="round"/>
<path d="M54.9688 41.9197C58.0307 43.1188 60.964 44.569 63.8116 46.2007" stroke="#FFE25E" stroke-width="3" stroke-miterlimit="1.5" stroke-linecap="round" stroke-linejoin="round"/>
<path d="M52.4883 46.5366C52.9899 48.0089 53.409 49.5007 53.8757 50.9839" stroke="#FFE25E" stroke-width="3" stroke-miterlimit="1.5" stroke-linecap="round" stroke-linejoin="round"/>
</svg>
