<svg width="48" height="48" viewBox="0 0 48 48" fill="none" xmlns="http://www.w3.org/2000/svg">
<circle cx="24" cy="24" r="21" fill="#DFECFF"/>
<path d="M24 45.5C12.14 45.5 2.5 35.86 2.5 24C2.5 12.14 12.14 2.5 24 2.5C35.86 2.5 45.5 12.14 45.5 24C45.5 35.86 35.86 45.5 24 45.5ZM24 5.5C13.8 5.5 5.5 13.8 5.5 24C5.5 34.2 13.8 42.5 24 42.5C34.2 42.5 42.5 34.2 42.5 24C42.5 13.8 34.2 5.5 24 5.5Z" fill="#5CA1FF"/>
<path d="M24 32.5C23.18 32.5 22.5 31.82 22.5 31V19C22.5 18.18 23.18 17.5 24 17.5C24.82 17.5 25.5 18.18 25.5 19V31C25.5 31.82 24.82 32.5 24 32.5Z" fill="#5CA1FF"/>
<path d="M29.9989 24.4999C29.6189 24.4999 29.2389 24.3599 28.9389 24.0599L23.9989 19.1199L19.0589 24.0599C18.4789 24.6399 17.5189 24.6399 16.9389 24.0599C16.3589 23.4799 16.3589 22.5199 16.9389 21.9399L22.9389 15.9399C23.5189 15.3599 24.4789 15.3599 25.0589 15.9399L31.0589 21.9399C31.6389 22.5199 31.6389 23.4799 31.0589 24.0599C30.7589 24.3599 30.3789 24.4999 29.9989 24.4999Z" fill="#5CA1FF"/>
</svg>
