<svg width="28" height="28" viewBox="0 0 28 28" fill="none" xmlns="http://www.w3.org/2000/svg">
<circle cx="14" cy="14" r="14" fill="#5CA1FF"/>
<path d="M21.4893 13.0577C21.2343 8.70777 17.2819 5.35535 12.7295 6.10534C9.59454 6.62282 7.0821 9.16525 6.59461 12.3002C6.30962 14.1151 6.68463 15.8326 7.50211 17.2501L6.83461 19.7325C6.68462 20.295 7.20209 20.805 7.75708 20.6475L10.202 19.9725C11.312 20.625 12.6095 21 13.9969 21C18.2269 21 21.7368 17.2726 21.4893 13.0577ZM17.6644 16.2901C17.5969 16.4251 17.5144 16.5526 17.4094 16.6726C17.2219 16.8751 17.0194 17.0251 16.7944 17.1151C16.5694 17.2126 16.3219 17.2576 16.0594 17.2576C15.6769 17.2576 15.2644 17.1676 14.8369 16.9801C14.4019 16.7926 13.9745 16.5451 13.547 16.2376C13.112 15.9226 12.707 15.5701 12.317 15.1876C11.927 14.7976 11.582 14.3851 11.267 13.9576C10.9595 13.5302 10.712 13.1027 10.532 12.6752C10.352 12.2477 10.262 11.8352 10.262 11.4452C10.262 11.1902 10.307 10.9427 10.397 10.7177C10.487 10.4852 10.6295 10.2752 10.832 10.0877C11.072 9.84775 11.3345 9.73525 11.612 9.73525C11.717 9.73525 11.822 9.75775 11.9195 9.80275C12.017 9.84775 12.107 9.91525 12.1745 10.0127L13.0445 11.2427C13.112 11.3402 13.1645 11.4227 13.1945 11.5052C13.232 11.5877 13.247 11.6627 13.247 11.7377C13.247 11.8277 13.217 11.9177 13.1645 12.0077C13.112 12.0977 13.0445 12.1877 12.9545 12.2777L12.6695 12.5777C12.6245 12.6227 12.6095 12.6677 12.6095 12.7277C12.6095 12.7577 12.617 12.7877 12.6245 12.8177C12.6395 12.8477 12.647 12.8702 12.6545 12.8927C12.722 13.0202 12.842 13.1777 13.007 13.3727C13.1795 13.5677 13.3595 13.7702 13.5545 13.9651C13.757 14.1676 13.952 14.3476 14.1545 14.5201C14.3495 14.6851 14.5144 14.7976 14.6419 14.8651C14.6644 14.8726 14.6869 14.8876 14.7094 14.8951C14.7394 14.9101 14.7694 14.9101 14.8069 14.9101C14.8744 14.9101 14.9195 14.8876 14.9645 14.8426L15.2494 14.5576C15.3469 14.4601 15.4369 14.3926 15.5194 14.3476C15.6094 14.2951 15.6919 14.2651 15.7894 14.2651C15.8644 14.2651 15.9394 14.2801 16.0219 14.3176C16.1044 14.3551 16.1944 14.4002 16.2844 14.4676L17.5294 15.3526C17.6269 15.4201 17.6944 15.5026 17.7394 15.5926C17.7769 15.6901 17.7994 15.7801 17.7994 15.8851C17.7544 16.0126 17.7244 16.1551 17.6644 16.2901Z" fill="white"/>
</svg>
