<svg width="150" height="150" viewBox="0 0 150 150" fill="none" xmlns="http://www.w3.org/2000/svg">
<circle cx="75" cy="75" r="75" fill="#F5F9FF"/>
<path d="M120.695 57.703C120.695 70.6495 120.695 83.596 120.695 96.5778C120.695 98.5886 119.919 100.282 118.543 101.728C117.626 102.681 116.497 103.28 115.262 103.668C114.733 103.845 114.133 103.951 113.498 103.951C103.233 103.951 92.9674 103.951 82.7019 103.951C82.5255 103.951 82.3491 103.951 82.1021 103.951C82.1021 104.903 82.1021 105.856 82.1021 106.843C82.1021 106.808 82.1021 106.843 82.1374 106.879C82.1727 106.879 82.1727 106.914 82.208 106.914C86.8292 106.914 91.4152 106.914 96.1423 106.914C96.9889 108.043 97.9061 109.207 98.788 110.371C99.6699 111.535 100.517 112.699 101.363 113.863C101.363 116.439 101.363 119.049 101.363 121.66C101.363 121.695 101.328 121.695 101.293 121.765C83.5485 121.765 65.7691 121.765 47.9191 121.765C47.9191 121.518 47.9191 121.236 47.9191 120.954C47.9191 118.802 47.9191 116.615 47.9191 114.463C47.9191 113.969 48.0955 113.616 48.3777 113.264C49.0479 112.382 49.7535 111.5 50.3532 110.583C50.9529 109.701 51.6584 108.889 52.2934 108.043C52.5756 107.69 52.8578 107.337 53.1047 106.984C57.7965 106.984 62.4531 106.984 67.1448 106.984C67.1448 105.997 67.1448 105.009 67.1448 103.986C66.8274 103.986 66.5451 103.986 66.2277 103.986C56.1033 103.986 45.9436 103.986 35.8192 103.986C34.1965 103.986 32.1151 103.104 30.9157 101.94C29.9633 101.023 29.3283 99.9291 28.9402 98.6591C28.7638 98.0242 28.5875 97.4245 28.5875 96.7542C28.5875 88.817 28.5875 80.8797 28.5875 72.9072C28.5875 63.8764 28.5875 54.8455 28.5875 45.8147C28.5875 44.3684 29.1166 43.0984 29.8574 41.899C30.8452 40.3468 32.2915 39.4649 33.9848 38.9005C34.5492 38.7241 35.1136 38.6183 35.7133 38.6183C41.0048 38.6183 46.2963 38.6183 51.5878 38.6183C59.7367 38.6183 67.9209 38.6183 76.0698 38.6183C75.6112 39.2533 75.1174 39.853 74.6588 40.5232C74.4118 40.876 74.2707 41.3699 73.8474 41.6168C61.2184 41.6168 48.6246 41.6168 35.9956 41.6168C35.1136 41.6168 34.3376 41.8637 33.5967 42.3576C32.2562 43.2748 31.5154 44.4742 31.5154 46.1322C31.5154 62.9239 31.5154 79.7156 31.5154 96.472C31.5154 97.3892 31.7624 98.2358 32.2562 98.9414C33.1734 100.211 34.3728 100.987 35.9956 100.987C61.677 100.987 87.3584 100.987 113.04 100.987C113.957 100.987 114.768 100.776 115.509 100.247C116.779 99.3294 117.555 98.1653 117.555 96.5425C117.555 86.7004 117.555 76.8934 117.555 67.0513C117.555 66.9454 117.52 66.8396 117.555 66.7691C118.472 65.2874 118.966 63.5942 119.566 61.9361C119.742 61.4423 119.848 60.9484 119.954 60.4193C120.095 59.5373 120.236 58.6907 120.377 57.8088C120.554 57.7382 120.66 57.703 120.695 57.703ZM98.4 115.804C82.5607 115.804 66.7568 115.804 50.9529 115.804C50.9529 116.791 50.9529 117.744 50.9529 118.696C66.7921 118.696 82.596 118.696 98.4 118.696C98.4 117.709 98.4 116.756 98.4 115.804ZM70.2492 103.915C70.2492 106.914 70.2492 109.842 70.2492 112.77C73.1772 112.876 78.3628 112.84 79.1036 112.699C79.1036 109.771 79.1036 106.843 79.1036 103.915C76.1404 103.915 73.2124 103.915 70.2492 103.915ZM67.2507 109.807C63.0175 109.807 58.8901 109.807 54.6922 109.807C53.9514 110.724 53.2106 111.641 52.505 112.735C57.479 112.735 62.3472 112.735 67.2507 112.735C67.2507 111.782 67.2507 110.83 67.2507 109.807ZM96.742 112.77C96.495 112.135 95.2956 110.512 94.6254 109.877C90.4274 109.877 86.2648 109.877 82.1021 109.877C82.1021 110.865 82.1021 111.817 82.1021 112.77C87.0056 112.77 91.8738 112.77 96.742 112.77Z" fill="#515151"/>
<path d="M73.9532 41.5463C74.3766 41.2993 74.5177 40.8407 74.7646 40.4527C75.2232 39.8177 75.7171 39.1827 76.1757 38.5477C76.5637 38.4066 76.6343 38.0186 76.8812 37.7717C77.4809 37.172 78.01 36.5017 78.7509 36.0431C79.1742 35.7962 79.5269 35.3728 79.915 35.0554C81.5377 33.6796 83.3721 32.6918 85.2418 31.7746C86.0531 31.3866 87.0056 31.2455 87.7817 30.7163C88.6989 30.7163 89.5102 30.2225 90.4274 30.1166C91.3446 30.0108 92.2618 29.905 93.1437 29.7286C94.4137 29.4816 95.6837 29.658 96.9536 29.5875C97.3417 29.5522 97.765 29.6933 98.1883 29.7639C98.5763 29.8344 98.9291 29.7639 99.3171 29.905C99.7052 30.0461 100.199 30.0814 100.622 30.1166C101.257 30.1872 101.822 30.3636 102.421 30.5399C102.986 30.7163 103.586 30.8222 104.15 31.1044C104.679 31.3513 105.208 31.5277 105.737 31.7746C106.267 32.0216 106.831 32.3038 107.36 32.586C108.63 33.2915 109.9 34.0323 110.994 34.9848C111.84 35.6903 112.758 36.3253 113.498 37.172C114.874 38.7241 116.179 40.3116 117.202 42.1107C118.014 43.557 118.719 45.0034 119.248 46.5555C119.425 47.0847 119.566 47.6491 119.778 48.1783C119.989 48.7074 120.06 49.2366 120.166 49.801C120.342 50.6829 120.413 51.5648 120.554 52.4115C120.695 53.2934 120.695 54.14 120.695 55.0219C120.695 55.9039 120.695 56.7505 120.695 57.6324C120.66 57.6677 120.554 57.6677 120.554 57.703C120.413 58.5849 120.307 59.4315 120.13 60.3134C120.025 60.8073 119.919 61.3365 119.742 61.8303C119.143 63.4531 118.649 65.1463 117.732 66.6632C117.696 66.7338 117.732 66.8396 117.732 66.9454C117.273 67.2982 117.097 67.8979 116.814 68.3565C116.215 69.3443 115.403 70.2262 114.768 71.2139C114.451 71.4256 114.239 71.7078 113.992 72.0253C113.604 72.5544 113.11 73.0483 112.581 73.4363C112.264 73.648 111.981 73.8949 111.77 74.2124C111.488 74.4241 111.17 74.5652 110.923 74.8121C109.865 75.7646 108.595 76.4701 107.36 77.1757C105.984 77.9518 104.538 78.5515 103.021 78.9748C102.175 79.2217 101.398 79.5392 100.517 79.645C100.129 79.6803 99.6346 79.645 99.3171 79.8214C98.8938 80.0331 98.5058 79.9272 98.0825 79.9625C97.6591 80.0331 97.2006 80.1036 96.7772 80.1389C96.1775 80.1742 95.5425 80.1742 94.9428 80.1389C94.3784 80.1036 93.814 80.1742 93.2496 79.9978C92.6851 79.8214 92.0854 79.892 91.4857 79.8214C90.5333 79.6803 89.6161 79.3981 88.6636 79.2217C88.3108 79.1512 87.9581 78.9748 87.6053 78.8689C85.9473 78.3398 84.3246 77.7048 82.843 76.7171C82.7018 76.6465 82.4902 76.6818 82.3138 76.6465C82.208 76.5054 82.1374 76.329 81.9963 76.2585C81.5024 75.9057 80.9733 75.6235 80.55 75.2002C80.4089 75.0591 80.1266 75.0591 79.915 74.9885C79.915 74.8827 79.915 74.8121 79.915 74.7063C78.257 73.5774 76.9165 72.1311 75.7171 70.5437C75.6465 70.5437 75.576 70.5437 75.4701 70.5437C75.4701 70.4378 75.5054 70.332 75.4701 70.2614C75.1879 69.8381 74.9057 69.3795 74.5882 68.9915C74.3413 68.7093 74.2707 68.2154 73.8121 68.1096C73.7768 67.8979 73.8827 67.6863 73.7063 67.5099C73.5299 67.3335 73.3888 67.0865 73.283 66.8396C73.0008 66.0988 72.5774 65.3933 72.2952 64.6525C71.9777 63.9117 71.7308 63.1356 71.4486 62.3948C71.1664 61.6187 70.9194 60.8073 70.8136 59.9607C70.7783 59.5726 70.8136 59.0788 70.6372 58.7613C70.4256 58.3379 70.5314 57.9499 70.4961 57.5266C70.4256 57.1033 70.355 56.6447 70.3197 56.2213C70.2845 55.5511 70.355 54.8456 70.2845 54.1753C70.2139 53.505 70.4608 52.8701 70.4961 52.1998C70.5314 51.5295 70.602 50.8946 70.6725 50.2243C71.0253 49.9421 70.7783 49.4835 70.9547 49.1307C71.1664 48.6016 71.2722 48.0372 71.4133 47.4727C71.4839 47.2964 71.5544 47.1552 71.5897 46.9789C71.9072 46.1322 72.2247 45.3209 72.5069 44.4742C72.9655 43.6276 73.4241 42.7809 73.8474 41.899C73.8827 41.8285 73.8827 41.6874 73.9532 41.5463ZM95.5073 35.6198C95.1192 35.6198 94.6959 35.5845 94.3079 35.6198C93.8845 35.6551 93.4965 35.7609 93.0732 35.7962C92.4735 35.8667 91.8738 35.8314 91.3093 36.0078C90.6744 36.1842 90.0394 36.3606 89.4044 36.5723C88.7694 36.7839 88.1697 37.0308 87.57 37.2778C86.9703 37.5247 86.4059 37.9128 85.8062 38.195C84.8184 38.6889 83.9718 39.3591 83.1252 40.0294C82.7724 40.3116 82.4902 40.7349 82.1374 40.9818C81.7494 41.2288 81.573 41.6168 81.2555 41.899C80.55 42.4987 79.9855 43.2395 79.4917 44.0509C78.9978 44.827 78.4334 45.6031 78.0806 46.4497C77.7631 47.2258 77.4456 47.9666 77.1634 48.778C76.5637 50.436 76.2815 52.1645 76.1757 53.9284C76.1051 55.0572 76.1757 56.2213 76.3168 57.3855C76.4226 58.2321 76.5284 59.0788 76.7754 59.8901C77.2692 61.4423 77.8337 62.9592 78.6098 64.4055C79.4564 65.993 80.6911 67.2629 81.7847 68.6387C82.3491 68.8151 82.6313 69.3443 83.0193 69.697C83.4074 70.0498 83.9365 70.2614 84.2893 70.6142C85.0654 71.4256 86.1942 71.6372 87.0056 72.3428C87.817 72.5191 88.5225 73.013 89.3339 73.2247C90.1099 73.4011 90.886 73.7186 91.6621 73.8597C92.4735 74.036 93.3201 74.1419 94.0962 74.1772C95.2251 74.2477 96.3892 74.283 97.5533 74.0713C98.3647 73.9302 99.176 73.8949 99.9874 73.648C100.975 73.3658 101.998 73.0836 102.915 72.6955C103.586 72.4133 104.256 72.0606 104.926 71.7078C106.055 71.0375 107.113 70.3673 108.066 69.4501C108.348 69.1679 108.665 68.9209 108.948 68.674C109.23 68.4271 109.442 68.1096 109.688 67.8274C110.394 67.1924 110.888 66.4163 111.452 65.6755C112.017 64.97 112.193 64.0528 112.828 63.3825C112.969 62.5359 113.428 61.8303 113.71 61.0542C114.274 59.361 114.592 57.6677 114.662 55.9039C114.698 54.8456 114.733 53.7873 114.521 52.729C114.38 51.9529 114.31 51.1768 114.133 50.4007C113.886 49.413 113.569 48.4605 113.181 47.5433C112.828 46.6614 112.334 45.85 111.911 45.0034C111.17 43.557 109.971 42.4635 108.983 41.2288C108.172 40.8054 107.678 39.9941 106.937 39.4649C105.949 38.7947 104.961 38.1244 103.903 37.6306C102.986 37.2072 102.069 36.6428 101.01 36.537C99.7052 35.902 98.2236 35.9373 96.8478 35.6551C96.4597 35.5492 96.0011 35.6198 95.5073 35.6198Z" fill="#FFDA2F"/>
<path d="M114.768 71.2139C114.768 77.1757 114.768 83.1374 114.768 89.0992C114.768 90.2633 114.169 91.11 113.146 91.6391C112.687 91.8861 112.228 91.9566 111.699 91.9566C97.4122 91.9566 83.1251 91.9566 68.8028 91.9566C67.8504 92.9796 66.7921 93.9674 65.9101 95.0962C65.1693 96.0487 64.2874 96.6837 63.2291 97.1423C62.6647 97.4245 62.065 97.5656 61.43 97.7067C60.7598 97.8478 60.0895 97.9184 59.4545 97.8478C58.3257 97.7067 57.2674 97.4598 56.2443 96.8601C54.9038 96.084 54.0219 94.9551 53.2105 93.7557C52.8578 93.2618 52.752 92.5916 52.505 91.9566C52.2228 91.9566 51.9053 91.9566 51.6231 91.9566C46.896 91.9566 42.169 91.9566 37.4419 91.9566C36.2778 91.9566 35.4311 91.3569 34.902 90.3339C34.6903 89.9106 34.5845 89.4872 34.5845 88.9934C34.5845 83.6313 34.5845 78.3045 34.5845 72.9425C34.5845 64.4408 34.5845 55.9392 34.5845 47.4375C34.5845 46.2028 35.1842 45.3562 36.2072 44.7917C36.6658 44.5448 37.1244 44.4742 37.6535 44.4742C49.2596 44.4742 60.8303 44.4742 72.4363 44.4742C72.1188 45.3209 71.8013 46.1322 71.5191 46.9789C71.4486 47.1553 71.4133 47.2964 71.3427 47.4728C60.0895 47.4728 48.8715 47.4728 37.6183 47.4728C37.6183 61.3718 37.6183 75.2002 37.6183 89.0286C42.6276 89.0286 47.6016 89.0286 52.5403 89.0286C52.6461 88.6759 52.7167 88.3231 52.7872 88.0056C53.14 86.7357 53.8455 85.6068 54.798 84.7954C55.5388 84.1605 56.2091 83.4902 56.9499 82.8905C58.0082 82.0086 59.0665 81.0914 60.0895 80.1389C61.1478 79.1865 62.2061 78.2693 63.2644 77.3168C64.358 76.3291 65.4515 75.3413 66.5804 74.3888C67.427 73.648 68.2384 72.8719 69.0498 72.0959C69.1203 72.0253 69.1556 71.9195 69.2614 71.9195C69.7906 71.7078 70.0728 71.2139 70.4961 70.8612C70.9194 70.5084 71.3427 70.1909 71.7308 69.8029C72.3305 69.1679 73.036 68.6387 73.7063 68.1096C74.1649 68.2154 74.2354 68.7093 74.4824 68.9915C74.7999 69.3796 75.0821 69.8029 75.3643 70.2615C75.3996 70.332 75.3643 70.4378 75.3643 70.5437C74.1649 71.5667 72.9655 72.5544 71.8366 73.648C70.7783 74.6358 69.6847 75.5882 68.5912 76.5407C68.0267 76.9993 67.5329 77.5285 66.9684 77.9871C65.8749 78.9042 64.8166 79.9273 63.6877 80.8445C63.1586 81.3031 62.7 81.7969 62.1355 82.2202C61.2889 82.8552 60.5481 83.6313 59.772 84.3721C59.6662 84.478 59.5603 84.6191 59.4545 84.6896C58.4668 85.4304 57.5143 86.2418 56.6677 87.1237C55.433 88.3937 55.0097 89.9458 55.5388 91.6744C55.7857 92.521 56.2443 93.2971 56.9146 93.8968C57.5849 94.4965 58.3962 94.8493 59.2429 94.9904C60.7598 95.2373 62.1708 94.7787 63.2997 93.6499C63.6877 93.2618 64.0758 92.8032 64.4285 92.3799C65.381 91.2864 66.3687 90.2281 67.2859 89.0992C67.7445 88.57 68.2384 88.0762 68.697 87.547C69.6495 86.4534 70.6372 85.3951 71.5544 84.2663C72.013 83.7371 72.5069 83.2433 72.9655 82.7141C73.9179 81.6206 74.9057 80.5623 75.8229 79.4334C76.2815 78.9042 76.7754 78.4456 77.1987 77.8812C77.8337 77.0346 78.6097 76.2938 79.3505 75.5177C79.5269 75.3413 79.668 75.1649 79.8091 74.9533C80.0208 75.0238 80.303 75.0238 80.4441 75.1649C80.8674 75.5882 81.3966 75.8705 81.8905 76.2232C82.0316 76.3291 82.1021 76.5054 82.208 76.6113C81.8552 77.0699 81.5377 77.5285 81.1497 77.9165C80.2325 78.869 79.4211 79.9273 78.5039 80.915C77.4456 82.0791 76.3873 83.2433 75.3643 84.4427C74.6588 85.2893 73.8474 86.0301 73.1419 86.8768C72.648 87.5117 72.0483 88.1115 71.4839 88.6759C71.4133 88.7464 71.4133 88.817 71.378 88.9228C72.1188 89.0639 110.888 89.0639 111.664 88.9228C111.664 84.0194 111.664 79.0806 111.664 74.1772C111.876 73.8597 112.158 73.648 112.475 73.4011C113.004 73.013 113.498 72.5192 113.886 71.99C114.239 71.7078 114.451 71.4256 114.768 71.2139Z" fill="#515151"/>
<path d="M95.5073 35.6197C95.9659 35.6197 96.4598 35.5492 96.8831 35.6197C98.2941 35.8667 99.7405 35.8667 101.046 36.5017C102.104 36.6075 103.021 37.1719 103.938 37.5952C104.997 38.0891 105.984 38.7594 106.972 39.4296C107.713 39.9588 108.207 40.7701 109.018 41.1935C110.006 42.4634 111.205 43.5217 111.946 44.9681C112.37 45.8147 112.863 46.6261 113.216 47.508C113.604 48.4252 113.922 49.3776 114.169 50.3654C114.345 51.1415 114.416 51.9176 114.557 52.6936C114.733 53.7519 114.733 54.8102 114.698 55.8685C114.627 57.6324 114.274 59.3609 113.745 61.0189C113.498 61.795 113.005 62.5006 112.863 63.3472C112.228 64.0175 112.052 64.9346 111.488 65.6402C110.923 66.381 110.429 67.1571 109.724 67.7921C109.442 68.039 109.23 68.3565 108.983 68.6387C108.701 68.9209 108.383 69.1678 108.101 69.4148C107.149 70.2967 106.09 71.0022 104.961 71.6725C104.326 72.0605 103.656 72.378 102.951 72.6602C101.998 73.0483 101.01 73.3305 100.023 73.6127C99.2466 73.8596 98.4 73.8949 97.5886 74.036C96.4245 74.2477 95.2604 74.2124 94.1315 74.1419C93.3201 74.1066 92.5088 74.0007 91.6974 73.8244C90.886 73.6833 90.1452 73.3658 89.3692 73.1894C88.5578 72.9777 87.8523 72.5191 87.0409 72.3075C86.2295 71.5667 85.1007 71.355 84.3246 70.5789C83.9718 70.2261 83.4427 70.0145 83.0546 69.6617C82.6666 69.309 82.3844 68.7798 81.82 68.6034C80.7264 67.1924 79.4917 65.9577 78.6451 64.3702C77.869 62.9239 77.3045 61.407 76.8107 59.8548C76.5637 59.0434 76.4579 58.1968 76.3521 57.3502C76.211 56.186 76.1404 55.0572 76.211 53.8931C76.3168 52.1292 76.6343 50.4359 77.1987 48.7427C77.4809 47.9666 77.7984 47.1905 78.1159 46.4144C78.4687 45.5678 79.0331 44.827 79.527 44.0156C80.0208 43.2395 80.5853 42.4987 81.2908 41.8637C81.6083 41.5815 81.7847 41.1935 82.1727 40.9465C82.5608 40.6996 82.8077 40.2763 83.1605 39.9941C84.0071 39.3238 84.8537 38.6535 85.8415 38.1597C86.4412 37.8775 86.9703 37.4894 87.6053 37.2425C88.205 36.9955 88.8047 36.7133 89.4397 36.5369C90.0747 36.3253 90.7097 36.1489 91.3446 35.9725C91.9091 35.7961 92.5088 35.8314 93.1085 35.7609C93.5318 35.7256 93.9198 35.6197 94.3432 35.5845C94.7312 35.5845 95.1192 35.6197 95.5073 35.6197ZM109.159 63.8058C110.182 61.9009 111.135 60.0665 111.452 57.844C107.078 57.844 102.774 57.844 98.4353 57.844C98.4353 51.459 98.4353 45.1092 98.4353 38.8299C96.4598 38.4772 94.5195 38.4772 92.5088 38.8299C92.5088 41.6873 92.5088 44.58 92.5088 47.4727C88.6636 47.4727 84.8537 47.4727 81.0086 47.4727C80.0561 49.3424 79.3859 51.2473 79.3153 53.4345C83.7602 53.4345 88.1345 53.4345 92.5441 53.4345C92.5441 59.3257 92.5441 65.1816 92.5441 71.0375C93.5318 70.967 94.4843 71.2492 95.4367 71.2492C96.4245 71.2492 97.4122 70.967 98.4705 71.0375C98.4705 68.5681 98.4705 66.1693 98.4705 63.8058C102.033 63.8058 105.561 63.8058 109.159 63.8058ZM111.84 54.8808C111.699 54.2105 111.981 53.6108 111.629 53.0464C111.77 52.4467 111.488 51.847 111.417 51.2826C111.347 50.7182 111.064 50.189 110.923 49.6599C110.747 49.0954 110.535 48.6016 110.323 48.0724C110.112 47.5433 109.794 47.0494 109.477 46.5555C109.159 46.0264 108.842 45.5325 108.489 45.0386C108.136 44.5447 107.748 44.1214 107.325 43.6628C106.902 43.2395 106.478 42.8162 105.984 42.4634C105.491 42.1459 105.067 41.7226 104.573 41.4051C104.115 41.0876 103.586 40.8054 103.092 40.5232C102.598 40.241 102.104 39.9588 101.504 39.8882C101.504 44.9328 101.504 49.9068 101.504 54.9161C104.891 54.8808 108.313 54.8808 111.84 54.8808ZM89.5103 69.9439C89.5103 65.3932 89.5103 60.9131 89.5103 56.433C86.0884 56.433 82.7371 56.433 79.3506 56.433C79.3506 56.7857 79.3153 57.1032 79.3506 57.3854C79.3859 57.6677 79.527 57.9499 79.527 58.2321C79.5622 58.9023 79.8092 59.502 80.0208 60.0665C80.3736 60.9837 80.7264 61.9361 81.2202 62.818C81.8905 64.0175 82.7371 65.0758 83.6191 66.0988C84.1835 66.7338 84.8537 67.2629 85.4887 67.7921C85.7709 68.039 86.1237 68.2154 86.4059 68.427C87.2173 69.062 88.205 69.3442 89.0517 69.8734C89.1575 69.9792 89.3339 69.9087 89.5103 69.9439ZM89.5103 39.8529C89.3339 39.8529 89.1928 39.8529 89.0517 39.8882C88.205 40.1704 87.4642 40.6643 86.6881 41.1229C85.3829 41.9343 84.2188 42.922 83.1957 44.0509C83.1252 44.1567 83.0899 44.2978 83.0194 44.4389C85.2418 44.4389 87.3937 44.4389 89.5103 44.4389C89.5103 42.922 89.5103 41.4051 89.5103 39.8529ZM101.434 70.0145C101.963 69.8381 102.386 69.7323 102.739 69.5559C104.115 68.7798 105.42 67.9332 106.619 66.8043C104.856 66.8043 103.162 66.8043 101.434 66.8043C101.434 67.8626 101.434 68.8504 101.434 70.0145Z" fill="#515151"/>
<path d="M70.2139 95.0256C70.2139 96.0134 70.2139 96.9659 70.2139 97.9183C69.2614 97.9183 68.309 97.9183 67.2859 97.9183C67.2154 97.4597 67.2859 97.0011 67.2507 96.5073C67.2507 96.0134 67.2507 95.5195 67.2507 94.9904C68.2384 95.0256 69.1909 95.0256 70.2139 95.0256Z" fill="#515151"/>
<path d="M76.1404 95.0256C76.1404 96.0134 76.1404 96.9659 76.1404 97.9183C75.1879 97.9183 74.2354 97.9183 73.2124 97.9183C73.1418 97.495 73.2124 97.0011 73.1771 96.5073C73.1771 96.0134 73.1771 95.5195 73.1771 94.9904C74.1649 95.0256 75.1173 95.0256 76.1404 95.0256Z" fill="#515151"/>
<path d="M79.1389 97.9183C79.1389 96.9306 79.1389 95.9781 79.1389 95.0256C80.0914 95.0256 81.0439 95.0256 82.0669 95.0256C82.1374 95.4842 82.0669 95.9428 82.1022 96.4367C82.1022 96.9306 82.1022 97.4245 82.1022 97.9183C81.1144 97.9183 80.1619 97.9183 79.1389 97.9183Z" fill="#515151"/>
<path d="M53.9514 50.4359C56.9146 50.4359 59.8779 50.4359 62.8411 50.4359C63.9699 50.4359 64.993 50.7534 65.7691 51.6353C66.0513 51.9528 66.3688 52.1997 66.5804 52.5878C66.9332 53.258 67.2507 54.0694 67.2507 54.7044C67.2507 58.7965 67.2507 62.8533 67.2507 66.9454C67.2507 67.9684 66.8626 68.815 66.1924 69.5559C65.9102 69.8733 65.628 70.2261 65.2752 70.4378C64.5344 70.8964 63.723 71.2139 62.8058 71.2139C56.8441 71.2139 50.8823 71.2139 44.9206 71.2139C43.827 71.2139 42.8745 70.8258 42.0632 70.0497C41.7809 69.7675 41.534 69.4853 41.2871 69.1678C40.7579 68.427 40.5463 67.6156 40.5463 66.6984C40.5463 62.7122 40.5463 58.7259 40.5463 54.7397C40.5463 53.7166 40.9343 52.7994 41.6398 52.0586C41.9221 51.7411 42.2395 51.4589 42.5923 51.212C43.3331 50.7181 44.1445 50.4359 45.0617 50.4712C48.0249 50.4712 50.9881 50.4359 53.9514 50.4359ZM63.1939 68.2506C63.8641 67.9684 64.2874 67.5451 64.2874 66.8396C64.2874 62.7122 64.2874 58.5495 64.2874 54.6691C64.1111 53.893 63.6525 53.6108 63.2291 53.3992C60.7951 53.3992 58.361 53.3992 55.8916 53.3992C52.3287 53.3992 48.7657 53.3992 45.2381 53.3992C44.462 53.3992 43.8975 53.6461 43.6153 54.3516C43.6153 54.3869 43.5801 54.3869 43.5448 54.4222C43.5448 58.479 43.5448 62.5711 43.5448 66.6632C43.5448 67.6862 44.1092 68.2506 45.1322 68.2506C51.1645 68.2506 57.2321 68.2506 63.1939 68.2506Z" fill="#515151"/>
<path d="M55.3977 77.1756C55.3977 78.1634 55.3977 79.1511 55.3977 80.1389C52.4345 80.1389 49.5065 80.1389 46.508 80.1389C46.508 81.1619 46.508 82.1144 46.508 83.1021C45.5203 83.1021 44.5325 83.1021 43.5448 83.1021C43.5448 82.1144 43.5448 81.1619 43.5448 80.1389C42.5218 80.1389 41.534 80.1389 40.5815 80.1389C40.5815 79.1511 40.5815 78.1634 40.5815 77.1756C41.5693 77.1756 42.5218 77.1756 43.5448 77.1756C43.5448 76.1526 43.5448 75.1649 43.5448 74.2124C44.5325 74.2124 45.5203 74.2124 46.508 74.2124C46.508 75.2001 46.508 76.1526 46.508 77.1756C49.4713 77.1756 52.4345 77.1756 55.3977 77.1756Z" fill="#FFDA2F"/>
<path d="M46.4727 83.1021C46.4727 82.1144 46.4727 81.1619 46.4727 80.1389C49.4712 80.1389 52.4345 80.1389 55.3624 80.1389C55.3624 81.1267 55.3624 82.0791 55.3624 83.1021C52.3992 83.1021 49.436 83.1021 46.4727 83.1021Z" fill="#515151"/>
<path d="M55.3977 77.1756C52.4345 77.1756 49.5065 77.1756 46.508 77.1756C46.508 76.1526 46.508 75.2001 46.508 74.2124C49.4712 74.2124 52.3992 74.2124 55.3977 74.2124C55.3977 75.2001 55.3977 76.1879 55.3977 77.1756Z" fill="#515151"/>
<path d="M43.5095 74.2124C43.5095 75.2001 43.5095 76.1526 43.5095 77.1756C42.4865 77.1756 41.4987 77.1756 40.5463 77.1756C40.5463 76.1879 40.5463 75.2354 40.5463 74.2124C41.5693 74.2124 42.5218 74.2124 43.5095 74.2124Z" fill="#515151"/>
<path d="M40.5463 80.1389C41.534 80.1389 42.4865 80.1389 43.5095 80.1389C43.5095 81.1619 43.5095 82.1497 43.5095 83.1021C42.5218 83.1021 41.5693 83.1021 40.5463 83.1021C40.5463 82.0791 40.5463 81.1267 40.5463 80.1389Z" fill="#515151"/>
<path d="M90.9918 83.1375C90.9918 84.1252 90.9918 85.0777 90.9918 86.0301C90.0394 86.0301 89.0869 86.0301 88.0639 86.0301C88.0286 85.5715 88.0639 85.1129 88.0639 84.6191C88.0639 84.1252 88.0639 83.6313 88.0639 83.1022C89.0164 83.1374 89.9688 83.1375 90.9918 83.1375Z" fill="#515151"/>
<path d="M96.9183 86.0653C95.9306 86.0653 94.9781 86.0653 94.0256 86.0653C94.0256 85.1129 94.0256 84.1604 94.0256 83.1374C94.4842 83.1021 94.9428 83.1374 95.4367 83.1374C95.9306 83.1374 96.4244 83.1374 96.9536 83.1374C96.9183 84.0898 96.9183 85.0423 96.9183 86.0653Z" fill="#515151"/>
<path d="M102.845 86.0653C101.857 86.0653 100.905 86.0653 99.9521 86.0653C99.9521 85.1129 99.9521 84.1604 99.9521 83.1374C100.411 83.1021 100.869 83.1374 101.363 83.1374C101.857 83.1374 102.351 83.1374 102.88 83.1374C102.845 84.0898 102.845 85.0423 102.845 86.0653Z" fill="#515151"/>
<path d="M105.879 83.1375C106.866 83.1375 107.819 83.1375 108.771 83.1375C108.771 84.0899 108.771 85.0424 108.771 86.0654C108.313 86.136 107.854 86.0654 107.36 86.1007C106.866 86.1007 106.373 86.1007 105.879 86.1007C105.879 85.1129 105.879 84.1605 105.879 83.1375Z" fill="#515151"/>
<path d="M73.7769 78.7278C73.6005 78.622 73.3888 78.5515 73.283 78.4456C72.7539 77.9518 72.2247 77.4226 71.6603 76.8229C71.7661 76.6465 71.8367 76.4349 71.9425 76.329C72.4364 75.7999 72.9655 75.2707 73.5652 74.7063C73.7416 74.8121 73.9533 74.8827 74.0591 74.9885C74.5882 75.4824 75.1174 76.0115 75.6818 76.6112C75.576 76.7876 75.5054 76.9993 75.3996 77.1051C74.8705 77.6343 74.3413 78.1634 73.7769 78.7278Z" fill="#515151"/>
<path d="M67.4976 80.8091C68.5559 79.5392 69.0145 79.1511 69.4378 79.0453C70.0728 79.6803 70.6725 80.28 71.3428 80.9502C71.3428 80.915 71.3428 81.0208 71.3428 80.9855C70.6372 81.691 70.0375 82.2907 69.5084 82.8199C68.8734 82.1849 68.1679 81.4794 67.4976 80.8091Z" fill="#515151"/>
<path d="M67.3565 85.1482C66.651 85.8185 66.0513 86.4182 65.4163 86.9826C65.381 87.0179 65.2399 86.9826 65.0988 86.9826C64.5696 86.2771 63.6877 85.8185 63.2997 85.0071C63.9699 84.3368 64.5696 83.7371 65.2399 83.0669C65.9454 83.7019 66.6157 84.4074 67.3565 85.1482Z" fill="#515151"/>
</svg>
