<svg width="21" height="21" viewBox="0 0 21 21" fill="none" xmlns="http://www.w3.org/2000/svg">
<path d="M17.5703 6.20312H14.0156V9.71875H5.42188V14.0156C5.42188 14.4471 5.77161 14.7969 6.20312 14.7969V17.5703C6.20312 19.1884 7.51477 20.5 9.13281 20.5H11.8672C13.4852 20.5 14.7969 19.1884 14.7969 17.5703V15.9688H11.2979C10.9823 15.9688 10.7109 15.7263 10.6959 15.4112C10.6801 15.0746 10.9483 14.7969 11.2812 14.7969H17.5703C19.1884 14.7969 20.5 13.4852 20.5 11.8672V9.13281C20.5 7.51477 19.1884 6.20312 17.5703 6.20312Z" fill="#A0A0A0"/>
<path d="M17.5703 6.20312H14.0156V9.71875H10.5V20.5H11.8672C13.4852 20.5 14.7969 19.1884 14.7969 17.5703V15.9688H11.2979C10.9823 15.9688 10.7109 15.7263 10.6959 15.4112C10.6801 15.0746 10.9483 14.7969 11.2812 14.7969H17.5703C19.1884 14.7969 20.5 13.4852 20.5 11.8672V9.13281C20.5 7.51477 19.1884 6.20312 17.5703 6.20312Z" fill="#A0A0A0"/>
<path d="M7.76562 10.5H13.2344C14.0973 10.5 14.7969 9.80038 14.7969 8.9375V3.42969C14.7969 1.81424 13.4826 0.5 11.8672 0.5H9.13281C7.51736 0.5 6.20312 1.81424 6.20312 3.42969V5.03125H9.71875C10.0424 5.03125 10.3047 5.29355 10.3047 5.61719C10.3047 5.94083 10.0424 6.20312 9.71875 6.20312H3.42969C1.81424 6.20312 0.5 7.51736 0.5 9.13281V11.8672C0.5 13.4826 1.81424 14.7969 3.42969 14.7969H6.20312V12.0625C6.20312 11.1996 6.90274 10.5 7.76562 10.5Z" fill="#A0A0A0"/>
<path d="M11.8672 0.5H10.5V10.5H13.2344C14.0973 10.5 14.7969 9.80038 14.7969 8.9375V3.42969C14.7969 1.81424 13.4826 0.5 11.8672 0.5Z" fill="#A0A0A0"/>
<path d="M9.71875 2.88281C9.71875 3.20645 9.45645 3.46875 9.13281 3.46875C8.80917 3.46875 8.54688 3.20645 8.54688 2.88281C8.54688 2.55917 8.80917 2.29688 9.13281 2.29688C9.45645 2.29688 9.71875 2.55917 9.71875 2.88281Z" fill="white"/>
<path d="M12.4531 18.1172C12.4531 18.4408 12.1908 18.7031 11.8672 18.7031C11.5435 18.7031 11.2812 18.4408 11.2812 18.1172C11.2812 17.7935 11.5435 17.5312 11.8672 17.5312C12.1908 17.5312 12.4531 17.7935 12.4531 18.1172Z" fill="white"/>
</svg>
