<svg width="52" height="52" viewBox="0 0 52 52" fill="none" xmlns="http://www.w3.org/2000/svg">
<path d="M8.66667 39H43.3333C44.525 39 45.5 38.025 45.5 36.8333C45.5 35.6417 44.525 34.6667 43.3333 34.6667H8.66667C7.475 34.6667 6.5 35.6417 6.5 36.8333C6.5 38.025 7.475 39 8.66667 39ZM8.66667 28.1667H43.3333C44.525 28.1667 45.5 27.1917 45.5 26C45.5 24.8083 44.525 23.8333 43.3333 23.8333H8.66667C7.475 23.8333 6.5 24.8083 6.5 26C6.5 27.1917 7.475 28.1667 8.66667 28.1667ZM6.5 15.1667C6.5 16.3583 7.475 17.3333 8.66667 17.3333H43.3333C44.525 17.3333 45.5 16.3583 45.5 15.1667C45.5 13.975 44.525 13 43.3333 13H8.66667C7.475 13 6.5 13.975 6.5 15.1667Z" fill="#5C2D91"/>
</svg>
