<svg width="74" height="70" viewBox="0 0 74 70" fill="none" xmlns="http://www.w3.org/2000/svg">
<rect x="3.24951" width="70" height="70" fill="#1C5BFF"/>
<path d="M41.9184 15.8726C46.9915 15.8726 51.8567 17.8879 55.4439 21.475C59.0311 25.0622 61.0463 29.9275 61.0463 35.0005C61.0463 40.0735 59.0311 44.9388 55.4439 48.526C51.8567 52.1132 46.9915 54.1284 41.9184 54.1284L41.9184 35.0005V15.8726Z" fill="white"/>
<path d="M30.531 15.8726C35.604 15.8726 40.4693 17.8879 44.0565 21.475C47.6436 25.0622 49.6589 29.9275 49.6589 35.0005C49.6589 40.0735 47.6436 44.9388 44.0565 48.526C40.4693 52.1132 35.604 54.1284 30.531 54.1284L30.531 35.0005L30.531 15.8726Z" fill="#EF9C00"/>
<path d="M19.1279 15.8726C24.2009 15.8726 29.0662 17.8879 32.6534 21.475C36.2406 25.0622 38.2558 29.9275 38.2558 35.0005C38.2558 40.0735 36.2406 44.9388 32.6534 48.526C29.0662 52.1132 24.2009 54.1284 19.1279 54.1284L19.1279 35.0005L19.1279 15.8726Z" fill="white"/>
</svg>
