<?xml version="1.0" encoding="utf-8"?>
<!-- Generator: Adobe Illustrator 23.0.3, SVG Export Plug-In . SVG Version: 6.00 Build 0)  -->
<svg version="1.1" id="Layer_1" xmlns="http://www.w3.org/2000/svg" xmlns:xlink="http://www.w3.org/1999/xlink" x="0px" y="0px"
	 viewBox="0 0 94 96" style="enable-background:new 0 0 94 96;" xml:space="preserve">
<style type="text/css">
	.st0{fill:#0065EF;stroke:#0065EF;}
	.st1{fill:#2012D8;}
	.st2{font-family:'MyriadPro-Regular';}
	.st3{font-size:14px;}
</style>
<path class="st0" d="M23.2,11.3L23.2,11.3l0.3,0.4C25.2,10.4,27,9.6,29,9v0l0,0c2-0.6,4.1-0.7,6.1-0.5c2,0.3,4,0.9,5.8,1.9l0,0l0,0
	c1.8,1,3.4,2.3,4.6,4c1,1.3,1.8,2.8,2.3,4.4l0,0c0.6,1.5,0.9,3.1,0.9,4.8c0,1.3-0.1,2.6-0.4,3.8h0l0,0c-0.3,1.3-0.7,2.5-1.3,3.6
	c-0.6,1.1-1.3,2.2-2.2,3.2l0,0c-0.8,1-1.8,1.8-2.9,2.6c-2.3,1.5-4.8,2.4-7.6,2.7c-2.8,0.2-5.4-0.3-7.9-1.4c-1.2-0.6-2.3-1.3-3.4-2.1
	c-1-0.9-1.9-1.8-2.7-2.9c-0.7-1.1-1.4-2.2-1.9-3.4c-0.5-1.3-0.8-2.5-0.9-3.9h0l0,0c0-0.3-0.1-0.5-0.1-0.7v0v0v0v0v0v0v0v0v0v0v0v0v0
	v0v0v0v0v0v0v0v0v0v0v0v0v0v0v0v0v0v0v0v0v0v0v0v0v0v0v0v0v0v0v0v0v0v0v0v0v0v0v0v0v0v0v0v0v0v0v0v0v0v0v0v0v0v0v0v0v0v0v0v0v0v0v0
	v0v0v0v0v0v0v0v0v0v0v0v0v0v0v0v0v0v0v0v0v0v0v0v0v0v0v0v0v0v0v0v0v0v0v0v0v0v0v0v0v0v0v0v0v0v0v0v0v0v0v0v0v0v0v0v0v0v0v0v0v0v0v0
	v0v0v0v0v0v0v0v0v0v0v0v0v0v0v0v0v0v0v0v0v0v0v0v0v0v0v0v0v0v0v0v0v0v0v0v0v0v0v0v0v0v0v0v0v0v0v0v0v0v0v0v0v0v0v0v0v0v0v0v0v0v0v0
	v0v0v0v0v0v0v0v0v0v0v0v0v0v0v0v0v0v0v0v0v0v0v0v0v0v0v0v0v0v0v0v0v0v0v0v0v0v0v0v0v0v0v0v0v0v0v0v0v0v0v0v0v0v0v0v0v0v0v0v0v0v0v0
	v0v0v0v0v0v0v0v0v0v0v0v0v0v0v0v0v0v0v0v0v0v0v0v0v0v0v0v0v0v0v0v0v0v0v0v0v0v0v0v0v0v0v0v0v0v0v0v0v0v0v0v0v0v0v0v0v0v0v0v0v0v0v0
	v0v0v0v0v0v0v0v0v0v0v0v0v0v0v0v0v0v0v0v0v0v0v0v0v0v0v0v0v0v0v0v0v0v0v0v0v0v0v0v0v0v0v0v0v0v0v0v0v0v0v0v0v0v0v0v0v0v0v0v0v0v0v0
	v0v0v0v0v0v0v0v0v0v0v0v0v0v0v0v0v0v0v0v0v0v0v0v0v0v0v0v0v0v0v0v0v0v0v0v0v0v0v0v0v0v0v0v0v0v0v0v0v0v0v0v0v0v0v0v0v0v0v0v0v0v0v0
	v0v0v0v0v0v0v0v0v0v0v0v0v0v0v0v0v0v0v0v0v0v0v0v0v0v0v0v0v0v0v0v0v0v0v0v0v-0.6V3.1c0-0.7,0.3-1.3,0.8-1.8c0.5-0.5,1.1-0.8,1.9-0.8
	c0.7,0,1.4,0.2,1.9,0.8c0.5,0.5,0.8,1.1,0.8,1.8V11v0.3v0H23.2z M38.9,15.3c-0.5-0.3-1-0.6-1.5-0.9l0,0l0,0
	c-1.3-0.6-2.7-0.9-4.2-0.9c-1.4,0-2.8,0.3-4.2,0.8v0l0,0c-1.3,0.6-2.5,1.4-3.5,2.5c-1,1-1.7,2.2-2.2,3.6h0l0,0
	c-0.6,1.8-0.8,3.6-0.4,5.4l0,0l0,0c0.4,1.8,1.2,3.5,2.4,4.9c0.9,1.1,2.1,2,3.4,2.5c0.3,0.2,0.6,0.3,0.9,0.5l0.2,0.1l0,0l0,0l0.8,0.3
	l0-0.1c1.7,0.4,3.4,0.4,5.2-0.1c1.2-0.3,2.3-0.8,3.3-1.5c1-0.7,1.9-1.6,2.6-2.6c1.4-2,2-4.2,1.8-6.6c-0.1-1.3-0.4-2.5-1-3.7
	c-0.6-1.2-1.3-2.2-2.2-3.1l0,0l0,0C39.9,16,39.4,15.7,38.9,15.3z"/>
<path class="st0" d="M57.3,17.2c0.7,0,1.3,0.2,1.7,0.5c0.4,0.3,0.6,0.7,0.6,1.1v18.8c0,0.4-0.2,0.8-0.6,1.1c-0.4,0.3-1,0.5-1.7,0.5
	c-0.7,0-1.3-0.2-1.7-0.5c-0.4-0.3-0.6-0.7-0.6-1.1V18.9c0-0.4,0.2-0.8,0.6-1.1C56,17.4,56.6,17.2,57.3,17.2z"/>
<path class="st0" d="M59.7,10.9c0,1.3-1.1,2.4-2.4,2.4s-2.4-1.1-2.4-2.4c0-1.3,1.1-2.4,2.4-2.4S59.7,9.5,59.7,10.9z"/>
<path class="st0" d="M69.3,8.5c1.2,0,2.1,0.9,2.1,1.9v27.1c0,1-0.9,1.9-2.1,1.9c-1.2,0-2.1-0.9-2.1-1.9V10.4
	C67.2,9.4,68.1,8.5,69.3,8.5z"/>
<path class="st0" d="M64.9,17.3h9c1.5,0,2.5,1,2.5,2.1s-1.1,2.1-2.5,2.1h-9c-1.5,0-2.5-1-2.5-2.1S63.5,17.3,64.9,17.3z"/>
<text transform="matrix(1 0 0 1 9.8278 71)"><tspan x="0" y="0" class="st1 st2 st3">Admin panel </tspan><tspan x="12.5" y="16.8" class="st1 st2 st3">template</tspan></text>
</svg>
