<svg width="512" height="512" viewBox="0 0 512 512" fill="none" xmlns="http://www.w3.org/2000/svg">
<g clip-path="url(#clip0_431_2140)">
<rect width="512" height="512" fill="#0065EF"/>
<g filter="url(#filter0_d_431_2140)">
<path d="M0 348H512V512H0V348Z" fill="white"/>
</g>
<g filter="url(#filter1_f_431_2140)">
<circle cx="-36" cy="-35" r="360" fill="white" fill-opacity="0.35"/>
</g>
<g filter="url(#filter2_d_431_2140)">
<path d="M372.413 138.473C367.462 169.36 351.664 197.497 327.828 217.879C303.992 238.26 273.665 249.565 242.242 249.782C235.877 250.025 229.504 249.64 223.215 248.633C210.064 246.409 198.076 239.764 189.251 229.808C180.426 219.852 175.298 207.186 174.722 193.922C174.849 179.127 180.815 164.976 191.334 154.522C201.852 144.068 216.079 138.15 230.943 138.045C245.808 137.941 260.117 143.658 270.783 153.963C281.449 164.268 287.616 178.334 287.953 193.125C288.191 202.467 284.125 210.661 275.769 210.897C266.84 210.897 262.655 204.557 262.655 196.012V172.267C262.658 168.428 261.136 164.742 258.42 162.015C255.704 159.288 252.014 157.741 248.156 157.71H228.158C222.341 157.67 216.606 159.082 211.479 161.816C206.351 164.551 201.994 168.52 198.806 173.363C195.617 178.205 193.698 183.765 193.225 189.536C192.751 195.306 193.738 201.102 196.095 206.395C198.452 211.688 202.105 216.309 206.718 219.835C211.332 223.362 216.76 225.681 222.506 226.582C228.253 227.482 234.134 226.934 239.613 224.989C245.092 223.044 249.994 219.764 253.87 215.447L254.57 214.409L255.27 215.562C257.675 218.814 260.85 221.424 264.514 223.161C268.177 224.897 272.215 225.705 276.268 225.514C283.493 224.992 290.226 221.679 295.03 216.284C299.834 210.888 302.328 203.837 301.981 196.637C302.051 190.458 301.355 184.293 299.909 178.284C296.2 161.307 286.309 146.298 272.141 136.15C257.973 126.003 240.533 121.434 223.181 123.326C205.83 125.217 189.797 133.435 178.172 146.394C166.547 159.354 160.154 176.139 160.224 193.512C160.447 211.933 167.836 229.552 180.838 242.666C193.839 255.779 211.441 263.365 229.946 263.831C229.946 263.831 235.183 264.306 241.088 264.17C269.789 263.99 297.842 255.659 321.95 240.159C322.293 239.921 322.636 240.395 322.408 240.741C310.671 253.325 296.318 263.211 280.35 269.71C264.382 276.21 247.182 279.166 229.948 278.374C218.682 278.578 207.49 276.508 197.05 272.289C186.609 268.07 177.136 261.79 169.201 253.828C161.265 245.865 155.032 236.385 150.877 225.96C146.723 215.534 144.733 204.38 145.029 193.168C145.034 179.802 148.172 166.621 154.192 154.673C160.213 142.725 168.951 132.339 179.711 124.34C194.172 113.742 211.647 108 229.606 107.947H256.447C266.932 107.939 277.3 105.758 286.892 101.543C296.483 97.3285 305.087 91.1718 312.157 83.4655C312.306 83.3007 312.505 83.1879 312.723 83.1437C312.941 83.0967 313.169 83.1192 313.374 83.208C313.578 83.2969 313.75 83.4476 313.864 83.6388C313.978 83.8307 314.03 84.0532 314.011 84.2765C312.874 96.2833 308.858 107.843 302.3 117.985C302.203 118.161 302.159 118.361 302.175 118.562C302.19 118.762 302.264 118.954 302.387 119.113C302.509 119.272 302.675 119.393 302.864 119.46C303.054 119.527 303.259 119.538 303.455 119.492C315.845 116.706 327.405 111.065 337.205 103.022C347.005 94.9787 354.771 84.7585 359.878 73.1836C360.008 72.9767 360.187 72.805 360.4 72.6833C360.614 72.5631 360.855 72.5 361.101 72.5C361.347 72.5 361.588 72.5631 361.802 72.6833C362.015 72.8042 362.195 72.976 362.323 73.1836C372.843 93.2395 376.391 116.198 372.413 138.473ZM229.877 171.971C226.789 171.97 223.74 172.651 220.949 173.965C218.158 175.278 215.694 177.191 213.735 179.567C211.777 181.942 210.372 184.72 209.622 187.701C208.872 190.681 208.795 193.79 209.398 196.804C210.204 200.835 212.192 204.537 215.112 207.444C218.032 210.35 221.752 212.329 225.802 213.132C228.83 213.731 231.954 213.654 234.948 212.908C237.943 212.161 240.734 210.762 243.12 208.813C245.507 206.863 247.429 204.411 248.748 201.633C250.068 198.855 250.752 195.821 250.751 192.748V173.35C250.732 172.979 250.576 172.628 250.312 172.365C250.048 172.103 249.695 171.947 249.322 171.928L229.877 171.971Z" fill="white"/>
</g>
<path d="M261.719 438.889C261.801 442.271 261.429 445.57 260.603 448.786C259.859 452.002 258.743 455.095 257.256 458.064C255.768 460.95 253.908 463.672 251.676 466.229C249.527 468.703 247.047 470.888 244.238 472.785C238.369 476.743 231.922 479.011 224.897 479.589C217.871 480.084 211.176 478.846 204.812 475.878C201.754 474.393 198.902 472.579 196.258 470.435C193.695 468.208 191.422 465.733 189.439 463.012C187.538 460.291 185.926 457.363 184.604 454.229C183.364 451.012 182.579 447.714 182.248 444.332C182.165 443.672 182.083 443.054 182 442.477C182 441.817 182 441.157 182 440.498V438.889V388.17C182 386.026 182.744 384.211 184.232 382.727C185.719 381.242 187.538 380.5 189.686 380.5C191.836 380.5 193.654 381.242 195.142 382.727C196.63 384.211 197.373 386.026 197.373 388.17V408.581V408.458C201.589 405.324 206.217 403.056 211.259 401.654C216.383 400.169 221.591 399.757 226.881 400.417C232.087 401.077 237.005 402.726 241.634 405.365C246.263 407.922 250.189 411.303 253.412 415.509C255.974 418.89 257.958 422.602 259.363 426.642C260.768 430.601 261.553 434.683 261.719 438.889ZM242.006 453.858C245.312 449.239 246.759 444.044 246.345 438.271C246.18 435.22 245.436 432.333 244.113 429.611C242.791 426.808 241.056 424.334 238.907 422.189C237.832 421.199 236.675 420.334 235.435 419.591C234.278 418.849 233.038 418.148 231.716 417.488C228.575 416.086 225.31 415.385 221.921 415.385C218.533 415.385 215.268 416.045 212.127 417.364C208.986 418.767 206.259 420.704 203.944 423.179C201.63 425.653 199.894 428.457 198.737 431.591C197.249 435.797 196.919 440.085 197.745 444.456C198.654 448.827 200.555 452.703 203.448 456.084C205.68 458.724 208.325 460.703 211.383 462.022C212.127 462.435 212.871 462.806 213.615 463.136C214.441 463.465 215.268 463.796 216.094 464.125C215.433 463.878 214.772 463.631 214.111 463.383C213.45 463.054 212.788 462.723 212.127 462.393C217.334 464.702 222.707 465.074 228.244 463.507C231.054 462.765 233.617 461.569 235.931 459.919C238.328 458.27 240.353 456.25 242.006 453.858Z" fill="#0065EF"/>
<path d="M288.623 427.334C288.623 424.356 285.431 421.941 281.494 421.941C277.557 421.941 274.365 424.356 274.365 427.334V474.072C274.365 477.05 277.557 479.465 281.494 479.465C285.431 479.465 288.623 477.05 288.623 474.072V427.334Z" fill="#0065EF"/>
<path d="M317.757 406.23C317.757 402.951 314.843 400.293 311.248 400.293C307.653 400.293 304.739 402.951 304.739 406.23V473.527C304.739 476.806 307.653 479.464 311.248 479.464C314.843 479.464 317.757 476.806 317.757 473.527V406.23Z" fill="#0065EF"/>
<path d="M322.717 422.066H300.4C296.292 422.066 292.962 424.973 292.962 428.56C292.962 432.147 296.292 435.055 300.4 435.055H322.717C326.825 435.055 330.156 432.147 330.156 428.56C330.156 424.973 326.825 422.066 322.717 422.066Z" fill="#0065EF"/>
<path d="M281.494 414.519C285.431 414.519 288.623 411.334 288.623 407.405C288.623 403.477 285.431 400.293 281.494 400.293C277.557 400.293 274.365 403.477 274.365 407.405C274.365 411.334 277.557 414.519 281.494 414.519Z" fill="#0065EF"/>
</g>
<defs>
<filter id="filter0_d_431_2140" x="-32" y="324" width="560" height="212" filterUnits="userSpaceOnUse" color-interpolation-filters="sRGB">
<feFlood flood-opacity="0" result="BackgroundImageFix"/>
<feColorMatrix in="SourceAlpha" type="matrix" values="0 0 0 0 0 0 0 0 0 0 0 0 0 0 0 0 0 0 127 0" result="hardAlpha"/>
<feOffset dx="-8"/>
<feGaussianBlur stdDeviation="12"/>
<feComposite in2="hardAlpha" operator="out"/>
<feColorMatrix type="matrix" values="0 0 0 0 0 0 0 0 0 0 0 0 0 0 0 0 0 0 0.06 0"/>
<feBlend mode="normal" in2="BackgroundImageFix" result="effect1_dropShadow_431_2140"/>
<feBlend mode="normal" in="SourceGraphic" in2="effect1_dropShadow_431_2140" result="shape"/>
</filter>
<filter id="filter1_f_431_2140" x="-896" y="-895" width="1720" height="1720" filterUnits="userSpaceOnUse" color-interpolation-filters="sRGB">
<feFlood flood-opacity="0" result="BackgroundImageFix"/>
<feBlend mode="normal" in="SourceGraphic" in2="BackgroundImageFix" result="shape"/>
<feGaussianBlur stdDeviation="250" result="effect1_foregroundBlur_431_2140"/>
</filter>
<filter id="filter2_d_431_2140" x="129.858" y="64.9291" width="259.284" height="236.284" filterUnits="userSpaceOnUse" color-interpolation-filters="sRGB">
<feFlood flood-opacity="0" result="BackgroundImageFix"/>
<feColorMatrix in="SourceAlpha" type="matrix" values="0 0 0 0 0 0 0 0 0 0 0 0 0 0 0 0 0 0 127 0" result="hardAlpha"/>
<feOffset dy="7.57088"/>
<feGaussianBlur stdDeviation="7.57088"/>
<feComposite in2="hardAlpha" operator="out"/>
<feColorMatrix type="matrix" values="0 0 0 0 0.0509804 0 0 0 0 0.411765 0 0 0 0 0.909804 0 0 0 1 0"/>
<feBlend mode="normal" in2="BackgroundImageFix" result="effect1_dropShadow_431_2140"/>
<feBlend mode="normal" in="SourceGraphic" in2="effect1_dropShadow_431_2140" result="shape"/>
</filter>
<clipPath id="clip0_431_2140">
<rect width="512" height="512" fill="white"/>
</clipPath>
</defs>
</svg>
