<svg width="48" height="48" viewBox="0 0 48 48" fill="none" xmlns="http://www.w3.org/2000/svg">
<path d="M45 24C45 35.592 35.6025 45 24 45C12.3975 45 3 35.592 3 24C3 12.3975 12.3975 3 24 3C35.6025 3 45 12.3975 45 24Z" fill="#283544"/>
<path d="M33.8432 18.6861C33.7286 18.7529 31.0006 20.1637 31.0006 23.2918C31.1292 26.8591 34.4432 28.1102 34.5 28.1102C34.4432 28.177 33.9997 29.8144 32.686 31.5308C31.6435 33.0093 30.4863 34.5 28.7292 34.5C27.0577 34.5 26.4577 33.5146 24.5292 33.5146C22.458 33.5146 21.872 34.5 20.2863 34.5C18.5292 34.5 17.2863 32.9295 16.1869 31.4648C14.7586 29.5479 13.5447 26.5396 13.5018 23.6512C13.4729 22.1206 13.7878 20.616 14.5872 19.3381C15.7155 17.554 17.7298 16.3429 19.9295 16.3029C21.6149 16.25 23.1149 17.3812 24.1435 17.3812C25.1292 17.3812 26.972 16.3029 29.0571 16.3029C29.9571 16.3038 32.3571 16.5564 33.8432 18.6861ZM24.0009 15.9973C23.7009 14.5996 24.5292 13.2018 25.3006 12.3102C26.2863 11.2319 27.8432 10.5 29.1857 10.5C29.2714 11.8978 28.7282 13.2686 27.7574 14.267C26.8863 15.3453 25.3863 16.1571 24.0009 15.9973Z" fill="white"/>
</svg>
