<svg width="37" height="40" viewBox="0 0 37 40" fill="none" xmlns="http://www.w3.org/2000/svg">
<path d="M0.725198 0.626785C0.216244 1.23595 -0.0411358 2.01556 0.0053592 2.80721V37.1979C-0.0385049 37.9892 0.218565 38.7679 0.725198 39.3783L0.84299 39.4958L20.1478 20.2245V19.7675L0.84299 0.509277L0.725198 0.626785Z" fill="url(#paint0_linear_974_1815)"/>
<path d="M26.5877 26.6484L20.1484 20.2246V19.7677L26.5877 13.3569L26.7317 13.4353L34.362 17.757C36.5477 18.9843 36.5477 21.008 34.362 22.2484L26.7317 26.5701L26.5877 26.6484Z" fill="url(#paint1_linear_974_1815)"/>
<path d="M26.7304 26.57L20.1864 20.0417L0.724609 39.3784C1.1732 39.7463 1.73171 39.9549 2.31221 39.9715C2.89271 39.988 3.46224 39.8115 3.93116 39.4698L26.6912 26.57" fill="url(#paint2_linear_974_1815)"/>
<path d="M26.7304 13.435L3.93116 0.522168C3.46728 0.166382 2.89396 -0.0177073 2.30913 0.00134317C1.7243 0.0203936 1.16424 0.241401 0.724609 0.62662L20.1472 20.0024L26.7304 13.435Z" fill="url(#paint3_linear_974_1815)"/>
<path opacity="0.1" d="M26.5866 26.4263L3.93136 39.2477C3.47945 39.5836 2.93093 39.7651 2.36735 39.7651C1.80378 39.7651 1.25525 39.5836 0.803339 39.2477L0.685547 39.3652L0.803339 39.4827C1.25525 39.8186 1.80378 40.0001 2.36735 40.0001C2.93093 40.0001 3.47945 39.8186 3.93136 39.4827L26.6913 26.5829L26.5866 26.4263Z" fill="#363636"/>
<path opacity="0.07" d="M0.724808 39.1692C0.217328 38.5541 -0.0396368 37.7711 0.00496917 36.9757V37.1977C-0.0388949 37.989 0.218175 38.7677 0.724808 39.3781L0.842599 39.2606L0.724808 39.1692Z" fill="#363636"/>
<path opacity="0.07" d="M34.3602 22.0131L26.5859 26.4262L26.7299 26.5698L34.3602 22.1959C34.8078 21.9996 35.195 21.6882 35.4825 21.2937C35.7699 20.8991 35.9472 20.4355 35.9962 19.9502C35.9069 20.3988 35.712 20.8198 35.4275 21.1784C35.1431 21.5371 34.7773 21.8232 34.3602 22.0131Z" fill="#363636"/>
<path opacity="0.3" d="M3.9303 0.75745L34.3598 17.9789C34.7728 18.1641 35.1362 18.4439 35.4205 18.7956C35.7047 19.1472 35.9019 19.5608 35.9958 20.0027C35.9495 19.5166 35.7733 19.0518 35.4855 18.6568C35.1977 18.2618 34.809 17.951 34.3598 17.757L3.9303 0.522433C1.78387 -0.704873 0.00390625 0.31353 0.00390625 2.80731V3.02927C0.00390625 0.548546 1.78387 -0.482914 3.9303 0.75745Z" fill="white"/>
<defs>
<linearGradient id="paint0_linear_974_1815" x1="18.4463" y1="2.44163" x2="-7.65346" y2="28.6044" gradientUnits="userSpaceOnUse">
<stop stop-color="#008EFF"/>
<stop offset="0.01" stop-color="#008FFF"/>
<stop offset="0.26" stop-color="#00ACFF"/>
<stop offset="0.51" stop-color="#00C0FF"/>
<stop offset="0.76" stop-color="#00CDFF"/>
<stop offset="1" stop-color="#00D1FF"/>
</linearGradient>
<linearGradient id="paint1_linear_974_1815" x1="34.6237" y1="20.0027" x2="-3.0958" y2="20.0027" gradientUnits="userSpaceOnUse">
<stop stop-color="#FFD800"/>
<stop offset="1" stop-color="#FF8A00"/>
</linearGradient>
<linearGradient id="paint2_linear_974_1815" x1="23.1574" y1="23.567" x2="-12.2255" y2="59.0353" gradientUnits="userSpaceOnUse">
<stop stop-color="#FF3AD8"/>
<stop offset="1" stop-color="#B11162"/>
</linearGradient>
<linearGradient id="paint3_linear_974_1815" x1="-4.17029" y1="-10.8239" x2="11.6411" y2="5.01254" gradientUnits="userSpaceOnUse">
<stop stop-color="#328E71"/>
<stop offset="0.07" stop-color="#2D9571"/>
<stop offset="0.48" stop-color="#15BD74"/>
<stop offset="0.8" stop-color="#06D575"/>
<stop offset="1" stop-color="#00DE76"/>
</linearGradient>
</defs>
</svg>
