<svg width="30" height="20" viewBox="0 0 30 20" fill="none" xmlns="http://www.w3.org/2000/svg">
<path d="M16.1423 11.7727C16.1589 12.4545 16.0836 13.1195 15.9163 13.768C15.7657 14.4165 15.5397 15.0401 15.2385 15.6387C14.9372 16.2207 14.5607 16.7694 14.1088 17.2849C13.6736 17.7837 13.1715 18.2243 12.6025 18.6068C11.4142 19.405 10.1087 19.8623 8.68619 19.9786C7.2636 20.0784 5.90795 19.829 4.61925 19.2304C4 18.9311 3.4226 18.5653 2.88703 18.1329C2.3682 17.6839 1.90795 17.1851 1.50628 16.6364C1.12133 16.0877 0.794975 15.4974 0.527197 14.8655C0.276151 14.217 0.117151 13.5519 0.0502094 12.8701C0.0334772 12.7371 0.0167322 12.6123 0 12.496C0 12.3629 0 12.23 0 12.0969V11.7727V1.54641C0 1.11408 0.150627 0.748263 0.451883 0.448958C0.753138 0.149653 1.12133 0 1.55649 0C1.99164 0 2.35983 0.149653 2.66109 0.448958C2.96234 0.748263 3.11297 1.11408 3.11297 1.54641V5.66186V5.63691C3.96653 5.00504 4.90377 4.54778 5.92468 4.2651C6.96234 3.96579 8.01678 3.88265 9.08786 4.01568C10.1423 4.14871 11.138 4.48126 12.0753 5.01336C13.0126 5.52883 13.8075 6.21058 14.4602 7.05861C14.979 7.74041 15.3807 8.48867 15.6653 9.3034C15.9498 10.1016 16.1087 10.9246 16.1423 11.7727ZM12.1506 14.7907C12.82 13.8595 13.113 12.8119 13.0293 11.648C12.9958 11.0328 12.8451 10.4507 12.5774 9.90201C12.3097 9.3367 11.9582 8.83786 11.523 8.40549C11.3055 8.20595 11.0711 8.03136 10.8201 7.8817C10.5857 7.73205 10.3347 7.59075 10.0669 7.45769C9.43092 7.17501 8.76991 7.03367 8.08368 7.03367C7.39748 7.03367 6.7364 7.1667 6.10042 7.43275C5.46443 7.71546 4.91213 8.10618 4.44351 8.60502C3.9749 9.10387 3.62343 9.66918 3.38912 10.3011C3.08787 11.1491 3.02092 12.0137 3.18828 12.8951C3.37239 13.7764 3.75732 14.5578 4.34309 15.2396C4.79498 15.7718 5.33055 16.1708 5.94979 16.4368C6.10042 16.52 6.25104 16.5949 6.40167 16.6613C6.56903 16.7278 6.7364 16.7944 6.90376 16.8609C6.76987 16.811 6.63599 16.7611 6.50209 16.7112C6.3682 16.6447 6.23431 16.5781 6.10042 16.5117C7.15481 16.9772 8.24272 17.052 9.36401 16.7361C9.93301 16.5865 10.4519 16.3454 10.9205 16.0128C11.4059 15.6802 11.8159 15.2729 12.1506 14.7907Z" fill="#0065EF"/>
<path d="M21.5905 9.44279C21.5905 8.84228 20.9442 8.35547 20.147 8.35547C19.3498 8.35547 18.7035 8.84228 18.7035 9.44279V18.8662C18.7035 19.4667 19.3498 19.9535 20.147 19.9535C20.9442 19.9535 21.5905 19.4667 21.5905 18.8662V9.44279Z" fill="#0065EF"/>
<path d="M20.147 6.85907C20.9442 6.85907 21.5905 6.21696 21.5905 5.42489C21.5905 4.63282 20.9442 3.99072 20.147 3.99072C19.3498 3.99072 18.7035 4.63282 18.7035 5.42489C18.7035 6.21696 19.3498 6.85907 20.147 6.85907Z" fill="#0065EF"/>
<path d="M27.4895 5.18794C27.4895 4.52674 26.8994 3.99072 26.1715 3.99072C25.4436 3.99072 24.8535 4.52674 24.8535 5.18794V18.7564C24.8535 19.4177 25.4436 19.9537 26.1715 19.9537C26.8994 19.9537 27.4895 19.4177 27.4895 18.7564V5.18794Z" fill="#0065EF"/>
<path d="M28.493 8.38062H23.9742C23.1423 8.38062 22.4679 8.96688 22.4679 9.69007C22.4679 10.4133 23.1423 10.9995 23.9742 10.9995H28.493C29.3249 10.9995 29.9993 10.4133 29.9993 9.69007C29.9993 8.96688 29.3249 8.38062 28.493 8.38062Z" fill="#0065EF"/>
</svg>
