<svg width="94" height="96" viewBox="0 0 94 96" fill="none" xmlns="http://www.w3.org/2000/svg">
<path d="M23.226 11.3238H23.2629L23.5235 11.6758C25.1814 10.4484 27.0003 9.56106 28.9829 9.01211L28.9829 9.01214L28.988 9.01065C30.9982 8.43082 33.0388 8.26989 35.1136 8.52751C37.1565 8.78531 39.0854 9.42924 40.9039 10.4616L40.9039 10.4616L40.9098 10.4649C42.7236 11.4624 44.2604 12.7803 45.5237 14.4213C46.5288 15.7425 47.3069 17.192 47.8587 18.7718L47.8597 18.7748C48.4114 20.3222 48.7196 21.9172 48.7849 23.5616C48.8168 24.8784 48.6712 26.1611 48.3487 27.4113L48.3485 27.4113L48.3458 27.4231C48.0538 28.6802 47.6159 29.889 47.0318 31.0502C46.4489 32.1758 45.7194 33.2392 44.8417 34.2403L44.8409 34.2412C44.0003 35.2048 43.0293 36.0573 41.9262 36.7988C39.6211 38.3471 37.0931 39.2328 34.3346 39.4589C31.5758 39.6519 28.9511 39.1689 26.4526 38.009C25.2524 37.4286 24.1334 36.7199 23.0948 35.8823C22.0893 35.0114 21.1976 34.0446 20.419 32.9817C19.6725 31.9169 19.0387 30.7712 18.5178 29.5433C18.0335 28.2902 17.7272 27.0068 17.598 25.6915L17.5982 25.6915L17.5965 25.678C17.5644 25.4227 17.5322 25.1822 17.5 24.9565V24.9562V24.9547V24.9531V24.9516V24.95V24.9484V24.9469V24.9453V24.9438V24.9422V24.9406V24.9391V24.9375V24.936V24.9344V24.9329V24.9313V24.9297V24.9282V24.9266V24.9251V24.9235V24.9219V24.9204V24.9188V24.9173V24.9157V24.9141V24.9126V24.911V24.9095V24.9079V24.9063V24.9048V24.9032V24.9017V24.9001V24.8986V24.897V24.8954V24.8939V24.8923V24.8908V24.8892V24.8876V24.8861V24.8845V24.883V24.8814V24.8798V24.8783V24.8767V24.8752V24.8736V24.872V24.8705V24.8689V24.8674V24.8658V24.8643V24.8627V24.8611V24.8596V24.858V24.8565V24.8549V24.8533V24.8518V24.8502V24.8487V24.8471V24.8455V24.844V24.8424V24.8409V24.8393V24.8378V24.8362V24.8346V24.8331V24.8315V24.83V24.8284V24.8268V24.8253V24.8237V24.8222V24.8206V24.819V24.8175V24.8159V24.8144V24.8128V24.8113V24.8097V24.8081V24.8066V24.805V24.8035V24.8019V24.8003V24.7988V24.7972V24.7957V24.7941V24.7925V24.791V24.7894V24.7879V24.7863V24.7847V24.7832V24.7816V24.7801V24.7785V24.777V24.7754V24.7738V24.7723V24.7707V24.7692V24.7676V24.766V24.7645V24.7629V24.7614V24.7598V24.7583V24.7567V24.7551V24.7536V24.752V24.7505V24.7489V24.7473V24.7458V24.7442V24.7427V24.7411V24.7395V24.738V24.7364V24.7349V24.7333V24.7318V24.7302V24.7286V24.7271V24.7255V24.724V24.7224V24.7208V24.7193V24.7177V24.7162V24.7146V24.713V24.7115V24.7099V24.7084V24.7068V24.7053V24.7037V24.7021V24.7006V24.699V24.6975V24.6959V24.6943V24.6928V24.6912V24.6897V24.6881V24.6866V24.685V24.6834V24.6819V24.6803V24.6788V24.6772V24.6756V24.6741V24.6725V24.671V24.6694V24.6678V24.6663V24.6647V24.6632V24.6616V24.6601V24.6585V24.6569V24.6554V24.6538V24.6523V24.6507V24.6491V24.6476V24.646V24.6445V24.6429V24.6413V24.6398V24.6382V24.6367V24.6351V24.6336V24.632V24.6304V24.6289V24.6273V24.6258V24.6242V24.6226V24.6211V24.6195V24.618V24.6164V24.6149V24.6133V24.6117V24.6102V24.6086V24.6071V24.6055V24.6039V24.6024V24.6008V24.5993V24.5977V24.5961V24.5946V24.593V24.5915V24.5899V24.5884V24.5868V24.5852V24.5837V24.5821V24.5806V24.579V24.5774V24.5759V24.5743V24.5728V24.5712V24.5697V24.5681V24.5665V24.565V24.5634V24.5619V24.5603V24.5587V24.5572V24.5556V24.5541V24.5525V24.5509V24.5494V24.5478V24.5463V24.5447V24.5432V24.5416V24.54V24.5385V24.5369V24.5354V24.5338V24.5322V24.5307V24.5291V24.5276V24.526V24.5245V24.5229V24.5213V24.5198V24.5182V24.5167V24.5151V24.5135V24.512V24.5104V24.5089V24.5073V24.5057V24.5042V24.5026V24.5011V24.4995V24.498V24.4964V24.4948V24.4933V24.4917V24.4902V24.4886V24.487V24.4855V24.4839V24.4824V24.4808V24.4792V24.4777V24.4761V24.4746V24.473V24.4715V24.4699V24.4683V24.4668V24.4652V24.4637V24.4621V24.4605V24.459V24.4574V24.4559V24.4543V24.4528V24.4512V24.4496V24.4481V24.4465V24.445V24.4434V24.4418V24.4403V24.4387V24.4372V24.4356V24.434V24.4325V24.4309V24.4294V24.4278V24.4263V24.4247V24.4231V24.4216V24.42V24.4185V24.4169V24.4153V24.4138V24.4122V24.4107V24.4091V24.4075V24.406V24.4044V24.4029V24.4013V24.3998V24.3982V24.3966V24.3951V24.3935V24.392V24.3904V24.3888V24.3873V24.3857V24.3842V24.3826V24.381V24.3795V24.3779V24.3764V24.3748V24.3733V24.3717V24.3701V24.3686V24.367V24.3655V24.3639V24.3623V24.3608V24.3592V24.3577V24.3561V24.3545V24.353V24.3514V24.3499V24.3483V24.3468V24.3452V24.3436V24.3421V24.3405V24.339V24.3374V24.3358V24.3343V24.3327V24.3312V24.3296V24.328V24.3265V24.3249V24.3234V24.3218V24.3202V24.3187V24.3171V24.3156V24.314V24.3125V24.3109V24.3093V24.3078V24.3062V24.3047V24.3031V24.3015V24.3V24.2984V24.2969V24.2953V24.2937V24.2922V24.2906V24.2891V24.2875V24.2859V24.2844V24.2828V24.2813V24.2797V24.2782V24.2766V24.275V24.2735V24.2719V24.2704V24.2688V24.2672V24.2657V24.2641V24.2626V24.261V24.2594V24.2579V24.2563V24.2548V24.2532V24.2516V24.2501V24.2485V24.247V24.2454V24.2439V24.2423V24.2407V24.2392V24.2376V24.2361V24.2345V24.2329V24.2314V24.2298V24.2283V24.2267V24.2251V24.2236V24.222V24.2205V24.2189V24.2173V24.2158V24.2142V24.2127V24.2111V24.2095V24.208V24.2064V24.2049V24.2033V24.2018V24.2002V24.1986V24.1971V24.1955V24.194V23.5455V3.09284C17.5 2.35864 17.75 1.75549 18.2562 1.25262C18.7625 0.749613 19.3711 0.5 20.113 0.5C20.8549 0.5 21.4635 0.749612 21.9698 1.25262C22.4759 1.75549 22.726 2.35864 22.726 3.09284V11.0219V11.2739V11.3238H23.226ZM38.9029 15.3379C38.4199 15.0299 37.9043 14.7399 37.3565 14.4677L37.3469 14.4629L37.3371 14.4585C36.002 13.8652 34.6109 13.5674 33.1674 13.5674C31.7285 13.5674 30.3407 13.8468 29.0079 14.4043L29.0079 14.4042L28.9978 14.4087C27.666 15.0007 26.5063 15.8207 25.5227 16.8678C24.5405 17.9133 23.8017 19.101 23.3095 20.4284L23.3094 20.4284L23.3071 20.4349C22.675 22.2143 22.5341 24.0335 22.8854 25.8835L22.8853 25.8836L22.8872 25.8925C23.2725 27.7372 24.0799 29.3767 25.3061 30.8042C26.2523 31.9181 27.3777 32.7601 28.6795 33.3234C28.9825 33.49 29.2864 33.6408 29.591 33.7756L29.7819 33.8704L29.8053 33.882L29.8297 33.8911L30.633 34.1904L30.6823 34.0625C32.3697 34.4864 34.0984 34.4503 35.8595 33.9549C37.0512 33.641 38.1417 33.1348 39.1272 32.4359C40.1453 31.7377 41.0067 30.8819 41.7097 29.8701C43.1156 27.9128 43.7323 25.7038 43.5577 23.2646C43.4867 21.9706 43.1692 20.7435 42.6056 19.5875C42.046 18.4067 41.3101 17.362 40.3985 16.4564L40.3915 16.4493L40.3841 16.4426C39.926 16.0224 39.4321 15.654 38.9029 15.3379Z" fill="#0065EF" stroke="#0065EF"/>
<path d="M57.2972 17.2112C57.9962 17.2112 58.6099 17.4252 59.0378 17.7475C59.4654 18.0696 59.6842 18.477 59.6842 18.8858V37.7328C59.6842 38.1416 59.4654 38.549 59.0378 38.8711C58.6099 39.1934 57.9962 39.4074 57.2972 39.4074C56.5982 39.4074 55.9844 39.1934 55.5566 38.8711C55.1289 38.549 54.9101 38.1416 54.9101 37.7328V18.8858C54.9101 18.477 55.1289 18.0696 55.5566 17.7475C55.9844 17.4252 56.5982 17.2112 57.2972 17.2112Z" fill="#0065EF" stroke="#0065EF"/>
<path d="M59.6842 10.8501C59.6842 12.155 58.6186 13.2184 57.2972 13.2184C55.9758 13.2184 54.9101 12.155 54.9101 10.8501C54.9101 9.54513 55.9758 8.48172 57.2972 8.48172C58.6186 8.48172 59.6842 9.54513 59.6842 10.8501Z" fill="#0065EF" stroke="#0065EF"/>
<path d="M69.3468 8.48172C70.5728 8.48172 71.4828 9.37403 71.4828 10.3762V37.5133C71.4828 38.5155 70.5728 39.4078 69.3468 39.4078C68.1209 39.4078 67.2108 38.5155 67.2108 37.5133V10.3762C67.2108 9.37403 68.1209 8.48172 69.3468 8.48172Z" fill="#0065EF" stroke="#0065EF"/>
<path d="M64.95 17.2613H73.9877C75.4434 17.2613 76.5003 18.2734 76.5003 19.3802C76.5003 20.487 75.4434 21.4991 73.9877 21.4991H64.95C63.4943 21.4991 62.4374 20.487 62.4374 19.3802C62.4374 18.2734 63.4943 17.2613 64.95 17.2613Z" fill="#0065EF" stroke="#0065EF"/>
<path d="M7.7959 77.5781H4.97949V86H3.35254V77.5781H0.542969V76.1973H7.7959V77.5781ZM10.79 86.1641C9.70996 86.1641 8.84635 85.8382 8.19922 85.1865C7.55664 84.5303 7.23535 83.6621 7.23535 82.582C7.23535 81.4062 7.57031 80.488 8.24023 79.8271C8.91471 79.1663 9.82161 78.8359 10.9609 78.8359C12.0547 78.8359 12.9069 79.1572 13.5176 79.7998C14.1283 80.4424 14.4336 81.3333 14.4336 82.4727C14.4336 83.5892 14.1032 84.4847 13.4424 85.1592C12.7861 85.8291 11.902 86.1641 10.79 86.1641ZM10.8652 80.1006C10.2454 80.1006 9.75553 80.3171 9.39551 80.75C9.03548 81.1829 8.85547 81.7799 8.85547 82.541C8.85547 83.2747 9.03776 83.8535 9.40234 84.2773C9.76693 84.6966 10.2546 84.9062 10.8652 84.9062C11.4896 84.9062 11.9681 84.6989 12.3008 84.2842C12.638 83.8695 12.8066 83.2793 12.8066 82.5137C12.8066 81.7435 12.638 81.1488 12.3008 80.7295C11.9681 80.3102 11.4896 80.1006 10.8652 80.1006ZM22.418 86H20.832V84.8105H20.8047C20.2943 85.7129 19.5081 86.1641 18.4463 86.1641C17.585 86.1641 16.8945 85.8519 16.375 85.2275C15.86 84.5986 15.6025 83.7441 15.6025 82.6641C15.6025 81.5065 15.8874 80.5791 16.457 79.8818C17.0312 79.1846 17.7946 78.8359 18.7471 78.8359C19.6904 78.8359 20.3763 79.2142 20.8047 79.9707H20.832V75.6367H22.418V86ZM20.8525 82.8008V81.8848C20.8525 81.388 20.6908 80.9665 20.3672 80.6201C20.0436 80.2738 19.6312 80.1006 19.1299 80.1006C18.5374 80.1006 18.0703 80.3216 17.7285 80.7637C17.3913 81.2057 17.2227 81.8187 17.2227 82.6025C17.2227 83.3135 17.3844 83.8763 17.708 84.291C18.0361 84.7012 18.4759 84.9062 19.0273 84.9062C19.5697 84.9062 20.0094 84.708 20.3467 84.3115C20.6839 83.9105 20.8525 83.4069 20.8525 82.8008ZM27.5928 86.1641C26.5127 86.1641 25.6491 85.8382 25.002 85.1865C24.3594 84.5303 24.0381 83.6621 24.0381 82.582C24.0381 81.4062 24.373 80.488 25.043 79.8271C25.7174 79.1663 26.6243 78.8359 27.7637 78.8359C28.8574 78.8359 29.7096 79.1572 30.3203 79.7998C30.931 80.4424 31.2363 81.3333 31.2363 82.4727C31.2363 83.5892 30.9059 84.4847 30.2451 85.1592C29.5889 85.8291 28.7048 86.1641 27.5928 86.1641ZM27.668 80.1006C27.0482 80.1006 26.5583 80.3171 26.1982 80.75C25.8382 81.1829 25.6582 81.7799 25.6582 82.541C25.6582 83.2747 25.8405 83.8535 26.2051 84.2773C26.5697 84.6966 27.0573 84.9062 27.668 84.9062C28.2923 84.9062 28.7708 84.6989 29.1035 84.2842C29.4408 83.8695 29.6094 83.2793 29.6094 82.5137C29.6094 81.7435 29.4408 81.1488 29.1035 80.7295C28.7708 80.3102 28.2923 80.1006 27.668 80.1006ZM43.1787 77.5781H40.3623V86H38.7354V77.5781H35.9258V76.1973H43.1787V77.5781ZM48.9961 82.9307H44.2246C44.2428 83.5778 44.4411 84.0768 44.8193 84.4277C45.2021 84.7786 45.7262 84.9541 46.3916 84.9541C47.139 84.9541 47.8249 84.7308 48.4492 84.2842V85.5625C47.8112 85.9635 46.9681 86.1641 45.9199 86.1641C44.89 86.1641 44.0811 85.8473 43.4932 85.2139C42.9098 84.5758 42.6182 83.6803 42.6182 82.5273C42.6182 81.4382 42.9395 80.5518 43.582 79.8682C44.2292 79.18 45.0312 78.8359 45.9883 78.8359C46.9453 78.8359 47.6859 79.1436 48.21 79.7588C48.734 80.374 48.9961 81.2285 48.9961 82.3223V82.9307ZM47.4648 81.8096C47.4603 81.2399 47.3258 80.7979 47.0615 80.4834C46.7972 80.1644 46.4326 80.0049 45.9678 80.0049C45.512 80.0049 45.1247 80.1712 44.8057 80.5039C44.4912 80.8366 44.2975 81.2718 44.2246 81.8096H47.4648ZM60.9727 86H59.3867V82.1855C59.3867 81.4518 59.2819 80.9209 59.0723 80.5928C58.8672 80.2646 58.5186 80.1006 58.0264 80.1006C57.6117 80.1006 57.2585 80.3079 56.9668 80.7227C56.6797 81.1374 56.5361 81.6341 56.5361 82.2129V86H54.9434V82.0557C54.9434 80.7523 54.4831 80.1006 53.5625 80.1006C53.1341 80.1006 52.7809 80.2965 52.5029 80.6885C52.2295 81.0804 52.0928 81.5885 52.0928 82.2129V86H50.5068V79H52.0928V80.1074H52.1201C52.626 79.2598 53.362 78.8359 54.3281 78.8359C54.8112 78.8359 55.2327 78.9704 55.5928 79.2393C55.9574 79.5036 56.2057 79.8522 56.3379 80.2852C56.8574 79.319 57.6322 78.8359 58.6621 78.8359C60.2025 78.8359 60.9727 79.7861 60.9727 81.6865V86ZM64.5205 84.9678H64.4932V89.2197H62.9072V79H64.4932V80.2305H64.5205C65.0628 79.3008 65.8558 78.8359 66.8994 78.8359C67.7881 78.8359 68.4808 79.1481 68.9775 79.7725C69.4743 80.3968 69.7227 81.2354 69.7227 82.2881C69.7227 83.4548 69.4424 84.389 68.8818 85.0908C68.3213 85.7926 67.5557 86.1436 66.585 86.1436C65.6917 86.1436 65.0036 85.7516 64.5205 84.9678ZM64.4795 82.2061V83.0742C64.4795 83.5846 64.6413 84.0176 64.9648 84.373C65.293 84.7285 65.7077 84.9062 66.209 84.9062C66.7969 84.9062 67.2572 84.6784 67.5898 84.2227C67.9271 83.7624 68.0957 83.1221 68.0957 82.3018C68.0957 81.6136 67.9385 81.0758 67.624 80.6885C67.3141 80.2965 66.8926 80.1006 66.3594 80.1006C65.7943 80.1006 65.3385 80.3011 64.9922 80.7021C64.6504 81.1032 64.4795 81.6045 64.4795 82.2061ZM72.9355 86H71.3428V75.6367H72.9355V86ZM80.3799 86H78.8418V84.9062H78.8145C78.3314 85.7448 77.6227 86.1641 76.6885 86.1641C76.0003 86.1641 75.4603 85.9772 75.0684 85.6035C74.681 85.2298 74.4873 84.7354 74.4873 84.1201C74.4873 82.7985 75.2484 82.0283 76.7705 81.8096L78.8486 81.5156C78.8486 80.5176 78.3747 80.0186 77.4268 80.0186C76.5928 80.0186 75.8408 80.3057 75.1709 80.8799V79.4922C75.9092 79.0547 76.7614 78.8359 77.7275 78.8359C79.4958 78.8359 80.3799 79.7064 80.3799 81.4473V86ZM78.8486 82.5615L77.3789 82.7666C76.9232 82.8258 76.5791 82.9375 76.3467 83.1016C76.1188 83.2611 76.0049 83.5436 76.0049 83.9492C76.0049 84.2454 76.1097 84.4893 76.3193 84.6807C76.5335 84.8675 76.8184 84.9609 77.1738 84.9609C77.6569 84.9609 78.0557 84.7923 78.3701 84.4551C78.6891 84.1133 78.8486 83.6849 78.8486 83.1699V82.5615ZM86.0127 85.9248C85.7028 86.0798 85.2949 86.1572 84.7891 86.1572C83.431 86.1572 82.752 85.5055 82.752 84.2021V80.2441H81.583V79H82.752V77.3799L84.3379 76.9287V79H86.0127V80.2441H84.3379V83.7441C84.3379 84.1589 84.4131 84.4551 84.5635 84.6328C84.7139 84.8105 84.9645 84.8994 85.3154 84.8994C85.5843 84.8994 85.8167 84.8219 86.0127 84.667V85.9248ZM93.2246 82.9307H88.4531C88.4714 83.5778 88.6696 84.0768 89.0479 84.4277C89.4307 84.7786 89.9548 84.9541 90.6201 84.9541C91.3675 84.9541 92.0534 84.7308 92.6777 84.2842V85.5625C92.0397 85.9635 91.1966 86.1641 90.1484 86.1641C89.1185 86.1641 88.3096 85.8473 87.7217 85.2139C87.1383 84.5758 86.8467 83.6803 86.8467 82.5273C86.8467 81.4382 87.168 80.5518 87.8105 79.8682C88.4577 79.18 89.2598 78.8359 90.2168 78.8359C91.1738 78.8359 91.9144 79.1436 92.4385 79.7588C92.9626 80.374 93.2246 81.2285 93.2246 82.3223V82.9307ZM91.6934 81.8096C91.6888 81.2399 91.5544 80.7979 91.29 80.4834C91.0257 80.1644 90.6611 80.0049 90.1963 80.0049C89.7406 80.0049 89.3532 80.1712 89.0342 80.5039C88.7197 80.8366 88.526 81.2718 88.4531 81.8096H91.6934Z" fill="#C1CADF"/>
</svg>
