<svg width="200" height="400" viewBox="0 0 200 400" fill="none" xmlns="http://www.w3.org/2000/svg">
<g clip-path="url(#clip0_1582_1530)">
<path d="M200 3.33786e-06C200 26.2644 194.827 52.2716 184.776 76.5367C174.725 100.802 159.993 122.85 141.421 141.421C122.85 159.993 100.802 174.725 76.5367 184.776C52.2716 194.827 26.2644 200 -5.40442e-06 200L3.33786e-06 3.33786e-06H200Z" fill="#FECEEF"/>
<path d="M200 400C173.736 400 147.728 394.827 123.463 384.776C99.1982 374.725 77.1504 359.993 58.5786 341.421C40.0069 322.85 25.275 300.802 15.2241 276.537C5.17315 252.272 -1.14805e-06 226.264 0 200L200 200V400Z" fill="#DFECFF"/>
</g>
<defs>
<clipPath id="clip0_1582_1530">
<rect width="200" height="400" fill="white"/>
</clipPath>
</defs>
</svg>
