<svg width="200" height="400" viewBox="0 0 200 400" fill="none" xmlns="http://www.w3.org/2000/svg">
<g clip-path="url(#clip0_1582_1533)">
<path d="M-6.67572e-06 400C-6.67572e-06 373.736 5.17315 347.728 15.2241 323.463C25.275 299.198 40.0069 277.15 58.5786 258.579C77.1503 240.007 99.1982 225.275 123.463 215.224C147.728 205.173 173.736 200 200 200L200 400H-6.67572e-06Z" fill="#FFEEFA"/>
<path d="M0 0C26.2644 0 52.2716 5.17316 76.5367 15.2241C100.802 25.275 122.85 40.0069 141.421 58.5786C159.993 77.1504 174.725 99.1982 184.776 123.463C194.827 147.728 200 173.736 200 200L0 200V0Z" fill="#ADD0FF"/>
</g>
<defs>
<clipPath id="clip0_1582_1533">
<rect width="200" height="400" fill="white" transform="translate(200 400) rotate(180)"/>
</clipPath>
</defs>
</svg>
