<svg width="24" height="24" viewBox="0 0 24 24" fill="none" xmlns="http://www.w3.org/2000/svg">
<path fill-rule="evenodd" clip-rule="evenodd" d="M11.9667 0.383496C8.8813 0.383496 5.9223 1.61266 3.7406 3.80058C1.55891 5.98851 0.333252 8.95597 0.333252 12.0502V12.7668C0.482825 15.2835 3.50752 15.7502 5.31901 13.9335C5.91145 13.4055 6.68267 13.1244 7.47492 13.1478C8.26717 13.1712 9.02057 13.4973 9.58101 14.0593C10.1415 14.6214 10.4666 15.3769 10.4899 16.1714C10.5132 16.9659 10.233 17.7394 9.70647 18.3335C7.87836 20.2668 8.39356 23.4502 11.036 23.6668H12.0332C15.1185 23.6668 18.0775 22.4377 20.2592 20.2497C22.4409 18.0618 23.6666 15.0944 23.6666 12.0002C23.6666 8.90597 22.4409 5.93851 20.2592 3.75058C18.0775 1.56266 15.1185 0.333496 12.0332 0.333496L11.9667 0.383496ZM11.9667 22.0502H11.1025C10.8823 22.0432 10.6712 21.9609 10.5042 21.8168C10.3721 21.6796 10.2851 21.5051 10.2549 21.3168C10.2019 20.992 10.2271 20.6592 10.3283 20.3461C10.4294 20.0331 10.6037 19.7487 10.8366 19.5168C11.7016 18.6241 12.1854 17.4283 12.1854 16.1835C12.1854 14.9387 11.7016 13.7429 10.8366 12.8502C10.3936 12.4057 9.8677 12.0531 9.28883 11.8125C8.70995 11.572 8.08949 11.4482 7.46288 11.4482C6.83628 11.4482 6.21581 11.572 5.63694 11.8125C5.05807 12.0531 4.53213 12.4057 4.08919 12.8502C3.90749 13.0631 3.67518 13.2267 3.41374 13.3257C3.1523 13.4248 2.87018 13.4561 2.59346 13.4168C2.45376 13.3901 2.32591 13.3201 2.22784 13.2168C2.11366 13.0825 2.0543 12.9099 2.06165 12.7335V12.1168C2.06165 10.139 2.64647 8.20562 3.74215 6.56113C4.83783 4.91664 6.39517 3.63491 8.21723 2.87803C10.0393 2.12116 12.0442 1.92312 13.9785 2.30898C15.9128 2.69483 17.6895 3.64724 19.0841 5.04576C20.4786 6.44429 21.4283 8.22612 21.8131 10.1659C22.1978 12.1057 22.0004 14.1164 21.2456 15.9437C20.4909 17.7709 19.2128 19.3327 17.573 20.4315C15.9332 21.5303 14.0053 22.1168 12.0332 22.1168L11.9667 22.0502ZM13.6286 5.3735C13.6286 5.81552 13.4535 6.23945 13.1418 6.55201C12.8302 6.86457 12.4075 7.04016 11.9667 7.04016C11.5259 7.04016 11.1032 6.86457 10.7915 6.55201C10.4799 6.23945 10.3048 5.81552 10.3048 5.3735C10.3048 4.93147 10.4799 4.50754 10.7915 4.19498C11.1032 3.88242 11.5259 3.70683 11.9667 3.70683C12.4075 3.70683 12.8302 3.88242 13.1418 4.19498C13.4535 4.50754 13.6286 4.93147 13.6286 5.3735ZM18.6144 17.0518C18.6144 17.4939 18.4393 17.9178 18.1276 18.2303C17.8159 18.5429 17.3932 18.7185 16.9524 18.7185C16.5117 18.7185 16.089 18.5429 15.7773 18.2303C15.4656 17.9178 15.2905 17.4939 15.2905 17.0518C15.2905 16.6098 15.4656 16.1859 15.7773 15.8733C16.089 15.5608 16.5117 15.3852 16.9524 15.3852C17.3932 15.3852 17.8159 15.5608 18.1276 15.8733C18.4393 16.1859 18.6144 16.6098 18.6144 17.0518ZM6.98093 8.7185C7.42169 8.7185 7.84441 8.5429 8.15608 8.23034C8.46775 7.91778 8.64285 7.49386 8.64285 7.05183C8.64285 6.6098 8.46775 6.18588 8.15608 5.87332C7.84441 5.56076 7.42169 5.38516 6.98093 5.38516C6.54016 5.38516 6.11744 5.56076 5.80577 5.87332C5.4941 6.18588 5.31901 6.6098 5.31901 7.05183C5.31901 7.49386 5.4941 7.91778 5.80577 8.23034C6.11744 8.5429 6.54016 8.7185 6.98093 8.7185ZM18.6144 7.05183C18.6144 7.49386 18.4393 7.91778 18.1276 8.23034C17.8159 8.5429 17.3932 8.7185 16.9524 8.7185C16.5117 8.7185 16.089 8.5429 15.7773 8.23034C15.4656 7.91778 15.2905 7.49386 15.2905 7.05183C15.2905 6.6098 15.4656 6.18588 15.7773 5.87332C16.089 5.56076 16.5117 5.38516 16.9524 5.38516C17.3932 5.38516 17.8159 5.56076 18.1276 5.87332C18.4393 6.18588 18.6144 6.6098 18.6144 7.05183ZM20.2763 12.0452C20.2763 12.4872 20.1012 12.9111 19.7895 13.2237C19.4778 13.5362 19.0551 13.7118 18.6144 13.7118C18.1736 13.7118 17.7509 13.5362 17.4392 13.2237C17.1275 12.9111 16.9524 12.4872 16.9524 12.0452C16.9524 11.6031 17.1275 11.1792 17.4392 10.8667C17.7509 10.5541 18.1736 10.3785 18.6144 10.3785C19.0551 10.3785 19.4778 10.5541 19.7895 10.8667C20.1012 11.1792 20.2763 11.6031 20.2763 12.0452Z" fill="#F8F8F8"/>
</svg>
