<svg width="40" height="40" viewBox="0 0 40 40" fill="none" xmlns="http://www.w3.org/2000/svg">
<circle cx="20" cy="20" r="20" fill="#1C5BFF"/>
<path fill-rule="evenodd" clip-rule="evenodd" d="M19.9715 10.0429C17.3269 10.0429 14.7906 11.0964 12.9206 12.9718C11.0506 14.8472 10 17.3907 10 20.0429V20.6571C10.1282 22.8143 12.7208 23.2143 14.2735 21.6571C14.7813 21.2046 15.4424 20.9637 16.1214 20.9837C16.8005 21.0037 17.4463 21.2832 17.9267 21.765C18.407 22.2467 18.6857 22.8944 18.7057 23.5754C18.7257 24.2564 18.4855 24.9193 18.0342 25.4286C16.4672 27.0857 16.9088 29.8143 19.1738 30H20.0285C22.6731 30 25.2094 28.9464 27.0794 27.0711C28.9494 25.1957 30 22.6522 30 20C30 17.3478 28.9494 14.8043 27.0794 12.9289C25.2094 11.0536 22.6731 10 20.0285 10L19.9715 10.0429ZM19.9715 28.6143H19.2308C19.0421 28.6083 18.8611 28.5378 18.7179 28.4143C18.6047 28.2967 18.5302 28.1471 18.5043 27.9857C18.4589 27.7073 18.4804 27.4221 18.5672 27.1537C18.6539 26.8853 18.8033 26.6416 19.0029 26.4429C19.7443 25.6776 20.159 24.6527 20.159 23.5857C20.159 22.5187 19.7443 21.4938 19.0029 20.7286C18.6232 20.3476 18.1724 20.0454 17.6762 19.8392C17.18 19.633 16.6482 19.5268 16.1111 19.5268C15.574 19.5268 15.0422 19.633 14.546 19.8392C14.0498 20.0454 13.599 20.3476 13.2194 20.7286C13.0636 20.9111 12.8645 21.0513 12.6404 21.1362C12.4163 21.2211 12.1745 21.248 11.9373 21.2143C11.8176 21.1913 11.708 21.1314 11.6239 21.0429C11.5261 20.9277 11.4752 20.7797 11.4815 20.6286V20.1C11.4815 18.4047 11.9828 16.7475 12.9219 15.338C13.8611 13.9284 15.1959 12.8298 16.7577 12.181C18.3195 11.5323 20.038 11.3625 21.6959 11.6933C23.3539 12.024 24.8768 12.8403 26.0721 14.0391C27.2675 15.2378 28.0815 16.7651 28.4113 18.4278C28.7411 20.0905 28.5718 21.8139 27.9249 23.3801C27.278 24.9464 26.1825 26.285 24.777 27.2269C23.3714 28.1687 21.7189 28.6714 20.0285 28.6714L19.9715 28.6143ZM21.396 14.32C21.396 14.6989 21.2459 15.0622 20.9788 15.3302C20.7116 15.5981 20.3493 15.7486 19.9715 15.7486C19.5937 15.7486 19.2314 15.5981 18.9642 15.3302C18.6971 15.0622 18.547 14.6989 18.547 14.32C18.547 13.9411 18.6971 13.5778 18.9642 13.3098C19.2314 13.0419 19.5937 12.8914 19.9715 12.8914C20.3493 12.8914 20.7116 13.0419 20.9788 13.3098C21.2459 13.5778 21.396 13.9411 21.396 14.32ZM25.6695 24.33C25.6695 24.7089 25.5194 25.0722 25.2523 25.3402C24.9851 25.6081 24.6228 25.7586 24.245 25.7586C23.8672 25.7586 23.5049 25.6081 23.2377 25.3402C22.9706 25.0722 22.8205 24.7089 22.8205 24.33C22.8205 23.9511 22.9706 23.5878 23.2377 23.3198C23.5049 23.0519 23.8672 22.9014 24.245 22.9014C24.6228 22.9014 24.9851 23.0519 25.2523 23.3198C25.5194 23.5878 25.6695 23.9511 25.6695 24.33ZM15.698 17.1871C16.0758 17.1871 16.4381 17.0366 16.7053 16.7687C16.9724 16.5008 17.1225 16.1375 17.1225 15.7586C17.1225 15.3797 16.9724 15.0163 16.7053 14.7484C16.4381 14.4805 16.0758 14.33 15.698 14.33C15.3202 14.33 14.9579 14.4805 14.6907 14.7484C14.4236 15.0163 14.2735 15.3797 14.2735 15.7586C14.2735 16.1375 14.4236 16.5008 14.6907 16.7687C14.9579 17.0366 15.3202 17.1871 15.698 17.1871ZM25.6695 15.7586C25.6695 16.1375 25.5194 16.5008 25.2523 16.7687C24.9851 17.0366 24.6228 17.1871 24.245 17.1871C23.8672 17.1871 23.5049 17.0366 23.2377 16.7687C22.9706 16.5008 22.8205 16.1375 22.8205 15.7586C22.8205 15.3797 22.9706 15.0163 23.2377 14.7484C23.5049 14.4805 23.8672 14.33 24.245 14.33C24.6228 14.33 24.9851 14.4805 25.2523 14.7484C25.5194 15.0163 25.6695 15.3797 25.6695 15.7586ZM27.094 20.0386C27.094 20.4175 26.9439 20.7808 26.6768 21.0487C26.4096 21.3166 26.0473 21.4671 25.6695 21.4671C25.2917 21.4671 24.9294 21.3166 24.6622 21.0487C24.3951 20.7808 24.245 20.4175 24.245 20.0386C24.245 19.6597 24.3951 19.2963 24.6622 19.0284C24.9294 18.7605 25.2917 18.61 25.6695 18.61C26.0473 18.61 26.4096 18.7605 26.6768 19.0284C26.9439 19.2963 27.094 19.6597 27.094 20.0386Z" fill="#F5F5F5"/>
</svg>
