<svg width="40" height="40" viewBox="0 0 40 40" fill="none" xmlns="http://www.w3.org/2000/svg">
<circle cx="20" cy="20" r="20" fill="#F5F5F5"/>
<path fill-rule="evenodd" clip-rule="evenodd" d="M24.1471 9C24.5717 9 24.9164 9.34381 24.9164 9.76744L24.9168 10.635C26.4144 10.7374 27.6581 11.2492 28.5384 12.1292C29.4994 13.0921 30.0051 14.4765 30 16.1373V25.4724C30 28.8819 27.8297 31 24.3374 31H15.6625C12.1702 31 10 28.8522 10 25.3946V16.1352C10 12.9194 11.9354 10.8551 15.092 10.6353L15.0926 9.76744C15.0926 9.34381 15.4372 9 15.8618 9C16.2864 9 16.6311 9.34381 16.6311 9.76744L16.6307 10.6157H23.3774L23.3779 9.76744C23.3779 9.34381 23.7225 9 24.1471 9ZM28.4615 18.111H11.5385V25.3946C11.5385 28.0203 13.0031 29.4651 15.6625 29.4651H24.3374C26.9969 29.4651 28.4615 28.0469 28.4615 25.4724L28.4615 18.111ZM24.5653 24.5496C24.9899 24.5496 25.3345 24.8934 25.3345 25.3171C25.3345 25.7407 24.9899 26.0845 24.5653 26.0845C24.1407 26.0845 23.7919 25.7407 23.7919 25.3171C23.7919 24.8934 24.1314 24.5496 24.556 24.5496H24.5653ZM20.014 24.5496C20.4386 24.5496 20.7832 24.8934 20.7832 25.3171C20.7832 25.7407 20.4386 26.0845 20.014 26.0845C19.5894 26.0845 19.2407 25.7407 19.2407 25.3171C19.2407 24.8934 19.5802 24.5496 20.0048 24.5496H20.014ZM15.4532 24.5496C15.8778 24.5496 16.2224 24.8934 16.2224 25.3171C16.2224 25.7407 15.8778 26.0845 15.4532 26.0845C15.0286 26.0845 14.6789 25.7407 14.6789 25.3171C14.6789 24.8934 15.0194 24.5496 15.444 24.5496H15.4532ZM24.5653 20.5726C24.9899 20.5726 25.3345 20.9164 25.3345 21.34C25.3345 21.7636 24.9899 22.1074 24.5653 22.1074C24.1407 22.1074 23.7919 21.7636 23.7919 21.34C23.7919 20.9164 24.1314 20.5726 24.556 20.5726H24.5653ZM20.014 20.5726C20.4386 20.5726 20.7832 20.9164 20.7832 21.34C20.7832 21.7636 20.4386 22.1074 20.014 22.1074C19.5894 22.1074 19.2407 21.7636 19.2407 21.34C19.2407 20.9164 19.5802 20.5726 20.0048 20.5726H20.014ZM15.4532 20.5726C15.8778 20.5726 16.2224 20.9164 16.2224 21.34C16.2224 21.7636 15.8778 22.1074 15.4532 22.1074C15.0286 22.1074 14.6789 21.7636 14.6789 21.34C14.6789 20.9164 15.0194 20.5726 15.444 20.5726H15.4532ZM23.3774 12.1506H16.6307L16.6311 13.135C16.6311 13.5586 16.2864 13.9024 15.8618 13.9024C15.4372 13.9024 15.0926 13.5586 15.0926 13.135L15.0921 12.1738C12.7944 12.3664 11.5385 13.7559 11.5385 16.1352V16.5762H28.4615L28.4615 16.1352C28.4656 14.8715 28.1251 13.8892 27.4492 13.2139C26.8558 12.6202 25.9885 12.2656 24.9172 12.1743L24.9164 13.135C24.9164 13.5586 24.5717 13.9024 24.1471 13.9024C23.7225 13.9024 23.3779 13.5586 23.3779 13.135L23.3774 12.1506Z" fill="#1C5BFF"/>
</svg>
