<svg width="48" height="48" viewBox="0 0 48 48" fill="none" xmlns="http://www.w3.org/2000/svg">
<circle cx="24" cy="24" r="24" fill="#F8F8F8"/>
<path fill-rule="evenodd" clip-rule="evenodd" d="M29.0577 12.3333C33.0115 12.3333 35.6668 15.1077 35.6668 19.2353V28.7647C35.6668 32.8923 33.0115 35.6667 29.0577 35.6667H18.9438C14.99 35.6667 12.3335 32.8923 12.3335 28.7647V19.2353C12.3335 15.1077 14.99 12.3333 18.9438 12.3333H29.0577ZM29.0577 14.0833H18.9438C15.9922 14.0833 14.0835 16.1052 14.0835 19.2353V28.7647C14.0835 31.8948 15.9922 33.9167 18.9438 33.9167H29.0577C32.0093 33.9167 33.9168 31.8948 33.9168 28.7647V19.2353C33.9168 16.1052 32.0093 14.0833 29.0577 14.0833Z" fill="#1C5BFF"/>
<path d="M28.9279 23.1603C29.2685 22.8173 29.2674 22.2631 28.9255 21.9224C28.5825 21.5818 28.0284 21.5818 27.6877 21.9248L24.2577 25.3711L20.8289 21.9248C20.4882 21.5818 19.934 21.5818 19.591 21.9224C19.2492 22.2631 19.2469 22.8173 19.5887 23.1603L23.6382 27.2273C23.8015 27.3929 24.0255 27.4851 24.2577 27.4851L24.3956 27.4742C24.577 27.4453 24.7465 27.3598 24.8772 27.2273L28.9279 23.1603Z" fill="#1C5BFF"/>
</svg>
