<svg width="40" height="40" viewBox="0 0 40 40" fill="none" xmlns="http://www.w3.org/2000/svg">
<circle cx="20" cy="20" r="20" fill="#1C5BFF"/>
<path fill-rule="evenodd" clip-rule="evenodd" d="M24.335 10C27.724 10 30 12.378 30 15.916V24.084C30 27.622 27.724 30 24.335 30H15.666C12.277 30 10 27.622 10 24.084V15.916C10 12.378 12.277 10 15.666 10H24.335ZM24.335 11.5H15.666C13.136 11.5 11.5 13.233 11.5 15.916V24.084C11.5 26.767 13.136 28.5 15.666 28.5H24.335C26.865 28.5 28.5 26.767 28.5 24.084V15.916C28.5 13.233 26.865 11.5 24.335 11.5Z" fill="#F5F5F5"/>
<path d="M24.2238 19.2802C24.5158 18.9862 24.5148 18.5112 24.2218 18.2192C23.9278 17.9272 23.4528 17.9272 23.1608 18.2212L20.2208 21.1752L17.2818 18.2212C16.9898 17.9272 16.5148 17.9272 16.2208 18.2192C15.9278 18.5112 15.9258 18.9862 16.2188 19.2802L19.6898 22.7662C19.8298 22.9082 20.0218 22.9872 20.2208 22.9872L20.339 22.9779C20.4945 22.9531 20.6398 22.8798 20.7518 22.7662L24.2238 19.2802Z" fill="#F5F5F5"/>
</svg>
