<svg width="18" height="18" viewBox="0 0 18 18" fill="none" xmlns="http://www.w3.org/2000/svg">
<path fill-rule="evenodd" clip-rule="evenodd" d="M5.13984 6.17527C5.48484 6.17527 5.76484 6.44806 5.76484 6.78417C5.76484 7.12029 5.48484 7.39308 5.13984 7.39308H4.36234C3.01317 7.39308 1.9165 8.4615 1.9165 9.77512V13.733C1.9165 15.0474 3.01317 16.1158 4.36234 16.1158H13.6373C14.9857 16.1158 16.0832 15.0474 16.0832 13.733V9.76781C16.0832 8.45826 14.9898 7.39308 13.6465 7.39308H12.8607C12.5157 7.39308 12.2357 7.12029 12.2357 6.78417C12.2357 6.44806 12.5157 6.17527 12.8607 6.17527H13.6465C15.679 6.17527 17.3332 7.78684 17.3332 9.76781V13.733C17.3332 15.7188 15.6748 17.3337 13.6373 17.3337H4.36234C2.32484 17.3337 0.666504 15.7188 0.666504 13.733V9.77512C0.666504 7.79009 2.32484 6.17527 4.36234 6.17527H5.13984ZM9.442 0.839312L11.872 3.21648C12.1153 3.45517 12.1145 3.84 11.8703 4.07706C11.6253 4.31413 11.2303 4.31413 10.987 4.07544L9.624 2.74295L9.6245 11.6529H8.3745L8.374 2.74295L7.01284 4.07544C6.89117 4.1956 6.73034 4.25486 6.57034 4.25486C6.41117 4.25486 6.25117 4.1956 6.1295 4.07706C5.88534 3.84 5.88367 3.45517 6.12784 3.21648L8.557 0.839312C8.79117 0.609552 9.20784 0.609552 9.442 0.839312Z" fill="#0065EF"/>
</svg>
