<svg width="40" height="40" viewBox="0 0 40 40" fill="none" xmlns="http://www.w3.org/2000/svg">
<circle cx="20" cy="20" r="20" fill="#1C5BFF"/>
<path fill-rule="evenodd" clip-rule="evenodd" d="M15.368 16.6104C15.782 16.6104 16.118 16.9378 16.118 17.3411C16.118 17.7444 15.782 18.0718 15.368 18.0718H14.435C12.816 18.0718 11.5 19.3539 11.5 20.9302V25.6797C11.5 27.257 12.816 28.5391 14.435 28.5391H25.565C27.183 28.5391 28.5 27.257 28.5 25.6797V20.9215C28.5 19.35 27.188 18.0718 25.576 18.0718H24.633C24.219 18.0718 23.883 17.7444 23.883 17.3411C23.883 16.9378 24.219 16.6104 24.633 16.6104H25.576C28.015 16.6104 30 18.5443 30 20.9215V25.6797C30 28.0627 28.01 30.0005 25.565 30.0005H14.435C11.99 30.0005 10 28.0627 10 25.6797V20.9302C10 18.5482 11.99 16.6104 14.435 16.6104H15.368ZM20.5306 10.2073L23.4466 13.0599C23.7386 13.3463 23.7376 13.8081 23.4446 14.0926C23.1506 14.3771 22.6766 14.3771 22.3846 14.0906L20.749 12.4916L20.7496 23.1836H19.2496L19.249 12.4916L17.6156 14.0906C17.4696 14.2348 17.2766 14.3059 17.0846 14.3059C16.8936 14.3059 16.7016 14.2348 16.5556 14.0926C16.2626 13.8081 16.2606 13.3463 16.5536 13.0599L19.4686 10.2073C19.7496 9.93156 20.2496 9.93156 20.5306 10.2073Z" fill="#F5F5F5"/>
</svg>
