<svg width="32" height="32" viewBox="0 0 32 32" fill="none" xmlns="http://www.w3.org/2000/svg">
<path d="M15.9859 0.682374C7.2918 0.678859 0.25 7.71714 0.25 16.4043C0.25 23.2738 4.65508 29.1132 10.7898 31.2578C11.616 31.4652 11.4895 30.8781 11.4895 30.4773V27.7527C6.71875 28.3117 6.52539 25.1546 6.20547 24.6273C5.55859 23.5234 4.0293 23.2421 4.48633 22.7148C5.57266 22.1558 6.68008 22.8554 7.96328 24.7503C8.89141 26.125 10.702 25.8929 11.6195 25.6644C11.8199 24.8382 12.2488 24.1 12.8395 23.5269C7.89648 22.641 5.83633 19.6246 5.83633 16.0386C5.83633 14.2984 6.40938 12.6988 7.53438 11.4085C6.81719 9.2816 7.60117 7.4605 7.70664 7.1898C9.74922 7.00698 11.8727 8.6523 12.0379 8.78238C13.198 8.46949 14.5234 8.30425 16.007 8.30425C17.4977 8.30425 18.8266 8.47652 19.9973 8.79292C20.3945 8.49058 22.3633 7.0773 24.2617 7.24956C24.3637 7.52027 25.1301 9.29917 24.4551 11.398C25.5941 12.6918 26.1742 14.3054 26.1742 16.0492C26.1742 19.6421 24.1 22.6621 19.143 23.5339C19.5676 23.9515 19.9047 24.4495 20.1347 24.9988C20.3646 25.548 20.4829 26.1377 20.4824 26.7332V30.6882C20.5105 31.0046 20.4824 31.3175 21.0098 31.3175C27.2359 29.2187 31.7184 23.3371 31.7184 16.4078C31.7184 7.71714 24.673 0.682374 15.9859 0.682374Z" fill="#1C5BFF"/>
</svg>
