<svg width="32" height="32" viewBox="0 0 32 32" fill="none" xmlns="http://www.w3.org/2000/svg">
<path d="M16 0.921875C13.8203 0.921875 11.7695 1.33203 9.84766 2.15234C7.94922 2.99609 6.28516 4.13281 4.85547 5.5625C3.42578 6.96875 2.30078 8.62109 1.48047 10.5195C0.660156 12.4414 0.25 14.4805 0.25 16.6367C0.25 18.3711 0.507812 20.0117 1.02344 21.5586C1.5625 23.1289 2.28906 24.5586 3.20312 25.8477C4.14062 27.1367 5.25391 28.2734 6.54297 29.2578C7.83203 30.2188 9.25 30.9688 10.7969 31.5078C11.1953 31.6016 11.4062 31.543 11.4297 31.332C11.4766 31.1211 11.5 30.9219 11.5 30.7344V27.9922C9.10938 28.2734 7.66797 27.8984 7.17578 26.8672C6.68359 25.8125 6.35547 25.1445 6.19141 24.8633C5.88672 24.3242 5.46484 23.9375 4.92578 23.7031C4.41016 23.4688 4.25781 23.2227 4.46875 22.9648C5.03125 22.6836 5.59375 22.7188 6.15625 23.0703C6.71875 23.3984 7.31641 24.043 7.94922 25.0039C8.41797 25.6836 9.02734 26.0352 9.77734 26.0586C10.5508 26.082 11.1602 26.0352 11.6055 25.918C11.7227 25.4961 11.875 25.1094 12.0625 24.7578C12.2734 24.3828 12.5312 24.0547 12.8359 23.7734C10.375 23.3281 8.59375 22.4258 7.49219 21.0664C6.39062 19.6836 5.83984 18.0898 5.83984 16.2852C5.83984 15.418 5.98047 14.5977 6.26172 13.8242C6.54297 13.0273 6.96484 12.3008 7.52734 11.6445C7.17578 10.5898 7.10547 9.66406 7.31641 8.86719C7.52734 8.04687 7.65625 7.56641 7.70312 7.42578C8.73438 7.33203 9.69531 7.56641 10.5859 8.12891C11.4766 8.66797 11.957 8.97266 12.0273 9.04297C12.6133 8.87891 13.2344 8.76172 13.8906 8.69141C14.5703 8.59766 15.2734 8.55078 16 8.55078C16.75 8.55078 17.4531 8.59766 18.1094 8.69141C18.7891 8.76172 19.4219 8.87891 20.0078 9.04297C20.1953 8.90234 20.7109 8.58594 21.5547 8.09375C22.4219 7.60156 23.3242 7.40234 24.2617 7.49609C24.3086 7.63672 24.4375 8.10547 24.6484 8.90234C24.8594 9.67578 24.8008 10.5898 24.4727 11.6445C25.0352 12.3008 25.457 13.0273 25.7383 13.8242C26.0195 14.5977 26.1602 15.418 26.1602 16.2852C26.1602 18.0898 25.6094 19.6836 24.5078 21.0664C23.4062 22.4492 21.6133 23.3516 19.1289 23.7734C19.3398 23.9844 19.5273 24.2188 19.6914 24.4766C19.8789 24.7109 20.0312 24.9688 20.1484 25.25C20.2656 25.5312 20.3477 25.8242 20.3945 26.1289C20.4648 26.4102 20.5 26.6914 20.5 26.9727V30.9453C20.5 31.1094 20.5117 31.2617 20.5352 31.4023C20.582 31.5195 20.7344 31.5781 20.9922 31.5781C22.5625 31.0391 24.0039 30.2891 25.3164 29.3281C26.6289 28.3672 27.7539 27.2422 28.6914 25.9531C29.6523 24.6406 30.3906 23.1992 30.9062 21.6289C31.4453 20.0586 31.7148 18.4062 31.7148 16.6719C31.7148 14.4922 31.3047 12.4414 30.4844 10.5195C29.6641 8.62109 28.5391 6.96875 27.1094 5.5625C25.6797 4.13281 24.0156 2.99609 22.1172 2.15234C20.1953 1.33203 18.1562 0.921875 16 0.921875Z" fill="#233184"/>
</svg>
