<svg width="384" height="384" viewBox="0 0 384 384" fill="none" xmlns="http://www.w3.org/2000/svg">
<g clip-path="url(#clip0_1579_1405)">
<path d="M0 0C25.2138 0 50.1807 4.96622 73.4752 14.6151C96.7697 24.264 117.936 38.4066 135.764 56.2355C153.593 74.0644 167.736 95.2303 177.385 118.525C187.034 141.819 192 166.786 192 192L0 192V0Z" fill="#FFEEFA"/>
<path d="M192 384C166.786 384 141.819 379.034 118.525 369.385C95.2303 359.736 74.0643 345.593 56.2355 327.764C38.4066 309.936 24.264 288.77 14.6151 265.475C4.96622 242.181 0 217.214 0 192L192 192L192 384Z" fill="#ADD0FF"/>
<path d="M192 192C217.214 192 242.181 196.966 265.475 206.615C288.77 216.264 309.936 230.407 327.764 248.236C345.593 266.064 359.736 287.23 369.385 310.525C379.034 333.819 384 358.786 384 384L192 384L192 192Z" fill="#DFECFF"/>
</g>
<defs>
<clipPath id="clip0_1579_1405">
<rect width="384" height="384" fill="white"/>
</clipPath>
</defs>
</svg>
