<svg width="74" height="74" viewBox="0 0 74 74" fill="none" xmlns="http://www.w3.org/2000/svg">
<path d="M47.9797 15.4109C47.981 15.3806 47.9844 15.351 47.9844 15.3203V8.81641H50.1523C51.3507 8.81641 52.3203 7.84675 52.3203 6.64844C52.3203 5.45013 51.3507 4.48047 50.1523 4.48047H41.4805C40.2822 4.48047 39.3125 5.45013 39.3125 6.64844C39.3125 7.84675 40.2822 8.81641 41.4805 8.81641H43.6484V15.3203C43.6484 15.351 43.6518 15.3807 43.6531 15.4109C30.3157 16.5141 19.8008 27.7186 19.8008 41.3359C19.8008 55.6818 31.4705 67.3516 45.8164 67.3516C60.1623 67.3516 71.832 55.6818 71.832 41.3359C71.832 27.7186 61.3171 16.5141 47.9797 15.4109ZM2.16797 17.4883H19.8008C20.9991 17.4883 21.9688 16.5186 21.9688 15.3203C21.9688 14.122 20.9991 13.1523 19.8008 13.1523H2.16797C0.96966 13.1523 0 14.122 0 15.3203C0 16.5186 0.96966 17.4883 2.16797 17.4883ZM15.4648 26.1602H2.16797C0.96966 26.1602 0 27.1298 0 28.3281C0 29.5264 0.96966 30.4961 2.16797 30.4961H15.4648C16.6632 30.4961 17.6328 29.5264 17.6328 28.3281C17.6328 27.1298 16.6632 26.1602 15.4648 26.1602ZM6.79297 39.168H2.16797C0.96966 39.168 0 40.1376 0 41.3359C0 42.5342 0.96966 43.5039 2.16797 43.5039H6.79297C7.99128 43.5039 8.96094 42.5342 8.96094 41.3359C8.96094 40.1376 7.99128 39.168 6.79297 39.168Z" fill="url(#paint0_linear)"/>
<path d="M45.8164 13.1523C30.2764 13.1523 17.6328 25.7959 17.6328 41.3359C17.6328 56.8759 30.2764 69.5195 45.8164 69.5195C61.3564 69.5195 74 56.8759 74 41.3359C74 25.7959 61.3564 13.1523 45.8164 13.1523ZM47.9844 65.0737V63.0156C47.9844 61.8173 47.0147 60.8477 45.8164 60.8477C44.6181 60.8477 43.6484 61.8173 43.6484 63.0156V65.0737C32.229 64.0379 23.1144 54.9246 22.0786 43.5039H24.1367C25.335 43.5039 26.3047 42.5342 26.3047 41.3359C26.3047 40.1376 25.335 39.168 24.1367 39.168H22.0786C23.1136 27.7565 32.2433 18.7438 43.6484 17.6955V19.6562C43.6484 20.8546 44.6181 21.8242 45.8164 21.8242C47.0147 21.8242 47.9844 20.8546 47.9844 19.6562V17.6955C59.3895 18.7438 68.5192 27.7565 69.5542 39.168H67.4961C66.2978 39.168 65.3281 40.1376 65.3281 41.3359C65.3281 42.5342 66.2978 43.5039 67.4961 43.5039H69.5542C68.5184 54.9246 59.4038 64.0379 47.9844 65.0737ZM57.2915 26.7954L48.603 35.4839C47.755 35.0782 46.8176 34.832 45.8164 34.832C42.23 34.832 39.3125 37.7495 39.3125 41.3359C39.3125 44.9223 42.23 47.8398 45.8164 47.8398C49.4028 47.8398 52.3203 44.9223 52.3203 41.3359C52.3203 40.3348 52.0742 39.3973 51.6685 38.5495L60.357 29.861C61.2038 29.0142 61.2038 27.6422 60.357 26.7954C59.5102 25.9486 58.1383 25.9484 57.2915 26.7954Z" fill="url(#paint1_linear)"/>
<defs>
<linearGradient id="paint0_linear" x1="35.916" y1="67.3516" x2="35.916" y2="4.48047" gradientUnits="userSpaceOnUse">
<stop stop-color="#00B59C"/>
<stop offset="1" stop-color="#9CFFAC"/>
</linearGradient>
<linearGradient id="paint1_linear" x1="45.8164" y1="69.5195" x2="45.8164" y2="13.1523" gradientUnits="userSpaceOnUse">
<stop stop-color="#C3FFE8"/>
<stop offset="0.9973" stop-color="#F0FFF4"/>
</linearGradient>
</defs>
</svg>
