<svg width="28" height="28" viewBox="0 0 28 28" fill="none" xmlns="http://www.w3.org/2000/svg">
<path d="M4.96613 13.6465L4.61258 14L4.96613 14.3536L11.4295 20.8169C11.5725 20.96 11.5725 21.2034 11.4295 21.3465L11.4234 21.3526L11.4175 21.3589C11.3639 21.4163 11.2717 21.4567 11.1647 21.4567C11.0685 21.4567 10.9762 21.4228 10.8999 21.3465L3.81824 14.2648C3.67517 14.1217 3.67517 13.8783 3.81824 13.7352L10.8999 6.65357C11.043 6.5105 11.2864 6.5105 11.4295 6.65357C11.5725 6.79664 11.5725 7.04006 11.4295 7.18313L4.96613 13.6465Z" fill="#292D32" stroke="#0065EF"/>
<path d="M23.9162 14.375H4.28125C4.07906 14.375 3.90625 14.2022 3.90625 14C3.90625 13.7978 4.07906 13.625 4.28125 13.625H23.9162C24.1184 13.625 24.2912 13.7978 24.2912 14C24.2912 14.2022 24.1184 14.375 23.9162 14.375Z" fill="#292D32" stroke="#0065EF"/>
</svg>
