<svg width="88" height="88" viewBox="0 0 88 88" fill="none" xmlns="http://www.w3.org/2000/svg">
<g clip-path="url(#clip0_2716_1981)">
<path d="M68.7035 58.905L75.1539 60.2774L78.3104 51.3567L72.409 48.3373C72.958 44.4946 72.8207 40.6518 71.8601 37.0835L77.3497 33.5153L73.2325 24.869L66.9194 26.7904C64.7235 23.7711 61.8414 21.1635 58.5476 19.2421L59.92 12.7918L51.1366 9.77246L48.1173 15.5366C44.2745 14.9876 40.4317 15.1249 36.8634 16.0856L33.2952 10.5959L24.6489 14.5759L26.7076 20.7518C23.6883 22.9477 21.0807 25.8297 19.1593 29.1235L12.7089 27.7511L9.55237 36.6718L15.4538 39.6911C14.9048 43.5339 15.042 47.3767 16.0027 50.9449L10.5131 54.5132L14.6303 63.1594L20.9434 61.2381C23.1393 64.2574 26.0214 66.865 29.3152 68.7863L27.9427 75.2367L36.8634 78.3933L39.8828 72.6291C43.7255 73.1781 47.5683 73.0408 51.1366 72.0801L54.7049 77.5698L63.3511 73.5898L61.2925 67.4139C64.1745 65.0808 66.7821 62.1988 68.7035 58.905Z" fill="white"/>
<path d="M37.2751 80.0401L26.1585 76.0601L27.5309 69.4725C24.7861 67.6884 22.3158 65.4925 20.2571 62.8849L13.8068 64.9435L8.72885 54.2387L14.493 50.5332C13.8068 47.2394 13.6695 43.9456 13.944 40.6518L7.9054 37.4952L11.7482 26.2414L18.3358 27.6138C20.1199 24.869 22.3158 22.3986 24.9234 20.34L23.002 13.8897L33.8441 8.81173L37.5496 14.4386C40.8434 13.7524 44.1372 13.6152 47.431 14.0269L50.5875 7.98828L61.8414 11.9683L60.4689 18.5559C63.2138 20.34 65.6841 22.5359 67.7427 25.1435L74.1931 23.0849L79.271 33.7897L73.5069 37.4952C74.1931 40.789 74.3303 44.0828 74.0559 47.3766L80.0945 50.5332L76.1145 61.9242L69.5269 60.5518C67.7427 63.2966 65.5469 65.767 62.9393 67.8256L64.9979 74.276L54.1558 79.3539L50.4503 73.727C47.1565 74.4132 43.8627 74.5505 40.5689 74.1387L37.2751 80.0401ZM29.3151 74.276L36.0399 76.7463L38.922 71.1194L39.8827 71.2567C43.451 71.8056 47.1565 71.6684 50.5875 70.7077L51.5482 70.4332L54.9793 75.7856L61.4296 72.7663L59.5082 66.7277L60.3317 66.1787C63.2138 63.9829 65.6841 61.3753 67.6055 58.2187L68.1545 57.3953L74.3303 58.7677L76.6634 52.0428L71.0365 49.1608L71.1738 48.2001C71.7227 44.6318 71.5855 41.0635 70.6248 37.4952L70.3503 36.5345L75.7028 33.1035L72.6834 26.6531L66.6448 28.5745L66.0958 27.7511C63.9 24.869 61.2924 22.3987 58.1358 20.4773L57.3124 19.9283L58.6848 13.7524L51.96 11.2821L49.0779 16.909L48.1172 16.7717C44.5489 16.2228 40.8434 16.36 37.4123 17.3207L36.4517 17.5952L33.0206 12.2428L26.5703 15.2621L28.4916 21.3007L27.5309 21.9869C24.6489 24.1828 22.1785 26.7904 20.2571 29.9469L19.7082 30.7704L13.5323 29.398L11.1992 36.1228L16.8261 39.0049L16.6889 39.9656C16.1399 43.5339 16.2771 47.1021 17.2378 50.6704L17.5123 51.6311L12.1599 55.0621L15.1792 61.5125L21.2178 59.5911L21.7668 60.4146C23.9627 63.2966 26.5703 65.767 29.7268 67.6884L30.5503 68.2373L29.3151 74.276Z" fill="#141414"/>
<path d="M77.8986 17.8695H66.6448V15.1247H75.1538V6.61572H77.8986V17.8695Z" fill="#141414"/>
<path d="M12.7089 81.5495H9.96411V70.2957H21.2179V73.0405H12.7089V81.5495Z" fill="#141414"/>
<path d="M7.76817 68.9231C7.2192 68.0997 6.67024 67.2762 6.25851 66.59L8.59162 65.2176C9.00335 66.0411 9.55231 66.7273 9.96404 67.4135L7.76817 68.9231ZM4.8861 64.1197C4.47437 63.2962 4.06265 62.4728 3.65092 61.5121L6.12127 60.4142C6.533 61.2376 6.80748 62.0611 7.2192 62.8845L4.8861 64.1197ZM2.69023 58.9045C2.41575 58.0811 2.14127 57.1204 1.86678 56.1597L4.47437 55.3362C4.74886 56.1597 5.02334 56.9831 5.29782 57.8066L2.69023 58.9045ZM1.04333 53.4148C0.906091 52.4542 0.631608 51.4935 0.494366 50.67L3.2392 50.2583C3.37644 51.0817 3.51368 52.0424 3.78816 52.8659L1.04333 53.4148ZM0.219883 47.9252C0.219883 46.9645 0.0826416 46.0038 0.0826416 45.0431H2.82747C2.82747 45.8666 2.82747 46.8272 2.96471 47.6507L0.219883 47.9252ZM2.82747 42.2983L0.0826416 42.161C0.0826416 41.2003 0.219883 40.2396 0.357125 39.279L3.10196 39.5534C2.96472 40.5141 2.96472 41.4748 2.82747 42.2983ZM3.37644 37.0831L0.631608 36.6714C0.768849 35.7107 1.04333 34.75 1.18057 33.9265L3.92541 34.4755C3.78816 35.299 3.65092 36.1224 3.37644 37.0831ZM4.61161 31.8679L2.00402 31.0445C2.27851 30.0838 2.55299 29.2603 2.96471 28.2996L5.5723 29.3976C5.16058 30.221 4.8861 31.0445 4.61161 31.8679ZM6.533 26.9272L4.06265 25.8293C4.47437 25.0058 4.8861 24.1824 5.29782 23.3589L7.76817 24.5941C7.35645 25.2803 6.94472 26.1038 6.533 26.9272ZM9.14059 22.261L6.80748 20.7513C7.35645 19.9279 7.90541 19.1044 8.45438 18.4182L10.6502 20.0651C10.1013 20.7513 9.55231 21.5748 9.14059 22.261ZM12.1599 18.0065L10.1013 16.2224C10.6502 15.5362 11.3365 14.7127 12.0227 14.0265L14.0813 15.9479C13.2578 16.6341 12.7089 17.3203 12.1599 18.0065ZM15.8654 14.0265L13.944 11.9679L14.3558 11.5562L16.1399 13.6148L15.8654 14.0265Z" fill="#141414"/>
<path d="M74.1931 16.0854C66.6448 8.12539 56.489 3.32194 45.5096 2.91021C34.5303 2.49849 23.9627 6.34125 16.0027 13.7523L14.0813 11.6937C22.7275 3.73366 33.8441 -0.383588 45.6469 0.0281369C57.3124 0.439862 68.1545 5.5178 76.1145 14.164L74.1931 16.0854Z" fill="#141414"/>
<path d="M73.6441 76.4719L71.86 74.4133L72.2717 74.1388L74.1931 76.1974L73.6441 76.4719ZM76.1145 74.1388L74.0558 72.2174C74.6048 71.5312 75.291 70.845 75.84 70.1588L77.8986 71.9429C77.3496 72.7664 76.6634 73.4526 76.1145 74.1388ZM79.6827 69.7471L77.4869 68.1002C78.0358 67.414 78.4476 66.5905 78.9965 65.9043L81.3296 67.414C80.7807 68.2374 80.2317 69.0609 79.6827 69.7471ZM82.7021 64.9436L80.2317 63.7084C80.6434 62.885 81.0552 62.1988 81.4669 61.3753L83.9372 62.4733C83.5255 63.2967 83.1138 64.1202 82.7021 64.9436ZM85.0352 59.8657L82.4276 58.7677C82.7021 57.9443 82.9765 57.1208 83.251 56.2974L85.8586 57.1208C85.7214 58.0815 85.3096 58.905 85.0352 59.8657ZM86.6821 54.376L84.0745 53.6898C84.3489 52.8663 84.4862 51.9057 84.6234 51.0822L87.3683 51.4939C87.0938 52.5919 86.9565 53.4153 86.6821 54.376ZM87.6427 48.8863L84.8979 48.6119C85.0352 47.7884 85.0352 46.8277 85.0352 46.0043L87.78 46.1415C87.78 46.965 87.78 47.9256 87.6427 48.8863ZM85.1724 43.2594C85.1724 42.436 85.1724 41.4753 85.0352 40.6518L87.78 40.3774C87.9172 41.3381 87.9172 42.2987 87.9172 43.2594H85.1724ZM84.7607 37.907C84.6234 37.0836 84.4862 36.1229 84.2117 35.2994L86.9565 34.7505C87.0938 35.7111 87.3683 36.6718 87.5055 37.4953L84.7607 37.907ZM83.5255 32.6918C83.251 31.8684 82.9765 31.0449 82.7021 30.2215L85.3096 29.2608C85.5841 30.0842 85.8586 31.0449 86.1331 32.0056L83.5255 32.6918ZM81.7414 27.7511C81.3296 26.9277 81.0552 26.1042 80.6434 25.2808L83.1138 24.0456C83.5255 24.8691 83.9372 25.6925 84.3489 26.6532L81.7414 27.7511ZM79.4083 23.0849C78.9965 22.2615 78.4476 21.5753 78.0358 20.8891L80.2317 19.3794C80.7807 20.2028 81.3296 21.0263 81.7414 21.7125L79.4083 23.0849Z" fill="#141414"/>
<path d="M43.9999 87.9999C32.1972 87.9999 20.3944 83.1964 11.7482 73.864L13.8068 71.9426C29.1779 88.6861 55.2538 89.784 71.86 74.2757L73.7814 76.3344C65.2724 84.1571 54.5675 87.9999 43.9999 87.9999Z" fill="#141414"/>
<path d="M26.8448 60.2774C17.9241 50.8077 18.3359 35.8484 27.8055 26.9276C37.2752 18.0069 52.2345 18.5559 61.1552 28.0256C70.0759 37.4953 69.6642 52.4546 60.1945 61.3753C50.7249 70.296 35.7655 69.747 26.8448 60.2774Z" fill="#FFDA2F"/>
<path d="M44 40.5144C42.0787 40.5144 40.4318 42.1613 40.4318 44.0827C40.4318 46.0041 42.0787 47.651 44 47.651C45.9214 47.651 47.5683 46.0041 47.5683 44.0827C47.5683 42.1613 45.9214 40.5144 44 40.5144Z" fill="white"/>
<path d="M44 49.0232C41.2552 49.0232 39.0593 46.8274 39.0593 44.0825C39.0593 41.3377 41.2552 39.1418 44 39.1418C46.7449 39.1418 48.9407 41.3377 48.9407 44.0825C48.9407 46.8274 46.6076 49.0232 44 49.0232ZM44 41.8867C42.7648 41.8867 41.8042 42.8474 41.8042 44.0825C41.8042 45.3177 42.7648 46.2784 44 46.2784C45.2352 46.2784 46.1959 45.3177 46.1959 44.0825C46.1959 42.8474 45.098 41.8867 44 41.8867Z" fill="#141414"/>
<path d="M45.5097 63.1592H42.3531V65.904H45.5097V63.1592Z" fill="#141414"/>
<path d="M45.5097 22.2612H42.3531V25.0061H45.5097V22.2612Z" fill="#141414"/>
<path d="M24.9234 42.436H22.1786V45.5926H24.9234V42.436Z" fill="#141414"/>
<path d="M65.6842 42.436H62.9393V45.5926H65.6842V42.436Z" fill="#141414"/>
<path d="M45.3725 29.1233H42.6277V40.5143H45.3725V29.1233Z" fill="#141414"/>
<path d="M55.6656 42.7104H47.5684V45.4553H55.6656V42.7104Z" fill="#141414"/>
</g>
<defs>
<clipPath id="clip0_2716_1981">
<rect width="88" height="88" fill="white"/>
</clipPath>
</defs>
</svg>
