<svg width="88" height="88" viewBox="0 0 88 88" fill="none" xmlns="http://www.w3.org/2000/svg">
<g clip-path="url(#clip0_2716_1958)">
<path d="M77.9938 44.1372H75.2523V41.3957H77.9938V44.1372ZM12.7477 43.3147H10.0062V40.5733H12.7477V43.3147ZM77.9938 38.6543H75.2523V35.9129H77.9938V38.6543ZM12.7477 37.8319H10.0062V35.0904H12.7477V37.8319ZM77.9938 33.1714H75.2523V30.43H77.9938V33.1714ZM12.7477 32.349H10.0062V29.6076H12.7477V32.349ZM77.9938 27.6886H75.2523V24.9471H77.9938V27.6886ZM12.7477 26.8661H10.0062V24.1247H12.7477V26.8661ZM77.9938 22.2057H75.2523V19.4643H77.9938V22.2057ZM12.7477 21.3833H10.0062V18.6418H12.7477V21.3833ZM77.9938 16.7228H75.2523V13.9814H77.9938V16.7228ZM12.7477 15.9004H10.0062V13.159H12.7477V15.9004ZM74.9782 11.6512C74.8411 10.9658 74.4299 10.2805 74.0187 9.73219L76.2118 8.08733C76.8972 8.77269 77.3084 9.73219 77.5825 10.8288L74.9782 11.6512ZM13.1589 11.1029L10.6916 10.0063C11.1028 9.04683 11.6511 8.08733 12.4735 7.2649L14.3925 9.1839C13.8442 9.73219 13.433 10.4175 13.1589 11.1029ZM72.3738 8.2244C71.6885 7.81318 71.0031 7.67611 70.3177 7.53904L70.5919 4.79761C71.6885 4.93468 72.785 5.20882 73.7445 5.75711L72.3738 8.2244ZM16.1744 7.95026L15.0779 5.48297C16.0374 5.07175 17.134 4.79761 18.2305 4.79761V7.53904C17.5452 7.53904 16.8598 7.67611 16.1744 7.95026ZM67.7134 7.53904H64.972V4.79761H67.7134V7.53904ZM62.2305 7.53904H59.4891V4.79761H62.2305V7.53904ZM56.7477 7.53904H54.0062V4.79761H56.7477V7.53904ZM51.2648 7.53904H48.5234V4.79761H51.2648V7.53904ZM45.7819 7.53904H43.0405V4.79761H45.7819V7.53904ZM40.2991 7.53904H37.5576V4.79761H40.2991V7.53904ZM34.8162 7.53904H32.0748V4.79761H34.8162V7.53904ZM29.3333 7.53904H26.5919V4.79761H29.3333V7.53904ZM23.8505 7.53904H21.109V4.79761H23.8505V7.53904Z" fill="#141414"/>
<path d="M15.6261 52.6356C20.3197 52.6356 24.1246 48.8307 24.1246 44.1371C24.1246 39.4436 20.3197 35.6387 15.6261 35.6387C10.9326 35.6387 7.12769 39.4436 7.12769 44.1371C7.12769 48.8307 10.9326 52.6356 15.6261 52.6356Z" fill="white"/>
<path d="M15.6262 54.0061C10.1434 54.0061 5.75708 49.6199 5.75708 44.137C5.75708 38.6541 10.1434 34.2678 15.6262 34.2678C21.1091 34.2678 25.4954 38.6541 25.4954 44.137C25.4954 49.4828 21.1091 54.0061 15.6262 54.0061ZM15.6262 37.0093C11.6512 37.0093 8.49851 40.1619 8.49851 44.137C8.49851 48.1121 11.6512 51.2647 15.6262 51.2647C19.6013 51.2647 22.754 48.1121 22.754 44.137C22.754 40.1619 19.6013 37.0093 15.6262 37.0093Z" fill="#141414"/>
<path d="M15.6261 58.3926C7.81299 58.3926 1.50769 64.6979 1.50769 72.511H29.8815C29.8815 64.6979 23.4392 58.3926 15.6261 58.3926Z" fill="#FFDA2F"/>
<path d="M31.2523 73.8818H0.137085V72.5111C0.137085 64.0126 7.12774 57.022 15.6262 57.022C24.1246 57.022 31.1153 64.0126 31.1153 72.5111V73.8818H31.2523ZM3.01559 71.1404H28.5109C27.8256 64.698 22.3427 59.7634 15.7633 59.7634C9.18381 59.7634 3.70095 64.698 3.01559 71.1404Z" fill="#141414"/>
<path d="M44 66.754C48.6936 66.754 52.4985 62.9491 52.4985 58.2555C52.4985 53.562 48.6936 49.7571 44 49.7571C39.3065 49.7571 35.5016 53.562 35.5016 58.2555C35.5016 62.9491 39.3065 66.754 44 66.754Z" fill="white"/>
<path d="M44 68.1248C38.5171 68.1248 34.1309 63.7385 34.1309 58.2556C34.1309 52.7728 38.5171 48.3865 44 48.3865C49.4829 48.3865 53.8692 52.7728 53.8692 58.2556C53.8692 63.7385 49.4829 68.1248 44 68.1248ZM44 51.1279C40.0249 51.1279 36.8723 54.2806 36.8723 58.2556C36.8723 62.2307 40.0249 65.3834 44 65.3834C47.9751 65.3834 51.1277 62.2307 51.1277 58.2556C51.1277 54.2806 47.9751 51.1279 44 51.1279Z" fill="#141414"/>
<path d="M44 72.5107C36.1869 72.5107 29.8816 78.816 29.8816 86.6291H58.2554C58.1184 78.816 51.8131 72.5107 44 72.5107Z" fill="#FFDA2F"/>
<path d="M59.4891 87.9999H28.5109V86.6292C28.5109 78.1308 35.5015 71.1401 44 71.1401C52.6355 71.1401 59.4891 78.1308 59.4891 86.6292V87.9999ZM31.2523 85.2585H56.7476C56.0623 78.8161 50.5794 73.8816 44 73.8816C37.4205 73.8816 31.9377 78.9532 31.2523 85.2585Z" fill="#141414"/>
<path d="M72.3738 52.6356C77.0674 52.6356 80.8722 48.8307 80.8722 44.1371C80.8722 39.4436 77.0674 35.6387 72.3738 35.6387C67.6802 35.6387 63.8754 39.4436 63.8754 44.1371C63.8754 48.8307 67.6802 52.6356 72.3738 52.6356Z" fill="white"/>
<path d="M72.3738 54.0061C66.8909 54.0061 62.5046 49.6199 62.5046 44.137C62.5046 38.6541 66.8909 34.2678 72.3738 34.2678C77.8567 34.2678 82.243 38.6541 82.243 44.137C82.243 49.4828 77.7196 54.0061 72.3738 54.0061ZM72.3738 37.0093C68.3987 37.0093 65.2461 40.1619 65.2461 44.137C65.2461 48.1121 68.3987 51.2647 72.3738 51.2647C76.3489 51.2647 79.5015 48.1121 79.5015 44.137C79.5015 40.1619 76.2118 37.0093 72.3738 37.0093Z" fill="#141414"/>
<path d="M72.3739 58.3926C64.5608 58.3926 58.2555 64.6979 58.2555 72.511H86.4922C86.4922 64.6979 80.187 58.3926 72.3739 58.3926Z" fill="#FFDA2F"/>
<path d="M87.8629 73.8818H56.7477V72.5111C56.7477 64.0126 63.7383 57.022 72.2368 57.022C80.7352 57.022 87.8629 63.8756 87.8629 72.5111V73.8818ZM59.6262 71.1404H85.1215C84.4362 64.698 78.9533 59.7634 72.3738 59.7634C65.7944 59.7634 60.3115 64.698 59.6262 71.1404Z" fill="#141414"/>
<path d="M34.8161 37.4206L33.9937 41.2586L39.3395 43.4518L41.2585 39.8879C43.5887 40.2991 45.7819 40.2991 47.975 39.7508L50.0311 43.1776L55.2398 40.8474L54.0062 37.1465C55.7881 35.9128 57.433 34.1309 58.6666 32.2119L62.5046 33.1714L64.5607 27.6885L61.1339 25.7695C61.5451 23.4393 61.408 21.1091 60.8598 18.7789L64.1495 16.7228L61.8193 11.5141L58.1183 12.6106C56.8847 10.6916 55.1027 9.04678 53.1837 7.81313L54.0062 3.97513L48.6604 1.78198L46.7414 5.34585C44.4112 4.93463 42.218 4.93463 40.0249 5.48292L37.9688 2.05613L32.7601 4.38634L33.8566 8.22435C32.0747 9.45799 30.4298 11.2399 29.1962 13.1589L25.3582 12.1994L23.3021 17.6823L26.7289 19.6013C26.3177 21.9315 26.4548 24.2617 27.0031 26.592L23.7133 28.648L26.0436 33.9938L29.7445 32.8972C31.2523 34.5421 32.8971 36.187 34.8161 37.4206Z" fill="white"/>
<path d="M39.8879 45.2336L32.349 42.2181L33.3085 38.1059C31.8007 37.0093 30.567 35.7757 29.3334 34.2679L25.3583 35.3645L22.0686 27.8255L25.6324 25.6324C25.3583 23.8505 25.2212 21.9315 25.4954 20.1495L21.7944 18.0935L24.6729 10.4174L28.7851 11.514C29.8817 10.0062 30.9782 8.77259 32.486 7.53894L31.2524 3.42679L38.5172 0.137072L40.7103 3.83801C42.4923 3.56386 44.2742 3.56386 46.0561 3.70093L48.1122 0L55.6511 3.01558L54.6916 7.12773C56.1994 8.2243 57.5701 9.45794 58.6667 10.9657L62.6418 9.86916L65.9315 17.4081L62.3676 19.6012C62.6418 21.3832 62.7789 23.3022 62.5047 25.0841L66.2057 27.1402L63.3271 34.8162L59.215 33.7196C58.1184 35.2274 57.0218 36.4611 55.5141 37.6947L56.7477 41.8069L49.4829 45.0966L47.2898 41.3956C45.5078 41.6698 43.7259 41.6698 41.944 41.5327L39.8879 45.2336ZM35.5016 40.5732L38.6542 41.8069L40.4362 38.5171L41.3957 38.6542C43.4518 39.0654 45.6449 39.0654 47.5639 38.5171L48.5234 38.243L50.4424 41.5327L53.458 40.162L52.3614 36.4611L53.1838 35.9128C54.9658 34.6791 56.3365 33.1713 57.4331 31.3894L57.9813 30.567L61.5452 31.5265L62.7789 28.3738L59.4891 26.4548L59.6262 25.4953C60.0374 23.3022 59.9004 21.2461 59.4891 19.053L59.215 18.0935L62.3676 16.1745L60.9969 13.0218L57.4331 13.9813L56.8848 13.1589C55.6511 11.3769 54.1433 9.86916 52.3614 8.63551L51.6761 8.36137L52.4985 4.66044L49.3458 3.42679L47.5639 6.71651L46.6044 6.57944C44.5483 6.16822 42.3552 6.16822 40.4362 6.71651L39.4767 6.99065L37.5577 3.70093L34.5421 5.07165L35.6387 8.77259L34.8162 9.32087C33.0343 10.5545 31.6636 12.0623 30.567 13.8442L30.0187 14.6667L26.4549 13.7072L25.2212 16.8598L28.5109 18.7788L28.3739 19.7383C27.9627 21.9315 28.0997 23.9875 28.5109 26.1807L28.7851 27.1402L25.4954 28.9221L26.8661 32.0748L30.4299 31.1153L30.9782 31.9377C32.2119 33.7196 33.7197 35.2274 35.5016 36.4611L36.324 37.0093L35.5016 40.5732Z" fill="#141414"/>
<path d="M44 31.5266C48.9207 31.5266 52.9097 27.5376 52.9097 22.6169C52.9097 17.6963 48.9207 13.7073 44 13.7073C39.0793 13.7073 35.0903 17.6963 35.0903 22.6169C35.0903 27.5376 39.0793 31.5266 44 31.5266Z" fill="white"/>
<path d="M44.0001 32.897C42.7664 32.897 41.5328 32.6229 40.4362 32.2117C37.8319 31.2522 35.7758 29.3332 34.6792 26.8659C33.5826 24.3986 33.4456 21.5201 34.4051 18.9157C35.9129 14.9407 39.7509 12.1992 44.1372 12.1992C45.3708 12.1992 46.6045 12.4734 47.701 12.8846C53.0468 14.9407 55.7883 20.8347 53.7322 26.1805C52.2244 30.2927 48.2493 32.897 44.0001 32.897ZM44.0001 15.0777C40.8474 15.0777 37.9689 16.9967 36.8724 20.0123C36.187 21.9313 36.187 23.9874 37.0094 25.7693C37.8319 27.5512 39.3397 29.059 41.2587 29.7444C42.0811 30.0185 43.0406 30.2927 43.863 30.2927C47.0157 30.2927 49.8942 28.3737 50.9908 25.3581C52.4985 21.383 50.4425 17.1338 46.6045 15.626C45.782 15.2148 44.9596 15.0777 44.0001 15.0777Z" fill="#141414"/>
</g>
<defs>
<clipPath id="clip0_2716_1958">
<rect width="88" height="88" fill="white"/>
</clipPath>
</defs>
</svg>
