<svg width="28" height="28" viewBox="0 0 34 34">
    <path fill="#E6E6E6" d="M33.2337 15.4497C33.1503 14.5997 32.4337 13.9663 31.5837 13.9663H19.0003C18.0837 13.9663 17.3337 14.7163 17.3337 15.633V18.483C17.3337 19.3997 18.0837 20.1497 19.0003 20.1497H26.517C26.3337 21.683 25.3337 23.9997 23.117 25.5497C21.7003 26.533 19.817 27.2164 17.3337 27.2164C17.217 27.2164 17.117 27.2163 17.0003 27.1997C12.7503 27.0663 9.15033 24.2164 7.85033 20.2997C7.50033 19.2497 7.30033 18.1497 7.30033 16.9997C7.30033 15.8497 7.50033 14.733 7.83366 13.6997C7.93366 13.3997 8.05033 13.0997 8.18366 12.7997C9.717 9.34969 13.067 6.91635 17.0003 6.79968C17.1003 6.78302 17.217 6.783 17.3337 6.783C19.717 6.783 21.5003 7.56632 22.7503 8.43298C23.4003 8.88298 24.267 8.78299 24.8337 8.23299L27.1503 5.96635C27.8837 5.24968 27.817 4.03298 26.9837 3.43298C24.3337 1.48298 21.1003 0.333008 17.3337 0.333008C17.217 0.333008 17.117 0.333024 17.0003 0.349691C10.617 0.466357 5.13366 4.16636 2.45033 9.51636C1.31699 11.783 0.666992 14.3163 0.666992 16.9997C0.666992 19.683 1.31699 22.2163 2.45033 24.483H2.467C5.15033 29.833 10.6337 33.533 17.0003 33.6497C17.117 33.6663 17.217 33.6663 17.3337 33.6663C21.8337 33.6663 25.617 32.183 28.367 29.633C31.517 26.7163 33.3337 22.4497 33.3337 17.3663C33.3337 16.6497 33.3003 16.033 33.2337 15.4497Z"/>
</svg>
