<svg width="112" height="73" viewBox="0 0 112 73" fill="none" xmlns="http://www.w3.org/2000/svg">
<path d="M111.268 18.8391C111.285 17.1091 110.725 15.4228 109.677 14.0465L100.901 2.81622C100.187 1.929 99.282 1.2148 98.253 0.727126C97.224 0.239455 96.098 -0.00903973 94.9593 0.000251255C93.5896 -0.00917862 92.2447 0.366077 91.0776 1.08332L82.5214 6.40767C81.3172 7.06713 79.9603 7.39737 78.5877 7.3651C77.5516 7.38947 76.5226 7.18767 75.5725 6.77374L67.1906 2.71441C65.8199 2.08462 64.3255 1.77004 62.8172 1.79381C60.6358 1.75537 58.4931 2.37264 56.6665 3.5657L55.6917 4.25128L52.358 2.59527C50.6458 1.81721 48.7807 1.43376 46.9005 1.47322C45.1866 1.44766 43.4845 1.75974 41.8913 2.39166L36.1835 4.82748C34.9456 5.29069 33.6309 5.51451 32.3094 5.48706C30.9886 5.51437 29.6747 5.29054 28.4374 4.82748L22.7243 2.39058C21.6914 1.96159 20.5826 1.74535 19.4642 1.75481C18.1925 1.75761 16.9332 2.0047 15.7547 2.48264C14.5616 2.9531 13.4915 3.68948 12.6257 4.63577L2.22831 16.2852C1.62638 16.9571 1.16515 17.7428 0.871849 18.5959C0.578544 19.449 0.459107 20.3522 0.520587 21.2522C0.582068 22.1522 0.82322 23.0307 1.22981 23.836C1.6364 24.6413 2.20019 25.357 2.8879 25.9408L12.5911 34.2186L7.98373 39.0188C7.35996 39.6711 6.87112 40.4402 6.54524 41.2818C6.21936 42.1235 6.06285 43.0212 6.08468 43.9235C6.10652 44.8258 6.30627 45.7149 6.67248 46.5398C7.0387 47.3647 7.56417 48.1092 8.21875 48.7306L9.15235 49.6177C10.0089 50.4187 11.0569 50.9863 12.1958 51.2661C11.4627 52.5848 11.1904 54.1103 11.4219 55.6011C11.6534 57.092 12.3754 58.4631 13.4738 59.4974L14.4106 60.3888C15.3893 61.3115 16.6148 61.9302 17.9383 62.1697C19.2619 62.4093 20.6265 62.2594 21.8665 61.7383C22.1701 63.0062 22.8327 64.1598 23.7748 65.0611L24.7117 65.9525C25.8497 67.027 27.318 67.6848 28.8774 67.8187C30.4369 67.9527 31.9958 67.5548 33.3004 66.69C33.6354 67.8109 34.2534 68.8266 35.095 69.6392L36.0319 70.5306C37.3614 71.7849 39.132 72.464 40.9593 72.4206C42.7865 72.3772 44.5229 71.6148 45.7914 70.2988L49.8594 66.051L55.383 71.1663C56.7263 72.4039 58.5037 73.0612 60.329 72.9955C62.1542 72.9298 63.8798 72.1463 65.1306 70.8154L66.0133 69.8699C66.7435 69.0737 67.2736 68.1151 67.5599 67.0734L69.7087 69.0522C71.0555 70.2882 72.8351 70.9436 74.6618 70.8763C76.4885 70.809 78.2151 70.0244 79.4672 68.6926L80.3445 67.7482C81.3155 66.7013 81.9314 65.3748 82.1044 63.9575C83.3038 64.2878 84.5712 64.2806 85.7667 63.9366C86.9623 63.5927 88.0397 62.9252 88.8801 62.0079L89.7595 61.0635C90.9443 59.7955 91.6025 58.1244 91.6008 56.389C91.5951 55.8702 91.5319 55.3537 91.4123 54.8489C92.9941 54.6539 94.4582 53.9126 95.5518 52.7531L96.4345 51.8076C97.0493 51.1467 97.5277 50.3711 97.8425 49.5251C98.1573 48.6791 98.3021 47.7794 98.2688 46.8774C98.2355 45.9754 98.0247 45.0887 97.6485 44.2683C97.2722 43.4478 96.7378 42.7095 96.076 42.0958L94.4265 40.5719L109.319 24.1093C110.597 22.6538 111.292 20.7764 111.268 18.8391ZM13.9168 47.7635C13.1116 47.7673 12.3359 47.4609 11.7506 46.9078L10.8149 46.0208C10.5179 45.7381 10.2795 45.3996 10.1133 45.0247C9.94716 44.6498 9.85646 44.2459 9.8464 43.8359C9.83634 43.426 9.90713 43.0181 10.0547 42.6355C10.2023 42.253 10.4238 41.9032 10.7066 41.6062L20.1292 31.7687C20.7068 31.171 21.4964 30.8245 22.3273 30.8042C23.1583 30.784 23.9638 31.0915 24.5698 31.6604L25.5012 32.5485C25.9785 33.2266 26.3077 33.9975 26.4673 34.8111C26.4654 35.4429 26.2708 36.0592 25.9095 36.5776C25.8781 36.609 15.7341 47.1808 15.7341 47.1808C15.2025 47.5568 14.568 47.7602 13.9168 47.7635ZM21.4462 57.576C20.8686 58.1736 20.079 58.5199 19.2481 58.5401C18.4173 58.5604 17.6118 58.253 17.0057 57.6843L16.0688 56.7941C15.4711 56.2219 15.1242 55.4363 15.1039 54.6091C15.0836 53.7819 15.3916 52.9803 15.9605 52.3795C15.9605 52.3795 28.5241 39.2982 28.6324 39.1726C29.2144 38.6149 29.9881 38.3018 30.7942 38.2977C31.6002 38.2937 32.3771 38.5991 32.9646 39.1509L33.9015 40.0423C34.5006 40.614 34.8484 41.3999 34.8687 42.2277C34.889 43.0555 34.5801 43.8576 34.0098 44.458L21.4462 57.576ZM31.7451 63.1376C31.1684 63.7344 30.38 64.0804 29.5503 64.1006C28.7206 64.1209 27.9162 63.8139 27.311 63.2459L26.372 62.3556C25.8055 61.8177 25.4627 61.0859 25.4121 60.3063C25.3615 59.5267 25.6068 58.7567 26.0991 58.1501L34.8503 49.0155C35.4359 48.4858 36.1995 48.1961 36.9891 48.2041C37.7787 48.2122 38.5363 48.5173 39.111 49.0588L40.0501 49.9502C40.6493 50.5215 40.9973 51.3073 41.0176 52.135C41.0379 52.9628 40.7289 53.7647 40.1584 54.3647L31.7451 63.1376ZM48.3734 62.1737L43.0653 67.72C42.4881 68.3183 41.6984 68.6652 40.8673 68.6854C40.0361 68.7057 39.2305 68.3978 38.6247 67.8283L37.6879 66.9381C37.0889 66.3666 36.7411 65.5808 36.7208 64.7532C36.7005 63.9255 37.0093 63.1236 37.5796 62.5235L42.8866 56.9814C43.4643 56.3839 44.2538 56.0376 45.0847 56.0174C45.9156 55.9971 46.7211 56.3045 47.3272 56.8731L48.2662 57.7634C48.8642 58.3358 49.2108 59.1219 49.2301 59.9494C49.2494 60.777 48.9398 61.5784 48.3691 62.178L48.3734 62.1737ZM94.511 47.1418C94.513 47.9301 94.2139 48.6894 93.6748 49.2646L92.7954 50.209C92.2252 50.8122 91.4408 51.1672 90.6114 51.1973C89.7819 51.2275 88.9738 50.9305 88.3613 50.3704L73.5341 36.6588L70.9705 39.4044L86.8407 54.107C87.1414 54.3862 87.3841 54.7219 87.5551 55.095C87.726 55.468 87.8217 55.8711 87.8368 56.2811C87.8519 56.6912 87.786 57.1002 87.643 57.4848C87.4999 57.8694 87.2825 58.2221 87.0031 58.5226L86.1259 59.4671C85.5562 60.0703 84.7723 60.4254 83.9432 60.4557C83.1141 60.4861 82.3062 60.1894 81.694 59.6295L66.8635 45.9179L64.2934 48.6581L77.4548 60.8296C78.0449 61.3957 78.389 62.1709 78.4131 62.9883C78.4372 63.8057 78.1393 64.5998 77.5837 65.1997L76.7043 66.1442C76.1337 66.7488 75.3483 67.1049 74.5175 67.1355C73.6867 67.1661 72.8772 66.8688 72.2637 66.3077L59.1358 54.1817L56.5798 56.9316L56.6286 56.9782L63.2071 63.0499C63.7658 63.618 64.0835 64.3798 64.094 65.1765C64.1045 65.9732 63.8069 66.7432 63.2634 67.3258L62.384 68.2713C61.815 68.8739 61.0318 69.2284 60.2036 69.2584C59.3754 69.2884 58.5686 68.9914 57.9575 68.4316L52.2291 63.1246C52.9173 61.8152 53.1573 60.3163 52.9122 58.8576C52.667 57.3988 51.9504 56.0607 50.8721 55.0482L49.933 54.1568C48.648 52.9394 46.9442 52.2623 45.174 52.2658C45.0419 52.2658 44.9087 52.2961 44.7787 52.3037C44.7787 52.2723 44.7863 52.2398 44.7863 52.2084C44.7863 50.4018 42.6527 47.2328 42.6527 47.2328L41.7158 46.3446C40.7529 45.4321 39.5467 44.8175 38.2424 44.5749C38.6951 43.3306 38.7729 41.9809 38.4663 40.6928C38.1596 39.4048 37.4819 38.2349 36.5171 37.3281L35.5802 36.4368C34.2931 35.2182 32.5872 34.5405 30.8148 34.5436C30.6155 34.5436 30.4194 34.5836 30.2223 34.602C30.1735 32.7993 29.4144 31.0888 28.1103 29.8431L27.1767 28.956C25.8478 27.7009 24.0772 27.021 22.2498 27.064C20.4223 27.107 18.6857 27.8694 17.4172 29.1856L15.1915 31.5077L5.33563 23.0999C5.02815 22.8386 4.77613 22.5183 4.59442 22.1581C4.41271 21.7978 4.305 21.4047 4.27764 21.0022C4.25029 20.5996 4.30384 20.1956 4.43514 19.8141C4.56643 19.4325 4.77282 19.0811 5.04212 18.7806L15.4396 7.13116C15.9227 6.61611 16.5147 6.21539 17.1725 5.9582C17.8989 5.66512 18.6744 5.51259 19.4577 5.50872C20.0665 5.50021 20.6708 5.61363 21.235 5.84231L26.946 8.27921C28.6518 8.94626 30.4716 9.27334 32.3029 9.24205C34.1342 9.27329 35.9539 8.94621 37.6597 8.27921L43.3675 5.84339C44.4927 5.41262 45.6905 5.20336 46.895 5.22712C48.1899 5.19391 49.4765 5.44186 50.6663 5.95387C51.2078 6.22138 51.7158 6.4759 52.1901 6.71201L46.3795 10.8049C45.6398 11.321 45.0116 11.9806 44.5321 12.7446C44.0526 13.5085 43.7317 14.361 43.5886 15.2515C43.4454 16.142 43.4828 17.0522 43.6986 17.9279C43.9144 18.8036 44.3042 19.6269 44.8448 20.3489L45.6138 21.3821C46.3202 22.3041 47.2308 23.0497 48.2739 23.5605C49.3171 24.0713 50.4644 24.3333 51.6259 24.3259C52.949 24.3314 54.2488 23.9773 55.3863 23.3013L58.8672 21.211C59.7521 20.7261 60.7492 20.4832 61.7579 20.507C62.9633 20.478 64.1495 20.8116 65.1631 21.4645L74.7948 28.369C77.4209 30.2973 79.9474 32.3578 82.3644 34.5425L93.5124 44.85C93.8285 45.142 94.0805 45.4965 94.2524 45.891C94.4243 46.2855 94.5123 46.7114 94.511 47.1418ZM106.517 21.6031L91.6657 38.0245L84.9226 31.7915C82.3923 29.4994 79.7454 27.3394 76.9924 25.3202L67.3639 18.4156C65.7097 17.2993 63.7522 16.7186 61.7569 16.752C60.0621 16.7262 58.3914 17.1552 56.9188 17.9943L53.44 20.0846C52.8896 20.4078 52.2619 20.5759 51.6237 20.5709C51.0494 20.5773 50.4812 20.4518 49.963 20.2041C49.4448 19.9565 48.9903 19.5932 48.6344 19.1424L47.8665 18.1156C47.6248 17.7948 47.4504 17.4285 47.3537 17.0386C47.257 16.6487 47.2401 16.2433 47.3039 15.8467C47.3677 15.4501 47.511 15.0705 47.7251 14.7307C47.9392 14.3908 48.2198 14.0977 48.55 13.8689L58.8391 6.6362C60.0319 5.89771 61.4135 5.52146 62.8161 5.55313C63.7536 5.53098 64.6844 5.71589 65.5422 6.09466L73.9219 10.154C75.3848 10.8211 76.9779 11.154 78.5855 11.1288C80.6635 11.1657 82.7124 10.6371 84.5132 9.59946L93.0694 4.27403C93.6372 3.92874 94.2905 3.74939 94.955 3.75632C95.5211 3.74725 96.0821 3.8649 96.5969 4.10064C97.1117 4.33639 97.5672 4.68427 97.9302 5.11882L106.703 16.3491C107.235 17.0695 107.516 17.9447 107.502 18.8402C107.52 19.8502 107.17 20.8322 106.517 21.6031Z" fill="#24D07D"/>
</svg>
