<svg width="253" height="143" viewBox="0 0 253 143" fill="none" xmlns="http://www.w3.org/2000/svg">
<path d="M33.7888 138.815C33.7888 138.815 -18.9212 43.886 20.5348 21.735C52.0138 4.06304 79.6268 34.9891 113.315 13.4511C156.777 -14.3359 189.725 4.26713 213.275 38.8511C230.947 64.8081 240.307 81.598 249.175 101.809C262.982 133.288 233.712 140.467 233.712 140.467L33.7888 138.815Z" fill="#E7F3FE"/>
<path d="M179.429 139.433L155.398 139.478C155.22 139.437 155.06 139.34 154.943 139.2C154.825 139.06 154.757 138.885 154.749 138.703C154.741 138.521 154.793 138.34 154.897 138.19C155.001 138.04 155.151 137.929 155.325 137.873L179.26 135.723C181.203 135.548 182.973 136.301 183.024 137.41C183.075 138.519 181.38 139.43 179.429 139.433Z" fill="#75A1DE"/>
<path d="M148.314 136.032C149.142 135.825 150.661 131.292 150.661 131.292C150.661 131.292 133.307 125.441 125.947 121.627L115.693 133.487C128.865 136.768 147.7 136.184 148.314 136.032Z" fill="#F09959"/>
<path d="M145.646 129.496C149.917 130.596 156.711 127.839 157.981 128.115C159.251 128.391 164.56 131.152 165.83 132.533C167.1 133.914 171.601 138.194 170.793 138.47C169.985 138.746 164.329 134.604 163.637 134.47C162.945 134.336 162.598 135.299 156.942 136.403C151.286 137.507 144.449 134.654 144.449 134.654L145.646 129.496Z" fill="#F09959"/>
<path d="M152.44 133.776C152.44 133.776 159.019 132.119 159.827 132.396C160.635 132.673 165.54 133.776 168.945 137.642C165.964 136.876 162.904 136.46 159.827 136.4C158.557 136.404 152.44 133.776 152.44 133.776Z" fill="#E38540"/>
<path d="M154.012 131.016C156.822 134.606 163.953 135.71 165.034 136.953C166.115 138.196 162.434 137.668 160.495 137.506C155.556 137.092 152.105 139.094 148.107 137.851C147.017 137.582 146.006 137.06 145.155 136.329C144.304 135.598 143.636 134.676 143.207 133.64L154.012 131.016Z" fill="#F09959"/>
<path d="M101.358 67.2927C88.6858 73.5197 82.8868 78.0757 78.9518 95.0567C75.0168 112.038 74.8098 128.191 76.8808 140.202C90.9468 140.61 131.262 142.129 131.262 142.129C131.262 142.129 130.494 117.469 126.375 97.9558C122.44 79.3178 116.849 72.0697 112.086 68.7557C107.323 65.4417 101.358 67.2927 101.358 67.2927Z" fill="#A2DFF2"/>
<path d="M104.425 125.084C99.8817 120.529 101.112 89.6719 93.6557 75.7969L79.7807 101.683L75.5867 123.221C75.523 128.908 75.9563 134.589 76.8817 140.201C76.9059 140.337 76.9803 140.459 77.0901 140.543C77.1998 140.627 77.3371 140.666 77.4747 140.654C88.9287 139.654 89.5667 134.673 126.155 129.154C127.018 129.02 107.516 128.184 104.425 125.084Z" fill="#96CFE0"/>
<path d="M100.153 67.2982C98.5467 71.0442 101.81 75.9503 106.964 79.8163C112.118 83.6823 115.248 81.5652 114.972 78.5282C114.696 75.4912 114.42 72.2693 113.223 70.3363C112.026 68.4033 102.454 66.7472 102.454 66.7472C102.454 66.7472 100.429 66.6512 100.153 67.2982Z" fill="white"/>
<path d="M106.273 48.5195L101.358 67.2915C101.119 67.9111 101.027 68.5775 101.089 69.2385C101.152 69.8995 101.366 70.5372 101.716 71.1016C103.716 74.3346 108.023 80.5455 111.105 79.7235C115.247 78.6235 112.486 70.8875 112.486 70.8875L118.009 51.4185L106.273 48.5195Z" fill="#F09959"/>
<path d="M113.804 49.6794L108.897 47.6934L107.423 51.5254C108.099 67.8414 110.178 74.5004 113.369 76.3574C113.393 74.4971 113.095 72.6467 112.487 70.8884L116.487 56.3884L113.804 49.6794Z" fill="#E38540"/>
<path d="M127.433 57.0345C126.476 63.5145 123.923 69.0665 119.295 68.3835C114.667 67.7005 106.72 62.2775 107.677 55.7975C108.634 49.3175 119.023 41.5574 123.652 42.2414C128.281 42.9254 128.389 50.5545 127.433 57.0345Z" fill="#F09959"/>
<path d="M92.2056 81.3895C92.5746 79.9175 86.6806 79.0385 85.7426 80.2305C76.4696 92.0235 62.0426 123.883 65.2846 129.64C69.0126 136.267 109.173 127.564 110.001 127.357C110.829 127.15 108.551 120.937 108.551 120.937C108.551 120.937 86.0506 121.352 82.2506 118.798C94.0526 96.6385 89.4096 92.5405 92.2056 81.3895Z" fill="#F09959"/>
<path d="M89.9288 74.7611C80.1878 79.1271 69.6338 107.481 69.6338 107.481C69.6338 107.481 72.1188 108.102 80.1958 110.794C83.5528 111.913 86.8068 112.951 86.8068 112.951C86.8068 112.951 94.5388 102.918 96.9698 95.0511C100.102 84.9271 95.9338 72.0681 89.9288 74.7611Z" fill="#A2DFF2"/>
<path d="M70.6777 104.822C79.7887 105.997 85.2327 109.169 87.9987 111.336C88.4147 110.758 88.9177 110.044 89.4737 109.226C86.1133 106.086 81.8749 104.047 77.3247 103.381C74.8627 103.037 72.9887 102.814 71.5657 102.672C71.2307 103.47 70.9307 104.193 70.6777 104.822Z" fill="white"/>
<path d="M72.7687 99.8789C72.6127 100.233 72.4614 100.578 72.3147 100.915C80.3147 100.595 87.9957 104.493 89.9347 106.873L90.5417 107.618C90.7417 107.311 90.9454 106.994 91.1527 106.669C89.4135 104.876 87.3852 103.389 85.1527 102.269C80.3177 100.167 73.3907 99.9029 72.7687 99.8789Z" fill="white"/>
<path d="M126.43 129.059H116.214L114.695 109.982H128.087L126.43 129.059Z" fill="#75A1DE"/>
<path d="M107.309 121.007C110.139 120.938 114.765 117.693 116.352 116.796C117.939 115.899 126.914 113.966 127.328 114.932C127.742 115.898 119.803 117.9 119.803 117.9L125.74 118.176C125.74 118.176 127.466 120.799 127.604 122.525C127.617 123.947 127.431 125.365 127.052 126.736L124.429 124.389C124.429 124.389 122.289 125.562 119.597 127.15C116.905 128.738 112.072 127.771 109.997 127.357C107.922 126.943 103.097 125.424 103.097 125.424L107.309 121.007Z" fill="#F09959"/>
<path d="M70.3066 120.108C70.3066 120.108 74.8857 117.462 79.4877 118.108C82.1247 118.478 82.4107 118.908 82.2487 118.799C82.8187 117.729 83.352 116.7 83.8486 115.713C81.4486 115.822 75.3016 116.471 70.3066 120.108Z" fill="#E38540"/>
<path d="M214.85 87.5938V134.605C214.784 135.415 214.402 136.166 213.786 136.696C213.17 137.225 212.37 137.491 211.56 137.435H201.689C200.937 137.382 200.196 137.629 199.625 138.12C199.054 138.611 198.7 139.307 198.639 140.058H212.839C215.897 140.058 218.376 137.926 218.376 135.295V87.5947L214.85 87.5938Z" fill="#6791C9"/>
<path d="M207.631 127.856L206.064 127.556C205.834 127.531 205.613 127.459 205.412 127.344C205.212 127.229 205.038 127.074 204.901 126.889C204.763 126.703 204.666 126.491 204.614 126.266C204.562 126.041 204.557 125.808 204.6 125.581L216.884 77.8614C217.043 77.4038 217.366 77.0214 217.791 76.7888C218.216 76.5561 218.713 76.4897 219.184 76.6024L220.751 76.9023C220.98 76.9275 221.202 77 221.402 77.115C221.603 77.23 221.777 77.3851 221.914 77.5706C222.052 77.7562 222.149 77.968 222.201 78.1931C222.253 78.4181 222.258 78.6515 222.215 78.8784L209.931 126.597C209.772 127.055 209.448 127.437 209.023 127.67C208.598 127.903 208.102 127.969 207.631 127.856Z" fill="#95BEF5"/>
<path d="M208.059 127.937L207.874 127.902C207.697 127.881 207.526 127.825 207.372 127.736C207.218 127.647 207.084 127.527 206.978 127.384C206.872 127.241 206.796 127.078 206.756 126.904C206.716 126.731 206.712 126.551 206.744 126.376L219.217 77.9198C219.34 77.5668 219.589 77.272 219.917 77.0923C220.244 76.9125 220.627 76.8608 220.991 76.9469L221.175 76.9828C221.352 77.003 221.523 77.0594 221.677 77.1484C221.831 77.2375 221.965 77.3573 222.071 77.5004C222.178 77.6434 222.253 77.8067 222.293 77.9802C222.334 78.1537 222.338 78.3336 222.306 78.5088L209.832 126.965C209.709 127.317 209.459 127.612 209.132 127.791C208.804 127.971 208.422 128.023 208.059 127.937Z" fill="#75A1DE"/>
<path d="M240.76 142.781H29.7597C29.2982 142.77 28.8593 142.579 28.5368 142.249C28.2143 141.919 28.0337 141.475 28.0337 141.014C28.0337 140.552 28.2143 140.109 28.5368 139.778C28.8593 139.448 29.2982 139.257 29.7597 139.246H240.76C241.221 139.257 241.66 139.448 241.983 139.778C242.305 140.109 242.486 140.552 242.486 141.014C242.486 141.475 242.305 141.919 241.983 142.249C241.66 142.579 241.221 142.77 240.76 142.781Z" fill="#2E5B9A"/>
<path d="M108.399 40.4258C98.8376 46.3558 104.889 52.7697 102.348 63.7827C103.91 64.3177 105.616 61.2408 106.705 58.8208C107.794 56.4008 108.762 52.8907 109.126 53.0117C109.49 53.1327 110.094 58.5787 110.094 58.5787L111.546 59.3048C111.546 59.3048 113.603 55.6738 113.482 54.8268C113.361 53.9798 111.667 49.8648 113.724 47.9268C115.046 46.6828 120.501 49.3798 120.501 49.3798L115.176 41.7557L108.399 40.4258Z" fill="#F09959"/>
<path opacity="0.5" d="M108.399 40.4258C98.8376 46.3558 104.889 52.7697 102.348 63.7827C103.91 64.3177 105.616 61.2408 106.705 58.8208C107.794 56.4008 108.762 52.8907 109.126 53.0117C109.49 53.1327 110.094 58.5787 110.094 58.5787L111.546 59.3048C111.546 59.3048 113.603 55.6738 113.482 54.8268C113.361 53.9798 111.667 49.8648 113.724 47.9268C115.046 46.6828 120.501 49.3798 120.501 49.3798L115.176 41.7557L108.399 40.4258Z" fill="#2E5B9A"/>
<path d="M129.335 46.8383C128.851 52.6473 119.846 50.8292 115.66 45.6282C111.666 40.6662 108.381 44.0862 104.405 45.7492C97.7487 48.5332 105.252 32.4372 118.686 34.9782C128.767 36.8852 129.66 42.9713 129.335 46.8383Z" fill="#2E5B9A"/>
<path d="M109.323 53.0086C109.736 55.1756 108.923 57.1495 107.515 57.4195C106.107 57.6895 104.624 56.1496 104.215 53.9836C103.806 51.8176 104.615 49.8425 106.023 49.5735C107.431 49.3045 108.91 50.8416 109.323 53.0086Z" fill="#F09959"/>
<path d="M150.571 38.3848H199.481C200.826 38.3848 202.117 38.9193 203.068 39.8709C204.02 40.8225 204.555 42.1131 204.555 43.4588V68.4948C204.555 69.8405 204.02 71.1311 203.068 72.0826C202.117 73.0342 200.826 73.5688 199.481 73.5688H150.57C149.224 73.5688 147.934 73.0343 146.982 72.0829C146.031 71.1315 145.497 69.8412 145.497 68.4958V43.4588C145.497 42.1131 146.031 40.8225 146.983 39.8709C147.934 38.9193 149.225 38.3848 150.571 38.3848V38.3848Z" fill="#9EC8FF"/>
<path d="M198.325 44.043H151.727C149.286 44.043 147.307 46.0219 147.307 48.463V68.07C147.307 70.5111 149.286 72.49 151.727 72.49H198.325C200.766 72.49 202.745 70.5111 202.745 68.07V48.463C202.745 46.0219 200.766 44.043 198.325 44.043Z" fill="white"/>
<path d="M148.928 40.3711H149.148C149.41 40.3716 149.662 40.4763 149.847 40.6621C150.032 40.8478 150.137 41.0996 150.137 41.3621C150.137 41.4922 150.111 41.6211 150.061 41.7413C150.011 41.8616 149.938 41.9708 149.846 42.0628C149.754 42.1549 149.645 42.2279 149.525 42.2777C149.405 42.3275 149.276 42.3531 149.146 42.3531H148.928C148.665 42.3531 148.413 42.2487 148.227 42.0628C148.041 41.877 147.937 41.6249 147.937 41.3621V41.3621C147.937 41.0993 148.041 40.8472 148.227 40.6614C148.413 40.4755 148.665 40.3711 148.928 40.3711V40.3711Z" fill="white"/>
<path d="M152.93 40.3711H153.15C153.413 40.3716 153.664 40.4763 153.85 40.6621C154.035 40.8478 154.139 41.0996 154.139 41.3621C154.139 41.4922 154.114 41.6211 154.064 41.7413C154.014 41.8616 153.941 41.9708 153.849 42.0628C153.757 42.1549 153.648 42.2279 153.528 42.2777C153.407 42.3275 153.279 42.3531 153.148 42.3531H152.93C152.668 42.3531 152.416 42.2487 152.23 42.0628C152.044 41.877 151.939 41.6249 151.939 41.3621V41.3621C151.939 41.0993 152.044 40.8472 152.23 40.6614C152.416 40.4755 152.668 40.3711 152.93 40.3711V40.3711Z" fill="white"/>
<path d="M156.932 40.3711H157.152C157.415 40.3716 157.666 40.4763 157.852 40.6621C158.037 40.8478 158.141 41.0996 158.141 41.3621C158.141 41.4922 158.116 41.6211 158.066 41.7413C158.016 41.8616 157.943 41.9708 157.851 42.0628C157.759 42.1549 157.65 42.2279 157.53 42.2777C157.409 42.3275 157.281 42.3531 157.15 42.3531H156.931C156.801 42.3531 156.672 42.3275 156.552 42.2776C156.432 42.2278 156.323 42.1548 156.231 42.0628C156.139 41.9707 156.066 41.8615 156.016 41.7413C155.967 41.621 155.941 41.4922 155.941 41.3621C155.941 41.0993 156.046 40.8472 156.232 40.6614C156.418 40.4755 156.67 40.3711 156.932 40.3711V40.3711Z" fill="white"/>
<path d="M200.865 70.8147H149.187V45.7207H200.865V70.8147ZM149.371 70.6298H200.68V45.9067H149.37L149.371 70.6298Z" fill="#9EC8FF"/>
<path d="M200.773 65.6484H149.28V65.8334H200.773V65.6484Z" fill="#9EC8FF"/>
<path d="M200.773 60.666H149.28V60.851H200.773V60.666Z" fill="#9EC8FF"/>
<path d="M200.773 55.6836H149.28V55.8686H200.773V55.6836Z" fill="#9EC8FF"/>
<path d="M200.773 50.7031H149.28V50.8881H200.773V50.7031Z" fill="#9EC8FF"/>
<path d="M193.508 45.8125H193.323V70.7215H193.508V45.8125Z" fill="#9EC8FF"/>
<path d="M186.153 45.8125H185.968V70.7215H186.153V45.8125Z" fill="#9EC8FF"/>
<path d="M178.797 45.8125H178.612V70.7215H178.797V45.8125Z" fill="#9EC8FF"/>
<path d="M171.44 45.8125H171.255V70.7215H171.44V45.8125Z" fill="#9EC8FF"/>
<path d="M164.083 45.8125H163.898V70.7215H164.083V45.8125Z" fill="#9EC8FF"/>
<path d="M156.727 45.8125H156.542V70.7215H156.727V45.8125Z" fill="#9EC8FF"/>
<path d="M198.846 48.9567H197.115C196.796 48.9567 196.491 48.8303 196.266 48.6052C196.041 48.3802 195.915 48.075 195.915 47.7567C195.915 47.4385 196.041 47.1332 196.266 46.9082C196.491 46.6832 196.796 46.5566 197.115 46.5566H198.846C199.164 46.5566 199.469 46.6832 199.694 46.9082C199.919 47.1332 200.046 47.4385 200.046 47.7567C200.046 48.075 199.919 48.3802 199.694 48.6052C199.469 48.8303 199.164 48.9567 198.846 48.9567Z" fill="#F39892"/>
<path d="M197.114 56.6094H198.846C199.164 56.6094 199.469 56.7358 199.694 56.9608C199.919 57.1859 200.046 57.4911 200.046 57.8094C200.046 57.967 200.015 58.123 199.954 58.2686C199.894 58.4142 199.806 58.5465 199.694 58.6579C199.583 58.7693 199.45 58.8577 199.305 58.918C199.159 58.9783 199.003 59.0094 198.846 59.0094H197.114C196.795 59.0094 196.49 58.8829 196.265 58.6579C196.04 58.4329 195.914 58.1276 195.914 57.8094V57.8094C195.914 57.4911 196.04 57.1859 196.265 56.9608C196.49 56.7358 196.795 56.6094 197.114 56.6094V56.6094Z" fill="#F39892"/>
<path d="M159.151 51.4981H161.301C161.534 51.4975 161.765 51.543 161.98 51.6319C162.196 51.7207 162.392 51.8512 162.557 52.0159C162.722 52.1806 162.853 52.3763 162.942 52.5916C163.032 52.807 163.078 53.0379 163.078 53.2711C163.078 53.5041 163.032 53.7349 162.942 53.9502C162.853 54.1655 162.722 54.3611 162.557 54.5258C162.392 54.6905 162.197 54.821 161.981 54.91C161.766 54.9989 161.535 55.0444 161.302 55.0441H159.151C158.68 55.0441 158.229 54.8573 157.897 54.5248C157.564 54.1922 157.378 53.7413 157.378 53.2711V53.2711C157.378 52.8008 157.564 52.3499 157.897 52.0174C158.229 51.6848 158.68 51.4981 159.151 51.4981Z" fill="#9EC8FF"/>
<path d="M160.998 51.998H159.454C158.75 51.998 158.18 52.5684 158.18 53.272C158.18 53.9757 158.75 54.546 159.454 54.546H160.998C161.701 54.546 162.272 53.9757 162.272 53.272C162.272 52.5684 161.701 51.998 160.998 51.998Z" fill="white"/>
<path d="M188.638 66.4102H190.789C191.023 66.4098 191.253 66.4553 191.469 66.5443C191.684 66.6332 191.88 66.7637 192.045 66.9284C192.21 67.0931 192.341 67.2887 192.43 67.504C192.52 67.7193 192.565 67.9501 192.565 68.1832C192.565 68.4162 192.52 68.647 192.43 68.8624C192.341 69.0777 192.21 69.2732 192.045 69.4379C191.88 69.6026 191.684 69.7331 191.469 69.8221C191.253 69.911 191.023 69.9566 190.789 69.9562H188.638C188.168 69.9562 187.717 69.7694 187.385 69.4369C187.052 69.1044 186.865 68.6534 186.865 68.1832V68.1832C186.865 67.7129 187.052 67.262 187.385 66.9295C187.717 66.597 188.168 66.4102 188.638 66.4102Z" fill="#9EC8FF"/>
<path d="M188.943 66.9102H190.487C190.825 66.9102 191.149 67.0444 191.388 67.2833C191.626 67.5222 191.761 67.8463 191.761 68.1842C191.761 68.522 191.626 68.8461 191.388 69.085C191.149 69.3239 190.825 69.4582 190.487 69.4582H188.943C188.605 69.4582 188.281 69.3239 188.042 69.085C187.803 68.8461 187.669 68.522 187.669 68.1842V68.1842C187.669 67.8463 187.803 67.5222 188.042 67.2833C188.281 67.0444 188.605 66.9102 188.943 66.9102V66.9102Z" fill="white"/>
<path d="M177.483 52.532H174.3C174.248 52.532 174.197 52.522 174.15 52.5023C174.103 52.4827 174.06 52.4538 174.023 52.4175C173.987 52.3812 173.958 52.3381 173.938 52.2906C173.919 52.2432 173.909 52.1923 173.909 52.141C173.909 52.0896 173.919 52.0389 173.938 51.9915C173.958 51.944 173.987 51.9008 174.023 51.8645C174.06 51.8282 174.103 51.7994 174.15 51.7798C174.197 51.7601 174.248 51.75 174.3 51.75H177.483C177.586 51.75 177.686 51.7912 177.759 51.8645C177.832 51.9378 177.874 52.0373 177.874 52.141C177.874 52.2447 177.832 52.3442 177.759 52.4175C177.686 52.4908 177.586 52.532 177.483 52.532Z" fill="#9EC8FF"/>
<path d="M177.483 53.7605H174.3C174.248 53.7605 174.197 53.7504 174.15 53.7307C174.103 53.7111 174.06 53.6823 174.023 53.646C173.987 53.6097 173.958 53.5665 173.938 53.519C173.919 53.4716 173.909 53.4209 173.909 53.3695C173.909 53.3182 173.919 53.2673 173.938 53.2198C173.958 53.1724 173.987 53.1293 174.023 53.093C174.06 53.0567 174.103 53.0278 174.15 53.0082C174.197 52.9885 174.248 52.9785 174.3 52.9785H177.483C177.586 52.9785 177.686 53.0197 177.759 53.093C177.832 53.1663 177.874 53.2658 177.874 53.3695C177.874 53.4732 177.832 53.5727 177.759 53.646C177.686 53.7193 177.586 53.7605 177.483 53.7605Z" fill="#9EC8FF"/>
<path d="M170.446 67.3601H167.263C167.211 67.3601 167.16 67.35 167.113 67.3303C167.065 67.3107 167.022 67.2819 166.986 67.2456C166.95 67.2093 166.921 67.1662 166.901 67.1188C166.882 67.0713 166.872 67.0205 166.872 66.9691C166.872 66.9178 166.882 66.8669 166.901 66.8195C166.921 66.772 166.95 66.7289 166.986 66.6926C167.022 66.6563 167.065 66.6276 167.113 66.6079C167.16 66.5883 167.211 66.5781 167.263 66.5781H170.446C170.549 66.5781 170.649 66.6193 170.722 66.6926C170.795 66.766 170.837 66.8654 170.837 66.9691C170.837 67.0728 170.795 67.1723 170.722 67.2456C170.649 67.3189 170.549 67.3601 170.446 67.3601Z" fill="#9EC8FF"/>
<path d="M170.446 68.5887H167.263C167.211 68.5887 167.16 68.5786 167.113 68.559C167.065 68.5393 167.022 68.5104 166.986 68.4741C166.95 68.4378 166.921 68.3947 166.901 68.3473C166.882 68.2999 166.872 68.2491 166.872 68.1978C166.872 68.1464 166.882 68.0955 166.901 68.0481C166.921 68.0007 166.95 67.9576 166.986 67.9213C167.022 67.885 167.065 67.8561 167.113 67.8364C167.16 67.8168 167.211 67.8066 167.263 67.8066H170.446C170.549 67.8066 170.649 67.8479 170.722 67.9213C170.795 67.9946 170.837 68.0941 170.837 68.1978C170.837 68.3015 170.795 68.4008 170.722 68.4741C170.649 68.5474 170.549 68.5887 170.446 68.5887Z" fill="#9EC8FF"/>
<path d="M153.945 58.0613H150.762C150.71 58.0613 150.659 58.0511 150.612 58.0315C150.565 58.0118 150.521 57.9831 150.485 57.9468C150.449 57.9105 150.42 57.8674 150.4 57.8199C150.381 57.7725 150.371 57.7216 150.371 57.6703C150.371 57.6189 150.381 57.5681 150.4 57.5206C150.42 57.4732 150.449 57.4301 150.485 57.3938C150.521 57.3575 150.565 57.3287 150.612 57.3091C150.659 57.2894 150.71 57.2793 150.762 57.2793H153.945C154.048 57.2793 154.148 57.3205 154.221 57.3938C154.294 57.4671 154.336 57.5666 154.336 57.6703C154.336 57.774 154.294 57.8735 154.221 57.9468C154.148 58.0201 154.048 58.0613 153.945 58.0613Z" fill="#9EC8FF"/>
<path d="M153.945 59.2898H150.762C150.71 59.2898 150.659 59.2797 150.612 59.26C150.565 59.2404 150.521 59.2116 150.485 59.1753C150.449 59.139 150.42 59.0958 150.4 59.0483C150.381 59.0009 150.371 58.9502 150.371 58.8988C150.371 58.8475 150.381 58.7966 150.4 58.7491C150.42 58.7017 150.449 58.6586 150.485 58.6223C150.521 58.586 150.565 58.5571 150.612 58.5375C150.659 58.5178 150.71 58.5078 150.762 58.5078H153.945C153.996 58.5078 154.047 58.5178 154.094 58.5375C154.142 58.5571 154.185 58.586 154.221 58.6223C154.257 58.6586 154.286 58.7017 154.306 58.7491C154.325 58.7966 154.336 58.8475 154.336 58.8988C154.336 58.9502 154.325 59.0009 154.306 59.0483C154.286 59.0958 154.257 59.139 154.221 59.1753C154.185 59.2116 154.142 59.2404 154.094 59.26C154.047 59.2797 153.996 59.2898 153.945 59.2898Z" fill="#9EC8FF"/>
<path d="M184.688 52.532H181.504C181.452 52.532 181.401 52.522 181.354 52.5023C181.306 52.4827 181.263 52.4538 181.227 52.4175C181.191 52.3812 181.162 52.3381 181.142 52.2906C181.123 52.2432 181.113 52.1923 181.113 52.141C181.113 52.0896 181.123 52.0389 181.142 51.9915C181.162 51.944 181.191 51.9008 181.227 51.8645C181.263 51.8282 181.306 51.7994 181.354 51.7798C181.401 51.7601 181.452 51.75 181.504 51.75H184.688C184.739 51.75 184.79 51.7601 184.837 51.7798C184.885 51.7994 184.928 51.8282 184.964 51.8645C185 51.9008 185.029 51.944 185.049 51.9915C185.068 52.0389 185.078 52.0896 185.078 52.141C185.078 52.1923 185.068 52.2432 185.049 52.2906C185.029 52.3381 185 52.3812 184.964 52.4175C184.928 52.4538 184.885 52.4827 184.837 52.5023C184.79 52.522 184.739 52.532 184.688 52.532Z" fill="#9EC8FF"/>
<path d="M184.688 53.7605H181.504C181.452 53.7605 181.401 53.7504 181.354 53.7307C181.306 53.7111 181.263 53.6823 181.227 53.646C181.191 53.6097 181.162 53.5665 181.142 53.519C181.123 53.4716 181.113 53.4209 181.113 53.3695C181.113 53.3182 181.123 53.2673 181.142 53.2198C181.162 53.1724 181.191 53.1293 181.227 53.093C181.263 53.0567 181.306 53.0278 181.354 53.0082C181.401 52.9885 181.452 52.9785 181.504 52.9785H184.688C184.739 52.9785 184.79 52.9885 184.837 53.0082C184.885 53.0278 184.928 53.0567 184.964 53.093C185 53.1293 185.029 53.1724 185.049 53.2198C185.068 53.2673 185.078 53.3182 185.078 53.3695C185.078 53.4209 185.068 53.4716 185.049 53.519C185.029 53.5665 185 53.6097 184.964 53.646C184.928 53.6823 184.885 53.7111 184.837 53.7307C184.79 53.7504 184.739 53.7605 184.688 53.7605Z" fill="#9EC8FF"/>
<path d="M159.094 61.5801H161.694C162.171 61.5801 162.629 61.7697 162.966 62.1073C163.304 62.4449 163.494 62.9027 163.494 63.3801C163.494 63.8575 163.304 64.3153 162.966 64.6529C162.629 64.9904 162.171 65.1801 161.694 65.1801H159.094C158.616 65.1801 158.158 64.9904 157.821 64.6529C157.483 64.3153 157.294 63.8575 157.294 63.3801C157.294 62.9027 157.483 62.4449 157.821 62.1073C158.158 61.7697 158.616 61.5801 159.094 61.5801V61.5801Z" fill="#9CD499"/>
<path d="M160.061 64.5875H160.047C159.997 64.5856 159.947 64.5735 159.902 64.552C159.857 64.5305 159.816 64.5001 159.783 64.4625L158.901 63.4625C158.836 63.3888 158.803 63.2923 158.809 63.1944C158.816 63.0964 158.861 63.0048 158.934 62.94C159.008 62.8751 159.105 62.8422 159.203 62.8485C159.301 62.8548 159.392 62.8998 159.457 62.9735L160.081 63.6825L161.687 62.1115C161.757 62.0428 161.852 62.0048 161.95 62.0059C161.998 62.0064 162.046 62.0165 162.091 62.0355C162.136 62.0546 162.176 62.0822 162.21 62.117C162.244 62.1517 162.271 62.1928 162.289 62.2379C162.307 62.283 162.316 62.3313 162.316 62.3799C162.315 62.4285 162.305 62.4765 162.286 62.5213C162.267 62.566 162.239 62.6065 162.205 62.6405L160.321 64.4855C160.251 64.5522 160.158 64.5889 160.061 64.5875Z" fill="white"/>
<path d="M181.127 46.416H183.727C184.204 46.416 184.662 46.6057 184.999 46.9432C185.337 47.2808 185.527 47.7386 185.527 48.216C185.527 48.6934 185.337 49.1512 184.999 49.4888C184.662 49.8264 184.204 50.016 183.727 50.016H181.127C180.649 50.016 180.191 49.8264 179.854 49.4888C179.516 49.1512 179.327 48.6934 179.327 48.216C179.327 47.7386 179.516 47.2808 179.854 46.9432C180.191 46.6057 180.649 46.416 181.127 46.416V46.416Z" fill="#9CD499"/>
<path d="M182.094 49.4226H182.08C182.029 49.4207 181.98 49.4087 181.935 49.3872C181.889 49.3657 181.849 49.3352 181.816 49.2976L180.934 48.2976C180.869 48.2239 180.836 48.1274 180.842 48.0293C180.848 47.9312 180.893 47.8395 180.967 47.7746C181.04 47.7096 181.137 47.6766 181.235 47.6828C181.333 47.6889 181.425 47.7339 181.49 47.8076L182.114 48.5176L183.72 46.9456C183.79 46.8769 183.884 46.8388 183.983 46.8399C184.031 46.8404 184.079 46.8506 184.124 46.8696C184.169 46.8887 184.209 46.9163 184.243 46.9511C184.277 46.9858 184.304 47.0269 184.322 47.072C184.34 47.1171 184.349 47.1654 184.349 47.214C184.348 47.2626 184.338 47.3107 184.319 47.3554C184.3 47.4001 184.272 47.4406 184.238 47.4746L182.353 49.3196C182.283 49.3865 182.19 49.4235 182.094 49.4226Z" fill="white"/>
<path d="M183.934 63.2532C183.934 63.5847 183.836 63.9089 183.652 64.1847C183.467 64.4605 183.206 64.6754 182.899 64.8024C182.593 64.9293 182.256 64.9626 181.931 64.8979C181.606 64.8333 181.307 64.6737 181.072 64.4392C180.838 64.2048 180.678 63.906 180.614 63.5808C180.549 63.2556 180.582 62.9186 180.709 62.6123C180.836 62.306 181.051 62.0442 181.327 61.8601C181.603 61.676 181.927 61.5779 182.259 61.5781C182.703 61.5781 183.129 61.7546 183.443 62.0687C183.757 62.3828 183.934 62.8089 183.934 63.2532Z" fill="#9EC8FF"/>
<path d="M162.236 68.3654C162.236 68.6968 162.138 69.0209 161.954 69.2965C161.77 69.5721 161.508 69.787 161.202 69.9138C160.896 70.0407 160.559 70.0738 160.234 70.0092C159.908 69.9445 159.61 69.7849 159.375 69.5505C159.141 69.3161 158.981 69.0175 158.917 68.6924C158.852 68.3673 158.885 68.0302 159.012 67.724C159.139 67.4178 159.354 67.156 159.629 66.9718C159.905 66.7876 160.229 66.6895 160.561 66.6895C160.781 66.6893 160.999 66.7325 161.202 66.8167C161.405 66.9008 161.59 67.0243 161.746 67.1799C161.901 67.3356 162.025 67.5205 162.109 67.7239C162.193 67.9273 162.237 68.1452 162.236 68.3654Z" fill="#9EC8FF"/>
<path d="M139.679 68.4746H170.025C170.69 68.4746 171.328 68.7388 171.798 69.2092C172.268 69.6795 172.533 70.3174 172.533 70.9826V86.1826C172.533 86.5121 172.468 86.8384 172.342 87.1428C172.216 87.4472 172.031 87.7238 171.798 87.9567C171.565 88.1897 171.288 88.3745 170.984 88.5006C170.679 88.6267 170.353 88.6916 170.024 88.6916H139.679C139.014 88.6916 138.377 88.428 137.906 87.9585C137.436 87.4891 137.171 86.8522 137.17 86.1876V70.9836C137.17 70.3182 137.434 69.68 137.905 69.2095C138.375 68.7389 139.013 68.4746 139.679 68.4746V68.4746Z" fill="#9EC8FF"/>
<path d="M140.288 69.3652H169.416C170.037 69.3652 170.632 69.612 171.072 70.0512C171.511 70.4904 171.758 71.0861 171.758 71.7072V85.4652C171.758 86.0866 171.511 86.6826 171.071 87.122C170.632 87.5614 170.036 87.8082 169.415 87.8082H140.288C139.98 87.8082 139.675 87.7476 139.391 87.6299C139.107 87.5121 138.849 87.3395 138.631 87.1219C138.414 86.9043 138.241 86.646 138.124 86.3618C138.006 86.0775 137.945 85.7729 137.946 85.4652V71.7072C137.946 71.0861 138.192 70.4904 138.632 70.0512C139.071 69.612 139.666 69.3652 140.288 69.3652V69.3652Z" fill="white"/>
<path d="M168.19 70.4961H141.514C140.059 70.4961 138.88 71.6754 138.88 73.1301V84.0421C138.88 85.4968 140.059 86.6761 141.514 86.6761H168.19C169.644 86.6761 170.824 85.4968 170.824 84.0421V73.1301C170.824 71.6754 169.644 70.4961 168.19 70.4961Z" fill="#9EC8FF"/>
<path d="M154.852 84.1987C157.952 84.1987 160.466 81.6852 160.466 78.5847C160.466 75.4842 157.952 72.9707 154.852 72.9707C151.751 72.9707 149.238 75.4842 149.238 78.5847C149.238 81.6852 151.751 84.1987 154.852 84.1987Z" fill="white"/>
<path d="M159.686 78.5859C159.686 79.542 159.402 80.4767 158.871 81.2716C158.34 82.0666 157.585 82.6861 156.702 83.052C155.818 83.4179 154.846 83.5137 153.909 83.3271C152.971 83.1406 152.109 82.6802 151.433 82.0042C150.757 81.3281 150.297 80.4668 150.11 79.5291C149.924 78.5913 150.02 77.6194 150.386 76.7361C150.751 75.8528 151.371 75.0978 152.166 74.5667C152.961 74.0355 153.895 73.752 154.852 73.752C155.486 73.752 156.115 73.8771 156.702 74.12C157.288 74.3629 157.821 74.719 158.27 75.1678C158.719 75.6167 159.075 76.1496 159.318 76.7361C159.561 77.3226 159.686 77.9511 159.686 78.5859Z" fill="#9EC8FF"/>
<path d="M157.234 78.3281L155.467 79.3481L153.7 80.3682V76.2871L155.467 77.3071L157.234 78.3281Z" fill="white"/>
<path d="M154.734 21.7351H136.509C136.289 21.7351 136.078 21.6478 135.923 21.4924C135.767 21.3371 135.68 21.1263 135.68 20.9066C135.68 20.6869 135.767 20.4762 135.923 20.3208C136.078 20.1654 136.289 20.0781 136.509 20.0781H154.734C154.953 20.0781 155.164 20.1654 155.32 20.3208C155.475 20.4762 155.562 20.6869 155.562 20.9066C155.562 21.1263 155.475 21.3371 155.32 21.4924C155.164 21.6478 154.953 21.7351 154.734 21.7351Z" fill="#9EC8FF"/>
<path d="M202.367 91.7351H184.139C183.919 91.7351 183.708 91.6478 183.553 91.4924C183.398 91.3371 183.31 91.1263 183.31 90.9066C183.31 90.6869 183.398 90.4762 183.553 90.3208C183.708 90.1654 183.919 90.0781 184.139 90.0781H202.364C202.584 90.0781 202.794 90.1654 202.95 90.3208C203.105 90.4762 203.192 90.6869 203.192 90.9066C203.192 91.1263 203.105 91.3371 202.95 91.4924C202.794 91.6478 202.584 91.7351 202.364 91.7351H202.367Z" fill="#9EC8FF"/>
<path d="M202.367 94.7722H184.139C183.919 94.7722 183.708 94.6849 183.553 94.5295C183.398 94.3742 183.31 94.1635 183.31 93.9437C183.31 93.724 183.398 93.5132 183.553 93.3578C183.708 93.2024 183.919 93.1152 184.139 93.1152H202.364C202.584 93.1152 202.794 93.2024 202.95 93.3578C203.105 93.5132 203.192 93.724 203.192 93.9437C203.192 94.1635 203.105 94.3742 202.95 94.5295C202.794 94.6849 202.584 94.7722 202.364 94.7722H202.367Z" fill="#9EC8FF"/>
<path d="M202.367 98.0867H184.139C183.919 98.0867 183.708 97.9994 183.553 97.844C183.398 97.6886 183.31 97.4779 183.31 97.2582C183.31 97.0384 183.398 96.8277 183.553 96.6724C183.708 96.517 183.919 96.4297 184.139 96.4297H202.364C202.584 96.4297 202.794 96.517 202.95 96.6724C203.105 96.8277 203.192 97.0384 203.192 97.2582C203.192 97.4779 203.105 97.6886 202.95 97.844C202.794 97.9994 202.584 98.0867 202.364 98.0867H202.367Z" fill="#9EC8FF"/>
<path d="M166.47 24.9109H136.51C136.29 24.9109 136.079 24.8236 135.924 24.6682C135.768 24.5128 135.681 24.3021 135.681 24.0824C135.681 23.8627 135.768 23.652 135.924 23.4966C136.079 23.3412 136.29 23.2539 136.51 23.2539H166.47C166.689 23.2539 166.9 23.3412 167.055 23.4966C167.211 23.652 167.298 23.8627 167.298 24.0824C167.298 24.3021 167.211 24.5128 167.055 24.6682C166.9 24.8236 166.689 24.9109 166.47 24.9109Z" fill="#9EC8FF"/>
<path d="M37.1208 70.8203C32.3578 75.1693 34.4288 79.5204 37.9488 87.5944C41.4688 95.6684 42.0908 125.494 42.0908 125.494L39.1908 125.08C39.1908 125.08 39.6048 94.4313 35.6698 86.1483C31.7348 77.8653 30.0788 73.7233 26.5578 76.4153C23.0368 79.1073 37.1208 70.8203 37.1208 70.8203Z" fill="#74B570"/>
<path d="M39.7397 65.1957C39.1617 62.6177 35.7257 59.8296 31.1327 57.4646C31.8157 61.2646 34.0057 67.4806 31.7397 68.7556C28.6827 70.4746 31.4397 61.7976 30.2627 57.0276C25.7311 54.8398 20.9287 53.2644 15.9817 52.3427C15.9887 52.3607 15.9937 52.3777 16.0007 52.3947C18.6927 59.2287 22.2127 61.9207 20.7637 62.9567C19.6727 63.7357 16.1207 55.8417 11.4297 51.7947C7.90872 51.6077 4.92971 52.0846 3.16771 53.4796C0.443708 55.6356 -1.38429 57.5486 1.35571 64.1146C3.11593 65.337 5.16488 66.0785 7.29971 66.2656C13.5127 66.8866 16.4117 67.0937 12.0627 69.1657C9.93271 70.1797 6.36271 69.1086 3.46971 68.4556C4.40871 70.1856 5.56271 72.1436 6.96971 74.3746C7.80483 75.7086 8.78076 76.949 9.88072 78.0746C11.4127 78.4747 13.0221 78.472 14.5527 78.0667C17.4527 76.8247 24.9067 72.8896 26.7707 74.5466C28.5947 76.1686 12.9637 77.1947 14.0467 81.3157C21.6237 85.6807 30.2927 83.6036 31.8257 79.5956C33.8797 74.2196 41.4787 72.9527 39.7397 65.1957Z" fill="#9CD499"/>
<path d="M24.0737 94.6407C32.3577 88.4277 40.8477 94.2267 45.1967 100.854C49.5457 107.481 46.4397 122.391 46.4397 122.391C46.4397 122.391 44.7827 122.391 44.7827 121.77C44.7827 121.149 49.3387 104.17 38.5697 96.5047C31.8327 91.7107 26.9697 94.0197 26.3517 96.2977C25.7337 98.5757 29.0437 102.718 29.0437 102.718L24.0737 94.6407Z" fill="#74B570"/>
<path d="M43.1268 81.8691C34.8428 81.8691 32.1508 94.7092 34.4268 102.164C36.7028 109.619 39.8108 123.494 39.8108 123.494L41.8818 121.423C41.8818 121.423 34.0128 101.957 35.8758 93.2592C37.7388 84.5612 42.2958 83.1122 43.1238 83.1122C43.9518 83.1122 43.1268 81.8691 43.1268 81.8691Z" fill="#9CD499"/>
<path d="M36.1798 102.222C35.6107 101.444 34.8626 100.815 33.9988 100.389C34.109 100.988 34.2525 101.58 34.4288 102.163C35.4668 105.563 36.6768 110.289 37.6858 114.432L38.1378 111.823C38.1888 111.523 38.2298 111.202 38.2578 110.859C37.4062 108.02 36.7125 105.137 36.1798 102.222Z" fill="#74B570"/>
<path d="M33.9148 102.284C18.1758 95.6566 26.4678 86.5635 12.5928 92.5685C11.2688 93.297 10.1213 94.308 9.23178 95.5296C10.6559 95.9628 12.1568 96.0832 13.6318 95.8826C17.7738 95.2606 16.3238 98.5745 9.48978 99.4025C8.40207 99.5132 7.32931 99.7398 6.28978 100.079C3.03378 106.332 1.56677 114.56 8.45677 117.42C10.0255 118.016 11.68 118.356 13.3568 118.426C15.4828 116.736 12.8378 106.958 16.1158 108.308C19.2628 109.608 15.1298 116.69 15.6958 118.476C19.0133 118.377 22.31 117.915 25.5268 117.098C26.1448 116.808 26.6953 116.392 27.1431 115.877C27.5908 115.362 27.9259 114.759 28.1268 114.107C29.1618 109.758 22.3268 107.066 22.1208 103.338C21.9308 99.9106 24.6208 110.877 31.7658 112.491C38.2208 109.475 41.2718 105.382 33.9148 102.284Z" fill="#9CD499"/>
<path d="M45.1287 90.5668C43.4717 87.0468 47.8207 86.2178 47.6137 88.9108C47.4307 91.2958 47.4137 97.0947 49.8567 98.6737C54.8903 98.0509 59.7505 96.4369 64.1567 93.9248C64.2119 93.5548 64.1478 93.1768 63.9737 92.8457C62.1097 89.1177 50.0987 86.0118 53.8267 84.7698C56.7957 83.7798 61.9977 89.6207 66.1897 92.5637C68.7077 90.6537 70.3897 88.3767 70.3897 85.8347C70.3897 82.3937 66.2097 78.4998 60.8037 76.6348C58.3707 76.8798 56.1107 78.2107 52.5807 80.2107C47.3657 83.1657 48.5717 78.3887 53.5027 75.5527C51.202 75.6423 48.9537 76.2656 46.9353 77.3734C44.9169 78.4812 43.1838 80.0431 41.8727 81.9358C41.8727 81.9358 42.1727 83.7928 40.2037 86.6658C34.8417 94.5028 41.0297 99.0778 48.4267 98.7808C48.0107 96.7168 46.2737 92.9998 45.1287 90.5668Z" fill="#9CD499"/>
<path d="M24.5727 94.2885C20.5227 97.4185 16.0237 101.077 10.5017 103.562C4.97973 106.047 6.08373 114.146 6.08373 114.146C6.08373 114.146 5.25573 107.147 9.85773 104.758C14.4597 102.369 17.4977 99.5105 20.9947 98.9575C22.8237 98.6901 24.6368 98.3229 26.4257 97.8575C26.4257 97.8575 25.3257 95.6485 25.9657 94.8195C26.6057 93.9905 24.5727 94.2885 24.5727 94.2885Z" fill="#74B570"/>
<path d="M4.61084 57.5391C19.4298 61.4971 30.2908 70.9771 32.3158 73.2791C34.3408 75.5811 34.3408 76.224 34.3408 76.224L32.7758 79.1691L32.0398 78.801C32.0398 78.801 33.2399 76.315 30.1069 73.094C25.3752 68.1756 19.7935 64.153 13.6308 61.2201C9.12084 59.2881 4.61084 57.5391 4.61084 57.5391Z" fill="#74B570"/>
<path d="M32.5647 119.27H52.8057V129.447C52.8061 130.776 52.5446 132.092 52.0361 133.32C51.5277 134.549 50.7822 135.665 49.8423 136.605C48.9025 137.545 47.7866 138.29 46.5585 138.799C45.3303 139.308 44.014 139.57 42.6847 139.57C41.3555 139.57 40.0393 139.308 38.8112 138.799C37.5832 138.29 36.4675 137.544 35.5277 136.604C34.5879 135.664 33.8426 134.548 33.3342 133.32C32.8258 132.092 32.5643 130.776 32.5647 129.447V119.27Z" fill="#F39892"/>
</svg>
