<svg width="237" height="143" viewBox="0 0 237 143" fill="none" xmlns="http://www.w3.org/2000/svg">
<path d="M86.8867 138.647C26.5247 135.134 -21.8833 71.2726 10.2367 34.2116C35.1477 5.46762 68.3627 47.3056 99.3417 26.2276C147.002 -6.20138 224.217 -12.0974 234.437 28.7826C244.657 69.6626 210.803 133.537 185.573 137.37C160.343 141.203 86.8867 138.647 86.8867 138.647Z" fill="#E7F3FE"/>
<path d="M94.7116 52.0942C95.3506 67.4242 95.1906 75.7282 89.6016 82.1152C84.0126 88.5022 68.3636 86.9052 68.3636 86.9052C68.3636 86.9052 66.8196 109.474 44.9426 110.432C23.0656 111.39 19.9246 82.3322 37.0646 74.8752C53.3806 67.7812 58.5646 65.7202 64.2116 48.1542C69.3666 32.1072 85.4506 35.1662 89.2826 41.8732C93.1146 48.5802 94.7116 52.0942 94.7116 52.0942Z" fill="#303C60"/>
<path d="M87.5256 130.341C87.5256 130.341 97.8516 132.364 98.3846 132.257C98.9176 132.15 110.202 127.147 111.373 127.892C112.544 128.637 119.357 131.511 120.848 132.15C122.339 132.789 119.996 133.002 118.825 133.002C117.654 133.002 110.947 130.234 110.202 130.767C109.457 131.3 116.057 132.367 116.057 132.79C116.057 133.213 98.3846 137.261 97.3196 137.261C96.2546 137.261 88.0576 136.516 88.0576 136.516L87.5256 130.341Z" fill="#E38540"/>
<path d="M78.9558 73.9453C84.5178 75.0363 87.7918 80.9233 88.8558 86.0793C89.9198 91.2353 78.9558 73.9453 78.9558 73.9453Z" fill="#6791C9"/>
<path d="M69.6418 69.9807C69.6418 69.9807 58.9418 77.1667 53.1938 80.6807C47.4458 84.1947 55.2698 122.04 57.1858 136.092C59.1018 150.144 92.3168 137.37 92.3168 137.37C92.3168 137.37 90.0808 125.553 92.9558 106.55C95.0148 92.9378 87.4728 84.4067 83.1618 78.4977C72.2778 63.5847 69.6418 69.9807 69.6418 69.9807Z" fill="#75A1DE"/>
<path d="M59.1007 80.8379C71.4007 95.8479 75.5527 98.6548 72.5147 108.783C70.1147 116.767 69.3207 119.642 68.8417 122.356C68.3627 125.07 91.6767 120.599 91.6767 120.599L91.5167 129.382C91.5167 129.382 73.1527 138.165 64.2097 139.921C55.2667 141.677 49.6787 139.602 49.6787 139.602L59.1007 80.8379Z" fill="#6791C9"/>
<path d="M213.073 140.96H67.5917C67.0878 140.96 66.6045 140.76 66.2482 140.404C65.8918 140.047 65.6917 139.564 65.6917 139.06C65.6917 138.556 65.8918 138.073 66.2482 137.717C66.6045 137.36 67.0878 137.16 67.5917 137.16H213.073C213.577 137.16 214.06 137.36 214.416 137.717C214.772 138.073 214.973 138.556 214.973 139.06C214.973 139.564 214.772 140.047 214.416 140.404C214.06 140.76 213.577 140.96 213.073 140.96Z" fill="#2E5B9A"/>
<path d="M73.5797 54.8613L68.0437 71.2613C68.0437 71.2613 74.1117 87.7093 79.2217 84.0363C80.9667 82.7823 78.5827 72.8583 78.5827 72.8583L82.3087 59.5513L73.5797 54.8613Z" fill="#F09959"/>
<path d="M55.9077 80.2009C48.2637 81.0499 47.6077 91.379 44.0907 108.625C40.5737 125.871 41.6337 137.255 43.2907 139.445C47.2827 144.715 92.1547 126.351 97.7437 126.51C101.601 126.62 98.3828 120.123 98.3828 120.123L55.5827 126.67C55.5827 126.67 61.6507 106.709 61.6507 96.489C61.6507 86.269 58.7817 79.8809 55.9077 80.2009Z" fill="#F09959"/>
<path d="M95.6696 120.439C100.141 119.321 106.688 116.766 107.97 117.884C109.252 119.002 114.517 126.984 116.27 129.222C118.023 131.46 115.47 129.701 113.555 127.944C112.469 126.934 111.293 126.026 110.042 125.229C108.615 126.547 107.064 127.723 105.411 128.742C103.175 130.019 102.377 127.464 98.5436 126.826C94.7106 126.188 85.1296 129.541 85.1296 129.541L95.6696 120.439Z" fill="#F09959"/>
<path d="M56.7597 78.9208C52.0757 79.1338 48.4597 83.0728 47.1787 89.1408C45.8977 95.2088 42.1787 114.478 42.1787 114.478C42.1787 114.478 41.4337 115.01 49.2047 116.394C53.8949 117.224 58.7006 117.152 63.3637 116.181C63.3637 116.181 64.9637 105.216 64.5347 97.6578C64.1057 90.0998 62.4057 82.9668 59.6347 80.5178C56.8637 78.0688 56.7597 78.9208 56.7597 78.9208Z" fill="#75A1DE"/>
<path d="M78.5836 72.8533L82.3096 59.5463L73.5836 54.8613L72.2506 58.8103C71.9606 72.0303 75.3506 76.4523 77.6296 78.0693C78.3426 78.5693 78.9556 78.1843 79.4696 77.3593C79.0896 74.9613 78.5836 72.8533 78.5836 72.8533Z" fill="#E38540"/>
<path d="M96.3088 56.4056C96.3088 63.5276 95.4588 72.2606 89.2828 72.0546C79.7018 71.7356 73.6638 64.2876 73.6638 57.1656C73.6638 50.0436 78.6738 44.2656 84.8528 44.2656C91.0318 44.2656 96.3088 49.2846 96.3088 56.4056Z" fill="#F09959"/>
<path d="M167.812 137.152H131.894L146.668 104.652C146.878 104.187 147.218 103.792 147.647 103.515C148.076 103.238 148.576 103.09 149.087 103.09H181.687C181.86 103.09 182.031 103.133 182.183 103.216C182.336 103.3 182.465 103.42 182.559 103.565C182.652 103.711 182.708 103.878 182.721 104.051C182.734 104.224 182.703 104.398 182.631 104.556L167.812 137.152Z" fill="#9BD6E8"/>
<path d="M167.734 137.151H101.476C101.476 136.042 101.916 134.979 102.7 134.195C103.484 133.411 104.547 132.971 105.656 132.971H167.738L167.734 137.151Z" fill="#9BD6E8"/>
<path d="M181.682 103.09H152.956C152.446 103.09 151.946 103.237 151.517 103.513C151.088 103.789 150.748 104.182 150.537 104.647L135.763 137.147H167.81L182.625 104.554C182.696 104.396 182.727 104.223 182.714 104.05C182.701 103.878 182.645 103.711 182.552 103.565C182.458 103.42 182.329 103.3 182.177 103.217C182.025 103.134 181.855 103.09 181.682 103.09Z" fill="#7BCEE8"/>
<path d="M85.7687 41.7956C92.5557 41.3166 96.5737 47.5176 97.7447 52.9466C98.5897 56.8636 98.1707 57.6306 98.1707 57.6306C98.1707 57.6306 97.4257 58.6946 92.1027 59.0146C90.1213 59.2028 88.1305 59.2739 86.1407 59.2277L85.8217 53.0536L84.2217 59.0156C84.2217 59.0156 83.3698 60.1867 80.0697 58.5897C76.7697 56.9927 75.2787 51.6696 75.2787 51.6696C75.0863 50.6201 75.1504 49.5396 75.4655 48.5201C75.7807 47.5007 76.3376 46.5725 77.0887 45.8146C79.6477 43.4706 85.7687 41.7956 85.7687 41.7956Z" fill="#303C60"/>
<path d="M80.7198 57.8141C80.0688 62.1221 76.6308 65.1741 73.0398 64.6321C69.4488 64.0901 67.0658 60.1571 67.7168 55.8491C68.3678 51.5411 71.8068 48.4891 75.3968 49.0311C78.9868 49.5731 81.3708 53.5061 80.7198 57.8141Z" fill="#D54A41"/>
<path d="M78.1256 57.6999C77.5256 61.6889 74.6996 64.5699 71.8206 64.1349C68.9416 63.6999 67.0946 60.1129 67.6976 56.1249C68.3006 52.1369 71.1236 49.2549 74.0036 49.6899C76.8836 50.1249 78.7286 53.7109 78.1256 57.6999Z" fill="#F39892"/>
<path d="M73.7256 56.8092C73.3946 59.0012 72.2006 60.6372 71.0586 60.4652C69.9166 60.2932 69.2586 58.3762 69.5916 56.1842C69.9246 53.9922 71.1166 52.3552 72.2586 52.5282C73.4006 52.7012 74.0566 54.6172 73.7256 56.8092Z" fill="#F2E5DE"/>
<path d="M73.5527 49.1405C76.6667 37.5635 87.4157 39.2515 90.1337 40.8635C90.771 41.1996 91.3317 41.664 91.7805 42.2275C92.2294 42.7909 92.5567 43.4413 92.7417 44.1375C91.5824 43.3584 90.2773 42.8223 88.905 42.5616C87.5328 42.3009 86.122 42.3209 84.7577 42.6205C79.9847 43.4535 77.1457 46.2665 76.7467 49.3805C76.5427 50.9675 73.5527 49.1405 73.5527 49.1405Z" fill="#D54A41"/>
<path d="M25.7798 86.5147H25.7558C25.7236 86.5117 25.6923 86.5023 25.6638 86.4873C25.6352 86.4722 25.6099 86.4516 25.5893 86.4267C25.5687 86.4018 25.5531 86.3731 25.5436 86.3422C25.5341 86.3113 25.5308 86.2789 25.5338 86.2467C25.9432 83.0474 27.3905 80.0706 29.6538 77.7727C32.7179 74.6789 36.5284 72.4281 40.7168 71.2377C50.8538 68.1027 59.6968 64.1167 65.2538 47.0177C65.274 46.9556 65.3179 46.9041 65.3761 46.8745C65.4342 46.8449 65.5017 46.8395 65.5638 46.8597C65.6259 46.8798 65.6774 46.9238 65.707 46.982C65.7366 47.0401 65.742 47.1076 65.7218 47.1697C63.1678 55.0277 59.6918 60.7487 55.0948 64.6607C51.0398 68.1107 46.4728 69.9727 40.8628 71.7077C36.7563 72.8726 33.0196 75.077 30.0138 78.1077C27.8251 80.3262 26.4238 83.2009 26.0248 86.2917C26.0191 86.3527 25.9908 86.4094 25.9455 86.4506C25.9002 86.4919 25.8411 86.5147 25.7798 86.5147Z" fill="#303C60"/>
<path d="M30.3576 74.6969C30.3062 74.6971 30.2559 74.6812 30.214 74.6514C30.1721 74.6215 30.1405 74.5793 30.1239 74.5306C30.1072 74.4819 30.1062 74.4292 30.1211 74.38C30.1359 74.3307 30.1658 74.2873 30.2066 74.2559C33.4037 71.9897 37.0195 70.3819 40.8436 69.5259C52.8666 66.8769 60.9436 59.6469 64.1876 48.6179C64.2061 48.5553 64.2486 48.5026 64.3059 48.4714C64.3632 48.4402 64.4305 48.433 64.4931 48.4514C64.5557 48.4699 64.6084 48.5124 64.6397 48.5697C64.6709 48.627 64.6781 48.6943 64.6596 48.7569C62.8943 55.2277 58.9262 60.8797 53.4396 64.7379C49.6623 67.2965 45.4183 69.0865 40.9496 70.0059C37.1966 70.8454 33.6476 72.4219 30.5086 74.6439C30.4656 74.6779 30.4125 74.6966 30.3576 74.6969Z" fill="#303C60"/>
<path d="M184.513 71.162H152.083C152.016 71.1663 151.95 71.1526 151.891 71.1225C151.831 71.0923 151.781 71.0467 151.745 70.9905C151.709 70.9343 151.689 70.8696 151.687 70.803C151.685 70.7364 151.701 70.6705 151.733 70.6121L158.311 52.5391C158.371 52.3857 158.474 52.2527 158.607 52.1553C158.74 52.0579 158.897 52.0003 159.062 51.989H191.492C191.558 51.9848 191.625 51.9985 191.684 52.0287C191.743 52.0588 191.794 52.1044 191.829 52.1606C191.865 52.2168 191.885 52.2815 191.887 52.3481C191.89 52.4147 191.874 52.4806 191.842 52.5391L185.267 70.611C185.206 70.765 185.103 70.8986 184.97 70.9962C184.836 71.0937 184.678 71.1513 184.513 71.162Z" fill="#9EC8FF"/>
<path d="M184.121 70.3177H153.089C153.027 70.3215 152.965 70.3087 152.909 70.2804C152.854 70.2522 152.807 70.2096 152.774 70.1572C152.74 70.1047 152.722 70.0442 152.719 69.982C152.717 69.9199 152.732 69.8583 152.762 69.8037L158.752 53.3467C158.808 53.2036 158.903 53.0794 159.027 52.9884C159.151 52.8974 159.298 52.8434 159.452 52.8327H190.484C190.546 52.8289 190.608 52.8417 190.663 52.8699C190.719 52.8982 190.765 52.9407 190.799 52.9932C190.832 53.0457 190.851 53.1062 190.853 53.1683C190.855 53.2305 190.841 53.2921 190.811 53.3467L184.821 69.8037C184.765 69.9468 184.669 70.071 184.545 70.162C184.421 70.253 184.274 70.3069 184.121 70.3177Z" fill="white"/>
<path d="M183.561 69.2471H154.429C154.359 69.2516 154.289 69.2372 154.227 69.2055C154.164 69.1738 154.111 69.1259 154.074 69.0669C154.036 69.0078 154.015 68.9398 154.013 68.8698C154.011 68.7998 154.027 68.7305 154.061 68.6691L159.224 54.4831C159.287 54.3221 159.395 54.1823 159.534 54.0799C159.674 53.9776 159.839 53.917 160.012 53.9051H189.145C189.215 53.9006 189.284 53.915 189.347 53.9467C189.409 53.9784 189.462 54.0262 189.5 54.0853C189.537 54.1444 189.558 54.2124 189.561 54.2824C189.563 54.3524 189.546 54.4217 189.513 54.4831L184.351 68.6691C184.287 68.8304 184.18 68.9704 184.04 69.0728C183.9 69.1751 183.734 69.2356 183.561 69.2471Z" fill="#9EC8FF"/>
<path d="M174.636 64.9859C177.342 62.7277 178.261 59.3696 176.688 57.4855C175.116 55.6014 171.647 55.9048 168.942 58.163C166.236 60.4213 165.318 63.7793 166.89 65.6634C168.463 67.5475 171.931 67.2442 174.636 64.9859Z" fill="white"/>
<path d="M176.37 61.5752C175.868 62.8524 175.014 63.961 173.908 64.7723C172.801 65.5835 171.487 66.0641 170.118 66.1582C167.587 66.1582 166.281 64.1062 167.203 61.5752C167.704 60.2981 168.558 59.1895 169.665 58.3782C170.772 57.567 172.086 57.0864 173.455 56.9922C175.986 56.9922 177.292 59.0442 176.37 61.5752Z" fill="#9EC8FF"/>
<path d="M174.138 61.3305L172.111 62.2975L170.083 63.2645L170.783 61.3295L171.483 59.3945L172.806 60.3615L174.138 61.3305Z" fill="white"/>
<path d="M135.422 50.831H132.867C132.626 50.8397 132.387 50.7896 132.17 50.685C131.953 50.5805 131.765 50.4247 131.622 50.231C131.48 50.0104 131.394 49.7585 131.371 49.4972C131.348 49.2359 131.389 48.9729 131.491 48.731L132.421 46.176C132.613 45.6808 132.943 45.2513 133.373 44.939C133.803 44.6267 134.313 44.4448 134.844 44.415H137.399C137.639 44.4064 137.878 44.4565 138.095 44.561C138.312 44.6656 138.5 44.8214 138.644 45.015C138.785 45.2357 138.871 45.4876 138.894 45.7489C138.917 46.0102 138.876 46.2731 138.775 46.515L137.845 49.07C137.653 49.5653 137.322 49.9948 136.892 50.3071C136.463 50.6193 135.952 50.8013 135.422 50.831ZM134.843 45.402C134.515 45.4326 134.201 45.5525 133.937 45.7487C133.672 45.945 133.467 46.21 133.343 46.515L132.413 49.07C132.368 49.164 132.345 49.2674 132.347 49.3716C132.35 49.4758 132.377 49.5781 132.426 49.67C132.479 49.7326 132.547 49.7816 132.623 49.8129C132.7 49.8442 132.782 49.8569 132.865 49.85H135.42C135.748 49.8222 136.063 49.7034 136.328 49.5068C136.593 49.3102 136.798 49.0436 136.92 48.737L137.85 46.182C137.895 46.0881 137.917 45.9849 137.915 45.8806C137.913 45.7763 137.887 45.6741 137.838 45.582C137.784 45.5194 137.716 45.4705 137.64 45.4392C137.563 45.4079 137.481 45.3951 137.399 45.402H134.843Z" fill="#9CD499"/>
<path d="M131.47 61.6904H128.915C128.674 61.699 128.435 61.6488 128.218 61.5443C128.001 61.4398 127.813 61.284 127.67 61.0904C127.528 60.8697 127.442 60.6179 127.419 60.3566C127.396 60.0953 127.437 59.8323 127.539 59.5904L128.469 57.0354C128.661 56.5401 128.991 56.1107 129.421 55.7984C129.851 55.4861 130.361 55.3042 130.892 55.2744H133.447C133.687 55.2657 133.927 55.3157 134.144 55.4203C134.361 55.5248 134.549 55.6807 134.693 55.8744C134.834 56.0951 134.921 56.3469 134.943 56.6082C134.966 56.8696 134.925 57.1325 134.824 57.3744L133.894 59.9294C133.701 60.4248 133.371 60.8544 132.941 61.1667C132.511 61.479 132 61.6608 131.47 61.6904ZM130.891 56.2614C130.563 56.292 130.249 56.4119 129.985 56.6081C129.72 56.8044 129.515 57.0694 129.391 57.3744L128.461 59.9294C128.415 60.0234 128.393 60.1267 128.395 60.231C128.398 60.3352 128.424 60.4375 128.474 60.5294C128.527 60.5919 128.595 60.6406 128.672 60.6717C128.748 60.7028 128.83 60.7154 128.913 60.7084H131.468C131.796 60.6807 132.111 60.5619 132.376 60.3653C132.641 60.1687 132.846 59.9021 132.968 59.5954L133.898 57.0404C133.943 56.9464 133.965 56.8431 133.963 56.7389C133.96 56.6346 133.934 56.5324 133.885 56.4404C133.831 56.3778 133.763 56.3288 133.687 56.2975C133.61 56.2663 133.528 56.2535 133.446 56.2604L130.891 56.2614Z" fill="#9CD499"/>
<path d="M127.517 72.5478H124.965C124.724 72.5564 124.485 72.5062 124.268 72.4017C124.051 72.2972 123.863 72.1414 123.72 71.9478C123.578 71.7271 123.492 71.4753 123.469 71.214C123.446 70.9527 123.487 70.6897 123.589 70.4478L124.519 67.8928C124.711 67.3976 125.041 66.9681 125.471 66.6558C125.901 66.3435 126.411 66.1616 126.942 66.1318H129.497C129.737 66.1232 129.976 66.1734 130.193 66.2779C130.41 66.3825 130.598 66.5382 130.742 66.7318C130.883 66.9525 130.969 67.2043 130.992 67.4656C131.015 67.7269 130.974 67.9899 130.873 68.2318L129.943 70.7868C129.75 71.2825 129.419 71.7123 128.989 72.0246C128.559 72.337 128.048 72.5186 127.517 72.5478ZM126.938 67.1188C126.609 67.1465 126.294 67.2653 126.029 67.4619C125.764 67.6585 125.559 67.9251 125.438 68.2318L124.508 70.7868C124.462 70.8808 124.44 70.9841 124.442 71.0884C124.445 71.1926 124.471 71.2949 124.521 71.3868C124.574 71.4495 124.642 71.4985 124.718 71.5298C124.795 71.5611 124.877 71.5738 124.96 71.5668H127.515C127.843 71.5392 128.158 71.4203 128.423 71.2237C128.688 71.0271 128.893 70.7605 129.015 70.4538L129.945 67.8988C129.99 67.8048 130.012 67.7015 130.01 67.5973C130.008 67.493 129.981 67.3908 129.932 67.2988C129.878 67.2361 129.81 67.1871 129.734 67.1558C129.658 67.1245 129.575 67.1118 129.493 67.1188H126.938Z" fill="#9EC8FF"/>
<path d="M156.442 48.7415H142.39C142.332 48.744 142.275 48.7312 142.225 48.7045C142.174 48.6777 142.131 48.638 142.1 48.5893C142.07 48.5406 142.053 48.4847 142.051 48.4273C142.049 48.3699 142.063 48.3131 142.09 48.2625C142.142 48.1293 142.232 48.0137 142.347 47.929C142.463 47.8442 142.6 47.7938 142.743 47.7835H156.795C156.852 47.781 156.909 47.7938 156.96 47.8206C157.011 47.8473 157.054 47.887 157.084 47.9357C157.115 47.9844 157.132 48.0403 157.134 48.0977C157.135 48.1551 157.122 48.212 157.095 48.2625C157.042 48.3958 156.953 48.5115 156.837 48.5962C156.722 48.681 156.585 48.7313 156.442 48.7415Z" fill="#9EC8FF"/>
<path d="M155.744 50.6575H141.692C141.634 50.66 141.577 50.6472 141.526 50.6205C141.475 50.5937 141.433 50.554 141.402 50.5053C141.372 50.4567 141.355 50.4008 141.353 50.3433C141.351 50.2859 141.364 50.2291 141.392 50.1785C141.444 50.0453 141.534 49.9297 141.649 49.8449C141.765 49.7602 141.902 49.7098 142.045 49.6995H156.097C156.154 49.6971 156.211 49.7098 156.262 49.7366C156.313 49.7633 156.355 49.803 156.386 49.8517C156.416 49.9004 156.433 49.9563 156.435 50.0137C156.437 50.0711 156.424 50.128 156.397 50.1785C156.344 50.3117 156.255 50.4274 156.139 50.5121C156.024 50.5968 155.886 50.6472 155.744 50.6575Z" fill="#9EC8FF"/>
<path d="M152.781 58.8021H138.728C138.67 58.8045 138.613 58.7917 138.562 58.765C138.512 58.7382 138.469 58.6985 138.438 58.6498C138.408 58.6012 138.391 58.5453 138.389 58.4879C138.387 58.4305 138.4 58.3736 138.428 58.3231C138.48 58.1898 138.569 58.0741 138.685 57.9893C138.801 57.9046 138.938 57.8542 139.081 57.8441H153.134C153.191 57.8416 153.248 57.8544 153.299 57.8811C153.35 57.9078 153.393 57.9476 153.423 57.9962C153.454 58.0449 153.471 58.1008 153.472 58.1582C153.474 58.2156 153.461 58.2725 153.434 58.3231C153.381 58.4563 153.292 58.5719 153.176 58.6566C153.061 58.7413 152.924 58.7918 152.781 58.8021Z" fill="#9EC8FF"/>
<path d="M152.083 60.718H138.031C137.973 60.7205 137.916 60.7077 137.865 60.681C137.815 60.6543 137.772 60.6145 137.741 60.5659C137.711 60.5172 137.694 60.4613 137.692 60.4039C137.69 60.3465 137.703 60.2896 137.731 60.2391C137.783 60.1058 137.872 59.9901 137.988 59.9053C138.104 59.8206 138.241 59.7702 138.384 59.7601H152.437C152.494 59.7576 152.551 59.7704 152.602 59.7971C152.653 59.8238 152.696 59.8636 152.726 59.9123C152.757 59.9609 152.774 60.0168 152.775 60.0742C152.777 60.1316 152.764 60.1885 152.737 60.2391C152.684 60.3725 152.595 60.4883 152.479 60.573C152.363 60.6578 152.226 60.7081 152.083 60.718Z" fill="#9EC8FF"/>
<path d="M148.712 69.9798H134.659C134.601 69.9823 134.544 69.9695 134.493 69.9427C134.442 69.916 134.4 69.8763 134.369 69.8276C134.339 69.7789 134.322 69.723 134.32 69.6656C134.318 69.6082 134.331 69.5513 134.359 69.5008C134.411 69.3676 134.5 69.2519 134.616 69.1672C134.732 69.0825 134.869 69.0321 135.012 69.0218H149.064C149.121 69.0193 149.178 69.0321 149.229 69.0588C149.28 69.0856 149.322 69.1253 149.353 69.174C149.383 69.2227 149.4 69.2786 149.402 69.336C149.404 69.3934 149.391 69.4502 149.364 69.5008C149.311 69.6339 149.222 69.7494 149.106 69.8341C148.991 69.9188 148.854 69.9693 148.712 69.9798Z" fill="#9EC8FF"/>
<path d="M148.014 71.8958H133.962C133.904 71.8983 133.847 71.8855 133.796 71.8588C133.746 71.832 133.703 71.7923 133.672 71.7436C133.642 71.6949 133.625 71.639 133.623 71.5816C133.621 71.5242 133.634 71.4674 133.662 71.4168C133.714 71.2836 133.804 71.168 133.919 71.0832C134.035 70.9985 134.172 70.9481 134.315 70.9378H148.363C148.42 70.9353 148.477 70.9481 148.528 70.9748C148.579 71.0016 148.622 71.0413 148.652 71.09C148.683 71.1387 148.7 71.1946 148.702 71.252C148.703 71.3094 148.69 71.3663 148.663 71.4168C148.61 71.5494 148.522 71.6647 148.407 71.7494C148.292 71.8341 148.156 71.8848 148.014 71.8958Z" fill="#9EC8FF"/>
<path d="M134.827 49.3953C134.728 49.3953 134.632 49.3659 134.551 49.3108C134.469 49.2558 134.406 49.1775 134.37 49.0863L133.406 46.6863C133.381 46.6263 133.369 46.5622 133.37 46.4976C133.371 46.4329 133.384 46.3691 133.409 46.3096C133.434 46.2501 133.471 46.1962 133.517 46.1509C133.563 46.1057 133.618 46.0699 133.678 46.0458C133.738 46.0216 133.802 46.0095 133.867 46.0101C133.931 46.0107 133.995 46.0241 134.055 46.0494C134.114 46.0747 134.168 46.1114 134.213 46.1576C134.259 46.2037 134.294 46.2583 134.319 46.3183L135.041 48.1113L140.741 43.7173C140.844 43.6377 140.975 43.6025 141.104 43.6194C141.234 43.6362 141.351 43.7038 141.431 43.8073C141.51 43.9107 141.545 44.0415 141.528 44.1709C141.512 44.3003 141.444 44.4177 141.341 44.4973L135.126 49.2883C135.04 49.356 134.935 49.3936 134.827 49.3953Z" fill="#F37168"/>
<path d="M130.874 60.2566C130.775 60.2568 130.679 60.2274 130.598 60.1723C130.516 60.1173 130.453 60.0389 130.417 59.9476L129.452 57.5476C129.428 57.4876 129.415 57.4235 129.416 57.3589C129.417 57.2943 129.43 57.2304 129.455 57.1709C129.481 57.1114 129.517 57.0575 129.564 57.0123C129.61 56.967 129.664 56.9313 129.724 56.9071C129.784 56.8829 129.848 56.8708 129.913 56.8714C129.978 56.872 130.041 56.8854 130.101 56.9107C130.16 56.936 130.214 56.9728 130.26 57.0189C130.305 57.065 130.341 57.1196 130.365 57.1796L131.087 58.9726L136.787 54.5786C136.89 54.499 137.021 54.4638 137.15 54.4807C137.28 54.4976 137.397 54.5652 137.477 54.6686C137.556 54.772 137.591 54.9028 137.575 55.0322C137.558 55.1616 137.49 55.279 137.387 55.3586L131.172 60.1496C131.087 60.217 130.982 60.2546 130.874 60.2566Z" fill="#F37168"/>
<path d="M223.791 36.1269H169.817L171.217 32.2949H225.191L223.791 36.1269Z" fill="#9EC8FF"/>
<path d="M221.698 41.875H167.724L169.119 38.043H223.093L221.698 41.875Z" fill="#9EC8FF"/>
<path d="M161.869 87.8324H122.237C122.123 87.8391 122.009 87.8154 121.908 87.7636C121.807 87.7119 121.721 87.6339 121.66 87.5378C121.598 87.4417 121.564 87.331 121.56 87.2172C121.556 87.1034 121.582 86.9905 121.637 86.8904C121.741 86.6286 121.916 86.4015 122.143 86.2349C122.37 86.0683 122.64 85.969 122.921 85.9484H162.556C162.669 85.9416 162.783 85.9653 162.884 86.0171C162.986 86.0689 163.071 86.1469 163.133 86.243C163.194 86.339 163.228 86.4497 163.232 86.5635C163.236 86.6773 163.21 86.7902 163.156 86.8904C163.051 87.1525 162.875 87.38 162.648 87.5466C162.42 87.7132 162.15 87.8123 161.869 87.8324Z" fill="#9EC8FF"/>
<path d="M160.349 92.016H120.714C120.6 92.0231 120.486 91.9996 120.385 91.9479C120.283 91.8962 120.197 91.8182 120.136 91.722C120.074 91.6258 120.04 91.515 120.036 91.401C120.032 91.2871 120.059 91.1741 120.114 91.074C120.218 90.8123 120.393 90.5851 120.62 90.4186C120.847 90.252 121.117 90.1526 121.398 90.132H161.033C161.146 90.1252 161.26 90.149 161.361 90.2008C161.463 90.2526 161.548 90.3305 161.61 90.4266C161.671 90.5227 161.705 90.6333 161.709 90.7472C161.713 90.861 161.687 90.9738 161.633 91.074C161.529 91.3357 161.353 91.5629 161.126 91.7295C160.899 91.8961 160.63 91.9954 160.349 92.016Z" fill="#9EC8FF"/>
<path d="M197.453 127.402C197.453 126.737 205.463 104.602 200.047 90.3495C196.255 80.3705 195.657 68.3965 195.657 68.3965C195.657 68.3965 188.273 78.9735 193.257 95.1385C196.328 105.088 197.581 107.844 197.847 110.771C198.113 113.698 196.647 128.333 196.647 128.333L197.453 127.402Z" fill="#9CD499"/>
<path d="M196.655 128.579C196.62 128.579 196.586 128.572 196.555 128.558C196.523 128.544 196.495 128.524 196.472 128.498C196.449 128.473 196.431 128.443 196.421 128.41C196.41 128.377 196.406 128.343 196.41 128.308C196.425 128.162 197.868 113.663 197.61 110.792C197.436 108.882 196.847 107.077 195.554 103.122C194.892 101.096 194.068 98.5754 193.03 95.2104C190.975 88.8799 190.741 82.0997 192.353 75.6424C192.979 73.0279 194.026 70.5327 195.453 68.2544C195.482 68.2121 195.524 68.18 195.572 68.1627C195.621 68.1454 195.674 68.1438 195.723 68.158C195.773 68.1723 195.816 68.2017 195.848 68.2421C195.88 68.2825 195.898 68.332 195.901 68.3834C195.907 68.5024 196.542 80.4354 200.276 90.2614C202.301 95.5904 202.708 102.618 201.484 111.149C200.707 116.268 199.55 121.322 198.022 126.268C197.852 126.834 197.706 127.324 197.696 127.414C197.696 127.47 197.675 127.523 197.637 127.563L196.837 128.495C196.814 128.521 196.786 128.542 196.755 128.557C196.723 128.571 196.689 128.579 196.655 128.579ZM195.462 69.1794C194.293 71.2571 193.405 73.4804 192.821 75.7914C191.239 82.1532 191.473 88.8312 193.498 95.0664C194.535 98.4274 195.358 100.947 196.02 102.966C197.32 106.958 197.92 108.779 198.098 110.745C198.331 113.306 197.278 124.481 196.977 127.576L197.22 127.292C197.249 127.146 197.335 126.854 197.553 126.122C202.179 110.658 202.941 98.6504 199.817 90.4324C196.605 81.9794 195.67 71.9934 195.462 69.1794Z" fill="#74B570"/>
<path d="M199.183 129.665C197.983 105.051 203.84 91.6143 215.814 80.9653C227.788 70.3163 228.32 67.5273 228.32 67.5273C228.32 67.5273 226.457 88.2823 219.539 95.4673C212.621 102.652 202.509 107.974 201.045 111.699C199.581 115.424 200.114 127.931 200.114 127.931L199.183 130.193V129.665Z" fill="#9CD499"/>
<path d="M197.72 131.793C197.587 131.393 200.248 108.776 209.96 107.446C219.672 106.116 221.934 108.377 228.586 107.313C231.451 106.854 234.26 106.095 236.968 105.051C236.968 105.051 234.448 111.464 225.792 114.098C219.672 115.961 211.692 112.898 207.032 113.698C202.372 114.498 199.98 124.475 199.98 124.475L199.18 129.664L197.72 131.793Z" fill="#9CD499"/>
<path d="M199.05 128.449C198.988 128.449 198.929 128.426 198.884 128.385C198.839 128.343 198.81 128.286 198.805 128.225C198.79 128.066 197.412 112.176 204.157 100.01C207.641 93.726 211.445 90.084 215.124 86.562C218.551 83.281 221.788 80.182 224.242 75.273C224.272 75.2158 224.323 75.1725 224.384 75.1526C224.446 75.1327 224.512 75.1377 224.57 75.1666C224.628 75.1955 224.672 75.2459 224.693 75.307C224.714 75.3681 224.71 75.4349 224.682 75.4931C222.189 80.4791 218.922 83.6061 215.464 86.9181C211.811 90.4181 208.035 94.0301 204.587 100.25C197.918 112.281 199.28 128.023 199.295 128.181C199.298 128.213 199.295 128.246 199.285 128.277C199.276 128.307 199.26 128.336 199.239 128.361C199.219 128.386 199.193 128.407 199.165 128.422C199.136 128.437 199.105 128.446 199.073 128.449H199.05Z" fill="#74B570"/>
<path d="M198.385 125.256C198.361 125.256 198.338 125.252 198.316 125.246C198.254 125.227 198.202 125.186 198.171 125.13C198.139 125.074 198.131 125.008 198.148 124.946C200.695 116.168 203.617 111.046 207.348 108.828C210.682 106.845 214.126 107.453 217.774 108.098C218.667 108.256 219.59 108.419 220.504 108.539C228.43 109.578 232.296 107.652 232.334 107.633C232.392 107.603 232.46 107.597 232.522 107.617C232.584 107.637 232.636 107.681 232.666 107.739C232.696 107.797 232.701 107.864 232.682 107.927C232.662 107.989 232.618 108.041 232.56 108.071C232.4 108.154 228.54 110.09 220.441 109.028C219.516 108.907 218.588 108.743 217.69 108.584C214.136 107.956 210.778 107.363 207.601 109.252C203.986 111.402 201.134 116.433 198.624 125.084C198.608 125.134 198.576 125.178 198.533 125.209C198.49 125.24 198.438 125.257 198.385 125.256Z" fill="#74B570"/>
<path d="M211.088 91.1267C211.036 91.1267 210.986 91.1106 210.944 91.0807C210.903 91.0508 210.871 91.0085 210.855 90.9599C210.838 90.9112 210.837 90.8587 210.852 90.8095C210.867 90.7603 210.897 90.717 210.938 90.6856C214.336 88.2781 218.201 86.6089 222.284 85.7857C222.316 85.7796 222.348 85.7798 222.38 85.7863C222.412 85.7928 222.442 85.8055 222.469 85.8236C222.495 85.8418 222.518 85.8651 222.536 85.8921C222.554 85.9192 222.566 85.9494 222.572 85.9812C222.578 86.013 222.578 86.0456 222.572 86.0773C222.565 86.109 222.552 86.1391 222.534 86.1659C222.516 86.1927 222.493 86.2156 222.466 86.2334C222.439 86.2512 222.409 86.2636 222.377 86.2697C218.369 87.0774 214.574 88.7159 211.238 91.0797C211.194 91.1114 211.142 91.1279 211.088 91.1267Z" fill="#74B570"/>
<path d="M203.573 101.838C203.529 101.838 203.487 101.827 203.449 101.805C203.412 101.783 203.381 101.752 203.359 101.714C203.338 101.676 203.327 101.633 203.327 101.59C203.328 101.546 203.34 101.504 203.362 101.466C206.827 95.6244 210.884 94.1514 219.732 91.3784C219.763 91.3688 219.795 91.3653 219.827 91.3682C219.86 91.3711 219.891 91.3803 219.92 91.3953C219.948 91.4103 219.974 91.4308 219.994 91.4556C220.015 91.4804 220.031 91.5091 220.04 91.5399C220.05 91.5708 220.053 91.6032 220.051 91.6354C220.048 91.6677 220.038 91.699 220.023 91.7276C220.008 91.7563 219.988 91.7817 219.963 91.8024C219.938 91.8232 219.91 91.8388 219.879 91.8485C211.157 94.5825 207.158 96.0314 203.786 101.717C203.764 101.754 203.733 101.785 203.695 101.806C203.658 101.828 203.616 101.839 203.573 101.838Z" fill="#74B570"/>
<path d="M201.422 137.848H195.48C194.463 137.848 193.477 137.494 192.694 136.846C191.91 136.198 191.377 135.296 191.186 134.297L189.27 124.277H207.63L205.714 134.297C205.523 135.296 204.99 136.197 204.207 136.845C203.423 137.493 202.438 137.848 201.422 137.848Z" fill="#F39892"/>
<path d="M207.168 126.833H189.868C189.737 126.833 189.612 126.781 189.52 126.688C189.427 126.596 189.375 126.471 189.375 126.34C189.375 126.21 189.427 126.084 189.52 125.992C189.612 125.9 189.737 125.848 189.868 125.848H207.168C207.298 125.848 207.424 125.9 207.516 125.992C207.608 126.084 207.66 126.21 207.66 126.34C207.66 126.471 207.608 126.596 207.516 126.688C207.424 126.781 207.298 126.833 207.168 126.833Z" fill="#D54A41"/>
</svg>
