<svg width="245" height="133" viewBox="0 0 245 133" fill="none" xmlns="http://www.w3.org/2000/svg">
<path d="M52.973 129.818C52.973 129.818 0.107977 96.6117 36.2367 61.014C72.3654 25.4163 120.714 -10.9773 153.124 3.10193C185.534 17.1812 182.619 34.9806 218.215 60.7481C253.812 86.5156 245.578 106.972 239.202 117.332C232.826 127.692 231.764 130.349 231.764 130.349L52.973 129.818Z" fill="#E7F3FE"/>
<path d="M238.827 132.218H53.2603C53.0336 132.223 52.8079 132.183 52.5968 132.1C52.3856 132.017 52.1933 131.893 52.031 131.734C51.8686 131.576 51.7396 131.387 51.6515 131.178C51.5634 130.969 51.5181 130.744 51.5181 130.517C51.5181 130.29 51.5634 130.066 51.6515 129.857C51.7396 129.648 51.8686 129.458 52.031 129.3C52.1933 129.142 52.3856 129.017 52.5968 128.934C52.8079 128.851 53.0336 128.811 53.2603 128.817H238.827C239.271 128.828 239.693 129.012 240.003 129.329C240.313 129.647 240.486 130.073 240.486 130.517C240.486 130.961 240.313 131.387 240.003 131.705C239.693 132.023 239.271 132.207 238.827 132.218Z" fill="#2E5B9A"/>
<mask id="mask0" style="mask-type:alpha" maskUnits="userSpaceOnUse" x="0" y="0" width="243" height="133">
<rect y="0.484375" width="242.833" height="131.996" fill="#C4C4C4"/>
</mask>
<g mask="url(#mask0)">
<path d="M53.7747 147.845C53.4098 136.539 52.3483 125.266 50.5958 114.09C48.3166 100.911 46.2631 93.3289 46.2409 93.2483C45.9386 92.0885 41.6059 87.404 31.9601 87.5441C22.3143 87.6841 23.2312 93.8397 23.2312 93.8397C23.2287 94.024 23.2517 94.2078 23.2997 94.3858C23.3924 94.7032 32.2452 126.799 31.8643 168.243C31.8593 168.825 31.7939 169.831 31.8352 170.5C31.8352 170.5 54.1828 171.078 54.1879 170.5C54.9657 166.878 54.5848 156.842 53.7747 147.845Z" fill="#B7D3F3"/>
<path d="M56.5848 168.039C56.5788 168.616 56.2735 169.079 55.9017 169.079H55.8926C55.5208 169.07 55.2245 168.607 55.2205 168.039H36.069C36.0619 168.616 35.7575 169.079 35.3857 169.079H35.3768C34.9989 169.07 34.6976 168.592 34.7026 168.009C34.7914 157.082 34.2609 146.159 33.1136 135.292C30.5674 110.908 25.8589 94.6148 25.7944 94.3891C25.7469 94.2107 25.7238 94.0267 25.7259 93.842C25.7259 93.842 24.811 87.6956 34.4538 87.5464C44.0966 87.3973 48.4362 92.0919 48.7365 93.2516C48.7547 93.3121 49.9165 97.6064 51.4571 105.326C51.969 107.883 52.5212 110.815 53.0885 114.092C54.8397 125.267 55.9009 136.54 56.2664 147.847C57.0785 156.842 57.3637 164.418 56.5848 168.039Z" fill="#D2E3FC"/>
<path d="M105.779 103.529L130.738 98.123L132.208 101.706C132.208 101.706 104.669 118.093 102.089 117.291C99.5081 116.489 105.779 103.529 105.779 103.529Z" fill="#FFB27D"/>
<path d="M130.738 98.1226C130.738 98.1226 132.575 93.6207 134.596 93.4373C136.617 93.2539 143.048 92.2423 143.507 93.1623C143.706 94.1109 143.685 95.0924 143.447 96.0318C143.208 96.9712 142.758 97.8434 142.13 98.5821C140.753 99.7761 132.208 101.706 132.208 101.706L130.738 98.1226Z" fill="#FFB27D"/>
<path d="M52.607 143.983C52.607 143.983 100.368 127.835 111.014 131.271C121.66 134.707 153.644 198.331 153.644 198.331C152.91 199.123 151.982 199.708 150.952 200.03C149.12 200.717 144.684 200.673 144.684 200.673C144.684 200.673 115.823 175.935 112.388 168.72C108.953 161.506 107.578 154.634 104.142 155.319C100.706 156.005 59.8195 172.158 50.5495 162.536C41.2795 152.913 43.6979 140.417 43.6979 140.417L52.607 143.983Z" fill="#1C468A"/>
<path d="M79.8321 30.116C77.8961 29.1375 75.7244 28.7221 73.5639 28.917C73.9444 28.5995 74.3993 28.3835 74.8859 28.2892C73.8128 28.13 71.4177 29.1962 71.4177 29.1962C56.492 23.4448 54.1463 45.4186 54.4607 50.5272C54.7751 55.6357 54.8094 61.5102 47.3591 66.0887C32.6995 75.0987 45.0688 90.8275 45.0688 90.8275C45.1846 90.895 51.8893 102.268 51.8893 102.268C51.5124 98.1417 70.5491 76.3723 80.4811 69.8481C82.8993 66.2892 83.7579 60.0006 83.8223 59.5058C83.4052 64.4915 82.5527 67.2887 81.7899 68.8626C90.2004 61.1212 85.3045 33.2255 79.8321 30.116Z" fill="#B5453C"/>
<path d="M79.894 70.1708C79.9433 70.193 75.0987 72.709 71.4542 71.7125C68.0283 70.7774 65.7864 66.3327 65.8337 66.3227C67.2857 66.0345 67.7039 64.0395 67.6737 55.4668L68.3296 55.5957L79.365 57.7814C79.365 57.7814 79.114 61.2545 79.1059 64.5261C79.0989 67.2719 79.2652 69.8776 79.894 70.1708Z" fill="#F09959"/>
<path d="M79.3649 57.7802C79.3649 57.7802 79.1141 61.2532 79.107 64.5249C72.9314 64.3506 69.6678 58.7183 68.3257 55.5957L79.3649 57.7802Z" fill="#ED975D"/>
<path d="M67.1902 54.393C67.1902 54.393 63.9537 49.2804 63.1769 44.9073C62.6227 41.7838 64.2127 30.2154 75.8395 31.882C78.1804 32.2072 80.4185 33.0536 82.3889 34.3587C84.9129 36.0636 88.5565 39.7443 84.4827 49.8416L83.4247 53.2523L67.1902 54.393Z" fill="#B5453C"/>
<path d="M81.4278 60.8797C81.4278 60.8797 66.8175 61.1205 66.8074 52.0198C66.7973 42.9192 64.905 36.8202 74.2334 36.2822C83.5619 35.7441 85.3776 39.2141 86.1232 42.251C86.8689 45.288 85.2274 60.5825 81.4278 60.8797Z" fill="#F09959"/>
<path d="M80.8865 36.0584C80.8865 36.0584 76.8863 46.7391 70.747 48.315C64.6076 49.8909 61.9446 48.2483 61.9446 48.2483C64.9734 45.5877 66.9834 41.9572 67.6304 37.9779C67.6304 37.9779 77.8687 30.977 80.8865 36.0584Z" fill="#B5453C"/>
<path d="M79.895 36.9247C79.895 36.9247 82.8826 39.3077 83.6111 41.6262C84.3396 43.9447 84.667 48.7147 86.0575 48.5525C86.0575 48.5525 89.0713 41.2979 85.6847 37.1899C82.0966 32.836 79.895 36.9247 79.895 36.9247Z" fill="#B5453C"/>
<path d="M47.3592 109.482C45.9183 103.436 50.8204 91.7136 55.937 82.0064C60.5801 73.208 65.3994 66.0711 65.8326 66.327C78.0781 73.5948 79.1845 67.5523 79.1845 67.5523C79.1845 67.5523 90.3084 69.0284 93.4572 74.4493C97.3637 81.1771 101.585 99.973 105.777 103.532C105.133 105.502 105.409 106.555 106.093 108.993C106.239 109.516 106.401 110.013 106.578 110.484C107.158 111.981 107.862 113.427 108.683 114.807C106.552 116.102 102.436 118.564 99.4051 116.794C94.7833 114.088 91.177 105.853 89.1467 102.574L89.1245 102.537C84.7132 127.51 90.7114 133.197 87.6745 135.831C84.4673 138.612 79.8868 134.507 69.8077 138.875C63.1968 141.742 54.0235 145.889 47.8479 146.61C44.6095 146.99 42.1923 146.427 41.4044 144.239C39.1121 137.878 50.108 120.997 47.3592 109.482Z" fill="#1C468A"/>
<path d="M78.179 55.3621C78.179 55.3621 78.451 56.5178 81.3277 56.3394C81.3277 56.3394 83.746 56.1904 83.6684 54.9198C81.8459 54.3922 79.8934 54.5495 78.179 55.3621Z" fill="white"/>
<path d="M41.4044 144.237C42.1923 146.425 44.6084 146.988 47.8479 146.608C52.1222 144.746 70.5876 137.592 70.381 132.745C70.0787 125.569 66.8312 125.339 69.1215 116.483C70.9604 109.37 53.8996 96.1452 51.1781 93.2715C46.0615 102.979 45.9194 103.438 47.3603 109.48C50.1081 120.999 39.1121 137.88 41.4044 144.237Z" fill="#163560"/>
<path d="M39.3167 118.353C41.6288 114.961 44.6824 112.139 48.2462 110.101C47.7303 108.77 62.0201 91.2505 62.0201 88.538C62.0201 85.7893 65.8329 66.3242 65.8329 66.3242C65.8329 66.3242 53.9259 67.0598 49.8038 72.8092C44.6479 79.9975 33.9401 107.669 39.3167 118.353Z" fill="#1C468A"/>
<path d="M48.246 110.1L72.0406 116.307L69.8067 120.317C69.8067 120.317 40.8502 120.115 39.3166 118.352C37.783 116.589 48.246 110.1 48.246 110.1Z" fill="#F09959"/>
<path d="M89.1467 102.572C91.1771 105.852 94.7832 114.087 99.4051 116.792C102.437 118.563 106.552 116.1 108.683 114.805C107.862 113.426 107.158 111.98 106.578 110.483C104.878 110.872 102.802 111.37 101.464 111.774C98.8599 112.558 89.1467 102.572 89.1467 102.572Z" fill="#163560"/>
<path d="M72.0416 116.309C72.0416 116.309 79.514 114.193 81.2935 114.689C83.0729 115.184 89.171 119.223 88.3145 120.317C87.458 121.411 82.0855 119.661 79.6128 119.992C77.1402 120.324 75.2287 121.544 73.4492 121.28C72.209 121.071 70.9905 120.748 69.8088 120.317L72.0416 116.309Z" fill="#F09959"/>
<path d="M72.0396 116.309C73.6983 115.484 75.2712 114.497 76.735 113.361C76.7661 113.33 76.8038 113.306 76.8454 113.292C76.8869 113.277 76.9313 113.272 76.975 113.277C77.0187 113.282 77.0607 113.297 77.0979 113.321C77.135 113.344 77.1664 113.376 77.1895 113.414C77.4686 113.854 77.7285 114.703 76.4468 115.546C75.1033 116.283 73.5526 116.551 72.0396 116.309Z" fill="#FFB27D"/>
<path d="M106.57 126.82H71.7073C71.7073 126.083 72 125.376 72.5212 124.855C73.0423 124.334 73.7492 124.041 74.4862 124.041H106.568L106.57 126.82Z" fill="#ED7D2B"/>
<path d="M106.476 88.8535H160.373L147.445 126.82H93.1987L106.476 88.8535Z" fill="#ED7D2B"/>
<path d="M161.163 88.8535L148.234 126.819H93.9883L107.266 88.8535H161.163Z" fill="#F99746"/>
<path d="M132.102 107.486C131.915 108.212 131.5 108.859 130.918 109.332C130.336 109.805 129.618 110.078 128.869 110.113C128.544 110.127 128.221 110.062 127.927 109.925C127.633 109.787 127.376 109.581 127.178 109.323C126.981 109.066 126.848 108.764 126.791 108.444C126.735 108.125 126.756 107.796 126.854 107.486C127.041 106.76 127.455 106.113 128.037 105.64C128.619 105.167 129.337 104.894 130.086 104.859C130.41 104.845 130.733 104.91 131.028 105.047C131.322 105.185 131.579 105.391 131.776 105.649C131.974 105.906 132.107 106.208 132.164 106.528C132.22 106.847 132.199 107.176 132.102 107.486Z" fill="#F9DDBF"/>
<path d="M161.163 88.8535L148.234 126.818H112.31C136.106 118.696 142.437 93.9298 143.504 88.8535H161.163Z" fill="#ED893E"/>
<path d="M179.187 132.227L29.27 132.227C28.5519 132.227 27.8633 131.941 27.3555 131.434C26.8478 130.926 26.5626 130.237 26.5626 129.519C26.5626 128.801 26.8478 128.112 27.3555 127.605C27.8633 127.097 28.5519 126.812 29.27 126.812L179.187 126.812C179.905 126.812 180.593 127.097 181.101 127.605C181.609 128.112 181.894 128.801 181.894 129.519V129.519C181.894 130.237 181.609 130.926 181.101 131.434C180.593 131.941 179.905 132.227 179.187 132.227V132.227Z" fill="#78ACEA"/>
</g>
<path d="M203.849 64.4766C199.267 68.6601 201.259 72.8396 204.646 80.6142C208.032 88.3889 208.631 117.074 208.631 117.074L205.842 116.67C205.842 116.67 206.245 87.1839 202.455 79.2148C198.666 71.2456 197.076 67.2606 193.689 69.8511C190.302 72.4417 203.849 64.4766 203.849 64.4766Z" fill="#74B570"/>
<path d="M206.362 59.0608C205.805 56.5811 202.5 53.8988 198.081 51.6226C198.738 55.2792 200.845 61.2583 198.665 62.4856C195.724 64.1401 198.378 55.7911 197.243 51.2005C192.883 49.0957 188.263 47.5801 183.504 46.6935C183.511 46.7107 183.515 46.7266 183.522 46.7437C186.113 53.3184 189.499 55.9132 188.105 56.9047C187.056 57.6543 183.638 50.0598 179.126 46.1664C175.738 45.986 172.873 46.4456 171.178 47.7877C168.558 49.8624 166.799 51.7023 169.435 58.019C171.129 59.1966 173.101 59.9112 175.156 60.0925C181.133 60.6901 183.922 60.8896 179.738 62.8817C177.69 63.857 174.256 62.8263 171.476 62.1985C172.383 63.8631 173.492 65.7462 174.839 67.8924C175.642 69.1772 176.58 70.3721 177.639 71.4564C179.113 71.8412 180.661 71.8384 182.134 71.4483C184.923 70.2533 192.095 66.4678 193.889 68.0619C195.643 69.6216 180.605 70.61 181.647 74.5739C188.936 78.7726 197.277 76.7755 198.751 72.9184C200.726 67.7423 208.037 66.5242 206.362 59.0608Z" fill="#9CD499"/>
<path d="M191.29 87.3886C199.259 81.4115 207.428 86.9855 211.611 93.3656C215.795 99.7458 212.807 114.086 212.807 114.086C212.807 114.086 211.213 114.086 211.213 113.488C211.213 112.891 215.596 96.5536 205.236 89.182C198.755 84.5701 194.079 86.791 193.481 88.9805C192.884 91.17 196.071 95.1562 196.071 95.1562L191.29 87.3886Z" fill="#74B570"/>
<path d="M209.622 75.1035C201.653 75.1035 199.063 87.4567 201.259 94.6278C203.455 101.799 206.439 115.149 206.439 115.149L208.431 113.156C208.431 113.156 200.86 94.4284 202.654 86.0602C204.447 77.6921 208.829 76.2976 209.626 76.2976C210.423 76.2976 209.622 75.1035 209.622 75.1035Z" fill="#9CD499"/>
<path d="M202.938 94.6832C202.39 93.9355 201.671 93.3307 200.84 92.9199C200.946 93.4961 201.084 94.0658 201.254 94.6267C202.252 97.8943 203.416 102.444 204.388 106.43L204.822 103.92C204.871 103.633 204.91 103.323 204.938 102.993C204.118 100.262 203.45 97.488 202.938 94.6832Z" fill="#74B570"/>
<path d="M200.759 94.743C185.618 88.3679 193.595 79.619 180.246 85.3966C179.839 85.192 179.38 85.1118 178.927 85.1661C178.475 85.2204 178.048 85.4067 177.701 85.7019C177.353 85.9971 177.1 86.3881 176.973 86.8261C176.846 87.2641 176.851 87.7298 176.987 88.165C177.123 88.6003 177.385 88.9857 177.738 89.2735C178.092 89.5613 178.523 89.7387 178.976 89.7835C179.43 89.8282 179.887 89.7383 180.29 89.5252C180.693 89.312 181.025 88.9847 181.243 88.5845C185.228 87.986 183.833 91.1741 177.258 91.9711C176.21 92.0774 175.178 92.2953 174.177 92.621C171.045 98.6365 169.633 106.552 176.261 109.304C177.771 109.878 179.365 110.206 180.979 110.272C183.024 108.647 180.475 99.2399 183.633 100.538C186.656 101.784 182.685 108.599 183.23 110.32C186.422 110.225 189.593 109.78 192.688 108.994C193.283 108.715 193.812 108.315 194.243 107.819C194.674 107.323 194.996 106.743 195.189 106.116C196.186 101.932 189.611 99.3429 189.412 95.7558C189.228 92.4599 191.822 103.011 198.691 104.561C204.903 101.661 207.837 97.7205 200.759 94.743Z" fill="#9CD499"/>
<path d="M211.548 83.4704C209.954 80.0838 214.139 79.2868 213.939 81.8763C213.763 84.1706 213.743 89.7498 216.096 91.2682C220.939 90.6692 225.615 89.1165 229.854 86.6998C229.907 86.3436 229.845 85.9798 229.678 85.661C227.885 82.0749 216.329 79.0862 219.915 77.8911C222.771 76.939 227.775 82.5585 231.805 85.3889C234.223 83.551 235.849 81.3584 235.849 78.915C235.849 75.605 231.828 71.8617 226.627 70.0672C224.286 70.303 222.112 71.5787 218.715 73.5072C213.698 76.3507 214.858 71.754 219.602 69.0254C217.389 69.1123 215.227 69.7123 213.286 70.7781C211.345 71.8439 209.678 73.3464 208.417 75.1667C208.417 75.1667 208.702 76.9531 206.811 79.7169C201.652 87.2558 207.606 91.6572 214.723 91.372C213.907 88.6471 212.845 86.0022 211.548 83.4704Z" fill="#9CD499"/>
<path d="M191.773 87.0524C187.876 90.0631 183.549 93.5827 178.236 95.9737C172.922 98.3648 173.986 106.158 173.986 106.158C173.986 106.158 173.189 99.4276 177.613 97.1252C182.037 94.8229 184.962 92.0783 188.328 91.5472C190.087 91.2884 191.831 90.9336 193.552 90.4843C193.552 90.4843 192.49 88.3591 193.11 87.5621C193.73 86.7651 191.773 87.0524 191.773 87.0524Z" fill="#74B570"/>
<path d="M172.568 51.6973C186.824 55.505 197.273 64.6259 199.221 66.8396C201.168 69.0534 201.169 69.674 201.169 69.674L199.663 72.5074L198.958 72.1527C198.958 72.1527 200.108 69.7617 197.099 66.6623C192.547 61.9309 187.177 58.0613 181.248 55.2401C176.906 53.3801 172.568 51.6973 172.568 51.6973Z" fill="#74B570"/>
<path d="M199.462 111.084H218.935V120.875C218.935 123.457 217.909 125.934 216.083 127.76C214.257 129.586 211.78 130.611 209.198 130.611C206.616 130.611 204.139 129.586 202.313 127.76C200.487 125.934 199.462 123.457 199.462 120.875V111.084Z" fill="#F39892"/>
<path d="M135.773 24.7676H123.698C117.059 24.7676 111.678 30.149 111.678 36.7873V47.7853C111.678 54.4236 117.059 59.805 123.698 59.805H135.773C142.411 59.805 147.793 54.4236 147.793 47.7853V36.7873C147.793 30.149 142.411 24.7676 135.773 24.7676Z" fill="#C0D8FB"/>
<path d="M135.25 26.2852H124.222C118.158 26.2852 113.243 31.2006 113.243 37.264V47.3078C113.243 53.3713 118.158 58.2867 124.222 58.2867H135.25C141.314 58.2867 146.229 53.3713 146.229 47.3078V37.264C146.229 31.2006 141.314 26.2852 135.25 26.2852Z" fill="white"/>
<path d="M128.988 29.484C128.988 29.3361 129.032 29.1916 129.114 29.0686C129.196 28.9457 129.313 28.8498 129.449 28.7932C129.586 28.7367 129.736 28.7218 129.881 28.7507C130.026 28.7795 130.159 28.8507 130.264 28.9553C130.369 29.0599 130.44 29.1931 130.469 29.3381C130.498 29.4832 130.483 29.6335 130.426 29.7701C130.37 29.9067 130.274 30.0235 130.151 30.1056C130.028 30.1878 129.883 30.2316 129.735 30.2316C129.537 30.2314 129.347 30.1525 129.207 30.0124C129.067 29.8722 128.988 29.6822 128.988 29.484Z" fill="#B7D3F3"/>
<path d="M135.024 30.5419C135.096 30.4127 135.205 30.3078 135.336 30.2404C135.468 30.173 135.616 30.1462 135.763 30.1632C135.91 30.1802 136.049 30.2404 136.161 30.336C136.274 30.4317 136.356 30.5587 136.396 30.7008C136.437 30.843 136.434 30.994 136.389 31.1347C136.344 31.2754 136.258 31.3995 136.142 31.4914C136.026 31.5833 135.886 31.6388 135.739 31.651C135.591 31.6631 135.444 31.6313 135.314 31.5595C135.229 31.5118 135.153 31.4476 135.092 31.3707C135.031 31.2937 134.985 31.2054 134.958 31.1109C134.931 31.0164 134.923 30.9174 134.935 30.8198C134.946 30.7222 134.976 30.6277 135.024 30.5419Z" fill="#B7D3F3"/>
<path d="M140.195 34.6488C140.32 34.5686 140.465 34.527 140.613 34.5294C140.761 34.5317 140.904 34.5779 141.026 34.662C141.148 34.7461 141.242 34.8643 141.296 35.0018C141.35 35.1393 141.363 35.2898 141.332 35.4344C141.301 35.5789 141.227 35.711 141.121 35.8139C141.015 35.9168 140.881 35.9859 140.735 36.0124C140.59 36.039 140.44 36.0218 140.304 35.9631C140.168 35.9044 140.053 35.8068 139.973 35.6826C139.865 35.5159 139.829 35.3134 139.87 35.1196C139.912 34.9258 140.029 34.7565 140.195 34.6488Z" fill="#B7D3F3"/>
<path d="M142.757 41.0059C142.906 41.0059 143.05 41.0498 143.173 41.132C143.297 41.2143 143.392 41.3312 143.449 41.468C143.506 41.6048 143.521 41.7553 143.492 41.9006C143.463 42.0458 143.392 42.1792 143.287 42.2839C143.182 42.3886 143.049 42.4599 142.903 42.4888C142.758 42.5176 142.608 42.5028 142.471 42.4462C142.334 42.3895 142.217 42.2936 142.135 42.1704C142.053 42.0473 142.009 41.9026 142.009 41.7545C142.009 41.556 142.088 41.3655 142.228 41.2251C142.368 41.0847 142.559 41.0059 142.757 41.0059Z" fill="#B7D3F3"/>
<path d="M141.45 48.3892C141.554 48.4938 141.626 48.6271 141.654 48.7721C141.683 48.9171 141.668 49.0674 141.612 49.2039C141.555 49.3405 141.459 49.4572 141.336 49.5393C141.213 49.6214 141.069 49.6652 140.921 49.6652C140.773 49.6652 140.629 49.6214 140.506 49.5393C140.383 49.4572 140.287 49.3405 140.23 49.2039C140.174 49.0674 140.159 48.9171 140.188 48.7721C140.216 48.6271 140.288 48.4938 140.392 48.3892C140.462 48.3197 140.544 48.2646 140.635 48.2269C140.725 48.1893 140.823 48.1699 140.921 48.1699C141.019 48.1699 141.117 48.1893 141.207 48.2269C141.298 48.2646 141.381 48.3197 141.45 48.3892Z" fill="#B7D3F3"/>
<path d="M136.752 53.0998C136.857 53.2044 136.928 53.3376 136.957 53.4826C136.985 53.6276 136.97 53.7779 136.914 53.9144C136.857 54.051 136.761 54.1677 136.638 54.2498C136.516 54.3319 136.371 54.3758 136.223 54.3758C136.075 54.3758 135.931 54.3319 135.808 54.2498C135.685 54.1677 135.589 54.051 135.533 53.9144C135.476 53.7779 135.461 53.6276 135.49 53.4826C135.519 53.3376 135.59 53.2044 135.694 53.0998C135.835 52.9596 136.025 52.8809 136.223 52.8809C136.422 52.8809 136.612 52.9596 136.752 53.0998Z" fill="#B7D3F3"/>
<path d="M128.988 55.5269C128.988 55.379 129.032 55.2345 129.114 55.1116C129.196 54.9886 129.313 54.8928 129.449 54.8362C129.586 54.7796 129.736 54.7648 129.881 54.7937C130.026 54.8225 130.159 54.8937 130.264 54.9983C130.369 55.1028 130.44 55.2361 130.469 55.3811C130.498 55.5261 130.483 55.6765 130.426 55.8131C130.37 55.9497 130.274 56.0664 130.151 56.1486C130.028 56.2307 129.883 56.2746 129.735 56.2746C129.537 56.2746 129.347 56.1958 129.207 56.0556C129.067 55.9154 128.988 55.7252 128.988 55.5269Z" fill="#B7D3F3"/>
<path d="M124.424 30.5413C124.352 30.4118 124.244 30.3066 124.112 30.2389C123.98 30.1713 123.831 30.1442 123.684 30.1612C123.537 30.1781 123.398 30.2383 123.285 30.3342C123.172 30.43 123.091 30.5572 123.05 30.6996C123.009 30.842 123.012 30.9933 123.057 31.1343C123.103 31.2753 123.189 31.3996 123.305 31.4916C123.421 31.5836 123.562 31.6391 123.709 31.6511C123.857 31.6631 124.005 31.631 124.134 31.559C124.307 31.4624 124.435 31.301 124.49 31.1102C124.544 30.9194 124.521 30.7148 124.424 30.5413Z" fill="#B7D3F3"/>
<path d="M119.252 34.6488C119.128 34.5686 118.983 34.527 118.835 34.5294C118.687 34.5317 118.543 34.5779 118.422 34.662C118.3 34.7461 118.206 34.8643 118.152 35.0018C118.097 35.1393 118.085 35.2898 118.116 35.4344C118.147 35.5789 118.221 35.711 118.327 35.8139C118.433 35.9168 118.567 35.9859 118.713 36.0124C118.858 36.039 119.008 36.0218 119.144 35.9631C119.28 35.9044 119.395 35.8068 119.475 35.6826C119.582 35.5159 119.619 35.3134 119.577 35.1196C119.536 34.9258 119.419 34.7565 119.252 34.6488Z" fill="#B7D3F3"/>
<path d="M116.691 41.0078C116.543 41.0076 116.398 41.0513 116.275 41.1335C116.151 41.2156 116.055 41.3325 115.998 41.4693C115.942 41.6061 115.927 41.7566 115.955 41.9019C115.984 42.0472 116.055 42.1807 116.16 42.2855C116.265 42.3903 116.398 42.4617 116.543 42.4907C116.689 42.5196 116.839 42.5049 116.976 42.4482C117.113 42.3916 117.23 42.2956 117.312 42.1725C117.395 42.0494 117.439 41.9046 117.439 41.7565C117.439 41.5581 117.36 41.3678 117.22 41.2275C117.079 41.0871 116.889 41.0081 116.691 41.0078Z" fill="#B7D3F3"/>
<path d="M118 48.3908C117.895 48.4953 117.824 48.6286 117.796 48.7736C117.767 48.9186 117.782 49.0689 117.838 49.2054C117.895 49.342 117.991 49.4587 118.114 49.5408C118.237 49.6229 118.381 49.6667 118.529 49.6667C118.677 49.6667 118.821 49.6229 118.944 49.5408C119.067 49.4587 119.163 49.342 119.22 49.2054C119.276 49.0689 119.291 48.9186 119.262 48.7736C119.233 48.6286 119.162 48.4953 119.058 48.3908C118.918 48.2506 118.727 48.1719 118.529 48.1719C118.331 48.1719 118.14 48.2506 118 48.3908Z" fill="#B7D3F3"/>
<path d="M122.696 53.1002C122.592 53.2048 122.521 53.338 122.492 53.483C122.463 53.628 122.478 53.7782 122.535 53.9148C122.591 54.0513 122.687 54.1681 122.81 54.2502C122.933 54.3323 123.077 54.3762 123.225 54.3762C123.373 54.3762 123.517 54.3323 123.64 54.2502C123.763 54.1681 123.859 54.0513 123.916 53.9148C123.972 53.7782 123.987 53.628 123.958 53.483C123.93 53.338 123.859 53.2048 123.754 53.1002C123.685 53.0306 123.602 52.9755 123.512 52.9379C123.421 52.9002 123.323 52.8809 123.225 52.8809C123.127 52.8809 123.03 52.9002 122.939 52.9379C122.848 52.9755 122.766 53.0306 122.696 53.1002Z" fill="#B7D3F3"/>
<path d="M129.534 41.7575C129.533 41.6093 129.577 41.4645 129.659 41.3413C129.742 41.218 129.858 41.1219 129.995 41.0651C130.132 41.0083 130.282 40.9933 130.428 41.0221C130.573 41.0509 130.707 41.1221 130.811 41.2267C130.916 41.3314 130.988 41.4648 131.017 41.61C131.046 41.7553 131.031 41.9059 130.974 42.0427C130.917 42.1796 130.822 42.2966 130.698 42.3789C130.575 42.4612 130.43 42.5051 130.282 42.5051C130.084 42.5051 129.894 42.4264 129.753 42.2862C129.613 42.146 129.534 41.9558 129.534 41.7575Z" fill="#B7D3F3"/>
<path d="M130.384 32.4102H130.18V41.7557H130.384V32.4102Z" fill="#B7D3F3"/>
<path d="M134.952 37.6121L129.998 41.502L130.377 41.9838L135.33 38.0939L134.952 37.6121Z" fill="#B7D3F3"/>
</svg>
