<svg width="512" height="512" viewBox="0 0 512 512" fill="none" xmlns="http://www.w3.org/2000/svg">
<g clip-path="url(#clip0_108_410)">
<mask id="mask0_108_410" style="mask-type:luminance" maskUnits="userSpaceOnUse" x="0" y="0" width="512" height="512">
<path d="M512 0H0V512H512V0Z" fill="white"/>
</mask>
<g mask="url(#mask0_108_410)">
<path d="M512 0H0V512H512V0Z" fill="#0065EF"/>
<g filter="url(#filter0_d_108_410)">
<path fill-rule="evenodd" clip-rule="evenodd" d="M263.116 221.449C264.483 216.126 265.1 210.666 264.963 205.068C264.689 198.107 263.39 191.35 261.064 184.798C258.738 178.109 255.454 171.967 251.212 166.371C245.877 159.408 239.379 153.812 231.716 149.58C224.054 145.212 215.913 142.482 207.293 141.39C198.537 140.298 189.917 140.981 181.435 143.438C173.088 145.759 165.426 149.513 158.448 154.699V121.119C158.448 117.57 157.217 114.568 154.755 112.11C152.292 109.654 149.281 108.424 145.724 108.424C142.167 108.424 139.157 109.654 136.695 112.11C134.232 114.568 133 117.57 133 121.119V205.068V207.73V211.007C133.137 211.962 133.274 212.987 133.411 214.078C133.958 219.675 135.258 225.135 137.31 230.458C139.499 235.645 142.167 240.491 145.315 244.996C148.598 249.5 152.36 253.596 156.602 257.281C160.98 260.831 165.7 263.833 170.762 266.29C181.298 271.205 192.38 273.252 204.009 272.433C215.639 271.478 226.31 267.723 236.026 261.171C240.677 258.032 244.782 254.415 248.339 250.32C252.033 246.088 255.112 241.584 257.575 236.806C260.038 231.892 261.885 226.772 263.116 221.449ZM239.514 204.045C240.2 213.6 237.804 222.2 232.331 229.844C229.595 233.803 226.243 237.147 222.275 239.877C218.444 242.608 214.202 244.586 209.551 245.815C200.384 248.408 191.49 247.794 182.87 243.972L181.639 243.357C176.577 241.174 172.199 237.898 168.505 233.53C163.716 227.933 160.569 221.518 159.064 214.283C157.697 207.048 158.243 199.95 160.706 192.988C162.621 187.801 165.495 183.16 169.326 179.065C173.157 174.97 177.672 171.763 182.87 169.442C188.07 167.257 193.475 166.165 199.084 166.165C204.694 166.165 210.098 167.326 215.298 169.646C217.486 170.738 219.539 171.899 221.455 173.127C223.506 174.355 225.423 175.789 227.201 177.427C230.759 180.976 233.631 185.071 235.82 189.713C238.009 194.216 239.241 198.995 239.514 204.045Z" fill="white"/>
<path d="M309.498 185.944C309.498 181.014 304.214 177.018 297.698 177.018C291.18 177.018 285.896 181.014 285.896 185.944V263.303C285.896 268.233 291.18 272.229 297.698 272.229C304.214 272.229 309.498 268.233 309.498 263.303V185.944Z" fill="white"/>
<path d="M297.698 164.732C304.214 164.732 309.498 159.461 309.498 152.958C309.498 146.457 304.214 141.186 297.698 141.186C291.18 141.186 285.896 146.457 285.896 152.958C285.896 159.461 291.18 164.732 297.698 164.732Z" fill="white"/>
<path d="M357.614 150.682C357.614 145.255 352.79 140.854 346.84 140.854C340.888 140.854 336.064 145.255 336.064 150.682V262.069C336.064 267.497 340.888 271.897 346.84 271.897C352.79 271.897 357.614 267.497 357.614 262.069V150.682Z" fill="white"/>
<path d="M365.936 177.223H328.995C322.194 177.223 316.681 182.035 316.681 187.972C316.681 193.909 322.194 198.721 328.995 198.721H365.936C372.737 198.721 378.25 193.909 378.25 187.972C378.25 182.035 372.737 177.223 365.936 177.223Z" fill="white"/>
</g>
</g>
<path d="M126 389C126 358.072 151.072 333 182 333H330C360.928 333 386 358.072 386 389V512.636H126V389Z" fill="white"/>
<path d="M335.355 397.131C331.635 420.339 319.765 441.481 301.855 456.796C283.945 472.11 261.157 480.604 237.546 480.767C232.764 480.95 227.975 480.66 223.25 479.904C213.368 478.233 204.36 473.24 197.729 465.759C191.098 458.278 187.245 448.761 186.813 438.795C186.908 427.678 191.391 417.045 199.295 409.19C207.198 401.335 217.888 396.888 229.056 396.809C240.226 396.731 250.977 401.027 258.992 408.77C267.006 416.513 271.64 427.082 271.893 438.196C272.072 445.215 269.017 451.372 262.738 451.549C256.029 451.549 252.884 446.786 252.884 440.365V422.523C252.887 419.639 251.743 416.869 249.702 414.82C247.661 412.771 244.889 411.609 241.99 411.585H226.964C222.593 411.555 218.284 412.616 214.431 414.671C210.578 416.726 207.304 419.708 204.909 423.347C202.513 426.985 201.071 431.163 200.716 435.499C200.359 439.835 201.101 444.19 202.872 448.167C204.643 452.144 207.388 455.616 210.854 458.265C214.321 460.916 218.399 462.658 222.717 463.335C227.035 464.011 231.454 463.599 235.571 462.138C239.688 460.677 243.371 458.212 246.283 454.968L246.809 454.188L247.335 455.055C249.142 457.498 251.528 459.459 254.281 460.764C257.034 462.069 260.068 462.676 263.113 462.532C268.542 462.14 273.601 459.651 277.211 455.597C280.82 451.543 282.694 446.245 282.433 440.835C282.486 436.192 281.963 431.56 280.877 427.044C278.09 414.288 270.658 403.011 260.012 395.385C249.366 387.761 236.262 384.328 223.224 385.75C210.187 387.171 198.14 393.345 189.405 403.083C180.67 412.821 175.866 425.433 175.919 438.487C176.087 452.328 181.639 465.567 191.408 475.42C201.177 485.273 214.403 490.973 228.307 491.323C228.307 491.323 232.242 491.68 236.679 491.578C258.245 491.443 279.323 485.183 297.438 473.537C297.696 473.358 297.953 473.714 297.782 473.974C288.963 483.429 278.178 490.858 266.18 495.741C254.182 500.625 241.258 502.846 228.309 502.251C219.844 502.404 211.434 500.849 203.59 497.679C195.744 494.509 188.626 489.79 182.664 483.807C176.701 477.824 172.018 470.701 168.896 462.868C165.774 455.034 164.279 446.653 164.502 438.228C164.505 428.185 166.863 418.281 171.387 409.303C175.911 400.326 182.476 392.522 190.561 386.512C201.427 378.548 214.558 374.234 228.052 374.194H248.22C256.098 374.188 263.888 372.549 271.096 369.382C278.302 366.215 284.767 361.589 290.08 355.799C290.192 355.675 290.341 355.59 290.505 355.557C290.669 355.522 290.84 355.539 290.994 355.605C291.147 355.672 291.277 355.785 291.362 355.929C291.448 356.073 291.487 356.241 291.473 356.408C290.618 365.43 287.601 374.116 282.673 381.736C282.6 381.869 282.567 382.019 282.579 382.17C282.591 382.32 282.646 382.465 282.739 382.584C282.83 382.704 282.955 382.794 283.097 382.845C283.24 382.895 283.394 382.903 283.541 382.869C292.851 380.775 301.537 376.537 308.9 370.493C316.264 364.45 322.099 356.77 325.937 348.073C326.034 347.918 326.169 347.789 326.329 347.697C326.49 347.607 326.671 347.56 326.856 347.56C327.04 347.56 327.221 347.607 327.382 347.697C327.542 347.788 327.678 347.917 327.774 348.073C335.678 363.143 338.344 380.394 335.355 397.131ZM228.255 422.301C225.935 422.3 223.644 422.812 221.547 423.799C219.45 424.786 217.598 426.223 216.126 428.008C214.655 429.793 213.6 431.88 213.036 434.12C212.472 436.359 212.415 438.695 212.868 440.96C213.473 443.989 214.967 446.771 217.161 448.955C219.355 451.138 222.15 452.625 225.193 453.229C227.469 453.679 229.816 453.621 232.066 453.06C234.316 452.499 236.413 451.448 238.206 449.984C240 448.518 241.444 446.676 242.435 444.589C243.427 442.501 243.941 440.222 243.94 437.913V423.337C243.926 423.058 243.808 422.795 243.61 422.597C243.412 422.4 243.146 422.283 242.866 422.269L228.255 422.301Z" fill="#0065EF"/>
</g>
<defs>
<filter id="filter0_d_108_410" x="117" y="100.424" width="277.25" height="196.185" filterUnits="userSpaceOnUse" color-interpolation-filters="sRGB">
<feFlood flood-opacity="0" result="BackgroundImageFix"/>
<feColorMatrix in="SourceAlpha" type="matrix" values="0 0 0 0 0 0 0 0 0 0 0 0 0 0 0 0 0 0 127 0" result="hardAlpha"/>
<feOffset dy="8"/>
<feGaussianBlur stdDeviation="8"/>
<feComposite in2="hardAlpha" operator="out"/>
<feColorMatrix type="matrix" values="0 0 0 0 0.0509804 0 0 0 0 0.411765 0 0 0 0 0.909804 0 0 0 0.5 0"/>
<feBlend mode="normal" in2="BackgroundImageFix" result="effect1_dropShadow_108_410"/>
<feBlend mode="normal" in="SourceGraphic" in2="effect1_dropShadow_108_410" result="shape"/>
</filter>
<clipPath id="clip0_108_410">
<rect width="512" height="512" fill="white"/>
</clipPath>
</defs>
</svg>
