<svg width="45" height="30" viewBox="0 0 45 30" fill="none" xmlns="http://www.w3.org/2000/svg">
    <path fill-rule="evenodd" clip-rule="evenodd" d="M24.2134 17.659C24.2384 18.6817 24.1255 19.6793 23.8745 20.6521C23.6485 21.6248 23.3096 22.5601 22.8577 23.458C22.4059 24.3311 21.841 25.1542 21.1632 25.9273C20.5104 26.6756 19.7573 27.3365 18.9038 27.9102C17.1213 29.1074 15.1631 29.7934 13.0293 29.9679C10.8954 30.1176 8.86193 29.7435 6.92887 28.8455C6.00001 28.3966 5.1339 27.8479 4.33054 27.1994C3.55231 26.5259 2.86192 25.7777 2.25941 24.9546C1.682 24.1315 1.19246 23.2461 0.790795 22.2982C0.414226 21.3255 0.175726 20.3279 0.0753141 19.3052C0.0502158 19.1056 0.0250983 18.9185 0 18.744V18.1454V17.659V2.31962C0 1.67111 0.225941 1.12239 0.677824 0.673437C1.12971 0.224479 1.682 0 2.33473 0C2.98745 0 3.53975 0.224479 3.99163 0.673437C4.44352 1.12239 4.66946 1.67111 4.66946 2.31962V8.45537C5.94979 7.50757 7.35565 6.82167 8.88703 6.39765C10.4435 5.94869 12.0252 5.82397 13.6318 6.02352C15.2134 6.22306 16.7071 6.72189 18.113 7.52004C19.5189 8.29324 20.7113 9.31587 21.6904 10.5879C22.4686 11.6106 23.0711 12.733 23.4979 13.9551C23.9248 15.1523 24.1631 16.387 24.2134 17.659ZM18.2259 22.186C19.2301 20.7892 19.6695 19.2178 19.5439 17.4719C19.4937 16.5491 19.2677 15.6761 18.8661 14.853C18.4645 14.005 17.9373 13.2568 17.2845 12.6082C16.9582 12.3089 16.6067 12.047 16.2301 11.8226C15.8786 11.5981 15.502 11.3861 15.1004 11.1865C14.1464 10.7625 13.1549 10.5505 12.1255 10.5505C11.0962 10.5505 10.1046 10.7501 9.15063 11.1491C8.19665 11.5732 7.3682 12.1593 6.66527 12.9075C5.96235 13.6558 5.43515 14.5038 5.08368 15.4516C4.6318 16.7237 4.53139 18.0206 4.78243 19.3426C5.05858 20.6646 5.63598 21.8367 6.51464 22.8594C7.19247 23.6576 7.99582 24.2563 8.92469 24.6553C9.15061 24.78 9.37654 24.8923 9.60247 24.992L9.15063 24.7675C10.7322 25.4658 12.3641 25.5781 14.046 25.1042C14.8995 24.8797 15.6779 24.5181 16.3808 24.0192C17.1089 23.5203 17.7238 22.9094 18.2259 22.186ZM32.385 14.1645C32.385 13.2638 31.4156 12.5336 30.2197 12.5336C29.0239 12.5336 28.0544 13.2638 28.0544 14.1645V28.2997C28.0544 29.2005 29.0239 29.9307 30.2197 29.9307C31.4156 29.9307 32.385 29.2005 32.385 28.2997V14.1645ZM32.385 8.13743C32.385 9.32554 31.4156 10.2887 30.2197 10.2887C29.0239 10.2887 28.0544 9.32554 28.0544 8.13743C28.0544 6.94933 29.0239 5.98618 30.2197 5.98618C31.4156 5.98618 32.385 6.94933 32.385 8.13743ZM41.2342 7.78201C41.2342 6.7902 40.3491 5.98618 39.2573 5.98618C38.1654 5.98618 37.2803 6.7902 37.2803 7.78201V12.5716H35.9623C34.7145 12.5716 33.7029 13.451 33.7029 14.5358C33.7029 15.6205 34.7145 16.4999 35.9623 16.4999H37.2803V28.1348C37.2803 29.1266 38.1654 29.9306 39.2573 29.9306C40.3491 29.9306 41.2342 29.1266 41.2342 28.1348V16.4999H42.7405C43.9884 16.4999 45 15.6205 45 14.5358C45 13.451 43.9884 12.5716 42.7405 12.5716H41.2342V7.78201Z" fill="#0064EF"/>
</svg>
