<svg xmlns="http://www.w3.org/2000/svg" viewBox="0 0 22.257 22.257" width="32px" height="32px">
	<g>
		<path style="fill:white" d="M9.109,2.27c0.139-0.072,0.303-0.051,0.426,0.043l10.775,8.503
			c0.094,0.073,0.154,0.191,0.154,0.312c0,0.119-0.061,0.239-0.154,0.313L9.535,19.944c-0.072,0.057-0.162,0.087-0.252,0.087
			l-0.174-0.04c-0.135-0.064-0.225-0.207-0.225-0.361v-17C8.885,2.476,8.975,2.334,9.109,2.27z" />
		<path style="fill:white" d="M0.221,2.27c0.141-0.072,0.307-0.051,0.424,0.043l10.777,8.503
			c0.096,0.073,0.154,0.191,0.154,0.312c0,0.119-0.059,0.239-0.154,0.313L0.645,19.944c-0.072,0.057-0.16,0.087-0.246,0.087
			l-0.178-0.04C0.084,19.926,0,19.784,0,19.629V2.63C0,2.476,0.084,2.334,0.221,2.27z" />
		<path style="fill:white" d="M19.287,2.26h2.656c0.174,0,0.314,0.183,0.314,0.4v16.935c0,0.222-0.141,0.404-0.314,0.404h-2.656
			c-0.176,0-0.318-0.183-0.318-0.404V2.661C18.969,2.443,19.111,2.26,19.287,2.26z" />
	</g>
</svg>