<svg width="48" height="48" viewBox="0 0 48 48" fill="none" xmlns="http://www.w3.org/2000/svg">
<path fill-rule="evenodd" clip-rule="evenodd" d="M24 24C24 20.6863 26.6863 18 30 18C33.3137 18 36 20.6863 36 24C36 27.3137 33.3137 30 30 30C26.6863 30 24 27.3137 24 24Z" fill="#1ABCFE"/>
<path fill-rule="evenodd" clip-rule="evenodd" d="M12 36C12 32.6863 14.6863 30 18 30H24V36C24 39.3137 21.3137 42 18 42C14.6863 42 12 39.3137 12 36Z" fill="#0ACF83"/>
<path fill-rule="evenodd" clip-rule="evenodd" d="M24 6V18H30C33.3137 18 36 15.3137 36 12C36 8.68629 33.3137 6 30 6H24Z" fill="#FF7262"/>
<path fill-rule="evenodd" clip-rule="evenodd" d="M12 12C12 15.3137 14.6863 18 18 18H24V6H18C14.6863 6 12 8.68629 12 12Z" fill="#F24E1E"/>
<path fill-rule="evenodd" clip-rule="evenodd" d="M12 24C12 27.3137 14.6863 30 18 30H24V18H18C14.6863 18 12 20.6863 12 24Z" fill="#A259FF"/>
</svg>
