<svg width="24" height="24" viewBox="0 0 24 24" fill="none" xmlns="http://www.w3.org/2000/svg">
<path d="M21.5287 15.9301C21.3687 15.6601 20.9187 15.2401 19.7987 15.4401C19.1787 15.5501 18.5487 15.6001 17.9187 15.5701C15.5887 15.4701 13.4787 14.4001 12.0087 12.7501C10.7087 11.3001 9.90873 9.41012 9.89873 7.37012C9.89873 6.23012 10.1187 5.13012 10.5687 4.09012C11.0087 3.08012 10.6987 2.55012 10.4787 2.33012C10.2487 2.10012 9.70873 1.78012 8.64873 2.22012C4.55873 3.94012 2.02873 8.04012 2.32873 12.4301C2.62873 16.5601 5.52873 20.0901 9.36873 21.4201C10.2887 21.7401 11.2587 21.9301 12.2587 21.9701C12.4187 21.9801 12.5787 21.9901 12.7387 21.9901C16.0887 21.9901 19.2287 20.4101 21.2087 17.7201C21.8787 16.7901 21.6987 16.2001 21.5287 15.9301Z" fill="white"/>
</svg>
