<svg width="120" height="120" viewBox="0 0 512 512" fill="none" xmlns="http://www.w3.org/2000/svg">
<path d="M268.935 275.107C269.114 282.456 268.305 289.625 266.509 296.615C264.893 303.605 262.467 310.326 259.234 316.779C256 323.052 251.958 328.967 247.107 334.523C242.436 339.9 237.046 344.649 230.939 348.772C218.183 357.375 204.171 362.304 188.901 363.558C173.631 364.634 159.079 361.945 145.246 355.493C138.599 352.267 132.401 348.324 126.653 343.664C121.083 338.824 116.143 333.447 111.832 327.533C107.7 321.618 104.196 315.256 101.322 308.444C98.6273 301.454 96.9206 294.285 96.202 286.936C96.0224 285.502 95.8427 284.158 95.6631 282.904C95.6631 281.469 95.6631 280.036 95.6631 278.602V275.107V164.879C95.6631 160.219 97.2799 156.275 100.514 153.049C103.747 149.823 107.7 148.21 112.37 148.21C117.041 148.21 120.994 149.823 124.227 153.049C127.461 156.275 129.078 160.219 129.078 164.879V209.239V208.97C138.24 202.159 148.3 197.23 159.259 194.183C170.397 190.957 181.715 190.061 193.213 191.495C204.53 192.929 215.219 196.513 225.28 202.249C235.341 207.805 243.874 215.154 250.88 224.294C256.449 231.643 260.76 239.709 263.815 248.491C266.869 257.094 268.575 265.966 268.935 275.107ZM226.088 307.638C233.274 297.6 236.419 286.309 235.52 273.763C235.16 267.132 233.543 260.858 230.669 254.943C227.795 248.85 224.023 243.473 219.352 238.812C217.017 236.661 214.501 234.78 211.806 233.166C209.291 231.553 206.596 230.03 203.722 228.596C196.895 225.549 189.8 224.026 182.434 224.026C175.068 224.026 167.972 225.459 161.145 228.327C154.318 231.375 148.39 235.586 143.36 240.963C138.33 246.34 134.557 252.434 132.042 259.245C128.808 268.386 128.09 277.705 129.886 287.205C131.862 296.705 135.994 305.128 142.282 312.477C147.133 318.213 152.881 322.515 159.528 325.382C161.145 326.278 162.762 327.085 164.379 327.801C166.175 328.518 167.972 329.236 169.768 329.952C168.331 329.415 166.894 328.877 165.457 328.339C164.02 327.623 162.582 326.905 161.145 326.188C172.463 331.206 184.141 332.013 196.177 328.608C202.284 326.995 207.854 324.396 212.884 320.811C218.094 317.226 222.495 312.836 226.088 307.638Z" fill="#0065EF"/>
<path d="M327.41 249.995C327.41 243.522 320.473 238.274 311.916 238.274C303.358 238.274 296.421 243.522 296.421 249.995V351.569C296.421 358.042 303.358 363.289 311.916 363.289C320.473 363.289 327.41 358.042 327.41 351.569V249.995Z" fill="#0065EF"/>
<path d="M311.916 222.143C320.473 222.143 327.41 215.222 327.41 206.684C327.41 198.147 320.473 191.226 311.916 191.226C303.358 191.226 296.421 198.147 296.421 206.684C296.421 215.222 303.358 222.143 311.916 222.143Z" fill="#0065EF"/>
<path d="M390.737 204.13C390.737 197.003 384.403 191.226 376.59 191.226C368.776 191.226 362.442 197.003 362.442 204.13V350.385C362.442 357.512 368.776 363.289 376.59 363.289C384.403 363.289 390.737 357.512 390.737 350.385V204.13Z" fill="#0065EF"/>
<path d="M401.515 238.543H353.01C344.081 238.543 336.842 244.862 336.842 252.658C336.842 260.453 344.081 266.772 353.01 266.772H401.515C410.445 266.772 417.684 260.453 417.684 252.658C417.684 244.862 410.445 238.543 401.515 238.543Z" fill="#0065EF"/>
</svg>
