<svg width="203" height="121" viewBox="0 0 203 121" fill="none" xmlns="http://www.w3.org/2000/svg">
<ellipse cx="66.7649" cy="-7.55309" rx="135.523" ry="128.402" fill="#F5F9FF"/>
<path d="M122.181 96C121.815 96 121.45 96 121.084 96C119.935 95.599 119.308 94.7434 118.837 93.6205C118.158 91.9629 117.401 90.332 116.669 88.7011C116.591 88.5407 116.512 88.407 116.382 88.1664C116.225 88.5139 116.121 88.7545 115.99 89.0219C115.206 90.7598 114.449 92.4976 113.665 94.2622C113.325 95.0375 112.751 95.599 111.941 95.8663C111.862 95.8931 111.784 95.9465 111.706 96C111.34 96 110.974 96 110.609 96C109.825 95.7326 109.198 95.2514 108.675 94.6365C108.414 94.3424 108.127 94.075 107.866 93.7809C107.657 93.5403 107.422 93.4333 107.082 93.4333C106.246 93.4601 105.384 93.4601 104.548 93.4333C103.294 93.4066 102.406 92.8184 101.962 91.6153C101.857 91.2945 101.701 91.1608 101.361 91.2143C101.204 91.241 101.047 91.2143 100.891 91.2143C89.8667 91.2143 78.8427 91.2143 67.8188 91.2143C67.5836 91.2143 67.3485 91.2143 67.1395 91.2143C65.5722 91.1608 64.266 90.1716 63.7958 88.6476C63.7435 88.5139 63.6913 88.407 63.639 88.2733C63.639 67.847 63.639 47.394 63.639 26.9677C63.6913 26.8875 63.7435 26.8073 63.7697 26.7271C64.1354 25.3903 64.9713 24.508 66.3036 24.1337C66.382 24.1069 66.4603 24.0535 66.5387 24C78.895 24 91.2774 24 103.634 24C104.313 24.2941 104.809 24.8288 105.332 25.3635C107.474 27.5826 109.616 29.8017 111.81 31.9673C112.568 32.7159 112.907 33.5447 112.907 34.6409C112.881 39.9614 112.881 45.2818 112.881 50.6023C112.881 50.7895 112.881 50.9766 112.881 51.1638C112.881 51.4044 113.012 51.4579 113.195 51.3776C113.534 51.244 113.874 51.0835 114.187 50.9231C115.624 50.228 117.087 50.1745 118.498 50.8964C119.308 51.2974 120.117 51.4579 121.006 51.4044C122.678 51.2974 124.036 51.9658 125.107 53.2759C125.551 53.8374 126.074 54.1849 126.727 54.3988C128.425 54.9335 129.548 56.0832 130.07 57.821C130.279 58.5429 130.671 59.1043 131.246 59.5856C132.03 60.2273 132.552 61.0828 132.839 62.072C133.022 62.7404 133.022 63.4088 133.022 64.104C132.996 64.5317 133.022 65.013 133.153 65.414C133.388 66.1626 133.728 66.8845 134.015 67.6064C134.015 68.1144 134.015 68.6491 134.015 69.1571C133.832 69.6918 133.675 70.28 133.414 70.788C133.075 71.4296 132.97 72.098 133.022 72.8199C133.048 73.2477 133.048 73.7022 132.996 74.1567C132.813 75.44 132.212 76.4827 131.22 77.3115C130.697 77.7661 130.305 78.274 130.123 78.9692C129.757 80.199 129.052 81.1883 127.981 81.8567C127.641 82.0706 127.641 82.1775 127.798 82.5251C128.216 83.4608 128.607 84.3966 128.999 85.3591C129.6 86.7761 130.227 88.1664 130.802 89.6101C131.298 90.8132 130.985 92.0698 130.044 92.8452C129.522 93.2729 128.921 93.4601 128.268 93.4868C127.615 93.4868 126.988 93.5403 126.361 93.4868C125.577 93.4066 125.029 93.674 124.506 94.2622C123.853 94.984 123.174 95.7059 122.181 96ZM65.9901 57.5804C65.9901 67.339 65.9901 77.1244 65.9901 86.883C65.9901 87.0969 65.9901 87.3108 65.9901 87.5247C66.0163 88.2733 66.4603 88.7278 67.1918 88.808C67.4008 88.8348 67.6098 88.808 67.8188 88.808C79.0517 88.808 90.3108 88.808 101.544 88.808C101.648 88.808 101.779 88.7813 101.883 88.808C102.223 88.8615 102.406 88.7011 102.563 88.3802C103.372 86.4285 104.208 84.4768 105.044 82.5251C105.227 82.0706 105.227 82.0706 104.861 81.8032C103.843 81.1348 103.137 80.199 102.798 79.0227C102.589 78.3008 102.197 77.7126 101.622 77.2581C100.917 76.6699 100.421 75.9213 100.107 75.039C99.8458 74.2636 99.7674 73.4883 99.8458 72.6862C99.8981 72.0713 99.8197 71.4831 99.5062 70.9216C98.618 69.2373 98.6441 67.5797 99.5062 65.8953C99.6891 65.521 99.7936 65.0665 99.8719 64.6387C99.9242 64.3446 99.8458 64.0238 99.8197 63.7297C99.7674 62.0186 100.368 60.6283 101.674 59.5321C102.197 59.1043 102.537 58.5964 102.745 57.9547C103.294 56.1367 104.443 54.9335 106.22 54.3988C106.795 54.2384 107.265 53.9443 107.631 53.4631C108.31 52.554 109.172 51.9391 110.243 51.6183C110.504 51.5381 110.556 51.4044 110.556 51.1638C110.556 50.736 110.556 50.3082 110.556 49.9072C110.556 45.0947 110.556 40.3089 110.556 35.4965C110.556 34.8013 110.609 34.8281 109.929 34.8281C108.649 34.8281 107.369 34.8013 106.089 34.8281C103.999 34.8815 102.301 33.2239 102.38 31.0316C102.432 29.775 102.38 28.4916 102.38 27.2351C102.38 26.2993 102.484 26.4062 101.596 26.4062C90.3108 26.4062 79.0256 26.4062 67.7404 26.4062C67.5575 26.4062 67.3747 26.4062 67.1918 26.4062C66.5387 26.4597 66.0946 26.9142 66.0424 27.5826C66.0163 27.8232 66.0424 28.0639 66.0424 28.2778C65.9901 38.0364 65.9901 47.8218 65.9901 57.5804ZM112.307 53.8374C112.228 53.8374 112.176 53.8374 112.098 53.8374C110.948 53.7037 110.06 54.1047 109.355 55.0405C108.754 55.8426 107.944 56.3773 106.977 56.6446C105.88 56.9655 105.201 57.6606 104.914 58.7568C104.626 59.7727 104.078 60.6283 103.268 61.27C102.406 61.9651 102.04 62.8741 102.171 63.997C102.301 65.013 102.119 65.9755 101.648 66.8578C101.074 67.9272 101.074 68.9165 101.648 69.9859C102.145 70.8949 102.301 71.8574 102.171 72.9001C102.04 73.9161 102.328 74.7984 103.137 75.4668C104.052 76.2154 104.679 77.1779 104.992 78.3275C105.253 79.2633 105.88 79.8247 106.768 80.1456C106.821 80.1723 106.899 80.1723 106.977 80.199C107.944 80.4931 108.754 81.0546 109.407 81.8299C109.511 81.9636 109.616 82.0706 109.72 82.2042C110.347 82.8459 111.079 83.1133 111.967 83.0331C112.463 82.9796 112.96 83.033 113.456 83.0598C114.057 83.1133 114.605 83.3806 115.128 83.648C115.964 84.1025 116.826 84.1292 117.688 83.6747C117.845 83.5945 118.001 83.4876 118.184 83.4341C118.994 83.0598 119.83 82.8459 120.718 82.9796C121.842 83.14 122.73 82.7657 123.435 81.8834C124.114 81.0279 124.976 80.4397 126.021 80.1456C126.988 79.8782 127.589 79.2365 127.876 78.2473C128.189 77.1244 128.79 76.2154 129.679 75.4935C130.462 74.8518 130.828 73.9696 130.697 72.9536C130.567 71.8307 130.776 70.7612 131.324 69.772C131.821 68.863 131.795 67.954 131.298 67.0182C130.776 66.029 130.567 64.9863 130.697 63.8366C130.828 62.8741 130.514 62.0186 129.757 61.4036C128.816 60.655 128.189 59.7193 127.876 58.5429C127.615 57.5804 126.988 56.9655 126.074 56.6981C124.95 56.3505 124.01 55.7089 123.278 54.7731C122.756 54.1047 122.077 53.7839 121.241 53.8106C121.032 53.8106 120.823 53.8106 120.614 53.8374C119.621 53.9176 118.707 53.7037 117.845 53.2224C116.904 52.6877 115.99 52.6877 115.05 53.2224C114.161 53.7037 113.247 53.9176 112.307 53.8374ZM126.57 91.0538C127.04 91.0538 127.536 91.0538 128.007 91.0538C128.66 91.0538 128.764 90.8934 128.529 90.2518C128.477 90.1448 128.451 90.0379 128.398 89.9309C127.563 87.9257 126.7 85.9473 125.865 83.9421C125.525 83.1133 125.525 83.1133 124.898 83.7817C123.853 84.9313 122.547 85.5195 121.032 85.3858C120.144 85.3056 119.36 85.4125 118.602 85.8671C118.158 86.1344 118.132 86.1077 118.341 86.5889C119.308 88.7545 120.274 90.9202 121.215 93.1125C121.241 93.166 121.267 93.2462 121.293 93.2997C121.502 93.6472 121.659 93.674 121.946 93.4601C122.051 93.3799 122.155 93.2729 122.233 93.166C122.704 92.6847 123.174 92.2035 123.644 91.7222C124.062 91.2945 124.584 91.0538 125.185 91.0538C125.656 91.0538 126.1 91.0538 126.57 91.0538ZM111.183 93.6472C111.288 93.567 111.392 93.5136 111.471 93.4333C111.549 93.3264 111.601 93.1927 111.654 93.059C112.594 90.9202 113.534 88.808 114.475 86.6691C114.527 86.5355 114.605 86.4018 114.632 86.2681C114.658 86.1879 114.605 86.0542 114.553 86.0275C113.822 85.6532 113.116 85.2254 112.228 85.3591C110.556 85.5997 109.12 85.0115 107.97 83.7817C107.84 83.648 107.735 83.4876 107.604 83.3539C107.395 83.14 107.343 83.1667 107.239 83.4341C106.977 84.0223 106.742 84.5837 106.507 85.1719C105.802 86.8296 105.097 88.4605 104.391 90.1181C104.052 90.8934 104.156 91.0538 105.018 91.0538C105.828 91.0538 106.612 91.0806 107.422 91.0538C108.205 91.0271 108.832 91.2945 109.381 91.8827C109.851 92.3906 110.347 92.8719 110.844 93.3799C110.896 93.4601 111.027 93.5403 111.183 93.6472ZM104.705 28.2778C104.705 29.2937 104.679 30.3097 104.705 31.2989C104.731 31.8871 105.175 32.3416 105.776 32.3684C106.768 32.4218 107.761 32.3684 108.754 32.3684C107.395 31.0316 106.063 29.668 104.705 28.2778Z" fill="#515151"/>
<path d="M88.2994 32.4218C91.0162 32.4218 93.7592 32.4218 96.476 32.4218C97.6776 32.4218 98.6442 32.9298 99.3495 33.9457C100.133 35.0687 100.212 36.2985 99.663 37.5551C99.0883 38.8384 98.0434 39.4801 96.685 39.6138C96.5543 39.6405 96.3976 39.6138 96.267 39.6138C90.9378 39.6138 85.6087 39.6138 80.2796 39.6138C79.0518 39.6138 78.033 39.186 77.3015 38.1968C76.4656 37.0471 76.3088 35.7905 76.9097 34.4805C77.5105 33.1971 78.5293 32.4485 79.94 32.4218C82.709 32.3951 85.5042 32.4218 88.2994 32.4218Z" fill="#515151"/>
<path d="M88.2472 46.8057C82.9703 46.8057 77.6673 46.8057 72.3904 46.8057C72.1814 46.8057 71.9724 46.8057 71.7634 46.8057C71.1626 46.7522 70.6924 46.2709 70.6663 45.656C70.6401 45.0678 71.0842 44.5331 71.6851 44.4261C71.8679 44.3994 72.0508 44.3994 72.2336 44.3994C82.918 44.3994 93.6024 44.3994 104.287 44.3994C104.444 44.3994 104.6 44.3994 104.757 44.3994C105.41 44.4796 105.828 45.0143 105.802 45.656C105.776 46.2709 105.332 46.7254 104.705 46.7789C104.496 46.8057 104.287 46.7789 104.078 46.7789C98.8271 46.8057 93.5502 46.8057 88.2472 46.8057Z" fill="#515151"/>
<path d="M87.0715 50.4152C91.9565 50.4152 96.8677 50.4152 101.753 50.4152C101.988 50.4152 102.223 50.4152 102.432 50.4152C103.007 50.4686 103.425 50.8697 103.477 51.4311C103.529 51.9926 103.242 52.5273 102.693 52.6877C102.406 52.7679 102.118 52.7947 101.805 52.7947C93.2627 52.7947 84.7465 52.7947 76.2042 52.7947C74.8458 52.7947 73.5135 52.7947 72.1551 52.7947C71.8939 52.7947 71.6066 52.7679 71.3453 52.661C70.849 52.4738 70.5616 51.9124 70.64 51.4044C70.7184 50.8697 71.1363 50.4686 71.6588 50.4152C71.8939 50.3884 72.1029 50.3884 72.338 50.3884C77.2753 50.4152 82.1865 50.4152 87.0715 50.4152Z" fill="#515151"/>
<path d="M84.1197 76.777C80.2273 76.777 76.335 76.777 72.4426 76.777C72.1814 76.777 71.9463 76.777 71.685 76.7502C71.1364 76.67 70.7185 76.2422 70.6662 75.6808C70.614 75.1461 70.9797 74.6113 71.5022 74.4777C71.7373 74.4242 71.9985 74.3975 72.2597 74.3975C80.2012 74.3975 88.1426 74.3975 96.0841 74.3975C96.3192 74.3975 96.5543 74.4242 96.7633 74.4777C97.3641 74.6381 97.6776 75.1193 97.6254 75.7343C97.5731 76.2957 97.1813 76.7235 96.6066 76.777C96.3714 76.8037 96.1625 76.8037 95.9274 76.8037C91.9828 76.777 88.0381 76.777 84.1197 76.777Z" fill="#515151"/>
<path d="M83.5971 68.4086C87.3327 68.4086 91.0684 68.4086 94.7779 68.4086C94.9868 68.4086 95.1958 68.4086 95.4048 68.4086C95.9795 68.462 96.3975 68.8631 96.4759 69.4245C96.5542 69.9593 96.2408 70.494 95.7183 70.6811C95.5093 70.7613 95.2742 70.7881 95.0391 70.7881C87.4111 70.7881 79.8093 70.7881 72.1813 70.7881C71.3715 70.7881 70.9535 70.5475 70.7706 69.9325C70.5355 69.2374 70.9535 68.5155 71.6588 68.4086C71.8939 68.3818 72.1029 68.3818 72.338 68.3818C76.0736 68.4086 79.8354 68.4086 83.5971 68.4086Z" fill="#515151"/>
<path d="M87.6725 64.7991C85.2953 64.7991 82.9181 64.7991 80.5408 64.7991C80.358 64.7991 80.1751 64.7991 79.9923 64.7991C79.3653 64.7456 78.9212 64.2643 78.8951 63.6494C78.869 63.0345 79.2869 62.5265 79.9139 62.4196C80.0967 62.3928 80.2796 62.3928 80.4625 62.3928C85.2953 62.3928 90.1281 62.3928 94.9347 62.3928C95.0915 62.3928 95.2482 62.3928 95.405 62.3928C96.0319 62.473 96.5021 63.0345 96.476 63.6494C96.4499 64.2643 95.9797 64.7189 95.3527 64.7723C95.1698 64.7991 94.987 64.7723 94.8041 64.7723C92.4269 64.7991 90.0497 64.7991 87.6725 64.7991Z" fill="#515151"/>
<path d="M78.3464 82.7926C76.3349 82.7926 74.3234 82.7926 72.312 82.7926C72.1291 82.7926 71.9462 82.7926 71.7634 82.7926C71.1625 82.7391 70.6923 82.2311 70.6662 81.6429C70.6401 81.0815 71.058 80.5468 71.6328 80.4398C71.8156 80.4131 71.9985 80.4131 72.1813 80.4131C76.2566 80.4131 80.3318 80.4131 84.3809 80.4131C84.616 80.4131 84.8772 80.4131 85.1123 80.4933C85.6609 80.6804 85.9483 81.1884 85.896 81.7499C85.8438 82.3113 85.4258 82.7124 84.8511 82.7926C84.6682 82.8193 84.4854 82.7926 84.3025 82.7926C82.3172 82.7926 80.3318 82.7926 78.3464 82.7926Z" fill="#515151"/>
<path d="M78.2681 58.7837C76.2827 58.7837 74.2973 58.7837 72.312 58.7837C72.0769 58.7837 71.8418 58.7837 71.6328 58.7569C71.1103 58.6767 70.7446 58.2222 70.6923 57.6875C70.6401 57.2063 70.9536 56.6715 71.3977 56.5111C71.6589 56.4309 71.9462 56.3774 72.2075 56.3774C76.3088 56.3774 80.384 56.3774 84.4854 56.3774C84.6944 56.3774 84.9034 56.4042 85.0862 56.4577C85.6348 56.6181 85.9483 57.0993 85.9222 57.6608C85.896 58.2222 85.5042 58.65 84.9295 58.7302C84.6944 58.7569 84.4854 58.7569 84.2503 58.7569C82.2388 58.7837 80.2534 58.7837 78.2681 58.7837Z" fill="#515151"/>
<path d="M93.524 58.7837C92.1917 58.7837 90.8595 58.7837 89.5533 58.7837C89.0308 58.7837 88.6129 58.5965 88.3777 58.0885C88.0904 57.4469 88.3777 56.6983 89.0308 56.4844C89.2921 56.4042 89.5794 56.3774 89.8406 56.3774C92.3224 56.3774 94.7779 56.3774 97.2596 56.3774C97.5209 56.3774 97.8082 56.4042 98.0695 56.4844C98.5658 56.6448 98.8532 57.1795 98.8009 57.6875C98.7487 58.2222 98.3829 58.65 97.8343 58.7302C97.6254 58.7569 97.4164 58.7569 97.2074 58.7569C96.0057 58.7837 94.7779 58.7837 93.524 58.7837Z" fill="#515151"/>
<path d="M73.6181 64.799C73.0434 64.799 72.4687 64.8257 71.9201 64.799C71.2148 64.7722 70.7185 64.291 70.6923 63.6493C70.6662 62.9809 71.1887 62.4462 71.9201 62.4195C73.0696 62.3927 74.1929 62.3927 75.3423 62.4195C76.0737 62.4462 76.5962 62.9809 76.5701 63.6493C76.5439 64.291 76.0476 64.7722 75.3423 64.799C75.29 64.799 75.2639 64.799 75.2117 64.799C74.6631 64.799 74.1406 64.799 73.6181 64.799Z" fill="#515151"/>
<path d="M128.111 68.3816C128.163 74.9052 122.965 80.3861 116.382 80.3861C109.773 80.3593 104.626 74.825 104.679 68.2747C104.731 62.1789 109.511 56.3772 116.486 56.4039C123.409 56.4574 128.19 62.3126 128.111 68.3816Z" fill="#515151"/>
<path d="M88.3255 34.8281C85.7393 34.8281 83.1532 34.8281 80.567 34.8281C80.358 34.8281 80.149 34.8281 79.94 34.8281C79.3914 34.8816 78.9996 35.2559 78.8951 35.7906C78.7906 36.3253 79.0779 36.8868 79.6004 37.1007C79.8355 37.1809 80.0967 37.2076 80.3318 37.2076C85.5826 37.2076 90.8595 37.2076 96.1103 37.2076C96.267 37.2076 96.4237 37.2076 96.5805 37.1809C97.2336 37.0739 97.6254 36.566 97.5732 35.8976C97.5209 35.2826 97.1029 34.8549 96.4499 34.8281C96.267 34.8281 96.0841 34.8281 95.9013 34.8281C93.3935 34.8281 90.8595 34.8281 88.3255 34.8281Z" fill="#FFDA2F"/>
<path d="M116.356 58.8102C111 58.8102 106.664 63.489 107.056 69.1036C107.395 74.0764 111.549 78.274 116.904 77.9799C122.207 77.7125 126.126 73.0605 125.76 67.74C125.42 62.6869 121.267 58.7835 116.356 58.8102Z" fill="#FFDA2F"/>
<path d="M121.084 65.8953C121.084 66.4301 120.875 66.7509 120.614 67.0183C119.908 67.7401 119.177 68.462 118.472 69.2106C117.401 70.3068 116.33 71.403 115.259 72.4991C115.128 72.6328 114.997 72.7665 114.867 72.9002C114.318 73.3814 113.743 73.3547 113.195 72.8467C112.803 72.4724 112.437 72.0981 112.072 71.6971C111.575 71.1623 111.601 70.4672 112.045 69.986C112.49 69.5314 113.116 69.5047 113.665 69.9592C113.743 70.0127 113.796 70.0929 113.874 70.1464C114.005 70.28 114.109 70.28 114.214 70.1464C114.318 70.0394 114.449 69.9057 114.553 69.7988C115.964 68.3551 117.375 66.9113 118.785 65.4676C118.942 65.3072 119.099 65.12 119.308 65.0131C119.673 64.7724 120.091 64.7724 120.483 64.9863C120.875 65.2269 121.058 65.5745 121.084 65.8953Z" fill="#515151"/>
</svg>
