<svg width="74" height="70" viewBox="0 0 74 70" fill="none" xmlns="http://www.w3.org/2000/svg">
<rect x="3.25" width="70" height="70" fill="#2F455A"/>
<path d="M41.9189 15.8724C46.992 15.8724 51.8572 17.8877 55.4444 21.4749C59.0316 25.062 61.0468 29.9273 61.0468 35.0003C61.0468 40.0734 59.0316 44.9386 55.4444 48.5258C51.8572 52.113 46.992 54.1282 41.9189 54.1282L41.9189 35.0003V15.8724Z" fill="white"/>
<path d="M30.5303 15.8724C35.6033 15.8724 40.4685 17.8877 44.0557 21.4749C47.6429 25.062 49.6582 29.9273 49.6582 35.0003C49.6582 40.0734 47.6429 44.9386 44.0557 48.5258C40.4685 52.113 35.6033 54.1282 30.5303 54.1282L30.5303 35.0003L30.5303 15.8724Z" fill="#EF9C00"/>
<path d="M19.1279 15.8724C24.2009 15.8724 29.0662 17.8877 32.6534 21.4749C36.2406 25.062 38.2558 29.9273 38.2558 35.0003C38.2558 40.0734 36.2406 44.9386 32.6534 48.5258C29.0662 52.113 24.2009 54.1282 19.1279 54.1282L19.1279 35.0003L19.1279 15.8724Z" fill="white"/>
</svg>
