<?xml version="1.0" encoding="UTF-8" standalone="no"?>
<svg width="456" height="456" viewBox="-80 0 330 180" version="1.1" xmlns="http://www.w3.org/2000/svg" >
<path d="M37.6594 68.2136H37.7357L37.9585 68.5121C41.3804 65.9581 45.1361 64.1108 49.2282 62.9685L49.2282 62.9685L49.2333 62.967C53.3876 61.7589 57.6068 61.4235 61.8946 61.9603C66.116 62.4973 70.1025 63.8393 73.8579 65.9887L73.8579 65.9888L73.8638 65.9921C77.6144 68.0716 80.7941 70.8207 83.4066 74.2425C85.4842 76.9954 87.0929 80.0165 88.233 83.3076L88.234 83.3107C89.374 86.5344 90.0108 89.8582 90.1454 93.2838C90.2119 96.0328 89.9105 98.7126 89.242 101.325L89.2418 101.325L89.2391 101.337C88.6357 103.956 87.7307 106.474 86.5238 108.893C85.3181 111.241 83.8102 113.456 81.9984 115.54L81.9976 115.541C80.2574 117.552 78.2487 119.329 75.9697 120.874C71.2089 124.098 65.9835 125.943 60.286 126.414C54.5878 126.816 49.162 125.81 44.0004 123.393C41.5206 122.185 39.2083 120.708 37.0629 118.963C34.985 117.149 33.1419 115.135 31.5331 112.919C29.9909 110.702 28.6824 108.317 27.6079 105.762C26.6045 103.147 25.9694 100.466 25.7018 97.719L25.702 97.719L25.7003 97.7056C25.6336 97.1709 25.5668 96.6683 25.5 96.1981V96.1952V96.192V96.1888V96.1856V96.1824V96.1792V96.176V96.1728V96.1696V96.1664V96.1632V96.16V96.1568V96.1536V96.1505V96.1473V96.1441V96.1409V96.1377V96.1345V96.1313V96.1281V96.1249V96.1217V96.1185V96.1153V96.1121V96.1089V96.1057V96.1025V96.0993V96.0961V96.0929V96.0897V96.0865V96.0833V96.0801V96.0769V96.0737V96.0705V96.0673V96.0642V96.061V96.0578V96.0546V96.0514V96.0482V96.045V96.0418V96.0386V96.0354V96.0322V96.029V96.0258V96.0226V96.0194V96.0162V96.013V96.0098V96.0066V96.0034V96.0002V95.997V95.9938V95.9906V95.9874V95.9843V95.9811V95.9779V95.9747V95.9715V95.9683V95.9651V95.9619V95.9587V95.9555V95.9523V95.9491V95.9459V95.9427V95.9395V95.9363V95.9331V95.9299V95.9267V95.9235V95.9203V95.9171V95.9139V95.9107V95.9076V95.9044V95.9012V95.898V95.8948V95.8916V95.8884V95.8852V95.882V95.8788V95.8756V95.8724V95.8692V95.866V95.8628V95.8596V95.8564V95.8532V95.85V95.8468V95.8436V95.8404V95.8372V95.8341V95.8309V95.8277V95.8245V95.8213V95.8181V95.8149V95.8117V95.8085V95.8053V95.8021V95.7989V95.7957V95.7925V95.7893V95.7861V95.7829V95.7797V95.7765V95.7733V95.7701V95.7669V95.7637V95.7606V95.7574V95.7542V95.751V95.7478V95.7446V95.7414V95.7382V95.735V95.7318V95.7286V95.7254V95.7222V95.719V95.7158V95.7126V95.7094V95.7062V95.703V95.6998V95.6966V95.6935V95.6903V95.6871V95.6839V95.6807V95.6775V95.6743V95.6711V95.6679V95.6647V95.6615V95.6583V95.6551V95.6519V95.6487V95.6455V95.6423V95.6391V95.6359V95.6327V95.6295V95.6263V95.6232V95.62V95.6168V95.6136V95.6104V95.6072V95.604V95.6008V95.5976V95.5944V95.5912V95.588V95.5848V95.5816V95.5784V95.5752V95.572V95.5688V95.5656V95.5624V95.5592V95.5561V95.5529V95.5497V95.5465V95.5433V95.5401V95.5369V95.5337V95.5305V95.5273V95.5241V95.5209V95.5177V95.5145V95.5113V95.5081V95.5049V95.5017V95.4985V95.4953V95.4921V95.489V95.4858V95.4826V95.4794V95.4762V95.473V95.4698V95.4666V95.4634V95.4602V95.457V95.4538V95.4506V95.4474V95.4442V95.441V95.4378V95.4346V95.4314V95.4282V95.425V95.4219V95.4187V95.4155V95.4123V95.4091V95.4059V95.4027V95.3995V95.3963V95.3931V95.3899V95.3867V95.3835V95.3803V95.3771V95.3739V95.3707V95.3675V95.3643V95.3611V95.3579V95.3548V95.3516V95.3484V95.3452V95.342V95.3388V95.3356V95.3324V95.3292V95.326V95.3228V95.3196V95.3164V95.3132V95.31V95.3068V95.3036V95.3004V95.2972V95.294V95.2908V95.2877V95.2845V95.2813V95.2781V95.2749V95.2717V95.2685V95.2653V95.2621V95.2589V95.2557V95.2525V95.2493V95.2461V95.2429V95.2397V95.2365V95.2333V95.2301V95.2269V95.2237V95.2206V95.2174V95.2142V95.211V95.2078V95.2046V95.2014V95.1982V95.195V95.1918V95.1886V95.1854V95.1822V95.179V95.1758V95.1726V95.1694V95.1662V95.163V95.1598V95.1566V95.1535V95.1503V95.1471V95.1439V95.1407V95.1375V95.1343V95.1311V95.1279V95.1247V95.1215V95.1183V95.1151V95.1119V95.1087V95.1055V95.1023V95.0991V95.0959V95.0927V95.0895V95.0863V95.0832V95.08V95.0768V95.0736V95.0704V95.0672V95.064V95.0608V95.0576V95.0544V95.0512V95.048V95.0448V95.0416V95.0384V95.0352V95.032V95.0288V95.0256V95.0224V95.0192V95.016V95.0129V95.0097V95.0065V95.0033V95.0001V94.9969V94.9937V94.9905V94.9873V94.9841V94.9809V94.9777V94.9745V94.9713V94.9681V94.9649V94.9617V94.9585V94.9553V94.9521V94.9489V94.9457V94.9425V94.9394V94.9362V94.933V94.9298V94.9266V94.9234V94.9202V94.917V94.9138V94.9106V94.9074V94.9042V94.901V94.8978V94.8946V94.8914V94.8882V94.885V94.8818V94.8786V94.8754V94.8722V94.869V94.8658V94.8627V94.8595V94.8563V94.8531V94.8499V94.8467V94.8435V94.8403V94.8371V94.8339V94.8307V94.8275V94.8243V94.8211V94.8179V94.8147V94.8115V94.8083V94.8051V94.8019V94.7987V94.7955V94.7923V94.7891V94.7859V94.7828V94.7796V94.7764V94.7732V94.77V94.7668V94.7636V94.7604V94.7572V94.754V94.7508V94.7476V94.7444V94.7412V94.738V94.7348V94.7316V94.7284V94.7252V94.722V94.7188V94.7156V94.7124V94.7092V94.706V94.7028V94.6996V94.6965V94.6933V94.6901V94.6869V94.6837V94.6805V94.6773V94.6741V94.6709V94.6677V94.6645V94.6613V94.6581V94.6549V94.6517V94.6485V94.6453V94.6421V94.6389V94.6357V94.6325V94.6293V94.6261V94.6229V94.6197V94.6165V94.6133V94.6101V94.607V94.6038V94.6006V94.5974V93.2679V51.3403C25.5 49.6969 26.0623 48.3251 27.1915 47.194C28.3207 46.0629 29.6898 45.5 31.3297 45.5C32.9696 45.5 34.3387 46.0629 35.4679 47.194C36.5971 48.3251 37.1594 49.6969 37.1594 51.3403V67.8606V68.1113V68.2136H37.6594ZM50.8197 113.764L51.2181 113.963L51.2415 113.975L51.266 113.984L52.0828 114.291L52.8894 114.594L52.8995 114.598L53.0023 114.333C56.3295 115.165 59.7358 115.087 63.2125 114.1C65.5806 113.472 67.7439 112.459 69.6978 111.062C71.7191 109.665 73.4275 107.953 74.8221 105.929C77.6108 102.016 78.8323 97.6077 78.4848 92.7253C78.3446 90.14 77.7161 87.6912 76.5995 85.3831C75.4868 83.0153 74.0249 80.9231 72.2141 79.1092L72.2071 79.1022L72.1997 79.0954C71.2922 78.2561 70.3139 77.5209 69.2659 76.8904C68.2985 76.268 67.2641 75.6813 66.1629 75.1295L66.1532 75.1247L66.1434 75.1202C63.4936 73.9329 60.7359 73.3381 57.8736 73.3381C55.016 73.3381 52.2615 73.897 49.6141 75.0136L49.614 75.0134L49.6039 75.018C46.9575 76.204 44.6564 77.8449 42.7045 79.9397C40.7541 82.033 39.2893 84.4078 38.3132 87.0619L38.3131 87.0619L38.3108 87.0683C37.0566 90.628 36.7774 94.2622 37.4743 97.9623L37.4743 97.9623L37.4761 97.9712C38.2416 101.666 39.844 104.946 42.2804 107.806C44.1601 110.037 46.3923 111.718 48.9742 112.84C49.5885 113.181 50.2037 113.489 50.8197 113.764Z" fill="white" stroke="white"/>
<path d="M106.929 79.7579C108.451 79.7579 109.81 80.227 110.777 80.9618C111.745 81.6965 112.299 82.6749 112.299 83.7159V122.352C112.299 123.393 111.745 124.372 110.777 125.106C109.81 125.841 108.451 126.31 106.929 126.31C105.407 126.31 104.048 125.841 103.08 125.106C102.113 124.372 101.559 123.393 101.559 122.352V83.7159C101.559 82.6749 102.113 81.6965 103.08 80.9618C104.048 80.227 105.407 79.7579 106.929 79.7579Z" fill="white" stroke="white"/>
<path d="M112.299 67.2421C112.299 70.2142 109.894 72.6222 106.929 72.6222C103.964 72.6222 101.559 70.2142 101.559 67.2421C101.559 64.27 103.964 61.862 106.929 61.862C109.894 61.862 112.299 64.27 112.299 67.2421Z" fill="white" stroke="white"/>
<path d="M131.431 61.862C134.157 61.862 136.291 63.8763 136.291 66.2706V121.901C136.291 124.296 134.157 126.31 131.431 126.31C128.705 126.31 126.571 124.296 126.571 121.901V66.2706C126.571 63.8763 128.705 61.862 131.431 61.862Z" fill="white" stroke="white"/>
<path d="M122.498 79.8602H140.875C144.045 79.8602 146.5 82.1 146.5 84.729C146.5 87.3581 144.045 89.5978 140.875 89.5978H122.498C119.327 89.5978 116.872 87.3581 116.872 84.729C116.872 82.1 119.327 79.8602 122.498 79.8602Z" fill="white" stroke="white"/>
</svg>