<svg width="81" height="114" viewBox="0 0 81 114" fill="none" xmlns="http://www.w3.org/2000/svg">
<path d="M54.85 77C71.5 60.2 79.9 47.9 79.9 34.55C79.9 24.8 76.3 16.55 69.1 10.1C62.05 3.5 53.05 0.199995 42.25 0.199995C27.1 0.199995 13.3 6.35 0.7 18.65L15.7 38.75C24.55 30.8 32.5 26.75 39.25 26.75C45.7 26.75 50.8 31.1 50.8 37.25C50.8 39.2 50.5 41 49.3 43.25C48.1 45.2 47.8 46.1 45.85 48.5C43.9 50.75 43.9 50.75 41.5 53.15L39.4 55.25L5.8 89.9V113.15H80.5V87.5H44.65L54.85 77Z" fill="white"/>
<path d="M54.85 77L54.1397 76.296L54.1327 76.3032L54.85 77ZM69.1 10.1L68.4166 10.83L68.4246 10.8375L68.4328 10.8448L69.1 10.1ZM0.7 18.65L0.00146341 17.9344L-0.625229 18.5462L-0.101433 19.2481L0.7 18.65ZM15.7 38.75L14.8986 39.3481L15.5536 40.2258L16.3683 39.4939L15.7 38.75ZM49.3 43.25L50.1517 43.7741L50.1678 43.7478L50.1824 43.7206L49.3 43.25ZM45.85 48.5L46.6057 49.1549L46.6161 49.1429L46.6261 49.1306L45.85 48.5ZM39.4 55.25L38.6929 54.5429L38.6875 54.5483L38.6821 54.5538L39.4 55.25ZM5.8 89.9L5.0821 89.2039L4.8 89.4948V89.9H5.8ZM5.8 113.15H4.8V114.15H5.8V113.15ZM80.5 113.15V114.15H81.5V113.15H80.5ZM80.5 87.5H81.5V86.5H80.5V87.5ZM44.65 87.5L43.9327 86.8032L42.2844 88.5H44.65V87.5ZM55.5603 77.7039C72.2055 60.9088 80.9 48.3469 80.9 34.55H78.9C78.9 47.4531 70.7945 59.4912 54.1397 76.2961L55.5603 77.7039ZM80.9 34.55C80.9 24.5235 77.1848 16 69.7673 9.35516L68.4328 10.8448C75.4152 17.1 78.9 25.0765 78.9 34.55H80.9ZM69.7834 9.36997C62.5244 2.57425 53.2692 -0.800007 42.25 -0.800007V1.19999C52.8308 1.19999 61.5757 4.42575 68.4166 10.83L69.7834 9.36997ZM42.25 -0.800007C26.7953 -0.800007 12.7545 5.48502 0.00146341 17.9344L1.39854 19.3656C13.8455 7.21497 27.4047 1.19999 42.25 1.19999V-0.800007ZM-0.101433 19.2481L14.8986 39.3481L16.5014 38.1519L1.50143 18.0519L-0.101433 19.2481ZM16.3683 39.4939C25.1617 31.5947 32.8762 27.75 39.25 27.75V25.75C32.1238 25.75 23.9383 30.0053 15.0317 38.0061L16.3683 39.4939ZM39.25 27.75C45.2584 27.75 49.8 31.7568 49.8 37.25H51.8C51.8 30.4432 46.1416 25.75 39.25 25.75V27.75ZM49.8 37.25C49.8 39.0618 49.5291 40.6955 48.4176 42.7794L50.1824 43.7206C51.4709 41.3045 51.8 39.3382 51.8 37.25H49.8ZM48.4483 42.7259C47.1968 44.7596 46.969 45.537 45.0739 47.8694L46.6261 49.1306C48.631 46.663 49.0032 45.6404 50.1517 43.7741L48.4483 42.7259ZM45.0943 47.8451C43.1619 50.0748 43.1784 50.0574 40.7929 52.4429L42.2071 53.8571C44.6216 51.4426 44.6382 51.4252 46.6057 49.1549L45.0943 47.8451ZM40.7929 52.4429L38.6929 54.5429L40.1071 55.9571L42.2071 53.8571L40.7929 52.4429ZM38.6821 54.5538L5.0821 89.2039L6.5179 90.5961L40.1179 55.9461L38.6821 54.5538ZM4.8 89.9V113.15H6.8V89.9H4.8ZM5.8 114.15H80.5V112.15H5.8V114.15ZM81.5 113.15V87.5H79.5V113.15H81.5ZM80.5 86.5H44.65V88.5H80.5V86.5ZM45.3673 88.1968L55.5673 77.6968L54.1327 76.3032L43.9327 86.8032L45.3673 88.1968Z" fill="#E1E1E1"/>
</svg>
