<svg width="88" height="88" viewBox="0 0 88 88" fill="none" xmlns="http://www.w3.org/2000/svg">
<g clip-path="url(#clip0_2716_2021)">
<path d="M10.1118 86.36L1.91309 78.9812L10.1118 71.6023H74.1988V86.36H10.1118Z" fill="white"/>
<path d="M75.5652 87.7265H9.70186L0 78.9812L9.70186 70.2358H75.7019V87.7265H75.5652ZM10.6584 84.9936H72.8323V72.9688H10.6584L3.96273 78.9812L10.6584 84.9936Z" fill="#141414"/>
<path d="M11.8881 81.5776L9.70178 78.9813L11.8881 76.385H74.1987V81.5776H11.8881Z" fill="#F56565"/>
<path d="M74.1987 71.6023V86.36H83.9006C85.4037 86.36 86.6335 85.1302 86.6335 83.6271V74.3352C86.6335 72.8321 85.4037 71.6023 83.9006 71.6023H74.1987Z" fill="#38B2AC"/>
<path d="M83.9006 87.7265H72.8323V70.2358H83.9006C86.2236 70.2358 88 72.0122 88 74.3352V83.6272C88 85.9501 86.2236 87.7265 83.9006 87.7265ZM75.5652 84.9936H83.9006C84.7205 84.9936 85.2671 84.447 85.2671 83.6272V74.3352C85.2671 73.5153 84.7205 72.9688 83.9006 72.9688H75.5652V84.9936Z" fill="#141414"/>
<path d="M58.8944 14.3482H70.9193V7.65256C70.9193 4.37306 68.1863 1.64014 64.9068 1.64014C61.6273 1.64014 58.8944 4.37306 58.8944 7.65256V14.3482Z" fill="white"/>
<path d="M72.2857 15.7147H57.528V7.65256C57.528 3.55319 60.8075 0.273682 64.9068 0.273682C69.0062 0.273682 72.2857 3.55319 72.2857 7.65256V15.7147ZM60.2609 12.9818H69.5528V7.65256C69.5528 5.05629 67.5031 3.0066 64.9068 3.0066C62.3106 3.0066 60.2609 5.05629 60.2609 7.65256V12.9818Z" fill="#141414"/>
<path d="M8.06215 1.64014H58.8944H64.9069C61.6274 1.64014 58.8944 4.37306 58.8944 7.65256V14.3482V63.1308H1.91309V7.65256C1.91309 4.37306 4.64601 1.64014 8.06215 1.64014Z" fill="white"/>
<path d="M60.2609 64.4973H0.546631V7.65256C0.546631 3.55319 3.82613 0.273682 7.92551 0.273682H64.9069V3.0066C62.3106 3.0066 60.2609 5.05629 60.2609 7.65256V64.4973ZM3.27955 61.7644H57.528V7.65256C57.528 5.87617 58.2112 4.23641 59.1677 3.0066H8.06216C5.46589 3.0066 3.27955 5.05629 3.27955 7.65256V61.7644Z" fill="#141414"/>
<path d="M7.37891 57.665V7.65254C7.37891 7.37925 7.6522 7.10596 8.06214 7.10596H53.4286C53.4286 7.2426 53.4286 7.5159 53.4286 7.65254V57.665H7.37891Z" fill="#FFDA2F"/>
<path d="M58.3478 66.5466C67.102 66.5466 74.1987 59.4499 74.1987 50.6957C74.1987 41.9414 67.102 34.8447 58.3478 34.8447C49.5935 34.8447 42.4968 41.9414 42.4968 50.6957C42.4968 59.4499 49.5935 66.5466 58.3478 66.5466Z" fill="white"/>
<path d="M58.3478 67.9131C48.9192 67.9131 41.1304 60.1242 41.1304 50.6957C41.1304 41.2671 48.9192 33.4783 58.3478 33.4783C67.7763 33.4783 75.5652 41.2671 75.5652 50.6957C75.5652 60.1242 67.913 67.9131 58.3478 67.9131ZM58.3478 36.2112C50.4223 36.2112 43.8633 42.7702 43.8633 50.6957C43.8633 58.6211 50.4223 65.1801 58.3478 65.1801C66.2732 65.1801 72.8322 58.6211 72.8322 50.6957C72.8322 42.7702 66.4099 36.2112 58.3478 36.2112Z" fill="#141414"/>
<path d="M37.851 15.5774H35.118V18.3103H37.851V15.5774Z" fill="#141414"/>
<path d="M31.1553 15.5774H28.4224V18.3103H31.1553V15.5774Z" fill="#141414"/>
<path d="M24.323 15.5774H21.5901V18.3103H24.323V15.5774Z" fill="#141414"/>
<path d="M17.6273 15.5774H14.8944V18.3103H17.6273V15.5774Z" fill="#141414"/>
<path d="M37.8509 24.323H14.8944V27.0559H37.8509V24.323Z" fill="#141414"/>
<path d="M37.8509 31.8386H14.8944V34.5715H37.8509V31.8386Z" fill="#141414"/>
<path d="M37.8509 39.2173H14.8944V41.9502H37.8509V39.2173Z" fill="#141414"/>
<path d="M53.8385 59.3042L48.5093 50.4222L50.9689 49.0558L54.385 54.9316L66.1366 43.3167L68.0496 45.2297L53.8385 59.3042Z" fill="#141414"/>
</g>
<defs>
<clipPath id="clip0_2716_2021">
<rect width="88" height="88" fill="white"/>
</clipPath>
</defs>
</svg>
