<svg width="90" height="111" viewBox="0 0 90 111" fill="none" xmlns="http://www.w3.org/2000/svg">
<path d="M77.85 64.2V0.149997H56.1L0.15 68.55L5.55 87H52.05V111H77.85V87H89.4V64.2H77.85ZM52.05 36.15V64.2H29.55L52.05 36.15Z" fill="#F8F8F8"/>
<path d="M77.85 64.2H76.85V65.2H77.85V64.2ZM77.85 0.149998H78.85V-0.850002H77.85V0.149998ZM56.1 0.149998V-0.850002H55.626L55.326 -0.48315L56.1 0.149998ZM0.15 68.55L-0.624033 67.9169L-0.957827 68.3249L-0.809737 68.8309L0.15 68.55ZM5.55 87L4.59026 87.2809L4.80073 88H5.55V87ZM52.05 87H53.05V86H52.05V87ZM52.05 111H51.05V112H52.05V111ZM77.85 111V112H78.85V111H77.85ZM77.85 87V86H76.85V87H77.85ZM89.4 87V88H90.4V87H89.4ZM89.4 64.2H90.4V63.2H89.4V64.2ZM52.05 36.15H53.05V33.3052L51.2699 35.5243L52.05 36.15ZM52.05 64.2V65.2H53.05V64.2H52.05ZM29.55 64.2L28.7699 63.5743L27.4659 65.2H29.55V64.2ZM78.85 64.2V0.149998H76.85V64.2H78.85ZM77.85 -0.850002H56.1V1.15H77.85V-0.850002ZM55.326 -0.48315L-0.624033 67.9169L0.924033 69.1831L56.874 0.783142L55.326 -0.48315ZM-0.809737 68.8309L4.59026 87.2809L6.50974 86.7191L1.10974 68.2691L-0.809737 68.8309ZM5.55 88H52.05V86H5.55V88ZM51.05 87V111H53.05V87H51.05ZM52.05 112H77.85V110H52.05V112ZM78.85 111V87H76.85V111H78.85ZM77.85 88H89.4V86H77.85V88ZM90.4 87V64.2H88.4V87H90.4ZM89.4 63.2H77.85V65.2H89.4V63.2ZM51.05 36.15V64.2H53.05V36.15H51.05ZM52.05 63.2H29.55V65.2H52.05V63.2ZM30.3301 64.8257L52.8301 36.7757L51.2699 35.5243L28.7699 63.5743L30.3301 64.8257Z" fill="#E1E1E1"/>
</svg>
