<svg width="58" height="111" viewBox="0 0 58 111" fill="none" xmlns="http://www.w3.org/2000/svg">
<path d="M0.8 28.2L14.6 48.3L30.5 36.75V111H57.5V0.149997H37.4L0.8 28.2Z" fill="white"/>
<path d="M0.8 28.2L0.191705 27.4063L-0.561576 27.9836L-0.0244009 28.766L0.8 28.2ZM14.6 48.3L13.7756 48.866L14.3569 49.7126L15.1877 49.1091L14.6 48.3ZM30.5 36.75H31.5V34.7876L29.9123 35.9409L30.5 36.75ZM30.5 111H29.5V112H30.5V111ZM57.5 111V112H58.5V111H57.5ZM57.5 0.149998H58.5V-0.850002H57.5V0.149998ZM37.4 0.149998V-0.850002H37.0609L36.7917 -0.643715L37.4 0.149998ZM-0.0244009 28.766L13.7756 48.866L15.4244 47.734L1.6244 27.634L-0.0244009 28.766ZM15.1877 49.1091L31.0877 37.5591L29.9123 35.9409L14.0123 47.4909L15.1877 49.1091ZM29.5 36.75V111H31.5V36.75H29.5ZM30.5 112H57.5V110H30.5V112ZM58.5 111V0.149998H56.5V111H58.5ZM57.5 -0.850002H37.4V1.15H57.5V-0.850002ZM36.7917 -0.643715L0.191705 27.4063L1.40829 28.9937L38.0083 0.943707L36.7917 -0.643715Z" fill="#1C5BFF"/>
</svg>
