<svg width="80" height="115" viewBox="0 0 80 115" fill="none" xmlns="http://www.w3.org/2000/svg">
<path d="M37.7 114.8C50 114.8 60.05 111.65 67.7 105.5C75.35 99.35 79.25 91.25 79.25 81.35C79.25 68 71.45 57.05 57.5 53.9V53.3C67.85 49.55 75.8 40.55 75.8 29C75.8 20.75 72.35 14 65.3 8.45C58.25 2.9 49.7 0.199995 39.65 0.199995C25.4 0.199995 13.1 4.85 2.6 14.15L15.65 34.25C23.45 29 30.2 26.45 35.75 26.45C42.8 26.45 47.75 30.05 47.75 35.6C47.75 41 42.8 44.9 34.25 44.9H23.3V69.8H37.7C45.35 69.8 50.3 73.7 50.3 79.1C50.3 85.1 44.9 89.15 35.75 89.15C28.25 89.15 20.15 86.6 11.3 81.65L0.05 103.85C12.2 111.2 24.65 114.8 37.7 114.8Z" fill="white"/>
<path d="M67.7 105.5L68.3266 106.279L67.7 105.5ZM57.5 53.9H56.5V54.6994L57.2797 54.8754L57.5 53.9ZM57.5 53.3L57.1594 52.3598L56.5 52.5987V53.3H57.5ZM65.3 8.45L65.9186 7.66426L65.3 8.45ZM2.6 14.15L1.93696 13.4014L1.29237 13.9723L1.76127 14.6945L2.6 14.15ZM15.65 34.25L14.8113 34.7945L15.3649 35.6473L16.2084 35.0796L15.65 34.25ZM23.3 44.9V43.9H22.3V44.9H23.3ZM23.3 69.8H22.3V70.8H23.3V69.8ZM11.3 81.65L11.7882 80.7772L10.8789 80.2687L10.408 81.198L11.3 81.65ZM0.0500001 103.85L-0.842003 103.398L-1.26134 104.225L-0.467599 104.706L0.0500001 103.85ZM37.7 115.8C50.1726 115.8 60.4602 112.603 68.3266 106.279L67.0734 104.721C59.6398 110.697 49.8274 113.8 37.7 113.8V115.8ZM68.3266 106.279C76.2127 99.9395 80.25 91.5528 80.25 81.35H78.25C78.25 90.9472 74.4873 98.7605 67.0734 104.721L68.3266 106.279ZM80.25 81.35C80.25 67.5645 72.1566 56.1844 57.7203 52.9246L57.2797 54.8754C70.7434 57.9156 78.25 68.4355 78.25 81.35H80.25ZM58.5 53.9V53.3H56.5V53.9H58.5ZM57.8407 54.2402C68.4973 50.3791 76.8 41.0584 76.8 29H74.8C74.8 40.0416 67.2027 48.7209 57.1594 52.3598L57.8407 54.2402ZM76.8 29C76.8 20.4138 73.1851 13.3847 65.9186 7.66426L64.6814 9.23573C71.5149 14.6153 74.8 21.0862 74.8 29H76.8ZM65.9186 7.66426C58.667 1.95557 49.89 -0.800007 39.65 -0.800007V1.19999C49.51 1.19999 57.833 3.84442 64.6814 9.23573L65.9186 7.66426ZM39.65 -0.800007C25.1586 -0.800007 12.622 3.93755 1.93696 13.4014L3.26304 14.8986C13.578 5.76245 25.6414 1.19999 39.65 1.19999V-0.800007ZM1.76127 14.6945L14.8113 34.7945L16.4887 33.7054L3.43873 13.6054L1.76127 14.6945ZM16.2084 35.0796C23.9359 29.8783 30.4871 27.45 35.75 27.45V25.45C29.9129 25.45 22.9641 28.1217 15.0916 33.4204L16.2084 35.0796ZM35.75 27.45C39.1159 27.45 41.8883 28.3104 43.7926 29.7429C45.6741 31.1582 46.75 33.1563 46.75 35.6H48.75C48.75 32.4937 47.3509 29.9168 44.9949 28.1446C42.6617 26.3896 39.4341 25.45 35.75 25.45V27.45ZM46.75 35.6C46.75 37.9574 45.6848 39.9876 43.6244 41.4617C41.5372 42.955 38.3865 43.9 34.25 43.9V45.9C38.6635 45.9 42.2628 44.895 44.7881 43.0883C47.3402 41.2624 48.75 38.6426 48.75 35.6H46.75ZM34.25 43.9H23.3V45.9H34.25V43.9ZM22.3 44.9V69.8H24.3V44.9H22.3ZM23.3 70.8H37.7V68.8H23.3V70.8ZM37.7 70.8C41.3648 70.8 44.2876 71.7349 46.2677 73.2242C48.2291 74.6994 49.3 76.7371 49.3 79.1H51.3C51.3 76.0629 49.8959 73.4506 47.4698 71.6258C45.0624 69.8151 41.6852 68.8 37.7 68.8V70.8ZM49.3 79.1C49.3 81.7603 48.1202 83.9745 45.8791 85.5584C43.6062 87.1647 40.1928 88.15 35.75 88.15V90.15C40.4572 90.15 44.3188 89.1103 47.0334 87.1916C49.7798 85.2505 51.3 82.4397 51.3 79.1H49.3ZM35.75 88.15C28.477 88.15 20.547 85.6763 11.7882 80.7772L10.8118 82.5228C19.753 87.5237 28.023 90.15 35.75 90.15V88.15ZM10.408 81.198L-0.842003 103.398L0.942003 104.302L12.192 82.102L10.408 81.198ZM-0.467599 104.706C11.8257 112.142 24.4531 115.8 37.7 115.8V113.8C24.8469 113.8 12.5743 110.258 0.567599 102.994L-0.467599 104.706Z" fill="#E1E1E1"/>
</svg>
