<svg width="87" height="87" viewBox="0 0 87 87" fill="none" xmlns="http://www.w3.org/2000/svg">
<path d="M9.99695 85.3788L1.89136 78.0837L9.99695 70.7887H73.3556V85.3788H9.99695Z" fill="white"/>
<path d="M74.7065 86.7297H9.59161L0 78.0837L9.59161 69.4377H74.8416V86.7297H74.7065ZM10.5373 84.0278H72.0047V72.1396H10.5373L3.9177 78.0837L10.5373 84.0278Z" fill="#193651"/>
<path d="M11.7531 80.6505L9.59158 78.0837L11.7531 75.5169H73.3556V80.6505H11.7531Z" fill="#F15F50"/>
<path d="M73.3556 70.7887V85.3788H82.9472C84.4332 85.3788 85.649 84.1629 85.649 82.6769V73.4906C85.649 72.0045 84.4332 70.7887 82.9472 70.7887H73.3556Z" fill="#44C4A1"/>
<path d="M82.9472 86.7297H72.0046V69.4377H82.9472C85.2438 69.4377 87 71.194 87 73.4905V82.6769C87 84.9735 85.2438 86.7297 82.9472 86.7297ZM74.7065 84.0278H82.9472C83.7578 84.0278 84.2981 83.4874 84.2981 82.6769V73.4905C84.2981 72.68 83.7578 72.1396 82.9472 72.1396H74.7065V84.0278Z" fill="#193651"/>
<path d="M58.2251 14.1851H70.1133V7.56556C70.1133 4.32332 67.4114 1.62146 64.1692 1.62146C60.927 1.62146 58.2251 4.32332 58.2251 7.56556V14.1851Z" fill="white"/>
<path d="M71.4642 15.536H56.8742V7.56554C56.8742 3.51274 60.1164 0.270508 64.1692 0.270508C68.222 0.270508 71.4642 3.51274 71.4642 7.56554V15.536ZM59.576 12.8342H68.7624V7.56554C68.7624 4.99877 66.736 2.97237 64.1692 2.97237C61.6024 2.97237 59.576 4.99877 59.576 7.56554V12.8342Z" fill="#193651"/>
<path d="M7.97055 1.62146H58.2252H64.1693C60.9271 1.62146 58.2252 4.32332 58.2252 7.56556V14.1851V62.4134H1.89136V7.56556C1.89136 4.32332 4.59322 1.62146 7.97055 1.62146Z" fill="white"/>
<path d="M59.5761 63.7643H0.540405V7.56554C0.540405 3.51274 3.78264 0.270508 7.83543 0.270508H64.1693V2.97237C61.6025 2.97237 59.5761 4.99877 59.5761 7.56554V63.7643ZM3.24227 61.0624H56.8742V7.56554C56.8742 5.80933 57.5497 4.18821 58.4954 2.97237H7.97053C5.40376 2.97237 3.24227 4.99877 3.24227 7.56554V61.0624Z" fill="#193651"/>
<path d="M7.29507 57.0096V7.56552C7.29507 7.29533 7.56526 7.02515 7.97054 7.02515H52.8215C52.8215 7.16024 52.8215 7.43043 52.8215 7.56552V57.0096H7.29507Z" fill="#FFBF5D"/>
<path d="M57.6847 65.7904C66.3395 65.7904 73.3555 58.7743 73.3555 50.1195C73.3555 41.4648 66.3395 34.4487 57.6847 34.4487C49.03 34.4487 42.0139 41.4648 42.0139 50.1195C42.0139 58.7743 49.03 65.7904 57.6847 65.7904Z" fill="white"/>
<path d="M57.6848 67.1413C48.3633 67.1413 40.663 59.441 40.663 50.1196C40.663 40.7981 48.3633 33.0978 57.6848 33.0978C67.0062 33.0978 74.7065 40.7981 74.7065 50.1196C74.7065 59.441 67.1413 67.1413 57.6848 67.1413ZM57.6848 35.7997C49.8494 35.7997 43.3649 42.2842 43.3649 50.1196C43.3649 57.955 49.8494 64.4395 57.6848 64.4395C65.5202 64.4395 72.0046 57.955 72.0046 50.1196C72.0046 42.2842 65.6553 35.7997 57.6848 35.7997Z" fill="#193651"/>
<path d="M37.4208 15.4005H34.719V18.1023H37.4208V15.4005Z" fill="#193651"/>
<path d="M30.8012 15.4005H28.0994V18.1023H30.8012V15.4005Z" fill="#193651"/>
<path d="M24.0466 15.4005H21.3447V18.1023H24.0466V15.4005Z" fill="#193651"/>
<path d="M17.4271 15.4005H14.7252V18.1023H17.4271V15.4005Z" fill="#193651"/>
<path d="M37.4208 24.0466H14.7252V26.7485H37.4208V24.0466Z" fill="#193651"/>
<path d="M37.4208 31.4768H14.7252V34.1787H37.4208V31.4768Z" fill="#193651"/>
<path d="M37.4208 38.7717H14.7252V41.4735H37.4208V38.7717Z" fill="#193651"/>
<path d="M53.2267 58.6304L47.9581 49.8493L50.3897 48.4984L53.7671 54.3074L65.3851 42.8245L67.2764 44.7158L53.2267 58.6304Z" fill="#193651"/>
</svg>
