<svg width="96" height="96" viewBox="0 0 96 96" fill="none" xmlns="http://www.w3.org/2000/svg">
<path d="M16.3982 88.6922C18.9648 88.6922 21.5671 88.6922 24.1694 88.6922C24.5259 88.6922 24.8824 88.4783 25.2389 88.3357C25.3815 88.0505 25.5241 87.7653 25.7023 87.4445C25.7023 81.8834 25.7023 76.3223 25.7023 70.6899C24.9537 70.6899 24.2407 70.6899 23.5278 70.6899C20.6403 70.6899 17.7884 70.6899 14.901 70.6899C13.4037 70.6899 11.9422 70.3691 10.5519 69.87C8.8408 69.264 7.30794 68.3372 6.02461 67.0182C5.276 66.2696 4.56305 65.4853 3.95703 64.5941C3.20842 63.489 2.70935 62.3127 2.31722 61.065C2.13898 60.459 2.03204 59.7816 1.88945 59.1756C1.71121 58.3914 1.7825 57.6071 1.74685 56.8229C1.71121 55.3613 2.10333 53.9354 2.56676 52.5808C2.95889 51.3687 3.60055 50.2993 4.34916 49.3011C5.38295 47.8752 6.63063 46.6988 8.12784 45.8076C8.44867 45.6294 8.76951 45.3799 9.05469 45.166C7.70007 43.7401 6.48804 42.2428 5.48989 40.603C4.81258 39.4979 4.17092 38.3572 3.67185 37.1452C3.17277 35.8975 2.70935 34.6142 2.42417 33.2595C2.31722 32.7248 2.21028 32.1545 2.06769 31.6197C1.92509 31.0494 1.96074 30.479 1.8538 29.9086C1.56861 28.661 1.74685 27.3776 1.71121 26.13C1.71121 25.7022 1.67556 25.2388 1.8538 24.7753C1.99639 24.3832 1.74685 23.8485 1.92509 23.492C2.13898 23.0642 1.88945 22.5652 2.28157 22.2087C2.21028 21.674 2.45981 21.1749 2.56676 20.6402C2.6737 20.1054 2.85194 19.6064 2.99453 19.1073C3.52925 17.4675 4.27786 15.899 5.16906 14.3661C5.77508 13.3323 6.52368 12.3698 7.1297 11.336C7.16535 11.3004 7.201 11.2291 7.23664 11.1934C8.0922 10.3023 8.8408 9.30411 9.76765 8.51985C11.1579 7.27217 12.6551 6.13144 14.2949 5.20459C15.1861 4.70552 16.0773 4.20645 17.0042 3.77867C17.931 3.3509 18.8579 2.95877 19.8917 2.78053C20.3907 2.67358 20.9255 2.53099 21.3889 2.3171C21.7454 2.13886 22.2088 2.42405 22.494 2.03192C22.8861 2.13886 23.2426 1.88933 23.6347 1.85368C24.5259 1.78238 25.3815 1.71109 26.2727 1.67544C27.1639 1.63979 28.0907 1.5685 28.9819 1.67544C30.0514 1.78238 31.1208 1.85368 32.1546 2.17451C32.7606 2.35275 33.4023 2.4597 34.0439 2.60229C34.7925 2.74488 35.5055 2.99442 36.2184 3.2796C37.3948 3.74302 38.5712 4.24209 39.6763 4.88376C40.4962 5.34718 41.2805 5.8819 42.0647 6.41662C43.4906 7.37912 44.7383 8.51985 45.9147 9.76753C46.6277 10.5518 47.2337 11.3717 47.8753 12.2272C48.9091 13.5462 49.6221 14.9721 50.3707 16.4694C50.9054 17.5388 51.2262 18.6795 51.6184 19.7846C51.9749 20.7828 52.0462 21.8522 52.4383 22.886C52.9017 22.8147 53.3651 23.0286 53.8286 22.7077C53.9711 22.6365 54.185 22.7077 54.3989 22.7077C55.1832 22.7077 55.9674 22.6721 56.7517 22.7077C57.6072 22.7434 58.4628 22.7077 59.2827 22.9216C60.0313 23.0999 60.7799 23.1355 61.4929 23.4207C62.1702 23.6702 62.8831 23.7772 63.5961 23.9911C64.0595 24.1337 64.5229 24.3476 64.9507 24.5258C66.4123 25.1675 67.8382 25.8804 69.1572 26.8073C69.9058 27.342 70.69 27.8411 71.3674 28.4827C71.7238 28.8035 72.1516 29.0531 72.4725 29.4096C73.3636 30.4434 74.2905 31.4415 75.1104 32.5109C76.1442 33.9012 76.9284 35.4341 77.677 37.0026C78.2118 38.1077 78.497 39.2841 78.996 40.3891C78.8891 41.209 79.4238 41.922 79.3882 42.7776C79.3882 43.0627 79.5307 43.3479 79.6377 43.6688C80.315 43.6688 80.9923 43.6688 81.6696 43.6688C84.058 43.6688 86.2326 44.4887 88.3001 45.5581C88.9775 45.9146 89.5835 46.4849 90.1538 47.0197C90.9381 47.7683 91.758 48.4812 92.3284 49.3724C93.0057 50.4062 93.683 51.4757 94.0395 52.6877C94.289 53.5432 94.6811 54.3632 94.6098 55.2543C94.9307 55.7534 94.7881 56.3238 94.7881 56.8585C94.8237 57.4289 94.895 57.9992 94.7881 58.534C94.6455 59.2113 94.6455 59.9599 94.396 60.6015C94.0395 61.6353 93.7186 62.7048 93.1483 63.6316C92.5779 64.5228 92.0788 65.414 91.3302 66.1626C90.5816 66.8756 89.94 67.6598 89.0844 68.1946C88.0506 68.8362 87.0168 69.5135 85.8404 69.8344C84.9849 70.0839 84.165 70.476 83.2738 70.4047C82.7034 70.7612 82.0618 70.583 81.4914 70.583C78.2474 70.583 75.0035 70.583 71.7595 70.583C71.4743 70.583 71.2248 70.583 70.9039 70.583C70.9039 70.8682 70.9039 71.0821 70.9039 71.2959C70.9039 76.4292 70.9039 81.5626 70.9039 86.6602C70.9039 86.9098 70.8326 87.2306 70.9396 87.3732C71.1535 87.6584 70.9752 88.0861 71.3674 88.2287C71.4743 88.2644 72.2942 88.5852 72.4368 88.5852C73.328 88.5852 74.2548 88.5852 75.146 88.5852C76.7859 88.5852 78.4613 88.5852 80.1724 88.5852C80.5289 87.4088 81.3844 86.5176 82.4539 85.9829C83.3094 85.5551 84.3076 85.3412 85.2344 85.6621C85.8048 85.8403 86.4465 85.876 86.9099 86.375C87.4446 86.9454 88.1219 87.3732 88.4071 88.0861C88.7279 88.906 88.9775 89.7259 88.8349 90.6171C88.514 92.5778 87.2307 94.1106 85.0918 94.5384C83.2381 94.8949 81.0636 93.968 80.1724 91.5796C79.6377 91.5796 79.103 91.5796 78.5326 91.5796C76.465 91.5796 74.3974 91.544 72.3298 91.5796C71.5456 91.5796 70.9039 91.3301 70.2266 91.0093C70.0484 90.938 69.8701 90.7954 69.6919 90.6884C69.4424 90.4745 69.2641 90.225 69.0146 90.0468C68.159 89.2982 67.8382 88.3 67.8382 87.2662C67.8026 82.9885 67.8382 78.7107 67.8382 74.433C67.8382 73.1853 67.8382 71.9376 67.8382 70.6543C65.8419 70.6543 63.8813 70.6543 61.8493 70.6543C61.8493 73.2566 61.8493 75.8232 61.8493 78.4255C64.3804 79.4593 65.022 81.5626 64.8081 83.4163C64.7368 83.9866 64.5229 84.5926 64.1665 85.0204C63.6674 85.5908 63.204 86.2324 62.491 86.5889C61.7781 86.9098 61.1007 87.1593 60.2808 87.1593C59.4966 87.1593 58.8549 86.8741 58.1776 86.5889C57.429 86.2681 56.9656 85.5908 56.5022 85.0204C56.1457 84.5926 55.9318 83.9866 55.8605 83.4163C55.6466 81.5626 56.2883 79.4593 58.8193 78.4255C58.8193 75.8232 58.8193 73.2566 58.8193 70.6543C55.8248 70.6543 52.8661 70.6543 49.8716 70.6543C49.8716 75.7519 49.8716 80.8139 49.8716 85.9473C51.0124 86.2681 51.8323 87.1236 52.4026 88.1574C52.8661 88.9773 53.0443 90.0111 52.7948 90.9736C52.1887 93.2194 50.4063 94.8236 47.9466 94.6097C46.0216 94.4671 44.3462 93.1838 43.8828 90.938C43.4906 89.1912 44.2749 86.9454 46.8059 85.9116C46.8059 80.8496 46.8059 75.7519 46.8059 70.6186C43.8471 70.6186 40.8883 70.6186 37.9296 70.6186C37.787 71.3316 37.7513 75.8945 37.8583 78.3899C40.3536 79.4237 41.1735 81.5626 40.7814 83.3806C40.318 85.5908 38.4999 87.1949 36.0759 87.0523C34.0083 86.9454 32.3685 85.4838 31.8337 83.345C31.6912 82.8102 31.7625 82.2042 31.8694 81.7051C32.012 81.0635 32.2615 80.4218 32.725 79.8871C33.3666 79.1029 33.7587 78.8533 34.7925 78.4255C34.7925 75.8589 34.7925 73.2566 34.7925 70.6543C34.7925 70.6543 34.7925 70.6543 34.7569 70.6186C34.7212 70.6186 34.7212 70.583 34.6856 70.583C32.7606 70.583 30.8356 70.583 28.8393 70.583C28.8393 70.9038 28.8393 71.2246 28.8393 71.5455C28.8393 76.7501 28.8393 81.9903 28.8393 87.1949C28.8393 88.3 28.5185 89.2982 27.6629 90.0824C27.556 90.1894 27.4134 90.2963 27.3421 90.4033C26.95 90.9736 26.3083 91.1519 25.7023 91.4014C25.5241 91.4727 25.3102 91.544 25.1319 91.5796C24.8824 91.6153 24.6329 91.5796 24.3833 91.5796C21.781 91.5796 19.2144 91.5796 16.5764 91.5796C16.3625 92.4708 15.7565 93.0768 15.0792 93.6829C14.5801 94.1463 13.9028 94.3602 13.2612 94.5384C12.7264 94.681 12.1204 94.7167 11.5857 94.5741C9.44682 94.0393 7.70007 92.2926 7.87831 89.7972C8.0209 87.8009 9.33988 86.1255 11.55 85.6621C13.1899 85.3412 15.3644 86.1611 16.3982 88.6922ZM76.465 44.5956C76.5007 44.0965 76.3581 43.6688 76.3581 43.241C76.3224 42.4567 76.0729 41.7081 75.8947 40.9595C75.6451 40.0327 75.3243 39.0702 74.8965 38.2146C74.4331 37.2878 74.041 36.3609 73.5062 35.5054C72.5794 34.1151 71.5812 32.7248 70.3336 31.5484C69.9771 31.2276 69.585 30.9424 69.2285 30.6216C68.159 29.5878 66.947 28.8392 65.628 28.1619C64.5586 27.5915 63.4892 27.0212 62.3128 26.7003C61.5998 26.5221 60.9581 26.13 60.1739 26.2012C59.7818 25.8448 59.247 26.0587 58.8193 25.8448C58.4271 25.6665 57.8924 25.8448 57.3934 25.6665C56.9656 25.4883 56.3952 25.6309 55.8961 25.6309C55.0762 25.6665 54.2563 25.7022 53.4364 25.7735C52.4739 25.8448 51.5471 26.2012 50.5846 26.2012C49.4082 26.736 48.1605 26.9499 47.0198 27.5202C44.6314 28.6966 42.4568 30.1938 40.5675 32.0832C40.318 32.3327 40.1397 32.6892 39.8902 32.9387C39.3198 33.4734 38.8921 34.1507 38.4286 34.7924C37.5374 36.0044 36.8245 37.3234 36.2897 38.678C35.862 39.8188 35.256 40.9952 35.256 42.2785C34.8282 42.5637 35.1847 43.0627 34.9351 43.4549C34.7212 43.7757 35.0064 44.3461 34.8282 44.7025C34.6143 45.1303 34.7569 45.5581 34.6856 45.9502C34.6499 46.1641 34.6499 46.4137 34.6499 46.6275C33.6161 46.6275 32.6537 46.6275 31.6912 46.6275C31.6912 45.9859 31.5486 45.3086 31.7268 44.7382C31.8694 44.2748 31.7268 43.8113 31.905 43.4192C32.0833 42.9914 32.0833 42.528 32.1189 42.1002C32.1902 41.922 32.2259 41.7081 32.2972 41.4942C31.406 40.9239 30.4078 40.8169 29.481 40.71C28.0551 40.4961 26.6291 40.8526 25.2745 41.3873C24.0268 41.8507 22.9931 42.6706 22.0662 43.6331C21.3176 44.4174 20.7829 45.3086 20.3551 46.3067C19.8917 47.3761 19.7491 48.5169 19.6421 49.6576C18.644 49.6576 17.6459 49.6576 16.719 49.6576C16.4695 48.6951 17.0398 47.8396 16.826 46.9484C16.5051 46.8414 16.2912 46.6988 16.0417 46.6988C15.4357 46.6632 14.8653 46.6632 14.2593 46.6988C13.8315 46.7345 13.4037 46.8058 13.0473 46.9127C12.6195 47.0197 12.1917 47.091 11.7996 47.2336C11.4431 47.3761 11.051 47.5544 10.6945 47.7326C10.3024 47.9109 9.91024 48.1248 9.55376 48.3743C8.94775 48.8021 8.30608 49.2298 7.77136 49.7289C7.30794 50.1923 6.95146 50.7627 6.55933 51.2974C5.4186 52.759 5.02647 54.5057 4.70564 56.2525C4.59869 56.8942 4.59869 57.5715 4.70564 58.2131C4.81258 58.6766 4.74129 59.2113 5.06212 59.6747C5.3473 61.7423 6.63063 63.2751 7.87831 64.7724C8.05655 64.9862 8.34173 65.1288 8.59127 65.3071C8.8408 65.4853 9.05469 65.6636 9.30423 65.8418C10.9797 67.0538 12.869 67.6955 14.901 67.6955C36.9671 67.7311 58.9975 67.6955 81.0636 67.7311C82.24 67.7311 83.3807 67.4816 84.4858 67.1608C86.1256 66.6973 87.409 65.6636 88.6566 64.5941C89.1557 64.1663 89.4765 63.5603 89.8687 63.0256C90.9381 61.564 91.4015 59.8886 91.6511 58.1418C91.865 56.8585 91.5798 55.1831 91.1163 53.7928C90.6173 52.2243 89.6191 50.9053 88.5853 49.6933C88.1576 49.1942 87.5515 48.8734 87.0168 48.4812C85.5553 47.4118 83.8798 46.9484 82.133 46.6988C80.7784 46.4849 79.5307 46.7701 77.8553 47.2336C76.2155 47.697 74.9322 48.7308 73.6845 49.8002C73.1854 50.228 72.7933 50.834 72.4368 51.44C72.0447 52.046 71.6882 52.6877 71.4387 53.365C70.9752 54.577 70.6544 55.8247 70.6544 57.1437C69.6206 57.1437 68.6581 57.1437 67.6956 57.1437C67.5174 55.9673 67.8026 54.8622 68.0877 53.7928C68.3373 52.7946 68.6938 51.7965 69.1928 50.9053C69.6206 50.1567 70.084 49.3724 70.6544 48.6951C71.4743 47.7683 72.3299 46.8771 73.3636 46.1641C74.3261 45.5224 75.3243 44.8808 76.465 44.5956ZM36.3967 16.7189C30.1939 16.7189 24.1338 16.7189 18.038 16.7189C17.7884 17.1467 17.7171 17.6101 17.6459 18.0735C17.5746 18.5726 17.3607 19.0717 17.4676 19.5707C17.1824 19.7846 17.325 20.0698 17.2894 20.3193C17.2537 20.6045 17.1111 20.8897 17.1111 21.1749C17.1111 22.173 16.7903 23.1712 16.8972 24.205C16.8972 24.2763 16.9329 24.4188 16.8616 24.4545C16.5408 24.8466 16.7547 25.2388 16.719 25.6309C23.7417 25.6309 30.693 25.6309 37.6444 25.6309C37.787 25.2031 37.6087 24.8466 37.5374 24.4901C37.4661 24.1337 37.5374 23.7415 37.5018 23.3851C37.4661 22.9929 37.6087 22.6364 37.3592 22.2087C37.2166 21.9235 37.3592 21.4601 37.2879 21.1036C37.2166 20.7115 37.1453 20.355 37.074 19.9629C37.0027 19.5707 36.9671 19.1786 36.8958 18.8221C36.8245 18.4656 36.7888 18.1092 36.7175 17.7883C36.6819 17.4318 36.5036 17.0754 36.3967 16.7189ZM33.0814 38.4641C33.6518 37.6799 33.83 36.7174 34.2935 35.8975C34.7569 35.0419 35.2203 34.222 35.7194 33.4021C36.2184 32.5822 36.8958 31.8336 37.4661 31.0494C37.5374 30.2651 37.6444 29.4809 37.7157 28.7323C30.6574 28.7323 23.6704 28.7323 16.6834 28.7323C16.7547 29.267 16.8259 29.8017 16.8616 30.3008C16.8972 30.8355 16.8259 31.3702 16.9685 31.8693C17.1111 32.3683 16.8616 32.9031 17.0755 33.2952C17.3607 33.7943 17.1111 34.2933 17.3607 34.7924C17.5746 35.2202 17.5033 35.7906 17.6102 36.2896C17.7171 36.753 17.8597 37.2521 18.0023 37.7155C21.781 37.7155 25.5241 37.7155 29.2671 37.7155C29.9088 37.7155 30.5148 37.8225 31.1564 37.8938C31.1921 37.8938 31.2277 38.0007 31.299 38.0007C31.905 38.072 32.4754 38.2859 33.0814 38.4641ZM18.8935 13.6532C24.4546 13.6532 29.9088 13.6532 35.4698 13.6532C35.149 12.8689 34.8995 12.1559 34.5786 11.443C34.2578 10.8013 33.8657 10.1597 33.5449 9.518C32.6893 7.91384 31.5129 6.55921 30.0157 5.56107C28.768 4.74117 27.3778 4.34904 25.8805 4.84811C25.0606 5.13329 24.2764 5.41848 23.6704 6.02449C22.7792 6.88004 21.8167 7.69995 21.2107 8.84068C21.0324 9.16152 20.8898 9.4467 20.6759 9.73188C19.8917 10.9439 19.4283 12.2985 18.8935 13.6532ZM14.8297 37.6799C14.8297 37.5017 14.8653 37.3591 14.8297 37.2521C14.7227 36.9313 14.6871 36.6105 14.6158 36.2896C14.5445 35.9331 14.5445 35.541 14.4375 35.2558C14.2236 34.7924 14.4019 34.329 14.2593 33.9369C14.0811 33.5447 14.1524 33.1882 14.0811 32.7961C14.0454 32.404 13.9385 32.0475 13.9028 31.6554C13.8672 31.1563 13.9385 30.6572 13.9028 30.1582C13.8672 29.6947 13.7602 29.2313 13.6533 28.7323C10.7658 28.7323 7.84266 28.7323 4.88388 28.7323C4.99082 31.9406 5.95332 34.8637 7.34359 37.6799C9.83895 37.6799 12.263 37.6799 14.8297 37.6799ZM4.84823 25.6665C7.87831 25.6665 10.7658 25.6665 13.6533 25.6665C13.7246 25.2031 13.6889 24.7753 13.8315 24.3119C13.9741 23.8128 13.8315 23.2425 13.8672 22.7434C13.9028 22.2087 14.0098 21.674 14.0454 21.1392C14.0454 20.5689 14.3662 20.0341 14.2593 19.4281C14.5801 19.2142 14.4019 18.8578 14.4375 18.5726C14.5088 18.2874 14.5801 18.0022 14.6158 17.717C14.6871 17.3962 14.7227 17.0397 14.794 16.7189C12.263 16.7189 9.8033 16.7189 7.27229 16.7189C5.91767 19.5351 4.88388 22.4226 4.84823 25.6665ZM49.3726 23.5633C48.9091 21.1392 48.3031 18.7865 47.0198 16.7189C44.4888 16.7189 42.0291 16.7189 39.4981 16.7189C39.605 17.0041 39.6763 17.2536 39.7476 17.5031C39.8902 18.1805 39.9615 18.8578 40.1041 19.4994C40.211 19.9272 40.2467 20.3906 40.2823 20.8184C40.3536 21.2818 40.4606 21.7809 40.4606 22.2443C40.4606 23.7059 40.817 25.1318 40.6744 26.5577C40.6388 27.0212 40.6744 27.4846 40.6744 27.9836C43.3124 25.8804 46.1642 24.4545 49.3726 23.5633ZM35.0777 6.23838C36.7175 8.51985 37.8226 11.0152 38.6782 13.6888C39.7832 13.6888 40.8883 13.6888 41.9578 13.6888C43.0272 13.6888 44.0967 13.7245 45.2374 13.6888C42.4925 10.231 39.2485 7.6643 35.0777 6.23838ZM15.6852 13.6532C15.9704 12.9758 16.2912 12.2985 16.5051 11.6212C16.8972 10.2666 17.5746 9.05457 18.3232 7.87819C18.644 7.37912 18.8579 6.80875 19.3213 6.41662C19.357 6.38097 19.2857 6.27403 19.25 6.13144C17.2894 6.8444 15.5426 7.84254 13.9028 9.05457C12.1561 10.3379 10.6232 11.7995 9.30423 13.6175C11.4788 13.6532 13.5463 13.6532 15.6852 13.6532ZM9.26858 40.71C10.1954 42.0289 11.2292 43.0271 12.2987 44.0252C14.2236 43.4905 16.1486 43.5262 18.0736 44.0609C18.8579 42.8845 19.6065 41.7081 20.7116 40.71C16.8616 40.71 13.1542 40.71 9.26858 40.71ZM37.68 82.3112C37.2879 81.313 36.6106 81.0635 35.7194 81.2061C35.1847 81.3487 34.8995 81.7764 34.6856 82.2042C34.6856 82.5607 34.6856 82.8459 34.6856 83.238C34.9708 83.5232 35.2916 83.844 35.5411 84.0936C36.5749 84.2362 37.2879 83.9866 37.6444 82.9885C37.68 82.8815 37.68 82.5963 37.68 82.3112ZM61.6711 82.3825C61.3146 81.313 60.566 81.0991 59.7105 81.2417C59.1758 81.3843 58.8906 81.8121 58.6767 82.2399C58.6767 82.5963 58.6767 82.8815 58.6767 83.2737C58.9619 83.5588 59.2827 83.8797 59.5322 84.1292C60.566 84.2718 61.279 84.0223 61.6355 83.0241C61.6711 82.8815 61.6711 82.5964 61.6711 82.3825ZM11.7283 88.7278C11.1223 88.8347 10.944 89.2982 10.6945 89.7259C10.6945 90.0468 10.6945 90.3676 10.6945 90.7597C10.9797 91.0449 11.3005 91.3658 11.55 91.6153C12.5838 91.7579 13.2968 91.5083 13.6533 90.5102C13.6533 90.2963 13.6533 89.9755 13.6533 89.7616C13.2968 88.8347 12.6195 88.5852 11.7283 88.7278ZM49.6934 90.5102C49.8716 89.2982 48.9448 88.4426 47.8753 88.6565C46.8059 89.0843 46.5564 89.7616 46.7346 90.6528C46.8772 91.1875 47.305 91.4727 47.7684 91.6509C48.6596 91.7935 49.3013 91.5083 49.6934 90.5102ZM85.6978 90.4745C85.9117 89.4051 85.0562 88.4783 83.8441 88.6565C82.8104 89.0486 82.5608 89.7616 82.7034 90.6528C82.846 91.1875 83.2738 91.4727 83.7016 91.6509C84.6284 91.7935 85.3057 91.5083 85.6978 90.4745Z" fill="#515151"/>
<path d="M70.6899 12.1916C70.6899 11.2291 70.6899 10.2666 70.6899 9.23281C71.5098 9.26846 72.2941 9.09022 73.114 9.37541C73.5774 9.518 74.1121 9.4467 74.6112 9.55365C75.5737 9.73189 77.7126 10.4448 78.8533 10.8726C79.7445 11.1935 80.5288 11.6569 81.3487 12.1203C81.9903 12.4768 82.5607 12.9402 83.1667 13.368C84.2362 14.1166 85.27 14.9721 86.1255 15.9703C87.2662 17.2893 88.3713 18.6439 89.1556 20.248C89.4764 20.8897 89.7972 21.5314 90.1181 22.2087C90.4033 22.8503 90.6171 23.5633 90.8667 24.2406C91.1162 24.9179 91.2232 25.5952 91.3657 26.2725C91.437 26.6647 91.5083 27.0212 91.544 27.4133C91.5796 27.7698 91.6153 28.1262 91.7222 28.4471C91.8292 29.0174 91.7579 29.6235 91.7579 30.2651C90.7241 30.2651 89.7616 30.2651 88.7635 30.2651C88.7635 29.5165 88.7278 28.7679 88.6209 27.9837C88.4783 27.0212 88.2644 26.0587 88.0148 25.1318C87.694 23.9554 87.2306 22.8147 86.6602 21.7809C86.1255 20.8184 85.4838 19.8916 84.7709 19.0004C83.7727 17.7527 82.5607 16.6832 81.3487 15.6851C80.707 15.1504 79.9584 14.7583 79.2098 14.3661C78.4255 13.974 77.6413 13.6175 76.8214 13.368C76.1084 13.1541 75.3955 12.8689 74.6825 12.6907C73.8983 12.5124 73.114 12.4768 72.2941 12.3342C71.6881 12.1203 71.189 12.1916 70.6899 12.1916Z" fill="#515151"/>
<path d="M70.6899 12.1916C71.189 12.1916 71.6881 12.1203 72.1872 12.1916C72.9714 12.3342 73.7913 12.3698 74.5756 12.5481C75.2885 12.7263 76.0015 12.9759 76.7144 13.2254C77.5343 13.4749 78.3543 13.8314 79.1029 14.2235C79.8515 14.6157 80.6001 15.0434 81.2417 15.5425C82.4538 16.5407 83.6302 17.6101 84.6639 18.8578C85.3769 19.749 86.0186 20.6758 86.5533 21.6383C87.1237 22.6721 87.5871 23.8128 87.9079 24.9892C88.1574 25.9161 88.3713 26.8786 88.5139 27.8411C88.6209 28.5897 88.6565 29.3383 88.6565 30.1225C87.6584 30.1225 86.6602 30.1225 85.6621 30.1225C85.6621 29.5878 85.8403 28.9818 85.6264 28.554C85.3769 28.0549 85.6977 27.4846 85.3056 27.0925C85.2343 25.9517 84.7709 24.9536 84.3431 23.9198C83.7371 22.5295 82.9528 21.2462 81.8478 20.1767C81.7408 20.0698 81.6695 19.8916 81.5626 19.749C81.42 19.5707 81.2417 19.3925 81.0635 19.2499C80.8853 19.1073 80.6714 19.0004 80.4931 18.8221C79.7802 18.0379 78.8177 17.5744 77.9621 17.0041C77.0353 16.3981 75.9302 16.1485 74.932 15.7207C74.433 15.5069 73.8626 15.4356 73.3279 15.3643C72.4723 15.2573 71.5811 15.0078 70.6899 15.1504C70.6899 14.1879 70.6899 13.1897 70.6899 12.1916Z" fill="#FFDA2F"/>
<path d="M70.6899 15.186C71.5811 15.0434 72.4723 15.293 73.3279 15.3999C73.8626 15.4712 74.433 15.5425 74.932 15.7564C75.9302 16.1842 77.0353 16.4337 77.9621 17.0397C78.8177 17.6101 79.7445 18.1092 80.4931 18.8578C80.6714 19.036 80.8853 19.143 81.0635 19.2856C81.2417 19.4281 81.42 19.6064 81.5626 19.7846C81.6695 19.9272 81.7408 20.1055 81.8478 20.2124C82.9528 21.2818 83.7371 22.5652 84.3431 23.9554C84.7709 24.9536 85.2343 25.9874 85.3056 27.1281C85.7334 27.5202 85.4125 28.0906 85.6264 28.5897C85.8403 29.0175 85.6621 29.6235 85.6621 30.1582C84.6639 30.1582 83.6658 30.1582 82.6677 30.1582C82.632 29.5522 82.632 28.9818 82.5251 28.3758C82.4181 27.7341 82.3112 27.0925 82.0973 26.4865C81.5626 24.811 80.707 23.3494 79.5306 22.0305C78.7107 21.1036 77.7126 20.3906 76.6431 19.749C76.1084 19.4282 75.5381 19.143 74.932 18.9291C73.1496 18.3587 72.0446 18.1448 70.6899 18.1805C70.6899 17.1823 70.6899 16.1842 70.6899 15.186Z" fill="#515151"/>
<path d="M70.6899 18.1805C72.0446 18.1448 73.1497 18.3587 74.9321 18.9291C75.5381 19.1073 76.1084 19.4282 76.6432 19.749C77.7126 20.3907 78.6751 21.1036 79.5306 22.0305C80.707 23.3494 81.5626 24.811 82.0973 26.4865C82.3112 27.0925 82.4181 27.7341 82.5251 28.3758C82.632 28.9818 82.6677 29.5878 82.6677 30.1582C81.6695 30.1582 80.6714 30.1582 79.6732 30.1582C79.6376 27.8767 78.889 25.8804 77.3561 24.205C75.5737 22.2087 73.3279 21.2106 70.6543 21.1749C70.6899 20.1768 70.6899 19.1786 70.6899 18.1805Z" fill="#FFDA2F"/>
<path d="M70.6899 21.1749C73.3635 21.2105 75.6094 22.2087 77.3918 24.2049C78.9246 25.916 79.6732 27.8767 79.7089 30.1582C78.7107 30.1582 77.7483 30.1582 76.7501 30.1582C76.3936 26.5934 74.2547 24.4545 70.6899 24.098C70.6899 23.1712 70.6899 22.173 70.6899 21.1749Z" fill="#515151"/>
<path d="M55.6821 28.7322C55.6821 29.6947 55.6821 30.6572 55.6821 31.6197C51.6539 31.8336 48.0891 33.1526 45.166 36.0757C42.2429 38.9989 40.8882 42.528 40.6744 46.6275C39.7119 46.6275 38.7494 46.6275 37.7156 46.6275C37.7869 45.9146 37.6443 45.2016 37.8582 44.4173C38.0364 43.7044 38.1077 42.9558 38.2859 42.2428C38.4285 41.4942 38.7494 40.8169 38.9633 40.1039C39.4267 38.6424 40.2822 37.3947 41.1021 36.1114C41.5299 35.4697 42.1359 34.8993 42.6706 34.329C43.6688 33.2595 44.7739 32.3327 46.0216 31.5484C47.2692 30.7642 48.5882 30.1225 50.0141 29.6234C50.9053 29.3026 51.7965 29.0887 52.7234 28.9105C53.6146 28.7679 54.6484 28.5184 55.6821 28.7322Z" fill="#515151"/>
<path d="M81.2063 52.6521C81.2063 51.6896 81.2063 50.7271 81.2063 49.7646C82.0975 49.5507 82.953 49.8715 83.7729 50.1923C85.0206 50.6558 86.1257 51.4044 86.9456 52.4382C87.6942 53.365 88.1933 54.4345 88.5141 55.6465C88.728 56.502 88.6567 57.3576 88.6567 58.2132C88.6567 58.7479 88.4428 59.3182 88.2646 59.8173C87.7655 61.1006 87.0169 62.2057 85.9474 63.0613C85.0206 63.8099 83.9511 64.3446 82.7391 64.5941C82.2757 64.7011 81.8479 64.7367 81.4201 64.7367C79.8516 64.7367 78.3188 64.7367 76.7146 64.7367C76.7146 63.7386 76.7146 62.7761 76.7146 61.7423C77.0711 61.7423 77.4276 61.7423 77.784 61.7423C78.9248 61.7423 80.1012 61.8136 81.2419 61.7423C82.953 61.6354 84.3076 60.8868 85.1275 59.2826C85.484 58.5696 85.7692 57.7854 85.6623 57.0011C85.5553 56.003 85.2345 55.0405 84.4859 54.2919C84.0937 53.8997 83.666 53.5433 83.1312 53.2581C82.5252 52.9016 81.8836 52.7946 81.2063 52.6521Z" fill="#515151"/>
<path d="M37.6801 57.2506C37.7157 59.5321 35.5055 61.7779 33.1528 61.7066C31.9051 61.671 30.8713 61.2075 29.9801 60.2807C29.0889 59.3895 28.6611 58.3201 28.6611 57.0724C28.6611 55.8247 29.1959 54.8622 30.0514 54.0067C30.9426 53.1155 31.9764 52.6877 33.2597 52.6877C35.5412 52.652 37.787 54.8622 37.6801 57.2506Z" fill="#FFDA2F"/>
<path d="M45.2374 52.6877C47.5189 52.6164 49.7647 54.8266 49.6934 57.215C49.6578 58.4983 49.1944 59.4965 48.3032 60.3876C47.412 61.2788 46.3782 61.7066 45.0949 61.7066C42.849 61.7066 40.6388 59.5321 40.6745 57.1437C40.7101 54.8622 42.849 52.5808 45.2374 52.6877Z" fill="#FFDA2F"/>
<path d="M61.6712 57.2506C61.7068 59.5321 59.4967 61.7066 57.1082 61.7066C54.8624 61.671 52.5453 59.5321 52.6522 57.0724C52.7235 55.8247 53.2226 54.7909 54.1138 53.9354C55.005 53.0798 56.0388 52.6877 57.2508 52.6877C59.5323 52.6877 61.8138 54.8266 61.6712 57.2506Z" fill="#FFDA2F"/>
<path d="M61.2078 32.6536C60.3522 32.4397 59.461 32.1901 58.5342 31.9762C58.3916 31.0137 58.8194 30.0869 58.9263 29.0531C60.1383 28.9818 61.1721 29.5522 62.3129 29.8374C61.9207 30.7999 61.5999 31.6554 61.2078 32.6536Z" fill="#515151"/>
<path d="M67.66 61.7067C67.66 62.7048 67.66 63.6673 67.66 64.6298C66.6975 64.6298 65.735 64.6298 64.7012 64.6298C64.6299 64.1664 64.7012 63.703 64.6655 63.2039C64.6655 62.7048 64.6655 62.2057 64.6655 61.671C65.6637 61.7067 66.6262 61.7067 67.66 61.7067Z" fill="#515151"/>
<path d="M73.6487 64.6654C72.6506 64.6654 71.6881 64.6654 70.7256 64.6654C70.7256 63.703 70.7256 62.7405 70.7256 61.671C71.6881 61.671 72.6506 61.671 73.6487 61.671C73.6487 62.6692 73.6487 63.6317 73.6487 64.6654Z" fill="#515151"/>
</svg>
