<svg width="96" height="96" viewBox="0 0 96 96" fill="none" xmlns="http://www.w3.org/2000/svg">
<path d="M55.9437 91.1545V92.3114C55.9546 92.5751 55.9095 92.8382 55.8113 93.084C55.7131 93.3298 55.5639 93.553 55.3731 93.7394C55.1823 93.9259 54.9541 94.0716 54.7029 94.1673C54.4516 94.2631 54.1829 94.3068 53.9135 94.2956H46.3083C46.0392 94.3063 45.7708 94.2622 45.52 94.1663C45.2692 94.0703 45.0414 93.9246 44.851 93.7381C44.6606 93.5517 44.5117 93.3287 44.4137 93.0831C44.3157 92.8376 44.2707 92.5748 44.2816 92.3114V89.9941C44.2713 89.7308 44.3166 89.4683 44.4148 89.223C44.513 88.9776 44.6619 88.7549 44.8522 88.5686C45.0425 88.3822 45.2701 88.2364 45.5207 88.1403C45.7712 88.0441 46.0394 87.9998 46.3083 88.0099H53.9135C54.1827 87.9993 54.4513 88.0433 54.7023 88.1392C54.9533 88.2351 55.1812 88.3809 55.3719 88.5672C55.5626 88.7536 55.7118 88.9766 55.8102 89.2221C55.9086 89.4677 55.9541 89.7305 55.9437 89.9941V91.1545Z" fill="#FFDA2F"/>
<path d="M51.7185 44.6553C52.7544 44.656 53.7669 44.9573 54.6279 45.5213C55.4889 46.0853 56.1598 46.8865 56.5557 47.8238C56.9517 48.761 57.0549 49.7921 56.8524 50.7868C56.6499 51.7815 56.1507 52.695 55.4179 53.4119C54.6852 54.1289 53.7518 54.617 52.7357 54.8146C51.7196 55.0122 50.6665 54.9105 49.7095 54.5222C48.7525 54.1339 47.9346 53.4765 47.3591 52.6331C46.7837 51.7898 46.4766 50.7984 46.4766 49.7841C46.4821 48.4249 47.0363 47.123 48.0182 46.1623C49.0002 45.2015 50.3303 44.6598 51.7185 44.6553Z" fill="#FFDA2F"/>
<path d="M5.23858 31.253C6.07497 31.2496 6.89355 31.4893 7.59067 31.9418C8.2878 32.3943 8.83209 33.0392 9.15457 33.7947C9.47705 34.5503 9.56322 35.3826 9.40218 36.1862C9.24114 36.9898 8.8401 37.7284 8.24991 38.3087C7.65972 38.8889 6.90694 39.2846 6.08687 39.4456C5.2668 39.6067 4.41637 39.5257 3.64331 39.2131C2.87024 38.9006 2.20931 38.3704 1.74427 37.6897C1.27923 37.0091 1.03098 36.2086 1.03097 35.3897C1.02538 34.8464 1.13024 34.3074 1.33949 33.8042C1.54874 33.301 1.85821 32.8435 2.2498 32.4585C2.6414 32.0735 3.10733 31.7686 3.62045 31.5617C4.13357 31.3547 4.68363 31.2498 5.23858 31.253Z" fill="#FFDA2F"/>
<path d="M24.3374 32.2452H17.9138V37.374H24.3374V32.2452Z" fill="#FFDA2F"/>
<path d="M94.9831 23.474V34.892C94.9749 35.8549 94.5808 36.7762 93.8856 37.4574C93.1905 38.1386 92.2499 38.5254 91.2664 38.5344H87.5497V45.8156L79.6043 38.5344H54.0852C53.1011 38.5263 52.1596 38.1399 51.4637 37.4586C50.7678 36.7772 50.3732 35.8555 50.365 34.892V23.474C50.3741 22.5111 50.7692 21.5902 51.465 20.9096C52.1608 20.229 53.1017 19.8431 54.0852 19.8351H91.2524C92.2377 19.8404 93.1814 20.2251 93.8794 20.906C94.5775 21.5869 94.9739 22.5093 94.9831 23.474Z" fill="#FFDA2F"/>
<path d="M90.2532 7.42496C90.5542 7.42496 90.8484 7.5123 91.0986 7.67602C91.3489 7.83973 91.5439 8.07243 91.6591 8.34467C91.7743 8.61691 91.8044 8.91649 91.7457 9.2055C91.687 9.49452 91.542 9.76 91.3292 9.96836C91.1164 10.1767 90.8452 10.3186 90.5501 10.3761C90.2549 10.4336 89.9489 10.4041 89.6708 10.2913C89.3928 10.1786 89.1551 9.98759 88.9879 9.74257C88.8207 9.49756 88.7314 9.20952 88.7314 8.91484C88.7314 8.5197 88.8918 8.14074 89.1771 7.86133C89.4625 7.58192 89.8496 7.42496 90.2532 7.42496Z" fill="#515151"/>
<path d="M85.0112 87.1826C85.3123 87.1819 85.6068 87.2687 85.8576 87.432C86.1083 87.5953 86.3039 87.8278 86.4196 88.1C86.5353 88.3722 86.566 88.6718 86.5076 88.9611C86.4493 89.2503 86.3047 89.5161 86.092 89.7248C85.8793 89.9335 85.6081 90.0758 85.3129 90.1335C85.0176 90.1913 84.7114 90.162 84.4332 90.0493C84.1549 89.9367 83.917 89.7457 83.7496 89.5006C83.5823 89.2555 83.4929 88.9673 83.4929 88.6725C83.4929 88.278 83.6528 87.8995 83.9374 87.6202C84.222 87.3409 84.6082 87.1835 85.0112 87.1826Z" fill="#515151"/>
<path d="M54.4219 64.3466C54.7229 64.3466 55.0171 64.434 55.2674 64.5977C55.5176 64.7614 55.7127 64.9941 55.8278 65.2664C55.943 65.5386 55.9731 65.8382 55.9144 66.1272C55.8557 66.4162 55.7108 66.6817 55.498 66.89C55.2851 67.0984 55.014 67.2403 54.7188 67.2978C54.4236 67.3553 54.1176 67.3258 53.8396 67.213C53.5615 67.1002 53.3238 66.9093 53.1566 66.6643C52.9894 66.4193 52.9001 66.1312 52.9001 65.8365C52.9011 65.4416 53.0617 65.0632 53.3469 64.784C53.6321 64.5048 54.0186 64.3475 54.4219 64.3466Z" fill="#515151"/>
<path d="M37.5212 68.4833C37.8222 68.4833 38.1165 68.5707 38.3667 68.7344C38.617 68.8982 38.812 69.1308 38.9272 69.4031C39.0423 69.6753 39.0725 69.9749 39.0138 70.2639C38.955 70.5529 38.8101 70.8184 38.5973 71.0267C38.3845 71.2351 38.1133 71.377 37.8181 71.4345C37.5229 71.492 37.217 71.4625 36.9389 71.3497C36.6609 71.2369 36.4232 71.046 36.256 70.801C36.0888 70.5559 35.9995 70.2679 35.9995 69.9732C36.0004 69.5784 36.1611 69.1999 36.4462 68.9207C36.7314 68.6415 37.1179 68.4842 37.5212 68.4833Z" fill="#515151"/>
<path d="M35.3228 34.3976C35.6239 34.3976 35.9183 34.4851 36.1686 34.6489C36.4189 34.8128 36.614 35.0457 36.729 35.3181C36.8441 35.5906 36.874 35.8903 36.815 36.1794C36.756 36.4685 36.6107 36.734 36.3976 36.9422C36.1844 37.1504 35.9129 37.2921 35.6175 37.3492C35.3221 37.4063 35.016 37.3763 34.738 37.263C34.46 37.1497 34.2226 36.9582 34.0558 36.7127C33.889 36.4673 33.8003 36.1789 33.801 35.884C33.801 35.6885 33.8404 35.495 33.9169 35.3144C33.9935 35.1338 34.1056 34.9698 34.2469 34.8317C34.3883 34.6937 34.5561 34.5843 34.7407 34.5098C34.9253 34.4353 35.1231 34.3971 35.3228 34.3976Z" fill="#515151"/>
<path d="M24.846 2.29608C25.1471 2.29608 25.4414 2.38357 25.6918 2.54743C25.9421 2.7113 26.1371 2.94419 26.2522 3.21663C26.3673 3.48908 26.3972 3.78882 26.3382 4.07793C26.2792 4.36703 26.1339 4.63247 25.9208 4.8407C25.7076 5.04893 25.4361 5.1906 25.1407 5.2477C24.8453 5.3048 24.5392 5.27479 24.2612 5.16149C23.9832 5.0482 23.7458 4.85669 23.579 4.61123C23.4122 4.36576 23.3235 4.07739 23.3242 3.78257C23.3252 3.38802 23.4859 3.0099 23.7712 2.73123C24.0564 2.45257 24.443 2.29608 24.846 2.29608Z" fill="#515151"/>
<path d="M17.4089 89.1669C17.7099 89.1669 18.0041 89.2543 18.2544 89.418C18.5046 89.5817 18.6997 89.8143 18.8149 90.0866C18.93 90.3588 18.9602 90.6584 18.9014 90.9474C18.8427 91.2364 18.6978 91.5019 18.485 91.7103C18.2722 91.9186 18.001 92.0605 17.7058 92.118C17.4106 92.1755 17.1046 92.146 16.8266 92.0332C16.5485 91.9205 16.3109 91.7295 16.1437 91.4845C15.9765 91.2395 15.8872 90.9514 15.8872 90.6568C15.8881 90.2619 16.0487 89.8835 16.3339 89.6042C16.6191 89.325 17.0056 89.1678 17.4089 89.1669Z" fill="#515151"/>
<path d="M6.76026 47.7998C7.06124 47.7998 7.35544 47.8872 7.60569 48.0509C7.85594 48.2146 8.051 48.4473 8.16618 48.7195C8.28136 48.9918 8.31148 49.2913 8.25277 49.5804C8.19405 49.8694 8.04912 50.1348 7.8363 50.3432C7.62348 50.5516 7.35233 50.6935 7.05714 50.751C6.76195 50.8084 6.45596 50.7789 6.1779 50.6662C5.89984 50.5534 5.66221 50.3624 5.49499 50.1174C5.32778 49.8724 5.23853 49.5844 5.23853 49.2897C5.23853 48.8945 5.39884 48.5156 5.68422 48.2362C5.96961 47.9568 6.35667 47.7998 6.76026 47.7998Z" fill="#515151"/>
<path d="M4.73366 15.6984C5.03463 15.6984 5.32887 15.7858 5.57912 15.9495C5.82937 16.1132 6.02439 16.3458 6.13957 16.6181C6.25475 16.8903 6.28488 17.1899 6.22616 17.4789C6.16744 17.7679 6.02252 18.0334 5.8097 18.2418C5.59688 18.4501 5.32572 18.592 5.03053 18.6495C4.73534 18.707 4.4294 18.6775 4.15134 18.5647C3.87327 18.452 3.6356 18.261 3.46839 18.016C3.30118 17.771 3.21192 17.4829 3.21192 17.1883C3.21146 16.9925 3.25049 16.7985 3.3268 16.6176C3.40311 16.4366 3.51519 16.2722 3.65659 16.1337C3.79799 15.9953 3.96594 15.8856 4.15078 15.8108C4.33562 15.7361 4.53369 15.6979 4.73366 15.6984Z" fill="#515151"/>
<path d="M80.2811 57.2301C80.018 57.2132 79.7702 57.1033 79.5837 56.9207C79.3973 56.7382 79.285 56.4956 79.2677 56.238V52.9286C79.2596 52.4043 79.043 51.9037 78.6639 51.5332C78.2848 51.1627 77.7731 50.9515 77.2375 50.9444H75.0426C74.9043 50.9523 74.7658 50.9326 74.6355 50.8862C74.5053 50.8399 74.3861 50.768 74.2853 50.6749C74.1845 50.5818 74.1042 50.4696 74.0493 50.345C73.9944 50.2204 73.9661 50.0862 73.9661 49.9506C73.9661 49.8149 73.9944 49.6807 74.0493 49.5561C74.1042 49.4316 74.1845 49.3193 74.2853 49.2262C74.3861 49.1332 74.5053 49.0612 74.6355 49.0149C74.7658 48.9686 74.9043 48.9488 75.0426 48.9567H77.2375C78.309 48.9709 79.3324 49.394 80.0901 50.1358C80.8478 50.8776 81.2798 51.8796 81.2944 52.9286V56.238C81.2763 56.4953 81.1638 56.7376 80.9775 56.9199C80.7913 57.1023 80.5439 57.2125 80.2811 57.2301Z" fill="#515151"/>
<path d="M77.2377 86.0223H65.239C64.1673 86.0089 63.1433 85.5862 62.3854 84.8442C61.6276 84.1022 61.1958 83.0997 61.1821 82.0504V52.7639C61.1966 51.7149 61.6287 50.7129 62.3864 49.9711C63.1441 49.2292 64.1676 48.8062 65.239 48.792H68.6191C68.8878 48.792 69.1456 48.8965 69.3356 49.0826C69.5256 49.2686 69.6324 49.521 69.6324 49.7841C69.6324 50.0472 69.5256 50.2996 69.3356 50.4856C69.1456 50.6717 68.8878 50.7762 68.6191 50.7762H65.239C64.7031 50.7842 64.1914 50.9962 63.8124 51.3672C63.4335 51.7383 63.2169 52.2392 63.2088 52.7639V82.0504C63.2152 82.5756 63.4311 83.0775 63.8105 83.449C64.1898 83.8204 64.7025 84.0318 65.239 84.038H77.2377C77.7738 84.0309 78.286 83.8192 78.6652 83.448C79.0444 83.0768 79.2606 82.5753 79.2678 82.0504V78.7445C79.2678 78.4813 79.3746 78.229 79.5646 78.0429C79.7547 77.8569 80.0124 77.7523 80.2812 77.7523C80.5499 77.7523 80.8076 77.8569 80.9977 78.0429C81.1877 78.229 81.2945 78.4813 81.2945 78.7445V82.0504C81.2808 83.0997 80.849 84.1022 80.0912 84.8442C79.3333 85.5862 78.3094 86.0089 77.2377 86.0223Z" fill="#515151"/>
<path d="M74.8708 86.0223C74.608 86.0046 74.3606 85.8944 74.1743 85.7121C73.9881 85.5297 73.8755 85.2874 73.8575 85.0301V58.0609C73.8493 57.9255 73.8696 57.7898 73.9169 57.6624C73.9643 57.5349 74.0377 57.4182 74.1327 57.3195C74.2278 57.2208 74.3424 57.1422 74.4697 57.0884C74.5969 57.0347 74.734 57.0069 74.8726 57.0069C75.0111 57.0069 75.1482 57.0347 75.2755 57.0884C75.4027 57.1422 75.5173 57.2208 75.6124 57.3195C75.7074 57.4182 75.7809 57.5349 75.8282 57.6624C75.8755 57.7898 75.8958 57.9255 75.8876 58.0609V85.0301C76.056 85.5279 75.5475 86.0223 74.8708 86.0223Z" fill="#515151"/>
<path d="M12.6789 57.2301C12.4161 57.2125 12.1687 57.1023 11.9824 56.9199C11.7961 56.7376 11.6835 56.4953 11.6655 56.238V52.9286C11.68 51.8796 12.1121 50.8776 12.8698 50.1358C13.6275 49.394 14.651 48.9709 15.7224 48.9567H17.9173C18.0556 48.9488 18.1942 48.9686 18.3244 49.0149C18.4546 49.0612 18.5738 49.1332 18.6746 49.2262C18.7754 49.3193 18.8558 49.4316 18.9107 49.5561C18.9656 49.6807 18.9939 49.8149 18.9939 49.9506C18.9939 50.0862 18.9656 50.2204 18.9107 50.345C18.8558 50.4696 18.7754 50.5818 18.6746 50.6749C18.5738 50.768 18.4546 50.8399 18.3244 50.8862C18.1942 50.9326 18.0556 50.9523 17.9173 50.9444H15.7224C15.1865 50.9506 14.6743 51.1616 14.2951 51.5322C13.9158 51.9029 13.6995 52.404 13.6922 52.9286V56.238C13.6749 56.4956 13.5626 56.7382 13.3762 56.9207C13.1897 57.1033 12.9419 57.2132 12.6789 57.2301Z" fill="#515151"/>
<path d="M27.5494 86.0223H15.5507C14.479 86.0089 13.4551 85.5862 12.6972 84.8442C11.9393 84.1022 11.5075 83.0997 11.4939 82.0504V78.7445C11.4939 78.4813 11.6006 78.229 11.7907 78.0429C11.9807 77.8569 12.2385 77.7523 12.5072 77.7523C12.776 77.7523 13.0337 77.8569 13.2238 78.0429C13.4138 78.229 13.5206 78.4813 13.5206 78.7445V82.0504C13.5269 82.5756 13.7429 83.0775 14.1222 83.449C14.5016 83.8204 15.0143 84.0318 15.5507 84.038H27.5494C28.0853 84.0309 28.5971 83.8191 28.9757 83.4478C29.3543 83.0765 29.5697 82.575 29.5761 82.0504V52.7639C29.5688 52.2395 29.3531 51.7386 28.9747 51.3675C28.5963 50.9963 28.085 50.7842 27.5494 50.7762H24.1693C23.9006 50.7762 23.6428 50.6717 23.4528 50.4856C23.2627 50.2996 23.156 50.0472 23.156 49.7841C23.156 49.521 23.2627 49.2686 23.4528 49.0826C23.6428 48.8965 23.9006 48.792 24.1693 48.792H27.5494C28.6208 48.8062 29.6443 49.2292 30.402 49.9711C31.1596 50.7129 31.5917 51.7149 31.6062 52.7639V82.0504C31.5917 83.0994 31.1596 84.1014 30.402 84.8432C29.6443 85.585 28.6208 86.0081 27.5494 86.0223Z" fill="#515151"/>
<path d="M17.9138 86.0223C17.651 86.0046 17.4035 85.8944 17.2173 85.7121C17.031 85.5297 16.9185 85.2874 16.9004 85.0301V58.0609C16.8923 57.9255 16.9125 57.7898 16.9598 57.6624C17.0072 57.5349 17.0806 57.4182 17.1757 57.3195C17.2708 57.2208 17.3854 57.1422 17.5126 57.0884C17.6399 57.0347 17.777 57.0069 17.9155 57.0069C18.0541 57.0069 18.1912 57.0347 18.3184 57.0884C18.4456 57.1422 18.5603 57.2208 18.6553 57.3195C18.7504 57.4182 18.8238 57.5349 18.8712 57.6624C18.9185 57.7898 18.9387 57.9255 18.9306 58.0609V85.0301C18.9125 85.288 18.7994 85.5307 18.6124 85.7131C18.4254 85.8956 18.1772 86.0054 17.9138 86.0223Z" fill="#515151"/>
<path d="M24.1691 33.2373H17.7455C17.4767 33.2373 17.219 33.1328 17.029 32.9467C16.8389 32.7607 16.7322 32.5083 16.7322 32.2452C16.7322 31.9821 16.8389 31.7297 17.029 31.5437C17.219 31.3576 17.4767 31.2531 17.7455 31.2531H24.1691C24.4319 31.2707 24.6793 31.3809 24.8656 31.5633C25.0519 31.7457 25.1644 31.9879 25.1824 32.2452C25.3507 32.743 24.8458 33.2373 24.1691 33.2373Z" fill="#515151"/>
<path d="M24.1693 38.5343H17.7457C17.4868 38.5194 17.2435 38.4082 17.0656 38.2235C16.8877 38.0387 16.7886 37.7944 16.7886 37.5405C16.7886 37.2866 16.8877 37.0422 17.0656 36.8575C17.2435 36.6727 17.4868 36.5615 17.7457 36.5466H24.1693C24.4325 36.5651 24.6799 36.676 24.8661 36.8589C25.0523 37.0419 25.1648 37.2845 25.1827 37.5422C25.351 38.0365 24.8461 38.5343 24.1693 38.5343Z" fill="#515151"/>
<path d="M5.23847 40.5185C4.2024 40.5185 3.18957 40.2177 2.32811 39.6541C1.46665 39.0906 0.795256 38.2896 0.398769 37.3524C0.00228221 36.4152 -0.101474 35.384 0.100654 34.3891C0.302781 33.3942 0.801693 32.4803 1.53431 31.7631C2.26692 31.0458 3.20033 30.5573 4.21649 30.3594C5.23265 30.1615 6.28594 30.2631 7.24314 30.6513C8.20035 31.0395 9.01848 31.6969 9.59409 32.5403C10.1697 33.3837 10.4769 34.3753 10.4769 35.3897C10.4714 36.7483 9.91772 38.0497 8.93652 39.0103C7.95531 39.971 6.62609 40.5131 5.23847 40.5185ZM5.23847 32.2451C4.38665 32.2451 3.56969 32.5764 2.96736 33.1662C2.36503 33.7559 2.02666 34.5557 2.02666 35.3897C2.02666 36.2237 2.36503 37.0235 2.96736 37.6132C3.56969 38.203 4.38665 38.5343 5.23847 38.5343C6.0903 38.5343 6.90721 38.203 7.50954 37.6132C8.11187 37.0235 8.45025 36.2237 8.45025 35.3897C8.44746 34.5575 8.10785 33.7603 7.50582 33.1728C6.90379 32.5853 6.08848 32.2554 5.23847 32.2554V32.2451Z" fill="#515151"/>
<path d="M51.7186 56.0733C50.448 56.0739 49.2057 55.7056 48.1489 55.015C47.0921 54.3243 46.2682 53.3423 45.7815 52.1932C45.2947 51.0441 45.1671 49.7794 45.4145 48.5592C45.662 47.339 46.2735 46.2181 47.1717 45.3382C48.0699 44.4583 49.2145 43.859 50.4607 43.616C51.7068 43.3731 52.9986 43.4974 54.1725 43.9733C55.3465 44.4492 56.3499 45.2553 57.0559 46.2896C57.7619 47.324 58.1387 48.5401 58.1387 49.7841C58.1396 50.61 57.9743 51.4279 57.652 52.1911C57.3297 52.9543 56.8569 53.6478 56.2606 54.232C55.6643 54.8161 54.9562 55.2794 54.1768 55.5954C53.3975 55.9113 52.5621 56.0737 51.7186 56.0733ZM51.7186 45.6474C50.8812 45.6467 50.0625 45.8895 49.3662 46.3449C48.6699 46.8003 48.1274 47.4479 47.8074 48.2056C47.4874 48.9632 47.4044 49.7968 47.5689 50.6007C47.7334 51.4046 48.1379 52.1426 48.7313 52.7211C49.3246 53.2996 50.0801 53.6926 50.9018 53.8503C51.7236 54.008 52.5747 53.9233 53.3472 53.6069C54.1197 53.2905 54.7789 52.7566 55.2411 52.073C55.7034 51.3894 55.9479 50.5868 55.9438 49.7669C55.947 49.2234 55.8399 48.6847 55.6285 48.1822C55.4172 47.6796 55.1059 47.2232 54.7127 46.8395C54.3195 46.4559 53.8523 46.1526 53.3383 45.9473C52.8243 45.7421 52.2737 45.6389 51.7186 45.644V45.6474Z" fill="#515151"/>
<path d="M10.4769 81.8855H7.43691C7.0153 81.886 6.59772 81.8051 6.20807 81.6474C5.81842 81.4898 5.4643 81.2585 5.16601 80.9667C4.86772 80.675 4.63108 80.3286 4.46963 79.9473C4.30817 79.5659 4.2251 79.1572 4.2251 78.7444V56.087C4.2251 55.674 4.30817 55.2651 4.46958 54.8836C4.63099 54.5021 4.86756 54.1554 5.1658 53.8634C5.46404 53.5714 5.81814 53.3398 6.20781 53.1818C6.59749 53.0237 7.01513 52.9424 7.43691 52.9424H10.4769C10.8988 52.9419 11.3167 53.023 11.7065 53.1808C12.0964 53.3387 12.4507 53.5703 12.749 53.8624C13.0474 54.1545 13.2839 54.5013 13.4452 54.8831C13.6064 55.2648 13.6892 55.6739 13.6887 56.087V78.5899C13.6887 80.3991 12.1704 81.8855 10.4769 81.8855ZM7.43691 55.0811C7.2804 55.0769 7.12462 55.1039 6.9791 55.1605C6.83359 55.2171 6.70138 55.3021 6.59051 55.4103C6.47963 55.5186 6.3924 55.6477 6.33416 55.79C6.27593 55.9323 6.2479 56.0848 6.25177 56.238V78.7444C6.2479 78.8977 6.27593 79.0501 6.33416 79.1924C6.3924 79.3347 6.47963 79.4639 6.59051 79.5721C6.70138 79.6804 6.83359 79.7654 6.9791 79.822C7.12462 79.8786 7.2804 79.9056 7.43691 79.9013H10.4769C10.6334 79.9056 10.7892 79.8786 10.9347 79.822C11.0802 79.7654 11.2124 79.6804 11.3233 79.5721C11.4342 79.4639 11.5214 79.3347 11.5796 79.1924C11.6379 79.0501 11.6659 78.8977 11.662 78.7444V56.087C11.6659 55.9336 11.6379 55.781 11.5797 55.6385C11.5215 55.496 11.4343 55.3666 11.3235 55.2581C11.2126 55.1496 11.0805 55.0642 10.9349 55.0073C10.7894 54.9503 10.6336 54.9229 10.4769 54.9266H7.43691V55.0811Z" fill="#515151"/>
<path d="M85.3512 81.8855H82.3077C81.8861 81.886 81.4685 81.8051 81.0789 81.6474C80.6892 81.4898 80.3352 81.2585 80.0369 80.9668C79.7386 80.675 79.5019 80.3286 79.3405 79.9473C79.179 79.5659 79.0959 79.1572 79.0959 78.7444V56.087C79.0959 55.674 79.179 55.2651 79.3404 54.8836C79.5018 54.5021 79.7384 54.1554 80.0366 53.8634C80.3349 53.5714 80.6889 53.3398 81.0786 53.1818C81.4683 53.0237 81.8859 52.9424 82.3077 52.9424H85.3512C85.773 52.9424 86.1907 53.0237 86.5803 53.1818C86.97 53.3398 87.3241 53.5714 87.6223 53.8634C87.9206 54.1554 88.1572 54.5021 88.3186 54.8836C88.48 55.2651 88.5631 55.674 88.5631 56.087V78.5899C88.5923 79.0173 88.5304 79.446 88.3814 79.8487C88.2324 80.2515 87.9995 80.6195 87.6975 80.9294C87.3955 81.2393 87.031 81.4843 86.627 81.6489C86.2231 81.8135 85.7887 81.8941 85.3512 81.8855ZM82.4761 55.0811C82.3198 55.0773 82.1644 55.1047 82.0193 55.1615C81.8742 55.2183 81.7424 55.3034 81.6319 55.4116C81.5214 55.5198 81.4345 55.6488 81.3765 55.7909C81.3185 55.9329 81.2905 56.085 81.2944 56.238V78.7444C81.2905 78.8974 81.3185 79.0495 81.3765 79.1916C81.4345 79.3336 81.5214 79.4627 81.6319 79.5709C81.7424 79.679 81.8742 79.7641 82.0193 79.8209C82.1644 79.8777 82.3198 79.9051 82.4761 79.9013H85.5195C85.6758 79.9051 85.8311 79.8777 85.9762 79.8209C86.1213 79.7641 86.2531 79.679 86.3636 79.5709C86.4741 79.4627 86.5611 79.3336 86.6191 79.1916C86.6771 79.0495 86.705 78.8974 86.7012 78.7444V56.087C86.7055 55.9337 86.678 55.7812 86.6201 55.6387C86.5623 55.4963 86.4755 55.3668 86.365 55.2583C86.2544 55.1497 86.1224 55.0643 85.9771 55.0073C85.8317 54.9503 85.6761 54.9229 85.5195 54.9266H82.4761V55.0811Z" fill="#515151"/>
<path d="M69.131 92.3114H55.9472C55.6784 92.3114 55.4207 92.2069 55.2306 92.0208C55.0406 91.8348 54.9338 91.5825 54.9338 91.3193C54.9338 91.0562 55.0406 90.8038 55.2306 90.6178C55.4207 90.4317 55.6784 90.3272 55.9472 90.3272H69.131C69.5787 90.3254 70.0075 90.1505 70.324 89.8406C70.6406 89.5306 70.8192 89.1108 70.821 88.6725V85.0302C70.821 84.767 70.9278 84.5147 71.1179 84.3286C71.3079 84.1425 71.5656 84.038 71.8344 84.038C72.1031 84.038 72.3609 84.1425 72.5509 84.3286C72.7409 84.5147 72.8477 84.767 72.8477 85.0302V88.5077C72.8603 88.9968 72.774 89.4835 72.5937 89.9398C72.4135 90.3961 72.1428 90.813 71.7974 91.1665C71.452 91.52 71.0386 91.8031 70.5809 91.9996C70.1233 92.1961 69.6306 92.3021 69.131 92.3114Z" fill="#515151"/>
<path d="M53.9133 95.2912H46.3081C45.9082 95.2926 45.512 95.2164 45.1423 95.0671C44.7726 94.9178 44.4368 94.6983 44.1541 94.4213C43.8715 94.1442 43.6478 93.8152 43.4957 93.4531C43.3436 93.0909 43.2662 92.7029 43.2681 92.3114V89.9941C43.2662 89.6028 43.3436 89.2149 43.4957 88.853C43.6478 88.4911 43.8717 88.1622 44.1544 87.8855C44.437 87.6088 44.7729 87.3896 45.1426 87.2406C45.5122 87.0917 45.9084 87.016 46.3081 87.0178H53.9133C54.3132 87.016 54.7096 87.0917 55.0794 87.2406C55.4493 87.3895 55.7854 87.6086 56.0683 87.8853C56.3513 88.162 56.5754 88.4908 56.7279 88.8527C56.8804 89.2147 56.9582 89.6026 56.9569 89.9941V92.3114C56.9582 92.7031 56.8804 93.0912 56.728 93.4533C56.5755 93.8155 56.3514 94.1445 56.0685 94.4215C55.7856 94.6984 55.4496 94.9179 55.0797 95.0672C54.7098 95.2164 54.3134 95.2925 53.9133 95.2912ZM46.3081 89.1668C46.0455 89.1852 45.7985 89.2956 45.6124 89.4778C45.4263 89.66 45.3135 89.9019 45.2948 90.1589V92.4796C45.3135 92.7367 45.4263 92.9785 45.6124 93.1607C45.7985 93.343 46.0455 93.4534 46.3081 93.4717H53.9133C54.1761 93.4541 54.4236 93.3439 54.6098 93.1615C54.7961 92.9791 54.9086 92.7369 54.9267 92.4796V90.1589C54.9086 89.9016 54.7961 89.6594 54.6098 89.477C54.4236 89.2946 54.1761 89.1845 53.9133 89.1668H46.3081Z" fill="#515151"/>
<path d="M24.1691 50.9444H17.7455C17.4829 50.9261 17.2359 50.8157 17.0498 50.6334C16.8637 50.4512 16.7509 50.2094 16.7322 49.9523V32.2555C16.7322 16.3712 30.0843 3.29855 46.3081 3.29855C46.5769 3.29855 46.8346 3.40307 47.0246 3.58913C47.2147 3.77519 47.3215 4.02755 47.3215 4.29068C47.3215 4.55381 47.2147 4.80613 47.0246 4.99219C46.8346 5.17825 46.5769 5.28281 46.3081 5.28281C39.0022 5.28463 31.996 8.12695 26.8299 13.1849C21.6638 18.2429 18.7607 25.1024 18.7588 32.2555V48.8022H22.984V32.2555C22.984 22.6432 29.2393 14.0608 38.5346 10.7446H38.8852C39.1486 10.7614 39.3969 10.8713 39.5839 11.0537C39.7709 11.2362 39.8839 11.4789 39.902 11.7367C39.8967 11.9478 39.8303 12.1531 39.7105 12.3288C39.5907 12.5044 39.4224 12.6431 39.2253 12.7289C35.1148 14.1682 31.5601 16.8178 29.0489 20.3139C26.5377 23.81 25.1932 27.9814 25.1999 32.2555V49.7944C25.2372 49.9403 25.2379 50.093 25.2017 50.2392C25.1655 50.3854 25.0937 50.5209 24.9924 50.6339C24.891 50.747 24.7632 50.8343 24.6198 50.8884C24.4764 50.9425 24.3217 50.9617 24.1691 50.9444Z" fill="#515151"/>
<path d="M74.8708 50.9444H68.4507C68.1875 50.9268 67.9396 50.8168 67.7528 50.6345C67.5659 50.4522 67.4527 50.2099 67.4338 49.9523V38.5343C67.4491 38.2808 67.5626 38.0426 67.7513 37.8684C67.94 37.6942 68.1896 37.5972 68.4489 37.5972C68.7083 37.5972 68.9578 37.6942 69.1465 37.8684C69.3352 38.0426 69.4488 38.2808 69.464 38.5343V48.7919H73.6716V38.3661C73.6716 38.103 73.7784 37.8506 73.9684 37.6645C74.1584 37.4785 74.4162 37.374 74.6849 37.374C74.9537 37.374 75.2114 37.4785 75.4015 37.6645C75.5915 37.8506 75.6983 38.103 75.6983 38.3661V49.7841C76.0559 50.4501 75.5475 50.9444 74.8708 50.9444Z" fill="#515151"/>
<path d="M50.7017 29.1006H42.7599C41.5132 29.0752 40.3248 28.5792 39.4427 27.7162C38.5607 26.8533 38.0532 25.6901 38.0264 24.4695V11.7264C38.1236 10.5599 38.6635 9.47145 39.5396 8.67529C40.4157 7.87914 41.5646 7.43307 42.7599 7.42494H45.4633V1.13576C45.4673 0.926326 45.5318 0.722283 45.6494 0.547271C45.767 0.37226 45.9328 0.23343 46.1276 0.146859C46.3224 0.0602877 46.5383 0.0295526 46.7502 0.0581434C46.9622 0.0867342 47.1615 0.173479 47.3252 0.308407L54.7586 7.42494H77.5778C78.8242 7.45036 80.0122 7.94644 80.8937 8.80948C81.7752 9.67252 82.2819 10.8357 82.3079 12.056V19.835C82.3079 20.0981 82.2011 20.3505 82.0111 20.5366C81.821 20.7226 81.5633 20.8271 81.2945 20.8271C81.0258 20.8271 80.7681 20.7226 80.578 20.5366C80.388 20.3505 80.2812 20.0981 80.2812 19.835V12.056C80.2644 11.4029 79.9919 10.7812 79.52 10.3192C79.0482 9.85729 78.4131 9.59049 77.7461 9.57397H54.422C54.2902 9.56982 54.161 9.53682 54.0439 9.47742C53.9268 9.41802 53.8247 9.33372 53.7453 9.23068L47.4935 3.60407V8.4102C47.4754 8.66806 47.3623 8.91073 47.1753 9.09318C46.9883 9.27563 46.7401 9.38548 46.4766 9.40232H42.7599C42.11 9.38101 41.4781 9.61305 41.0028 10.0475C40.5275 10.482 40.2477 11.0833 40.2248 11.7196V24.2944C40.2409 24.9478 40.5131 25.57 40.9851 26.0321C41.457 26.4942 42.0926 26.7608 42.7599 26.7765H50.7017C50.9655 26.7941 51.2138 26.9046 51.4007 27.0877C51.5877 27.2707 51.7006 27.5138 51.7186 27.772C51.7186 28.6062 51.2102 29.1006 50.7017 29.1006Z" fill="#515151"/>
<path d="M87.5498 46.8077C87.4179 46.8038 87.2886 46.7709 87.1715 46.7115C87.0544 46.6521 86.9523 46.5677 86.873 46.4644L79.096 39.5161H54.2536C53.0066 39.4899 51.8181 38.9932 50.9362 38.1296C50.0542 37.2661 49.5468 36.1026 49.52 34.8817V23.4637C49.5469 22.2431 50.0543 21.0799 50.9364 20.2169C51.8184 19.354 53.0069 18.858 54.2536 18.8326H91.2665C92.5132 18.858 93.7016 19.354 94.5837 20.2169C95.4657 21.0799 95.9732 22.2431 96 23.4637V34.8817C95.9732 36.1026 95.4659 37.2661 94.5839 38.1296C93.702 38.9932 92.5135 39.4899 91.2665 39.5161H88.5631V45.8053C88.5694 46.019 88.5077 46.2293 88.3864 46.4071C88.2652 46.5848 88.0904 46.7213 87.8864 46.7974C87.8864 46.6395 87.7146 46.8077 87.5498 46.8077ZM54.2396 20.8272C53.5723 20.8428 52.9367 21.1094 52.4648 21.5715C51.9928 22.0336 51.7205 22.6558 51.7045 23.3092V34.7272C51.7205 35.3805 51.9928 36.0028 52.4648 36.4649C52.9367 36.927 53.5723 37.1935 54.2396 37.2092H79.5904C79.7223 37.2126 79.8518 37.2453 79.969 37.3047C80.0862 37.3642 80.1882 37.4489 80.2671 37.5525L86.5189 43.1757V38.3696C86.5377 38.1119 86.651 37.8696 86.8378 37.6873C87.0247 37.505 87.2725 37.395 87.5357 37.3774H91.2524C91.9197 37.3617 92.5553 37.0952 93.0273 36.6331C93.4993 36.171 93.7715 35.5487 93.7875 34.8954V23.4774C93.7706 22.8244 93.4981 22.2026 93.0263 21.7406C92.5545 21.2787 91.9195 21.0119 91.2524 20.9954H54.2536L54.2396 20.8272Z" fill="#515151"/>
<path d="M89.7446 26.1208H55.9435C55.8104 26.1208 55.6787 26.0951 55.5557 26.0453C55.4328 25.9954 55.3211 25.9223 55.227 25.8302C55.1329 25.7381 55.0582 25.6287 55.0073 25.5083C54.9564 25.388 54.9302 25.2589 54.9302 25.1287C54.9302 24.9984 54.9564 24.8694 55.0073 24.749C55.0582 24.6286 55.1329 24.5192 55.227 24.4271C55.3211 24.335 55.4328 24.2619 55.5557 24.2121C55.6787 24.1622 55.8104 24.1365 55.9435 24.1365H89.7446C89.8777 24.1365 90.0094 24.1622 90.1324 24.2121C90.2553 24.2619 90.367 24.335 90.4611 24.4271C90.5552 24.5192 90.6298 24.6286 90.6808 24.749C90.7317 24.8694 90.7579 24.9984 90.7579 25.1287C90.7579 25.2589 90.7317 25.388 90.6808 25.5083C90.6298 25.6287 90.5552 25.7381 90.4611 25.8302C90.367 25.9223 90.2553 25.9954 90.1324 26.0453C90.0094 26.0951 89.8777 26.1208 89.7446 26.1208Z" fill="#515151"/>
<path d="M89.7448 30.2609H55.9437C55.8054 30.2689 55.6668 30.2491 55.5366 30.2027C55.4064 30.1564 55.2872 30.0845 55.1864 29.9914C55.0856 29.8983 55.0053 29.7861 54.9504 29.6615C54.8955 29.537 54.8672 29.4028 54.8672 29.2671C54.8672 29.1314 54.8955 28.9972 54.9504 28.8726C55.0053 28.7481 55.0856 28.6358 55.1864 28.5428C55.2872 28.4497 55.4064 28.3778 55.5366 28.3314C55.6668 28.2851 55.8054 28.2653 55.9437 28.2733H89.7448C90.0037 28.2882 90.247 28.3994 90.4249 28.5841C90.6028 28.7689 90.7019 29.0132 90.7019 29.2671C90.7019 29.521 90.6028 29.7653 90.4249 29.9501C90.247 30.1348 90.0037 30.246 89.7448 30.2609Z" fill="#515151"/>
<path d="M89.7448 34.3976H55.9437C55.8054 34.4056 55.6668 34.3858 55.5366 34.3394C55.4064 34.2931 55.2872 34.2212 55.1864 34.1281C55.0856 34.035 55.0053 33.9228 54.9504 33.7982C54.8955 33.6737 54.8672 33.5394 54.8672 33.4038C54.8672 33.2681 54.8955 33.1339 54.9504 33.0093C55.0053 32.8848 55.0856 32.7725 55.1864 32.6795C55.2872 32.5864 55.4064 32.5145 55.5366 32.4681C55.6668 32.4218 55.8054 32.402 55.9437 32.4099H89.7448C90.0037 32.4248 90.247 32.536 90.4249 32.7208C90.6028 32.9055 90.7019 33.1498 90.7019 33.4038C90.7019 33.6577 90.6028 33.902 90.4249 34.0867C90.247 34.2715 90.0037 34.3827 89.7448 34.3976Z" fill="#515151"/>
<path d="M46.4765 18.843H39.0431C38.9047 18.8509 38.7662 18.8311 38.636 18.7847C38.5058 18.7384 38.3866 18.6665 38.2858 18.5734C38.185 18.4803 38.1047 18.3681 38.0498 18.2435C37.9949 18.119 37.9666 17.9848 37.9666 17.8491C37.9666 17.7134 37.9949 17.5792 38.0498 17.4546C38.1047 17.3301 38.185 17.2178 38.2858 17.1248C38.3866 17.0317 38.5058 16.9598 38.636 16.9134C38.7662 16.8671 38.9047 16.8473 39.0431 16.8553H46.4765C46.6148 16.8473 46.7533 16.8671 46.8836 16.9134C47.0138 16.9598 47.133 17.0317 47.2338 17.1248C47.3346 17.2178 47.4149 17.3301 47.4698 17.4546C47.5247 17.5792 47.553 17.7134 47.553 17.8491C47.553 17.9848 47.5247 18.119 47.4698 18.2435C47.4149 18.3681 47.3346 18.4803 47.2338 18.5734C47.133 18.6665 47.0138 18.7384 46.8836 18.7847C46.7533 18.8311 46.6148 18.8509 46.4765 18.843Z" fill="#515151"/>
<path d="M44.2816 14.7062H39.0431C38.9047 14.7142 38.7662 14.6944 38.636 14.648C38.5058 14.6017 38.3866 14.5298 38.2858 14.4367C38.185 14.3436 38.1047 14.2314 38.0498 14.1068C37.9949 13.9823 37.9666 13.848 37.9666 13.7124C37.9666 13.5767 37.9949 13.4425 38.0498 13.3179C38.1047 13.1934 38.185 13.0811 38.2858 12.9881C38.3866 12.895 38.5058 12.8231 38.636 12.7767C38.7662 12.7304 38.9047 12.7105 39.0431 12.7185H44.2816C44.544 12.7386 44.7902 12.8507 44.975 13.0342C45.1599 13.2177 45.271 13.4603 45.2879 13.7175C45.2928 13.8483 45.2701 13.9788 45.2213 14.1007C45.1725 14.2225 45.0986 14.3333 45.0042 14.426C44.9098 14.5188 44.797 14.5915 44.6726 14.6397C44.5483 14.6879 44.4152 14.7105 44.2816 14.7062Z" fill="#515151"/>
</svg>
