<svg width="96" height="96" viewBox="0 0 96 96" fill="none" xmlns="http://www.w3.org/2000/svg">
<path d="M19.6777 25.7022C19.6777 20.0342 19.6777 14.4018 19.6777 8.73374C19.6777 7.91384 19.9629 7.20088 20.2481 6.41663C20.6759 5.20459 21.4245 4.27775 22.3513 3.45784C23.2782 2.67359 24.3476 2.17452 25.524 1.85369C26.1657 1.67545 26.7717 1.67545 27.4133 1.67545C41.423 1.67545 55.4683 1.67545 69.478 1.67545C70.3692 1.67545 71.1534 1.96063 71.9733 2.24581C73.1497 2.67359 74.1478 3.4222 74.9321 4.38469C75.7164 5.31154 76.2154 6.38098 76.5006 7.55736C76.6432 8.12773 76.6789 8.6981 76.6789 9.26846C76.6789 16.4337 76.6789 23.5633 76.6789 30.7285C76.6789 31.0494 76.6789 31.3346 76.6789 31.691C76.8927 31.691 77.0353 31.691 77.1779 31.691C78.1404 31.6554 79.0673 31.9049 80.0298 32.0119C81.0636 32.1545 82.0261 32.4753 82.9885 32.8318C83.8441 33.1526 84.6996 33.5091 85.5196 34.0082C86.3751 34.5429 87.195 35.1132 88.0149 35.648C88.4783 35.9331 88.7992 36.4322 89.2269 36.8243C90.2964 37.7868 91.1519 38.8919 91.9362 40.104C92.7204 41.316 93.2908 42.5993 93.7542 43.9539C94.0751 44.8808 94.2533 45.8076 94.4672 46.7345C94.6454 47.4474 94.6454 48.1604 94.6811 48.909C94.7167 49.6576 94.788 50.4062 94.6811 51.1548C94.4315 53.0442 94.0751 54.8979 93.2908 56.6803C92.6492 58.1775 91.8292 59.5678 90.8311 60.8154C89.2982 62.7048 87.8723 63.9881 85.6978 65.3071C84.3432 66.127 82.8816 66.5191 81.4913 67.1608C80.6358 67.1608 79.8515 67.4816 79.0316 67.5885C78.283 67.6955 77.5344 67.6955 76.7145 67.7311C76.7145 68.052 76.7145 68.3728 76.7145 68.6936C76.7145 74.9677 76.7145 81.2417 76.7145 87.5158C76.7145 88.0505 76.3937 89.4764 76.1441 90.0824C75.4668 91.7579 74.2191 92.9342 72.7576 93.8967C72.0446 94.0393 71.403 94.4315 70.69 94.5741C69.8344 94.7523 68.9789 94.7167 68.1233 94.7167C54.3632 94.7167 40.6387 94.7167 26.8786 94.7167C25.9874 94.7167 25.2032 94.4315 24.3833 94.1463C23.2069 93.7185 22.2087 92.9699 21.4245 92.0074C20.6759 91.0806 20.1412 90.0111 19.856 88.7991C19.7134 88.2287 19.6777 87.6584 19.6777 87.088C19.6777 81.6338 19.6777 76.1441 19.6777 70.6899C20.6759 70.6899 21.674 70.6899 22.6722 70.6899C22.6722 76.1441 22.6722 81.5626 22.6722 87.0167C22.6722 87.8009 22.8504 88.5139 23.2425 89.2269C24.0624 90.7954 25.3814 91.6866 27.0925 91.6866C41.1378 91.7222 55.2188 91.7222 69.2641 91.7222C70.1909 91.7222 71.0465 91.4014 71.7238 90.9023C72.9358 90.0111 73.6488 88.7634 73.6488 87.2306C73.6488 80.8852 73.6488 74.5399 73.6488 68.1946C73.6488 67.9807 73.6488 67.7668 73.6488 67.6955C73.3992 67.1251 72.8289 67.5529 72.615 67.1608C72.2585 67.2321 71.9733 67.0538 71.6525 66.9825C71.3317 66.9112 70.9752 66.8399 70.6187 66.7686C70.6187 70.1196 70.6187 73.3992 70.6187 76.6788C55.6109 76.6788 40.6387 76.6788 25.6309 76.6788C25.6309 74.6468 25.6309 72.6862 25.6309 70.7256C26.6291 70.7256 27.6272 70.7256 28.6254 70.7256C28.6254 71.7237 28.6254 72.7218 28.6254 73.6843C32.4754 73.8269 66.7687 73.7556 67.6243 73.6131C67.6243 70.8682 67.6243 68.1233 67.6243 65.2714C67.2678 65.0575 66.8757 64.8793 66.5192 64.6298C65.2715 63.7029 64.0951 62.6691 63.0257 61.5284C62.8474 61.3502 62.7405 61.1006 62.5623 60.8867C62.384 60.6728 62.1345 60.4946 62.0275 60.2807C61.7424 59.7103 61.3502 59.1756 61.0294 58.6409C60.6729 58.1062 60.4234 57.5002 60.1738 56.9298C59.7461 56.0386 59.4609 55.1118 59.2113 54.1493C58.9262 53.1868 58.8549 52.1886 58.6766 51.1905C58.5697 50.4775 58.641 49.6933 58.6766 48.9447C58.7123 48.2317 58.7123 47.4831 58.8905 46.7701C59.1044 45.8433 59.2826 44.8808 59.6035 43.9896C60.1025 42.5993 60.7086 41.2447 61.5285 39.997C61.9206 39.4266 62.3484 38.8919 62.7761 38.3572C63.4535 37.4304 64.2734 36.6105 65.1646 35.8975C65.9488 35.2558 66.7687 34.5785 67.6599 34.1507C67.6599 28.3045 67.6599 22.5295 67.6599 16.7545C64.2734 16.6119 29.5166 16.6832 28.6967 16.8258C28.6967 19.7846 28.6967 22.779 28.6967 25.7378C27.6985 25.7378 26.7004 25.7378 25.7022 25.7378C25.7022 21.7453 25.7022 17.7527 25.7022 13.7601C40.71 13.7601 55.6822 13.7601 70.7256 13.7601C70.7256 20.0698 70.7256 26.3795 70.7256 32.6892C71.6881 32.4396 72.5437 32.2258 73.5775 31.9762C73.5418 32.0119 73.6488 31.9049 73.7201 31.8336C73.7201 24.3476 73.7201 16.8971 73.7201 9.41106C73.7201 8.6268 73.5062 7.91384 73.1854 7.20088C72.4724 5.70367 70.7969 4.74117 69.3354 4.74117C55.2901 4.74117 41.2091 4.74117 27.1638 4.74117C26.237 4.74117 25.3814 5.062 24.7041 5.56107C23.4921 6.45227 22.7791 7.69995 22.7791 9.23282C22.7791 14.7226 22.7791 20.248 22.7791 25.7378C21.674 25.7022 20.6759 25.7022 19.6777 25.7022ZM81.8478 50.6914C85.2344 52.1886 87.6228 54.6483 89.1556 57.9636C90.0825 56.7872 90.5103 55.3969 91.045 54.0067C91.4015 53.0442 91.5441 52.0104 91.651 50.9766C91.8292 49.3368 91.7223 47.6613 91.2589 46.0928C90.9024 44.7738 90.4746 43.4192 89.726 42.2428C88.6922 40.603 87.4802 39.0345 85.9117 37.8581C85.3057 37.3947 84.664 36.9669 83.9867 36.5748C83.3094 36.1827 82.5608 35.8975 81.8478 35.6123C81.1349 35.2915 80.4219 35.1489 79.6733 35.0063C78.889 34.8637 78.0691 34.6498 77.2849 34.6855C76.5006 34.7211 75.7164 34.6142 74.8965 34.7924C74.1479 34.9706 73.3992 35.0419 72.615 35.2202C71.8307 35.3984 71.1178 35.7193 70.4048 36.0044C69.7275 36.2896 69.0502 36.7174 68.4442 37.1452C67.7669 37.6086 67.1965 38.179 66.5192 38.6067C65.8419 39.0702 65.4141 39.7475 64.915 40.3535C62.491 43.3479 61.3859 46.8414 61.6711 50.6914C61.8849 53.2937 62.5979 55.7534 64.1664 57.9636C65.6993 54.577 68.1233 52.1886 71.4743 50.6914C69.977 49.0516 69.0502 47.1979 69.1571 44.9521C69.2284 42.6706 70.1553 40.7456 71.902 39.3554C74.9678 37.0026 78.4613 37.1095 81.4557 39.391C82.1686 39.9257 82.7747 40.6387 83.2024 41.4586C83.6659 42.3854 84.0223 43.3123 84.1649 44.3461C84.3075 45.4512 84.1293 46.5206 83.7728 47.5544C83.4163 48.7308 82.7034 49.7289 81.8478 50.6914ZM66.5192 60.6015C67.0183 61.2076 67.6243 61.6353 68.2303 62.0631C69.1571 62.7048 70.1553 63.2751 71.2247 63.6673C71.8307 63.8812 72.4724 64.1663 73.1141 64.3089C73.4705 64.3802 73.7914 64.4159 74.1478 64.4872C74.5043 64.5585 74.8252 64.5585 75.1816 64.6654C75.6807 64.8436 78.7108 64.7367 79.2812 64.4515C79.6376 64.3089 79.9941 64.3802 80.3149 64.2376C81.5983 63.7029 82.9529 63.4177 84.1293 62.5978C85.0561 61.9918 85.983 61.3858 86.7316 60.6015C86.1969 58.3914 85.1987 56.4664 82.8103 54.6483C81.2062 53.4363 79.3168 52.7946 77.2849 52.652C75.5738 52.5095 73.8983 52.9016 72.3298 53.5789C70.2979 54.4701 69.2997 55.3969 68.052 57.0011C67.3391 58.0705 66.84 59.3182 66.5192 60.6015ZM81.2062 44.9521C81.2774 42.8132 79.0316 40.6743 76.7502 40.6387C74.3617 40.603 72.2229 42.8132 72.1872 45.0947C72.1516 47.4831 74.3617 49.6933 76.6076 49.6576C77.8552 49.6576 78.889 49.2298 79.8159 48.3386C80.7071 47.4831 81.2062 46.4493 81.2062 44.9521Z" fill="#515151"/>
<path d="M28.6967 70.69C27.6986 70.69 26.7004 70.69 25.7023 70.69C24.7041 70.69 23.706 70.69 22.7078 70.69C21.7097 70.69 20.7116 70.69 19.7134 70.69C19.3569 70.69 19.0361 70.69 18.6796 70.69C18.2518 70.3691 18.3588 69.8344 18.2162 69.371C17.931 68.4085 17.7171 67.4104 17.4676 66.4835C17.1111 66.3409 16.7903 66.234 16.5051 66.0914C16.2556 65.9488 16.006 65.9488 15.7565 66.0914C15.1861 66.4122 14.5801 66.733 14.0097 67.0895C13.475 67.4104 12.9047 67.7668 12.4056 68.052C9.69633 65.3428 7.02273 62.6692 4.31349 59.9599C4.9195 59.1757 5.31163 58.1419 5.9533 57.2863C6.45237 56.5734 6.41672 56.3238 6.02459 55.4326C5.95329 55.29 5.98894 55.1474 5.9533 54.9692C4.56302 54.4701 3.10146 54.2919 1.67554 53.7928C1.67554 50.0141 1.67554 46.3067 1.67554 42.5281C3.06581 42.1003 4.49173 41.8507 5.882 41.423C5.98894 41.1378 6.06024 40.817 6.23848 40.5318C6.41672 40.2466 6.41672 39.9971 6.23848 39.7119C5.8107 38.9989 5.45422 38.2859 5.02645 37.573C4.77691 37.1809 4.52738 36.7887 4.34914 36.4323C7.02273 33.7587 9.73198 31.0494 12.4412 28.3402C13.1898 28.8036 14.0454 29.3027 14.9009 29.8017C15.1148 29.9443 15.3644 30.0513 15.5782 30.1939C15.9347 30.4434 16.2912 30.4434 16.6477 30.1939C16.8259 30.0869 17.0755 30.0156 17.3606 29.9087C17.7528 29.4096 17.7528 28.661 17.931 28.0193C18.1093 27.342 18.3944 26.6647 18.3588 25.9517C18.4301 25.8805 18.537 25.7735 18.6083 25.7022C18.9648 25.7022 19.2856 25.7022 19.6421 25.7022C20.6403 25.7022 21.6384 25.7022 22.6366 25.7022C23.6347 25.7022 24.6328 25.7022 25.631 25.7022C26.6291 25.7022 27.6273 25.7022 28.6254 25.7022C28.9819 25.7022 29.3027 25.7022 29.7305 25.7022C30.2296 27.0925 30.4078 28.6253 30.9069 29.9443C31.2277 30.0513 31.4773 30.0869 31.6555 30.2295C32.012 30.479 32.3685 30.479 32.7249 30.2295C33.0814 29.98 33.4735 29.8017 33.8657 29.5878C34.5786 29.1957 35.2916 28.7679 35.8976 28.4115C38.6068 31.1207 41.2804 33.7943 43.9897 36.5036C43.7758 36.8244 43.5263 37.2522 43.3124 37.6443C42.9203 38.3572 42.5281 39.0702 42.1003 39.7832C41.9221 40.0683 41.9221 40.3179 42.1003 40.6031C42.2429 40.8883 42.3499 41.2091 42.4568 41.4943C43.8471 41.922 45.273 42.1716 46.6633 42.5994C46.6633 46.378 46.6633 50.0854 46.6633 53.8998C45.273 54.3275 43.7758 54.5771 42.3855 55.0405C42.3499 55.2187 42.3499 55.397 42.3142 55.5039C41.9221 56.3951 41.8865 56.6447 42.3855 57.3576C43.0272 58.2488 43.4193 59.247 44.0253 60.0312C41.3161 62.7405 38.6425 65.4141 35.9689 68.0877C35.5768 67.8381 35.149 67.4816 34.6856 67.2678C34.0083 66.9469 33.4022 66.4479 32.6893 66.1627C32.3328 66.0201 32.1189 65.9844 31.7981 66.1627C31.5485 66.3053 31.2634 66.3409 30.9069 66.4479C30.6573 67.4104 30.4435 68.4085 30.1583 69.371C30.0157 69.7988 30.1226 70.3335 29.6949 70.69C29.374 70.69 29.0175 70.69 28.6967 70.69ZM37.7156 48.2674C37.6444 44.8452 36.5749 41.8151 34.2934 39.2484C31.8337 36.4679 28.7324 34.935 25.025 34.6855C21.3532 34.4716 18.038 35.5767 15.2574 38.0364C12.4412 40.5318 10.8727 43.6331 10.6588 47.3762C10.4806 51.0479 11.5857 54.3275 14.0454 57.1081C16.5407 59.9243 19.6778 61.4571 23.4208 61.6354C27.0569 61.8136 30.3009 60.7085 33.0814 58.2488C36.1115 55.6109 37.5731 52.26 37.7156 48.2674Z" fill="#FFDA2F"/>
<path d="M37.7156 48.2673C37.573 52.2599 36.1114 55.6108 33.117 58.2844C30.3721 60.7441 27.1281 61.8492 23.4564 61.671C19.7134 61.4927 16.5763 59.9599 14.081 57.1437C11.5856 54.3631 10.4805 51.0835 10.6944 47.4118C10.8727 43.6688 12.4768 40.5674 15.293 38.072C18.0736 35.6123 21.3532 34.5072 25.0606 34.7211C28.768 34.935 31.8337 36.5035 34.329 39.2841C36.6105 41.8151 37.6443 44.8451 37.7156 48.2673ZM24.2763 37.6799V37.6443C23.4921 37.7156 22.7078 37.7156 21.9235 37.8938C21.3888 38.0007 20.8541 38.1433 20.355 38.4285C19.9273 38.6424 19.4638 38.8206 19.0004 38.9989C18.2162 39.3554 17.6814 40.104 16.9328 40.5317C16.8259 40.603 16.7546 40.71 16.6833 40.7813C16.3268 41.2091 15.9347 41.6012 15.6495 42.029C15.3287 42.528 15.0435 43.0984 14.7939 43.6331C14.5444 44.0965 14.2949 44.56 14.1523 45.059C13.9384 45.7007 14.0097 46.4136 13.7602 47.0553C13.6889 47.2336 13.7602 47.4831 13.7602 47.697C13.6176 48.6238 13.8671 49.515 13.974 50.4419C14.0453 50.9409 14.2236 51.5113 14.5088 52.0104C14.7227 52.4382 14.8652 52.9372 15.1148 53.365C15.5069 54.0067 15.9703 54.6483 16.4338 55.2543C16.5407 55.3969 16.6476 55.4682 16.7546 55.5752C17.218 55.9673 17.6458 56.4307 18.1449 56.7516C18.6439 57.108 19.2143 57.3576 19.749 57.6071C20.2124 57.8566 20.6759 58.1062 21.1749 58.2488C21.8166 58.4627 22.5296 58.3914 23.1712 58.6409C23.3495 58.7122 23.599 58.6409 23.8129 58.6409C24.7397 58.7835 25.6309 58.4983 26.5578 58.427C26.9856 58.3914 27.4846 58.2488 27.9124 58.0705C28.5541 57.7853 29.1957 57.5002 29.7661 57.1437C30.3721 56.7516 30.9425 56.3238 31.4772 55.8604C31.9406 55.4326 32.3328 54.8979 32.7605 54.4344C32.9744 54.1849 33.1527 53.9354 33.2952 53.6502C33.6874 52.8659 34.0795 52.1173 34.4003 51.2974C34.6499 50.6558 34.5429 49.9428 34.7925 49.3011C34.8638 49.0872 34.7925 48.8021 34.7925 48.5525C34.8994 47.6613 34.6855 46.7701 34.5786 45.9146C34.5073 45.4155 34.329 44.8451 34.0439 44.3461C33.83 43.9183 33.6874 43.4192 33.4378 42.9914C33.0457 42.3498 32.5823 41.7081 32.1189 41.1021C32.0119 40.9595 31.8693 40.8169 31.7267 40.71C31.299 40.3178 30.8712 39.8901 30.4078 39.6049C29.7661 39.2128 29.0888 38.8919 28.4115 38.5355C28.0906 38.3929 27.7698 38.2859 27.449 38.1433C26.8073 37.8581 26.0587 37.9294 25.3814 37.7156C24.9893 37.6086 24.6328 37.6799 24.2763 37.6799Z" fill="#515151"/>
<path d="M66.5549 28.661C59.9957 31.9762 53.579 35.1846 47.1267 38.4285C47.0198 38.4642 46.8772 38.4285 46.7346 38.4285C46.7346 31.9406 46.7346 25.4527 46.7346 18.8934C46.9485 18.9647 47.1267 18.9647 47.305 19.0717C52.2957 21.567 57.2864 24.0624 62.2771 26.5577C63.6318 27.2351 65.022 27.9124 66.5549 28.661Z" fill="#FFDA2F"/>
<path d="M48.1961 79.6732C48.7308 79.6732 49.2655 79.6732 49.8002 79.6732C51.3331 79.6732 52.7234 81.0278 52.7234 82.5963C52.7234 83.6301 52.6877 84.6639 52.7234 85.6977C52.759 87.3019 51.3331 88.7634 49.7289 88.6922C48.7308 88.6565 47.7326 88.6565 46.7345 88.6922C45.1303 88.7278 43.6688 87.3019 43.7401 85.6977C43.7757 84.6996 43.7757 83.7014 43.7401 82.7033C43.7044 81.0991 45.1303 79.6376 46.7345 79.7089C47.1979 79.7089 47.697 79.6732 48.1961 79.6732ZM49.6576 85.6621C49.6576 84.6283 49.6576 83.6658 49.6576 82.6676C48.6595 82.6676 47.6613 82.6676 46.7345 82.6676C46.7345 83.7371 46.7345 84.6639 46.7345 85.6621C47.697 85.6621 48.6595 85.6621 49.6576 85.6621Z" fill="#515151"/>
<path d="M38.3573 84.2005C37.1096 85.4482 35.9332 86.6246 34.7568 87.801C34.1508 88.407 33.4022 88.7635 32.511 88.7278C31.8693 88.6922 31.2277 88.7635 30.6216 88.5496C29.6592 88.1931 28.768 87.195 28.6967 85.9829C28.661 84.8066 28.661 83.5945 28.6967 82.4181C28.7323 81.3487 29.5879 80.208 30.6573 79.9228C31.6554 79.6376 32.7249 79.6733 33.5804 79.9228C33.9726 80.0297 34.2934 80.2793 34.5429 80.5288C35.8263 81.6339 37.0383 82.8816 38.3573 84.2005ZM31.7267 82.7033C31.7267 83.7371 31.7267 84.6996 31.7267 85.6621C32.0119 85.6621 32.2971 85.6621 32.3684 85.6621C32.9388 85.0917 33.4022 84.6283 33.8656 84.1649C33.4378 83.7371 32.9744 83.2737 32.3684 82.6677C32.2971 82.7033 32.0119 82.7033 31.7267 82.7033Z" fill="#515151"/>
<path d="M58.0349 84.2005C59.3182 82.9172 60.4946 81.7052 61.7423 80.4931C62.277 79.9941 62.9543 79.6376 63.7386 79.6732C64.0951 79.7089 64.4159 79.6732 64.7724 79.6732C66.3053 79.6732 67.6955 81.0635 67.6955 82.5964C67.6955 83.6302 67.6599 84.664 67.6955 85.6978C67.7312 87.3019 66.3053 88.7635 64.7011 88.6922C64.3803 88.6922 64.0594 88.6565 63.7742 88.6922C62.9543 88.7635 62.3127 88.407 61.778 87.8723C60.4946 86.6959 59.3182 85.4482 58.0349 84.2005ZM63.8099 82.7033C63.3821 83.238 62.7761 83.6302 62.4553 84.1649C62.99 84.6996 63.4534 85.163 63.9881 85.6978C64.202 85.6978 64.4516 85.6621 64.6654 85.6621C64.6654 84.6283 64.6654 83.7015 64.6654 82.7033C64.3803 82.7033 64.1307 82.7033 63.8099 82.7033Z" fill="#515151"/>
<path d="M55.6822 7.7356C55.6822 8.73374 55.6822 9.69623 55.6822 10.6587C52.6878 10.6587 49.729 10.6587 46.7346 10.6587C46.7346 9.66059 46.7346 8.69809 46.7346 7.7356C49.6934 7.7356 52.6878 7.7356 55.6822 7.7356Z" fill="#515151"/>
<path d="M43.6688 10.6587C42.6706 10.6587 41.7081 10.6587 40.7456 10.6587C40.7456 9.69621 40.7456 8.73372 40.7456 7.69993C41.1734 7.66428 41.6725 7.69993 42.1715 7.69993C42.6706 7.69993 43.1697 7.69993 43.7044 7.69993C43.6688 8.66242 43.6688 9.62491 43.6688 10.6587Z" fill="#515151"/>
<path d="M24.3833 40.6743C26.3439 40.7813 28.162 41.4942 29.5879 42.9914C31.0138 44.4886 31.7624 46.3067 31.6911 48.4099C31.6198 50.4419 30.8356 52.2243 29.3384 53.6145C27.8412 55.0404 26.0231 55.7534 23.9199 55.6821C21.8879 55.6108 20.1055 54.8266 18.7153 53.2937C17.325 51.7965 16.612 50.0141 16.6833 47.9465C16.7546 45.9502 17.5032 44.2035 18.9648 42.8132C20.4264 41.3873 22.2088 40.71 24.3833 40.6743ZM28.6967 48.2317C28.768 45.9502 26.6648 43.6687 24.2407 43.6687C23.0287 43.6687 21.9949 44.0965 21.1037 44.9521C20.2125 45.8076 19.6778 46.8414 19.6421 48.0891C19.6065 49.3368 20.0699 50.4062 20.9611 51.2974C21.8523 52.153 22.8504 52.6877 24.1338 52.6877C25.3458 52.6877 26.3796 52.1886 27.2351 51.3687C28.162 50.5132 28.6254 49.4794 28.6967 48.2317Z" fill="#515151"/>
</svg>
