<svg width="96" height="96" viewBox="0 0 96 96" fill="none" xmlns="http://www.w3.org/2000/svg">
<path d="M79.6733 84.2005C79.7803 85.2343 79.5307 86.2681 79.2812 87.2306C79.0317 88.1218 78.5326 88.9774 78.1048 89.8329C77.9266 90.1537 77.6771 90.4033 77.4632 90.6885C77.2493 90.938 77.1067 91.2588 76.8572 91.4727C75.9303 92.3283 74.647 93.4333 72.9359 93.9681C70.797 94.6454 70.5831 94.7167 69.1215 94.7167C56.6091 94.7167 44.1323 94.7167 31.6199 94.7167C30.3722 94.7167 29.2671 94.2889 28.2333 93.6116C27.3421 93.0412 26.843 92.1857 26.2727 91.3301C26.0231 90.938 25.7023 89.6547 25.7023 89.2269C25.7023 88.8348 25.7023 88.4783 25.7023 88.0862C25.7023 87.3019 25.5597 86.5533 25.3815 85.8047C25.2745 85.3413 25.2745 84.8065 25.1319 84.3075C24.918 83.4519 24.918 82.5607 24.5972 81.7052C24.5259 81.4913 24.5972 81.2061 24.5616 80.9566C24.5259 80.7427 24.3833 80.4931 24.3833 80.2792C24.3833 79.7802 24.2051 79.3167 24.1338 78.8533C24.0625 78.4256 23.9555 77.9265 23.8486 77.4987C23.7417 77.0353 23.6704 76.5006 23.5991 76.0015C23.4921 75.2172 23.2426 74.433 23.2426 73.6131C22.8505 73.2922 23.2426 72.7575 22.9931 72.401C22.7079 72.0446 22.9574 71.6524 22.7435 71.296C22.5653 70.9751 22.7079 70.4404 22.7079 70.0126C22.7079 69.0145 23.1 68.1233 23.5991 67.3034C24.2764 66.1627 25.3102 65.4853 26.4866 65.0219C26.9143 64.8437 27.3778 64.7011 27.8768 64.7367C29.0532 64.7367 30.2652 64.7367 31.4416 64.7367C31.6912 65.2358 31.6912 65.7349 31.7625 66.2696C31.8694 67.1964 32.1189 68.0876 32.1189 69.0145C32.4041 69.4066 32.1902 69.87 32.3328 70.2265C32.4754 70.6543 32.4754 71.0464 32.5111 71.4742C32.5467 71.795 32.6537 72.1159 32.6893 72.4367C32.725 72.7219 32.7606 73.0071 32.8319 73.2922C32.9745 73.72 32.9032 74.2191 33.0101 74.7182C33.1884 75.3598 33.1527 76.0371 33.224 76.6788C33.2597 76.9996 33.3666 77.3205 33.4023 77.6413C33.4379 77.9265 33.4379 78.2117 33.5449 78.4968C33.6874 78.9246 33.5805 79.4237 33.7231 79.9228C33.9013 80.5644 33.8657 81.2417 33.937 81.8834C33.9726 82.2042 34.0796 82.5251 34.1152 82.8459C34.1509 83.1311 33.9726 83.4876 34.2935 83.7015V83.7728C34.1509 84.3788 34.5074 84.9491 34.4717 85.6264C37.5018 85.6264 40.5675 85.6264 43.6689 85.6264C43.6689 85.0917 43.6689 84.5214 43.6689 83.951C43.6689 83.4163 43.8828 82.5964 44.2036 82.026C44.7383 81.0992 45.5226 80.3505 46.5207 79.9228C46.9485 79.7445 47.4119 79.6376 47.911 79.6376C50.5489 79.6376 53.1512 79.6376 55.7892 79.6376C56.0031 77.3561 57.0012 75.3955 58.3202 73.5061C57.7142 73.5418 57.1082 73.5774 56.5378 73.6487C55.9318 73.72 55.3258 73.5061 54.7554 73.4348C54.2207 73.3635 53.6503 73.0427 53.1869 72.7219C52.6878 72.401 52.1531 72.1159 51.7253 71.6881C51.2976 71.2603 51.048 70.7256 50.6559 70.2622C50.2638 69.7987 50.2994 69.1571 49.9073 68.7293C49.5152 66.9826 49.729 65.2002 49.6934 63.4534C49.6577 61.7066 49.6934 59.9599 49.6934 58.1775C49.3013 57.7854 48.6596 57.7141 48.3388 57.215C47.7684 57.1437 47.6258 56.5733 47.3763 56.2169C47.1267 55.8604 46.8059 55.4326 46.8772 54.9335C46.3068 53.365 46.9485 51.8322 48.1605 50.5488C48.8735 49.8002 49.3013 48.9447 49.5151 47.9109C49.6577 47.3405 49.6934 46.7702 49.6934 46.1998C49.6934 45.772 49.6577 45.3086 49.6934 44.8808C49.729 44.453 49.8003 44.0609 49.8716 43.6331C49.9073 43.5975 50.0142 43.5975 50.0142 43.5618C50.0142 42.9915 50.3707 42.5993 50.7628 42.2785C51.1906 41.922 51.4758 41.423 52.0105 41.1734C52.6522 40.8882 53.4364 40.6031 54.0424 40.6031C58.1776 40.6031 62.2771 40.6031 66.4123 40.6031C66.8757 40.6031 67.3035 40.6744 67.7313 40.7456C68.8007 40.9595 69.7276 41.4943 70.69 42.0646C70.69 36.5392 70.69 31.0494 70.69 25.5596C70.69 24.4189 71.1891 23.5633 72.1873 22.993C72.1873 22.886 72.2229 22.7078 72.1516 22.6365C71.4387 21.7453 70.9039 20.7115 70.0484 19.9629C69.6563 19.642 69.2998 19.2499 68.872 18.9647C68.266 18.5726 67.7313 18.1448 67.0896 17.8596C66.341 17.5032 65.5924 17.1823 64.8081 17.0041C63.9526 16.7902 63.0614 16.5763 62.1702 16.5763C61.4572 16.5763 60.7086 16.612 59.9957 16.7189C59.2471 16.8259 58.5697 17.1823 57.8211 17.1467C56.6447 17.717 55.4327 18.2161 54.4702 18.9647C54.2207 18.9647 54.0424 18.9647 53.8642 18.9647C53.7929 18.6439 53.686 18.3587 53.6147 18.0735C53.3295 17.0041 52.973 15.9703 52.4739 14.9722C51.5114 13.0115 50.2994 11.1935 48.7309 9.69626C48.3031 9.30413 47.8397 8.94765 47.4119 8.55552C46.699 7.91386 45.8791 7.41478 45.0592 6.95136C43.7402 6.20275 42.3856 5.59674 40.924 5.20461C39.7833 4.88378 38.6069 4.74119 37.4661 4.56295C36.7532 4.456 36.0402 4.56295 35.3273 4.5273C34.6143 4.49165 33.9726 4.84813 33.2597 4.70554C33.224 4.70554 33.1884 4.70554 33.1527 4.70554C32.2615 5.02637 31.3347 5.13331 30.4435 5.45415C29.3384 5.84627 28.2333 6.20275 27.2708 6.84442C25.9875 7.66432 24.6685 8.48422 23.6347 9.66061C23.1713 10.1953 22.5296 10.6231 22.1375 11.1935C21.5315 12.1203 20.8898 13.0115 20.3551 14.0097C19.856 14.9365 19.4639 15.899 19.1074 16.8615C18.7509 17.8596 18.5371 18.8934 18.2519 19.8916C18.0736 19.8916 17.8241 19.9629 17.7172 19.8916C17.3963 19.642 17.0755 19.749 16.7547 19.7133C16.3982 19.6777 16.0417 19.5351 15.7209 19.5351C15.0079 19.5351 14.2593 19.4638 13.5463 19.6777C12.7264 19.8916 11.5501 20.0698 10.2667 20.7828C9.12599 21.3888 8.23479 22.173 7.30794 23.1355C6.77322 23.7059 6.34545 24.3476 5.98897 25.0249C5.13341 26.5221 4.74129 28.1263 4.66999 29.8374C4.63434 30.4434 4.70564 31.0494 4.81258 31.6554C4.99082 32.5466 5.20471 33.4022 5.56119 34.2577C6.48804 36.3609 7.84266 37.7512 9.41117 38.8207C11.0866 39.9614 12.9403 40.5318 14.9723 40.5318C24.5972 40.5674 34.2222 40.5318 43.8471 40.5318C43.9184 40.5674 43.9897 40.6031 44.0254 40.6743C44.4888 41.8507 45.3087 42.6706 46.4851 43.1697C46.6633 43.241 46.8415 43.4192 47.0198 43.5262C36.2541 43.5262 25.5241 43.5262 14.7584 43.5262C13.2612 43.5262 11.8352 43.1697 10.4093 42.6706C8.69821 42.0646 7.201 41.1734 5.95332 39.8901C5.16906 39.1058 4.38481 38.2859 3.74314 37.3234C3.17278 36.4322 2.70935 35.5054 2.38852 34.5072C2.13898 33.6873 1.9251 32.8318 1.7825 31.9406C1.56862 30.8355 1.60426 29.7304 1.67556 28.6253C1.7825 27.5202 2.06769 26.3795 2.45982 25.3101C3.10148 23.599 3.99268 22.0661 5.31165 20.7828C6.09591 20.0342 6.84452 19.2499 7.80701 18.6439C8.69821 18.0735 9.62506 17.6101 10.6232 17.2893C11.4431 17.0041 12.263 16.6476 13.1899 16.7189C14.1167 16.2911 15.0792 16.6833 15.9704 16.505C16.2199 15.7921 16.4695 15.1147 16.7547 14.4731C17.1111 13.6888 17.432 12.8689 17.8954 12.1203C18.3588 11.3717 18.8222 10.6231 19.2857 9.91014C19.8204 9.09024 20.6046 8.37728 21.3176 7.66432C22.2801 6.63053 23.4208 5.73933 24.5972 4.95507C25.631 4.27776 26.7004 3.6361 27.9125 3.24397C28.6254 2.99444 29.3027 2.70925 30.0514 2.49536C30.7643 2.28148 31.5129 2.10324 32.2615 1.925C32.7962 1.81805 33.3666 1.88935 33.8657 1.71111C34.4004 1.53287 34.8995 1.56852 35.3986 1.56852C35.9689 1.53287 36.5393 1.56852 37.074 1.56852C37.5374 1.56852 37.9652 1.56852 38.4286 1.71111C38.8208 1.8537 39.3198 1.63981 39.7476 1.925C40.817 1.88935 41.7439 2.35277 42.742 2.60231C43.9184 2.92314 44.9879 3.49351 46.0929 4.06388C47.0911 4.56295 48.0179 5.24026 48.9091 5.91757C49.7647 6.55923 50.6559 7.16525 51.3332 7.98515C52.2957 9.12589 53.3295 10.1953 54.0424 11.55C54.5415 12.4768 55.0049 13.4036 55.504 14.3305C55.5753 14.4731 55.6823 14.58 55.7892 14.7226C56.11 14.6157 56.4665 14.5444 56.7873 14.4018C57.6785 14.0453 58.641 13.8671 59.6035 13.6888C60.6017 13.5106 61.6355 13.4749 62.6336 13.5462C64.2021 13.6532 65.6993 13.9384 67.1609 14.5444C68.1234 14.9365 69.0146 15.4712 69.9414 15.9703C70.2266 16.1129 70.5475 16.2911 70.7257 16.5407C71.3317 17.2893 72.2229 17.7171 72.8289 18.537C73.3993 19.3212 74.0053 20.0342 74.54 20.8541C74.8965 21.3531 75.1104 21.9235 75.4669 22.5652C75.859 22.5652 76.3224 22.5652 76.7502 22.5652C78.3187 22.5652 79.6733 23.9554 79.6733 25.4883C79.6733 25.7735 79.6733 26.0587 79.6733 26.3439C79.6733 33.4378 79.6733 40.5674 79.6733 47.6613C81.6696 48.5169 83.2025 49.9785 84.165 51.6539C85.6266 54.1849 86.0543 56.0743 85.4483 59.2826C85.1275 61.1006 84.3432 63.0969 81.5627 65.414C80.1724 66.5904 78.497 67.1608 76.6789 67.4816C76.6789 67.9807 76.6789 68.5154 76.6789 69.0145C77.2493 69.6562 77.8909 70.1909 78.3544 70.8682C79.1743 72.0802 79.6377 73.3635 79.6377 74.8251C79.709 77.9978 79.6733 81.0992 79.6733 84.2005ZM52.8304 67.6599C52.9374 68.0163 52.973 68.3372 53.1156 68.5511C53.7573 69.4779 54.4702 70.4048 55.7535 70.4761C56.2883 70.8682 56.9299 70.7256 57.429 70.6186C57.9637 70.5117 58.4984 70.3691 59.0688 70.2622C59.6392 70.1552 60.2095 70.0126 60.7799 69.9057C61.172 69.8344 61.5642 69.8344 61.9206 69.6918C62.3128 69.5492 62.7049 69.4779 63.097 69.371C63.5248 69.2284 63.9882 69.264 64.416 69.1571C64.9864 69.0501 65.5567 68.9432 66.0915 68.7293C67.8382 68.0876 69.6206 67.7668 71.4743 67.6599C71.9734 67.6242 72.4725 67.6599 72.9715 67.6599C73.1141 67.6599 73.2924 67.6242 73.4349 67.6242C72.5794 67.3034 71.6882 67.1251 70.8683 66.733C70.0484 66.3409 69.2998 65.8062 68.5512 65.3071C67.7313 64.7367 67.1253 63.9881 66.5549 63.2395C66.0202 62.5266 65.6993 61.671 65.3429 60.8511C64.9864 59.9955 64.7725 59.1043 64.6655 58.2488C64.4517 56.003 64.9151 53.8641 66.0558 51.9035C67.1609 50.0141 68.7651 48.7308 70.6544 47.697C70.5831 47.5544 70.4762 47.3762 70.4405 47.2336C70.4049 47.0197 70.3692 46.8414 70.2979 46.6276C70.0127 45.772 69.4424 45.166 68.8007 44.6313C68.1234 44.0609 67.3035 43.7044 66.3766 43.7044C62.1345 43.7044 57.8924 43.7044 53.7573 43.7044C52.7591 44.0609 52.5809 44.7382 52.5809 45.6294C52.5809 46.5563 52.6522 47.4475 52.4383 48.3743C52.26 49.0873 52.0818 49.8002 51.761 50.4419C51.3332 51.4044 50.6915 52.2243 49.9786 52.9729C49.3726 53.6502 49.4439 54.5771 50.1925 55.0761C50.3707 55.1831 50.5489 55.2544 50.7272 55.3257C51.3332 55.6465 51.9749 55.9673 52.5809 56.2882C52.5809 57.1081 52.5809 57.8923 52.5809 58.7122C55.611 58.7122 58.5697 58.7122 61.5285 58.7122C61.6711 60.1025 61.5998 61.4571 61.1364 62.7404C60.8512 63.5247 60.3878 64.2733 59.8887 64.915C59.354 65.5923 58.6767 66.127 57.8924 66.6261C56.4309 67.5886 54.6841 67.7668 52.8304 67.6599ZM55.6823 83.7728C55.6823 86.0186 55.6823 88.3357 55.6823 90.5459C56.0387 91.5084 56.716 91.6866 57.5716 91.6866C61.3503 91.651 65.129 91.6866 68.9077 91.6866C69.2285 91.6866 69.5493 91.7223 69.8345 91.6866C70.1553 91.651 70.4762 91.6153 70.797 91.5084C71.2604 91.3301 71.7595 91.2945 72.1873 91.0449C73.328 90.4389 74.3618 89.7616 75.146 88.6565C76.0729 87.3732 76.6433 85.9829 76.6789 84.4144C76.7146 81.313 76.6789 78.2473 76.6789 75.1459C76.6789 74.2904 76.3937 73.5418 75.9303 72.8288C74.8609 71.1534 73.2211 70.5117 71.4743 70.7256C71.0109 70.7612 70.5118 70.9751 70.084 71.189C69.478 71.4742 69.0146 72.0089 68.5868 72.508C68.0164 73.1853 67.6956 74.0052 67.66 74.9321C67.66 76.857 67.66 78.782 67.66 80.707C68.5512 82.0616 69.4424 83.4163 70.4049 84.8422C69.585 85.4126 68.8007 85.9473 67.9808 86.5176C66.9827 85.3056 66.2697 83.951 65.3429 82.7033C62.6336 82.7033 59.8887 82.7033 57.1795 82.7033C56.5734 82.7033 56.1457 82.9172 55.8605 83.4519C55.8248 83.5232 55.7535 83.6302 55.6823 83.7728ZM67.66 57.1081C67.6956 59.14 68.3729 60.8867 69.7632 62.3483C71.1535 63.8099 72.9002 64.5585 74.8965 64.6654C76.9997 64.7724 78.8178 64.0238 80.315 62.5979C81.8122 61.2076 82.5965 59.4252 82.6678 57.3932C82.7391 55.29 81.9905 53.5076 80.5645 51.9748C79.1743 50.4775 77.3919 49.7289 75.3599 49.6576C73.2567 49.5863 71.4743 50.3349 69.9771 51.7609C68.4799 53.2581 67.7669 55.0761 67.66 57.1081ZM28.6967 88.6922C28.6967 90.332 30.2296 91.6866 31.5842 91.6866C38.4286 91.6866 45.273 91.6866 52.1175 91.6866C52.367 91.6866 52.6165 91.6866 52.9374 91.6866C52.5452 90.6885 52.7591 89.6903 52.6878 88.6922C44.667 88.6922 36.7175 88.6922 28.6967 88.6922ZM73.6845 46.6632C74.7183 46.6632 75.6808 46.6632 76.6433 46.6632C76.7859 43.4192 76.7146 26.5221 76.572 25.7378C75.6095 25.7378 74.647 25.7378 73.6845 25.7378C73.6845 32.7248 73.6845 39.6762 73.6845 46.6632ZM31.5129 85.6621C31.4416 85.3769 31.3347 85.163 31.3347 84.9491C31.2634 84.3075 31.1921 83.6302 31.1564 82.9528C31.1564 82.8815 31.1921 82.8102 31.1564 82.7746C30.8713 82.5251 31.0495 82.2042 30.9782 81.9191C30.9069 81.5982 30.8356 81.2774 30.8 80.9566C30.7287 80.3149 30.7643 79.6019 30.5861 78.9959C30.4791 78.5681 30.5148 78.1404 30.4078 77.7482C30.3009 77.3205 30.2296 76.857 30.2296 76.4293C30.2296 76.358 30.2652 76.2867 30.2296 76.251C29.9088 76.0015 30.087 75.6807 30.0514 75.3955C29.9801 75.0746 29.9088 74.7538 29.8731 74.433C29.8018 73.7913 29.8375 73.0784 29.6592 72.4723C29.5166 71.9733 29.5879 71.5098 29.481 71.0464C29.4097 70.7612 29.3384 70.4761 29.3384 70.1909C29.3027 69.87 29.1602 69.5492 29.1602 69.2284C29.1602 68.6937 29.0889 68.2302 28.875 67.6955C28.768 67.6955 28.6611 67.7312 28.5185 67.6955C27.1995 67.446 25.5597 69.1214 25.7379 70.4761C25.7736 70.7612 25.8805 71.0464 25.9518 71.3316C26.0588 71.8663 25.9518 72.4723 26.1657 72.9358C26.4153 73.4348 26.1301 74.0408 26.5222 74.4686C26.3796 74.8964 26.7004 75.2885 26.7361 75.7163C26.7361 76.1441 26.7717 76.5719 26.9143 76.9283C27.0926 77.3561 26.9856 77.8552 27.0926 78.2473C27.3778 79.1742 27.3778 80.1723 27.6629 81.0992C27.8055 81.5626 27.6986 82.026 27.8768 82.4181C28.0551 82.8815 28.0907 83.3806 28.1977 83.8797C28.3403 84.3788 28.3759 84.9491 28.4472 85.4839C28.5185 85.5551 28.5898 85.6264 28.6611 85.6977C29.5166 85.6621 30.4791 85.6621 31.5129 85.6621ZM65.2716 72.3654C65.0577 72.401 64.8794 72.3654 64.7725 72.401C64.1665 72.6862 63.5605 72.9714 62.9901 73.2922C62.6693 73.4705 62.3841 73.6844 62.1345 73.8983C61.4216 74.5756 60.7086 75.2529 60.2095 76.1084C59.7105 76.964 59.3183 77.8552 59.0332 78.8177C58.9619 79.1029 58.8906 79.3524 58.9262 79.6376C60.8869 79.6376 62.7762 79.6376 64.7012 79.6376C64.7012 78.1047 64.6655 76.6075 64.7012 75.1459C64.7012 74.5043 64.8081 73.8983 64.8794 73.2566C64.9151 72.9714 65.0933 72.7219 65.2716 72.3654ZM46.699 85.6621C48.7309 85.6621 50.6915 85.6621 52.6878 85.6621C52.7235 84.6639 52.5809 83.7015 52.9017 82.7033C51.1193 82.7033 49.4082 82.7033 47.8397 82.7033C47.1624 82.8815 46.9128 83.3093 46.699 83.7371C46.699 84.3788 46.699 84.9848 46.699 85.6621ZM58.2489 61.7067C56.3952 61.7067 54.5415 61.7067 52.6878 61.7067C52.6878 62.2414 52.6878 62.7404 52.6878 63.2395C52.6878 63.7386 52.6522 64.202 52.6878 64.7011C53.4008 64.7011 54.0068 64.7011 54.6485 64.7011C55.2188 64.7011 55.7179 64.4159 56.217 64.202C56.8943 63.9168 57.3577 63.2752 57.8568 62.7761C57.8568 62.384 58.5341 62.2414 58.2489 61.7067Z" fill="#515151"/>
<path d="M79.6734 84.2006C79.6734 81.0992 79.6734 78.0335 79.6734 74.9321C79.6734 73.4705 79.21 72.1872 78.3901 70.9752C77.9266 70.2622 77.285 69.7631 76.7146 69.1215C76.7146 68.6224 76.7146 68.1233 76.7146 67.5886C78.5326 67.3034 80.1725 66.6974 81.5984 65.521C84.3789 63.2039 85.1632 61.2076 85.484 59.3896C86.0544 56.2169 85.6266 54.2919 84.2007 51.7609C83.2382 50.0854 81.7053 48.6239 79.709 47.7683C79.709 40.6744 79.709 33.5804 79.709 26.4508C80.1368 26.3082 80.5646 26.5221 80.9211 26.6647C82.2044 27.1638 83.4521 27.8411 84.5928 28.6254C85.6979 29.374 86.696 30.1939 87.5516 31.2277C88.2645 32.0832 88.8706 33.0101 89.4766 33.9726C90.1182 34.9351 90.2965 36.0758 90.9381 37.0383C91.0094 38.0721 91.4016 39.0346 91.5442 40.0684C91.7937 41.9221 91.6511 43.7758 91.6868 45.6294C91.7224 47.0554 92.1145 48.3387 92.9344 49.5151C93.2909 50.0498 93.5761 50.6202 93.8613 51.1905C94.1465 51.7609 94.2534 52.4026 94.5029 52.9729C94.7168 53.4364 94.8238 55.8961 94.7168 56.2525C94.4673 57.0012 94.4673 57.8211 94.1465 58.534C93.8613 59.247 93.5761 59.9956 93.1483 60.6372C92.5423 61.6354 92.2571 62.7048 91.9006 63.7743C91.7224 64.3446 91.5442 66.8756 91.7224 67.446C91.9719 68.2659 92.1145 69.1571 92.3997 69.977C92.6849 70.7969 93.1483 71.5455 93.5048 72.3298C93.79 73.0071 94.1108 73.6844 94.3604 74.3974C94.8594 75.9659 94.8238 77.4987 94.2891 79.0316C93.8613 80.1723 93.2553 81.2418 92.3641 82.0617C91.6155 82.7746 90.6886 83.2381 89.7618 83.7371C88.9419 83.7371 88.2289 84.1649 87.409 84.1649C84.8067 84.1649 82.24 84.2006 79.6734 84.2006Z" fill="#FFDA2F"/>
<path d="M47.0555 43.6688C46.8772 43.5262 46.7346 43.3836 46.5207 43.3123C45.3444 42.8489 44.5245 42.029 44.061 40.8169C44.0254 40.7457 43.9541 40.71 43.8828 40.6744C43.9897 40.3535 43.7045 40.104 43.7045 39.8188C43.5976 38.7137 43.9184 37.6443 43.8828 36.5392C43.8828 36.5035 43.8828 36.4679 43.8828 36.4679C44.1323 35.8975 44.2393 35.2915 44.4175 34.7211C44.9166 33.1883 45.7365 31.8337 46.7346 30.6573C47.5902 29.6235 48.5883 28.661 49.8004 27.9124C50.4064 27.5203 51.048 27.1638 51.6897 26.8429C52.3314 26.5221 53.08 26.4508 53.7216 26.0943C54.7911 26.0943 55.7892 25.7022 56.823 25.7022C61.4216 25.7379 66.0558 25.7022 70.6544 25.7022C70.6544 31.192 70.6544 36.6818 70.6544 42.2072C69.6919 41.6369 68.7651 41.1021 67.6956 40.8882C67.2322 40.7813 66.8044 40.7457 66.3767 40.7457C62.2415 40.7457 58.142 40.7457 54.0068 40.7457C53.4008 40.7457 52.6165 40.9952 51.9749 41.316C51.4402 41.5656 51.155 42.0646 50.7272 42.4211C50.3351 42.7776 50.0142 43.1341 49.9786 43.7044C49.9786 43.7401 49.8716 43.7401 49.836 43.7757C48.9448 43.6688 47.9823 43.6688 47.0555 43.6688Z" fill="#FFDA2F"/>
<path d="M23.2069 53.5789C22.6365 53.1155 22.0305 52.5807 21.3888 52.1173C20.7472 51.6895 20.0699 51.2618 19.3569 50.9409C18.6796 50.6201 18.0023 50.1923 17.218 50.228C16.5051 49.7646 15.6852 49.9072 14.9009 49.7289C14.1167 49.5507 13.2611 49.515 12.4768 49.7289C11.7282 49.9072 10.8727 49.7646 10.1597 50.2636C9.37547 50.228 8.69816 50.6914 8.02085 50.9409C7.27224 51.2261 6.63058 51.6895 5.98891 52.1173C5.34725 52.5807 4.74124 53.0798 4.06392 53.6502C3.38661 53.0442 2.7093 52.2956 1.96069 51.5826C2.42412 51.1905 2.7806 50.7627 3.24402 50.4062C3.88568 49.9428 4.52735 49.4437 5.20466 49.016C6.30975 48.3386 7.45048 47.8039 8.66251 47.4474C9.55371 47.1623 10.4806 46.984 11.4074 46.8414C12.4412 46.6632 13.475 46.6988 14.5088 46.6988C15.5782 46.6988 16.612 46.9484 17.6458 47.1979C19.0361 47.5544 20.3551 48.0535 21.6027 48.7308C22.3513 49.1585 23.0286 49.6576 23.7416 50.121C24.312 50.5132 24.811 51.0122 25.2388 51.44C24.5972 52.1886 23.9198 52.8659 23.2069 53.5789Z" fill="#515151"/>
<path d="M13.7602 58.6766C16.2199 58.6766 18.1449 60.7085 18.2162 63.2395C18.2875 65.4853 16.006 67.8381 13.5819 67.6955C12.2273 67.6242 11.2292 67.0538 10.3023 66.0913C9.4824 65.2358 9.23287 64.2377 9.19722 63.0969C9.09028 60.8867 11.3717 58.4983 13.7602 58.6766ZM13.368 64.7011C14.5801 64.8793 15.4356 63.9525 15.2217 62.883C14.794 61.8136 14.1166 61.5641 13.2254 61.7423C12.6907 61.8849 12.4055 62.3127 12.2273 62.7761C12.0847 63.6673 12.3699 64.309 13.368 64.7011Z" fill="#515151"/>
<path d="M20.9611 56.003C20.3908 56.5733 19.7847 57.1793 19.2144 57.7497C18.7153 57.9279 18.4301 57.4645 18.1449 57.2506C17.1824 56.5377 16.1487 56.0743 14.9366 55.896C14.4019 55.7891 13.8672 55.6821 13.3325 55.7534C11.8352 55.9317 10.3737 56.2525 9.1973 57.2863C8.91211 57.5358 8.55563 57.6784 8.3061 57.821C7.62879 57.1437 7.02277 56.5377 6.34546 55.8604C6.38111 55.7891 6.41675 55.5752 6.5237 55.4682C7.20101 54.9335 7.87832 54.3988 8.62693 53.9354C9.23295 53.5789 9.91026 53.2937 10.6232 53.0798C11.764 52.7233 13.7246 52.5094 14.8653 52.7233C15.8635 52.9016 16.8616 53.1155 17.8241 53.5076C18.8935 53.971 19.7847 54.6483 20.7116 55.3256C20.8898 55.4326 21.0681 55.6465 20.9611 56.003Z" fill="#515151"/>
<path d="M6.20288 73.6487C6.20288 72.6506 6.20288 71.6881 6.20288 70.7256C7.16538 70.7256 8.12787 70.7256 9.12602 70.7256C9.12602 71.6881 9.12602 72.6506 9.12602 73.6487C8.19917 73.6487 7.23667 73.6487 6.20288 73.6487Z" fill="#515151"/>
<path d="M12.1917 73.6487C12.1917 72.6506 12.1917 71.6881 12.1917 70.7256C13.1541 70.7256 14.1166 70.7256 15.1504 70.7256C15.2217 71.189 15.1504 71.6524 15.1861 72.1515C15.1861 72.6506 15.1861 73.1497 15.1861 73.6487C14.1879 73.6487 13.2254 73.6487 12.1917 73.6487Z" fill="#515151"/>
<path d="M18.2163 70.6899C19.2145 70.6899 20.1769 70.6899 21.1394 70.6899C21.1394 71.6524 21.1394 72.6149 21.1394 73.6487C20.676 73.6844 20.2126 73.6487 19.7135 73.6487C19.2145 73.6487 18.7154 73.6487 18.1807 73.6487C18.2163 72.6862 18.2163 71.7237 18.2163 70.6899Z" fill="#515151"/>
<path d="M25.3814 17.2893C24.4902 17.0041 23.7059 16.505 22.9217 16.1129C22.7791 15.5425 23.1355 15.186 23.3494 14.8295C23.7416 14.1879 24.2406 13.6532 24.7041 13.0471C24.9179 12.762 25.1318 12.4768 25.3814 12.1916C26.7003 10.8013 28.2332 9.76753 29.9443 8.94762C30.8712 8.4842 31.9049 8.27031 32.9031 7.98513C34.5072 7.55735 36.1114 7.593 37.7156 7.6643C38.3929 7.69995 39.1415 7.84254 39.8188 8.02078C40.8882 8.30596 41.9577 8.69809 43.0271 9.26846C42.7063 10.1953 42.1359 11.0152 41.7794 11.9777C39.8544 11.0865 37.8225 10.5161 35.6836 10.6587C33.5448 10.8013 31.5128 11.336 29.7304 12.5837C28.1976 13.6888 28.1976 13.1541 25.3814 17.2893Z" fill="#515151"/>
<path d="M7.70007 30.1938C8.73387 30.1938 9.66071 30.1938 10.6232 30.1938C10.8014 30.8712 10.944 31.5128 11.2292 32.1901C11.5501 32.8674 12.0135 33.3665 12.5482 33.7943C13.0473 34.1864 13.6176 34.4716 14.2949 34.5785C14.6871 34.6498 15.0436 34.7211 15.4357 34.7211C16.3269 34.7211 17.2537 34.7211 18.1806 34.7211C18.1806 35.7193 18.1806 36.7174 18.1806 37.7156C16.8616 37.7156 15.5426 37.7512 14.2593 37.6799C13.7246 37.6443 13.1542 37.466 12.6551 37.2878C11.4431 36.8244 10.2667 35.9688 9.41118 34.9707C8.76951 34.2577 8.12785 32.8674 7.91396 31.7624C7.87831 31.5485 7.77137 31.3702 7.73572 31.192C7.66443 30.8712 7.70007 30.5503 7.70007 30.1938Z" fill="#515151"/>
<path d="M21.2107 34.6855C22.2088 34.6855 23.1713 34.6855 24.1338 34.6855C24.1338 35.648 24.1338 36.6105 24.1338 37.6443C23.706 37.6799 23.207 37.6443 22.7079 37.6443C22.2088 37.6443 21.7098 37.6443 21.175 37.6443C21.2107 36.7174 21.2107 35.7549 21.2107 34.6855Z" fill="#515151"/>
<path d="M30.1582 34.7211C30.1582 35.7193 30.1582 36.6818 30.1582 37.6443C29.1958 37.6443 28.2333 37.6443 27.1995 37.6443C27.1282 37.1808 27.1995 36.7174 27.1638 36.2183C27.1638 35.7193 27.1638 35.2202 27.1638 34.7211C28.162 34.7211 29.1245 34.7211 30.1582 34.7211Z" fill="#515151"/>
<path d="M61.671 46.6989C62.7048 46.6989 63.6316 46.6989 64.6298 46.6989C64.7011 47.8396 64.7724 48.9803 64.2733 50.0498C64.1307 50.3349 63.9881 50.6201 63.7742 50.8697C63.3465 51.2974 62.99 51.7965 62.4196 52.0817C61.9918 52.2956 60.958 52.6877 60.5303 52.7234C59.746 52.7947 59.033 52.6164 58.3557 52.3312C58.0705 52.2243 57.7497 52.046 57.5358 51.8322C57.108 51.4044 56.609 51.0479 56.3238 50.4775C56.0743 49.9785 55.6821 49.016 55.6821 48.4813C55.6821 47.9109 55.6821 47.3762 55.6821 46.6989C56.6446 46.6989 57.6428 46.6989 58.6409 46.6989C58.6409 47.3762 58.6409 48.0178 58.6409 48.4813C59.033 49.5507 59.746 49.8002 60.5659 49.6933C60.7798 49.5863 60.958 49.515 61.1006 49.4081C61.4571 49.0873 61.7066 48.7308 61.671 48.2317C61.671 47.7326 61.671 47.1979 61.671 46.6989Z" fill="#515151"/>
<path d="M75.4668 61.7067C73.8983 61.7067 72.8645 61.2076 72.0089 60.2808C71.1177 59.3896 70.6899 58.3558 70.6899 57.0724C70.7256 55.8604 71.2247 54.8623 72.0802 54.0067C72.9714 53.1155 74.0052 52.6877 75.2885 52.6877C77.57 52.6521 79.7445 54.8623 79.7445 57.2507C79.6732 59.4965 77.5344 61.778 75.4668 61.7067ZM74.8608 55.6822C73.827 56.0743 73.5774 56.7873 73.72 57.6785C74.0765 58.2845 74.0765 58.2845 74.7538 58.6766C75.645 58.7835 76.3223 58.534 76.7145 57.5002C76.8927 56.3951 76.0728 55.4683 74.8608 55.6822Z" fill="#515151"/>
</svg>
