<svg width="96" height="96" viewBox="0 0 96 96" fill="none" xmlns="http://www.w3.org/2000/svg">
<g clip-path="url(#clip0_2716_1494)">
<path d="M96.1782 59.9956C96.1782 61.4215 96.1782 62.8831 96.1782 64.309C96.1069 64.3446 95.9999 64.4159 95.9999 64.4516C95.9287 64.915 95.9643 65.4497 95.7861 65.8775C95.2157 67.3034 94.8236 68.8006 93.968 70.084C93.362 71.0108 92.7203 71.902 91.9717 72.7219C91.437 73.2923 90.8666 73.7914 90.2963 74.2548C89.0486 75.2886 87.6227 76.0372 86.1255 76.6432C85.6977 76.8214 85.163 76.8214 84.8065 77.0353C84.3787 77.3205 83.8083 76.9997 83.4519 77.3918C82.4894 77.3561 81.5982 77.6413 80.6357 77.6057C78.5324 77.5344 76.4649 77.57 74.326 77.57C74.2547 77.677 74.0765 77.7839 74.0765 77.9265C73.9695 79.1029 73.4348 80.1367 72.9714 81.2061C72.4723 82.3112 71.8663 83.3807 71.0107 84.2362C69.8343 85.4839 68.7293 86.7672 67.1607 87.5871C65.8061 88.3001 64.4872 89.12 62.9543 89.4052C62.4196 89.5121 61.8848 89.726 61.3145 89.7616C60.7085 89.7973 60.1381 89.9399 59.5321 89.9399C52.8303 89.9399 46.0928 89.9399 39.391 89.9399C40.4604 88.8704 41.5299 87.801 42.5636 86.7672C47.7326 86.7672 52.8659 86.7672 58.0349 86.7672C59.14 86.7672 60.245 86.8742 61.3501 86.6246C62.277 86.4107 63.2395 86.1968 64.095 85.8047C65.0932 85.3413 65.9844 84.6996 66.8399 84.058C67.7668 83.345 68.551 82.5251 69.1927 81.5626C69.9769 80.3506 70.6186 79.1385 70.9751 77.7126C71.189 76.7145 71.4385 75.752 71.4742 74.7538C71.5098 65.7349 71.4742 56.6803 71.4742 47.6614C71.4742 47.3405 71.4742 47.0554 71.4742 46.7702C68.2302 46.6276 25.8091 46.6989 24.9892 46.8415C24.9892 47.804 24.9892 48.7665 24.9892 49.7646C23.9911 49.7646 22.9929 49.7646 21.9948 49.7646C21.9948 45.5938 22.0304 41.3873 21.9591 37.2165C21.9235 35.8262 23.4207 34.2934 24.7753 34.4003C25.7022 34.4716 26.6647 34.436 27.5915 34.4003C27.7697 34.4003 27.9836 34.2934 28.1619 34.2221C28.1619 33.83 28.1619 33.5091 28.1619 33.2239C28.1619 28.5897 28.1619 23.9911 28.1619 19.3569C28.1619 18.537 28.4471 17.8597 28.8392 17.1824C29.5165 16.006 30.3007 14.8296 31.0137 13.6532C31.4415 12.9402 31.798 12.2273 32.2257 11.5143C32.9387 10.3379 33.6873 9.19721 34.4003 8.02083C34.828 7.30787 35.1845 6.59491 35.6123 5.91759C36.3253 4.74121 37.0739 3.56483 37.7868 2.42409C38.1789 1.78243 38.5711 1.10512 38.9989 0.427806C39.4266 1.06947 39.8544 1.63984 40.2109 2.24585C40.5317 2.85187 40.8882 3.45788 41.2803 4.0639C41.6724 4.66992 41.9933 5.27593 42.3498 5.88195C42.7062 6.52361 43.0984 7.12963 43.4905 7.77129C43.847 8.37731 44.2035 8.98332 44.5599 9.58934C44.9164 10.1954 45.2016 10.837 45.6294 11.3717C46.0215 11.9065 46.2354 12.6194 46.8414 13.0828C46.8414 9.48239 46.8414 5.95324 46.8414 2.56668C47.0196 2.24585 47.0909 2.03196 47.2335 1.85372C47.7326 1.21206 48.1604 0.499102 49.1585 0.499102C49.1942 0.499102 49.2655 0.392158 49.3011 0.320862C54.8622 0.320862 60.4233 0.320862 65.9844 0.320862C66.02 0.392158 66.0913 0.499102 66.127 0.499102C66.6617 0.463454 67.0182 0.748638 67.4103 1.06947C67.8737 1.49725 68.1589 1.99632 68.4441 2.56668C68.4441 13.0828 68.4441 23.6346 68.4441 34.1151C68.551 34.2577 68.6223 34.3647 68.6936 34.436C69.9769 34.436 71.2246 34.436 72.401 34.436C72.6505 34.5786 72.8288 34.7212 73.0783 34.7925C73.613 34.9707 73.9339 35.3985 74.219 35.8262C74.5042 36.254 74.6468 36.7531 74.6468 37.3235C74.6112 40.3892 74.6468 43.4549 74.6468 46.485C74.7538 46.5919 74.8251 46.6632 74.932 46.7702C77.3917 46.7702 79.8514 46.7702 82.3111 46.7702C82.9171 46.7702 83.4875 47.091 84.0935 46.9484C84.45 47.2336 84.9491 47.1623 85.3412 47.3049C85.769 47.4831 86.1968 47.6257 86.6245 47.804C87.0167 47.9822 87.3731 48.2317 87.8009 48.3743C88.5495 48.6952 89.2268 49.1586 89.9398 49.5864C90.7953 50.1211 91.4727 50.9053 92.1856 51.6183C93.2194 52.6877 94.075 53.8998 94.7166 55.2544C94.9662 55.7891 95.18 56.3595 95.4652 56.9299C95.7504 57.5359 95.893 58.2132 95.9999 58.8548C95.8217 58.8905 96.1425 59.9243 96.1782 59.9956ZM65.2001 34.2934C65.2001 32.1902 65.2001 30.1582 65.2001 28.1263C63.1325 28.1263 61.1362 28.1263 59.0687 28.1263C59.0687 27.0568 59.0687 25.9874 59.0687 24.918C61.1362 24.918 63.1682 24.918 65.1645 24.918C65.1645 23.9198 65.1645 22.9217 65.1645 21.9235C62.0987 21.9235 59.0687 21.9235 56.0742 21.9235C55.9673 21.8166 55.896 21.7453 55.8247 21.674C55.8247 20.7115 55.8247 19.749 55.8247 18.7152C58.9617 18.7152 62.0631 18.7152 65.1645 18.7152C65.1645 17.6814 65.1645 16.7189 65.1645 15.7208C63.0969 15.7208 61.0649 15.7208 59.033 15.7208C59.033 14.6157 59.033 13.6176 59.033 12.5481C61.0649 12.5481 63.0612 12.5481 65.0575 12.5481C65.0932 12.5481 65.1288 12.5481 65.1288 12.5125C65.1645 12.4768 65.1645 12.4768 65.1645 12.4768C65.1645 11.4787 65.1645 10.5162 65.1645 9.51804C62.0987 9.51804 59.0687 9.51804 56.1099 9.51804C56.0029 9.4111 55.9316 9.3398 55.8247 9.23286C55.8247 8.76943 55.8247 8.27036 55.8247 7.77129C55.8247 7.27222 55.789 6.80879 55.8603 6.27407C58.9974 6.27407 62.0987 6.27407 65.2001 6.27407C65.2001 5.27593 65.2001 4.31344 65.2001 3.35094C59.9955 3.35094 54.8265 3.35094 49.6932 3.35094C49.6932 13.5819 49.6932 23.8129 49.6932 34.0082C49.7645 34.0795 49.8358 34.1508 49.9428 34.2577C55.0048 34.2934 60.1024 34.2934 65.2001 34.2934ZM24.9536 43.4549C40.4604 43.4549 55.9316 43.4549 71.4029 43.4549C71.4029 41.3873 71.4029 39.391 71.4029 37.3235C55.896 37.3235 40.4248 37.3235 24.9536 37.3235C24.9536 39.391 24.9536 41.423 24.9536 43.4549ZM93.1125 62.1345C93.0768 61.7423 92.9699 61.4571 93.0055 61.172C93.0412 60.3164 92.8629 59.4965 92.6134 58.7123C92.1143 57.0368 91.3657 55.4683 90.225 54.185C88.9417 52.7234 87.6583 51.7609 85.5551 50.7628C84.1648 50.1211 82.7033 49.8359 81.206 49.729C79.0315 49.5864 76.857 49.6933 74.6825 49.6933C74.5755 49.8003 74.4686 49.8716 74.4329 49.9429C74.4329 50.941 74.4329 51.9035 74.4329 52.866C75.9658 52.866 77.463 52.8303 78.9602 52.866C80.1366 52.9016 81.3486 52.759 82.525 53.0086C83.0597 53.1155 83.5945 53.2938 84.0935 53.5077C85.662 54.1137 87.3375 55.397 88.193 56.6447C89.2625 58.2132 89.8685 59.9243 89.9398 61.8136C89.9754 62.3483 89.8685 62.8831 89.7972 63.4178C89.6903 64.3446 89.4051 65.2002 89.0486 66.0201C88.3 67.6599 87.1236 68.8719 85.662 69.9057C84.7708 70.5474 83.7014 70.7969 82.7389 71.189C82.2042 71.4029 81.5625 71.4029 80.9565 71.4029C79.0672 71.4386 77.1422 71.4029 75.2528 71.4029C74.9677 71.4029 74.7181 71.4029 74.4686 71.4029C74.4686 72.4367 74.4686 73.3992 74.4686 74.3974C74.7181 74.3974 74.932 74.3974 75.1459 74.3974C77.1778 74.3974 79.2098 74.3974 81.2417 74.3974C81.8121 74.3974 82.3824 74.3261 82.9528 74.2548C83.9866 74.1122 84.9491 73.7557 85.8759 73.3636C87.088 72.9002 88.0505 72.0802 89.0486 71.296C89.4764 70.9752 89.7972 70.5117 90.1537 70.084C90.9736 69.1215 91.6509 68.1233 92.1143 66.9469C92.3639 66.2696 92.6134 65.5923 92.8273 64.915C92.9342 64.5585 92.9699 64.1664 93.0055 63.7743C93.0412 63.3821 93.0055 62.9544 93.0055 62.5622C93.0055 62.4553 93.0768 62.2771 93.1125 62.1345ZM74.4686 68.2303C76.7857 68.2303 79.0315 68.2303 81.2773 68.2303C81.6695 68.2303 82.0259 68.159 82.4181 68.052C83.7371 67.6955 84.8778 66.9826 85.6264 65.9131C86.8384 64.1664 87.0523 62.8474 86.6602 60.6016C86.5176 59.853 86.0185 59.2826 85.8759 58.5697C85.2699 58.0706 84.8421 57.3576 84.0935 56.9655C83.8083 56.8229 83.5945 56.5021 83.2736 56.4308C82.2398 56.1456 81.2417 55.8248 80.1366 55.8248C78.4612 55.8604 76.7857 55.8248 75.0746 55.8248C74.932 55.8248 74.7894 55.8248 74.6825 55.8248C74.5399 55.9674 74.4686 56.0387 74.4329 56.0743C74.4686 60.1382 74.4686 64.1664 74.4686 68.2303ZM31.4771 18.7152C36.4678 18.7152 41.3873 18.7152 46.3423 18.7152C45.0947 16.612 43.8826 14.5801 42.6706 12.5481C40.1396 12.5481 37.6442 12.5481 35.1489 12.5481C33.9368 14.6157 32.7248 16.6476 31.4771 18.7152ZM34.2933 21.9592C33.1882 21.9592 32.1544 21.9592 31.1563 21.9592C31.0494 24.8467 31.085 33.5091 31.2276 34.2577C32.2614 34.2577 33.2595 34.2577 34.329 34.2577C34.2933 30.1582 34.2933 26.0944 34.2933 21.9592ZM37.3234 21.9592C37.3234 26.13 37.3234 30.1939 37.3234 34.2577C38.3928 34.2577 39.4266 34.2577 40.4604 34.2577C40.4604 30.1226 40.4604 26.0587 40.4604 21.9592C39.4266 21.9592 38.3928 21.9592 37.3234 21.9592ZM46.6632 34.2934C46.6632 30.1226 46.6632 26.0587 46.6632 21.9235C45.5937 21.9235 44.5599 21.9235 43.5261 21.9235C43.5261 26.0944 43.5261 30.1939 43.5261 34.2577C44.5956 34.2934 45.5937 34.2934 46.6632 34.2934ZM38.9276 6.34537C38.1789 7.20092 37.7868 8.23471 37.1452 9.09027C37.0739 9.19721 37.1095 9.37545 37.1095 9.55369C38.3215 9.55369 39.4979 9.55369 40.7812 9.55369C40.2465 8.34166 39.5692 7.37916 38.9276 6.34537Z" fill="#515151"/>
<path d="M0.178223 66.733C1.53285 66.733 2.85182 66.733 4.20644 66.733C5.34718 66.733 5.34718 66.733 6.16708 65.9131C6.16708 65.4854 6.16708 65.0219 6.16708 64.5585C5.24023 63.2039 3.92126 62.2057 2.81617 60.9937C2.81617 60.8868 2.81617 60.7442 2.81617 60.6372C5.59671 57.8567 8.37726 55.0761 11.1578 52.2956C11.2647 52.2956 11.4073 52.2956 11.5143 52.2956C12.6194 53.4007 13.7245 54.5058 14.8295 55.6109C15.0791 55.6822 15.3286 55.8604 15.5781 55.8604C15.8277 55.8604 16.0772 55.7535 16.4693 55.6109C16.6832 55.397 16.9684 55.0405 17.2536 54.7197C17.2536 53.0442 17.2536 51.4044 17.2536 49.6933C18.8221 49.6933 20.3906 49.6933 21.9235 49.6933C22.9216 49.6933 23.9198 49.6933 24.9179 49.6933C26.4864 49.6933 28.0193 49.6933 29.6234 49.6933C29.6234 51.4757 29.6234 53.1868 29.6234 54.8623C29.9086 55.1474 30.1225 55.4326 30.4077 55.6109C30.7642 55.8604 31.1207 56.0386 31.6197 55.7178C31.9762 55.5039 32.3327 55.3257 32.6535 55.0405C33.5804 54.1136 34.5072 53.1868 35.4341 52.26C38.3928 55.1831 41.2803 58.0349 44.2391 60.8868C43.2053 61.9206 42.2785 62.8474 41.3516 63.7743C41.0664 64.0594 40.8882 64.3803 40.71 64.7011C40.4248 65.2358 40.5674 65.6279 40.8526 66.0201C41.0664 66.3053 41.316 66.5191 41.6012 66.7687C43.2766 66.7687 44.9877 66.7687 46.6988 66.7687C46.8058 69.7631 46.7701 78.3186 46.6275 79.1029C44.9877 79.1029 43.3836 79.1029 41.7081 79.1029C41.3873 79.3524 41.0664 79.6376 40.7456 79.8871C40.603 80.6714 40.603 80.6714 40.8169 81.6339C41.8507 82.6677 42.9558 83.7728 44.1322 84.9492C44.1322 84.9848 44.1322 85.0917 44.1322 85.163C43.6331 85.6978 43.134 86.2681 42.635 86.8028C41.5655 87.8723 40.4961 88.9417 39.4623 89.9755C39.3197 90.0825 39.1771 90.1894 39.0345 90.2963C37.9651 91.3658 36.86 92.4709 35.8262 93.5403C35.6836 93.5403 35.5767 93.5403 35.4697 93.5403C34.222 92.4352 33.2239 91.1162 31.8693 90.1538C31.4415 90.1538 31.0137 90.1538 30.6216 90.1538C29.873 90.6528 29.6947 91.2945 29.7304 92.15C29.766 93.5047 29.7304 94.8236 29.7304 96.1783C25.5952 96.1783 21.4957 96.1783 17.3605 96.1783C17.3605 96.0713 17.3605 95.9287 17.3605 95.8218C17.3605 94.4672 17.3605 93.1482 17.3605 91.7936C17.3605 91.4371 17.2536 91.0806 17.111 90.7954C16.9684 90.5459 16.6832 90.332 16.3981 90.2607C16.0416 90.1538 15.6138 90.1894 15.1504 90.1538C14.58 90.6885 14.0096 91.2232 13.4393 91.7936C12.8333 92.3996 12.2629 92.9699 11.6569 93.576C11.5143 93.576 11.4073 93.576 11.2647 93.576C8.4842 90.7954 5.70366 88.0149 2.92312 85.2343C2.92312 85.1274 2.92312 84.9848 2.92312 84.8422C3.81432 83.9867 4.66987 83.0955 5.56107 82.2043C5.84625 81.9191 6.06014 81.5982 6.30967 81.3487C6.30967 81.0635 6.30967 80.8496 6.30967 80.6357C6.30967 79.7089 5.70366 79.1385 4.81246 79.1385C3.31524 79.1385 1.81803 79.1385 0.320815 79.1385C0.178223 75.0034 0.178223 70.8682 0.178223 66.733ZM23.5276 86.9454C23.6702 86.9098 23.8128 86.8385 23.9911 86.8028C24.6684 86.7672 25.31 86.7672 25.9874 86.6603C26.8429 86.482 27.6628 86.3038 28.4471 85.9829C30.2295 85.2343 31.8693 84.2362 33.2595 82.8816C33.8656 82.3112 34.3646 81.5982 34.8637 80.9209C35.541 80.0297 36.0044 79.0316 36.4322 77.9978C36.86 76.9284 37.2521 75.8233 37.3234 74.7182C37.4304 73.0427 37.466 71.3673 37.0026 69.7275C36.5035 68.0164 36.1827 67.0895 35.2915 65.6279C34.329 64.0594 33.0813 62.7405 31.5841 61.6354C30.5859 60.8868 29.4809 60.2451 28.3045 59.853C27.2707 59.4965 26.2369 59.1044 25.1675 59.0687C23.8128 58.9974 22.4582 58.8548 21.1036 59.1757C20.7828 59.247 20.4263 59.3539 20.0698 59.4252C19.749 59.4608 19.4281 59.6391 19.0716 59.746C18.7508 59.853 18.3587 59.8886 18.0735 60.0312C16.3268 60.8511 14.7582 61.8493 13.4036 63.2039C13.1541 63.4534 12.9758 63.7743 12.7263 64.0594C12.1916 64.5942 11.7995 65.2358 11.443 65.8775C10.6231 67.3391 9.87447 68.8006 9.76753 70.5117C9.48234 70.8326 9.58929 71.189 9.58929 71.5455C9.58929 71.902 9.73188 72.3298 9.55364 72.5437C9.26846 72.9358 9.51799 73.221 9.58929 73.5418C9.62494 73.8626 9.58929 74.2191 9.58929 74.5756C9.62494 74.9321 9.69623 75.2886 9.76753 75.6094C9.83882 76.0015 9.91012 76.4293 10.0527 76.8214C10.4805 77.8909 10.8013 78.9959 11.443 79.9941C12.0133 80.9209 12.655 81.7765 13.368 82.5607C13.7601 83.0242 14.2235 83.4163 14.7226 83.7728C15.7564 84.557 16.7902 85.3056 18.0379 85.7691C19.4994 86.3394 20.9966 86.8028 22.6008 86.8028C22.8503 86.8028 23.1355 86.8741 23.5276 86.9454Z" fill="#FFDA2F"/>
<path d="M38.9275 6.3454C39.5692 7.41484 40.2822 8.37733 40.7812 9.55371C39.4979 9.55371 38.3215 9.55371 37.1095 9.55371C37.1095 9.37547 37.0738 9.19724 37.1451 9.09029C37.7868 8.19909 38.1789 7.1653 38.9275 6.3454Z" fill="#FFDA2F"/>
<path d="M9.41106 15.7564C8.34162 15.7564 7.37912 15.7564 6.41663 15.7564C6.41663 14.687 6.41663 13.6888 6.41663 12.5837C7.37912 12.5837 8.34162 12.5837 9.37541 12.5837C9.37541 11.55 9.37541 10.5875 9.37541 9.66061C9.48235 9.55367 9.5893 9.44672 9.66059 9.37543C10.5874 9.37543 11.5143 9.37543 12.5481 9.37543C12.5837 9.8745 12.5481 10.4092 12.5481 10.9083C12.5481 11.443 12.5481 11.9777 12.5481 12.5124C13.6175 12.5124 14.6157 12.5124 15.6851 12.5124C15.6851 13.5106 15.6851 14.5087 15.6851 15.5782C15.5069 15.6138 15.3286 15.7208 15.1504 15.7208C14.2948 15.7208 13.4749 15.7208 12.5481 15.7208C12.5481 16.7189 12.5481 17.7171 12.5481 18.7152C11.4786 18.7152 10.4448 18.7152 9.37541 18.7152C9.41106 17.7527 9.41106 16.7902 9.41106 15.7564Z" fill="#515151"/>
<path d="M9.41106 46.6633C8.34162 46.6633 7.37912 46.6633 6.41663 46.6633C6.41663 45.5938 6.41663 44.5957 6.41663 43.4906C7.37912 43.4906 8.37726 43.4906 9.37541 43.4906C9.37541 42.4568 9.37541 41.4943 9.37541 40.4962C10.4448 40.4962 11.443 40.4962 12.5481 40.4962C12.5837 40.9239 12.5481 41.423 12.5481 41.9221C12.5481 42.4211 12.5481 42.9202 12.5481 43.4549C13.6175 43.4549 14.6157 43.4549 15.6851 43.4549C15.6851 44.5244 15.6851 45.5582 15.6851 46.6633C14.6513 46.6633 13.6532 46.6633 12.5481 46.6633C12.5481 47.6614 12.5481 48.6596 12.5481 49.6577C11.443 49.6577 10.4448 49.6577 9.37541 49.6577C9.41106 48.6952 9.41106 47.7327 9.41106 46.6633Z" fill="#515151"/>
<path d="M9.41106 31.1207C8.34162 31.1207 7.37912 31.1207 6.41663 31.1207C6.41663 30.1226 6.41663 29.1601 6.41663 28.1619C7.37912 28.1619 8.34162 28.1619 9.37541 28.1619C9.37541 27.1281 9.37541 26.1656 9.37541 25.2388C9.48235 25.1319 9.5893 25.0249 9.66059 24.9536C10.5874 24.9536 11.5499 24.9536 12.5481 24.9536C12.5837 25.4527 12.5481 25.9874 12.5481 26.4865C12.5481 27.0212 12.5481 27.5559 12.5481 28.0906C13.6175 28.0906 14.6157 28.0906 15.6851 28.0906C15.6851 29.0888 15.6851 30.0869 15.6851 31.0851C14.6513 31.0851 13.6532 31.0851 12.5481 31.0851C12.5481 32.1545 12.5481 33.1883 12.5481 34.2577C11.5143 34.2577 10.5518 34.2577 9.5893 34.2577C9.518 34.1864 9.4467 34.1151 9.37541 34.0439C9.41106 33.1527 9.41106 32.1902 9.41106 31.1207Z" fill="#515151"/>
<path d="M83.7728 3.20837C84.8422 3.20837 85.8047 3.20837 86.7315 3.20837C86.8028 3.27967 86.8741 3.35097 86.9811 3.45791C86.9811 4.38476 86.9811 5.34725 86.9811 6.38104C87.9792 6.38104 88.9774 6.38104 89.9755 6.38104C89.9755 7.45048 89.9755 8.48427 89.9755 9.55371C89.013 9.55371 88.0505 9.55371 87.0167 9.55371C86.9811 10.0528 87.0167 10.5519 87.0167 11.0509C87.0167 11.55 87.0167 12.0491 87.0167 12.5838C85.9473 12.5838 84.9491 12.5838 83.8441 12.5838C83.8441 11.6213 83.8441 10.6588 83.8441 9.62501C82.8103 9.62501 81.8478 9.62501 80.9209 9.62501C80.814 9.51807 80.707 9.41112 80.6357 9.33983C80.6357 8.34168 80.6357 7.41484 80.6357 6.41669C81.6695 6.41669 82.7033 6.41669 83.7728 6.41669C83.7728 5.3116 83.7728 4.31346 83.7728 3.20837Z" fill="#515151"/>
<path d="M83.8084 37.3591C83.8084 36.2897 83.8084 35.3272 83.8084 34.3647C84.8779 34.3647 85.876 34.3647 86.9811 34.3647C86.9811 35.3272 86.9811 36.3253 86.9811 37.3235C88.0149 37.3235 88.9774 37.3235 89.9755 37.3235C89.9755 38.3929 89.9755 39.4267 89.9755 40.5318C89.013 40.5318 88.0505 40.5318 87.0524 40.5318C87.0524 41.5299 87.0524 42.4924 87.0524 43.5262C86.5177 43.5619 85.9829 43.5262 85.4839 43.5262C84.9491 43.5262 84.4144 43.5262 83.8797 43.5262C83.8797 42.5281 83.8797 41.5656 83.8797 40.5318C82.8816 40.5318 81.8834 40.5318 80.9566 40.5318C80.814 40.3892 80.7427 40.3179 80.6714 40.2466C80.6714 39.3198 80.6714 38.3573 80.6714 37.3591C81.6695 37.3591 82.7033 37.3591 83.8084 37.3591Z" fill="#515151"/>
<path d="M89.9755 24.9536C88.9773 24.9536 88.0148 24.9536 87.088 24.9536C86.981 25.0605 86.9097 25.1318 86.8385 25.2031C86.8385 26.13 86.8385 27.0925 86.8385 28.0906C85.8403 28.0906 84.8422 28.0906 83.844 28.0906C83.844 27.0568 83.844 26.023 83.844 24.9892C82.7746 24.9892 81.7764 24.9892 80.6714 24.9892C80.6357 24.4902 80.6714 23.9911 80.6714 23.492C80.6714 22.993 80.6714 22.4939 80.6714 21.9592C81.7408 21.9592 82.7389 21.9592 83.844 21.9592C83.844 20.8897 83.844 19.8559 83.844 18.7865C84.8778 18.7865 85.8403 18.7865 86.8385 18.7865C86.8385 19.749 86.8385 20.7471 86.8385 21.6383C86.981 21.7809 87.0523 21.8522 87.1236 21.9235C88.0505 21.9235 89.013 21.9235 90.0111 21.9235C89.9755 22.9217 89.9755 23.8842 89.9755 24.9536Z" fill="#515151"/>
<path d="M23.5276 86.9454C23.1355 86.9098 22.8503 86.8028 22.5651 86.8385C20.961 86.8385 19.4994 86.3751 18.0022 85.8047C16.7901 85.3413 15.7207 84.5927 14.6869 83.8084C14.1878 83.4519 13.7244 83.0598 13.3323 82.5964C12.6193 81.8121 11.9777 80.9566 11.4073 80.0297C10.7656 79.0316 10.4448 77.9265 10.017 76.8571C9.87443 76.4649 9.83879 76.0728 9.73184 75.645C9.66055 75.2885 9.58925 74.9321 9.5536 74.6112C9.51795 74.2548 9.58925 73.9339 9.5536 73.5774C9.51795 73.2566 9.26842 72.9714 9.51795 72.5793C9.69619 72.3298 9.5536 71.902 9.5536 71.5812C9.5536 71.2247 9.48231 70.8326 9.73184 70.5474C9.83879 68.8363 10.623 67.3747 11.4073 65.9131C11.7638 65.2715 12.1559 64.6298 12.6906 64.0951C12.9402 63.8456 13.1184 63.4891 13.3679 63.2395C14.7226 61.8849 16.3267 60.8511 18.0378 60.0669C18.3587 59.9243 18.7151 59.8886 19.036 59.7817C19.3568 59.6747 19.6776 59.4965 20.0341 59.4609C20.3906 59.4252 20.7471 59.3183 21.0679 59.2113C22.4225 58.8905 23.7771 59.0331 25.1318 59.1044C26.2012 59.14 27.235 59.5321 28.2688 59.8886C29.4808 60.3164 30.5503 60.9224 31.5484 61.671C33.01 62.7761 34.2577 64.0594 35.2558 65.6636C36.147 67.0895 36.4678 68.0164 36.9669 69.7631C37.4303 71.4386 37.3947 73.114 37.2877 74.7538C37.2164 75.8589 36.8243 76.964 36.3965 78.0334C36.0044 79.0672 35.5053 80.0654 34.828 80.9566C34.3289 81.6339 33.8299 82.3112 33.2239 82.9172C31.8336 84.2718 30.1938 85.27 28.4114 86.0186C27.6628 86.3394 26.8072 86.5177 25.9517 86.6959C25.2744 86.8385 24.6327 86.8028 23.9554 86.8385C23.8128 86.8385 23.6702 86.9098 23.5276 86.9454ZM12.5124 72.7932C12.5837 73.3636 12.5837 73.827 12.6906 74.2548C12.7976 74.6825 12.5837 75.1816 12.9402 75.5381C12.9045 76.3936 13.4036 77.1066 13.7244 77.8196C13.9383 78.3186 14.2591 78.8533 14.6156 79.3168C15.0077 79.7802 15.4712 80.208 15.8989 80.6714C16.8614 81.7052 18.0022 82.3825 19.2855 82.9529C20.4619 83.4519 21.7096 83.6658 22.9572 83.8084C23.3137 83.8441 23.7059 83.8441 24.098 83.8084C24.4901 83.7728 24.8466 83.6658 25.2387 83.6302C25.7378 83.5945 26.2012 83.4519 26.7003 83.3093C27.6984 83.0242 28.554 82.4894 29.4095 81.9547C30.8711 81.0635 31.9405 79.8158 32.8317 78.3899C33.0456 78.0334 33.1882 77.6057 33.4021 77.2135C33.5803 76.8571 33.6516 76.4293 33.7942 76.0728C33.9725 75.645 34.0794 75.2173 34.1151 74.8251C34.1507 74.3617 34.2933 73.9339 34.2933 73.5061C34.2933 72.6149 34.1864 71.7594 34.1151 70.8682C34.1151 70.8326 34.0438 70.7613 34.0438 70.7256C33.8655 70.0839 33.616 69.4779 33.4021 68.8363C33.1526 68.0877 32.7248 67.4103 32.297 66.7687C31.6554 65.8418 30.9067 65.0219 29.9443 64.3803C29.0887 63.7743 27.6984 62.99 26.7003 62.6692C25.6308 62.277 24.4901 62.3127 23.385 62.0988C22.9216 62.0275 22.4938 62.2414 22.066 62.277C21.7096 62.3127 21.3531 62.384 21.0323 62.4553C19.3924 62.7405 17.9665 63.4891 16.7188 64.4872C15.5425 65.4497 14.4017 66.5548 13.8314 68.052C13.5818 68.6937 13.1184 69.264 12.9758 69.9414C12.7263 70.8682 12.6193 71.902 12.5124 72.7932Z" fill="#515151"/>
<path d="M15.7564 73.0071C15.7564 72.7576 15.7921 72.615 15.7564 72.4724C15.6138 71.6525 15.8633 70.9039 16.1842 70.2265C16.4694 69.5849 16.7902 68.9076 17.2536 68.3016C17.7883 67.5886 18.3587 67.0182 19.0717 66.5548C19.8916 66.0201 20.7828 65.5923 21.7809 65.4141C22.4939 65.3071 23.1712 65.2358 23.8485 65.2715C25.4527 65.3428 26.9142 65.8775 28.1263 66.8756C29.1244 67.7312 29.8374 68.5154 30.2295 69.371C30.7286 70.4048 31.1207 71.4742 31.085 72.6506C31.085 73.1497 31.2276 73.72 31.0494 74.1122C30.8355 74.5399 30.9781 74.9677 30.7286 75.3955C30.3364 76.1085 30.0512 76.8571 29.5878 77.5344C29.0887 78.2473 28.4471 78.8177 27.7698 79.2811C27.0212 79.7802 26.2013 80.1723 25.3457 80.4219C24.2406 80.7427 23.1355 80.6001 22.0661 80.5645C21.674 80.5645 21.2105 80.3862 20.8184 80.2436C19.5351 79.7802 18.5013 79.0316 17.6101 78.0691C16.8615 77.2848 16.2555 75.9302 15.899 74.8251C15.7208 74.1835 15.8277 73.5775 15.7564 73.0071ZM18.7508 72.6863C18.8221 75.6094 20.7115 77.4631 23.3494 77.6413C24.2763 77.7126 25.0962 77.4274 25.8448 76.8927C26.4151 76.4649 26.9855 76.0015 27.3776 75.4668C27.9124 74.7538 28.0906 73.827 28.0906 72.9714C28.0906 72.2585 27.948 71.5099 27.5559 70.8682C27.1638 70.1553 26.5934 69.5136 25.9161 69.0502C25.2031 68.5511 24.2763 68.4798 23.4207 68.2659C22.3869 68.5154 21.2818 68.6224 20.4263 69.4423C19.4281 70.3691 18.8578 71.4742 18.7508 72.6863Z" fill="#515151"/>
</g>
<defs>
<clipPath id="clip0_2716_1494">
<rect width="96" height="96" fill="white"/>
</clipPath>
</defs>
</svg>
