<svg width="120" height="40" viewBox="0 0 120 40" fill="none" xmlns="http://www.w3.org/2000/svg">
<path d="M114.394 6.74729C114.842 14.1307 117.313 21.4165 117.712 28.7591C117.78 30.0041 118.956 34.0108 118.25 35.0929M118.25 35.0929C117.334 36.4973 112.991 34.7658 111.968 34.3899C106.81 32.4944 97.841 29.1076 92.426 26.449M118.25 35.0929C107.295 17.628 78.734 2.30614 64.2573 12.4773M64.2573 12.4773C60.4246 15.1701 57.5791 19.6498 56.3089 26.3497C53.9076 39.0176 71.1726 41.7244 73.6747 30.1491C75.0555 23.7581 69.6372 17.0274 64.2573 12.4773ZM64.2573 12.4773C62.7121 11.1704 61.1701 10.0434 59.7932 9.15607C42.7224 -1.84561 17.3758 -0.471677 2.08955 10.5452" stroke="#0065EF" stroke-width="3" stroke-miterlimit="1.5" stroke-linecap="round" stroke-linejoin="round"/>
</svg>
