<svg width="66" height="66" viewBox="0 0 66 66" fill="none" xmlns="http://www.w3.org/2000/svg">
<path d="M66 27.0703L33 66L32.8026 65.7678L0 27.0703L14.6293 12.67H51.3707L66 27.0703Z" fill="#00E8F2"/>
<path d="M66 27.0703L33 66V12.67H51.3707L66 27.0703Z" fill="#00CEF5"/>
<path d="M44.0537 27.0381H21.9463L32.8026 12.9268L33 12.67L44.0537 27.0381Z" fill="#9CFDFF"/>
<path d="M51.3701 12.67L43.8926 27.0381H66L51.3701 12.67Z" fill="#00F8FE"/>
<path d="M14.6299 12.67L22.1074 27.0381H0L14.6299 12.67Z" fill="#9CFDFF"/>
<path d="M31.0664 0H34.9336V8.01283H31.0664V0Z" fill="#9CFDFF"/>
<path d="M40.8435 8.18613L43.979 0.674316L47.5476 2.16429L44.4121 9.6756L40.8435 8.18613Z" fill="#00F8FE"/>
<path d="M18.4514 2.16307L22.0199 0.673096L25.1555 8.18491L21.5869 9.67438L18.4514 2.16307Z" fill="#9CFDFF"/>
<path d="M43.8926 27.0381L33 66L32.8026 65.295L22.1074 27.0381H43.8926Z" fill="#00F8FE"/>
<path d="M33 0H34.9336V8.01283H33V0Z" fill="#00F8FE"/>
<path d="M44.0537 27.0381H43.8926L33 66V12.67L44.0537 27.0381Z" fill="#9CFDFF"/>
<path d="M44.0537 27.0381H33V12.67L44.0537 27.0381Z" fill="#00F8FE"/>
</svg>
