<svg width="71" height="71" viewBox="0 0 71 71" fill="none" xmlns="http://www.w3.org/2000/svg">
<g clip-path="url(#clip0)">
<path d="M67.9167 19.5929H66.6805C66.2938 18.5533 65.841 17.5456 65.3229 16.5781L66.274 15.627C67.4781 14.4229 67.4781 12.4708 66.274 11.2667L59.7332 4.72596C58.5291 3.52188 56.5771 3.52188 55.373 4.72596L54.1464 5.95258C53.2612 5.53494 52.3463 5.17075 51.407 4.85974V3.08321C51.407 1.38032 50.0265 0 48.3238 0H39.0736C37.3709 0 35.9904 1.38032 35.9904 3.08321V4.85974C35.0513 5.17089 34.1362 5.53508 33.2511 5.95258L32.0244 4.72596C30.8203 3.52188 28.8683 3.52188 27.6642 4.72596L21.1234 11.2667C19.9193 12.4708 19.9193 14.423 21.1234 15.627L22.0745 16.5781C21.5564 17.5456 21.1036 18.5533 20.7169 19.5929H19.4807C17.7779 19.5929 16.3975 20.9733 16.3975 22.6761V31.9262C16.3975 33.6289 17.7778 35.0094 19.4807 35.0094H20.1637C20.5237 36.243 20.9765 37.4372 21.5168 38.5821L21.1236 38.9754C19.9195 40.1795 19.9195 42.1315 21.1236 43.3356L27.6643 49.8764C28.8684 51.0805 30.8205 51.0805 32.0246 49.8764L32.1423 49.7588C33.3663 50.4143 34.6535 50.9669 35.9907 51.4096V51.5191C35.9907 53.2219 37.371 54.6023 39.0739 54.6023H48.3241C50.0268 54.6023 51.4073 53.222 51.4073 51.5191V51.4096C52.7443 50.9667 54.0315 50.4142 55.2556 49.7588L55.3734 49.8764C56.5775 51.0805 58.5296 51.0805 59.7336 49.8764L66.2744 43.3356C67.4785 42.1315 67.4785 40.1795 66.2744 38.9754L65.8811 38.5821C66.4213 37.4372 66.8743 36.243 67.2343 35.0094H67.9173C69.62 35.0094 71.0005 33.6291 71.0005 31.9262V22.6761C70.9999 20.9734 69.6196 19.5929 67.9167 19.5929ZM43.6988 37.9902C38.2552 37.9902 33.8433 33.5783 33.8433 28.1347C33.8433 22.691 38.2552 18.2792 43.6988 18.2792C49.1424 18.2792 53.5543 22.6912 53.5543 28.1347C53.5543 33.5781 49.1422 37.9902 43.6988 37.9902Z" fill="url(#paint0_linear)"/>
<path d="M43.6986 46.0788C53.6101 46.0788 61.6431 38.0458 61.6431 28.1343C61.6431 18.2229 53.6101 10.1897 43.6986 10.1897C33.7872 10.1897 25.7542 18.2227 25.7542 28.1342C25.7542 38.0456 33.787 46.0788 43.6986 46.0788ZM43.6986 18.2788C49.1422 18.2788 53.5541 22.6907 53.5541 28.1343C53.5541 33.5779 49.1422 37.9898 43.6986 37.9898C38.255 37.9898 33.8431 33.5778 33.8431 28.1343C33.8431 22.6908 38.255 18.2788 43.6986 18.2788Z" fill="url(#paint1_linear)"/>
<path d="M39.0735 54.6023H48.3236C48.8424 54.6023 49.3309 54.4735 49.7599 54.2472L30.9225 35.5491C30.0632 34.6899 28.8096 34.6899 27.9505 35.5491L27.5551 35.9445L24.595 32.9934C24.1983 32.4163 23.5343 32.3161 22.7813 32.3161C22.7813 32.3161 16.4159 32.2792 16.434 32.3968C16.6606 33.876 17.9379 35.0091 19.4806 35.0091H20.1636C20.5236 36.2428 20.9765 37.4369 21.5168 38.5818L21.1235 38.9751C19.9194 40.1791 19.9194 42.1312 21.1235 43.3353L27.6642 49.8761C28.8683 51.0801 30.8204 51.0801 32.0245 49.8761L32.1423 49.7584C33.3662 50.414 34.6534 50.9665 35.9906 51.4092V51.5188C35.9905 53.2218 37.3708 54.6023 39.0735 54.6023Z" fill="url(#paint2_linear)"/>
<path d="M36.7623 46.019H35.8801C35.6041 45.2771 35.281 44.558 34.9113 43.8677L35.5899 43.189C36.4492 42.3299 36.4492 40.9369 35.5899 40.0777L30.9226 35.4103C30.0635 34.5511 28.6705 34.5511 27.8113 35.4103L26.936 36.2856C26.3044 35.9877 25.6515 35.7277 24.9813 35.5057V34.238C24.9813 33.0229 23.9963 32.038 22.7813 32.038H16.1808C14.9657 32.038 13.9807 33.0229 13.9807 34.238V35.5057C13.3106 35.7276 12.6576 35.9875 12.026 36.2856L11.1508 35.4103C10.2915 34.5511 8.89867 34.5511 8.03943 35.4103L3.37208 40.0777C2.51284 40.9369 2.51284 42.3299 3.37208 43.189L4.05076 43.8677C3.681 44.5582 3.35802 45.2771 3.08196 46.019H2.19975C0.984951 46.019 0 47.0039 0 48.219V54.8195C0 56.0345 0.984951 57.0195 2.20003 57.0195H2.68728C2.94413 57.8998 3.26739 58.7519 3.65288 59.5688L3.37222 59.8495C2.51298 60.7086 2.51298 62.1016 3.37222 62.9608L8.03957 67.6281C8.89881 68.4874 10.2917 68.4874 11.1509 67.6281L11.2348 67.5442C12.1083 68.012 13.0267 68.4062 13.9809 68.7222V68.8005C13.9809 70.0156 14.9658 71.0005 16.1809 71.0005H22.7814C23.9965 71.0005 24.9814 70.0156 24.9814 68.8005V68.7222C25.9355 68.4062 26.854 68.012 27.7275 67.5442L27.8114 67.6281C28.6706 68.4874 30.0635 68.4874 30.9227 67.6281L35.5901 62.9608C36.4493 62.1016 36.4493 60.7087 35.5901 59.8495L35.3094 59.5688C35.6949 58.7518 36.018 57.8998 36.275 57.0195H36.7624C37.9775 57.0195 38.9624 56.0345 38.9624 54.8195V48.219C38.9623 47.0039 37.9773 46.019 36.7623 46.019ZM19.4811 59.1464C15.5969 59.1464 12.4487 55.9982 12.4487 52.114C12.4487 48.2296 15.5969 45.0815 19.4811 45.0815C23.3654 45.0815 26.5136 48.2297 26.5136 52.114C26.5136 55.9982 23.3654 59.1464 19.4811 59.1464Z" fill="url(#paint3_linear)"/>
<path d="M28.5349 43.0597C23.5338 38.0586 15.4274 38.0586 10.4265 43.0597C5.42561 48.0607 5.42547 56.1671 10.4265 61.168C15.4276 66.169 23.5339 66.1691 28.5349 61.168C33.5358 56.167 33.5359 48.0607 28.5349 43.0597ZM14.5079 57.0867C11.7613 54.3401 11.7613 49.8878 14.5079 47.1412C17.2545 44.3946 21.7067 44.3946 24.4535 47.1412C27.2001 49.8878 27.2001 54.3401 24.4535 57.0867C21.7067 59.8334 17.2546 59.8334 14.5079 57.0867Z" fill="url(#paint4_linear)"/>
</g>
<defs>
<linearGradient id="paint0_linear" x1="24.0578" y1="7.66034" x2="66.0546" y2="49.6571" gradientUnits="userSpaceOnUse">
<stop stop-color="#B5DBFF"/>
<stop offset="1" stop-color="#48B2E3"/>
</linearGradient>
<linearGradient id="paint1_linear" x1="56.6085" y1="41.0442" x2="29.004" y2="13.4397" gradientUnits="userSpaceOnUse">
<stop stop-color="#B5DBFF"/>
<stop offset="1" stop-color="#48B2E3"/>
</linearGradient>
<linearGradient id="paint2_linear" x1="53.327" y1="66.6766" x2="5.54357" y2="18.8932" gradientUnits="userSpaceOnUse">
<stop stop-color="#07485E" stop-opacity="0"/>
<stop offset="0.3332" stop-color="#063F52" stop-opacity="0.333"/>
<stop offset="0.9358" stop-color="#032632" stop-opacity="0.936"/>
<stop offset="1" stop-color="#03232E"/>
</linearGradient>
<linearGradient id="paint3_linear" x1="5.46617" y1="37.5043" x2="35.4336" y2="67.4717" gradientUnits="userSpaceOnUse">
<stop stop-color="#76E2F8"/>
<stop offset="1" stop-color="#48B2E3"/>
</linearGradient>
<linearGradient id="paint4_linear" x1="19.4807" y1="65.1508" x2="19.4807" y2="37.2985" gradientUnits="userSpaceOnUse">
<stop stop-color="#76E2F8"/>
<stop offset="1" stop-color="#48B2E3"/>
</linearGradient>
<clipPath id="clip0">
<rect width="71" height="71" fill="white"/>
</clipPath>
</defs>
</svg>
