<svg width="120" height="120" viewBox="0 0 120 120" fill="none" xmlns="http://www.w3.org/2000/svg">
<path d="M62.2846 47.5455C62.3179 48.909 62.1673 50.2392 61.8327 51.5362C61.5314 52.8332 61.0795 54.0803 60.477 55.2775C59.8745 56.4416 59.1214 57.5391 58.2176 58.5699C57.3472 59.5676 56.343 60.4488 55.205 61.2138C52.8284 62.8101 50.2175 63.7247 47.3723 63.9574C44.5272 64.157 41.8158 63.6581 39.2384 62.4609C37.9999 61.8623 36.8451 61.1307 35.774 60.266C34.7363 59.3681 33.8158 58.3704 33.0124 57.2729C32.2426 56.1755 31.5898 54.995 31.0543 53.7311C30.5522 52.4341 30.2342 51.104 30.1003 49.7404C30.0668 49.4742 30.0333 49.2248 29.9999 48.9921C29.9999 48.726 29.9999 48.4601 29.9999 48.194V47.5455V27.0928C29.9999 26.2282 30.3011 25.4965 30.9036 24.8979C31.5062 24.2993 32.2426 24 33.1129 24C33.9832 24 34.7196 24.2993 35.3221 24.8979C35.9246 25.4965 36.2259 26.2282 36.2259 27.0928V35.3238V35.2739C37.933 34.0101 39.8075 33.0956 41.8493 32.5302C43.9246 31.9316 46.0335 31.7653 48.1757 32.0314C50.2845 32.2975 52.2761 32.9626 54.1506 34.0268C56.0252 35.0577 57.6151 36.4212 58.9205 38.1173C59.9581 39.4809 60.7615 40.9774 61.3306 42.6069C61.8997 44.2032 62.2175 45.8494 62.2846 47.5455ZM54.3013 53.5815C55.6401 51.719 56.226 49.6239 56.0586 47.296C55.9916 46.0656 55.6903 44.9016 55.1548 43.8041C54.6193 42.6735 53.9164 41.6758 53.046 40.8111C52.611 40.412 52.1422 40.0628 51.6402 39.7635C51.1714 39.4642 50.6694 39.1816 50.1339 38.9154C48.8618 38.3501 47.5398 38.0674 46.1673 38.0674C44.7949 38.0674 43.4728 38.3335 42.2008 38.8656C40.9288 39.431 39.8242 40.2124 38.887 41.2101C37.9497 42.2078 37.2468 43.3385 36.7782 44.6023C36.1756 46.2983 36.0418 48.0276 36.3765 49.7903C36.7447 51.5529 37.5146 53.1158 38.6861 54.4794C39.5899 55.5437 40.661 56.3418 41.8995 56.8738C42.2008 57.0402 42.502 57.1899 42.8033 57.3228C43.138 57.4557 43.4728 57.5889 43.8075 57.7219C43.5397 57.6221 43.2719 57.5223 43.0041 57.4226C42.7363 57.2896 42.4686 57.1564 42.2008 57.0235C44.3096 57.9546 46.4854 58.1042 48.728 57.4725C49.866 57.1732 50.9038 56.691 51.841 56.0258C52.8118 55.3606 53.6317 54.546 54.3013 53.5815Z" fill="#0065EF"/>
<path d="M73.1841 42.8858C73.1841 41.6848 71.8916 40.7112 70.2971 40.7112C68.7026 40.7112 67.41 41.6848 67.41 42.8858V61.7328C67.41 62.9338 68.7026 63.9074 70.2971 63.9074C71.8916 63.9074 73.1841 62.9338 73.1841 61.7328V42.8858Z" fill="#0065EF"/>
<path d="M70.2971 37.7184C71.8916 37.7184 73.1841 36.4342 73.1841 34.85C73.1841 33.2659 71.8916 31.9817 70.2971 31.9817C68.7026 31.9817 67.41 33.2659 67.41 34.85C67.41 36.4342 68.7026 37.7184 70.2971 37.7184Z" fill="#0065EF"/>
<path d="M84.9827 34.3761C84.9827 33.0537 83.8025 31.9817 82.3467 31.9817C80.8909 31.9817 79.7107 33.0537 79.7107 34.3761V61.5133C79.7107 62.8357 80.8909 63.9077 82.3467 63.9077C83.8025 63.9077 84.9827 62.8357 84.9827 61.5133V34.3761Z" fill="#0065EF"/>
<path d="M86.9875 40.7612H77.9498C76.286 40.7612 74.9373 41.9338 74.9373 43.3802C74.9373 44.8266 76.286 45.9991 77.9498 45.9991H86.9875C88.6513 45.9991 90.0001 44.8266 90.0001 43.3802C90.0001 41.9338 88.6513 40.7612 86.9875 40.7612Z" fill="#0065EF"/>
<path d="M18.4395 93.0002V84.5979H21.1055C21.918 84.5979 22.5605 84.7756 23.0332 85.1311C23.5098 85.4866 23.748 85.9495 23.748 86.5198C23.748 86.9963 23.6133 87.4104 23.3438 87.762C23.0742 88.1135 22.7012 88.3635 22.2246 88.512V88.5354C22.8027 88.6018 23.2637 88.8167 23.6074 89.1799C23.9551 89.5393 24.1289 90.0081 24.1289 90.5862C24.1289 91.3049 23.8457 91.887 23.2793 92.3323C22.7129 92.7776 21.998 93.0002 21.1348 93.0002H18.4395ZM19.8281 85.717V88.1077H20.7305C21.2148 88.1077 21.5938 87.9944 21.8672 87.7678C22.1445 87.5374 22.2832 87.2131 22.2832 86.7952C22.2832 86.0764 21.8027 85.717 20.8418 85.717H19.8281ZM19.8281 89.2268V91.887H21.0176C21.5371 91.887 21.9375 91.7678 22.2188 91.5295C22.5039 91.2874 22.6465 90.9553 22.6465 90.5334C22.6465 89.6624 22.043 89.2268 20.8359 89.2268H19.8281ZM26.9062 93.0002H25.541V84.1174H26.9062V93.0002ZM33.2871 93.0002H31.9688V92.0627H31.9453C31.5312 92.7815 30.9238 93.1409 30.123 93.1409C29.5332 93.1409 29.0703 92.9807 28.7344 92.6604C28.4023 92.3401 28.2363 91.9163 28.2363 91.3889C28.2363 90.2561 28.8887 89.5959 30.1934 89.4084L31.9746 89.1565C31.9746 88.301 31.5684 87.8733 30.7559 87.8733C30.041 87.8733 29.3965 88.1194 28.8223 88.6116V87.4221C29.4551 87.0471 30.1855 86.8596 31.0137 86.8596C32.5293 86.8596 33.2871 87.6057 33.2871 89.0979V93.0002ZM31.9746 90.053L30.7148 90.2288C30.3242 90.2795 30.0293 90.3752 29.8301 90.5159C29.6348 90.6526 29.5371 90.8948 29.5371 91.2424C29.5371 91.4963 29.627 91.7053 29.8066 91.8694C29.9902 92.0295 30.2344 92.1096 30.5391 92.1096C30.9531 92.1096 31.2949 91.9651 31.5645 91.676C31.8379 91.3831 31.9746 91.0159 31.9746 90.5745V90.053ZM39.3809 87.5686L36.1406 91.9397H39.3691V93.0002H34.2363V92.4905L37.5469 88.0608H34.5527V87.0002H39.3809V87.5686ZM43.1895 93.1409C42.2637 93.1409 41.5234 92.8616 40.9688 92.303C40.418 91.7405 40.1426 90.9963 40.1426 90.0706C40.1426 89.0627 40.4297 88.2756 41.0039 87.7092C41.582 87.1428 42.3594 86.8596 43.3359 86.8596C44.2734 86.8596 45.0039 87.135 45.5273 87.6858C46.0508 88.2366 46.3125 89.0002 46.3125 89.9768C46.3125 90.9338 46.0293 91.7014 45.4629 92.2795C44.9004 92.8538 44.1426 93.1409 43.1895 93.1409ZM43.2539 87.9436C42.7227 87.9436 42.3027 88.1292 41.9941 88.5002C41.6855 88.8713 41.5312 89.3831 41.5312 90.0354C41.5312 90.6643 41.6875 91.1604 42 91.5237C42.3125 91.8831 42.7305 92.0627 43.2539 92.0627C43.7891 92.0627 44.1992 91.885 44.4844 91.5295C44.7734 91.1741 44.918 90.6682 44.918 90.012C44.918 89.3518 44.7734 88.842 44.4844 88.4827C44.1992 88.1233 43.7891 87.9436 43.2539 87.9436ZM51.1816 88.2952C51.0176 88.1663 50.7812 88.1018 50.4727 88.1018C50.0703 88.1018 49.7344 88.2834 49.4648 88.6467C49.1953 89.01 49.0605 89.5042 49.0605 90.1292V93.0002H47.7012V87.0002H49.0605V88.2366H49.084C49.2168 87.8147 49.4199 87.4866 49.6934 87.2522C49.9707 87.0139 50.2793 86.8948 50.6191 86.8948C50.8652 86.8948 51.0527 86.9319 51.1816 87.0061V88.2952ZM62.0625 89.6018C62.0625 91.9612 60.9453 93.1409 58.7109 93.1409C56.5703 93.1409 55.5 92.0061 55.5 89.7366V84.5979H56.8945V89.4495C56.8945 91.0979 57.5352 91.9221 58.8164 91.9221C60.0508 91.9221 60.668 91.1272 60.668 89.5374V84.5979H62.0625V89.6018ZM65.4668 93.0002H64.0312V84.5979H65.4668V93.0002ZM70.8457 93.0002V84.5979H73.2715C76.3691 84.5979 77.918 85.9631 77.918 88.6936C77.918 89.9905 77.4883 91.0334 76.6289 91.8225C75.7695 92.6077 74.6172 93.0002 73.1719 93.0002H70.8457ZM72.2344 85.7815V91.8225H73.3477C74.3281 91.8225 75.0898 91.553 75.6328 91.0139C76.1797 90.4749 76.4531 89.7131 76.4531 88.7288C76.4531 86.7639 75.4355 85.7815 73.4004 85.7815H72.2344ZM84.3867 90.3694H80.2969C80.3125 90.9241 80.4824 91.3518 80.8066 91.6526C81.1348 91.9534 81.584 92.1038 82.1543 92.1038C82.7949 92.1038 83.3828 91.9124 83.918 91.5295V92.6252C83.3711 92.969 82.6484 93.1409 81.75 93.1409C80.8672 93.1409 80.1738 92.8694 79.6699 92.3264C79.1699 91.7795 78.9199 91.012 78.9199 90.0237C78.9199 89.0901 79.1953 88.3303 79.7461 87.7444C80.3008 87.1545 80.9883 86.8596 81.8086 86.8596C82.6289 86.8596 83.2637 87.1233 83.7129 87.6506C84.1621 88.178 84.3867 88.9104 84.3867 89.8479V90.3694ZM83.0742 89.4084C83.0703 88.9202 82.9551 88.5413 82.7285 88.2717C82.502 87.9983 82.1895 87.8616 81.791 87.8616C81.4004 87.8616 81.0684 88.0042 80.7949 88.2893C80.5254 88.5745 80.3594 88.9475 80.2969 89.4084H83.0742ZM94.6523 93.0002H93.293V89.7307C93.293 89.1018 93.2031 88.6467 93.0234 88.3655C92.8477 88.0842 92.5488 87.9436 92.127 87.9436C91.7715 87.9436 91.4688 88.1213 91.2188 88.4768C90.9727 88.8323 90.8496 89.2581 90.8496 89.7542V93.0002H89.4844V89.6194C89.4844 88.5022 89.0898 87.9436 88.3008 87.9436C87.9336 87.9436 87.6309 88.1116 87.3926 88.4475C87.1582 88.7834 87.041 89.219 87.041 89.7542V93.0002H85.6816V87.0002H87.041V87.9495H87.0645C87.498 87.2229 88.1289 86.8596 88.957 86.8596C89.3711 86.8596 89.7324 86.9749 90.041 87.2053C90.3535 87.4319 90.5664 87.7307 90.6797 88.1018C91.125 87.2737 91.7891 86.8596 92.6719 86.8596C93.9922 86.8596 94.6523 87.6741 94.6523 89.303V93.0002ZM98.9707 93.1409C98.0449 93.1409 97.3047 92.8616 96.75 92.303C96.1992 91.7405 95.9238 90.9963 95.9238 90.0706C95.9238 89.0627 96.2109 88.2756 96.7852 87.7092C97.3633 87.1428 98.1406 86.8596 99.1172 86.8596C100.055 86.8596 100.785 87.135 101.309 87.6858C101.832 88.2366 102.094 89.0002 102.094 89.9768C102.094 90.9338 101.811 91.7014 101.244 92.2795C100.682 92.8538 99.9238 93.1409 98.9707 93.1409ZM99.0352 87.9436C98.5039 87.9436 98.084 88.1292 97.7754 88.5002C97.4668 88.8713 97.3125 89.3831 97.3125 90.0354C97.3125 90.6643 97.4688 91.1604 97.7812 91.5237C98.0938 91.8831 98.5117 92.0627 99.0352 92.0627C99.5703 92.0627 99.9805 91.885 100.266 91.5295C100.555 91.1741 100.699 90.6682 100.699 90.012C100.699 89.3518 100.555 88.842 100.266 88.4827C99.9805 88.1233 99.5703 87.9436 99.0352 87.9436Z" fill="#605E5C"/>
</svg>
