<svg width="118" height="126" viewBox="0 0 118 126" fill="none" xmlns="http://www.w3.org/2000/svg">
    <path d="M63.4928 46.4416C63.5586 49.1311 63.2621 51.7548 62.604 54.313C62.0116 56.8712 61.1228 59.3313 59.9381 61.6923C58.7528 63.9886 57.2719 66.153 55.4945 68.1866C53.7828 70.1544 51.8079 71.8924 49.5699 73.4015C44.8958 76.5497 39.7611 78.3538 34.1657 78.813C28.5701 79.2063 23.238 78.2225 18.169 75.8609C15.7333 74.6803 13.4622 73.2372 11.3557 71.5315C9.31495 69.7605 7.50462 67.7927 5.92466 65.6284C4.41058 63.4634 3.1269 61.1353 2.07364 58.6423C1.08619 56.0841 0.460793 53.4604 0.19749 50.7708C0.131677 50.2459 0.0658135 49.7539 0 49.2949C0 48.77 0 48.2456 0 47.7207V46.4416V6.10034C0 4.39488 0.592466 2.95179 1.7774 1.77108C2.96234 0.590357 4.41058 0 6.12215 0C7.83379 0 9.28202 0.590357 10.467 1.77108C11.6519 2.95179 12.2443 4.39488 12.2443 6.10034V22.3352V22.2368C15.6017 19.7442 19.2881 17.9403 23.3038 16.8252C27.3852 15.6445 31.5327 15.3165 35.7456 15.8413C39.8929 16.3661 43.8096 17.6779 47.4962 19.777C51.1828 21.8104 54.3096 24.4999 56.8769 27.8452C58.9178 30.5348 60.4976 33.4866 61.6165 36.7006C62.7361 39.8492 63.3613 43.0962 63.4928 46.4416ZM47.7925 58.3471C50.4255 54.6736 51.5778 50.5411 51.2485 45.9496C51.1167 43.5227 50.5242 41.2267 49.4711 39.0621C48.418 36.832 47.0356 34.8641 45.3238 33.1585C44.4682 32.3714 43.5464 31.6826 42.559 31.0922C41.6372 30.5018 40.6498 29.9444 39.5966 29.4195C37.0949 28.3044 34.495 27.7469 31.7958 27.7469C29.0967 27.7469 26.4965 28.2716 23.995 29.3212C21.4934 30.4364 19.3211 31.9778 17.4778 33.9456C15.6346 35.9135 14.2522 38.1436 13.3305 40.6364C12.1456 43.9817 11.8823 47.3925 12.5406 50.8692C13.2647 54.3459 14.7788 57.4286 17.0828 60.1179C18.8602 62.2175 20.9668 63.7919 23.4025 64.8411C23.995 65.1691 24.5874 65.4641 25.1799 65.7267C25.8382 65.9887 26.4965 66.2513 27.1548 66.5139C26.6281 66.3172 26.1015 66.12 25.5749 65.9233C25.0482 65.6613 24.5216 65.3987 23.995 65.1361C28.1422 66.9725 32.4214 67.2681 36.8318 66.0217C39.0699 65.4317 41.1109 64.4802 42.9539 63.1684C44.8632 61.8566 46.4757 60.2498 47.7925 58.3471Z" fill="#0065EF"/>
    <path d="M84.92 37.2508C84.92 34.8819 82.3781 32.9615 79.2425 32.9615C76.1064 32.9615 73.5645 34.8819 73.5645 37.2508V74.4248C73.5645 76.7941 76.1064 78.7141 79.2425 78.7141C82.3781 78.7141 84.92 76.7941 84.92 74.4248V37.2508Z" fill="#0065EF"/>
    <path d="M79.2425 27.058C82.3781 27.058 84.92 24.525 84.92 21.4004C84.92 18.2758 82.3781 15.7428 79.2425 15.7428C76.1064 15.7428 73.5645 18.2758 73.5645 21.4004C73.5645 24.525 76.1064 27.058 79.2425 27.058Z" fill="#0065EF"/>
    <path d="M108.126 20.4657C108.126 17.8573 105.804 15.7428 102.941 15.7428C100.078 15.7428 97.7574 17.8573 97.7574 20.4657V73.9914C97.7574 76.5997 100.078 78.7147 102.941 78.7147C105.804 78.7147 108.126 76.5997 108.126 73.9914V20.4657Z" fill="#0065EF"/>
    <path d="M112.076 33.0602H94.3014C91.0297 33.0602 88.3767 35.3729 88.3767 38.2259C88.3767 41.0788 91.0297 43.3915 94.3014 43.3915H112.076C115.348 43.3915 118.001 41.0788 118.001 38.2259C118.001 35.3729 115.348 33.0602 112.076 33.0602Z" fill="#0065EF"/>
    <path d="M114.478 115.991H3.5226C1.90147 115.991 0.58728 117.309 0.58728 118.935C0.58728 120.56 1.90147 121.878 3.5226 121.878H114.478C116.099 121.878 117.413 120.56 117.413 118.935C117.413 117.309 116.099 115.991 114.478 115.991Z" fill="#FFEA8C"/>
    <path d="M7.06592 112.524C7.85376 112.226 8.37037 111.436 8.37037 110.568C8.37037 109.933 8.1379 109.376 7.66003 108.897C7.19507 108.418 6.5493 108.185 5.70981 108.185H1.82227V117.757H5.89061C6.80761 117.757 7.54379 117.485 8.07332 116.941C8.60285 116.397 8.87408 115.749 8.87408 114.998C8.87408 113.845 8.24122 112.835 7.06592 112.524ZM5.49025 109.545C6.32974 109.545 6.85927 110.076 6.85927 110.736C6.85927 111.423 6.32974 112.019 5.43858 112.019H3.29462V109.545H5.49025ZM3.29462 116.397V113.34H5.59357C6.7172 113.34 7.32422 114.039 7.32422 114.881C7.32422 115.697 6.67845 116.397 5.63232 116.397H3.29462ZM11.0792 109.855C11.6087 109.855 12.022 109.441 12.022 108.884C12.022 108.353 11.6087 107.938 11.0792 107.938C10.5238 107.938 10.0976 108.353 10.0976 108.884C10.0976 109.441 10.5238 109.855 11.0792 109.855ZM11.7637 110.775H10.343V117.757H11.7637V110.775ZM17.8072 116.229C17.3681 116.488 16.9548 116.617 16.5802 116.617C15.8699 116.617 15.5083 116.177 15.5083 115.283V111.993H17.9105V110.775H15.5083V108.301H14.1005V110.775H12.8864V111.993H14.0876V115.257C14.0876 116.98 14.8625 117.925 16.3736 117.925C17.1356 117.925 17.7814 117.731 18.298 117.342L17.8072 116.229ZM27.94 112.524C28.7278 112.226 29.2445 111.436 29.2445 110.568C29.2445 109.933 29.012 109.376 28.5341 108.897C28.0692 108.418 27.4234 108.185 26.5839 108.185H22.6963V117.757H26.7647C27.6817 117.757 28.4179 117.485 28.9474 116.941C29.4769 116.397 29.7482 115.749 29.7482 114.998C29.7482 113.845 29.1153 112.835 27.94 112.524ZM26.3643 109.545C27.2038 109.545 27.7334 110.076 27.7334 110.736C27.7334 111.423 27.2038 112.019 26.3127 112.019H24.1687V109.545H26.3643ZM24.1687 116.397V113.34H26.4676C27.5913 113.34 28.1983 114.039 28.1983 114.881C28.1983 115.697 27.5525 116.397 26.5064 116.397H24.1687ZM32.6248 107.938H31.2041V117.757H32.6248V107.938ZM39.8956 111.747C39.2628 110.982 38.462 110.607 37.5192 110.607C36.5247 110.607 35.6852 110.944 35.0265 111.63C34.3678 112.317 34.0449 113.172 34.0449 114.221C34.0449 115.27 34.3678 116.151 35.0265 116.863C35.6852 117.576 36.5247 117.925 37.5192 117.925C38.462 117.925 39.2628 117.55 39.8956 116.798V117.757H41.2647V110.775H39.8956V111.747ZM37.7129 116.617C37.0542 116.617 36.5118 116.397 36.0985 115.944C35.6852 115.49 35.4786 114.933 35.4786 114.273C35.4786 113.612 35.6852 113.055 36.0985 112.602C36.5118 112.148 37.0542 111.915 37.7129 111.915C38.3716 111.915 38.9011 112.148 39.3274 112.602C39.7536 113.055 39.9602 113.612 39.9602 114.26C39.9602 114.92 39.7536 115.477 39.3274 115.931C38.9011 116.384 38.3716 116.617 37.7129 116.617ZM48.3158 111.682V110.788H42.788V112.006H46.3914L42.5813 116.811V117.757H48.432V116.539H44.5187L48.3158 111.682ZM49.2433 114.26C49.2433 115.296 49.592 116.164 50.2765 116.876C50.974 117.589 51.8522 117.938 52.9242 117.938C53.9962 117.938 54.8744 117.589 55.5589 116.876C56.2564 116.164 56.6051 115.296 56.6051 114.26C56.6051 113.236 56.2564 112.381 55.5589 111.669C54.8744 110.957 53.9962 110.594 52.9242 110.594C51.8522 110.594 50.974 110.957 50.2765 111.669C49.592 112.381 49.2433 113.236 49.2433 114.26ZM55.1715 114.26C55.1715 114.907 54.9519 115.464 54.5128 115.918C54.0866 116.371 53.557 116.604 52.9242 116.604C52.2913 116.604 51.7618 116.371 51.3227 115.918C50.8965 115.464 50.6769 114.907 50.6769 114.26C50.6769 113.625 50.8965 113.068 51.3227 112.615C51.7618 112.148 52.2913 111.915 52.9242 111.915C53.557 111.915 54.0866 112.148 54.5128 112.615C54.9519 113.068 55.1715 113.625 55.1715 114.26ZM59.452 117.757V114.182C59.452 112.718 60.2141 111.967 61.299 111.967C61.5573 111.967 61.8156 112.006 62.061 112.096L62.1901 110.71C61.9318 110.633 61.6606 110.594 61.3635 110.594C60.4595 110.594 59.8008 110.982 59.3875 111.773V110.775H58.0314V117.757H59.452ZM66.8708 117.925C67.9169 117.925 68.7694 117.627 69.428 117.019C70.0867 116.41 70.4096 115.542 70.4096 114.441V108.185H68.9114V114.247C68.9114 115.646 68.1494 116.462 66.8708 116.462C65.5792 116.462 64.8172 115.697 64.8172 114.247V108.185H63.332V114.441C63.332 115.542 63.6549 116.397 64.3135 117.006C64.9722 117.615 65.8246 117.925 66.8708 117.925ZM72.6299 117.757H74.1152V108.185H72.6299V117.757ZM83.1172 117.757C84.5379 117.757 85.6486 117.33 86.4623 116.475C87.276 115.62 87.6893 114.454 87.6893 112.99C87.6893 111.514 87.2889 110.348 86.4881 109.48C85.7003 108.612 84.6154 108.185 83.2335 108.185H79.6301V117.757H83.1172ZM81.1153 109.609H83.1947C84.1117 109.609 84.835 109.92 85.3516 110.555C85.8811 111.19 86.1394 111.98 86.1394 112.951C86.1394 113.936 85.8811 114.752 85.3516 115.387C84.835 116.021 84.1117 116.332 83.1818 116.332H81.1153V109.609ZM95.7837 114.13C95.7837 113.042 95.4608 112.187 94.828 111.552C94.1951 110.918 93.3685 110.607 92.3741 110.607C91.3279 110.607 90.4626 110.957 89.8039 111.643C89.1452 112.33 88.8223 113.197 88.8223 114.247C88.8223 116.086 89.946 117.912 92.5549 117.912C93.7302 117.912 94.8538 117.472 95.5642 116.941L94.9701 115.892C94.3501 116.345 93.3944 116.643 92.6065 116.643C91.2633 116.643 90.5013 115.905 90.2947 114.817H95.7321C95.7708 114.558 95.7837 114.324 95.7837 114.13ZM92.3741 111.837C93.4202 111.837 94.2339 112.55 94.3501 113.651H90.2947C90.5013 112.563 91.3021 111.837 92.3741 111.837ZM105.344 110.581C104.272 110.581 103.303 111.086 102.826 111.863C102.451 111.047 101.599 110.594 100.682 110.581C99.7646 110.581 98.9897 111.047 98.5764 111.786V110.775H97.1815V117.757H98.6022V113.884C98.6022 112.692 99.3255 111.915 100.359 111.915C101.34 111.915 101.96 112.64 101.96 113.845V117.757H103.381V113.858C103.381 112.679 104.091 111.915 105.125 111.915C106.093 111.915 106.713 112.589 106.713 113.819V117.757H108.134V113.586C108.134 112.666 107.875 111.928 107.359 111.397C106.855 110.853 106.184 110.581 105.344 110.581ZM109.469 114.26C109.469 115.296 109.818 116.164 110.502 116.876C111.199 117.589 112.078 117.938 113.15 117.938C114.222 117.938 115.1 117.589 115.784 116.876C116.482 116.164 116.831 115.296 116.831 114.26C116.831 113.236 116.482 112.381 115.784 111.669C115.1 110.957 114.222 110.594 113.15 110.594C112.078 110.594 111.199 110.957 110.502 111.669C109.818 112.381 109.469 113.236 109.469 114.26ZM115.397 114.26C115.397 114.907 115.177 115.464 114.738 115.918C114.312 116.371 113.783 116.604 113.15 116.604C112.517 116.604 111.987 116.371 111.548 115.918C111.122 115.464 110.902 114.907 110.902 114.26C110.902 113.625 111.122 113.068 111.548 112.615C111.987 112.148 112.517 111.915 113.15 111.915C113.783 111.915 114.312 112.148 114.738 112.615C115.177 113.068 115.397 113.625 115.397 114.26Z" fill="#515151"/>
</svg>
