<svg width="207" height="128" viewBox="0 0 207 128" fill="none" xmlns="http://www.w3.org/2000/svg">
<ellipse cx="68.1754" cy="-8" rx="138.386" ry="136" fill="#F5F9FF"/>
<path d="M136 72.7932C136 73.9161 136 75.039 136 76.1619C135.947 76.2956 135.893 76.4025 135.866 76.5362C135.759 77.3116 135.679 78.0602 135.519 78.8355C133.647 87.6851 126.589 94.3691 117.659 95.7326C117.151 95.8128 116.67 95.8931 116.162 96C114.986 96 113.809 96 112.659 96C112.553 95.9733 112.446 95.8931 112.339 95.8931C111.67 95.7861 111.002 95.7326 110.333 95.599C104.879 94.5295 100.495 91.749 97.1259 87.3375C95.9228 85.7334 94.9603 83.9955 94.2651 82.124C94.0245 81.4824 93.9978 81.616 93.5165 81.616C93.3828 81.616 93.2224 81.616 93.0887 81.616C85.6561 81.616 78.2503 81.616 70.8177 81.616C70.3632 81.616 69.8819 81.5893 69.4274 81.5626C66.8875 81.3754 64.6417 79.397 64.1337 76.7768C64.1069 76.6699 64.0535 76.5629 64 76.456C64 60.655 64 44.8541 64 29.0798C64.0535 28.9996 64.1069 28.9194 64.1337 28.8392C64.7219 26.2993 66.2993 24.7486 68.8392 24.1337C68.9194 24.1069 68.9996 24.0535 69.0798 24C88.0624 24 107.045 24 126.027 24C126.134 24.0535 126.241 24.1069 126.348 24.1337C128.728 24.6684 130.279 26.0854 131 28.4382C131.214 29.1066 131.241 29.775 131.241 30.4434C131.241 40.3892 131.241 50.3082 131.241 60.254C131.241 60.6818 131.321 61.0026 131.589 61.3502C133.834 64.2911 135.251 67.5797 135.786 71.2425C135.84 71.7505 135.92 72.2852 136 72.7932ZM128.808 58.2488C128.808 57.9814 128.808 57.7675 128.808 57.5269C128.808 49.8537 128.808 42.2072 128.808 34.534C128.808 33.4645 128.968 33.5982 127.899 33.5982C107.687 33.5982 87.5009 33.5982 67.2885 33.5982C66.2726 33.5982 66.4062 33.4378 66.4062 34.4805C66.4062 48.0089 66.4062 61.5106 66.4062 75.039C66.4062 75.2796 66.4062 75.5202 66.4062 75.7341C66.4597 77.2046 67.3955 78.5147 68.8125 78.9692C69.3739 79.1563 70.0156 79.2098 70.6038 79.2098C77.9027 79.2365 85.2284 79.2098 92.5273 79.2098C92.6877 79.2098 92.8481 79.2098 93.0085 79.2098C93.1957 79.2098 93.3026 79.1563 93.2759 78.9157C93.1155 77.9265 92.9818 76.9372 92.8481 75.9213C92.8214 75.6807 92.7412 75.5737 92.5006 75.6004C92.3134 75.6004 92.1263 75.6004 91.9391 75.6004C86.0037 75.6004 80.0683 75.6004 74.1597 75.6004C73.9458 75.6004 73.7319 75.6004 73.518 75.6004C72.3951 75.547 71.5128 74.8251 71.2455 73.7289C71.1652 73.3814 71.1652 73.0338 71.1652 72.6862C71.1652 62.7939 71.1652 52.9016 71.1652 43.0093C71.1652 41.218 71.1652 39.3999 71.1652 37.6086C71.1652 37.3413 71.192 37.0472 71.2722 36.7798C71.4326 36.2718 71.9673 35.951 72.4753 36.0045C73.0368 36.0579 73.4913 36.4857 73.5447 37.0472C73.5715 37.3145 73.5715 37.5551 73.5715 37.8225C73.5715 49.3724 73.5715 60.9224 73.5715 72.4723C73.5715 73.2477 73.4913 73.1942 74.2666 73.1942C74.3468 73.1942 74.4003 73.1942 74.4805 73.1942C80.2822 73.1942 86.1107 73.1942 91.9124 73.1942C92.8481 73.1942 92.8481 73.1942 92.9283 72.2584C93.1957 69.1571 94.1582 66.2696 95.7089 63.5693C95.9762 63.1147 96.2703 62.6602 96.5377 62.179C96.4842 62.1255 96.4307 62.072 96.3773 62.0453C95.5217 61.5106 95.1474 60.7352 95.2009 59.7193C95.2276 59.0241 95.2009 58.3023 95.2009 57.6071C95.2276 56.404 95.9228 55.495 97.0724 55.2009C97.5804 55.0672 97.5804 55.0672 97.5804 54.6127C97.5804 53.2224 97.5804 51.8589 97.5804 50.4686C97.5804 49.72 98.0884 49.1586 98.7568 49.1586C99.4252 49.1586 99.9332 49.6933 99.9599 50.4419C99.9866 50.9499 99.9599 51.4846 99.9599 51.9926C99.9599 52.9283 99.9599 53.8641 99.9599 54.7999C99.9599 55.0137 99.9866 55.1474 100.254 55.1742C101.029 55.2811 101.618 55.6554 102.019 56.3238C102.126 56.511 102.259 56.4842 102.42 56.404C103.115 55.9762 103.837 55.5752 104.532 55.1742C104.933 54.9335 104.933 54.9603 104.853 54.479C104.799 54.2384 104.772 54.0245 104.772 53.7839C104.772 53.1155 104.799 52.4738 104.772 51.8054C104.719 50.7092 105.361 49.4794 106.778 49.212C107.179 49.1318 107.205 48.9447 107.179 48.6238C107.179 47.4475 107.179 46.2711 107.179 45.1214C107.179 44.8273 107.152 44.56 107.205 44.2659C107.286 43.5975 107.74 43.1964 108.382 43.1697C109.077 43.143 109.558 43.5975 109.585 44.3461C109.612 45.2284 109.585 46.1374 109.585 47.0197C109.585 47.6079 109.585 48.1961 109.585 48.7843C109.585 48.9981 109.638 49.1586 109.879 49.1586C109.959 49.1586 110.066 49.212 110.146 49.2388C111.242 49.4527 112.018 50.5221 111.964 51.5113C111.964 51.8054 111.964 52.1263 111.964 52.4203C111.964 52.9016 111.991 52.9016 112.446 52.8481C113.729 52.7144 115.012 52.7144 116.296 52.8481C116.75 52.9016 116.75 52.9016 116.777 52.4203C116.804 52.046 116.777 51.6717 116.857 51.2974C116.964 50.7092 117.418 50.3617 118.007 50.3884C118.595 50.3884 119.023 50.7627 119.156 51.3242C119.21 51.5648 119.21 51.7787 119.21 52.0193C119.21 52.3134 119.237 52.6342 119.21 52.9283C119.183 53.2224 119.317 53.3561 119.584 53.4096C119.691 53.4363 119.798 53.4631 119.932 53.4898C121.99 54.0512 123.969 54.8533 125.76 56.0297C126.803 56.7516 127.765 57.5002 128.808 58.2488ZM125.947 71.5366C125.974 71.4564 126.001 71.4029 126.001 71.3762C124.557 65.8418 119.343 61.9384 113.328 62.4463C110.12 62.7404 107.392 64.104 105.307 66.5904C102.821 69.5314 101.938 72.9536 102.633 76.7501C102.954 78.4612 103.649 80.0119 104.665 81.4022C105.735 82.8726 105.601 84.9848 104.184 86.3216C103.462 87.0167 102.74 87.7386 102.045 88.4605C101.724 88.7813 101.724 88.808 102.099 89.1021C105.468 91.9094 109.344 93.4066 113.729 93.5938C115.895 93.7007 118.033 93.3799 120.092 92.7382C122.552 91.9629 124.771 90.7597 126.749 89.0754C127.07 88.808 127.07 88.7813 126.776 88.4872C126.108 87.8188 125.439 87.1771 124.798 86.482C124.45 86.1344 124.102 85.7601 123.889 85.3323C123.193 84.0223 123.3 82.7122 124.102 81.4824C124.504 80.8407 124.905 80.2258 125.225 79.5574C125.519 78.9424 125.733 78.2473 125.974 77.6056C126.054 77.3918 125.974 77.2848 125.733 77.3383C125.626 77.365 125.519 77.4185 125.386 77.4452C121.883 78.3008 118.328 78.9424 114.745 79.1831C112.847 79.3167 111.349 78.5681 110.36 76.964C109.371 75.3598 109.317 73.6755 110.28 72.0446C111.216 70.4137 112.713 69.6116 114.584 69.6383C115.28 69.6383 115.975 69.772 116.67 69.8522C119.13 70.0928 121.536 70.5206 123.915 71.0821C124.61 71.2157 125.279 71.3762 125.947 71.5366ZM97.5537 31.192C107.687 31.192 117.793 31.192 127.926 31.192C128.14 31.192 128.354 31.2187 128.567 31.1652C128.674 31.1385 128.808 31.0048 128.808 30.9246C128.835 30.5236 128.835 30.1225 128.808 29.7215C128.648 28.0371 127.471 26.7538 125.814 26.4597C125.466 26.4062 125.118 26.4062 124.771 26.4062C106.671 26.4062 88.5971 26.4062 70.4968 26.4062C70.283 26.4062 70.0691 26.4062 69.8552 26.4062C68.4649 26.5132 67.4222 27.1816 66.7805 28.4382C66.4597 29.0264 66.3795 29.668 66.4062 30.3364C66.433 31.3257 66.2726 31.192 67.2618 31.192C77.368 31.192 87.4475 31.192 97.5537 31.192ZM105.093 63.3821C110.333 59.0509 118.06 58.73 123.728 63.3821C124.744 62.3661 125.733 61.3769 126.749 60.3609C127.07 60.0401 127.07 60.0134 126.723 59.7193C123.541 57.0457 119.878 55.5485 115.734 55.2544C112.152 54.987 108.756 55.7089 105.574 57.3665C104.345 58.0082 103.195 58.7835 102.152 59.6658C101.751 60.0134 101.751 60.0134 102.126 60.4144C102.527 60.8422 102.954 61.2432 103.355 61.6443C103.944 62.2325 104.532 62.8206 105.093 63.3821Z" fill="#515151"/>
<path d="M89.1318 37.475C89.7734 37.4482 90.2814 37.7156 90.7627 38.0632C92.8213 39.6138 94.88 41.1645 96.9387 42.7152C97.4199 43.0628 97.8745 43.4371 98.3557 43.7579C98.73 44.0253 98.7567 44.052 99.131 43.7044C100.013 42.9291 100.896 42.1538 101.778 41.4052C103.409 39.9881 105.013 38.5711 106.644 37.1541C107.179 36.6729 107.767 36.3521 108.542 36.3521C109.13 36.3788 109.638 36.5927 110.093 36.9402C111.75 38.1968 113.435 39.4534 115.092 40.6833C115.948 41.3249 116.777 41.9399 117.632 42.5815C118.167 42.9826 118.06 42.9291 118.595 42.5815C119.317 42.1003 120.039 41.5923 120.76 41.1378C120.974 41.0041 121.215 40.8704 121.456 40.817C121.964 40.71 122.445 40.9506 122.685 41.4052C122.926 41.8329 122.873 42.3409 122.552 42.7152C122.418 42.8756 122.231 43.0093 122.071 43.1163C121.268 43.6777 120.44 44.2392 119.638 44.7739C118.488 45.5225 117.579 45.4958 116.456 44.6669C113.97 42.8222 111.51 40.9506 109.05 39.1059C108.515 38.7048 108.515 38.7048 108.034 39.1326C105.628 41.2447 103.248 43.3301 100.842 45.4423C100.815 45.469 100.762 45.4958 100.735 45.5225C99.5321 46.6721 98.2488 46.6454 96.9654 45.6562C94.5592 43.7847 92.0995 41.9933 89.6665 40.1753C89.1585 39.801 89.2655 39.7743 88.704 40.1218C85.2551 42.2072 81.8061 44.2659 78.3572 46.3246C78.1433 46.4315 77.9561 46.5652 77.7423 46.6721C77.1541 46.9128 76.5124 46.6989 76.2183 46.1642C75.9242 45.6294 76.0579 45.0412 76.5391 44.6402C76.6728 44.5333 76.86 44.4263 77.0204 44.3461C80.5763 42.2072 84.1322 40.0684 87.6613 37.9295C88.0623 37.6621 88.5703 37.4215 89.1318 37.475Z" fill="#515151"/>
<path d="M80.7902 55.0404C80.7902 55.7356 80.7902 56.4574 80.7902 57.1526C80.7902 57.4467 80.8436 57.5804 81.1912 57.6606C82.3943 57.9279 83.0895 58.6498 83.1697 59.8797C83.2499 60.8154 83.2231 61.7512 83.1429 62.6869C83.036 63.7831 82.3409 64.505 81.2714 64.7991C80.7902 64.9328 80.7634 64.9328 80.7634 65.414C80.7634 66.6706 80.7634 67.9539 80.7634 69.2105C80.7634 69.4244 80.7634 69.6383 80.7367 69.8522C80.6565 70.4136 80.202 70.8147 79.6405 70.8682C79.1325 70.8949 78.6246 70.5473 78.4641 70.0393C78.3839 69.772 78.3572 69.4779 78.3572 69.2105C78.3572 67.9807 78.3572 66.7241 78.3572 65.4942C78.3572 64.9595 78.3572 64.9595 77.8492 64.8258C76.7263 64.5317 76.0312 63.6762 75.9777 62.4998C75.951 61.6977 75.951 60.8956 75.9777 60.1203C76.0312 58.8637 76.7263 58.0081 77.9829 57.7408C78.3305 57.6606 78.3839 57.5269 78.3839 57.2328C78.3839 55.9495 78.3839 54.6661 78.3839 53.3828C78.3839 53.1154 78.4107 52.8214 78.4641 52.554C78.5978 52.0193 79.1593 51.645 79.694 51.6984C80.2555 51.7519 80.71 52.1797 80.7634 52.7411C80.7902 53.4363 80.7634 54.2384 80.7902 55.0404Z" fill="#515151"/>
<path d="M88.0088 61.4037C88.0088 60.6818 88.0088 59.9599 88.0088 59.2381C88.0088 58.944 87.9019 58.837 87.6078 58.7835C86.271 58.4894 85.6026 57.6874 85.6026 56.3238C85.6026 55.5752 85.6026 54.8266 85.6026 54.078C85.5759 52.8214 86.5384 51.8857 87.5008 51.6985C88.0088 51.6183 88.0088 51.5648 88.0088 51.0568C88.0088 49.8003 88.0088 48.5169 88.0088 47.2603C88.0088 47.0732 88.0088 46.886 88.0356 46.6989C88.089 46.1374 88.4901 45.7364 89.0248 45.6829C89.6397 45.6027 90.121 45.8701 90.3081 46.4315C90.3883 46.6721 90.4151 46.9395 90.4151 47.1801C90.4151 48.4902 90.4151 49.8003 90.4151 51.1103C90.4151 51.5916 90.4151 51.5916 90.8963 51.6985C92.1262 52.0193 92.7946 52.8749 92.8213 54.1315C92.8213 54.8534 92.8213 55.5752 92.8213 56.2971C92.848 57.527 91.9658 58.6231 90.7894 58.7568C90.4685 58.7835 90.4418 58.9707 90.4418 59.2381C90.4418 60.5481 90.4418 61.8582 90.4418 63.1682C90.4418 63.4089 90.4418 63.6495 90.3883 63.8634C90.2279 64.505 89.7199 64.8526 89.0783 64.7991C88.4901 64.7457 88.0623 64.2912 88.0623 63.6495C88.0088 62.9009 88.0356 62.1523 88.0088 61.4037C88.0356 61.4037 88.0356 61.4037 88.0088 61.4037Z" fill="#515151"/>
<path d="M79.6138 59.9866V60.0133C79.3197 60.0133 78.9988 60.0133 78.7047 60.0133C78.4909 60.0133 78.4106 60.0935 78.4106 60.3074C78.4106 60.9223 78.4106 61.5105 78.4106 62.1254C78.4106 62.2324 78.5443 62.3928 78.6513 62.3928C79.2929 62.4195 79.9079 62.3928 80.5495 62.3928C80.7099 62.3928 80.8169 62.3126 80.8169 62.1254C80.8169 61.8314 80.8436 61.5105 80.8169 61.2164C80.7901 60.8154 80.7634 60.4411 80.7367 60.04C80.3356 60.04 79.9613 60.0133 79.6138 59.9866Z" fill="#FFDA2F"/>
<path d="M90.4152 55.2009C90.4152 54.9336 90.4152 54.6395 90.4152 54.3721C90.4152 54.1047 90.3082 53.9978 90.0408 53.9978C89.4794 53.9978 88.9179 53.9978 88.3565 53.9978C88.0624 53.9978 88.0089 54.1315 88.0089 54.3721C88.0089 54.9336 88.0089 55.495 88.0089 56.0565C88.0089 56.2971 88.0891 56.404 88.3297 56.404C88.9179 56.404 89.5061 56.404 90.0676 56.404C90.3082 56.404 90.3884 56.2971 90.3884 56.0565C90.4152 55.7624 90.4152 55.495 90.4152 55.2009Z" fill="#FFDA2F"/>
<path d="M97.5803 58.8103C97.6071 58.8103 97.6071 58.8103 97.5803 58.8103C97.6071 59.1044 97.6071 59.4253 97.6071 59.7194C97.6071 59.9332 97.6873 60.0135 97.9012 60.0135C98.1953 60.0135 98.4626 59.9867 98.6498 59.7194C98.7834 59.5589 98.9171 59.3985 99.0775 59.2648C99.3182 59.0242 99.5855 58.7836 99.8529 58.543C100.12 58.3291 100.067 58.035 100.013 57.7676C99.9331 57.5003 99.6657 57.6339 99.4786 57.6072C99.2647 57.5805 99.0508 57.5805 98.8637 57.6072C98.4893 57.6339 98.0883 57.6607 97.714 57.6874C97.6338 58.0617 97.6071 58.436 97.5803 58.8103Z" fill="#FFDA2F"/>
<path d="M108.408 51.5915C108.114 51.5915 107.794 51.5915 107.499 51.5915C107.312 51.5915 107.205 51.6717 107.205 51.8856C107.205 52.5005 107.205 53.0887 107.205 53.7036C107.205 53.971 107.366 54.0244 107.58 53.9442C107.874 53.864 108.168 53.7571 108.435 53.6769C108.809 53.5432 109.184 53.4363 109.558 53.3026C109.585 52.8748 109.585 52.4738 109.612 52.046C109.612 51.9658 109.638 51.8856 109.612 51.8321C109.531 51.7252 109.451 51.5915 109.344 51.5915C109.023 51.5647 108.703 51.5915 108.408 51.5915Z" fill="#FFDA2F"/>
<path d="M127.338 74.4509C127.338 74.4242 127.338 74.3974 127.338 74.344C126.429 74.1301 125.519 73.9162 124.61 73.7023C121.857 73.0606 119.076 72.4992 116.269 72.1249C115.681 72.0447 115.092 71.9912 114.531 71.9912C112.82 71.9912 111.67 73.4617 112.098 75.0391C112.312 75.8679 113.114 76.7769 114.397 76.7769C115.681 76.7769 116.964 76.6165 118.221 76.3759C120.466 75.9481 122.712 75.4936 124.958 75.0124C125.76 74.852 126.535 74.6381 127.338 74.4509Z" fill="#F56565"/>
<path d="M133.621 74.1834C133.594 73.8091 133.54 73.1942 133.487 72.5525C133.273 69.9324 132.471 67.4727 131.214 65.1734C130.599 64.0505 129.851 62.981 129.022 61.9918C128.835 61.7779 128.701 61.7512 128.514 61.9651C128.327 62.1789 128.113 62.3661 127.926 62.5532C127.177 63.3019 126.455 64.0505 125.68 64.7723C125.439 65.013 125.439 65.2001 125.653 65.414C125.68 65.4407 125.707 65.4942 125.733 65.5209C126.99 67.1251 127.846 68.9431 128.354 70.8949C128.46 71.2692 128.407 71.7772 128.648 72.0178C128.888 72.2851 129.396 72.3119 129.797 72.4456C130.653 72.7397 131.214 73.515 131.214 74.3438C131.214 75.1994 130.653 75.948 129.797 76.2421C129.53 76.3223 129.263 76.4025 128.995 76.456C128.701 76.5094 128.567 76.6431 128.514 76.9639C128.247 78.4612 127.765 79.9049 127.017 81.2417C126.723 81.7764 126.375 82.2844 126.054 82.7924C125.707 83.3538 125.733 83.942 126.188 84.3965C126.963 85.1986 127.765 86.0007 128.567 86.8028C128.755 86.9899 128.888 86.9365 129.022 86.7493C129.129 86.5889 129.263 86.4552 129.396 86.3215C132.15 82.8993 133.54 78.9157 133.621 74.1834Z" fill="#FFDA2F"/>
<path d="M95.201 74.3439C95.1742 75.9748 95.3881 77.5789 95.7892 79.1296C96.511 81.9636 97.8211 84.5035 99.7194 86.7226C100.013 87.0435 100.013 87.0702 100.308 86.7761C101.056 86.0275 101.805 85.2789 102.553 84.5303C102.847 84.2362 103.061 83.8886 102.954 83.4608C102.874 83.1667 102.741 82.8459 102.553 82.5786C100.521 79.5574 99.6926 76.2689 100.12 72.6595C100.441 70.0661 101.377 67.7401 102.954 65.6547C103.061 65.521 103.142 65.3873 103.248 65.2536C103.382 65.12 103.329 65.013 103.222 64.9061C102.233 63.9168 101.243 62.9276 100.254 61.9116C100.067 61.7245 99.9332 61.7512 99.7996 61.9384C99.7193 62.0186 99.6391 62.1255 99.5857 62.2057C96.6982 65.7884 95.2812 69.8255 95.201 74.3439Z" fill="#FFDA2F"/>
</svg>
