<svg width="64" height="64" viewBox="0 0 64 64" fill="none" xmlns="http://www.w3.org/2000/svg">
<path d="M28.1308 26.4927C22.9604 26.4927 18.7539 30.6992 18.7539 35.8696C18.7539 41.0395 22.9604 45.2461 28.1308 45.2461C33.3007 45.2461 37.5073 41.0395 37.5073 35.8696C37.5073 35.4272 37.4365 35.0044 37.3769 34.5786L32.1064 39.8491L32.1049 39.8477C31.0864 40.8652 29.6806 41.4956 28.1303 41.4956C25.0283 41.4956 22.5044 38.9717 22.5044 35.8696C22.5044 34.3193 23.1347 32.9136 24.1523 31.895L24.1508 31.8936L29.4213 26.623C28.9956 26.5635 28.5727 26.4927 28.1308 26.4927Z" fill="white"/>
<path d="M35.3618 20.6822C33.1616 19.6294 30.7285 18.9912 28.1308 18.9912C18.8232 18.9912 11.2524 26.562 11.2524 35.8697C11.2524 45.1768 18.8232 52.7476 28.1308 52.7476C37.4379 52.7476 45.0092 45.1768 45.0092 35.8697C45.0092 33.2715 44.3705 30.8384 43.3178 28.6382L40.454 31.502C40.9428 32.875 41.2582 34.3306 41.2582 35.8697C41.2582 43.1075 35.3681 48.9971 28.1303 48.9971C20.8926 48.9971 15.0029 43.1075 15.0029 35.8697C15.0029 28.6319 20.8926 22.7417 28.1303 22.7417C29.6694 22.7417 31.125 23.0572 32.498 23.5459L35.3618 20.6822Z" fill="white"/>
<path d="M28.1308 64C43.6669 64 56.2611 51.4058 56.2611 35.8696C56.2611 31.1255 55.0756 26.6626 53.0014 22.7417H49.2138L46.1322 25.8237C47.7992 28.7993 48.7597 32.2227 48.7597 35.8696C48.7597 47.2441 39.5053 56.4985 28.1308 56.4985C16.7558 56.4985 7.50145 47.2441 7.50145 35.8696C7.50145 24.4946 16.7558 15.2402 28.1308 15.2402C31.7773 15.2402 35.2006 16.2007 38.1762 17.8677L41.2582 14.7861V10.9985C37.3373 8.9248 32.8744 7.73877 28.1308 7.73877C12.5942 7.73877 0 20.3335 0 35.8696C0 51.4058 12.5942 64 28.1308 64Z" fill="white"/>
<path d="M33.1928 33.459L47.6611 18.9912H52.0434L63.9999 7.73877H56.2611V0L45.0092 11.9565V16.3394L30.541 30.8071C31.7016 31.3623 32.6377 32.2983 33.1928 33.459Z" fill="white"/>
<path d="M30.0058 35.8696C30.0058 36.9052 29.1664 37.7446 28.1308 37.7446C27.0947 37.7446 26.2553 36.9052 26.2553 35.8696C26.2553 34.8335 27.0947 33.9941 28.1308 33.9941C29.1664 33.9941 30.0058 34.8335 30.0058 35.8696Z" fill="white"/>
</svg>
