<svg width="32" height="32" viewBox="0 0 32 32" fill="none" xmlns="http://www.w3.org/2000/svg">
<path d="M18.5373 10.0257C17.3046 9.73929 16.0226 9.73929 14.7899 10.0257C14.078 9.58908 13.5344 9.3884 13.1391 9.30369C12.9704 9.26561 12.7978 9.24767 12.6248 9.25024C12.5461 9.25237 12.4678 9.26183 12.3909 9.27848L12.3808 9.28049L12.3767 9.28251H12.3737L12.5119 9.76757L12.3737 9.28352C12.3029 9.30354 12.2373 9.33883 12.1815 9.38692C12.1258 9.435 12.0812 9.49471 12.051 9.56185C11.7535 10.2281 11.6968 10.9771 11.8907 11.6806C11.3886 12.289 11.115 13.0538 11.1172 13.8427C11.1172 15.4088 11.5791 16.4616 12.3667 17.1382C12.9183 17.6122 13.5879 17.8643 14.2595 18.0085C14.1486 18.3161 14.1203 18.6418 14.1425 18.9746V19.5776C13.7321 19.6633 13.4477 19.6361 13.245 19.5696C12.9919 19.4859 12.7973 19.3175 12.6107 19.0754C12.5132 18.945 12.4223 18.8097 12.3384 18.67L12.2809 18.5763C12.2084 18.4556 12.133 18.3365 12.0551 18.2193C11.8635 17.9359 11.5791 17.5809 11.1192 17.4599L10.6311 17.3318L10.375 18.308L10.8631 18.4361C10.9438 18.4562 11.0486 18.5319 11.2211 18.785C11.2846 18.8788 11.3441 18.9766 11.4127 19.0895L11.4813 19.2005C11.576 19.3538 11.685 19.5232 11.811 19.6886C12.0661 20.0213 12.4141 20.3571 12.9304 20.5276C13.2833 20.6446 13.6847 20.6728 14.1425 20.6022V22.4849C14.1425 22.6187 14.1956 22.7469 14.2902 22.8415C14.3848 22.936 14.513 22.9892 14.6467 22.9892H18.6805C18.8142 22.9892 18.9425 22.936 19.037 22.8415C19.1316 22.7469 19.1847 22.6187 19.1847 22.4849V18.8919C19.1847 18.5742 19.1706 18.2828 19.0808 18.0115C19.7494 17.8703 20.414 17.6182 20.9626 17.1443C21.7491 16.4626 22.21 15.3997 22.21 13.8245V13.8235C22.2075 13.0411 21.9338 12.2838 21.4355 11.6806C21.6291 10.9774 21.5725 10.2288 21.2752 9.56286C21.2452 9.49564 21.2009 9.4358 21.1453 9.38754C21.0897 9.33929 21.0242 9.30378 20.9535 9.28352L20.8153 9.76757C20.9535 9.28352 20.9525 9.28352 20.9515 9.28352L20.9495 9.28251L20.9454 9.28049L20.9363 9.27848C20.9114 9.272 20.8862 9.26695 20.8607 9.26335C20.8079 9.25564 20.7547 9.25127 20.7014 9.25024C20.5284 9.24769 20.3558 9.26563 20.1871 9.30369C19.7928 9.3884 19.2492 9.58908 18.5373 10.0257Z" fill="#C1CADF"/>
</svg>
