<svg width="40" height="40" viewBox="0 0 56 56" fill="none" xmlns="http://www.w3.org/2000/svg">
    <path d="M27.9781 4.17237C14.4539 4.1669 3.5 15.1153 3.5 28.6286C3.5 39.3146 10.3523 48.3981 19.8953 51.7341C21.1805 52.0567 20.9836 51.1435 20.9836 50.52V46.2817C13.5625 47.1513 13.2617 42.2403 12.7641 41.42C11.7578 39.7028 9.37891 39.2653 10.0898 38.445C11.7797 37.5755 13.5023 38.6638 15.4984 41.6114C16.9422 43.7497 19.7586 43.3888 21.1859 43.0333C21.4977 41.7481 22.1648 40.5997 23.0836 39.7083C15.3945 38.3302 12.1898 33.638 12.1898 28.0599C12.1898 25.3528 13.0813 22.8646 14.8312 20.8575C13.7156 17.5489 14.9352 14.7161 15.0992 14.295C18.2766 14.0106 21.5797 16.57 21.8367 16.7724C23.6414 16.2856 25.7031 16.0286 28.0109 16.0286C30.3297 16.0286 32.3969 16.2966 34.218 16.7888C34.8359 16.3185 37.8984 14.12 40.8516 14.388C41.0102 14.8091 42.2023 17.5763 41.1523 20.8411C42.9242 22.8536 43.8266 25.3638 43.8266 28.0763C43.8266 33.6653 40.6 38.363 32.8891 39.7192C33.5495 40.3688 34.0739 41.1434 34.4317 41.9978C34.7894 42.8523 34.9733 43.7695 34.9727 44.6958V50.8481C35.0164 51.3403 34.9727 51.827 35.793 51.827C45.4781 48.5622 52.4508 39.413 52.4508 28.6341C52.4508 15.1153 41.4914 4.17237 27.9781 4.17237V4.17237Z" fill="#2EA3FF" />
</svg>