<svg width="380" height="380" viewBox="0 0 380 380" fill="none" xmlns="http://www.w3.org/2000/svg">
<rect x="0.5" y="0.5" width="379" height="379" fill="#0065EF" stroke="white"/>
<path d="M198.6 204.4C198.733 209.867 198.133 215.2 196.8 220.4C195.6 225.6 193.8 230.6 191.4 235.4C189 240.067 186 244.467 182.4 248.6C178.933 252.6 174.933 256.133 170.4 259.2C160.933 265.6 150.533 269.267 139.2 270.2C127.867 271 117.067 269 106.8 264.2C101.867 261.8 97.2667 258.867 93 255.4C88.8667 251.8 85.2 247.8 82 243.4C78.9333 239 76.3333 234.267 74.2 229.2C72.2 224 70.9333 218.667 70.4 213.2C70.2667 212.133 70.1333 211.133 70 210.2C70 209.133 70 208.067 70 207V204.4V122.4C70 118.933 71.2 116 73.6 113.6C76 111.2 78.9333 110 82.4 110C85.8667 110 88.8 111.2 91.2 113.6C93.6 116 94.8 118.933 94.8 122.4V155.4V155.2C101.6 150.133 109.067 146.467 117.2 144.2C125.467 141.8 133.867 141.133 142.4 142.2C150.8 143.267 158.733 145.933 166.2 150.2C173.667 154.333 180 159.8 185.2 166.6C189.333 172.067 192.533 178.067 194.8 184.6C197.067 191 198.333 197.6 198.6 204.4ZM166.8 228.6C172.133 221.133 174.467 212.733 173.8 203.4C173.533 198.467 172.333 193.8 170.2 189.4C168.067 184.867 165.267 180.867 161.8 177.4C160.067 175.8 158.2 174.4 156.2 173.2C154.333 172 152.333 170.867 150.2 169.8C145.133 167.533 139.867 166.4 134.4 166.4C128.933 166.4 123.667 167.467 118.6 169.6C113.533 171.867 109.133 175 105.4 179C101.667 183 98.8667 187.533 97 192.6C94.6 199.4 94.0667 206.333 95.4 213.4C96.8667 220.467 99.9333 226.733 104.6 232.2C108.2 236.467 112.467 239.667 117.4 241.8C118.6 242.467 119.8 243.067 121 243.6C122.333 244.133 123.667 244.667 125 245.2C123.933 244.8 122.867 244.4 121.8 244C120.733 243.467 119.667 242.933 118.6 242.4C127 246.133 135.667 246.733 144.6 244.2C149.133 243 153.267 241.067 157 238.4C160.867 235.733 164.133 232.467 166.8 228.6Z" fill="white"/>
<path d="M242 185.719C242 180.904 236.851 177 230.5 177C224.149 177 219 180.904 219 185.719V261.281C219 266.096 224.149 270 230.5 270C236.851 270 242 266.096 242 261.281V185.719Z" fill="white"/>
<path d="M230.5 165C236.851 165 242 159.851 242 153.5C242 147.149 236.851 142 230.5 142C224.149 142 219 147.149 219 153.5C219 159.851 224.149 165 230.5 165Z" fill="white"/>
<path d="M289 151.6C289 146.298 284.299 142 278.5 142C272.701 142 268 146.298 268 151.6V260.4C268 265.702 272.701 270 278.5 270C284.299 270 289 265.702 289 260.4V151.6Z" fill="white"/>
<path d="M297 177.2H261C254.373 177.2 249 181.901 249 187.7C249 193.499 254.373 198.2 261 198.2H297C303.627 198.2 309 193.499 309 187.7C309 181.901 303.627 177.2 297 177.2Z" fill="white"/>
</svg>
