<svg width="602" height="482" viewBox="0 0 602 482" fill="none" xmlns="http://www.w3.org/2000/svg">
<g clip-path="url(#clip0)">
<path d="M389.319 179.842L300.194 207.448L344.757 234.822L405.21 195.089L389.319 179.842Z" fill="#333333"/>
<path d="M282.116 355.41L266.11 263.237L310.673 290.611L302.842 362.687L282.116 355.41Z" fill="#333333"/>
<path d="M380.453 339.817C362.72 328.959 357.193 305.627 368.017 287.839C378.841 270.051 402.101 264.507 419.834 275.365C430.773 282.064 433.767 291.882 438.373 302.97C447.7 325.032 463.13 344.321 483.166 357.373C483.166 357.373 502.857 370.31 496.523 366.96C502.281 371.119 481.899 359.337 481.899 359.337C466.469 350.443 448.967 345.13 431.234 343.859C414.192 342.704 395.998 349.404 380.453 339.817Z" fill="#F45F38"/>
<path d="M387.362 328.613C375.847 321.451 372.162 306.32 379.302 294.77C386.441 283.219 401.525 279.523 413.04 286.684C424.555 293.846 436.761 325.841 434.803 328.959C433.306 331.385 398.877 335.774 387.362 328.613Z" fill="white"/>
<path d="M385.635 317.178C378.265 312.673 375.962 302.971 380.453 295.463C384.944 288.07 394.616 285.76 402.101 290.265C409.471 294.77 417.301 315.33 416.034 317.293C414.998 318.91 393.004 321.682 385.635 317.178Z" fill="#F45F38"/>
<path d="M218.784 135.95L152.227 88.708C150.385 87.3219 148.427 86.1669 146.47 85.2428C122.979 74.1543 38.1144 50.4757 22.6844 75.7714C7.25446 101.067 66.0957 167.021 87.2832 182.152C97.0708 189.198 320.691 305.858 320.691 305.858L362.259 237.71L245.383 154.777" fill="white"/>
<path d="M218.784 135.95L152.227 88.708C150.385 87.3219 148.427 86.1669 146.47 85.2428C122.979 74.1543 38.1144 50.4757 22.6844 75.7714C7.25446 101.067 66.0957 167.021 87.2832 182.152C97.0708 189.198 320.691 305.858 320.691 305.858L362.259 237.71L245.383 154.777" stroke="#333333" stroke-miterlimit="10" stroke-linecap="round" stroke-linejoin="round"/>
<path d="M22.5692 75.7714C22.6844 75.5404 22.7996 75.4249 22.9147 75.1938C26.5995 85.4738 35.2357 106.265 49.6293 121.28C69.435 142.071 91.8891 163.671 105.477 171.872C118.604 179.726 316.43 287.031 328.175 293.383L320.575 305.743C320.575 305.743 96.9556 189.082 87.168 182.036C66.0956 166.905 7.13922 100.952 22.5692 75.7714Z" fill="#1C5BFF"/>
<path d="M359.956 315.907L389.204 267.972L362.259 237.594L320.691 305.743L359.956 315.907Z" fill="#333333" stroke="#333333" stroke-miterlimit="10"/>
<path d="M379.417 263.814L384.368 268.781" stroke="white" stroke-miterlimit="10" stroke-linecap="round"/>
<path d="M361.914 246.257L375.617 260.002" stroke="white" stroke-miterlimit="10" stroke-linecap="round"/>
<path d="M223.044 227.661C234.444 234.707 249.413 231.126 256.437 219.576C263.461 208.141 259.892 193.125 248.377 186.079C236.977 179.033 222.008 182.614 214.984 194.164C208.075 205.599 211.644 220.615 223.044 227.661Z" fill="#333333"/>
<path d="M226.268 222.348C234.789 227.545 245.959 224.889 251.256 216.341C256.437 207.794 253.789 196.59 245.268 191.277C236.747 186.079 225.577 188.736 220.28 197.283C214.984 205.83 217.747 217.15 226.268 222.348Z" fill="white" stroke="#333333" stroke-miterlimit="10" stroke-linecap="round" stroke-linejoin="round"/>
<path d="M226.268 222.348C217.747 217.15 214.984 205.83 220.28 197.283C221.202 195.666 222.468 194.28 223.735 193.125C234.559 202.134 242.619 215.186 246.304 221.655C240.547 225.813 232.717 226.275 226.268 222.348Z" fill="#1C5BFF"/>
<path d="M174.221 200.171C185.621 207.216 200.59 203.636 207.614 192.085C214.638 180.65 211.069 165.634 199.554 158.589C188.154 151.543 173.184 155.123 166.16 166.674C159.136 178.109 162.706 193.125 174.221 200.171Z" fill="#333333"/>
<path d="M206.002 167.136C206.578 167.945 207.038 168.869 207.384 169.677" stroke="white" stroke-miterlimit="10" stroke-linecap="round"/>
<path d="M202.663 163.209C202.663 163.209 203.238 163.671 204.044 164.595" stroke="white" stroke-miterlimit="10" stroke-linecap="round"/>
<path d="M183.083 197.233C173.258 195.122 167 185.421 169.105 175.565C171.21 165.71 180.881 159.433 190.706 161.544C200.531 163.656 206.79 173.357 204.685 183.212C202.579 193.067 192.908 199.345 183.083 197.233Z" fill="white" stroke="#333333" stroke-miterlimit="10" stroke-linecap="round" stroke-linejoin="round"/>
<path d="M177.445 194.857C168.924 189.659 166.16 178.34 171.457 169.792C172.378 168.175 173.645 166.789 174.912 165.634C185.736 174.644 193.796 187.696 197.481 194.164C191.723 198.322 183.778 198.9 177.445 194.857Z" fill="#1C5BFF"/>
<path d="M125.282 172.68C136.682 179.726 151.652 176.145 158.676 164.595C165.7 153.16 162.13 138.144 150.615 131.098C139.215 124.053 124.246 127.633 117.222 139.184C110.198 150.619 113.767 165.634 125.282 172.68Z" fill="#333333"/>
<path d="M156.488 138.953C157.064 139.761 157.524 140.685 157.87 141.494" stroke="white" stroke-miterlimit="10" stroke-linecap="round"/>
<path d="M153.033 135.025C153.033 135.025 153.609 135.487 154.415 136.411" stroke="white" stroke-miterlimit="10" stroke-linecap="round"/>
<path d="M128.506 167.483C137.028 172.68 148.197 170.024 153.494 161.476C158.676 152.929 156.027 141.725 147.506 136.412C138.985 131.214 127.816 133.87 122.519 142.418C117.222 150.965 119.985 162.169 128.506 167.483Z" fill="white" stroke="#333333" stroke-miterlimit="10" stroke-linecap="round" stroke-linejoin="round"/>
<path d="M128.507 167.483C119.985 162.285 117.222 150.965 122.519 142.418C123.44 140.801 124.707 139.415 125.973 138.26C136.797 147.269 144.858 160.321 148.542 166.79C142.785 170.832 134.84 171.41 128.507 167.483Z" fill="#1C5BFF"/>
<path d="M86.7074 67.686L44.5628 136.643C26.8298 113.773 12.8967 88.3614 21.0723 74.8473C29.4782 61.3332 58.3807 62.2572 86.7074 67.686Z" fill="#333333"/>
<path d="M71.047 70.2271C60.7988 69.072 43.1809 68.148 29.5934 72.8837" stroke="white" stroke-miterlimit="10" stroke-linecap="round"/>
<path d="M79.453 71.4977C79.453 71.4977 77.8409 71.1512 75.1925 70.8047" stroke="white" stroke-miterlimit="10" stroke-linecap="round"/>
<path d="M298.236 182.498L299.503 183.422" stroke="#333333" stroke-miterlimit="10" stroke-linecap="round" stroke-linejoin="round"/>
<path d="M298.582 182.729L299.503 183.423" stroke="#333333" stroke-miterlimit="10" stroke-linecap="round" stroke-linejoin="round"/>
<path d="M299.158 183.076L299.503 183.422" stroke="#333333" stroke-miterlimit="10" stroke-linecap="round" stroke-linejoin="round"/>
<path d="M295.127 83.2793C293.631 83.7413 292.134 84.8964 290.982 87.091C288.564 91.5957 284.994 92.9817 284.994 92.9817C284.994 92.9817 283.037 92.8662 282.806 93.9058C282.576 94.9453 282.576 94.9453 282.576 94.9453L283.843 96.6779L282.806 98.6415C282.806 98.6415 280.619 103.724 280.734 105.687C280.849 107.651 290.982 111.925 297.2 106.265" fill="white"/>
<path d="M295.127 83.2793C293.631 83.7413 292.134 84.8964 290.982 87.091C288.564 91.5957 284.994 92.9817 284.994 92.9817C284.994 92.9817 283.037 92.8662 282.806 93.9058C282.576 94.9453 282.576 94.9453 282.576 94.9453L283.843 96.6779L282.806 98.6415C282.806 98.6415 280.619 103.724 280.734 105.687C280.849 107.651 290.982 111.925 297.2 106.265" stroke="#333333" stroke-miterlimit="10" stroke-linecap="round" stroke-linejoin="round"/>
<path d="M299.042 102.222C299.042 102.222 302.152 98.1795 303.994 99.681C305.836 101.183 303.764 105.456 301.576 105.572C299.388 105.572 298.467 104.648 298.467 104.648" fill="white"/>
<path d="M299.042 102.222C299.042 102.222 302.152 98.1795 303.994 99.681C305.836 101.183 303.764 105.456 301.576 105.572C299.388 105.572 298.467 104.648 298.467 104.648" stroke="#333333" stroke-miterlimit="10" stroke-linecap="round" stroke-linejoin="round"/>
<path d="M290.291 91.5958C289.831 92.4043 289.831 93.3283 290.176 93.5593C290.521 93.7904 291.212 93.2128 291.673 92.4043C292.134 91.5958 292.134 90.6717 291.788 90.4407C291.443 90.2097 290.752 90.6717 290.291 91.5958Z" fill="#333333"/>
<path d="M282.461 100.721C282.461 100.721 285.455 102.222 286.837 101.183" stroke="#333333" stroke-miterlimit="10" stroke-linecap="round" stroke-linejoin="round"/>
<path d="M289.025 78.1971C289.255 73.2304 294.091 74.963 299.733 75.194C305.376 75.425 306.527 72.6529 312.054 73.6924C317.582 74.6165 318.042 79.5832 318.042 79.5832C318.042 79.5832 317.236 80.9693 315.279 78.0816C314.127 76.349 311.479 76.349 309.636 77.0421C309.982 77.1576 310.327 77.3886 310.673 77.5041C314.012 79.3522 316.315 81.3158 318.042 84.5499C319.424 87.2065 318.848 96.909 322.763 96.7935C327.369 96.678 338.308 87.6686 348.096 88.4771C357.884 89.2856 369.744 98.9881 369.168 111.694C369.168 119.779 363.872 134.679 350.054 138.26C336.236 141.841 330.709 124.977 327.024 121.281C323.339 117.584 318.157 122.32 310.903 120.819C306.988 120.01 305.491 115.967 305.03 112.502C303.879 110.077 304.8 106.265 304.685 102.915C304.57 98.2951 301.346 99.9121 298.927 98.7571C296.509 97.602 299.503 94.2524 299.618 92.4043C299.733 90.5562 297.2 91.9423 294.897 89.4012C292.594 86.86 293.055 84.7809 293.055 84.7809C292.94 84.6654 288.794 83.0484 289.025 78.1971Z" fill="#333333"/>
<path d="M289.831 109.384C289.831 109.384 290.061 111.232 289.946 113.773C289.831 116.198 302.267 112.618 302.267 112.618L302.497 106.958" stroke="#333333" stroke-miterlimit="10" stroke-linecap="round" stroke-linejoin="round"/>
<path d="M306.642 115.621L285.685 119.895L287.643 114.697L302.151 112.618" fill="white"/>
<path d="M306.642 115.621L285.685 119.895L287.643 114.697L302.151 112.618" stroke="#333333" stroke-miterlimit="10" stroke-linecap="round" stroke-linejoin="round"/>
<path d="M264.037 208.025L270.946 216.919L268.183 219.691L265.649 219.807L262.54 224.889C262.54 224.889 255.746 233.436 255.171 230.549C254.595 227.777 259.777 218.305 259.777 218.305L258.74 213.8L264.037 208.025Z" fill="#333333"/>
<path d="M289.025 166.79C289.025 166.79 270.946 142.996 262.771 142.303C254.595 141.61 252.062 148.655 252.062 148.655" fill="white"/>
<path d="M289.025 166.79C289.025 166.79 270.946 142.996 262.771 142.303C254.595 141.61 252.062 148.655 252.062 148.655" stroke="#333333" stroke-miterlimit="10"/>
<path d="M313.206 184.577C313.206 184.577 310.557 196.244 304.8 199.593C299.043 202.827 292.709 203.636 283.843 199.016C274.976 194.395 254.825 169.562 254.825 169.562C254.825 169.562 263.461 207.217 264.037 209.065L258.395 213.916C258.395 213.916 237.323 168.753 236.286 160.668C235.25 152.467 244.807 145.306 248.953 147.038C274.861 157.434 285.8 171.294 285.8 171.294" fill="white"/>
<path d="M313.206 184.577C313.206 184.577 310.557 196.244 304.8 199.593C299.043 202.827 292.709 203.636 283.843 199.016C274.976 194.395 254.825 169.562 254.825 169.562C254.825 169.562 263.461 207.217 264.037 209.065L258.395 213.916C258.395 213.916 237.323 168.753 236.286 160.668C235.25 152.467 244.807 145.306 248.953 147.038C274.861 157.434 285.8 171.294 285.8 171.294" stroke="#333333" stroke-miterlimit="10"/>
<path d="M289.025 119.433C289.025 119.433 282.922 133.524 282.346 137.452C281.77 141.263 289.025 151.197 289.6 153.969C290.176 156.856 289.37 166.328 287.528 168.638C285.685 171.064 286.031 174.76 286.031 174.76C286.031 174.76 286.261 180.535 297.661 183.885C309.061 187.234 313.782 183.307 313.782 183.307C313.782 183.307 324.49 133.062 306.412 117.007" fill="#1C5BFF"/>
<path d="M289.025 119.433C289.025 119.433 282.922 133.524 282.346 137.452C281.77 141.263 289.025 151.197 289.6 153.969C290.176 156.856 289.37 166.328 287.528 168.638C285.685 171.064 286.031 174.76 286.031 174.76C286.031 174.76 286.261 180.535 297.661 183.885C309.061 187.234 313.782 183.307 313.782 183.307C313.782 183.307 324.49 133.062 306.412 117.007" stroke="#333333" stroke-miterlimit="10" stroke-linecap="round" stroke-linejoin="round"/>
<path d="M333.012 92.5198C333.012 92.5198 344.296 83.8569 355.005 87.2066C365.714 90.5562 370.09 103.031 369.284 111.463" stroke="#333333" stroke-width="0.5" stroke-miterlimit="10"/>
<path d="M347.981 140.454C347.981 140.454 338.654 143.573 333.472 134.795C328.29 126.132 330.248 121.974 323.915 120.241C317.697 118.508 316.545 120.934 312.976 120.819" stroke="#333333" stroke-width="0.5" stroke-miterlimit="10"/>
<path d="M296.74 122.898C296.74 122.898 300.309 121.281 303.073 123.591C305.721 125.785 306.873 131.561 306.412 134.333C305.606 139.068 307.333 144.959 307.794 149.579C309.636 165.173 311.133 186.426 313.206 204.675L306.527 204.329C306.527 204.329 296.624 159.859 294.897 152.698C293.17 145.537 289.024 136.527 290.291 131.33" fill="white"/>
<path d="M296.74 122.898C296.74 122.898 300.309 121.281 303.073 123.591C305.721 125.785 306.873 131.561 306.412 134.333C305.606 139.068 307.333 144.959 307.794 149.579C309.636 165.173 311.133 186.426 313.206 204.675L306.527 204.329C306.527 204.329 296.624 159.859 294.897 152.698C293.17 145.537 289.024 136.527 290.291 131.33" stroke="#333333" stroke-miterlimit="10"/>
<path d="M313.321 204.676C313.321 204.676 314.357 206.177 317.351 208.025C320.46 209.989 320.806 209.989 322.763 212.183" fill="white"/>
<path d="M313.321 204.676C313.321 204.676 314.357 206.177 317.351 208.025C320.46 209.989 320.806 209.989 322.763 212.183" stroke="#333333" stroke-miterlimit="10" stroke-linecap="round"/>
<path d="M318.272 210.566C318.272 210.566 322.648 213.57 322.994 215.071L318.272 210.566Z" fill="white"/>
<path d="M318.272 210.566C318.272 210.566 322.648 213.57 322.994 215.071" stroke="#333333" stroke-miterlimit="10" stroke-linecap="round"/>
<path d="M315.509 210.451C315.509 210.451 319.539 214.147 320.46 216.341L315.509 210.451Z" fill="white"/>
<path d="M315.509 210.451C315.509 210.451 319.539 214.147 320.46 216.341" stroke="#333333" stroke-miterlimit="10" stroke-linecap="round"/>
<path d="M318.272 217.959C318.272 217.959 313.321 211.375 310.903 210.913C308.485 210.451 310.442 212.299 309.982 215.071C309.521 217.843 307.794 215.649 307.333 212.876C306.758 209.989 307.218 207.217 306.988 205.831" fill="white"/>
<path d="M318.272 217.959C318.272 217.959 313.321 211.375 310.903 210.913C308.485 210.451 310.442 212.299 309.982 215.071C309.521 217.843 307.794 215.649 307.333 212.876C306.758 209.989 307.218 207.217 306.988 205.831" stroke="#333333" stroke-miterlimit="10" stroke-linecap="round"/>
<path d="M286.146 178.109C286.146 178.109 286.146 184.808 290.637 188.158L286.146 178.109Z" fill="white"/>
<path d="M286.146 178.109C286.146 178.109 286.146 184.808 290.637 188.158" stroke="#333333" stroke-miterlimit="10" stroke-linecap="round" stroke-linejoin="round"/>
<path d="M309.636 77.6196C309.636 77.6196 316.43 78.5437 319.539 84.5499C320.921 87.2066 320.806 90.9027 322.763 93.3284C325.527 96.5625 331.399 94.3679 334.508 92.5198" stroke="#333333" stroke-width="0.5" stroke-miterlimit="10"/>
<path d="M359.15 133.062C359.15 133.062 350.629 138.607 343.029 132.254C335.43 125.901 336.005 113.657 329.557 110.885C323.109 107.998 314.012 115.274 311.133 111.116C308.254 106.958 312.63 96.3316 310.557 93.444C308.37 90.4408 300.424 90.6718 300.424 90.6718" stroke="white" stroke-width="0.5" stroke-miterlimit="10"/>
<path d="M293.861 84.2034C293.861 84.2034 298.582 86.398 302.382 83.7414C306.182 81.0847 312.285 83.3948 314.127 88.5926C315.854 93.7903 313.321 100.49 317.697 102.684C322.188 104.879 330.133 97.2555 340.611 98.6416C351.09 100.028 352.126 107.189 354.66 113.542C357.193 119.895 363.756 125.323 366.75 121.512" stroke="white" stroke-width="0.5" stroke-miterlimit="10"/>
<g clip-path="url(#clip1)">
<path d="M472.4 134.4C472.4 136.1 471 137.5 469.3 137.5C467.6 137.5 466.2 136.1 466.2 134.4C466.2 132.7 467.6 131.3 469.3 131.3C471 131.3 472.4 132.6 472.4 134.4Z" fill="#1C5BFF"/>
<path d="M497.7 136.5C497.7 138.2 496.3 139.6 494.6 139.6C492.9 139.6 491.5 138.2 491.5 136.5C491.5 134.8 492.9 133.4 494.6 133.4C496.3 133.4 497.7 134.8 497.7 136.5Z" fill="#1C5BFF"/>
<path d="M494.8 158.8C494.8 160.5 493.4 161.9 491.7 161.9C490 161.9 488.6 160.5 488.6 158.8C488.6 157.1 490 155.7 491.7 155.7C493.4 155.8 494.8 157.1 494.8 158.8Z" fill="#1C5BFF"/>
<path d="M411.2 133.1C411.2 134.8 409.8 136.2 408.1 136.2C406.4 136.2 405 134.8 405 133.1C405 131.4 406.4 130 408.1 130C409.8 130 411.2 131.4 411.2 133.1Z" fill="#1C5BFF"/>
<path d="M444.5 151.2C444.5 152.9 443.1 154.3 441.4 154.3C439.7 154.3 438.3 152.9 438.3 151.2C438.3 149.5 439.7 148.1 441.4 148.1C443.1 148.1 444.5 149.5 444.5 151.2Z" fill="#1C5BFF"/>
<path d="M492 157.6C493.1 150.6 493.6 143.5 495 136.5C495.1 136.1 494.4 136 494.3 136.3C492.1 143 492.1 150.5 491.4 157.5C491.4 157.9 491.9 157.9 492 157.6Z" fill="#1C5BFF"/>
<path d="M469.3 133.4C477.9 133.6 486.5 136.6 495.1 136C495.5 136 495.5 135.3 495.1 135.3C486.4 135.1 477.9 132.3 469.3 132.8C468.9 132.8 468.9 133.4 469.3 133.4Z" fill="#1C5BFF"/>
<path d="M442.4 152C451.8 146.7 460.2 139.9 469.1 133.8C469.5 133.5 469 133 468.7 133.2C459.8 139.1 451.4 145.8 442.2 151.3C441.8 151.6 442.1 152.2 442.4 152Z" fill="#1C5BFF"/>
<path d="M407.5 132C418.3 139.2 429 147.2 440.9 152.4C441.3 152.6 441.6 151.9 441.2 151.7C429.2 146.3 419.2 137.9 407.8 131.6C407.5 131.4 407.2 131.8 407.5 132Z" fill="#1C5BFF"/>
<path d="M468.7 134.6C477.1 142.1 484 150.7 491.5 159C491.8 159.3 492.2 158.9 492 158.6C485.7 149.6 477.6 141.1 469.1 134.1C468.8 133.9 468.5 134.3 468.7 134.6Z" fill="#1C5BFF"/>
</g>
<path d="M219.705 15.8242C218.208 16.2862 216.711 17.4413 215.444 19.6359C213.026 24.1406 209.341 25.6422 209.341 25.6422C209.341 25.6422 207.384 25.5267 207.153 26.5662C206.923 27.6058 206.923 27.6058 206.923 27.6058L208.19 29.3383L207.153 31.4174C207.153 31.4174 204.85 36.4997 204.966 38.5788C205.081 40.5424 215.444 44.8161 221.662 39.2718" fill="white"/>
<path d="M219.705 15.8242C218.208 16.2862 216.711 17.4413 215.444 19.6359C213.026 24.1406 209.341 25.6422 209.341 25.6422C209.341 25.6422 207.384 25.5267 207.153 26.5662C206.923 27.6058 206.923 27.6058 206.923 27.6058L208.19 29.3383L207.153 31.4174C207.153 31.4174 204.85 36.4997 204.966 38.5788C205.081 40.5424 215.444 44.8161 221.662 39.2718" stroke="#333333" stroke-miterlimit="10" stroke-linecap="round" stroke-linejoin="round"/>
<path d="M226.614 33.4964C226.614 33.4964 223.85 31.3018 223.85 30.4932C223.85 29.6847 224.426 29.3382 224.541 28.5296C224.541 27.7211 220.05 26.9126 222.123 24.949C224.196 22.9854 225.692 23.1009 225.808 20.5598C225.923 18.0187 218.438 18.2497 216.826 15.2465C215.214 12.2434 215.674 7.16116 218.668 5.77509C223.965 3.46499 226.499 3.23398 229.032 6.23712C231.104 8.77823 230.529 10.3953 233.177 11.0883C235.826 11.7814 239.395 14.3225 241.468 18.3652C243.541 22.5234 241.583 28.7607 238.244 32.1103C234.789 35.3445 223.274 43.7763 226.614 33.4964Z" fill="#333333"/>
<path d="M223.62 33.2654C223.62 33.2654 226.729 29.2227 228.686 30.7243C230.644 32.2258 228.456 36.615 226.268 36.615C223.965 36.7305 223.159 35.5755 223.159 35.5755" fill="white"/>
<path d="M223.62 33.2654C223.62 33.2654 226.729 29.2227 228.686 30.7243C230.644 32.2258 228.456 36.615 226.268 36.615C223.965 36.7305 223.159 35.5755 223.159 35.5755" stroke="#333333" stroke-miterlimit="10" stroke-linecap="round" stroke-linejoin="round"/>
<path d="M214.753 24.256C214.293 25.18 214.293 25.9885 214.638 26.2196C214.984 26.4506 215.79 25.873 216.25 25.0645C216.711 24.1405 216.711 23.3319 216.365 23.1009C215.905 22.7544 215.214 23.3319 214.753 24.256Z" fill="#333333"/>
<path d="M206.808 33.4963C206.808 33.4963 209.802 34.9979 211.184 33.9584" stroke="#333333" stroke-miterlimit="10" stroke-linecap="round" stroke-linejoin="round"/>
<path d="M214.062 42.2747C214.062 42.2747 214.408 44.2383 214.293 46.6639C214.178 49.2051 226.844 45.5089 226.844 45.5089L227.074 39.8491" stroke="#333333" stroke-miterlimit="10" stroke-linecap="round" stroke-linejoin="round"/>
<path d="M229.262 48.6277L210.147 52.9014L212.105 47.7036L226.844 45.509" fill="white"/>
<path d="M229.262 48.6277L210.147 52.9014L212.105 47.7036L226.844 45.509" stroke="#333333" stroke-miterlimit="10" stroke-linecap="round" stroke-linejoin="round"/>
<path d="M200.245 101.876C200.245 101.876 186.542 81.8931 178.021 78.8899C169.5 75.8868 166.506 82.5861 166.506 82.5861" fill="white"/>
<path d="M200.245 101.876C200.245 101.876 186.542 81.8931 178.021 78.8899C169.5 75.8868 166.506 82.5861 166.506 82.5861" stroke="#333333" stroke-miterlimit="10"/>
<path d="M225.347 118.393C225.347 118.393 222.699 130.29 216.826 133.524C210.953 136.874 204.62 137.567 195.639 132.947C186.657 128.211 166.275 103.146 166.275 103.146C166.275 103.146 177.33 150.734 177.906 152.582L170.536 154.431C170.536 154.431 148.542 102.338 147.506 94.0212C146.47 85.8204 156.142 78.428 160.403 80.1606C186.657 90.7871 197.711 104.763 197.711 104.763" fill="white"/>
<path d="M225.347 118.393C225.347 118.393 222.699 130.29 216.826 133.524C210.953 136.874 204.62 137.567 195.639 132.947C186.657 128.211 166.275 103.146 166.275 103.146C166.275 103.146 177.33 150.734 177.906 152.582L170.536 154.431C170.536 154.431 148.542 102.338 147.506 94.0212C146.47 85.8204 156.142 78.428 160.403 80.1606C186.657 90.7871 197.711 104.763 197.711 104.763" stroke="#333333" stroke-miterlimit="10"/>
<path d="M197.826 111.809C197.826 111.809 197.826 118.624 202.317 121.974L197.826 111.809Z" fill="white"/>
<path d="M197.826 111.809C197.826 111.809 197.826 118.624 202.317 121.974" stroke="#333333" stroke-miterlimit="10" stroke-linecap="round" stroke-linejoin="round"/>
<path d="M230.183 50.7068C230.183 50.7068 232.947 60.2937 233.868 70.1117C234.904 79.9296 230.298 110.539 228.111 113.773C225.002 118.508 217.862 118.624 213.026 117.584C209.341 116.776 199.669 112.271 199.438 107.535C199.323 104.417 204.16 93.6748 204.966 87.8995C205.772 82.1242 206.232 66.3 208.765 56.02" fill="#1C5BFF"/>
<path d="M230.183 50.7068C230.183 50.7068 232.947 60.2937 233.868 70.1117C234.904 79.9296 230.298 110.539 228.111 113.773C225.002 118.508 217.862 118.624 213.026 117.584C209.341 116.776 199.669 112.271 199.438 107.535C199.323 104.417 204.16 93.6748 204.966 87.8995C205.772 82.1242 206.232 66.3 208.765 56.02" stroke="#333333" stroke-miterlimit="10" stroke-linecap="round" stroke-linejoin="round"/>
<path d="M214.638 6.35272C212.22 13.9761 216.826 15.1311 216.826 15.1311C216.826 15.1311 214.293 7.85429 219.935 4.62014C225.577 1.38599 230.068 3.92711 231.335 6.0062" stroke="#333333" stroke-width="0.5" stroke-miterlimit="10"/>
<path d="M229.147 9.70238C229.147 9.70238 222.238 4.15812 219.129 8.0853C216.02 12.0125 218.208 15.2466 223.62 16.6327" stroke="white" stroke-width="0.5" stroke-miterlimit="10"/>
<path d="M225.692 16.9793C225.692 16.9793 219.129 15.8242 221.893 12.7056C224.656 9.70243 231.68 12.0125 235.25 15.5932" stroke="white" stroke-width="0.5" stroke-miterlimit="10"/>
<path d="M225.808 20.4443C225.808 20.4443 230.759 25.5266 231.68 31.0708" stroke="white" stroke-width="0.5" stroke-miterlimit="10"/>
<path d="M230.874 22.9856C230.874 22.9856 235.941 26.1042 233.868 33.8431" stroke="white" stroke-width="0.5" stroke-miterlimit="10"/>
<path d="M217.977 56.5976C217.977 56.5976 221.662 55.2116 224.311 57.6372C226.844 60.0628 227.65 65.9536 226.959 68.7257C225.808 73.3459 227.074 79.5832 227.305 84.3189C228.111 100.143 228.111 121.743 229.032 140.455L222.353 139.646C222.353 139.646 215.444 94.0214 214.178 86.629C212.911 79.3522 209.341 69.8807 210.953 64.683" fill="white"/>
<path d="M217.977 56.5976C217.977 56.5976 221.662 55.2116 224.311 57.6372C226.844 60.0628 227.65 65.9536 226.959 68.7257C225.808 73.3459 227.074 79.5832 227.305 84.3189C228.111 100.143 228.111 121.743 229.032 140.455L222.353 139.646C222.353 139.646 215.444 94.0214 214.178 86.629C212.911 79.3522 209.341 69.8807 210.953 64.683" stroke="#333333" stroke-miterlimit="10"/>
<path d="M229.032 140.339C229.032 140.339 229.953 141.841 232.947 144.035C235.941 146.23 236.286 146.23 238.129 148.54" fill="white"/>
<path d="M229.032 140.339C229.032 140.339 229.953 141.841 232.947 144.035C235.941 146.23 236.286 146.23 238.129 148.54" stroke="#333333" stroke-miterlimit="10" stroke-linecap="round"/>
<path d="M233.753 146.692C233.753 146.692 238.013 150.042 238.244 151.543L233.753 146.692Z" fill="white"/>
<path d="M233.753 146.692C233.753 146.692 238.013 150.042 238.244 151.543" stroke="#333333" stroke-miterlimit="10" stroke-linecap="round"/>
<path d="M230.874 146.345C230.874 146.345 234.674 150.388 235.48 152.583L230.874 146.345Z" fill="white"/>
<path d="M230.874 146.345C230.874 146.345 234.674 150.388 235.48 152.583" stroke="#333333" stroke-miterlimit="10" stroke-linecap="round"/>
<path d="M233.177 154.084C233.177 154.084 228.571 147.038 226.153 146.461C223.735 145.768 225.692 147.847 225.002 150.619C224.311 153.391 222.814 151.081 222.468 148.193C222.123 145.306 222.814 142.534 222.583 141.032" fill="white"/>
<path d="M233.177 154.084C233.177 154.084 228.571 147.038 226.153 146.461C223.735 145.768 225.692 147.847 225.002 150.619C224.311 153.391 222.814 151.081 222.468 148.193C222.123 145.306 222.814 142.534 222.583 141.032" stroke="#333333" stroke-miterlimit="10" stroke-linecap="round"/>
<path d="M177.906 152.583C177.906 152.583 178.021 152.698 178.136 152.814C178.942 153.507 181.015 155.355 180.669 156.625C180.208 158.127 179.402 159.282 179.402 159.282L174.681 160.552L173.184 159.744L170.421 162.285C170.421 162.285 163.742 165.866 163.051 164.595C162.36 163.44 169.96 157.203 169.96 157.203L170.536 154.315" fill="#333333"/>
<path d="M190.572 273.055L199.208 277.444" stroke="#333333" stroke-miterlimit="10"/>
<path d="M143.361 248.568L186.657 270.976" stroke="#333333" stroke-miterlimit="10"/>
<path d="M237.668 340.048L246.189 344.437" stroke="#333333" stroke-miterlimit="10"/>
<path d="M190.457 315.561L233.638 337.969" stroke="#333333" stroke-miterlimit="10"/>
<path d="M309.406 47.3572L317.927 51.7464" stroke="#333333" stroke-miterlimit="10"/>
<path d="M262.195 22.8701L305.491 45.2782" stroke="#333333" stroke-miterlimit="10"/>
<path d="M99.7192 285.645L108.24 290.149" stroke="#333333" stroke-miterlimit="10"/>
<path d="M52.3929 261.273L95.6889 283.681" stroke="#333333" stroke-miterlimit="10"/>
<path d="M450.694 234.245L459.33 238.634" stroke="#333333" stroke-miterlimit="10"/>
<path d="M403.483 209.758L446.779 232.166" stroke="#333333" stroke-miterlimit="10"/>
<path d="M96.495 36.6152L105.016 41.1199" stroke="#333333" stroke-miterlimit="10"/>
<path d="M49.1687 12.2437L92.4647 34.6517" stroke="#333333" stroke-miterlimit="10"/>
<path d="M9.55737 199.016C16.6966 191.739 26.0237 181.112 35.6963 184.347C51.1262 189.544 36.0417 206.87 47.902 212.992C59.6473 219.114 69.4349 208.141 73.2349 217.959C77.0348 227.777 69.8956 236.093 79.9135 240.482C89.9315 244.871 99.7192 237.479 104.325 246.373C108.931 255.382 109.046 260.696 113.652 263.352C118.143 266.009 123.44 257.808 130.925 270.283C138.294 282.757 143.706 284.49 143.706 284.49C143.706 284.49 1.95755 205.6 0.230316 204.675C2.18785 206.062 5.52715 203.058 9.55737 199.016Z" fill="#1C5BFF"/>
<path d="M401.607 234.703C405.19 231.087 409.882 225.665 414.744 227.3C422.507 229.882 414.915 238.662 420.886 241.761C426.773 244.86 431.72 239.265 433.597 244.257C435.474 249.25 431.976 253.382 436.924 255.62C441.957 257.858 446.82 254.07 449.209 258.633C451.512 263.195 451.597 265.863 453.901 267.24C456.204 268.532 458.848 264.4 462.517 270.77C466.27 277.053 469 278 469 278C469 278 397.853 238.146 397 237.716C397.939 238.318 399.559 236.769 401.607 234.703Z" fill="#1C5BFF"/>
<path d="M282.576 10.511C287.528 5.54427 293.861 -1.84807 300.539 0.346532C311.133 3.9272 300.77 15.9397 308.945 20.0979C317.121 24.3716 323.8 16.7483 326.448 23.5631C329.096 30.3779 324.145 36.0377 331.054 39.0408C337.963 42.044 344.642 36.9617 347.866 43.0835C351.09 49.2053 351.09 53.017 354.314 54.865C357.423 56.7131 361.108 51.0534 366.175 59.6008C371.241 68.2637 375.041 69.4187 375.041 69.4187C375.041 69.4187 277.279 15.0157 276.013 14.3227C277.51 15.3622 279.813 13.2831 282.576 10.511Z" fill="#1C5BFF"/>
<path d="M508.511 71.4487C518.729 64.4972 530.508 88.4729 516.742 92.5871C516.316 92.7289 515.891 92.1615 516.316 91.7359C521.142 88.1892 523.129 83.7912 520.148 77.9746C518.019 73.8605 513.62 70.03 508.794 72.0162C508.369 72.2999 508.085 71.5906 508.511 71.4487Z" fill="black"/>
<path d="M509.22 75.2794C508.511 70.7396 506.808 66.6254 502.834 64.0718C499.002 61.5182 495.028 61.66 490.77 62.6531C490.345 62.795 490.061 62.0856 490.487 61.9438C499.711 56.9784 510.072 65.6323 510.072 75.2794C510.072 75.8468 509.22 75.8468 509.22 75.2794Z" fill="black"/>
<path d="M490.203 62.2272C491.48 51.1614 483.532 43.0749 472.746 41.6563C459.832 39.9538 454.013 48.7497 455.29 60.6666C455.432 61.3759 454.155 61.8016 454.013 60.9503C446.917 30.3068 497.725 36.6909 491.196 62.2272C491.054 62.9365 490.203 62.7946 490.203 62.2272Z" fill="black"/>
<path d="M493.325 69.604C490.77 64.4968 486.513 63.2199 481.404 62.085C480.836 61.9431 480.836 61.0919 481.404 61.0919C486.939 60.8082 492.19 64.213 494.176 69.3203C494.318 69.8878 493.467 70.0296 493.325 69.604Z" fill="black"/>
<path d="M459.122 62.7949C454.581 62.3693 450.181 63.2205 446.349 65.7741C442.801 68.1859 441.098 71.4489 438.827 74.9956C438.543 75.4212 437.692 75.2793 437.834 74.7118C439.537 65.7741 450.749 59.9575 459.122 61.8018C459.832 61.9437 459.69 62.7949 459.122 62.7949Z" fill="black"/>
<path d="M443.369 67.476C430.454 61.5176 416.971 72.1577 420.661 86.0608C420.945 86.912 419.526 87.4795 419.242 86.6283C415.268 71.874 429.744 59.1058 443.653 66.6248C444.362 66.9086 443.936 67.7598 443.369 67.476Z" fill="black"/>
<path d="M454.013 49.4597C440.247 43.6431 429.461 54.4251 429.035 68.0445C429.035 69.0375 427.474 69.1794 427.474 68.1863C427.899 53.8576 439.963 41.3732 454.439 48.7504C455.006 48.8923 454.581 49.7435 454.013 49.4597Z" fill="black"/>
<path d="M516.6 92.4452C516.174 92.4452 516.033 91.7358 516.458 91.7358C517.026 91.7358 517.026 92.4452 516.6 92.4452Z" fill="black"/>
<path d="M514.897 89.4657C520.432 106.916 490.345 109.044 483.107 96.9847C482.823 96.5591 483.391 95.8498 483.817 96.2754C488.642 101.383 495.028 103.794 502.124 103.085C509.646 102.234 515.465 97.8359 513.904 89.6076C513.762 89.0401 514.755 88.7564 514.897 89.4657Z" fill="black"/>
<path d="M488.358 99.5391C479.559 115.712 455.006 115.145 447.768 97.8367C447.485 97.1273 448.62 96.418 449.046 97.1273C457.561 112.875 477.572 114.293 487.648 99.1135C487.932 98.6879 488.642 99.1135 488.358 99.5391Z" fill="black"/>
<path d="M451.884 102.943C440.814 109.185 426.054 104.929 420.236 93.7216C419.81 92.8704 420.945 92.0192 421.371 92.8704C427.758 103.936 440.105 106.773 451.458 102.092C451.884 101.95 452.31 102.659 451.884 102.943Z" fill="black"/>
<path d="M423.783 99.9637C415.552 100.531 408.598 94.2889 408.03 86.0606C407.463 77.9741 414.984 74.2855 421.939 77.8322C422.506 78.1159 422.222 79.109 421.513 78.9672C418.249 78.2578 414.559 76.981 411.72 79.3928C409.591 81.237 409.166 84.2163 409.591 86.7699C410.585 93.8633 416.546 98.9706 423.642 98.9706C424.351 98.9706 424.493 99.8218 423.783 99.9637Z" fill="black"/>
<g clip-path="url(#clip2)">
<path d="M130.8 29.1999C133.7 31.3999 139.1 30.1999 141.1 27.2999C141.3 26.9999 141 26.6999 140.7 26.7999C139.4 27.3999 138.3 28.3999 137 28.8999C135 29.6999 133 29.7999 131.1 28.7999C130.8 28.5999 130.5 28.9999 130.8 29.1999Z" fill="#3A3A3A"/>
<path d="M140.1 27.2999C137 29.1999 136.3 34.4999 138.8 36.9999C139.2 37.4999 140 36.8999 139.6 36.3999C138.2 34.6999 138 32.8999 138.8 30.7999C139.2 29.6999 140 28.7999 140.5 27.6999C140.6 27.3999 140.3 27.1999 140.1 27.2999Z" fill="#3A3A3A"/>
<path d="M128.8 27.6999C130.2 29.1999 131.2 30.5999 131.1 32.7999C131 34.6999 130 35.9999 129.4 37.6999C129.3 37.9999 129.7 38.1999 130 37.9999C133.2 35.5999 132.8 28.9999 129.2 27.2999C128.9 27.1999 128.6 27.4999 128.8 27.6999Z" fill="#3A3A3A"/>
<path d="M129.9 37.5999C131.5 37.1999 132.9 36.4999 134.6 36.3999C136.7 36.2999 138.1 37.1999 139.9 38.1999C140.2 38.3999 140.5 37.9999 140.3 37.6999C138 34.2999 132.7 35.0999 129.7 36.8999C129.4 37.0999 129.5 37.6999 129.9 37.5999Z" fill="#3A3A3A"/>
<path d="M141.7 39.5C142 39.9 142.2 40.4 142.5 40.8C142.7 41.2 142.8 41.6 143 41.9C143.1 42 143.3 42.1 143.5 41.9C144.3 41.2 142.8 39.6 142.4 39C142.1 38.7 141.4 39.1 141.7 39.5Z" fill="#3A3A3A"/>
<path d="M134.6 39.2998C134.6 39.6998 134.6 40.1998 134.5 40.5998C134.4 40.9998 134.2 41.3998 134.2 41.7998C134.2 42.0998 134.5 42.1998 134.7 42.0998C135.4 41.3998 135.5 40.0998 135.3 39.1998C135.2 38.6998 134.5 38.7998 134.6 39.2998Z" fill="#3A3A3A"/>
<path d="M128.1 38.9998C127.5 39.5998 126.8 40.1998 126.2 40.6998C125.5 41.1998 124.7 41.6998 124.1 42.2998C123.9 42.4998 124.1 42.8998 124.4 42.7998C125.3 42.3998 126 41.6998 126.8 41.1998C127.5 40.5998 128.1 40.0998 128.7 39.3998C129 38.9998 128.4 38.6998 128.1 38.9998Z" fill="#3A3A3A"/>
<path d="M125.5 33.2999C125.9 33.2999 126.2 33.2999 126.6 33.2999C126.9 33.3999 127.2 33.4999 127.5 33.5999C127.8 33.5999 127.9 33.2999 127.8 33.0999C127.2 32.3999 126.2 32.3999 125.4 32.5999C124.9 32.6999 125 33.2999 125.5 33.2999Z" fill="#3A3A3A"/>
<path d="M124.2 20.6998C125 21.4998 125.7 22.1998 126.4 22.8998C127.1 23.4998 127.7 24.2998 128.5 24.7998C128.9 24.8998 129.2 24.5998 129 24.2998C128.5 23.4998 127.6 22.8998 127 22.1998C126.3 21.4998 125.6 20.8998 124.9 20.1998C124.5 19.9998 123.9 20.3998 124.2 20.6998Z" fill="#3A3A3A"/>
<path d="M133 23.1C132.9 23.8 132.9 24.8 133.2 25.5C133.3 25.8 133.7 25.7 133.8 25.4C133.9 24.7 133.6 23.9 133.7 23.2C133.8 22.7 133.1 22.6 133 23.1Z" fill="#3A3A3A"/>
<path d="M148.8 20.0999C147.8 21.6999 146.4 22.8999 145.4 24.4999C145.2 24.7999 145.6 25.0999 145.8 24.8999C147.3 23.7999 148.6 22.0999 149.4 20.4999C149.6 20.0999 149 19.7999 148.8 20.0999Z" fill="#3A3A3A"/>
<path d="M142.9 32.4998C143.5 32.6998 144.2 32.8998 144.8 33.0998C145.3 33.2998 145.9 33.4998 146.5 33.3998C146.8 33.2998 146.9 32.9998 146.6 32.7998C146.1 32.4998 145.4 32.3998 144.9 32.1998C144.3 31.9998 143.7 31.8998 143.1 31.7998C142.6 31.6998 142.5 32.3998 142.9 32.4998Z" fill="#3A3A3A"/>
</g>
</g>
<path d="M171.207 380.38C171.207 382.458 172.767 384.17 174.663 384.17C176.558 384.17 178.119 382.458 178.119 380.38C178.119 378.301 176.558 376.59 174.663 376.59C172.767 376.59 171.207 378.179 171.207 380.38Z" fill="#F09959"/>
<path d="M143 382.947C143 385.026 144.561 386.737 146.456 386.737C148.351 386.737 149.912 385.026 149.912 382.947C149.912 380.869 148.351 379.157 146.456 379.157C144.561 379.157 143 380.869 143 382.947Z" fill="#F09959"/>
<path d="M146.232 410.211C146.232 412.289 147.793 414.001 149.689 414.001C151.584 414.001 153.145 412.289 153.145 410.211C153.145 408.132 151.584 406.421 149.689 406.421C147.793 406.543 146.232 408.132 146.232 410.211Z" fill="#F09959"/>
<path d="M239.437 378.79C239.437 380.868 240.998 382.58 242.893 382.58C244.788 382.58 246.349 380.868 246.349 378.79C246.349 376.712 244.788 375 242.893 375C240.998 375 239.437 376.712 239.437 378.79Z" fill="#F09959"/>
<path d="M202.311 400.918C202.311 402.996 203.872 404.708 205.767 404.708C207.662 404.708 209.223 402.996 209.223 400.918C209.223 398.84 207.662 397.128 205.767 397.128C203.872 397.128 202.311 398.84 202.311 400.918Z" fill="#F09959"/>
<path d="M149.355 408.743C148.128 400.185 147.571 391.505 146.01 382.947C145.899 382.458 146.679 382.336 146.79 382.703C149.243 390.894 149.243 400.063 150.024 408.621C150.024 409.11 149.466 409.11 149.355 408.743Z" fill="#F09959"/>
<path d="M174.662 379.156C165.074 379.401 155.486 383.068 145.898 382.335C145.452 382.335 145.452 381.479 145.898 381.479C155.598 381.234 165.074 377.811 174.662 378.423C175.108 378.423 175.108 379.156 174.662 379.156Z" fill="#F09959"/>
<path d="M204.653 401.897C194.173 395.417 184.808 387.104 174.886 379.646C174.44 379.279 174.997 378.668 175.332 378.913C185.254 386.126 194.619 394.317 204.876 401.041C205.322 401.408 204.988 402.141 204.653 401.897Z" fill="#F09959"/>
<path d="M243.562 377.444C231.521 386.247 219.592 396.027 206.325 402.385C205.879 402.629 205.544 401.773 205.99 401.529C219.369 394.927 230.518 384.657 243.227 376.955C243.562 376.711 243.896 377.2 243.562 377.444Z" fill="#F09959"/>
<g clip-path="url(#clip3)">
<path d="M505.703 267.588C495.202 251.263 492.896 232.66 504.038 215.829C513.131 202.288 530.035 195.328 546.043 197.479C563.332 199.883 577.035 212.665 581.39 229.243C585.616 245.568 579.469 262.273 566.534 273.03C547.836 288.596 521.327 286.444 505.703 267.715C505.447 267.335 504.934 267.841 505.191 268.221C517.229 284.673 540.793 289.355 558.722 279.611C573.962 271.258 584.847 255.313 583.823 237.596C582.926 220.005 571.016 203.807 553.984 198.238C537.975 192.923 518.894 197.479 507.368 209.881C492.256 226.206 491.744 250.504 505.191 267.841C505.447 268.221 505.959 267.841 505.703 267.588Z" fill="black"/>
<path d="M561.283 202.92C561.539 205.325 559.106 205.451 557.569 206.843C555.905 208.236 556.417 210.007 555.264 211.779C555.136 212.032 555.392 212.412 555.648 212.159C556.417 211.652 556.801 211.02 556.929 210.134C557.313 208.362 558.082 207.35 559.747 206.59C561.411 205.704 562.436 204.819 562.052 202.92C562.052 202.288 561.283 202.414 561.283 202.92Z" fill="black"/>
<path d="M555.392 211.526C553.343 212.791 553.087 215.196 553.599 217.474C553.728 217.347 553.984 217.094 554.112 216.968C553.856 216.968 553.471 217.094 553.215 216.968C552.959 216.841 552.319 215.955 551.935 215.702C550.782 215.069 549.501 215.322 548.605 216.208C548.349 216.461 548.605 216.841 548.861 216.714C549.629 216.335 550.398 215.955 551.294 216.208C551.807 216.335 552.191 216.714 552.575 217.221C552.703 217.347 552.703 217.6 552.831 217.727C553.087 217.98 553.599 217.853 553.984 217.853C554.24 217.853 554.624 217.6 554.496 217.347C553.984 215.449 554.112 213.551 555.649 212.159C556.033 211.779 555.777 211.273 555.392 211.526Z" fill="black"/>
<path d="M548.349 216.462C547.324 217.094 547.068 218.233 546.684 219.372C546.556 219.878 546.3 220.385 545.915 220.638C545.147 221.017 544.379 220.511 543.61 220.511C543.226 220.511 543.098 220.891 543.354 221.017C544.379 221.903 546.3 221.903 547.068 220.638C547.836 219.499 547.836 217.98 548.733 216.841C548.989 216.715 548.605 216.335 548.349 216.462Z" fill="black"/>
<path d="M542.842 220.764C542.074 221.017 541.561 221.523 541.177 222.156C540.921 222.409 540.793 222.662 540.537 222.916C540.153 223.169 539.64 223.169 539.384 223.422C539.256 223.548 539.128 223.801 539.384 223.801C540.153 224.181 540.921 223.801 541.433 223.295C542.074 222.662 542.458 221.903 543.226 221.27C543.482 221.017 543.098 220.638 542.842 220.764Z" fill="black"/>
<path d="M542.586 221.397C542.842 221.397 543.098 221.397 543.354 221.27C543.61 221.144 543.482 220.891 543.354 220.764C543.098 220.638 542.97 220.638 542.714 220.638C542.33 220.764 542.202 221.397 542.586 221.397Z" fill="black"/>
<path d="M539.64 223.422C537.847 223.928 536.311 223.802 534.518 224.055C532.853 224.181 533.621 224.561 532.597 224.941C530.548 225.827 530.932 225.067 529.395 224.435C528.627 224.055 527.474 223.802 526.706 224.308C526.065 224.688 526.321 224.688 525.937 225.447C525.809 225.827 526.321 226.08 526.193 226.333C525.937 227.219 525.041 227.472 524.272 227.978C522.608 229.117 521.455 230.382 522.223 232.534C522.351 232.913 522.864 232.66 522.736 232.407C522.223 229.117 525.937 228.99 527.346 226.966C527.602 226.712 527.09 226.206 527.218 226.08C528.499 224.181 529.651 226.08 530.932 226.586C532.212 226.966 532.212 226.459 533.237 225.953C535.414 224.814 537.847 225.32 540.024 223.928C540.153 223.675 540.024 223.296 539.64 223.422Z" fill="black"/>
<path d="M522.223 232.154C523.248 234.938 525.425 232.154 527.09 233.673C526.962 233.673 527.346 235.065 527.602 235.318C528.755 236.71 530.163 236.457 531.316 238.355C532.469 240.253 532.212 243.164 534.262 244.683C537.207 246.707 539.384 242.784 541.689 244.303C542.074 244.556 542.458 244.05 542.202 243.797C538.872 239.874 536.311 248.226 533.237 240.886C532.725 239.621 532.469 238.102 531.572 236.963C530.676 235.824 527.858 234.938 527.858 233.293C527.858 233.166 527.73 233.04 527.602 232.913C526.321 232.66 523.504 233.166 522.736 231.901C522.48 231.521 522.095 231.774 522.223 232.154Z" fill="black"/>
<path d="M541.433 244.05C543.61 244.303 545.275 243.164 546.3 241.266C546.812 240.253 547.068 239.241 547.58 238.355C548.221 237.343 548.861 237.216 550.014 236.963C550.27 236.963 550.398 236.583 550.142 236.457C548.477 235.571 547.196 237.09 546.556 238.482C545.403 241.013 544.763 243.291 541.561 243.291C541.049 243.291 540.921 243.923 541.433 244.05Z" fill="black"/>
<path d="M549.373 236.963C551.166 237.09 553.343 236.836 554.624 235.444C555.264 234.685 555.392 233.546 556.545 234.179C557.57 234.685 557.826 236.457 558.082 237.469C558.338 238.735 558.594 240.38 559.619 241.266C560.131 241.645 560.643 241.772 561.283 241.772C562.948 241.772 562.948 241.266 563.973 242.784C564.229 243.037 564.613 242.784 564.485 242.405C564.357 241.772 564.101 241.139 563.717 240.633C563.589 240.38 563.332 240.38 563.076 240.38C557.185 242.658 560.259 233.42 555.136 232.787C555.008 232.787 554.752 232.913 554.624 233.04C553.728 236.204 551.422 235.571 549.117 236.457C548.989 236.457 549.117 236.963 549.373 236.963Z" fill="black"/>
<path d="M563.973 242.784C565.51 243.417 567.302 242.911 568.455 241.772C569.736 240.38 569.095 238.735 567.943 237.469C567.943 237.722 567.943 237.975 567.943 238.228C569.223 237.089 569.736 235.697 569.48 234.052C569.352 233.546 568.711 233.672 568.711 234.052C568.455 235.444 568.455 236.457 567.302 237.469C567.046 237.596 567.046 237.975 567.302 238.228C568.455 239.494 568.839 240.886 567.174 241.772C566.278 242.278 565.253 242.404 564.229 242.151C563.717 242.025 563.589 242.658 563.973 242.784Z" fill="black"/>
<path d="M569.351 234.685C569.351 232.787 568.967 231.142 568.071 229.497C567.943 229.75 567.815 229.876 567.687 230.129C572.297 229.623 569.351 225.953 569.992 223.043C570.12 222.789 569.48 222.663 569.48 222.916C569.223 223.802 569.223 224.688 569.351 225.7C569.48 227.472 570.12 228.99 567.559 229.244C567.302 229.244 567.046 229.623 567.174 229.876C568.071 231.395 568.583 232.914 568.839 234.685C568.839 235.065 569.351 235.065 569.351 234.685Z" fill="black"/>
<path d="M569.608 223.549C569.864 223.169 570.248 222.283 570.888 222.41C571.4 222.536 571.785 223.422 571.913 223.802C572.425 224.561 572.937 226.333 573.962 226.586C574.218 226.586 574.346 226.459 574.346 226.333C574.218 225.7 573.578 224.941 573.321 224.308C572.937 223.549 572.553 222.789 571.913 222.157C571.529 221.777 571.016 221.397 570.504 221.524C569.736 221.777 569.479 222.663 569.223 223.296C568.967 223.549 569.351 223.802 569.608 223.549Z" fill="black"/>
<path d="M573.962 226.586C575.114 227.219 576.395 227.725 577.676 228.231C578.7 228.611 579.597 228.737 580.109 229.75C580.749 231.142 581.39 232.66 582.414 233.799C582.542 233.926 582.926 233.926 582.926 233.673C582.926 231.901 581.134 230.382 580.749 228.611C580.749 228.484 580.621 228.358 580.493 228.231C578.316 227.598 576.395 226.712 574.346 226.08C573.706 225.827 573.578 226.333 573.962 226.586Z" fill="black"/>
<path d="M549.757 244.936C549.245 243.923 548.477 243.164 547.196 243.291C546.044 243.291 545.019 244.177 544.635 245.315C544.507 245.569 544.891 245.948 545.147 245.695C545.659 245.189 546.172 244.43 547.068 244.303C547.965 244.177 548.605 244.809 549.117 245.442C549.373 245.695 549.886 245.315 549.757 244.936Z" fill="black"/>
<path d="M544.507 245.062C542.97 246.328 541.689 245.189 540.024 245.062C538.744 244.936 537.591 245.695 537.335 246.96C537.335 247.214 537.591 247.34 537.847 247.214C538.488 246.581 538.872 245.821 539.896 245.948C540.665 245.948 541.305 246.328 541.945 246.454C543.098 246.707 544.251 246.581 544.891 245.568C545.275 245.189 544.763 244.809 544.507 245.062Z" fill="black"/>
<path d="M537.719 246.581C535.414 248.226 533.749 247.467 531.7 245.821C531.444 245.568 531.06 245.821 530.932 246.074C529.651 248.859 526.193 245.189 524.657 247.72C522.736 251.01 525.937 252.402 528.371 253.414C528.755 253.541 528.883 253.035 528.627 252.908C527.346 251.896 524.913 251.516 525.041 249.491C525.169 247.087 526.962 247.846 528.499 248.099C530.163 248.352 531.188 247.973 531.828 246.454C531.572 246.581 531.316 246.581 531.06 246.707C533.365 248.606 535.67 249.491 537.975 247.213C538.488 246.834 538.104 246.328 537.719 246.581Z" fill="black"/>
<path d="M527.73 252.782C528.755 254.807 527.73 256.958 528.627 258.856C529.523 261.134 532.341 259.869 532.084 262.78C532.084 262.906 532.213 263.159 532.341 263.159C533.877 263.539 535.286 263.539 536.823 263.792C538.232 264.045 537.975 264.425 538.872 265.184C539.896 266.07 541.561 266.323 542.842 265.943C543.226 265.817 543.226 265.184 542.842 265.184C541.177 265.184 539.384 265.311 538.872 263.159C538.872 263.033 538.744 262.78 538.488 262.78C536.823 262.78 534.134 263.159 533.109 261.767C532.853 261.514 532.597 260.122 532.469 259.869C532.469 259.742 532.213 259.616 532.084 259.616C527.858 258.983 530.676 254.68 528.499 252.276C527.986 252.149 527.602 252.402 527.73 252.782Z" fill="black"/>
<path d="M542.33 266.196C544.123 266.196 543.226 268.221 543.354 269.233C543.61 270.625 544.635 272.27 545.659 273.283C545.915 273.536 546.172 273.283 546.044 273.03C545.659 272.144 545.019 271.131 544.635 270.245C544.507 269.866 544.251 269.36 544.123 268.98C544.123 268.6 544.123 268.221 544.123 267.841C544.123 266.575 543.61 265.183 542.073 265.816C542.073 265.816 542.073 266.196 542.33 266.196Z" fill="black"/>
<path d="M545.659 273.41C545.531 273.789 545.403 274.169 545.275 274.549C545.147 274.675 545.275 274.928 545.403 275.055C547.452 276.827 549.629 278.472 551.935 276.447C554.496 274.296 556.801 267.715 557.185 264.551C557.441 262.4 556.545 259.616 556.545 257.464C556.545 255.566 556.801 255.693 556.289 253.794C555.649 251.39 556.161 249.112 553.599 248.099C553.215 247.973 553.087 248.479 553.343 248.606C553.856 248.859 555.52 254.174 555.649 254.933C556.033 257.338 554.88 259.742 555.136 262.02C555.52 265.564 555.905 265.31 554.88 268.095C554.496 269.107 554.112 270.246 553.599 271.258C552.575 273.536 550.014 278.725 546.94 275.181C546.172 274.296 546.3 274.296 546.172 273.41C546.172 273.157 545.659 273.157 545.659 273.41Z" fill="black"/>
<path d="M553.728 248.859C552.959 248.099 552.191 247.34 551.422 246.581C550.782 245.948 550.142 245.062 549.245 244.556C548.861 244.43 548.605 244.809 548.733 245.189C549.245 246.075 550.27 246.961 551.038 247.72C551.807 248.353 552.447 248.985 553.471 249.365C553.728 249.492 553.856 249.112 553.728 248.859Z" fill="black"/>
<path d="M559.618 255.693C559.106 257.591 557.954 262.78 560.771 263.412C560.899 263.412 561.027 263.412 561.027 263.286C562.692 261.134 565.253 258.097 563.332 255.313C562.692 254.427 561.539 253.288 560.259 253.668C558.978 254.174 559.106 255.693 559.234 256.705C559.234 256.958 559.747 256.958 559.747 256.705C559.747 255.44 560.387 253.794 561.924 254.933C562.948 255.693 563.332 256.832 563.076 257.971C562.82 259.236 561.796 261.387 560.771 262.147C560.515 262.4 560.515 262.653 560.003 262.273C559.747 262.02 559.618 261.514 559.618 261.134C559.49 260.502 559.618 259.869 559.618 259.236C559.747 258.097 560.003 256.832 560.131 255.693C560.259 255.44 559.747 255.313 559.618 255.693Z" fill="black"/>
<path d="M499.812 256.832C500.708 256.199 501.221 254.554 501.477 253.541C501.733 252.529 501.733 251.516 501.093 250.631C500.837 250.251 500.324 250.631 500.452 251.01C500.965 252.149 500.708 253.162 500.324 254.301C500.068 255.06 499.428 255.819 499.428 256.705C499.3 256.832 499.556 256.958 499.812 256.832Z" fill="black"/>
<path d="M501.093 250.883C500.836 249.618 500.836 248.352 500.58 247.087C500.452 247.213 500.452 247.34 500.324 247.593C501.349 247.087 502.117 246.074 503.014 245.442C503.27 245.315 503.014 244.936 502.757 244.936C501.605 245.062 501.093 246.328 499.94 246.834C499.812 246.834 499.684 246.96 499.812 247.213C500.196 248.479 500.196 249.744 500.452 251.01C500.58 251.263 501.221 251.263 501.093 250.883Z" fill="black"/>
<path d="M502.757 245.315C505.319 243.417 502.757 240.38 503.398 237.975C503.526 237.722 503.142 237.469 502.885 237.722C502.117 238.608 502.245 239.62 502.501 240.633C503.014 242.278 503.526 243.417 502.245 244.935C502.117 245.189 502.501 245.442 502.757 245.315Z" fill="black"/>
<path d="M503.014 238.102C503.782 237.343 504.679 236.33 504.422 235.191C504.294 234.685 504.038 234.305 503.782 233.926C503.398 233.293 503.142 232.66 502.758 231.901C502.629 231.521 501.989 231.648 501.989 232.154C502.117 233.166 502.758 233.926 503.27 234.685C503.91 235.824 503.142 236.71 502.373 237.722C502.373 237.975 502.758 238.355 503.014 238.102Z" fill="black"/>
<path d="M502.758 231.521C504.166 227.598 512.619 231.395 515.436 227.851C515.692 227.472 515.18 227.092 514.924 227.345C512.362 229.243 509.289 228.611 506.343 228.864C505.319 228.99 504.038 228.99 503.142 229.623C502.245 230.256 502.373 230.382 502.245 231.395C502.245 231.774 502.629 231.901 502.758 231.521Z" fill="black"/>
<path d="M515.308 227.598C516.332 226.712 516.46 224.687 516.076 223.422C515.692 222.156 514.411 220.511 512.875 221.017C512.747 221.017 512.618 221.397 512.747 221.523C513.131 221.903 513.771 222.03 514.155 222.409C514.668 222.789 514.924 223.422 515.052 224.055C515.308 225.193 514.924 226.206 514.668 227.345C514.796 227.598 515.052 227.851 515.308 227.598Z" fill="black"/>
<path d="M513.515 220.764C513.003 220.384 512.362 220.005 512.234 219.246C512.106 218.613 512.362 217.853 512.49 217.221C512.49 216.968 512.234 216.841 511.978 216.968C511.338 217.727 511.082 218.739 511.338 219.625C511.594 220.638 512.362 221.017 513.387 221.144C513.643 221.397 513.771 221.017 513.515 220.764Z" fill="black"/>
<path d="M512.234 217.854C512.362 216.715 511.978 215.45 510.954 214.817C510.057 214.184 508.264 213.931 507.368 214.817C507.112 214.943 507.24 215.323 507.496 215.323C508.52 215.45 509.417 215.07 510.313 215.576C511.21 216.082 511.466 217.095 511.594 217.981C511.594 218.234 512.106 218.234 512.234 217.854Z" fill="black"/>
<path d="M507.88 214.31C507.368 214.057 506.984 213.804 506.727 213.298C506.599 212.918 506.727 212.412 506.471 211.906C506.599 211.779 506.215 211.653 506.087 211.779C505.063 212.918 506.471 214.817 507.752 215.07C508.264 215.196 508.392 214.437 507.88 214.31Z" fill="black"/>
<path d="M515.692 207.097C515.436 208.995 516.332 214.057 518.894 214.184C519.022 214.184 519.15 214.184 519.278 214.057C520.558 211.653 523.248 212.412 525.425 211.526C527.73 210.64 527.858 208.236 527.09 206.211C526.962 205.958 526.578 206.084 526.706 206.338C526.834 208.236 527.474 210.64 524.785 211.02C523.504 211.146 522.223 211.02 520.943 211.4C520.558 211.526 520.046 211.653 519.662 212.032C519.406 212.285 518.894 213.298 518.637 213.298C517.357 213.804 516.204 208.109 516.332 207.097C516.332 206.717 515.692 206.717 515.692 207.097Z" fill="black"/>
<path d="M516.46 206.97C517.869 205.072 519.406 207.223 521.071 206.97C521.839 206.844 522.095 206.464 522.608 205.958C523.376 205.325 524.144 204.566 524.913 204.06C525.425 203.68 525.937 203.174 526.321 203.553C526.962 204.06 526.449 205.831 526.449 206.464C526.449 206.717 526.834 206.844 526.962 206.591C527.346 205.705 527.858 203.174 526.706 202.541C525.809 202.035 524.657 203.047 524.016 203.68C522.479 204.945 521.967 206.591 519.79 205.831C518.253 205.198 516.588 204.692 516.076 206.717C515.948 207.097 516.332 207.223 516.46 206.97Z" fill="black"/>
<path d="M501.349 261.514C502.245 262.4 503.27 263.032 504.55 263.159C505.319 263.285 505.959 263.159 506.727 263.159C508.136 263.159 507.88 263.538 508.777 264.551C510.185 266.323 512.618 265.31 514.539 266.196C514.924 266.323 515.052 265.816 514.796 265.69C514.027 265.057 513.259 264.931 512.234 264.931C511.722 264.931 511.21 265.057 510.826 265.057C509.417 264.804 508.905 263.665 508.52 262.4C508.52 262.273 508.264 262.146 508.136 262.146C505.703 262.526 504.038 262.653 501.989 261.007C501.477 260.754 501.093 261.261 501.349 261.514Z" fill="black"/>
<path d="M514.027 266.196C516.076 267.335 515.692 269.486 516.717 271.385C516.973 271.891 517.741 271.511 517.485 271.005C517.229 271.132 517.101 271.385 516.845 271.638C517.485 271.891 518.381 272.397 519.022 272.777C519.662 273.283 519.79 273.789 520.046 274.548C520.558 275.941 521.711 276.447 523.248 276.194C523.632 276.194 523.632 275.561 523.248 275.561C521.711 275.434 521.199 275.055 520.687 273.789C520.558 273.283 520.43 272.903 520.046 272.524C519.406 271.891 518.125 271.132 517.229 270.879C516.845 270.752 516.46 271.132 516.717 271.511C516.973 271.385 517.229 271.258 517.485 271.132C516.588 269.36 516.717 266.196 514.155 265.816C514.027 265.563 513.771 266.07 514.027 266.196Z" fill="black"/>
<path d="M523.12 275.687C524.529 276.953 525.681 278.345 526.834 279.864C527.73 281.002 528.627 282.648 530.035 283.28C530.291 283.407 530.548 283.154 530.42 282.901C529.779 281.509 528.242 280.117 527.218 278.851C526.193 277.586 524.913 276.194 523.504 275.181C523.248 275.055 522.864 275.434 523.12 275.687Z" fill="black"/>
<path d="M572.553 240.38C574.986 239.873 577.932 238.228 579.469 236.203C579.597 235.95 579.341 235.824 579.084 235.95C576.907 237.469 574.986 239.114 572.425 240C572.169 240 572.297 240.38 572.553 240.38Z" fill="black"/>
<path d="M575.627 236.71C576.267 236.457 577.163 235.95 577.676 235.444C577.804 235.318 577.676 234.938 577.42 235.065C576.651 235.191 576.011 235.824 575.242 236.203C574.986 236.33 575.242 236.836 575.627 236.71Z" fill="black"/>
<path d="M565.766 261.894C566.534 261.894 567.43 261.64 568.071 261.261C568.199 261.134 568.071 260.755 567.815 260.881C567.174 261.008 566.406 261.261 565.766 261.387C565.381 261.387 565.381 261.894 565.766 261.894Z" fill="black"/>
<path d="M569.479 260.628C571.913 259.742 574.474 258.35 576.267 256.578C576.523 256.325 576.267 256.072 576.011 256.198C573.834 257.717 571.785 259.236 569.351 260.248C568.967 260.375 569.095 260.754 569.479 260.628Z" fill="black"/>
<path d="M566.15 264.677C568.583 263.918 571.016 263.032 572.937 261.387C573.193 261.261 572.937 260.881 572.681 261.007C570.504 262.273 568.199 263.159 565.894 264.171C565.766 264.424 565.894 264.804 566.15 264.677Z" fill="black"/>
<path d="M563.588 268.221C563.845 267.968 564.229 268.095 564.613 267.968C564.869 267.968 564.869 267.588 564.613 267.462C564.101 267.335 563.588 267.462 563.204 267.715C563.076 267.968 563.332 268.348 563.588 268.221Z" fill="black"/>
<path d="M567.43 266.955C568.711 266.323 570.12 265.943 571.272 265.184C571.529 265.057 571.272 264.677 571.016 264.804C569.736 265.31 568.455 265.943 567.174 266.576C566.918 266.702 567.046 267.209 567.43 266.955Z" fill="black"/>
<path d="M563.589 271.005C564.485 270.752 565.381 270.373 566.278 269.74C566.406 269.613 566.278 269.234 566.022 269.36C565.125 269.866 564.357 270.246 563.332 270.499C563.076 270.752 563.332 271.132 563.589 271.005Z" fill="black"/>
<path d="M549.758 211.147C553.343 209.502 556.289 205.958 558.338 202.668C558.466 202.415 558.21 202.162 557.954 202.415C555.264 205.452 553.215 208.616 549.501 210.767C549.373 210.894 549.501 211.273 549.758 211.147Z" fill="black"/>
<path d="M552.319 211.4C553.087 211.526 553.727 210.767 553.984 210.134C554.112 209.881 553.727 209.755 553.599 209.881C553.215 210.387 552.831 210.767 552.191 211.02C552.063 211.147 552.191 211.4 552.319 211.4Z" fill="black"/>
<path d="M547.708 210.261C548.349 210.008 548.989 209.628 549.245 208.869C549.373 208.616 548.989 208.489 548.861 208.616C548.477 209.122 547.964 209.375 547.452 209.628C547.196 210.008 547.452 210.514 547.708 210.261Z" fill="black"/>
<path d="M551.294 207.603C552.703 206.211 554.112 204.946 555.136 203.174C555.264 202.921 555.008 202.794 554.88 202.921C553.856 204.439 552.447 205.831 551.038 207.223C550.782 207.477 551.038 207.856 551.294 207.603Z" fill="black"/>
<path d="M545.659 207.983C548.221 206.844 550.654 204.692 552.191 202.415C552.319 202.161 552.063 201.908 551.807 202.161C549.629 204.06 548.093 206.338 545.403 207.603C545.147 207.603 545.403 208.109 545.659 207.983Z" fill="black"/>
<path d="M544.635 205.958C545.147 205.578 545.531 205.198 546.044 204.819C546.3 204.692 546.044 204.312 545.788 204.439C545.147 204.692 544.635 205.198 544.123 205.705C543.995 205.831 544.379 206.084 544.635 205.958Z" fill="black"/>
<path d="M547.58 203.3C548.477 202.667 549.117 201.782 549.629 200.896C549.757 200.643 549.501 200.39 549.245 200.643C548.605 201.402 548.093 202.288 547.196 202.921C546.94 203.047 547.196 203.427 547.58 203.3Z" fill="black"/>
<path d="M543.994 203.553C544.763 202.794 545.787 202.288 546.556 201.529C546.812 201.275 546.556 201.022 546.3 201.149C545.275 201.529 544.379 202.414 543.61 203.174C543.354 203.427 543.738 203.806 543.994 203.553Z" fill="black"/>
<path d="M503.91 258.856C507.752 259.362 511.85 259.489 515.692 258.603C515.948 258.603 515.82 258.223 515.564 258.223C511.594 258.856 507.88 258.983 503.91 258.476C503.782 258.476 503.654 258.856 503.91 258.856Z" fill="black"/>
<path d="M504.294 256.579C504.678 256.579 505.063 256.579 505.575 256.579C505.831 256.579 505.831 256.199 505.575 256.199C505.191 256.199 504.806 256.199 504.422 256.199C504.038 256.199 503.91 256.579 504.294 256.579Z" fill="black"/>
<path d="M509.289 256.831C511.85 257.084 514.411 256.705 516.973 256.199C517.229 256.199 517.101 255.819 516.845 255.819C514.283 255.945 511.85 256.578 509.289 256.325C509.033 256.452 508.905 256.831 509.289 256.831Z" fill="black"/>
<path d="M503.654 254.3C507.624 254.427 511.594 254.806 515.436 253.667C515.692 253.541 515.564 253.288 515.308 253.288C511.466 254.3 507.496 253.794 503.654 253.794C503.398 253.794 503.398 254.3 503.654 254.3Z" fill="black"/>
<path d="M504.55 252.023C504.806 252.023 505.191 252.023 505.447 252.023C505.703 252.023 505.703 251.643 505.447 251.643C505.191 251.643 504.806 251.643 504.55 251.643C504.294 251.517 504.166 252.023 504.55 252.023Z" fill="black"/>
<path d="M508.392 252.276C509.801 252.023 511.338 252.023 512.747 251.643C513.003 251.643 513.003 251.137 512.619 251.263C511.21 251.517 509.673 251.517 508.264 251.896C508.136 251.896 508.136 252.276 508.392 252.276Z" fill="black"/>
<path d="M504.55 249.365C506.471 249.365 508.52 249.365 510.441 249.365C510.697 249.365 510.697 248.985 510.441 248.985C508.52 248.859 506.599 248.985 504.55 248.985C504.294 248.985 504.294 249.365 504.55 249.365Z" fill="black"/>
<path d="M506.599 247.087C506.856 247.087 507.24 247.087 507.496 247.087C507.752 247.087 507.752 246.707 507.496 246.707C507.24 246.707 506.856 246.707 506.599 246.707C506.343 246.581 506.343 247.087 506.599 247.087Z" fill="black"/>
<path d="M510.697 261.261C513.643 262.02 517.357 261.767 520.302 260.628C520.558 260.501 520.43 260.122 520.174 260.248C517.101 261.008 514.027 261.261 510.825 260.755C510.441 260.755 510.441 261.134 510.697 261.261Z" fill="black"/>
<path d="M512.747 263.538C513.259 263.538 513.771 263.538 514.283 263.538C514.539 263.538 514.539 263.159 514.283 263.159C513.771 263.159 513.259 263.159 512.875 263.159C512.49 263.032 512.362 263.538 512.747 263.538Z" fill="black"/>
<path d="M515.948 263.539C517.613 263.792 519.278 263.665 520.943 263.286C521.199 263.286 521.071 262.906 520.815 262.906C519.15 263.033 517.613 263.412 515.948 263.159C515.692 263.033 515.692 263.539 515.948 263.539Z" fill="black"/>
<path d="M517.741 265.563C518.766 265.563 519.918 265.563 520.943 265.563C521.199 265.563 521.327 265.184 520.943 265.184C519.918 265.184 518.766 265.184 517.741 265.184C517.485 265.184 517.485 265.563 517.741 265.563Z" fill="black"/>
<path d="M527.218 274.801C529.139 274.548 531.316 274.295 533.109 273.536C533.365 273.409 533.237 273.156 532.981 273.156C531.06 273.536 529.011 273.789 527.09 274.295C526.834 274.422 526.834 274.928 527.218 274.801Z" fill="black"/>
<path d="M529.011 276.573C529.523 276.32 529.907 276.32 530.42 276.32C530.676 276.32 530.676 275.94 530.42 275.814C529.907 275.687 529.267 275.814 528.755 276.067C528.499 276.32 528.755 276.7 529.011 276.573Z" fill="black"/>
<path d="M532.469 275.941C533.749 275.688 535.03 275.435 536.311 275.308C536.567 275.308 536.567 274.928 536.311 274.928C535.03 274.802 533.749 275.181 532.469 275.561C532.084 275.688 532.213 276.067 532.469 275.941Z" fill="black"/>
<path d="M530.676 278.598C534.005 277.965 537.719 278.092 540.665 276.573C540.921 276.447 540.793 276.067 540.409 276.193C537.079 277.206 533.749 277.206 530.42 278.218C530.291 278.218 530.42 278.598 530.676 278.598Z" fill="black"/>
<path d="M531.444 280.37C534.262 280.623 537.335 280.243 539.768 278.851C540.025 278.724 539.896 278.345 539.64 278.471C536.951 279.484 534.39 279.99 531.572 279.863C531.188 279.863 531.188 280.37 531.444 280.37Z" fill="black"/>
<path d="M534.134 281.508C534.774 281.508 535.414 281.508 535.926 281.508C536.183 281.508 536.183 281.129 535.926 281.002C535.286 280.876 534.774 281.002 534.134 281.002C533.877 281.002 533.749 281.508 534.134 281.508Z" fill="black"/>
<path d="M539.128 281.509C540.665 281.256 542.33 281.002 543.866 280.37C544.123 280.243 543.995 279.864 543.738 279.99C542.202 280.496 540.665 280.876 539 281.129C538.872 281.129 538.872 281.509 539.128 281.509Z" fill="black"/>
<path d="M569.095 276.321C574.474 272.904 579.853 266.576 581.389 260.375C581.518 260.122 581.005 259.869 580.877 260.249C577.804 266.45 574.218 271.512 568.839 275.941C568.583 276.067 568.839 276.447 569.095 276.321Z" fill="black"/>
<path d="M582.798 257.591C583.695 254.807 584.975 251.643 584.719 248.606C584.719 248.352 584.207 248.352 584.207 248.606C583.823 251.643 583.054 254.427 582.286 257.464C582.286 257.717 582.798 257.97 582.798 257.591Z" fill="black"/>
<path d="M493.024 246.328C493.153 238.102 492.768 231.015 496.098 223.169C496.226 222.916 495.842 222.663 495.714 222.916C491.616 229.623 491.616 238.608 492.512 246.328C492.512 246.708 493.024 246.708 493.024 246.328Z" fill="black"/>
<path d="M498.915 218.613C500.068 214.817 503.398 212.665 505.191 209.375C505.319 209.122 504.935 208.995 504.807 209.122C502.501 211.906 499.3 214.943 498.531 218.487C498.275 218.866 498.787 218.993 498.915 218.613Z" fill="black"/>
<path d="M499.172 263.792C500.068 265.564 501.093 267.335 502.373 268.854C502.501 269.107 502.886 268.854 502.757 268.601C501.605 266.956 500.58 265.31 499.684 263.665C499.428 263.412 499.044 263.539 499.172 263.792Z" fill="black"/>
<path d="M494.945 261.893C498.147 269.107 502.245 275.561 508.648 280.623C508.905 280.876 509.289 280.37 509.033 280.116C502.757 275.181 498.915 268.727 495.33 261.767C495.202 261.387 494.817 261.64 494.945 261.893Z" fill="black"/>
<path d="M505.447 272.777C507.368 275.434 510.185 278.218 513.387 279.357C513.643 279.484 513.899 279.104 513.643 278.978C510.697 277.079 508.008 275.308 505.831 272.397C505.703 272.144 505.319 272.523 505.447 272.777Z" fill="black"/>
<path d="M563.332 199.757C569.48 203.806 574.218 208.362 578.572 214.437C578.7 214.69 579.084 214.437 578.956 214.184C576.011 207.983 569.608 202.794 563.589 199.377C563.332 199.377 563.076 199.63 563.332 199.757Z" fill="black"/>
<path d="M579.981 216.715C580.877 219.499 581.774 222.157 582.67 224.941C582.798 225.194 583.311 225.067 583.183 224.814C582.542 222.03 581.39 219.372 580.365 216.588C580.365 216.209 579.981 216.335 579.981 216.715Z" fill="black"/>
<path d="M569.48 198.618C569.992 199.124 570.504 199.63 571.016 200.01C571.529 200.516 572.041 201.149 572.681 201.655C572.809 201.782 573.193 201.655 573.065 201.402C572.425 200.137 570.888 199.124 569.864 198.238C569.608 198.112 569.351 198.365 569.48 198.618Z" fill="black"/>
<path d="M574.602 203.301C579.213 209.881 582.926 216.082 585.488 223.675C585.616 223.928 586 223.802 586 223.549C584.335 215.956 579.853 208.995 574.986 203.047C574.73 202.794 574.474 203.047 574.602 203.301Z" fill="black"/>
<path d="M585.232 235.191C585.232 233.673 585.232 232.154 585.232 230.509C585.232 230.129 584.719 230.129 584.719 230.509C584.719 232.027 584.719 233.546 584.719 235.191C584.719 235.444 585.232 235.444 585.232 235.191Z" fill="black"/>
<path d="M520.174 196.72C528.755 194.189 536.823 192.29 545.916 193.682C546.172 193.682 546.3 193.303 546.044 193.176C537.591 190.392 528.114 193.556 520.046 196.213C519.79 196.466 519.918 196.846 520.174 196.72Z" fill="black"/>
<path d="M524.785 191.784C525.937 191.531 527.218 191.531 528.371 191.405C528.627 191.405 528.627 191.025 528.371 190.898C527.09 190.772 525.937 190.772 524.657 191.278C524.401 191.405 524.529 191.911 524.785 191.784Z" fill="black"/>
<path d="M531.06 190.646C535.542 189.507 539.768 190.013 544.251 190.266C544.507 190.266 544.635 189.887 544.379 189.76C540.153 188.621 535.158 188.874 530.932 190.14C530.676 190.14 530.676 190.772 531.06 190.646Z" fill="black"/>
<path d="M550.526 194.822C553.343 195.707 556.161 197.1 559.234 197.479C559.49 197.479 559.618 197.1 559.362 197.1C556.545 196.087 553.599 195.201 550.782 194.442C550.398 194.315 550.142 194.695 550.526 194.822Z" fill="black"/>
<path d="M552.063 193.303C553.087 193.683 554.24 193.809 555.264 194.062C555.521 194.062 555.649 193.683 555.392 193.556C554.368 193.176 553.215 193.176 552.191 192.797C551.935 192.67 551.679 193.176 552.063 193.303Z" fill="black"/>
<path d="M534.134 287.078C541.433 288.343 550.526 288.47 556.545 283.661C556.801 283.408 556.417 283.028 556.161 283.281C549.629 287.584 541.945 287.71 534.134 286.698C533.877 286.698 533.877 287.078 534.134 287.078Z" fill="black"/>
<path d="M545.916 291C548.221 291.126 550.654 290.747 552.959 290.241C553.215 290.114 553.215 289.734 552.831 289.861C550.526 290.114 548.221 290.494 545.787 290.62C545.531 290.494 545.531 291 545.916 291Z" fill="black"/>
<path d="M496.995 275.561C497.891 275.561 498.019 274.169 497.123 274.169C496.226 274.295 496.098 275.561 496.995 275.561Z" fill="black"/>
</g>
<g clip-path="url(#clip4)">
<path d="M286.334 414.989C269.157 403.303 249.356 443.606 272.497 450.522C273.212 450.76 273.928 449.806 273.212 449.091C265.101 443.129 261.761 435.736 266.771 425.959C270.35 419.043 277.745 412.604 285.856 415.943C286.572 416.42 287.049 415.227 286.334 414.989Z" fill="black"/>
<path d="M285.141 421.427C286.334 413.796 289.196 406.88 295.876 402.588C302.317 398.295 308.997 398.533 316.154 400.203C316.87 400.441 317.347 399.249 316.631 399.01C301.125 390.664 283.709 405.211 283.709 421.427C283.709 422.381 285.141 422.381 285.141 421.427Z" fill="black"/>
<path d="M317.109 399.487C314.962 380.886 328.321 367.293 346.452 364.908C368.162 362.046 377.943 376.832 375.796 396.864C375.557 398.056 377.705 398.772 377.943 397.341C389.871 345.83 304.465 356.561 315.439 399.487C315.677 400.68 317.109 400.441 317.109 399.487Z" fill="black"/>
<path d="M311.86 411.888C316.155 403.303 323.312 401.156 331.9 399.249C332.854 399.01 332.854 397.579 331.9 397.579C322.596 397.102 313.769 402.826 310.429 411.411C310.19 412.365 311.622 412.603 311.86 411.888Z" fill="black"/>
<path d="M369.355 400.441C376.989 399.726 384.384 401.157 390.826 405.449C396.79 409.504 399.653 414.989 403.47 420.95C403.947 421.666 405.378 421.427 405.14 420.473C402.277 405.449 383.43 395.672 369.355 398.772C368.162 399.011 368.4 400.441 369.355 400.441Z" fill="black"/>
<path d="M395.835 408.311C417.545 398.295 440.209 416.18 434.006 439.551C433.529 440.982 435.914 441.936 436.392 440.505C443.071 415.703 418.738 394.24 395.358 406.88C394.165 407.357 394.881 408.788 395.835 408.311Z" fill="black"/>
<path d="M377.943 378.024C401.084 368.247 419.215 386.371 419.931 409.265C419.931 410.934 422.555 411.173 422.555 409.503C421.839 385.417 401.561 364.431 377.227 376.832C376.273 377.07 376.989 378.501 377.943 378.024Z" fill="black"/>
<path d="M272.735 450.283C273.451 450.283 273.69 449.091 272.974 449.091C272.02 449.091 272.02 450.283 272.735 450.283Z" fill="black"/>
<path d="M275.598 445.274C266.294 474.607 316.87 478.184 329.037 457.914C329.514 457.198 328.56 456.006 327.844 456.721C319.733 465.306 308.997 469.36 297.069 468.168C284.425 466.737 274.644 459.344 277.268 445.513C277.507 444.559 275.837 444.082 275.598 445.274Z" fill="black"/>
<path d="M320.21 462.207C335.001 489.394 376.273 488.44 388.44 459.345C388.917 458.153 387.008 456.961 386.293 458.153C371.979 484.624 338.341 487.009 321.403 461.492C320.926 460.776 319.733 461.492 320.21 462.207Z" fill="black"/>
<path d="M381.521 467.93C400.13 478.423 424.94 471.268 434.722 452.429C435.437 450.998 433.529 449.567 432.813 450.998C422.078 469.599 401.322 474.369 382.237 466.499C381.521 466.26 380.806 467.453 381.521 467.93Z" fill="black"/>
<path d="M428.758 462.923C442.595 463.877 454.284 453.384 455.239 439.552C456.193 425.959 443.549 419.758 431.859 425.72C430.905 426.197 431.382 427.867 432.575 427.628C438.062 426.436 444.265 424.289 449.036 428.344C452.614 431.444 453.33 436.452 452.614 440.744C450.944 452.668 440.925 461.253 428.996 461.253C427.803 461.253 427.565 462.684 428.758 462.923Z" fill="black"/>
</g>
<defs>
<clipPath id="clip0">
<rect width="602" height="368" fill="white" transform="matrix(-1 0 0 1 602 0)"/>
</clipPath>
<clipPath id="clip1">
<rect width="92.7" height="31.9" fill="white" transform="translate(405 130)"/>
</clipPath>
<clipPath id="clip2">
<rect width="25.5" height="22.9" fill="white" transform="translate(124 20)"/>
</clipPath>
<clipPath id="clip3">
<rect width="94" height="102" fill="white" transform="translate(492 189)"/>
</clipPath>
<clipPath id="clip4">
<rect width="193" height="119" fill="white" transform="translate(262 363)"/>
</clipPath>
</defs>
</svg>
