<svg width="14" height="14" viewBox="0 0 14 14" fill="none" xmlns="http://www.w3.org/2000/svg">
<g clip-path="url(#clip0_611_4025)">
<path d="M8.69857 2.10443C7.58096 1.84473 6.41869 1.84473 5.30108 2.10443C4.6556 1.70854 4.1628 1.5266 3.8044 1.4498C3.65143 1.41528 3.49491 1.39901 3.33811 1.40134C3.26677 1.40328 3.19575 1.41185 3.126 1.42694L3.11685 1.42877L3.1132 1.4306H3.11045L3.23571 1.87037L3.11045 1.43151C3.04622 1.44967 2.98674 1.48166 2.9362 1.52526C2.88566 1.56885 2.84527 1.62299 2.81788 1.68386C2.54814 2.28793 2.49676 2.96698 2.67251 3.60477C2.21732 4.15641 1.96926 4.84981 1.97125 5.565C1.97125 6.98489 2.39 7.9394 3.10405 8.55289C3.60417 8.9826 4.21126 9.21117 4.82017 9.34191C4.7196 9.62077 4.694 9.91609 4.71411 10.2178V10.7645C4.342 10.8423 4.08417 10.8176 3.9004 10.7572C3.67091 10.6813 3.49445 10.5287 3.32531 10.3092C3.23689 10.1909 3.1545 10.0683 3.07845 9.94169L3.02634 9.85666C2.96053 9.74723 2.89225 9.63932 2.82154 9.533C2.64783 9.27609 2.39 8.95426 1.97308 8.84454L1.53057 8.72843L1.29834 9.61346L1.74085 9.72957C1.814 9.74786 1.90908 9.81643 2.06543 10.0459C2.12303 10.1309 2.17697 10.2196 2.23914 10.322L2.30131 10.4226C2.38725 10.5616 2.486 10.7152 2.60028 10.8651C2.8316 11.1668 3.14703 11.4713 3.61514 11.6258C3.93514 11.7319 4.29903 11.7575 4.71411 11.6935V13.4004C4.71411 13.5217 4.76228 13.6379 4.84801 13.7237C4.93374 13.8094 5.05001 13.8576 5.17126 13.8576H8.8284C8.94964 13.8576 9.06592 13.8094 9.15165 13.7237C9.23738 13.6379 9.28554 13.5217 9.28554 13.4004V10.1428C9.28554 9.85483 9.27274 9.5906 9.19137 9.34466C9.79754 9.21666 10.4001 8.98809 10.8974 8.55837C11.6106 7.94031 12.0284 6.97666 12.0284 5.54854V5.54763C12.0261 4.83829 11.778 4.15168 11.3262 3.60477C11.5018 2.96727 11.4504 2.28858 11.1809 1.68477C11.1537 1.62383 11.1135 1.56958 11.0631 1.52582C11.0127 1.48207 10.9534 1.44988 10.8892 1.43151L10.7639 1.87037C10.8892 1.43151 10.8883 1.43151 10.8874 1.43151L10.8855 1.4306L10.8819 1.42877L10.8737 1.42694C10.8511 1.42107 10.8282 1.41649 10.8051 1.41323C10.7572 1.40624 10.709 1.40227 10.6606 1.40134C10.5038 1.39903 10.3473 1.41529 10.1943 1.4498C9.83686 1.5266 9.34406 1.70854 8.69857 2.10443Z" fill="#003681"/>
</g>
<defs>
<clipPath id="clip0_611_4025">
<rect width="13.7143" height="13.7143" fill="white" transform="translate(0.143066 0.143066)"/>
</clipPath>
</defs>
</svg>
