<svg width="36" height="36" viewBox="0 0 36 36" fill="none" xmlns="http://www.w3.org/2000/svg">
<g id="Iconly/Bold/Arrow - Right">
<g id="Arrow - Right">
<path id="Arrow - Right_2" fill-rule="evenodd" clip-rule="evenodd" d="M17.9901 16.2525L17.4589 16.2548C15.3522 16.2731 13.4726 16.4001 12.2814 16.6191C12.26 16.6191 11.0786 16.858 10.6853 17.0102C10.1169 17.2491 9.63448 17.6811 9.3288 18.2227C9.1107 18.6563 9 19.1112 9 19.5874C9.01735 19.9617 9.20571 20.579 9.36363 21.0196L9.50395 21.3858C10.4672 23.8108 13.6148 28.4466 15.5397 30.222L15.6743 30.3529L16.3048 30.9371C16.7872 31.3053 17.3771 31.5 18.0116 31.5C18.58 31.5 19.1483 31.3265 19.6077 30.9796C19.7565 30.8758 19.9474 30.7085 20.1087 30.5596L20.7039 29.991C22.6864 28.0343 25.4673 23.7977 26.3887 21.6018C26.4085 21.6018 26.9785 20.237 27 19.5874L27 19.5007C27 18.5042 26.4316 17.5731 25.5129 17.0969C25.2618 16.9668 24.7698 16.842 24.3378 16.7471L23.5219 16.5765C22.21 16.3818 20.1975 16.2525 17.9901 16.2525ZM20.2775 6.75488C20.2775 5.50962 19.2581 4.5 18.0007 4.5C16.7433 4.5 15.7238 5.50962 15.7238 6.75488L16.2145 12.3037C16.2145 13.2806 17.0126 14.0726 18.0007 14.0726C18.9871 14.0726 19.7868 13.2806 19.7868 12.3037L20.2775 6.75488Z" fill="#24D07D"/>
</g>
</g>
</svg>
