<svg width="32" height="32" viewBox="0 0 32 32" fill="none" xmlns="http://www.w3.org/2000/svg">
<path d="M22.9075 11.692C22.4053 11.9145 21.8657 12.0649 21.2985 12.1329C21.8838 11.7827 22.3216 11.2315 22.5304 10.5822C21.9805 10.9088 21.3787 11.1387 20.7511 11.2619C20.3291 10.8113 19.7701 10.5126 19.161 10.4123C18.5518 10.3119 17.9266 10.4155 17.3823 10.7069C16.8381 10.9983 16.4052 11.4612 16.151 12.0238C15.8968 12.5864 15.8355 13.2172 15.9765 13.8183C14.8623 13.7623 13.7724 13.4727 12.7774 12.9683C11.7824 12.4639 10.9046 11.7558 10.201 10.8902C9.96036 11.3052 9.82202 11.7864 9.82202 12.2989C9.82175 12.7602 9.93536 13.2145 10.1528 13.6214C10.3702 14.0283 10.6847 14.3753 11.0683 14.6315C10.6234 14.6173 10.1883 14.4971 9.79916 14.2808V14.3169C9.79912 14.9639 10.0229 15.5911 10.4326 16.0919C10.8424 16.5927 11.4127 16.9364 12.0469 17.0645C11.6342 17.1762 11.2014 17.1927 10.7814 17.1126C10.9603 17.6694 11.3089 18.1562 11.7783 18.505C12.2477 18.8539 12.8144 19.0471 13.3991 19.0579C12.4065 19.837 11.1807 20.2597 9.91886 20.2578C9.69533 20.2579 9.472 20.2448 9.25 20.2187C10.5309 21.0423 12.0219 21.4794 13.5447 21.4777C18.6995 21.4777 21.5175 17.2083 21.5175 13.5055C21.5175 13.3852 21.5144 13.2637 21.509 13.1434C22.0572 12.747 22.5303 12.2561 22.9063 11.6938L22.9075 11.692Z" fill="#C1CADF"/>
</svg>
