<svg width="32" height="32" viewBox="0 0 32 32" fill="none" xmlns="http://www.w3.org/2000/svg">
<path d="M23.6572 11.8735C24 13.21 24 16 24 16C24 16 24 18.79 23.6572 20.1265C23.4667 20.8653 22.9095 21.4465 22.2037 21.643C20.922 22 16.5 22 16.5 22C16.5 22 12.0802 22 10.7962 21.643C10.0875 21.4435 9.531 20.863 9.34275 20.1265C9 18.79 9 16 9 16C9 16 9 13.21 9.34275 11.8735C9.53325 11.1348 10.0905 10.5535 10.7962 10.357C12.0802 10 16.5 10 16.5 10C16.5 10 20.922 10 22.2037 10.357C22.9125 10.5565 23.469 11.137 23.6572 11.8735ZM15 18.625L19.5 16L15 13.375V18.625Z" fill="#C1CADF"/>
</svg>
