<svg width="96" height="96" viewBox="0 0 96 96" fill="none" xmlns="http://www.w3.org/2000/svg">
<g clip-path="url(#clip0_2716_1556)">
<path d="M55.6821 0.178253C55.7177 0.213901 55.7177 0.320845 55.7534 0.320845C57.0723 0.534733 58.2131 1.06945 59.2112 1.925C59.9242 2.49537 60.851 3.60046 61.2432 4.34907C61.3857 4.5986 61.564 4.84814 61.7066 5.06203C62.2769 4.99073 62.7404 5.24027 63.2394 5.38286C64.3445 5.66804 65.2357 6.34535 65.9843 7.09396C66.9825 8.05646 67.6954 9.26849 68.0519 10.6231C68.2658 11.3361 68.2302 12.0847 68.2302 12.7976C68.2302 13.2611 68.2302 13.7245 68.2302 14.0453C70.2977 15.7208 71.3672 17.7884 71.4028 20.355C71.4385 22.5652 70.0838 25.3101 68.2302 26.4865C68.2302 27.1281 68.2302 27.8054 68.2302 28.4827C68.1945 29.9087 67.6598 31.1207 66.6973 32.1545C66.2695 32.6179 65.7348 33.01 65.2714 33.4378C65.2714 37.8225 63.382 41.0665 59.3538 42.8845C57.2862 43.8114 55.3612 43.7757 53.2224 43.1341C51.1548 42.528 49.515 41.316 48.2316 39.498C48.0534 39.6762 47.8395 39.7832 47.7326 39.9614C47.0909 40.9595 46.1641 41.6368 45.1303 42.2429C44.453 42.6706 43.74 42.9558 42.9914 43.2054C42.4923 43.3479 42.0289 43.4549 41.5298 43.5262C40.7812 43.5975 40.0326 43.5975 39.284 43.5262C38.4641 43.4549 37.6798 43.1697 36.9312 42.8845C35.3627 42.2785 34.1507 41.2091 33.0812 39.9614C32.6178 39.4267 32.2613 38.7494 31.9405 38.1077C31.6553 37.5373 31.4771 36.8957 31.3345 36.3253C31.1206 35.4341 31.1563 34.5073 31.0493 33.4735C30.7285 33.1526 30.3364 32.7962 29.9086 32.4397C29.0887 31.7267 28.6609 30.7999 28.3044 29.8374C28.1618 29.4096 28.0905 28.9818 28.1262 28.5184C28.1618 27.8767 28.1262 27.1994 28.1262 26.5221C27.2706 26.1656 26.8072 25.3457 26.2725 24.6328C25.7378 23.9555 25.4526 23.0999 25.203 22.28C24.9179 21.3888 24.8109 20.4976 24.9535 19.6064C25.0961 18.8221 25.2743 18.0022 25.5952 17.2536C25.916 16.505 26.3794 15.7921 26.9141 15.1861C27.235 14.7939 27.5558 14.3305 28.1262 14.1879C28.1262 13.5106 28.1262 12.8333 28.1262 12.156C28.1262 10.5162 28.8035 9.16154 29.7303 7.84257C30.3007 7.05831 31.0493 6.4523 31.8692 5.95323C32.6891 5.45415 33.5803 5.02638 34.6854 5.02638C34.9349 4.6699 35.2201 4.24212 35.4697 3.81435C35.7548 3.31527 36.2183 2.99444 36.5035 2.56667C37.0382 1.74676 37.8937 1.39028 38.6423 0.962509C39.1771 0.641677 39.8544 0.534733 40.4604 0.356493C40.496 0.356493 40.496 0.249549 40.5317 0.213901C41.4585 0.213901 42.421 0.213901 43.3479 0.213901C43.3835 0.249549 43.3835 0.356493 43.4192 0.356493C44.952 0.606029 46.2354 1.31899 47.3404 2.42408C47.6256 2.70926 47.9108 2.99444 48.2316 3.31528C48.4455 3.10139 48.6238 2.92315 48.802 2.74491C49.7645 1.60417 51.0835 0.998157 52.4381 0.427789C52.6163 0.356493 52.9015 0.570381 52.9372 0.213901C53.7927 0.178253 54.7552 0.178253 55.6821 0.178253ZM40.4604 28.1263C40.0326 28.1263 39.5692 27.9837 39.3196 28.1619C38.9632 28.4115 38.571 28.2689 38.2146 28.4471C37.8937 28.5897 37.6442 28.8392 37.3234 28.9818C36.4322 29.3739 35.7905 30.0869 35.2558 30.9068C35.0419 31.2276 34.828 31.6198 34.6854 31.9762C34.3646 32.7962 34.2933 33.6517 34.2933 34.5429C34.2933 35.3628 34.5428 36.0401 34.828 36.7887C35.2914 37.9651 36.147 38.892 37.2164 39.5336C38.0007 39.997 38.8206 40.4605 39.7831 40.3535C39.9257 40.3535 40.0683 40.4605 40.1752 40.4961C40.3891 40.5318 40.603 40.5318 40.8169 40.5318C40.9951 40.4961 41.1377 40.3535 41.3159 40.3892C41.9576 40.4605 42.4567 40.104 43.027 39.9614C43.5974 39.8188 45.2372 38.3216 45.5937 37.8225C45.7719 37.5373 45.9858 37.2521 46.1284 36.9313C46.271 36.6105 46.2354 36.2184 46.4136 35.9332C46.5918 35.5767 46.3779 35.2202 46.5205 34.9707C46.6988 34.6142 46.6988 34.2577 46.6988 33.9012C46.6988 25.8448 46.6988 17.7884 46.6988 9.73191C46.6988 8.91201 46.6988 8.0921 46.5562 7.2722C46.3067 5.84628 45.558 4.81249 44.3817 4.06388C44.1678 3.92129 43.9895 3.81435 43.7043 3.67175C43.6687 3.67175 43.5261 3.7074 43.4192 3.67175C42.7419 3.35092 42.0289 3.49352 41.3516 3.49352C40.9238 3.49352 40.496 3.67175 40.1039 3.81435C39.284 4.13518 38.678 4.74119 38.1433 5.41851C37.6798 6.02452 37.5372 6.84442 37.359 7.62868C37.2164 8.2347 37.5016 8.87636 37.6085 9.48238C37.7155 10.0527 38.2146 10.4449 38.4284 10.9439C38.678 11.5143 39.2483 11.55 39.5335 11.9777C39.6405 12.1203 39.8544 12.2629 40.0326 12.2986C40.7099 12.4055 41.2803 12.8333 41.9932 12.6907C41.9932 13.7245 41.9932 14.687 41.9932 15.6495C40.9238 15.899 39.9257 15.5782 38.9988 15.1861C37.8937 14.7583 36.9669 14.0453 36.1826 13.1541C35.0419 11.7638 34.3646 10.1597 34.2576 8.2347C33.7586 8.55553 33.3308 8.76941 32.9743 9.0546C32.5822 9.37543 32.2257 9.73191 31.9049 10.124C31.6553 10.4805 31.4414 10.8726 31.2989 11.2648C31.1563 11.7282 31.085 12.1916 31.1206 12.6907C31.1206 13.1541 31.2632 13.6175 31.3345 14.0097C31.9405 15.5425 32.9387 16.5763 34.4715 17.111C34.8636 17.1823 35.3271 17.2893 35.7905 17.3606C35.7905 18.3587 35.7905 19.3212 35.7905 20.3194C35.1845 20.2837 34.5785 20.3194 33.9724 20.1411C32.2613 19.6064 30.7285 18.8934 29.6947 17.3249C29.6234 17.218 29.4808 17.1467 29.3739 17.0754C29.1243 17.4319 28.8748 17.7171 28.6609 18.0379C28.1262 18.8578 28.0549 19.749 28.0905 20.7115C28.1262 21.674 28.554 22.4939 29.0887 23.2068C29.5521 23.8485 30.1581 24.3476 30.9424 24.5971C31.4058 24.7397 31.7979 25.0249 32.297 25.2744C32.2257 25.417 32.1544 25.524 32.0475 25.6666C31.6553 26.2369 31.4058 26.9142 31.2276 27.5559C30.9424 28.4827 31.2632 29.4452 32.1901 30.0513C33.9724 26.7716 36.7886 25.1675 40.496 24.9179C40.4604 25.9874 40.4604 27.0212 40.4604 28.1263ZM51.6182 4.17083C51.44 4.34907 51.2617 4.52731 51.0835 4.70555C50.5488 5.24027 50.121 5.84628 49.9784 6.59489C49.8358 7.16526 49.6932 7.73562 49.6932 8.34164C49.6932 16.2555 49.6932 24.1337 49.6932 32.0475C49.6932 33.01 49.6576 33.9725 49.8358 34.9707C50.014 35.9332 50.2279 36.86 50.8339 37.6799C51.1191 38.0364 51.4756 38.3572 51.7608 38.7137C52.1886 39.2841 52.8302 39.6049 53.4362 39.8901C54.1848 40.2822 55.0761 40.3179 55.896 40.4961C56.0029 40.5318 56.1455 40.5318 56.1811 40.4961C56.4307 40.1753 56.7515 40.3535 57.0367 40.3179C57.2506 40.2822 57.4288 40.2822 57.6427 40.2109C58.32 39.997 58.926 39.6406 59.4964 39.2841C60.3519 38.7494 60.958 38.0364 61.3857 37.1809C61.8135 36.3253 62.17 35.4341 62.0631 34.4716C62.0274 34.1508 62.0987 33.8299 62.0631 33.5448C61.9918 32.9387 61.8848 32.2971 61.5996 31.7624C61.0649 30.8712 60.6015 29.9443 59.639 29.3739C58.926 28.9462 58.2844 28.5184 57.4645 28.3045C56.9297 28.1619 56.395 28.2332 55.9316 28.1263C55.9316 27.0568 55.9316 26.023 55.9316 24.9892C56.7159 24.9536 57.4288 25.2031 58.1418 25.3457C59.8529 25.6309 61.3501 26.6647 62.2769 27.5559C62.9899 28.1976 63.5959 28.9462 64.0237 29.8374C64.0593 29.9443 64.2376 30.0156 64.3802 30.1226C65.0931 29.4096 65.4496 28.5897 65.2001 27.6628C65.0218 26.9855 64.8792 26.3082 64.3445 25.7735C64.2376 25.6666 64.2019 25.4527 64.1306 25.3101C64.8436 24.9536 65.5209 24.5971 66.1626 24.2406C66.6616 23.9911 67.1964 23.3494 67.5528 22.8504C68.1232 21.9948 68.4084 21.068 68.3015 20.0698C68.2658 19.7846 68.2302 19.4638 68.1945 19.1786C68.0519 18.3587 67.5172 17.7171 66.9112 17.0397C66.2339 18.1805 65.307 18.8934 64.2019 19.4638C63.0968 20.0342 61.9205 20.462 60.6371 20.2837C60.6371 19.2856 60.6371 18.3231 60.6371 17.3249C61.1006 17.218 61.564 17.1467 62.1343 17.0397C62.3482 16.9328 62.6334 16.6476 62.9543 16.5763C63.3464 16.4694 63.4533 16.1129 63.7385 15.9703C64.095 15.8277 64.1663 15.4356 64.4158 15.2217C64.6297 15.0078 64.7367 14.687 64.8792 14.4018C65.0575 14.081 64.9862 13.6888 65.0931 13.368C65.2001 13.0472 65.2714 12.7263 65.2357 12.4055C65.2001 12.049 65.1644 11.6925 65.0575 11.3717C64.6654 10.0527 63.1681 8.37729 62.0987 8.37729C61.9918 8.9833 61.9918 9.58932 61.8135 10.124C61.457 11.2291 60.958 12.2629 60.1737 13.0828C59.2112 14.1166 58.1418 15.0435 56.6802 15.293C55.9673 15.7564 55.183 15.5782 54.3987 15.6138C54.3987 14.58 54.3987 13.6175 54.3987 12.6907C54.7196 12.5125 55.0404 12.655 55.3969 12.5125C56.0742 12.2273 56.8228 12.1203 57.3219 11.5143C57.7853 11.443 57.8922 11.0152 58.1061 10.7301C58.32 10.3736 58.5339 10.0527 58.7478 9.69626C58.9973 9.26849 58.7834 8.84071 59.0686 8.41294C59.2825 8.05646 59.033 7.55738 58.926 7.09396C58.6765 5.84628 58.0705 4.91943 57.001 4.20647C56.6446 3.95694 56.2881 3.74305 55.8247 3.60046C55.1473 3.42222 54.5057 3.42222 53.8284 3.45787C53.2937 3.49352 52.6876 3.52916 52.2599 3.95694C52.0816 4.06388 51.8321 4.09953 51.6182 4.17083Z" fill="#515151"/>
<path d="M0.178223 80.6357C10.4448 80.6357 20.7471 80.6357 31.1207 80.6357C31.1563 81.1348 31.1207 81.6695 31.1207 82.2043C31.1207 82.739 31.1207 83.2737 31.1207 83.8084C21.8878 83.8084 12.655 83.8084 3.38654 83.8084C3.38654 84.2362 3.38654 84.6283 3.38654 85.0204C3.38654 86.1968 3.42219 87.4089 3.38654 88.5852C3.35089 89.619 3.67172 90.5102 4.34904 91.2945C5.09764 92.1857 5.63236 92.5778 6.73745 92.9343C6.88004 92.9699 7.02264 93.0056 7.16523 93.0412C7.34347 93.0412 7.55736 93.0412 7.7356 93.0412C34.6855 93.0412 61.671 93.0412 88.6209 93.0412C89.619 93.0412 90.4746 92.7561 91.2232 92.0787C92.15 91.2945 92.4708 90.8667 92.863 89.6903C92.9343 89.5121 92.9699 89.3338 92.9699 89.1913C92.9699 87.4445 92.9699 85.6978 92.9699 83.8797C83.7371 83.8797 74.5043 83.8797 65.2358 83.8797C65.2358 82.7746 65.2358 81.7765 65.2358 80.6714C75.5381 80.6714 85.8403 80.6714 96.1426 80.6714C96.1426 83.8084 96.1426 86.9098 96.1426 90.0468C96.0713 90.0825 96 90.1538 95.9644 90.1894C95.6435 90.4746 95.7861 90.9024 95.6435 91.2588C95.1444 92.3639 94.5741 93.3621 93.6472 94.1463C93.2551 94.4672 92.8986 94.8593 92.4352 95.0732C91.7935 95.3584 91.2945 95.8931 90.5102 95.8574C90.3676 96.1783 89.9042 95.8574 89.7972 96.2496C61.9918 96.2496 34.1864 96.2496 6.34532 96.2496C6.30968 96.1783 6.27403 96.107 6.20273 96.0713C5.8819 95.9644 5.52542 95.8931 5.20459 95.7505C4.0995 95.2871 3.10136 94.681 2.28145 93.7898C1.4259 92.863 0.891182 91.9362 0.534702 90.5815C0.463407 90.3676 0.285167 90.2251 0.178223 90.0468C0.178223 86.8741 0.178223 83.7371 0.178223 80.6357Z" fill="#515151"/>
<path d="M21.6382 20.248C21.7808 20.3906 21.8521 20.4619 21.8878 20.4976C21.8878 21.4601 21.8878 22.4226 21.8878 23.4207C21.4243 23.4207 20.9966 23.4207 20.5688 23.4207C17.3248 23.4207 14.0809 23.4207 10.8369 23.4207C10.0883 23.4207 9.44663 23.6703 8.80497 23.9911C7.98507 24.4189 7.30775 25.0249 6.91563 25.8448C6.5948 26.5221 6.34526 27.2351 6.34526 28.055C6.34526 44.2391 6.34526 60.4233 6.34526 76.6075C6.34526 76.9283 6.34526 77.2135 6.34526 77.57C5.34712 77.57 4.38462 77.57 3.35083 77.57C3.35083 77.2848 3.35083 76.9996 3.35083 76.7144C3.35083 60.2451 3.35083 43.7757 3.35083 27.3063C3.35083 26.8786 3.38648 26.4508 3.56472 26.0587C3.77861 25.5952 3.74296 25.0962 4.02814 24.6684C4.31333 24.3119 4.42027 23.7772 4.70545 23.4564C5.48971 22.6365 6.20267 21.7453 7.23646 21.2462C7.87812 20.961 8.55543 20.6758 9.23274 20.3906C9.26839 20.3906 9.30404 20.3906 9.30404 20.3906C10.0526 20.5332 10.73 20.2124 11.4786 20.2124C14.9008 20.2481 18.2873 20.248 21.6382 20.248Z" fill="#515151"/>
<path d="M74.4685 23.4207C74.4685 22.3869 74.4685 21.4244 74.4685 20.4976C74.5398 20.4263 74.6111 20.355 74.718 20.248C74.9319 20.248 75.2171 20.248 75.5023 20.248C78.4254 20.248 81.3842 20.248 84.3074 20.248C85.1986 20.248 86.0898 20.2837 86.9453 20.4619C87.8009 20.6402 88.6564 20.9967 89.4407 21.4601C90.2962 21.9948 90.9379 22.7434 91.6152 23.4564C91.936 23.8128 92.0786 24.3119 92.3638 24.7397C92.649 25.1675 92.6133 25.7022 92.8272 26.13C93.0055 26.4864 93.0055 26.8786 93.0055 27.2707C93.0055 43.7757 93.0055 60.2807 93.0055 76.7501C93.0055 77.0353 93.0055 77.2848 93.0055 77.57C91.9717 77.57 91.0448 77.57 90.011 77.57C90.011 77.2492 90.011 76.964 90.011 76.6431C90.011 60.459 90.011 44.2748 90.011 28.0906C90.011 26.9855 89.6189 25.9874 88.9772 25.1318C88.4069 24.3476 87.587 23.8485 86.6245 23.5633C86.3036 23.4564 85.9828 23.3851 85.662 23.3851C81.9546 23.4207 78.2472 23.4207 74.4685 23.4207Z" fill="#515151"/>
<path d="M12.5838 77.6057C11.5143 77.6057 10.5519 77.6057 9.55371 77.6057C9.55371 77.3561 9.55371 77.1066 9.55371 76.8571C9.55371 61.065 9.55371 45.3086 9.55371 29.5165C9.55371 28.2332 10.0884 27.3064 11.3361 26.8073C11.4074 26.7716 11.4787 26.629 11.55 26.629C12.0134 26.736 12.4412 26.4152 12.869 26.4152C16.8615 26.4152 20.8541 26.4152 24.8823 26.4152C24.8823 27.4846 24.8823 28.5184 24.8823 29.5878C20.7828 29.5878 16.6833 29.5878 12.5838 29.5878C12.5838 45.5938 12.5838 61.5641 12.5838 77.6057Z" fill="#515151"/>
<path d="M71.4385 29.6591C71.4385 28.554 71.4385 27.5202 71.4385 26.4508C71.688 26.4508 71.9376 26.4508 72.1871 26.4508C75.8588 26.4508 79.4949 26.4508 83.1667 26.4508C83.737 26.4508 84.3074 26.5934 84.6995 26.629C85.5194 26.9499 86.0542 27.3777 86.4463 28.0193C86.6602 28.3401 86.6602 28.6966 86.8028 29.0175C86.8741 29.1601 86.8028 29.3383 86.8028 29.4809C86.8028 45.3442 86.8028 61.2432 86.8028 77.1066C86.8028 77.2492 86.8028 77.4274 86.8028 77.6057C85.8046 77.6057 84.8065 77.6057 83.8083 77.6057C83.8083 61.6354 83.8083 45.6651 83.8083 29.6948C79.7088 29.6591 75.6093 29.6591 71.4385 29.6591Z" fill="#515151"/>
<path d="M62.063 80.6714C62.063 82.5251 62.063 84.3788 62.063 86.2325C62.063 86.8385 61.7778 87.4089 61.457 87.8366C60.6727 88.9061 59.6033 89.619 58.3556 90.0112C58.1774 90.0468 57.9991 90.0112 57.7852 90.0112C51.3686 90.0112 44.9876 90.0112 38.571 90.0112C37.6798 90.0112 36.8955 89.619 36.2182 89.1556C35.3627 88.5496 34.614 87.7653 34.4002 86.6603C34.3645 86.5177 34.2932 86.3751 34.2932 86.2325C34.2932 84.3788 34.2932 82.5607 34.2932 80.6714C43.5617 80.6714 52.7589 80.6714 62.063 80.6714ZM59.0329 83.8441C51.7607 83.8441 44.5598 83.8441 37.3233 83.8441C37.252 84.7353 37.252 85.5908 37.7154 86.3394C37.965 86.5177 38.1788 86.6603 38.3571 86.8385C44.9163 86.8385 51.4755 86.8385 57.9278 86.8385C58.213 86.6603 58.4269 86.5177 58.5338 86.4107C59.1399 85.5552 59.1042 84.6996 59.0329 83.8441Z" fill="#515151"/>
<path d="M24.9536 55.8961C27.1638 55.8961 29.3383 55.8961 31.5485 55.8961C31.905 55.6465 32.2614 55.3613 32.6179 55.1118C32.6179 51.7966 32.6179 48.5526 32.6179 45.2017C32.8318 45.1304 33.0101 45.0591 33.1883 45.0591C34.0438 45.0591 34.8638 45.0591 35.7906 45.0591C35.7906 45.3443 35.7906 45.6294 35.7906 45.879C35.7906 48.7665 35.7906 51.6183 35.7906 54.5058C35.7906 55.4683 35.3272 56.3951 34.8638 57.215C34.436 57.9636 33.723 58.2488 33.117 58.6766C32.6536 58.9974 32.0119 59.1044 31.4415 59.1044C29.3027 59.14 27.1281 59.14 24.9536 59.14C24.9536 57.9993 24.9536 57.0012 24.9536 55.8961Z" fill="#515151"/>
<path d="M63.7029 55.0405C63.8455 55.1831 63.9881 55.2901 64.1307 55.4326C64.4516 55.7535 64.808 55.8961 65.2358 55.8961C67.2677 55.8961 69.2997 55.8961 71.4029 55.8961C71.4029 56.9299 71.4029 57.9636 71.4029 59.0687C71.0821 59.0687 70.7612 59.0687 70.4404 59.0687C68.8006 59.0687 67.1252 59.0331 65.4853 59.0687C64.7367 59.0687 64.0594 58.8905 63.3821 58.6766C63.0256 58.5697 62.7405 58.2845 62.4196 58.0706C62.0988 57.8567 61.671 57.7854 61.6354 57.2863C60.9937 56.7873 60.8155 56.0743 60.6372 55.3613C60.6016 55.1831 60.4946 55.0405 60.4946 54.8623C60.4946 51.6183 60.4946 48.3743 60.4946 45.1304C60.4946 45.0947 60.5303 45.0947 60.5659 45.0234C61.4928 45.0234 62.4553 45.0234 63.4178 45.0234C63.4891 45.0947 63.5604 45.166 63.6317 45.2373C63.7029 48.4813 63.7029 51.7609 63.7029 55.0405Z" fill="#515151"/>
<path d="M43.4549 68.2303C42.4567 68.2303 41.4942 68.2303 40.5317 68.2303C40.5317 61.065 40.5317 53.9354 40.5317 46.6989C40.9952 46.6632 41.4586 46.6989 41.9577 46.6989C42.4567 46.6989 42.9558 46.6989 43.4905 46.6989C43.4549 53.8641 43.4549 60.9937 43.4549 68.2303Z" fill="#515151"/>
<path d="M52.9016 46.6989C53.8998 46.6989 54.8266 46.6989 55.8247 46.6989C55.8247 53.8641 55.8247 61.0294 55.8247 68.2303C54.8266 68.2303 53.8998 68.2303 52.9016 68.2303C52.9016 61.065 52.9016 53.8998 52.9016 46.6989Z" fill="#515151"/>
<path d="M21.8878 59.0331C20.8183 59.0331 19.8202 59.0331 18.7507 59.0331C18.7507 57.9993 18.7507 56.9655 18.7507 55.8604C19.2142 55.8247 19.7489 55.8604 20.2836 55.8604C20.8183 55.8604 21.3174 55.8604 21.8878 55.8604C21.8878 56.9298 21.8878 57.928 21.8878 59.0331Z" fill="#515151"/>
<path d="M77.6055 59.0331C76.5361 59.0331 75.5379 59.0331 74.4685 59.0331C74.4685 57.9993 74.4685 56.9655 74.4685 55.8604C74.9319 55.8247 75.4667 55.8604 76.0014 55.8604C76.5361 55.8604 77.0352 55.8604 77.6055 55.8604C77.6055 56.9298 77.6055 57.928 77.6055 59.0331Z" fill="#515151"/>
<path d="M6.38086 89.9755C6.38086 88.9417 6.38086 87.9079 6.38086 86.8385C7.41465 86.8385 8.44844 86.8385 9.55353 86.8385C9.58918 87.3019 9.55353 87.8366 9.55353 88.3357C9.55353 88.8704 9.55353 89.4052 9.55353 89.9399C8.51974 89.9755 7.48595 89.9755 6.38086 89.9755Z" fill="#515151"/>
<path d="M15.7207 86.8385C15.7207 87.8723 15.7207 88.9061 15.7207 89.9755C14.6869 89.9755 13.6532 89.9755 12.5481 89.9755C12.5124 89.5121 12.5481 88.9774 12.5481 88.4783C12.5481 87.9436 12.5481 87.4089 12.5481 86.8741C13.6175 86.8385 14.6157 86.8385 15.7207 86.8385Z" fill="#515151"/>
<path d="M21.9234 86.8385C21.9234 87.9079 21.9234 88.9061 21.9234 89.9755C20.8896 89.9755 19.8558 89.9755 18.7864 89.9755C18.7864 88.9774 18.7864 87.9079 18.7864 86.8385C19.7845 86.8385 20.8183 86.8385 21.9234 86.8385Z" fill="#515151"/>
<path d="M43.4549 74.433C42.4567 74.433 41.4942 74.433 40.5317 74.433C40.5317 73.4705 40.5317 72.508 40.5317 71.4742C40.9952 71.4386 41.4586 71.4742 41.9577 71.4742C42.4567 71.4742 42.9558 71.4742 43.4905 71.4742C43.4549 72.4367 43.4549 73.3636 43.4549 74.433Z" fill="#515151"/>
<path d="M55.8604 71.4742C55.8604 72.4724 55.8604 73.3992 55.8604 74.433C55.397 74.4686 54.8979 74.433 54.3988 74.433C53.8998 74.433 53.4007 74.433 52.866 74.433C52.866 73.4348 52.866 72.508 52.866 71.4742C53.8641 71.4029 54.8623 71.4386 55.8604 71.4742Z" fill="#515151"/>
<path d="M40.4603 28.1263C40.4603 27.0212 40.4603 26.023 40.4603 24.9179C36.7529 25.1675 33.9367 26.7716 32.1543 30.0512C31.2631 29.4452 30.9067 28.4827 31.1919 27.5559C31.4057 26.8786 31.6196 26.2369 32.0118 25.6665C32.0831 25.5596 32.1543 25.417 32.2613 25.2744C31.7979 25.0249 31.3701 24.7397 30.9067 24.5971C30.1224 24.3119 29.5164 23.8128 29.053 23.2068C28.5183 22.4939 28.0905 21.674 28.0548 20.7115C28.0192 19.7846 28.0905 18.8578 28.6252 18.0379C28.8391 17.717 29.0886 17.4319 29.3382 17.0754C29.4451 17.1467 29.5877 17.1823 29.659 17.3249C30.6571 18.8934 32.2256 19.6064 33.9367 20.1411C34.5428 20.3193 35.1131 20.2837 35.7548 20.3193C35.7548 19.3212 35.7548 18.3587 35.7548 17.3606C35.2914 17.2536 34.8279 17.1823 34.4358 17.111C32.903 16.5763 31.8692 15.5425 31.2988 14.0097C31.2275 13.6175 31.0849 13.1541 31.0849 12.6907C31.0849 12.2273 31.1562 11.7282 31.2631 11.2648C31.3701 10.8726 31.584 10.4449 31.8692 10.124C32.1544 9.7319 32.5465 9.37542 32.9386 9.05459C33.2951 8.76941 33.7229 8.55552 34.2219 8.23469C34.3645 10.1597 35.0062 11.7638 36.1469 13.1541C36.8955 14.0453 37.858 14.7583 38.9631 15.186C39.89 15.5425 40.8881 15.899 41.9575 15.6495C41.9575 14.687 41.9575 13.7245 41.9575 12.6907C41.2446 12.8333 40.6742 12.4055 39.9969 12.2986C39.8187 12.2629 39.6048 12.1203 39.4978 11.9777C39.2126 11.5499 38.6423 11.5143 38.3927 10.9439C38.1789 10.4449 37.7154 10.0527 37.5728 9.48237C37.4659 8.87635 37.1451 8.23469 37.3233 7.62867C37.5015 6.88006 37.6441 6.06016 38.1076 5.4185C38.6066 4.74119 39.2126 4.13517 40.0682 3.81434C40.4603 3.67175 40.8881 3.49351 41.3159 3.49351C41.9932 3.45786 42.7061 3.35092 43.3835 3.67175C43.4904 3.70739 43.633 3.67175 43.6686 3.67175C43.9538 3.81434 44.1321 3.95693 44.346 4.06387C45.5223 4.81248 46.2709 5.84627 46.5205 7.27219C46.6631 8.09209 46.6631 8.912 46.6631 9.7319C46.6631 17.7883 46.6631 25.8448 46.6631 33.9012C46.6631 34.2577 46.6987 34.6142 46.4848 34.9707C46.3422 35.2558 46.5561 35.6123 46.3779 35.9332C46.1997 36.2183 46.2353 36.6105 46.0927 36.9313C45.9501 37.2521 45.7362 37.5373 45.558 37.8225C45.2015 38.3572 43.5973 39.8544 42.9913 39.9614C42.421 40.104 41.8862 40.4605 41.2802 40.3892C41.1376 40.3535 40.9594 40.5317 40.7812 40.5317C40.5673 40.5674 40.3534 40.5317 40.1395 40.4961C39.9969 40.4605 39.8543 40.3535 39.7474 40.3535C38.7849 40.4605 37.9293 39.997 37.1807 39.5336C36.1113 38.8919 35.2557 38.0007 34.7923 36.7887C34.5071 36.0758 34.2576 35.3628 34.2576 34.5429C34.2932 33.6517 34.3289 32.7961 34.6497 31.9762C34.7923 31.6198 35.0062 31.2276 35.2201 30.9068C35.7548 30.1225 36.3965 29.3739 37.2877 28.9818C37.6085 28.8392 37.858 28.5897 38.1789 28.4471C38.5353 28.2688 38.9275 28.3758 39.2839 28.1619C39.5691 27.9837 40.0326 28.1263 40.4603 28.1263Z" fill="#FFDA2F"/>
<path d="M51.6183 4.17083C51.8322 4.09954 52.1174 4.06389 52.26 3.88565C52.6878 3.42223 53.2938 3.38658 53.8285 3.38658C54.5058 3.35093 55.1475 3.35093 55.8248 3.52917C56.2882 3.63611 56.609 3.88565 57.0012 4.13519C58.0706 4.8125 58.7123 5.77499 58.9262 7.02267C58.9975 7.45045 59.2826 7.98517 59.0688 8.34165C58.8192 8.76942 59.0331 9.1972 58.7479 9.62497C58.534 9.98145 58.3201 10.3023 58.1063 10.6588C57.928 10.9796 57.8211 11.4074 57.322 11.443C56.8229 12.049 56.0743 12.1916 55.397 12.4412C55.0762 12.5838 54.7197 12.4412 54.3989 12.6194C54.3989 13.5819 54.3989 14.5087 54.3989 15.5425C55.1831 15.5069 55.9674 15.6851 56.6803 15.2217C58.1419 14.9722 59.2113 14.0453 60.1738 13.0115C60.9581 12.156 61.4928 11.1222 61.8136 10.0527C61.9919 9.48238 62.0275 8.87637 62.0988 8.306C63.1683 8.306 64.6655 9.98145 65.0576 11.3004C65.1646 11.6569 65.2002 11.9777 65.2359 12.3342C65.2715 12.6551 65.2002 12.9759 65.0933 13.2967C64.9863 13.6175 65.022 14.0097 64.8794 14.3305C64.7368 14.6157 64.6298 14.9365 64.4159 15.1504C64.1664 15.3999 64.0595 15.7564 63.7386 15.899C63.4178 16.0416 63.3109 16.3981 62.9544 16.505C62.6336 16.5763 62.3484 16.8259 62.1345 16.9685C61.5641 17.0754 61.1007 17.1823 60.6373 17.2536C60.6373 18.2518 60.6373 19.2143 60.6373 20.2124C61.9206 20.355 63.0613 19.9629 64.2021 19.3925C65.3071 18.8222 66.2696 18.1092 66.9113 16.9685C67.4817 17.6458 68.0164 18.2518 68.1946 19.1073C68.2303 19.3925 68.2659 19.7134 68.3016 19.9985C68.4085 21.0323 68.1233 21.9235 67.553 22.7791C67.2321 23.2781 66.6618 23.9198 66.1627 24.1693C65.4854 24.5258 64.8437 24.8467 64.1308 25.2388C64.2021 25.3814 64.2377 25.5953 64.3447 25.7022C64.8437 26.2369 64.9863 26.9499 65.2002 27.5916C65.4854 28.5541 65.0933 29.3383 64.3803 30.0513C64.2377 29.9443 64.0595 29.873 64.0238 29.7661C63.6317 28.8749 62.99 28.1263 62.2771 27.4846C61.3146 26.5934 59.8174 25.5596 58.1419 25.2744C57.429 25.1318 56.716 24.8823 55.9317 24.918C55.9317 25.9517 55.9317 26.9855 55.9317 28.055C56.3952 28.1619 56.9299 28.1263 57.4646 28.2332C58.2845 28.4471 58.9618 28.8749 59.6391 29.3027C60.566 29.873 61.065 30.7999 61.5998 31.6911C61.9206 32.1901 61.9919 32.8318 62.0632 33.4735C62.0988 33.7943 62.0632 34.1151 62.0632 34.4003C62.1345 35.3985 61.8136 36.254 61.3859 37.1096C60.9224 37.9651 60.3164 38.6781 59.4965 39.2128C58.8905 39.6049 58.2845 39.9258 57.6428 40.1396C57.4289 40.2109 57.2507 40.2109 57.0368 40.2466C56.7516 40.2822 56.3952 40.104 56.1813 40.4248C56.1456 40.4605 56.003 40.4605 55.8961 40.4248C55.0762 40.2466 54.185 40.2109 53.4364 39.8188C52.8304 39.498 52.1887 39.2128 51.7609 38.6424C51.4757 38.2859 51.1193 37.9651 50.8341 37.6086C50.2637 36.8244 50.0142 35.8975 49.8359 34.8994C49.6577 33.9012 49.6933 32.9387 49.6933 31.9763C49.6933 24.0624 49.6933 16.1842 49.6933 8.27035C49.6933 7.66434 49.8359 7.09397 49.9785 6.5236C50.1568 5.81064 50.5489 5.16898 51.0836 4.63426C51.2619 4.52731 51.4401 4.34907 51.6183 4.17083Z" fill="#FFDA2F"/>
</g>
<defs>
<clipPath id="clip0_2716_1556">
<rect width="96" height="96" fill="white"/>
</clipPath>
</defs>
</svg>
