<svg width="96" height="96" viewBox="0 0 96 96" fill="none" xmlns="http://www.w3.org/2000/svg">
<g clip-path="url(#clip0_2716_1540)">
<path d="M20.9966 96.1782C20.0698 96.1782 19.1073 96.1782 18.1805 96.1782C18.1448 96.1069 18.1092 96 18.0379 96C17.0041 95.7148 16.0059 95.394 15.0791 94.7167C14.6869 94.4315 14.4018 94.1106 14.0453 93.8255C13.6532 93.5403 13.2967 93.2194 12.9402 92.8986C12.4411 92.3995 12.0134 91.8648 11.5143 91.3301C10.6587 90.4033 9.80318 89.4408 9.01892 88.407C8.51985 87.7653 8.12772 87.088 7.62865 86.482C7.23652 85.9829 6.95134 85.4482 6.63051 84.9135C5.98884 83.9153 5.41848 82.8459 4.84811 81.8121C4.13515 80.5644 3.63608 79.1741 3.03006 77.8908C2.70923 77.1778 2.45969 76.4292 2.24581 75.6806C2.03192 74.8607 1.67544 74.0765 1.56849 73.2566C1.46155 72.5436 1.17637 71.8663 1.06942 71.1177C1.03377 70.7256 0.998126 70.3334 0.891182 69.977C0.677294 69.4066 0.677294 68.8006 0.57035 68.2302C0.427758 67.5529 0.427758 66.8756 0.320815 66.1626C0.320815 66.127 0.213871 66.127 0.178223 66.0913C0.178223 59.9599 0.178223 53.8284 0.178223 47.7326C0.213871 47.697 0.320815 47.697 0.320815 47.6613C0.356463 46.7345 0.641646 45.8789 0.92683 44.9877C1.21201 44.0965 1.46155 43.134 1.96062 42.3141C2.56664 41.316 3.137 40.2822 3.88561 39.3553C4.77681 38.2503 5.77495 37.3234 6.7731 36.3609C7.34347 35.7905 8.09207 35.3628 8.80503 34.9706C10.9083 33.8299 12.2629 33.2952 14.6157 32.9031C15.0791 32.5466 15.6494 32.8318 16.1129 32.6892C16.6119 32.5466 17.111 32.5109 17.6457 32.5109C19.642 32.6179 21.674 32.297 23.6702 32.6892C24.3832 32.5466 25.0962 32.7605 25.7378 32.9031C26.6647 33.1526 27.5915 33.4021 28.4827 33.7586C30.2651 34.5072 32.1545 35.5767 33.3665 36.6817C33.4734 36.7887 33.616 36.86 33.723 36.9669C34.2933 37.5017 34.935 37.9651 35.3984 38.5354C35.8975 39.1415 36.3253 39.7831 36.8243 40.2822C37.5373 40.2822 38.179 40.2822 38.8563 40.2822C38.8563 39.7831 38.8206 39.3197 38.8563 38.8563C38.8919 38.4285 38.9632 37.9651 39.0345 37.5373C39.0345 37.466 39.1415 37.3947 39.1771 37.3234C39.5336 36.0757 40.2822 35.1845 41.4586 34.6498C41.7438 34.5072 42.0289 34.3646 42.3854 34.1864C43.5618 34.1864 44.8095 34.1864 46.0572 34.1864C46.3067 34.1864 46.5562 34.1864 46.7345 33.8656C46.7345 32.3327 46.7345 30.7285 46.7345 29.16C46.7345 28.3401 46.9484 27.6985 47.4118 26.9855C48.4099 25.5239 49.7289 24.811 51.4757 24.811C64.7011 24.811 77.9265 24.811 91.1162 24.811C91.2588 24.811 91.437 24.811 91.5796 24.811C92.0787 24.8466 92.4352 24.5971 92.756 24.2406C92.863 24.098 92.9343 23.9198 93.0056 23.7772C93.0056 23.4207 93.0056 23.0286 93.0056 22.6721C92.7204 22.3513 92.4352 22.1017 92.1857 21.8165C84.3431 21.8165 76.5005 21.8165 68.658 21.8165C67.1251 21.8165 65.8061 21.2462 64.7724 20.0698C64.202 19.3925 63.7386 18.6439 63.7742 17.6814C63.7742 17.5031 63.6673 17.2892 63.6316 17.1823C63.7029 16.9328 63.7386 16.7189 63.7742 16.5406C63.8099 16.2911 63.8099 16.0772 63.8812 15.8277C64.0594 14.9008 64.6298 14.2235 65.3427 13.6175C66.1626 12.9402 67.0538 12.4411 68.1233 12.4411C72.6149 12.4411 77.1066 12.4411 81.6339 12.4411C83.0241 12.4411 84.45 12.4411 85.5551 12.4411C86.375 12.2272 86.6246 11.7995 86.8385 11.4073C86.8385 10.9796 86.8385 10.6231 86.8385 10.2666C86.5533 9.98141 86.2681 9.69623 86.0542 9.48234C74.5042 9.48234 62.99 9.48234 51.44 9.48234C51.44 10.0171 51.44 10.5161 51.44 11.0152C51.44 11.5143 51.4757 11.9777 51.44 12.5124C48.1604 12.5124 44.9521 12.5124 41.7438 12.5124C41.5655 13.261 41.0308 13.7601 40.6743 14.3661C40.2109 14.5087 39.997 14.9721 39.5692 15.0791C39.1771 15.186 38.8919 15.5425 38.4285 15.5068C38.0007 15.4712 37.5729 15.6851 37.1095 15.6851C31.798 15.6494 26.4864 15.6851 21.1749 15.6851C20.8897 15.6851 20.6402 15.6851 20.3193 15.6851C20.3193 14.58 20.3193 13.5462 20.3193 12.5124C17.4318 12.5124 14.6157 12.5124 11.7638 12.5124C11.5143 12.5124 11.2647 12.6194 11.0152 12.7263C9.91012 13.261 8.80503 13.867 7.73559 14.4018C5.41848 12.2629 3.2796 10.124 1.14072 7.98513C1.10507 7.94948 1.10507 7.91383 1.10507 7.91383C1.10507 7.87818 1.10507 7.84253 1.10507 7.84253C3.24395 5.7393 5.34718 3.63607 7.52171 1.46155C7.73559 1.53284 8.09207 1.56849 8.34161 1.67543C9.16151 2.06756 9.94577 2.49534 10.73 2.92311C11.0509 3.10135 11.3717 3.2083 11.7638 3.2083C14.3661 3.2083 16.9684 3.2083 19.5351 3.2083C19.7846 3.2083 19.9985 3.2083 20.248 3.17265C20.248 2.13886 20.248 1.17636 20.248 0.213867C26.2369 0.213867 32.2614 0.213867 38.2503 0.213867C38.3216 0.285163 38.3929 0.392107 38.4998 0.392107C38.7137 0.427755 38.8919 0.463403 39.1058 0.534699C40.3535 1.03377 41.1734 1.96062 41.7438 3.2083C44.8808 3.2083 48.0178 3.2083 51.1548 3.2083C51.2618 3.31524 51.3331 3.38654 51.44 3.49348C51.44 4.42033 51.44 5.38282 51.44 6.38097C55.5039 6.38097 59.4965 6.38097 63.489 6.38097C70.7969 6.38097 78.1047 6.38097 85.4125 6.38097C85.9473 6.38097 86.4107 6.6305 86.9098 6.59485C87.6227 7.02263 88.3713 7.37911 88.9417 8.05642C89.3338 8.51985 89.9398 9.80317 90.0111 10.3379C90.1894 12.1203 89.5477 13.974 87.8366 15.0078C87.4801 15.2217 87.088 15.3643 86.6602 15.5425C86.0186 15.5425 85.3412 15.7564 84.5926 15.7564C79.2811 15.7207 73.9695 15.7564 68.658 15.7564C68.4797 15.7564 68.2659 15.7564 68.0876 15.7564C67.5529 15.792 67.1608 16.0416 66.9469 16.505C66.6617 17.1823 66.6617 17.5744 67.0538 18.0022C67.339 18.323 67.6955 18.5369 67.9807 18.7508C75.8232 18.7508 83.5588 18.7508 91.2944 18.7508C92.4352 18.7508 93.4333 19.0716 94.3602 19.7133C95.1444 20.248 95.8574 21.4244 96 22.3869C96 22.4582 96.1069 22.4939 96.1782 22.5295C96.1782 23.2068 96.1782 23.9198 96.1782 24.5971C96.1069 24.6684 96.0356 24.7397 96 24.8466C95.7861 25.7022 95.2514 26.4151 94.6097 26.9855C93.6472 27.8054 92.3282 28.1619 91.0806 28.1619C78.1404 28.1619 65.2001 28.1619 52.2956 28.1619C51.7608 28.1619 51.2261 28.1619 50.7271 28.1619C50.0497 28.3401 50.0497 29.0174 49.7289 29.4452C49.7289 30.9781 49.7289 32.5109 49.7289 34.0438C49.7289 34.0794 49.7646 34.0794 49.7646 34.1151C49.8359 34.1864 49.9072 34.2577 50.0141 34.3646C50.9053 34.3646 51.8321 34.4003 52.759 34.3646C53.6858 34.2933 54.5414 34.5429 55.3256 35.0063C56.2525 35.541 56.8942 36.3253 57.2506 37.3591C57.3576 37.6799 57.3219 38.0364 57.4289 38.3216C57.6071 38.678 57.5715 39.0345 57.6071 39.391C57.6071 39.7831 57.6071 40.1753 57.6071 40.5674C58.3201 40.5674 58.9974 40.5674 59.6034 40.5674C59.8173 40.3535 60.0668 40.1753 60.2094 39.9257C60.6015 39.2484 61.1719 38.7493 61.6353 38.179C62.0275 37.7155 62.5622 37.3591 62.99 36.9669C63.7386 36.254 64.5941 35.6836 65.4497 35.1845C66.8043 34.4003 68.2659 33.8299 69.7631 33.4021C70.476 33.1882 71.189 33.117 71.9019 32.9387C72.7575 32.7605 73.6487 32.7605 74.5399 32.7248C75.4668 32.6892 76.4292 32.7605 77.3561 32.6892C78.6394 32.6179 79.8515 32.8318 81.1348 32.9031C81.5626 32.9387 82.0616 32.9387 82.4538 33.0813C82.9528 33.2952 83.4875 33.2595 83.951 33.5447C84.4144 33.8299 85.0204 33.8299 85.5195 34.0438C87.0167 34.7211 88.4783 35.4697 89.7259 36.5748C91.0449 37.7512 92.3639 38.9632 93.3264 40.4961C94.0393 41.6368 94.681 42.8489 95.1801 44.1322C95.6435 45.3799 95.9643 46.6275 96.1426 47.9465C96.1426 47.9822 96.2495 47.9822 96.2852 48.0178C96.2852 54.078 96.2852 60.1381 96.2852 66.1983C96.2139 66.2696 96.1069 66.3409 96.1069 66.4478C96.0713 66.7686 96.2139 67.1251 96.0713 67.3746C95.8574 67.7311 95.9643 68.0876 95.893 68.4441C95.8574 68.7649 95.7861 69.0858 95.7148 69.4066C95.6435 69.7631 95.6079 70.1196 95.5366 70.4404C95.394 71.1177 95.3583 71.8663 95.1088 72.508C94.8949 73.0783 94.8592 73.6843 94.6097 74.2547C94.3602 74.8251 94.2176 75.4667 94.0393 76.0728C93.5046 77.7839 92.7917 79.4237 92.0431 81.0635C91.7222 81.7764 91.3301 82.4537 90.938 83.1311C90.225 84.3431 89.512 85.5551 88.7278 86.6959C87.8722 87.9079 86.9454 89.0843 86.0542 90.2607C85.3056 91.1875 84.45 92.0431 83.6301 92.8986C83.2024 93.362 82.632 93.7185 82.2042 94.1819C81.4556 95.0018 79.3524 96.0356 78.1047 96.0713C78.0691 96.0713 77.9978 96.1782 77.9621 96.2495C77.0353 96.2495 76.0728 96.2495 75.1459 96.2495C75.1103 96.1782 75.0746 96.1069 75.0033 96.0713C74.4686 95.893 73.9339 95.7504 73.4348 95.5722C71.9376 95.0018 70.2621 93.4333 69.3353 91.7222C68.7649 90.6171 68.551 89.4408 68.4084 88.2644C68.3372 87.6227 68.4441 86.9454 68.2302 86.2681C68.052 85.6977 67.8737 85.0917 67.5173 84.5926C67.2677 84.2361 66.9469 83.951 66.733 83.5945C66.4835 83.2024 66.0913 83.0241 65.8062 82.7033C65.5566 82.4181 65.2714 82.2042 64.808 82.2042C64.7367 82.2399 64.6298 82.3825 64.4872 82.3825C63.596 82.4894 62.7048 82.3468 61.8849 82.1329C61.1006 81.919 60.2451 81.6695 59.6034 81.0991C59.3895 80.9209 59.1756 80.7426 58.9617 80.6001C58.0705 79.9227 57.2506 78.9246 56.7516 77.8908C56.502 77.3561 56.3238 76.8214 56.1099 76.251C50.9053 76.251 45.7007 76.251 40.4961 76.251C40.104 77.1422 39.8901 78.069 39.3197 78.8889C38.7493 79.7089 38.072 80.4218 37.2521 81.0278C36.4322 81.5982 35.541 82.0973 34.5785 82.2399C33.616 82.3824 32.6179 82.8102 31.7267 82.2755C31.085 82.3825 30.8355 83.0241 30.3721 83.2024C30.0512 83.3093 30.1225 83.5588 29.9443 83.7371C28.7679 84.9135 28.2688 86.3394 28.2332 87.9792C28.2332 88.6208 28.1262 89.2269 28.0549 89.8685C27.6628 90.0824 27.8767 90.4745 27.7698 90.7954C27.2707 91.9718 26.7716 92.863 25.9517 93.6829C25.7378 93.8967 25.5239 94.075 25.3457 94.2889C24.5971 95.1444 22.5295 96.1426 21.2462 96.1782C21.1036 96 21.0323 96.1069 20.9966 96.1782ZM92.6134 68.6223C92.6134 68.3728 92.5421 68.0876 92.6134 67.8737C92.8986 67.3034 92.6134 66.6973 92.8273 66.1626C93.0412 65.5566 92.9699 64.9506 92.9699 64.3446C92.9699 59.3895 92.9699 54.3988 92.9699 49.4437C92.9699 48.8734 93.0768 48.2673 92.7917 47.7326C92.7917 46.6632 92.3639 45.6294 92.0074 44.7025C91.3657 43.134 90.4389 41.6725 89.2625 40.4248C88.3 39.391 87.1593 38.5711 85.9473 37.7868C84.4857 36.8956 82.9528 36.4322 81.3487 36.0044C80.5644 35.7905 79.7089 35.8262 78.889 35.7906C77.463 35.7549 76.0015 35.7906 74.5755 35.7906C73.3992 35.7549 72.2228 35.9331 71.082 36.1827C70.0126 36.3966 69.0145 36.753 68.052 37.2165C67.0895 37.6799 66.1983 38.2503 65.3784 38.9276C64.4515 39.6405 63.6673 40.4604 62.9187 41.3516C62.3839 42.0289 61.9562 42.7776 61.4214 43.4549C52.5807 43.4549 43.7401 43.4549 34.8994 43.4549C34.0082 41.922 32.9387 40.5674 31.6197 39.391C30.8711 38.7137 30.0512 38.1433 29.16 37.6442C28.0906 37.0739 26.9855 36.5748 25.7735 36.2896C24.7397 36.0401 23.6702 35.8262 22.6008 35.7906C21.4601 35.7549 20.2837 35.7549 19.1429 35.7906C17.9666 35.8262 16.8258 35.7193 15.6494 35.9331C14.8295 36.0757 14.0453 36.2183 13.261 36.4679C12.2272 36.7887 11.2647 37.2521 10.3379 37.7868C9.41105 38.3572 8.5555 38.9989 7.77124 39.7118C7.23652 40.2109 6.73745 40.7456 6.30967 41.3516C5.8819 41.9933 5.41848 42.5993 5.062 43.2766C4.63422 44.0609 4.27774 44.8808 3.99256 45.7363C3.70737 46.6988 3.38654 47.6613 3.38654 48.6595C3.35089 54.1849 3.38654 59.7103 3.38654 65.2358C3.38654 65.414 3.31524 65.6636 3.38654 65.7705C3.70737 66.1983 3.49348 66.6617 3.56478 67.1251C3.60043 67.5885 3.88561 68.052 3.74302 68.551C3.88561 69.0858 4.0282 69.6205 4.0995 70.1908C4.20644 71.1533 4.52728 72.0802 4.74116 73.007C4.95505 73.9339 5.27588 74.8251 5.59671 75.7519C5.91755 76.6788 6.30967 77.6056 6.73745 78.4612C7.37911 79.7802 8.02078 81.1348 8.76939 82.4181C9.4467 83.5945 10.1953 84.7352 10.9796 85.8047C12.049 87.3019 13.261 88.7278 14.58 90.0468C14.9365 90.4032 15.293 90.7597 15.6494 91.1162C16.0416 91.4727 16.3981 91.8292 16.8258 92.1143C17.6457 92.6847 18.5369 93.0412 19.5707 93.0055C19.8559 92.9699 20.1411 93.0055 20.4263 93.0055C21.1749 92.9699 21.8522 92.6847 22.4939 92.3282C23.1712 91.9718 23.7059 91.437 24.0624 90.7597C24.5614 89.9042 24.9536 89.0486 24.9179 88.0148C24.9179 87.6227 24.9179 87.1949 24.9179 86.8028C24.9892 86.6602 25.0962 86.5533 25.0962 86.4107C25.0962 85.4125 25.5239 84.5213 25.9161 83.6658C26.4151 82.632 27.0212 81.6338 27.9123 80.9209C27.9123 80.7426 27.9123 80.6713 27.9123 80.6001C27.6985 80.4218 27.4489 80.2792 27.2707 80.101C27.0211 79.8158 26.8073 79.495 26.5221 79.1741C25.4526 77.9621 25.0605 76.5005 24.8823 74.9677C24.811 74.3617 24.9536 73.7556 25.0249 73.1853C25.2031 71.8307 25.7378 70.6899 26.5577 69.6918C27.8054 68.1589 28.8035 67.5885 30.7642 66.9469C31.2989 66.7686 33.1526 66.5904 33.6873 66.7686C34.2577 66.9469 34.8281 66.9825 35.3628 67.2321C36.8243 67.8737 38.1433 68.7649 39.0345 70.1195C39.3554 70.6186 39.6405 71.1177 39.8901 71.6524C40.0683 72.0802 40.1753 72.5436 40.3178 72.9357C45.5937 72.9357 50.7984 72.9357 56.003 72.9357C56.5733 71.0464 57.4645 69.4422 59.1043 68.2659C60.7441 67.0895 62.5265 66.6617 64.4872 66.7686C65.0575 66.8043 65.6279 67.0895 66.1983 67.1608C66.6261 67.2321 67.0538 67.5173 67.446 67.7668C67.8024 67.9807 68.1589 68.1589 68.4797 68.4441C68.9432 68.8362 69.4422 69.264 69.7987 69.7631C70.2265 70.3334 70.5473 70.9395 70.8682 71.5811C71.189 72.2228 71.2603 72.9357 71.4029 73.613C71.6524 74.9677 71.3672 76.3223 70.8325 77.57C70.3334 78.7464 69.5848 79.8514 68.4084 80.6357C68.4441 80.7426 68.4797 80.9565 68.5867 81.0635C69.1571 81.5625 69.5848 82.2042 69.977 82.8459C70.6186 83.9153 71.1533 85.056 71.2603 86.3394C71.2603 86.5176 71.3672 86.6602 71.4385 86.8384C71.4385 87.1593 71.4385 87.4801 71.4385 87.7653C71.3672 88.7634 71.6881 89.6903 72.1871 90.5458C72.7575 91.544 73.5418 92.2926 74.6825 92.6847C75.3242 92.8986 75.9302 93.0412 76.6075 93.0055C76.9996 93.0055 77.4274 93.0412 77.7839 92.9343C78.889 92.6491 79.8514 92.0431 80.6357 91.2231C81.5269 90.2963 82.4538 89.4051 83.3093 88.407C84.0223 87.5871 84.6996 86.7315 85.3769 85.876C86.3394 84.6639 87.1949 83.3449 87.9079 81.9547C88.8347 80.2079 89.7972 78.4255 90.4389 76.5362C90.6528 75.9658 90.831 75.3954 91.0806 74.8251C91.2588 74.433 91.2944 74.0052 91.4727 73.5774C91.6153 73.1853 91.7579 72.7575 91.8292 72.3297C92.0074 71.2603 92.4352 70.2265 92.4708 69.1214C92.4352 68.9432 92.5421 68.8006 92.6134 68.6223ZM38.0007 3.42218C33.117 3.42218 28.3045 3.42218 23.492 3.42218C23.3851 6.27402 23.4207 11.7995 23.5633 12.5837C28.1262 12.5837 32.6892 12.5837 37.2165 12.5837C37.8225 12.5837 38.2503 12.3342 38.6424 11.9064C38.7137 11.7995 38.7493 11.6569 38.8563 11.443C38.8563 9.09021 38.8563 6.66615 38.8563 4.24209C38.5354 3.9569 38.2859 3.70737 38.0007 3.42218ZM28.1262 74.3617C27.8767 76.9996 30.4434 79.1385 32.5466 79.1385C33.8656 79.1385 34.9706 78.7107 35.9331 77.7839C36.8243 76.9283 37.2878 75.8945 37.3234 74.6112C37.3591 73.3279 36.8956 72.2584 36.0044 71.2959C35.1845 70.4404 34.2577 69.9413 33.01 69.87C31.5841 69.7987 30.3364 70.1908 29.3383 71.189C28.554 72.0802 28.0193 73.114 28.1262 74.3617ZM68.2302 74.5042C68.5154 72.1158 65.9487 69.7631 63.9524 69.9413C61.1719 69.5135 58.9974 72.3297 59.033 74.3973C59.0687 75.7163 59.4965 76.8214 60.4233 77.7482C61.3145 78.6394 62.3483 79.0672 63.596 79.1385C65.9131 79.2811 68.4441 76.964 68.2302 74.5042ZM5.63236 7.98513C6.59486 8.94762 7.45041 9.80317 8.34161 10.6944C8.98327 10.3735 9.73188 9.98141 10.5518 9.55364C13.6888 9.55364 16.9684 9.55364 20.248 9.55364C20.248 8.4842 20.248 7.45041 20.248 6.38097C17.3605 6.38097 14.5444 6.34532 11.6925 6.38097C10.9796 6.38097 10.3379 6.23838 9.73188 5.8819C9.26846 5.59671 8.73374 5.41847 8.30596 5.20458C7.37911 6.13143 6.52356 6.98698 5.63236 7.87818C5.63236 7.91383 5.63236 7.98513 5.63236 7.98513ZM53.1868 37.3234C49.8359 37.3234 46.5206 37.3234 43.2053 37.3234C43.134 37.3947 43.0627 37.466 42.9914 37.5017C42.4211 37.6799 42.1359 38.1433 41.9933 38.678C41.922 38.9632 41.9577 39.284 41.9933 39.6049C41.9933 39.8901 42.0289 40.2109 42.0289 40.4604C46.1641 40.4604 50.2636 40.4604 54.3631 40.4604C54.3631 39.9257 54.3631 39.4266 54.3631 38.9276C54.3631 38.5354 54.2919 38.2146 54.0067 37.9651C53.7215 37.7512 53.4363 37.5017 53.1868 37.3234ZM42.0289 6.38097C42.0289 7.48605 42.0289 8.4842 42.0289 9.55364C44.0609 9.55364 46.0572 9.55364 48.0535 9.55364C48.0891 9.55364 48.1248 9.55364 48.1248 9.51799C48.1604 9.51799 48.1604 9.48234 48.1604 9.48234C48.1604 8.4129 48.1604 7.41476 48.1604 6.38097C46.0928 6.38097 44.0965 6.38097 42.0289 6.38097Z" fill="#515151"/>
<path d="M3.74292 68.6223C4.34894 68.4798 4.9193 68.8006 5.52532 68.8006C6.13134 68.8362 6.66605 69.0858 7.23642 69.1214C8.51975 69.2284 9.69613 69.6561 10.8725 70.1196C12.1558 70.6543 13.4392 71.2247 14.5443 72.1159C15.079 72.5436 15.5781 72.9714 16.0415 73.4705C16.5762 74.0765 17.1466 74.6825 17.5387 75.3598C17.9308 76.0015 18.4655 76.6431 18.5368 77.463C19.2854 78.6038 19.535 79.9228 19.9628 81.1704C20.3549 82.3468 20.7114 83.4876 21.3174 84.557C21.9234 85.6264 22.8502 86.3037 24.0266 86.5176C24.3118 86.5889 24.5613 86.8028 24.8822 86.7315C24.8822 87.1237 24.8822 87.5514 24.8822 87.9436C24.9178 88.9417 24.49 89.8329 24.0266 90.6884C23.6345 91.3658 23.1354 91.9005 22.4581 92.257C21.8164 92.5778 21.1391 92.8986 20.3905 92.9343C20.1053 92.9343 19.8202 92.9343 19.535 92.9343C18.5012 93.0056 17.61 92.6134 16.7901 92.0431C16.3623 91.7579 15.9702 91.4014 15.6137 91.0449C15.2572 90.7241 14.9007 90.332 14.5443 89.9755C13.1896 88.6922 12.0133 87.2306 10.9438 85.7334C10.1596 84.6639 9.41095 83.5232 8.73364 82.3468C7.98503 81.0635 7.34337 79.7445 6.7017 78.3899C6.27393 77.4987 5.8818 76.6075 5.56097 75.6806C5.24014 74.7894 4.88366 73.8626 4.70542 72.9358C4.49153 71.9733 4.1707 71.0821 4.06375 70.1196C4.06375 69.6918 3.88551 69.1571 3.74292 68.6223Z" fill="#FFDA2F"/>
<path d="M71.4386 86.8028C73.1853 86.4463 74.3261 86.0185 75.1816 84.3431C75.752 83.2736 76.1441 82.0972 76.5006 80.9565C76.964 79.4236 77.4275 77.9264 78.1761 76.5005C78.4969 75.8945 78.8534 75.3241 79.2455 74.7894C79.5307 74.3616 79.8872 74.0051 80.2436 73.613C81.3844 72.3297 82.7746 71.4385 84.3075 70.7255C85.3413 70.2265 86.4464 69.87 87.5871 69.5492C88.514 69.264 89.4765 69.157 90.4033 68.8718C91.1163 68.658 91.9005 68.7293 92.6491 68.658C92.5778 68.8362 92.4709 68.9788 92.4709 69.157C92.4352 70.2621 92.0431 71.2959 91.8292 72.3653C91.7579 72.7931 91.651 73.2209 91.4727 73.613C91.2945 74.0408 91.2588 74.4686 91.0806 74.8607C90.8311 75.4311 90.6172 76.0014 90.4389 76.5718C89.7973 78.4611 88.8348 80.2435 87.9079 81.9903C87.1593 83.3449 86.3394 84.6639 85.3769 85.9116C84.6996 86.7671 84.0223 87.6227 83.3094 88.4426C82.4538 89.4407 81.527 90.2963 80.6358 91.2588C79.8515 92.0787 78.889 92.6847 77.7839 92.9699C77.3918 93.0768 76.9997 93.0412 76.6075 93.0412C75.9302 93.0412 75.3242 92.9342 74.6826 92.7203C73.5062 92.3282 72.7576 91.5796 72.1872 90.5814C71.6881 89.7259 71.3673 88.7991 71.4386 87.8009C71.4386 87.4444 71.4386 87.1236 71.4386 86.8028Z" fill="#FFDA2F"/>
<path d="M37.3235 46.6988C44.5957 46.6988 51.7966 46.6988 59.0331 46.6988C59.0331 51.7965 59.0331 56.8941 59.0331 61.9561C58.2489 62.0987 40.3892 62.1344 37.3235 62.0274C37.3235 59.4608 37.3235 56.9298 37.3235 54.3631C37.3235 51.8321 37.3235 49.3011 37.3235 46.6988Z" fill="#FFDA2F"/>
<path d="M20.3551 66.733C20.0699 66.733 19.7847 66.6973 19.4995 66.733C18.9648 66.8399 18.5014 66.5191 17.9667 66.5191C17.5033 66.5191 17.0398 66.2695 16.612 66.1983C15.2574 66.02 14.1523 65.2001 12.9403 64.6297C12.6195 64.4872 12.3343 64.2733 12.0491 64.0594C10.6945 63.0256 9.5181 61.8136 8.59125 60.352C7.77135 59.1043 7.20098 57.7497 6.77321 56.3238C6.63061 55.8603 6.41673 55.3613 6.52367 54.8266C6.16719 53.8997 6.45237 52.9372 6.30978 52.0104C6.23849 51.5113 6.52367 51.0835 6.52367 50.5844C6.48802 50.121 6.77321 49.6932 6.8445 49.2298C6.98709 48.2317 7.41487 47.3405 7.84265 46.4493C8.37737 45.4155 8.98338 44.4173 9.83893 43.5974C10.0528 43.4192 10.2667 43.2053 10.4449 42.9914C11.5857 41.6724 13.0116 40.7812 14.5801 40.0683C15.5783 39.6049 16.6477 39.284 17.7528 39.1058C18.1806 39.0345 18.644 38.9988 19.0718 38.9276C19.4995 38.8919 19.856 38.678 20.3194 38.7493C21.7454 38.9632 23.2069 38.9988 24.5972 39.4979C25.7736 39.9257 26.8787 40.4604 27.9481 41.1377C29.1245 41.8863 30.1226 42.8488 31.0138 43.8826C31.7981 44.8095 32.4398 45.8789 32.9745 46.984C33.4023 47.8752 33.6518 48.8377 33.9013 49.8002C34.0439 50.3349 34.0083 50.8696 34.1152 51.4043C34.1865 51.8321 34.2222 52.2242 34.2934 52.652C34.4004 53.2937 34.0796 53.8284 34.1152 54.4344C34.1509 55.0404 33.937 55.6108 33.83 56.1812C33.7231 56.7515 33.5092 57.2863 33.2953 57.821C32.7606 59.3182 31.905 60.6015 30.9782 61.6353C30.693 61.9561 30.4791 62.3126 30.1939 62.5978C28.875 63.9168 27.3421 64.9149 25.631 65.6279C24.8111 65.9844 23.9555 66.2695 23.0643 66.4478C22.1731 66.626 21.2463 66.626 20.3551 66.6973C20.3551 66.7686 20.3551 66.7686 20.3551 66.733ZM9.55375 53.0442C9.4468 53.8641 9.66069 54.8622 9.91023 55.8603C10.1598 56.8941 10.6232 57.8566 11.1936 58.7122C11.8352 59.6747 12.5482 60.6372 13.5463 61.2788C14.0454 61.5997 14.4732 62.0274 15.0079 62.277C16.006 62.7404 16.9685 63.3108 18.1093 63.4177C18.4657 63.7742 18.8579 63.5247 19.25 63.5959C19.6778 63.6672 20.0699 63.7385 20.4977 63.7742C20.5333 63.7742 20.569 63.7742 20.6046 63.7742C21.2106 63.3821 21.9592 63.6316 22.6009 63.4534C23.3495 63.2751 24.0625 63.0256 24.7398 62.7404C26.3083 62.0987 27.556 60.9937 28.6611 59.746C29.0175 59.3182 29.3027 58.8191 29.6236 58.3557C29.98 57.8923 30.1226 57.3219 30.3722 56.7872C30.6217 56.2168 30.7999 55.6465 30.9425 55.0404C31.0495 54.577 31.1208 54.1136 31.1208 53.6145C31.1564 53.0798 31.1208 52.5451 31.1208 52.0104C31.1564 51.4756 30.7999 50.9766 30.9069 50.4062C30.9425 50.2636 30.7643 50.0854 30.7286 49.9071C30.2652 48.196 29.374 46.7345 28.2689 45.4155C27.6986 44.7382 26.95 44.2391 26.237 43.7757C24.5616 42.6349 22.7079 42.0646 20.7116 41.9933C20.0343 41.9576 19.3213 42.0289 18.644 42.1359C17.6458 42.2785 16.719 42.6349 15.7921 42.9914C14.8653 43.3479 14.081 43.9183 13.3324 44.5243C11.9065 45.7363 10.8014 47.2335 10.1598 49.0159C9.76764 50.0854 9.4468 51.2261 9.55375 52.4381C9.5894 52.5807 9.55375 52.6877 9.55375 53.0442Z" fill="#515151"/>
<path d="M80.5643 38.8563C80.6713 38.9632 80.7426 39.0345 80.8139 39.1058C80.8139 40.4604 80.8495 41.8507 80.8139 43.2053C80.8139 43.8113 80.5643 44.4173 80.3861 44.9877C79.9227 46.4136 79.4236 47.8396 78.9602 49.2655C78.9245 49.4081 78.8176 49.515 78.7463 49.6576C76.9639 49.6576 75.1815 49.6576 73.3635 49.6576C73.0426 48.7308 72.7218 47.7683 72.401 46.8058C72.1158 45.9502 71.8306 45.0947 71.5811 44.2391C71.5454 44.0965 71.4741 43.9539 71.4741 43.8113C71.4741 42.1715 71.4741 40.4961 71.4741 38.8206C74.4685 38.8563 77.4986 38.8563 80.5643 38.8563ZM76.4648 46.6632C76.7144 45.8076 77.0352 44.9877 77.2847 44.1678C77.6412 42.9201 77.6769 42.9201 77.5699 42.0289C76.5361 42.0289 75.538 42.0289 74.4329 42.0289C74.4685 42.4567 74.4329 42.9201 74.5398 43.3123C74.7894 44.2391 75.2172 45.0947 75.3954 46.0572C75.431 46.271 75.5736 46.4849 75.6806 46.6988C75.8945 46.6632 76.1084 46.6632 76.4648 46.6632Z" fill="#515151"/>
<path d="M72.9002 55.5039C72.4011 55.6821 71.9021 55.896 71.4386 56.0386C70.0127 56.502 68.5868 56.9655 67.1609 57.4289C67.0183 57.4645 66.8757 57.5358 66.7331 57.5358C65.2715 57.5358 63.81 57.5358 62.3841 57.5358C62.0632 57.3576 62.0632 57.1081 62.0632 56.8585C62.0632 55.4326 62.0632 53.971 62.0632 52.5451C62.0632 51.1192 62.0632 49.6576 62.0632 48.1604C62.4197 48.1604 62.8118 48.1604 63.1683 48.1604C63.9169 48.1604 64.6655 48.1604 65.4141 48.1604C67.1965 48.1604 67.1965 48.1604 68.9789 48.8021C70.2623 49.2655 71.5456 49.6576 72.9002 50.121C72.9002 51.8678 72.9002 53.6145 72.9002 55.5039ZM69.9058 52.4738C68.4086 51.8678 66.947 51.1548 65.2359 51.4044C65.2359 51.9391 65.2359 52.4025 65.2359 52.9016C65.2359 53.4007 65.2003 53.8641 65.2359 54.3632C65.7706 54.3632 66.234 54.5058 66.6262 54.3275C67.6956 53.8997 68.8363 53.6502 69.9058 53.1511C69.9058 52.9729 69.9058 52.759 69.9058 52.4738Z" fill="#515151"/>
<path d="M79.1384 50.1567C80.1009 49.8359 81.0278 49.5507 81.919 49.2298C82.8815 48.909 83.844 48.5525 84.7708 48.2317C84.9491 48.1604 85.1986 48.1604 85.4125 48.1604C86.9097 48.1604 88.4069 48.1604 89.9041 48.1604C90.0467 48.9803 90.0824 53.8284 89.9754 57.5358C88.4069 57.5358 86.8028 57.5358 85.2342 57.5358C85.1273 57.5358 85.0204 57.4645 84.9134 57.4289C83.7727 57.0368 82.6319 56.6446 81.4912 56.2525C80.7426 56.003 79.9583 55.7534 79.1384 55.4683C79.1384 54.5771 79.1384 53.6858 79.1384 52.7946C79.1384 51.9034 79.1384 51.0479 79.1384 50.1567ZM82.3111 53.2937C83.8083 53.6146 85.1273 54.577 86.7671 54.3632C86.7671 53.365 86.7671 52.4025 86.7671 51.4044C85.1273 51.1192 83.7727 52.046 82.3111 52.3669C82.3111 52.6521 82.3111 52.9016 82.3111 53.2937Z" fill="#515151"/>
<path d="M80.6356 66.733C77.5699 66.733 74.5398 66.733 71.4385 66.733C71.4385 66.5191 71.4385 66.2695 71.4385 66.0557C71.4385 64.9862 71.4741 63.9168 71.4385 62.883C71.4028 62.0274 71.6167 61.2432 71.9019 60.4589C72.3653 59.0687 72.8644 57.6784 73.3278 56.2881C73.3634 56.2168 73.3278 56.1099 73.3278 55.9673C75.1102 55.9673 76.8569 55.9673 78.7106 55.9673C78.9602 56.6446 79.2454 57.3932 79.4949 58.1775C79.8514 59.2112 80.1366 60.2807 80.493 61.3145C80.5287 61.4571 80.6356 61.5997 80.6356 61.7066C80.6356 63.3464 80.6356 65.0219 80.6356 66.733ZM77.6055 63.7385C77.8551 62.0274 76.9639 60.6015 76.5361 59.1043C76.1796 59.1043 75.8945 59.1043 75.6093 59.1043C75.3597 59.9599 75.1102 60.7798 74.7894 61.5997C74.5042 62.3483 74.4685 63.0256 74.4685 63.7742C75.538 63.7385 76.5718 63.7385 77.6055 63.7385Z" fill="#515151"/>
<path d="M43.4549 68.2302C42.4567 68.2302 41.4942 68.2302 40.5317 68.2302C40.5317 67.2677 40.5317 66.3052 40.5317 65.2714C40.9952 65.2357 41.4586 65.2714 41.9577 65.2714C42.4567 65.2714 42.9558 65.2714 43.4905 65.2714C43.4549 66.2339 43.4549 67.1964 43.4549 68.2302Z" fill="#515151"/>
<path d="M49.6575 68.2302C48.6594 68.2302 47.6969 68.2302 46.7344 68.2302C46.7344 67.2677 46.7344 66.3052 46.7344 65.2714C47.1978 65.2357 47.6612 65.2714 48.1603 65.2714C48.6594 65.2714 49.1584 65.2714 49.6932 65.2714C49.6575 66.2339 49.6575 67.1964 49.6575 68.2302Z" fill="#515151"/>
<path d="M55.8248 68.2302C54.8266 68.2302 53.8641 68.2302 52.9016 68.2302C52.9016 67.2677 52.9016 66.3052 52.9016 65.2714C53.3294 65.2357 53.8285 65.2714 54.3275 65.2714C54.8266 65.2714 55.3257 65.2714 55.8604 65.2714C55.8247 66.2339 55.8248 67.1964 55.8248 68.2302Z" fill="#515151"/>
<path d="M77.6055 63.7385C76.5717 63.7385 75.5379 63.7385 74.4685 63.7385C74.4685 62.9899 74.5042 62.3126 74.7893 61.564C75.1102 60.7798 75.3597 59.9242 75.6092 59.0687C75.8944 59.0687 76.1796 59.0687 76.5361 59.0687C76.9639 60.5659 77.8194 61.9918 77.6055 63.7385Z" fill="#FFDA2F"/>
<path d="M21.9592 60.5303C20.8541 60.5303 19.8203 60.5303 18.7508 60.5303C18.7508 58.4983 18.7508 56.4664 18.7508 54.3988C16.6833 54.3988 14.6513 54.3988 12.5481 54.3988C12.5481 53.365 12.5481 52.4025 12.5481 51.44C12.6194 51.3687 12.6907 51.2974 12.8333 51.1548C14.7583 51.1548 16.7189 51.1548 18.7152 51.1548C18.7152 49.0872 18.7152 47.091 18.7152 45.0234C19.7133 45.0234 20.6758 45.0234 21.674 45.0234C21.7096 45.059 21.8166 45.166 21.9235 45.3086C21.9235 47.2336 21.9235 49.1942 21.9235 51.1548C23.9198 51.1548 25.8804 51.1548 27.8054 51.1548C27.9124 51.2618 28.0193 51.3687 28.0906 51.44C28.0906 52.3669 28.0906 53.2937 28.0906 54.2562C28.055 54.2919 28.055 54.2918 28.0193 54.3275C27.9837 54.3275 27.9837 54.3631 27.948 54.3631C25.9517 54.3631 23.9554 54.3631 21.9235 54.3631C21.9592 56.4307 21.9592 58.427 21.9592 60.5303Z" fill="#515151"/>
</g>
<defs>
<clipPath id="clip0_2716_1540">
<rect width="96" height="96" fill="white"/>
</clipPath>
</defs>
</svg>
