<svg width="96" height="96" viewBox="0 0 96 96" fill="none" xmlns="http://www.w3.org/2000/svg">
<path d="M55.6821 73.6843C39.1771 73.6843 22.7077 73.6843 6.20271 73.6843C4.5629 73.6843 3.35087 72.9001 2.42402 71.6168C1.8893 70.8682 1.67542 70.0482 1.67542 69.1214C1.67542 48.1604 1.67542 27.1994 1.67542 6.23838C1.67542 4.59858 2.45967 3.38654 3.743 2.4597C4.49161 1.92498 5.31151 1.71109 6.23836 1.71109C32.1901 1.71109 58.1418 1.71109 84.1292 1.71109C84.9134 1.71109 85.5907 1.92498 86.2681 2.21016C86.981 2.49535 87.4801 3.13701 87.9435 3.74302C88.4782 4.45598 88.7278 5.31154 88.7278 6.23838C88.7278 24.4901 88.7278 42.7419 88.7278 60.958C88.0148 60.5302 87.3018 60.0668 86.6245 59.639C86.3037 59.639 86.0185 59.639 85.7333 59.639C85.7333 47.3405 85.7333 35.0419 85.7333 22.7434C58.7122 22.7434 31.7267 22.7434 4.74114 22.7434C4.74114 38.2146 4.74114 53.6502 4.74114 69.0858C4.74114 69.1571 4.74114 69.2284 4.74114 69.264C4.74114 69.87 5.02632 70.2265 5.56104 70.5117C5.91752 70.7256 6.20271 70.6543 6.52354 70.6543C23.5633 70.6543 40.5674 70.6543 57.6071 70.6543C57.5001 70.7256 57.3932 70.7969 57.2863 70.8682C56.6089 71.5455 56.0386 72.2584 55.896 73.2566C55.8603 73.4348 55.7534 73.5418 55.6821 73.6843ZM84.5926 4.66987C58.6052 4.66987 32.6179 4.66987 6.59484 4.66987C6.45224 4.66987 6.274 4.66987 6.13141 4.66987C5.66799 4.63422 5.31151 4.84811 5.02632 5.20459C4.88373 5.34718 4.81244 5.56107 4.70549 5.70366C4.70549 10.3735 4.70549 15.0078 4.70549 19.642C31.7267 19.642 58.6765 19.642 85.662 19.642C85.662 15.1504 85.662 10.6587 85.662 6.20273C85.662 5.59672 85.4482 5.16894 84.9134 4.88376C84.8421 4.81246 84.7352 4.77682 84.5926 4.66987Z" fill="#515151"/>
<path d="M55.6821 73.6843C55.7534 73.5417 55.8603 73.4348 55.8603 73.2922C56.0029 72.2941 56.5376 71.5811 57.2506 70.9038C57.3575 70.8325 57.4645 70.7612 57.5714 70.6899C57.9635 70.5117 58.3557 70.3334 58.7478 70.1195C58.9973 70.0126 59.2112 69.87 59.4251 69.6918C60.0311 69.1214 60.245 68.4084 60.2094 67.5885C60.1381 67.5172 60.0668 67.4459 60.0311 67.3746C59.6746 66.5904 59.5321 65.5566 59.639 64.5941C59.6746 64.3446 59.5321 64.095 59.7459 63.8811C59.9242 63.7029 59.6746 63.3464 59.9955 63.2395C60.5658 61.8849 61.5996 60.958 62.8117 60.1738C63.5246 59.6747 64.3802 59.5321 65.2001 59.4608C65.7348 59.4251 66.3408 59.5677 66.8755 59.8529C67.7311 60.2807 68.0163 60.2807 68.8005 59.9955C69.4065 59.7816 69.8343 59.3182 70.0839 58.7122C70.1908 58.4627 70.3334 58.1775 70.4403 57.9279C70.8325 57.108 71.4741 56.5733 72.2584 56.1812C72.9357 55.8604 73.613 55.6108 74.3973 55.6465C75.0033 55.6821 75.6449 55.6465 76.2509 55.6465C76.9639 55.6465 77.6412 55.9316 78.2116 56.2881C79.0315 56.7515 79.6732 57.4645 80.0296 58.3914C80.1366 58.6765 80.2792 58.9974 80.4931 59.2113C81.0634 59.9242 81.8477 60.1738 82.7032 60.1381C83.3093 59.6034 84.1648 59.6747 84.8421 59.4251C85.056 59.3538 85.3412 59.5321 85.5907 59.6034C85.8759 59.6034 86.1611 59.6034 86.4819 59.6034C87.1592 60.0312 87.8722 60.4589 88.5852 60.9224C88.9773 61.3858 89.3338 61.8849 89.7259 62.3126C90.2963 62.9899 90.6527 63.7386 90.6527 64.6298C90.6527 64.808 90.7597 65.0219 90.831 65.2358C90.5458 65.5922 90.724 66.0557 90.5814 66.4122C90.4032 66.8399 90.1893 67.2677 90.118 67.6955C90.0111 68.1589 90.225 68.6223 90.4388 69.0501C90.6171 69.4422 90.8666 69.6918 91.2231 69.87C91.4726 70.0126 91.7578 70.1195 92.0074 70.2621C93.2907 70.9038 93.9323 71.7593 94.3958 73.0427C94.5384 73.4704 94.6097 73.8982 94.6097 74.3617C94.574 74.7894 94.574 75.2529 94.6097 75.6806C94.7166 76.4649 94.4671 77.2135 94.1819 77.8552C93.8254 78.6751 93.2194 79.4237 92.3282 79.8158C91.9717 79.994 91.6152 80.2079 91.2588 80.3862C90.9023 80.5644 90.6527 80.8139 90.4745 81.2061C90.2606 81.6338 90.0824 82.0616 90.118 82.5607C90.118 82.7033 90.2606 82.8102 90.2963 82.9528C90.4388 83.4875 90.7597 83.9866 90.6884 84.5926C90.6884 84.7352 90.7953 84.9135 90.831 85.1273C90.7953 85.2343 90.6884 85.4125 90.6884 85.5551C90.6884 86.5176 90.2963 87.3019 89.7259 88.0505C89.4051 88.4426 89.0842 88.8704 88.6921 89.2269C88.0148 89.8329 87.3018 90.4032 86.375 90.6171C86.1611 90.6528 85.9116 90.6884 85.662 90.7241C85.4481 90.7597 85.2699 90.7954 84.9491 90.8667C84.9491 90.8667 84.8421 90.7241 84.7708 90.7241C84.0222 90.7954 83.4162 90.4032 82.7389 90.1894C81.9546 89.9042 80.8139 90.4745 80.3505 91.3301C80.1722 91.6509 79.9583 91.9718 79.7801 92.3282C79.1384 93.7185 77.8908 94.2532 76.5361 94.6454C76.1797 94.7523 75.7875 94.6454 75.4311 94.6454C75.0746 94.6454 74.7537 94.6097 74.3973 94.6454C73.3991 94.7167 72.5436 94.3602 71.7593 93.8255C70.7612 93.1481 70.9751 93.5046 70.0482 91.6509C69.6204 90.831 68.9788 90.4032 68.1945 90.1894C67.945 90.1181 67.6598 90.1894 67.4103 90.2963C66.8399 90.5458 66.2695 90.7954 65.6279 90.7597C65.414 90.7597 65.1288 90.9736 64.9505 90.9023C64.2376 90.6171 63.489 90.6528 62.8117 90.1894C61.9918 89.6546 61.2432 89.0843 60.6728 88.3713C60.2807 87.8366 59.7103 87.3019 59.7103 86.5176C59.3182 86.2681 59.6746 85.8047 59.4608 85.4838C59.1756 85.1273 59.4964 84.8065 59.4964 84.4857C59.532 83.844 59.7459 83.2736 60.0668 82.6676C60.1024 81.8834 59.8885 81.1348 59.2112 80.5644C59.033 80.3862 58.7834 80.2792 58.5339 80.2079C57.9279 79.9584 57.3932 79.5663 56.9297 79.1741C56.395 78.6751 55.9673 77.9977 55.7534 77.2491C55.6108 76.8214 55.5395 76.3936 55.5751 75.9302C55.7177 75.1816 55.6821 74.4329 55.6821 73.6843ZM75.2172 64.4515C75.1459 65.2358 75.1459 65.9131 74.9676 66.5191C74.8607 66.9469 74.8963 67.3746 74.7894 67.7668C74.6468 68.2302 74.6468 68.658 74.6111 69.0858C74.6111 69.157 74.6468 69.2283 74.6111 69.264C74.2903 69.5135 74.4686 69.8344 74.4329 70.1195C74.3616 70.4404 74.2903 70.7612 74.2547 71.082C74.1834 71.7237 74.219 72.4367 74.0408 73.0427C73.9338 73.5061 73.9695 73.9695 73.8625 74.3617C73.5774 75.3242 73.613 76.3579 73.3278 77.3204C73.2209 77.7126 73.2922 78.1403 73.1496 78.5681C73.007 78.9602 73.1139 79.4593 72.9713 79.8871C72.8287 80.2792 72.9357 80.7783 72.7931 81.2061C72.6505 81.6338 72.7931 82.0973 72.6149 82.525C72.5079 82.8102 72.6505 83.238 72.5079 83.5232C72.3297 83.844 72.4723 84.1292 72.401 84.4144C72.3297 84.7352 72.2584 85.056 72.1871 85.3412C72.6862 85.5195 73.1852 85.6264 73.6843 85.6621C74.1834 85.6977 74.6468 85.9473 75.1815 85.769C75.2528 85.5908 75.3598 85.3769 75.3954 85.1986C75.4667 84.557 75.538 83.8797 75.5736 83.2024C75.5736 83.0954 75.538 82.9885 75.5736 82.9172C75.9301 82.5963 75.7162 82.2042 75.7519 81.8477C75.7875 81.4913 76.0014 81.2061 75.9658 80.8139C75.8945 80.2079 76.2866 79.6376 76.144 79.0315C76.3935 78.782 76.2866 78.4612 76.3223 78.176C76.3579 77.8552 76.4648 77.5343 76.5005 77.2135C76.5361 76.7857 76.5361 76.3936 76.6787 75.9658C76.8213 75.5737 76.6787 75.1459 76.857 74.7181C76.9996 74.3973 76.8213 73.9695 76.9639 73.6487C77.1065 73.2566 76.9283 72.8288 77.1065 72.4723C77.2847 72.1158 77.2491 71.7593 77.2847 71.4029C77.2847 71.2959 77.2491 71.1177 77.3204 71.0464C77.6056 70.7969 77.4273 70.476 77.4986 70.1552C77.5699 69.8344 77.6412 69.5135 77.6769 69.1927C77.7482 68.551 77.7125 67.8381 77.8908 67.2321C78.0334 66.733 77.8908 66.2339 78.069 65.8061C78.2472 65.414 78.1403 65.1288 78.2116 64.7723C77.1778 64.7367 76.2153 64.5941 75.2172 64.4515ZM71.5811 78.8889C71.688 78.5325 71.5098 78.3542 71.3315 78.176C70.476 77.3204 69.6204 76.4649 68.7649 75.6093C68.6223 75.4667 68.5153 75.2885 68.3728 75.1459C69.4065 74.1121 70.369 73.1496 71.3315 72.1871C71.5098 72.0089 71.688 71.8306 71.6524 71.7237C70.9394 71.0107 70.3334 70.4047 69.6561 69.7274C69.6561 69.7274 69.5491 69.7274 69.4422 69.7274C67.6598 71.5098 65.8774 73.2922 64.095 75.0746C64.095 75.0746 64.095 75.1459 64.095 75.1816C64.095 75.2172 64.095 75.2529 64.095 75.2529C65.8774 77.0353 67.6598 78.8533 69.4778 80.6357C69.5491 80.6357 69.6917 80.6713 69.763 80.6357C70.4047 80.0297 71.0107 79.4237 71.5811 78.8889ZM86.268 75.1103C84.5569 73.3992 82.8102 71.6524 81.0991 69.9413C80.9565 69.7987 80.7426 69.7631 80.6 69.6561C80.0296 70.2621 79.4949 70.7612 78.9602 71.2959C78.8176 71.4385 78.782 71.6524 78.675 71.795C79.281 72.401 79.8514 72.9357 80.3861 73.5061C80.9208 74.0408 81.5269 74.5399 81.9903 75.1816C80.9921 76.1797 80.0296 77.1422 79.0315 78.1047C78.8533 78.2829 78.675 78.4255 78.7463 78.8177C79.2454 79.3167 79.7801 79.8871 80.3505 80.4218C80.4574 80.5288 80.6713 80.5644 80.7426 80.6001C82.5963 78.782 84.4143 76.964 86.268 75.1103Z" fill="#FFDA2F"/>
<path d="M75.2172 64.4515C76.251 64.5941 77.1778 64.7724 78.2116 64.915C78.1403 65.2358 78.2473 65.5566 78.069 65.9488C77.8908 66.3409 78.0334 66.8756 77.8908 67.3747C77.7126 68.0163 77.7482 68.6936 77.6769 69.3353C77.6413 69.6561 77.57 69.977 77.4987 70.2978C77.463 70.583 77.6056 70.9038 77.3204 71.189C77.2491 71.2603 77.2848 71.4385 77.2848 71.5455C77.2848 71.902 77.2848 72.2584 77.1065 72.6149C76.964 72.9714 77.1422 73.3635 76.964 73.7913C76.8214 74.1121 76.9996 74.5756 76.857 74.8607C76.6431 75.2885 76.8214 75.7163 76.6788 76.1084C76.5362 76.5362 76.5362 76.9283 76.5005 77.3561C76.4649 77.6769 76.3579 77.9978 76.3223 78.3186C76.2866 78.6038 76.3936 78.9246 76.1441 79.1742C76.2866 79.7802 75.8945 80.3505 75.9658 80.9566C76.0015 81.3487 75.7876 81.6339 75.7519 81.9903C75.7163 82.3468 75.9302 82.7389 75.5737 83.0598C75.538 83.0954 75.5737 83.238 75.5737 83.345C75.5024 84.0223 75.4667 84.6639 75.3954 85.3412C75.3598 85.5195 75.2529 85.7334 75.1816 85.9116C74.6825 86.0899 74.1834 85.8403 73.6843 85.8047C73.1853 85.769 72.6862 85.6977 72.1871 85.4838C72.2584 85.163 72.3297 84.8422 72.401 84.557C72.4723 84.2718 72.3297 83.9866 72.508 83.6658C72.6506 83.4163 72.4723 82.9885 72.6149 82.6677C72.7931 82.2042 72.6862 81.7408 72.7931 81.3487C72.9357 80.8853 72.8644 80.4218 72.9714 80.0297C73.114 79.5663 73.007 79.1029 73.1496 78.7107C73.2922 78.283 73.2209 77.8552 73.3279 77.463C73.613 76.5006 73.5774 75.4668 73.8626 74.5043C73.9695 74.0765 73.9339 73.6131 74.0408 73.1853C74.2191 72.5436 74.1834 71.8663 74.2547 71.2247C74.2904 70.9038 74.3617 70.583 74.433 70.2622C74.5043 69.977 74.2904 69.6205 74.6112 69.4066C74.6468 69.371 74.6112 69.2997 74.6112 69.2284C74.6112 68.7649 74.6468 68.3372 74.7894 67.9094C74.8964 67.5173 74.8607 67.0895 74.9677 66.6617C75.1459 65.8775 75.1103 65.2001 75.2172 64.4515Z" fill="#515151"/>
<path d="M71.5811 78.889C71.0107 79.4237 70.369 80.0297 69.7274 80.6001C69.6917 80.6357 69.5491 80.6001 69.4422 80.6001C67.6598 78.8177 65.8774 77.0353 64.0593 75.2172C64.0593 75.2172 64.0593 75.1816 64.0593 75.1459C64.0593 75.1103 64.0593 75.0746 64.0593 75.039C65.8417 73.2566 67.6241 71.4742 69.4065 69.6918C69.5135 69.6918 69.6204 69.6918 69.6204 69.6918C70.2621 70.3334 70.8681 70.9395 71.6167 71.6881C71.6524 71.795 71.4741 71.9732 71.2959 72.1515C70.3334 73.114 69.3709 74.0765 68.3371 75.1103C68.4797 75.2529 68.5866 75.4311 68.7292 75.5737C69.5848 76.4292 70.4403 77.2848 71.2959 78.1403C71.5454 78.3542 71.688 78.5325 71.5811 78.889Z" fill="#515151"/>
<path d="M86.2681 75.1103C84.4144 76.964 82.5963 78.782 80.7426 80.6357C80.6713 80.6 80.4931 80.5644 80.3505 80.4575C79.7801 79.9227 79.2454 79.3524 78.7463 78.8533C78.6394 78.4968 78.8533 78.3186 79.0315 78.1403C79.994 77.1778 80.9565 76.2154 81.9903 75.2172C81.5269 74.5755 80.9209 74.1121 80.3861 73.5418C79.8514 72.9714 79.2811 72.4367 78.675 71.8307C78.7463 71.6881 78.8176 71.4742 78.9602 71.3316C79.4593 70.7969 79.994 70.2621 80.6 69.6918C80.7783 69.7631 80.9922 69.8344 81.0991 69.977C82.8102 71.6524 84.557 73.3992 86.2681 75.1103Z" fill="#515151"/>
<path d="M48.1961 58.6765C48.1961 59.4608 48.1961 60.2094 48.1961 60.958C48.1961 61.9918 47.7326 62.883 47.091 63.5603C46.5562 64.1663 45.7363 64.5228 44.9521 64.6297C43.9896 64.808 43.0271 64.5228 42.2428 63.9881C39.7475 62.3126 37.2521 60.6372 34.7568 58.9617C34.3646 58.7122 34.0082 58.6409 33.5804 58.6409C26.4864 58.6409 19.3925 58.6409 12.2985 58.6409C10.6231 58.6409 9.41105 57.8923 8.4842 56.5377C7.98513 55.7891 7.7356 55.0048 7.7356 54.1136C7.7356 46.1284 7.7356 38.1077 7.7356 30.1225C7.7356 28.4827 8.51985 27.3063 9.83883 26.3795C10.5518 25.8804 11.3717 25.6309 12.2629 25.6309C26.2725 25.6309 40.2466 25.6309 54.2562 25.6309C55.0405 25.6309 55.7178 25.8804 56.3951 26.1656C57.108 26.4864 57.5715 27.0568 57.9992 27.6628C58.4983 28.3758 58.7835 29.2313 58.7835 30.1582C58.7835 38.1433 58.7835 46.1641 58.7835 54.1492C58.7835 55.3613 58.3557 56.3951 57.4645 57.2506C56.8585 57.8566 56.2169 58.3201 55.3613 58.4983C55.0761 58.5696 54.7909 58.6409 54.5057 58.6409C52.6521 58.6409 50.834 58.6409 48.9803 58.6409C48.6595 58.6765 48.4456 58.6765 48.1961 58.6765ZM54.6127 28.6966C40.3535 28.6966 26.0587 28.6966 11.9064 28.6966C10.837 29.0531 10.6944 29.7304 10.6944 30.5859C10.73 35.9688 10.6944 41.3516 10.6944 46.6988C10.6944 49.3368 10.6944 52.0104 10.6944 54.3988C10.8726 55.183 11.3004 55.4326 11.7638 55.6821C15.6851 55.6821 19.5707 55.6821 23.492 55.6821C27.3776 55.6821 31.2989 55.6821 35.1489 55.6821C38.2503 57.714 41.2447 59.7816 44.3104 61.7423C44.6669 61.564 44.9164 61.3858 45.2016 61.2432C45.2016 59.3538 45.2016 57.5358 45.2016 55.6821C48.3743 55.6821 51.5113 55.6821 54.7553 55.6821C55.0761 55.3613 55.3969 55.0404 55.6821 54.7553C55.6821 54.3988 55.6821 54.1136 55.6821 53.8284C55.6821 47.3761 55.6821 40.8882 55.6821 34.4359C55.6821 33.0456 55.6821 31.6197 55.6821 30.2294C55.6821 29.6234 55.4682 29.1957 54.9335 28.9105C54.8622 28.8035 54.7553 28.7679 54.6127 28.6966Z" fill="#515151"/>
<path d="M61.671 49.6932C61.671 48.6951 61.671 47.697 61.671 46.6988C63.6673 46.6988 65.6636 46.6988 67.6599 46.6988C67.6599 46.1285 67.6599 45.665 67.6599 45.166C67.6599 44.6669 67.6955 44.2035 67.6599 43.7044C65.5923 43.7044 63.6317 43.7044 61.671 43.7044C61.671 42.7062 61.671 41.7081 61.671 40.71C68.658 40.71 75.6807 40.71 82.6677 40.71C82.6677 41.7081 82.6677 42.7062 82.6677 43.7044C80.6714 43.7044 78.6751 43.7044 76.6788 43.7044C76.6788 44.2748 76.6788 44.7382 76.6788 45.2373C76.6788 45.7363 76.6432 46.1997 76.6788 46.6988C78.7464 46.6988 80.707 46.6988 82.6677 46.6988C82.6677 47.697 82.6677 48.6951 82.6677 49.6932C75.6807 49.6932 68.6937 49.6932 61.671 49.6932ZM73.6487 46.6632C73.6487 45.6294 73.6487 44.6669 73.6487 43.6687C73.114 43.6687 72.6149 43.6687 72.1159 43.6687C71.6168 43.6687 71.1534 43.6331 70.69 43.6687C70.69 44.7025 70.69 45.665 70.69 46.6275C71.7237 46.6632 72.6506 46.6632 73.6487 46.6632Z" fill="#FFDA2F"/>
<path d="M82.6677 34.6855C82.6677 35.6836 82.6677 36.6817 82.6677 37.6799C75.6807 37.6799 68.658 37.6799 61.671 37.6799C61.671 36.6817 61.671 35.6836 61.671 34.6855C62.6692 34.6855 63.6673 34.6855 64.6654 34.6855C64.6654 34.1151 64.6654 33.616 64.6654 33.1526C64.6654 32.6535 64.7011 32.1901 64.6654 31.691C63.596 31.691 62.6335 31.691 61.671 31.691C61.671 30.6929 61.671 29.6947 61.671 28.6966C68.658 28.6966 75.6807 28.6966 82.6677 28.6966C82.6677 29.6947 82.6677 30.6929 82.6677 31.691C77.677 31.691 72.6862 31.691 67.6599 31.691C67.6599 32.2614 67.6599 32.7248 67.6599 33.2239C67.6599 33.723 67.6242 34.1864 67.6599 34.6855C72.7575 34.6855 77.7126 34.6855 82.6677 34.6855Z" fill="#FFDA2F"/>
<path d="M82.6677 28.6966C75.6807 28.6966 68.658 28.6966 61.671 28.6966C61.671 27.7341 61.671 26.7716 61.671 25.8091C62.4909 25.6665 79.3524 25.5952 82.6677 25.7378C82.6677 26.7003 82.6677 27.6985 82.6677 28.6966Z" fill="#515151"/>
<path d="M61.671 37.6799C68.658 37.6799 75.6807 37.6799 82.6677 37.6799C82.6677 38.6781 82.6677 39.6762 82.6677 40.6744C75.6807 40.6744 68.658 40.6744 61.671 40.6744C61.671 39.6762 61.671 38.6781 61.671 37.6799Z" fill="#515151"/>
<path d="M61.671 49.6932C68.658 49.6932 75.6807 49.6932 82.6677 49.6932C82.6677 50.6557 82.6677 51.6182 82.6677 52.5807C81.8478 52.7233 64.9863 52.7946 61.671 52.652C61.671 51.6539 61.671 50.6914 61.671 49.6932Z" fill="#515151"/>
<path d="M82.6676 34.6855C77.7125 34.6855 72.7218 34.6855 67.6954 34.6855C67.6598 34.222 67.6954 33.723 67.6954 33.2239C67.6954 32.7248 67.6954 32.2258 67.6954 31.691C72.7218 31.691 77.7125 31.691 82.7032 31.691C82.6676 32.6892 82.6676 33.6873 82.6676 34.6855Z" fill="#515151"/>
<path d="M61.671 43.6688C63.6317 43.6688 65.5923 43.6688 67.6599 43.6688C67.6955 44.1322 67.6599 44.6313 67.6599 45.1303C67.6599 45.6294 67.6599 46.1285 67.6599 46.6632C65.6279 46.6632 63.6673 46.6632 61.671 46.6632C61.671 45.7007 61.671 44.7026 61.671 43.6688Z" fill="#515151"/>
<path d="M82.6677 46.6988C80.707 46.6988 78.7464 46.6988 76.6788 46.6988C76.6432 46.2354 76.6788 45.7363 76.6788 45.2373C76.6788 44.7382 76.6788 44.2391 76.6788 43.7044C78.7107 43.7044 80.6714 43.7044 82.6677 43.7044C82.6677 44.7025 82.6677 45.7007 82.6677 46.6988Z" fill="#515151"/>
<path d="M61.671 31.691C62.6335 31.691 63.596 31.691 64.6655 31.691C64.7011 32.1545 64.6655 32.6535 64.6655 33.1526C64.6655 33.6517 64.6655 34.1507 64.6655 34.6855C63.6317 34.6855 62.6692 34.6855 61.671 34.6855C61.671 33.6873 61.671 32.6892 61.671 31.691Z" fill="#515151"/>
<path d="M10.73 64.701C11.7281 64.701 12.6906 64.701 13.6531 64.701C13.6531 65.6635 13.6531 66.626 13.6531 67.6598C13.1897 67.7311 12.7263 67.6598 12.2272 67.6955C11.7281 67.6955 11.2291 67.6955 10.73 67.6955C10.73 66.6973 10.73 65.7348 10.73 64.701Z" fill="#515151"/>
<path d="M16.7189 64.701C17.717 64.701 18.6795 64.701 19.642 64.701C19.642 65.6635 19.642 66.6261 19.642 67.6598C19.1786 67.6955 18.7152 67.6598 18.2161 67.6598C17.717 67.6598 17.2179 67.6598 16.6832 67.6598C16.7189 66.6973 16.7189 65.7348 16.7189 64.701Z" fill="#515151"/>
<path d="M25.6665 64.7011C25.6665 65.6992 25.6665 66.6617 25.6665 67.6242C24.7041 67.6242 23.7416 67.6242 22.7078 67.6242C22.6365 67.1608 22.7078 66.6973 22.6721 66.1983C22.6721 65.6992 22.6721 65.2001 22.6721 64.6654C23.6703 64.7011 24.6328 64.7011 25.6665 64.7011Z" fill="#515151"/>
<path d="M28.7322 64.701C29.7303 64.701 30.6928 64.701 31.6553 64.701C31.6553 65.6635 31.6553 66.626 31.6553 67.6242C30.6928 67.6242 29.7303 67.6242 28.7322 67.6242C28.7322 66.6973 28.7322 65.7348 28.7322 64.701Z" fill="#515151"/>
<path d="M7.69995 16.6476C7.69995 13.6532 7.69995 10.6944 7.69995 7.69995C10.6587 7.69995 13.6175 7.69995 16.5763 7.69995C16.7189 8.44856 16.7545 14.1522 16.6476 16.6476C13.6888 16.6476 10.73 16.6476 7.69995 16.6476ZM13.6532 10.73C12.6194 10.73 11.6569 10.73 10.73 10.73C10.73 11.7282 10.73 12.7263 10.73 13.6532C11.7282 13.6532 12.6907 13.6532 13.6532 13.6532C13.6532 12.655 13.6532 11.7282 13.6532 10.73Z" fill="#515151"/>
<path d="M19.7133 16.6476C19.7133 13.6532 19.7133 10.6944 19.7133 7.69995C22.672 7.69995 25.6308 7.69995 28.5896 7.69995C28.7322 8.44856 28.7678 14.1166 28.6609 16.6476C25.7021 16.6476 22.7433 16.6476 19.7133 16.6476ZM22.7077 13.6532C23.7415 13.6532 24.704 13.6532 25.7021 13.6532C25.7021 13.1184 25.7021 12.6194 25.7021 12.1203C25.7021 11.6212 25.7378 11.1578 25.7021 10.6944C24.6683 10.6944 23.7058 10.6944 22.7433 10.6944C22.7077 11.7282 22.7077 12.655 22.7077 13.6532Z" fill="#515151"/>
<path d="M31.7267 7.69995C34.7211 7.69995 37.6799 7.69995 40.6743 7.69995C40.6743 10.6587 40.6743 13.6175 40.6743 16.5763C39.9257 16.7189 34.2933 16.7545 31.7267 16.6476C31.7267 13.6888 31.7267 10.73 31.7267 7.69995ZM34.6855 13.6532C35.7193 13.6532 36.6818 13.6532 37.6799 13.6532C37.6799 13.1184 37.6799 12.6194 37.6799 12.1203C37.6799 11.6212 37.7155 11.1578 37.6799 10.6944C36.6461 10.6944 35.6836 10.6944 34.7211 10.6944C34.6855 11.6925 34.6855 12.655 34.6855 13.6532Z" fill="#515151"/>
<path d="M73.6487 46.6632C72.6506 46.6632 71.6881 46.6632 70.7256 46.6632C70.7256 45.7007 70.7256 44.7382 70.7256 43.7044C71.1534 43.6688 71.6524 43.7044 72.1515 43.7044C72.6506 43.7044 73.1497 43.7044 73.6844 43.7044C73.6487 44.6669 73.6487 45.6294 73.6487 46.6632Z" fill="#515151"/>
<path d="M40.6743 46.6988C40.6743 47.697 40.6743 48.6951 40.6743 49.6932C35.6836 49.6932 30.6572 49.6932 25.6665 49.6932C25.6665 48.6951 25.6665 47.697 25.6665 46.6988C26.6646 46.6988 27.6628 46.6988 28.6609 46.6988C28.6609 46.1285 28.6609 45.6294 28.6609 45.166C28.6609 44.6669 28.6966 44.2035 28.6609 43.7044C27.5915 43.7044 26.629 43.7044 25.6665 43.7044C25.6665 42.7062 25.6665 41.7081 25.6665 40.71C30.6572 40.71 35.6836 40.71 40.6743 40.71C40.6743 41.7081 40.6743 42.7062 40.6743 43.7044C37.6799 43.7044 34.6854 43.7044 31.691 43.7044C31.691 44.2748 31.691 44.7382 31.691 45.2373C31.691 45.7363 31.6554 46.1997 31.691 46.6988C34.7567 46.6988 37.7155 46.6988 40.6743 46.6988Z" fill="#FFDA2F"/>
<path d="M13.6888 43.7044C13.6888 42.6706 13.6888 41.7081 13.6888 40.7099C14.9365 40.6743 15.8277 39.9613 16.3981 38.9632C16.5763 38.6424 16.7189 38.2146 16.6833 37.7512C16.5763 36.9669 16.7546 36.1827 17.0754 35.4697C17.5032 34.5072 18.0022 33.5804 18.9647 32.9743C19.5708 32.6179 20.0698 32.1188 20.7828 31.9405C21.3888 31.798 21.9592 31.5484 22.6365 31.691C22.6365 32.6535 22.6365 33.616 22.6365 34.6141C21.4245 34.7211 20.4976 35.2915 19.9272 36.3609C19.749 36.6817 19.6064 37.0382 19.6421 37.466C19.6777 37.7868 19.6777 38.1076 19.6421 38.3928C19.6064 38.678 19.5708 38.9988 19.4638 39.2484C19.2143 39.8544 18.9291 40.4604 18.6083 41.0308C18.3944 41.4229 18.0735 41.7437 17.7527 42.1359C18.2874 42.8845 18.8578 43.5974 19.2143 44.4173C19.3569 44.7738 19.6421 45.8433 19.6777 46.1997C19.7134 46.6275 19.6777 47.0553 19.8203 47.5544C20.1768 48.6238 21.2462 49.6219 22.6365 49.6932C22.6365 50.6557 22.6365 51.6539 22.6365 52.652C21.8522 52.759 21.1749 52.5451 20.462 52.2599C19.6777 51.9391 18.8934 51.5113 18.3231 50.8696C17.6458 50.0497 16.9685 49.1942 16.7902 48.0178C16.7189 47.5544 16.6476 47.0553 16.6476 46.5919C16.612 45.5937 16.1486 44.8095 15.3643 44.2391C14.9365 43.9183 14.4018 43.5974 13.6888 43.7044Z" fill="#515151"/>
<path d="M52.652 40.7456C52.652 41.7081 52.652 42.6706 52.652 43.6687C51.4756 43.7757 50.5488 44.346 49.9784 45.4155C49.7645 45.8433 49.6219 46.3067 49.6932 46.8058C49.8358 47.7683 49.3011 48.5882 49.1228 49.4794C48.4455 50.3349 47.9108 51.2974 46.8414 51.8321C45.7363 52.4025 44.8451 52.759 43.74 52.7233C43.74 51.7608 43.74 50.7983 43.74 49.8002C44.2391 49.6576 44.8094 49.5863 45.3085 49.1942C46.2353 48.4456 46.6988 47.8039 46.6988 46.6988C46.6631 45.3085 47.1978 44.1322 48.0534 43.0627C48.2673 42.8132 48.4099 42.528 48.5881 42.2428C48.1603 41.4942 47.5543 40.8882 47.2335 40.0683C46.984 39.391 46.6631 38.7493 46.7344 38.0364C46.8414 36.6817 46.1641 35.6836 45.0233 35.0419C44.6668 34.828 44.2034 34.7924 43.74 34.6854C43.74 34.5785 43.74 34.4003 43.74 34.2577C43.74 33.4378 43.74 32.6535 43.74 31.798C44.5599 31.691 45.2729 31.9049 45.9858 32.2257C46.7344 32.5466 47.4474 32.903 47.9821 33.5091C48.7664 34.3646 49.408 35.2915 49.5506 36.5035C49.8358 36.8243 49.7645 37.2165 49.7289 37.5373C49.515 39.0702 50.9052 40.603 52.652 40.7456Z" fill="#515151"/>
<path d="M25.7021 49.6932C30.6929 49.6932 35.7192 49.6932 40.7099 49.6932C40.7099 50.6557 40.7099 51.6182 40.7099 52.5807C39.89 52.7233 28.8392 52.759 25.7021 52.652C25.7021 51.6539 25.7021 50.6914 25.7021 49.6932Z" fill="#515151"/>
<path d="M40.6743 34.6855C40.6743 35.6836 40.6743 36.6818 40.6743 37.6799C35.6836 37.6799 30.6572 37.6799 25.6665 37.6799C25.6665 36.6818 25.6665 35.6836 25.6665 34.6855C30.6929 34.6855 35.6836 34.6855 40.6743 34.6855Z" fill="#FFDA2F"/>
<path d="M40.6743 34.6855C35.6836 34.6855 30.6572 34.6855 25.6665 34.6855C25.6665 33.723 25.6665 32.7605 25.6665 31.798C26.4864 31.6554 37.5373 31.6197 40.6743 31.7267C40.6743 32.6892 40.6743 33.6873 40.6743 34.6855Z" fill="#515151"/>
<path d="M25.7021 37.6799C30.6929 37.6799 35.7192 37.6799 40.7099 37.6799C40.7099 38.6781 40.7099 39.6762 40.7099 40.6744C35.7192 40.6744 30.6929 40.6744 25.7021 40.6744C25.7021 39.6762 25.7021 38.6781 25.7021 37.6799Z" fill="#515151"/>
<path d="M40.6743 46.6988C37.7155 46.6988 34.7567 46.6988 31.691 46.6988C31.6554 46.2354 31.691 45.7363 31.691 45.2373C31.691 44.7382 31.691 44.2391 31.691 43.7044C34.7211 43.7044 37.7155 43.7044 40.6743 43.7044C40.6743 44.7025 40.6743 45.7007 40.6743 46.6988Z" fill="#515151"/>
<path d="M25.7021 43.6688C26.6646 43.6688 27.6271 43.6688 28.6966 43.6688C28.7322 44.1322 28.6966 44.6313 28.6966 45.1303C28.6966 45.6294 28.6966 46.1285 28.6966 46.6632C27.6628 46.6632 26.7003 46.6632 25.7021 46.6632C25.7021 45.7007 25.7021 44.7026 25.7021 43.6688Z" fill="#515151"/>
</svg>
