<svg width="18" height="18" viewBox="0 0 18 18" fill="none" xmlns="http://www.w3.org/2000/svg">
<path d="M4.78125 7.38281C3.90888 7.38281 3.19922 8.09248 3.19922 8.96484V13.2539C3.19922 14.1263 3.90888 14.8359 4.78125 14.8359C5.65362 14.8359 6.36328 14.1263 6.36328 13.2539V8.96484C6.36328 8.09248 5.65362 7.38281 4.78125 7.38281Z" fill="#81848B"/>
<path d="M2.14453 8.96492C2.14453 8.81279 2.16461 8.66584 2.18946 8.52075C1.55391 8.72617 1.08984 9.31651 1.08984 10.0196V12.1993C1.08984 12.9024 1.55391 13.4927 2.18946 13.6981C2.16461 13.5531 2.14453 13.4061 2.14453 13.254V8.96492Z" fill="#81848B"/>
<path d="M13.2188 7.38281C12.3464 7.38281 11.6367 8.09248 11.6367 8.96484V13.2539C11.6367 14.1263 12.3464 14.8359 13.2188 14.8359C13.3773 14.8359 13.5275 14.8054 13.672 14.7618C13.4757 15.4125 12.8779 15.8906 12.1641 15.8906H10.4849C10.2665 15.2781 9.6866 14.8359 9 14.8359C8.12763 14.8359 7.41797 15.5456 7.41797 16.418C7.41797 17.2903 8.12763 18 9 18C9.6866 18 10.2665 17.5578 10.4849 16.9453H12.1641C13.6179 16.9453 14.8008 15.7624 14.8008 14.3086V13.2539V8.96484C14.8008 8.09248 14.0911 7.38281 13.2188 7.38281Z" fill="#81848B"/>
<path d="M15.8105 8.52075C15.8354 8.66584 15.8555 8.81279 15.8555 8.96492V13.254C15.8555 13.4061 15.8354 13.5531 15.8105 13.6981C16.4461 13.4927 16.9102 12.9024 16.9102 12.1993V10.0196C16.9102 9.31651 16.4461 8.72617 15.8105 8.52075Z" fill="#81848B"/>
<path d="M9 0C4.63809 0 1.08984 3.54825 1.08984 7.91016V7.92362C1.40404 7.68575 1.76755 7.5117 2.16868 7.43375C2.41516 3.87601 5.3808 1.05469 9 1.05469C12.6192 1.05469 15.5848 3.87601 15.8313 7.43372C16.2324 7.51166 16.5959 7.68575 16.9102 7.92359V7.91016C16.9102 3.54825 13.3619 0 9 0Z" fill="#81848B"/>
</svg>
