<svg width="24" height="24" viewBox="0 0 24 24" fill="none" xmlns="http://www.w3.org/2000/svg">
<g clip-path="url(#clip0)">
<path d="M9.6961 18.4011C10.2059 18.2029 10.7803 17.8937 11.422 17.4595C11.216 16.7534 10.8354 16.0879 10.2796 15.5321C9.55661 14.809 8.63202 14.3619 7.63283 14.2401C7.20524 15.0419 6.94766 15.7305 6.83618 16.3126C8.05553 16.5781 9.08699 17.3523 9.6961 18.4011Z" fill="#81848B"/>
<path d="M5.92653 23.9994C7.79574 23.9867 9.3072 22.4681 9.3072 20.5959C9.3072 18.7158 7.78315 17.1918 5.90312 17.1918C4.03146 17.1918 2.51187 18.7106 2.49835 20.5791C2.49835 20.5781 2.49835 20.5773 2.49835 20.5773C2.49835 20.5773 2.49835 20.5779 2.49835 20.5796C2.49835 21.3551 1.47429 24 0 24H5.92653V23.9994Z" fill="#81848B"/>
<path d="M23.8934 0.0866681L23.8934 0.0867661L23.8838 0.0780477L23.8839 0.0779497C23.1282 -0.611683 16.6918 3.354 11.7977 8.69086C10.1585 10.4954 8.96967 12.0363 8.16052 13.3315C9.21892 13.5417 10.192 14.0591 10.9722 14.8394C11.5612 15.4284 11.9884 16.1188 12.2544 16.8548C13.4425 15.9361 14.8267 14.6417 16.4174 12.9072C21.2862 7.54729 24.6491 0.77635 23.8934 0.0866681Z" fill="#81848B"/>
</g>
<defs>
<clipPath id="clip0">
<rect width="24" height="24" fill="white"/>
</clipPath>
</defs>
</svg>
