<svg width="23" height="18" viewBox="0 0 23 18" fill="none" xmlns="http://www.w3.org/2000/svg">
<path d="M22.0889 2.27373C21.2936 2.62611 20.4393 2.86421 19.5413 2.97183C20.4679 2.41734 21.1612 1.54465 21.4917 0.516589C20.6211 1.03372 19.6682 1.39773 18.6746 1.59278C18.0064 0.879318 17.1213 0.406424 16.1568 0.247517C15.1923 0.0886101 14.2023 0.252581 13.3405 0.713973C12.4788 1.17536 11.7934 1.90836 11.3909 2.79916C10.9884 3.68997 10.8913 4.68873 11.1146 5.6404C9.35048 5.55182 7.62471 5.0933 6.04928 4.29459C4.47385 3.49588 3.08396 2.37484 1.96983 1.00421C1.58887 1.66135 1.36983 2.42326 1.36983 3.23468C1.3694 3.96516 1.54929 4.68444 1.89352 5.32871C2.23775 5.97299 2.73569 6.52234 3.34316 6.92802C2.63866 6.9056 1.9497 6.71524 1.33364 6.37278V6.42992C1.33356 7.45444 1.68795 8.44742 2.33667 9.24039C2.98538 10.0334 3.88846 10.5775 4.89268 10.7804C4.23914 10.9573 3.55396 10.9833 2.88887 10.8566C3.1722 11.7381 3.72411 12.509 4.46732 13.0613C5.21053 13.6136 6.10784 13.9196 7.03364 13.9366C5.46205 15.1703 3.52115 15.8395 1.52316 15.8366C1.16924 15.8367 0.815613 15.816 0.464111 15.7747C2.49218 17.0787 4.85301 17.7707 7.26411 17.768C15.426 17.768 19.8879 11.008 19.8879 5.14516C19.8879 4.95468 19.8832 4.7623 19.8746 4.57183C20.7425 3.94418 21.4916 3.16697 22.087 2.27659L22.0889 2.27373Z" fill="white"/>
</svg>
