<svg width="19" height="22" viewBox="0 0 19 22" fill="none" xmlns="http://www.w3.org/2000/svg">
<path d="M12.8313 1.84063C10.9686 1.40781 9.03148 1.40781 7.1688 1.84063C6.09299 1.18082 5.27165 0.877584 4.67432 0.749585C4.41938 0.692046 4.15851 0.664936 3.89718 0.668823C3.77827 0.672045 3.65992 0.686329 3.54365 0.711489L3.52842 0.714537L3.52232 0.717584H3.51775L3.72651 1.45054L3.51775 0.719108C3.4107 0.749361 3.31157 0.80269 3.22732 0.875348C3.14308 0.948006 3.07578 1.03823 3.03013 1.13968C2.58057 2.14647 2.49492 3.27822 2.78784 4.3412C2.02919 5.2606 1.61577 6.41626 1.61908 7.60825C1.61908 9.97473 2.31699 11.5656 3.50708 12.5881C4.34061 13.3042 5.35242 13.6852 6.36727 13.9031C6.19965 14.3679 6.15699 14.8601 6.19051 15.3629V16.2742C5.57032 16.4037 5.14061 16.3625 4.83432 16.262C4.45185 16.1355 4.15775 15.881 3.87584 15.5153C3.72848 15.3182 3.59116 15.1137 3.46442 14.9027L3.37756 14.761C3.26788 14.5786 3.15408 14.3988 3.03623 14.2216C2.7467 13.7934 2.31699 13.257 1.62213 13.0742L0.884606 12.8806L0.497559 14.3557L1.23508 14.5492C1.35699 14.5797 1.51546 14.694 1.77603 15.0764C1.87203 15.2182 1.96194 15.366 2.06556 15.5366L2.16918 15.7042C2.31242 15.9359 2.47699 16.1919 2.66746 16.4418C3.05299 16.9446 3.5787 17.4521 4.35889 17.7096C4.89223 17.8863 5.4987 17.929 6.19051 17.8223V20.6673C6.19051 20.8694 6.27078 21.0632 6.41367 21.206C6.55655 21.3489 6.75035 21.4292 6.95242 21.4292H13.0477C13.2497 21.4292 13.4435 21.3489 13.5864 21.206C13.7293 21.0632 13.8096 20.8694 13.8096 20.6673V15.238C13.8096 14.758 13.7882 14.3176 13.6526 13.9077C14.6629 13.6943 15.6671 13.3134 16.496 12.5972C17.6846 11.5671 18.381 9.96101 18.381 7.58082V7.5793C18.3772 6.39706 17.9636 5.25273 17.2107 4.3412C17.5033 3.27869 17.4176 2.14755 16.9684 1.1412C16.9231 1.03963 16.8561 0.949213 16.7721 0.876293C16.6882 0.803373 16.5892 0.749722 16.4823 0.719108L16.2736 1.45054C16.4823 0.719108 16.4808 0.719108 16.4793 0.719108L16.4762 0.717584L16.4701 0.714537L16.4564 0.711489C16.4188 0.701704 16.3806 0.694072 16.3421 0.688632C16.2624 0.676986 16.182 0.67037 16.1014 0.668823C15.84 0.664965 15.5792 0.692074 15.3242 0.749585C14.7284 0.877584 13.9071 1.18082 12.8313 1.84063V1.84063Z" fill="white"/>
</svg>
