<svg width="56" height="56" viewBox="0 0 56 56" fill="none" xmlns="http://www.w3.org/2000/svg">
<rect width="56" height="56" fill="#0065EF"/>
<path d="M30.707 12.6981C34.4207 12.6981 37.9822 14.3103 40.6081 17.18C43.2341 20.0498 44.7093 23.942 44.7093 28.0004C44.7093 32.0588 43.2341 35.951 40.6081 38.8208C37.9822 41.6905 34.4207 43.3027 30.707 43.3027L30.707 28.0004V12.6981Z" fill="white"/>
<path d="M22.3708 12.6981C26.0845 12.6981 29.646 14.3103 32.2719 17.18C34.8979 20.0498 36.3731 23.942 36.3731 28.0004C36.3731 32.0588 34.8979 35.951 32.272 38.8208C29.646 41.6905 26.0845 43.3027 22.3708 43.3027L22.3708 28.0004V12.6981Z" fill="#FFA0ED"/>
<path d="M14.0234 12.6981C17.7371 12.6981 21.2986 14.3103 23.9245 17.18C26.5505 20.0498 28.0257 23.942 28.0257 28.0004C28.0257 32.0588 26.5505 35.951 23.9245 38.8208C21.2986 41.6905 17.7371 43.3027 14.0234 43.3027L14.0234 28.0004V12.6981Z" fill="white"/>
</svg>
