<svg width="120" height="133" viewBox="0 0 120 133" fill="none" xmlns="http://www.w3.org/2000/svg">
<circle cx="60" cy="60" r="59.5" fill="white" stroke="#5CA1FF"/>
<path d="M46.2726 76.7899H29.1034C28.4941 76.7899 28 76.2933 28 75.6798V68.7637C28.0044 66.0919 28.7241 63.4707 30.0833 61.1756C31.4423 58.8804 33.391 56.9957 35.7239 55.7195C36.1165 55.503 36.6007 55.5471 36.9485 55.8305C38.648 57.1538 40.7361 57.8719 42.8853 57.8719C45.034 57.8719 47.1222 57.1538 48.8216 55.8305C49.1624 55.553 49.6348 55.5049 50.024 55.7086C51.2427 56.3792 52.3574 57.2241 53.3342 58.2173C53.6667 58.5389 53.98 58.8799 54.2721 59.2387C54.4795 59.4924 54.5648 59.826 54.5042 60.1491C54.4406 60.4762 54.2337 60.7577 53.9411 60.9148C51.9624 62.0051 50.3117 63.6114 49.162 65.5644C48.0128 67.5177 47.4074 69.7463 47.4094 72.0162V75.691C47.4064 75.9894 47.2843 76.2739 47.0705 76.4805C46.8567 76.6877 46.569 76.7987 46.2725 76.7898L46.2726 76.7899ZM30.2068 74.5696H45.1692V72.0054C45.1716 67.0737 47.6016 62.4632 51.6577 59.6938C51.0109 59.0629 50.301 58.5009 49.539 58.0177C47.5637 59.3697 45.2302 60.0927 42.8412 60.0927C40.4521 60.0927 38.1187 59.3696 36.1434 58.0177C32.4519 60.3272 30.2076 64.3905 30.2071 68.7637L30.2068 74.5696Z" fill="#515151"/>
<path d="M42.8318 56.097C40.7097 56.097 38.6752 55.249 37.1748 53.7394C35.6748 52.2303 34.832 50.1831 34.832 48.0485C34.832 45.914 35.6749 43.8667 37.1748 42.3572C38.6752 40.848 40.7097 40.0001 42.8318 40.0001C44.9533 40.0001 46.9878 40.8481 48.4882 42.3572C49.9886 43.8667 50.8315 45.914 50.8315 48.0485C50.8285 50.182 49.9847 52.2275 48.4848 53.7365C46.9853 55.2451 44.9523 56.0941 42.8318 56.097ZM42.8318 42.2196C41.2953 42.2196 39.8215 42.8337 38.7354 43.9265C37.6492 45.0197 37.0389 46.5021 37.0389 48.0478C37.0389 49.5936 37.6492 51.0759 38.7354 52.1686C39.8215 53.2619 41.2954 53.8759 42.8318 53.8759C44.3682 53.8759 45.8415 53.2619 46.9276 52.1686C48.0143 51.0758 48.6246 49.5935 48.6246 48.0478C48.6128 46.5084 47.9976 45.0366 46.9129 43.9512C45.8282 42.8658 44.3613 42.2558 42.8318 42.2527V42.2196Z" fill="#515151"/>
<path d="M46.2726 76.757H33.705C33.0956 76.757 32.6016 76.2599 32.6016 75.6469V68.5752C32.6016 67.9622 33.0956 67.4651 33.705 67.4651C34.3143 67.4651 34.8084 67.9622 34.8084 68.5752V74.5367H45.1697L45.1692 72.0058C45.1667 68.9588 46.1081 65.9863 47.8618 63.5024C48.2096 63.0003 48.8957 62.8759 49.3957 63.2248C49.6366 63.3943 49.8001 63.6545 49.8499 63.9464C49.8997 64.2378 49.8312 64.5377 49.6603 64.779C48.1741 66.8912 47.3795 69.4177 47.3875 72.0058V75.6469C47.3875 75.9433 47.2697 76.2273 47.0604 76.4359C46.851 76.6446 46.5673 76.7601 46.2727 76.7571L46.2726 76.757Z" fill="#515151"/>
<path d="M90.8982 76.7899H73.7504C73.1411 76.7899 72.647 76.2933 72.647 75.6798V72.0054C72.6475 68.6358 71.3086 65.406 68.9289 63.0356C68.1078 62.1916 67.1624 61.4799 66.126 60.9264C65.8294 60.7717 65.6181 60.4898 65.5521 60.1602C65.4881 59.8336 65.5733 59.4956 65.7841 59.2389C66.9589 57.8121 68.3884 56.6187 69.9988 55.7197C70.3894 55.5001 70.8736 55.5398 71.2239 55.8198C72.9204 57.1653 75.0218 57.8893 77.1823 57.8736C79.3527 57.8895 81.4645 57.1654 83.1738 55.8198C83.5147 55.5502 83.9812 55.5071 84.3654 55.7088C85.5821 56.3823 86.6968 57.2268 87.6757 58.2174C90.4525 61.0156 92.0085 64.8099 92.0012 68.7637V75.6798C92.0012 75.9742 91.8849 76.2567 91.6781 76.4648C91.4712 76.673 91.1904 76.7899 90.8978 76.7899L90.8982 76.7899ZM74.8538 74.5696H89.7947V68.7637C89.7928 64.3965 87.5589 60.3371 83.8807 58.0177C81.9038 59.3707 79.568 60.0942 77.1774 60.0942C74.7864 60.0942 72.451 59.3707 70.4742 58.0177C69.7161 58.5024 69.0102 59.0639 68.3664 59.6938C69.1279 60.2157 69.8372 60.8109 70.485 61.47C73.2978 64.2469 74.8874 68.0411 74.8987 72.0054L74.8538 74.5696Z" fill="#515151"/>
<path d="M77.172 56.097C75.0514 56.094 73.0179 55.2436 71.5199 53.733C70.0219 52.2224 69.1816 50.1751 69.1836 48.0411C69.1856 45.9071 70.0299 43.8612 71.5303 42.3531C73.0312 40.8455 75.0656 39.999 77.1867 40C79.3078 40.001 81.3418 40.8495 82.8413 42.3586C84.3408 43.8677 85.183 45.9144 85.183 48.0486C85.1801 50.1841 84.3348 52.2314 82.8328 53.7404C81.3309 55.2496 79.2949 56.097 77.1718 56.097H77.172ZM77.172 42.2196C75.6365 42.2226 74.1646 42.8386 73.0805 43.9329C71.9964 45.0272 71.3884 46.51 71.3904 48.0553C71.3924 49.6001 72.0042 51.0814 73.0908 52.1727C74.178 53.2645 75.6514 53.8771 77.1867 53.8761C78.7227 53.8751 80.195 53.2605 81.2807 52.1677C82.3664 51.0749 82.9762 49.5926 82.9762 48.0478C82.9644 46.5065 82.3476 45.033 81.2605 43.9473C80.1734 42.8619 78.704 42.2529 77.172 42.2529V42.2196Z" fill="#515151"/>
<path d="M86.3146 76.7569H73.7465C73.1372 76.7569 72.6431 76.2598 72.6431 75.6468V72.0056C72.646 69.4181 71.852 66.8936 70.3703 64.7788C70.1378 64.5494 70.0176 64.2282 70.0422 63.9016C70.0673 63.5745 70.2343 63.2757 70.4989 63.0844C70.7634 62.8931 71.0984 62.8292 71.4136 62.9099C71.7294 62.9902 71.9939 63.2068 72.1358 63.5022C73.8855 65.9876 74.8229 68.9597 74.817 72.0056V74.5366H85.1783V68.5751C85.1783 67.962 85.6724 67.4649 86.2817 67.4649C86.8911 67.4649 87.3851 67.962 87.3851 68.5751V75.6467C87.3851 76.2474 86.9112 76.7391 86.3146 76.7569Z" fill="#515151"/>
<path d="M73.7471 79.9985H46.2714C45.6621 79.9985 45.168 79.5014 45.168 78.8884V72.0055C45.1655 68.9586 46.1069 65.9861 47.8606 63.5022C49.1586 61.6258 50.8693 60.0761 52.859 58.9724C53.2496 58.7529 53.7334 58.7925 54.0841 59.0725C55.7697 60.4072 57.8535 61.1308 59.9981 61.1263C62.135 61.1452 64.2143 60.4285 65.8907 59.0949C65.9621 59.0324 66.0443 58.9833 66.133 58.9506C66.4488 58.7886 66.8221 58.7886 67.1374 58.9506C68.36 59.6138 69.4763 60.4598 70.4477 61.4593C71.0738 62.0882 71.6393 62.7761 72.1358 63.5131C73.8796 65.997 74.8127 68.9647 74.8062 72.0057V78.8886C74.8067 79.4848 74.3388 79.9749 73.7467 79.9987L73.7471 79.9985ZM47.3761 77.7783H72.645V72.0055C72.6248 68.6405 71.2888 65.4181 68.9269 63.0358C68.2629 62.3588 67.522 61.7626 66.7201 61.2596C64.7492 62.6393 62.401 63.3688 60.0001 63.3465C57.61 63.3524 55.2745 62.6284 53.3022 61.2705C51.8639 62.1774 50.6215 63.3668 49.6501 64.7673C48.157 66.8815 47.3585 69.412 47.366 72.0055L47.3761 77.7783Z" fill="#515151"/>
<path d="M59.9997 59.3385C57.8781 59.3385 55.8432 58.4906 54.3433 56.981C52.8429 55.4715 52 53.4246 52 51.2901C52 49.1551 52.8428 47.1083 54.3433 45.5987C55.8433 44.0896 57.8781 43.2417 59.9997 43.2417C62.1213 43.2417 64.1563 44.0897 65.6562 45.5987C67.1566 47.1083 67.9994 49.1551 67.9994 51.2901C67.9965 53.4236 67.1527 55.4691 65.6533 56.9776C64.1537 58.4867 62.1203 59.3356 59.9997 59.3385ZM59.9997 45.4612C58.4633 45.4612 56.99 46.0752 55.9033 47.168C54.8171 48.2608 54.2068 49.7437 54.2068 51.2894C54.2068 52.8352 54.8172 54.3174 55.9033 55.4102C56.99 56.5035 58.4634 57.1175 59.9997 57.1175C61.5361 57.1175 63.0095 56.5035 64.0961 55.4102C65.1823 54.3174 65.7926 52.8351 65.7926 51.2894C65.7926 49.7435 65.1823 48.2608 64.0961 47.168C63.0094 46.0752 61.5361 45.4612 59.9997 45.4612Z" fill="#515151"/>
<path d="M69.1495 79.9984H50.8769C50.2675 79.9984 49.7734 79.5014 49.7734 78.8883V71.8167C49.7734 71.2036 50.2675 70.7065 50.8769 70.7065C51.4862 70.7065 51.9803 71.2036 51.9803 71.8167V77.7782H68.046V71.8167C68.046 71.2036 68.5396 70.7065 69.1495 70.7065C69.7588 70.7065 70.2529 71.2036 70.2529 71.8167V78.8883C70.2529 79.1827 70.1366 79.4652 69.9297 79.6733C69.7224 79.8815 69.4421 79.9984 69.1495 79.9984Z" fill="#515151"/>
<circle cx="60" cy="114" r="18" fill="#0065EF" stroke="white" stroke-width="2"/>
<path d="M58.3125 110.598C58.6992 110.598 58.9922 110.454 59.1914 110.167C59.3906 109.88 59.5137 109.435 59.5605 108.831C59.6016 107.747 59.625 107.076 59.6309 106.818L61.1602 106.845C61.084 107.642 61.0459 108.359 61.0459 108.998C61.0459 109.549 61.1484 109.953 61.3535 110.211C61.5586 110.469 61.8809 110.598 62.3203 110.598C62.748 110.598 63.0498 110.466 63.2256 110.202C63.4072 109.933 63.498 109.525 63.498 108.98C63.498 108.371 63.4307 107.615 63.2959 106.713L65.2295 106.388C65.3818 107.272 65.458 108.043 65.458 108.699C65.458 109.279 65.4023 109.801 65.291 110.264C65.1797 110.727 65.0098 111.134 64.7812 111.485C64.5527 111.837 64.2422 112.109 63.8496 112.303C63.4629 112.49 63.0059 112.584 62.4785 112.584C61.916 112.584 61.4326 112.446 61.0283 112.171C60.6299 111.89 60.3691 111.509 60.2461 111.028C60.1406 111.509 59.9355 111.887 59.6309 112.162C59.332 112.438 58.9629 112.578 58.5234 112.584C58.3066 112.584 58.125 112.546 57.9785 112.47C57.8379 112.394 57.7031 112.273 57.5742 112.109C57.9609 114.037 58.1543 116.334 58.1543 119H56.168C56.168 116.645 56.001 114.547 55.667 112.707C55.3389 110.861 54.8027 108.989 54.0586 107.091L55.9482 106.405L56.4844 108.348C56.7832 109.186 57.0586 109.771 57.3105 110.105C57.5684 110.434 57.9023 110.598 58.3125 110.598Z" fill="white"/>
</svg>
