<svg width="148" height="104" viewBox="0 0 148 104" fill="none" xmlns="http://www.w3.org/2000/svg">
<g clip-path="url(#clip0_2548_553)">
<path d="M8.60121 18.6322C7.40602 18.6322 6.22254 18.3912 5.11833 17.923C4.01412 17.4549 3.01081 16.7687 2.16568 15.9036C1.32056 15.0385 0.650167 14.0115 0.192788 12.8813C-0.26459 11.751 -0.5 10.5396 -0.5 9.31619C-0.5 8.09279 -0.26459 6.88137 0.192788 5.7511C0.650167 4.62084 1.32056 3.59385 2.16568 2.72878C3.01081 1.86371 4.01412 1.17749 5.11833 0.709318C6.22254 0.241146 7.40602 0.000183069 8.60121 0.000183105H91.4358C92.631 0.000183069 93.8145 0.241146 94.9187 0.709318C96.0229 1.17749 97.0262 1.86371 97.8713 2.72878C98.7164 3.59385 99.3868 4.62084 99.8442 5.7511C100.302 6.88137 100.537 8.09279 100.537 9.31619C100.537 10.5396 100.302 11.751 99.8442 12.8813C99.3868 14.0115 98.7164 15.0385 97.8713 15.9036C97.0262 16.7687 96.0229 17.4549 94.9187 17.923C93.8145 18.3912 92.631 18.6322 91.4358 18.6322H8.60121Z" fill="#E6E6E6"/>
<path d="M8.60159 1.21533C6.50264 1.21533 4.48967 2.06881 3.00549 3.58802C1.5213 5.10723 0.6875 7.16771 0.6875 9.3162C0.6875 11.4647 1.5213 13.5252 3.00549 15.0444C4.48967 16.5636 6.50264 17.4171 8.60159 17.4171H91.4362C93.5351 17.4171 95.5481 16.5636 97.0323 15.0444C98.5165 13.5252 99.3503 11.4647 99.3503 9.3162C99.3503 7.16771 98.5165 5.10723 97.0323 3.58802C95.5481 2.06881 93.5351 1.21533 91.4362 1.21533H8.60159Z" fill="white"/>
<path d="M33.729 1.21515H33.4648V17.4169H33.729V1.21515Z" fill="#E6E6E6"/>
<path d="M66.5728 1.21515H66.3086V17.4169H66.5728V1.21515Z" fill="#E6E6E6"/>
<path d="M66.3104 1.21515H33.7305V17.4169H66.3104V1.21515Z" fill="#FFE25E"/>
<path d="M50.0357 4.3764C49.0784 4.3764 48.1425 4.66699 47.3465 5.21141C46.5505 5.75584 45.9301 6.52965 45.5638 7.435C45.1974 8.34034 45.1016 9.33656 45.2883 10.2977C45.4751 11.2588 45.9361 12.1416 46.613 12.8345C47.29 13.5275 48.1525 13.9993 49.0914 14.1905C50.0304 14.3817 51.0036 14.2836 51.8881 13.9086C52.7726 13.5336 53.5285 12.8985 54.0604 12.0837C54.5923 11.2689 54.8762 10.311 54.8762 9.33106C54.8762 8.01701 54.3662 6.75677 53.4584 5.82759C52.5507 4.89841 51.3195 4.3764 50.0357 4.3764ZM50.0357 5.8628C50.3229 5.8628 50.6037 5.94998 50.8425 6.11331C51.0813 6.27663 51.2674 6.50878 51.3773 6.78038C51.4872 7.05198 51.516 7.35085 51.46 7.63918C51.4039 7.92751 51.2656 8.19236 51.0625 8.40024C50.8595 8.60812 50.6007 8.74968 50.319 8.80704C50.0373 8.86439 49.7454 8.83495 49.48 8.72245C49.2147 8.60995 48.9879 8.41943 48.8283 8.175C48.6688 7.93056 48.5836 7.64318 48.5836 7.3492C48.5837 6.95502 48.7367 6.577 49.009 6.29829C49.2813 6.01958 49.6506 5.86301 50.0357 5.86301V5.8628ZM50.0357 13.0186C49.4621 13.0159 48.8977 12.87 48.3916 12.5935C47.8855 12.317 47.453 11.9184 47.1315 11.432C47.1547 10.4411 49.0677 9.89569 50.0357 9.89569C51.0038 9.89569 52.9168 10.4411 52.94 11.432C52.6181 11.918 52.1855 12.3164 51.6795 12.5928C51.1735 12.8692 50.6093 13.0154 50.0357 13.0186Z" fill="white"/>
<path d="M17.1881 4.3764C16.2307 4.3764 15.2949 4.66699 14.4989 5.21141C13.7029 5.75584 13.0825 6.52965 12.7161 7.435C12.3498 8.34034 12.2539 9.33656 12.4407 10.2977C12.6274 11.2588 13.0884 12.1416 13.7654 12.8345C14.4423 13.5275 15.3048 13.9993 16.2438 14.1905C17.1827 14.3817 18.156 14.2836 19.0404 13.9086C19.9249 13.5336 20.6809 12.8985 21.2128 12.0837C21.7446 11.2689 22.0285 10.311 22.0285 9.33106C22.0285 8.01701 21.5185 6.75677 20.6108 5.82759C19.703 4.89841 18.4718 4.3764 17.1881 4.3764ZM17.1881 5.8628C17.4753 5.8628 17.756 5.94998 17.9948 6.11331C18.2337 6.27663 18.4198 6.50878 18.5297 6.78038C18.6396 7.05198 18.6683 7.35085 18.6123 7.63918C18.5563 7.92751 18.418 8.19236 18.2149 8.40024C18.0118 8.60812 17.7531 8.74968 17.4714 8.80704C17.1897 8.86439 16.8977 8.83495 16.6324 8.72245C16.367 8.60995 16.1403 8.41943 15.9807 8.175C15.8211 7.93056 15.736 7.64318 15.736 7.3492C15.736 6.95498 15.8889 6.57691 16.1613 6.29816C16.4336 6.0194 16.803 5.8628 17.1881 5.8628ZM17.1881 13.0186C16.6144 13.0159 16.0501 12.87 15.544 12.5935C15.0379 12.317 14.6053 11.9184 14.2838 11.432C14.307 10.4411 16.22 9.89569 17.1881 9.89569C18.1562 9.89569 20.0691 10.4411 20.0923 11.432C19.7705 11.918 19.3378 12.3164 18.8318 12.5928C18.3258 12.8692 17.7616 13.0154 17.1881 13.0186Z" fill="#E6E6E6"/>
<path d="M82.8482 4.3764C81.8909 4.3764 80.9551 4.66699 80.159 5.21141C79.363 5.75584 78.7426 6.52965 78.3763 7.435C78.0099 8.34034 77.9141 9.33656 78.1008 10.2977C78.2876 11.2588 78.7486 12.1416 79.4255 12.8345C80.1025 13.5275 80.965 13.9993 81.9039 14.1905C82.8429 14.3817 83.8161 14.2836 84.7006 13.9086C85.5851 13.5336 86.341 12.8985 86.8729 12.0837C87.4048 11.2689 87.6887 10.311 87.6887 9.33106C87.6887 8.01701 87.1787 6.75677 86.2709 5.82759C85.3632 4.89841 84.132 4.3764 82.8482 4.3764ZM82.8482 5.8628C83.1354 5.8628 83.4162 5.94998 83.655 6.11331C83.8938 6.27663 84.0799 6.50878 84.1898 6.78038C84.2997 7.05198 84.3285 7.35085 84.2725 7.63918C84.2164 7.92751 84.0781 8.19236 83.8751 8.40024C83.672 8.60812 83.4132 8.74968 83.1315 8.80704C82.8499 8.86439 82.5579 8.83495 82.2925 8.72245C82.0272 8.60995 81.8004 8.41943 81.6408 8.175C81.4813 7.93056 81.3961 7.64318 81.3961 7.3492C81.3961 6.95498 81.5491 6.57691 81.8214 6.29816C82.0938 6.0194 82.4631 5.8628 82.8482 5.8628ZM82.8482 13.0186C82.2746 13.0159 81.7102 12.87 81.2041 12.5935C80.698 12.317 80.2655 11.9184 79.944 11.432C79.9672 10.4411 81.8802 9.89569 82.8482 9.89569C83.8163 9.89569 85.7293 10.4411 85.7525 11.432C85.4306 11.918 84.998 12.3164 84.492 12.5928C83.986 12.8692 83.4218 13.0154 82.8482 13.0186Z" fill="#E6E6E6"/>
<path d="M54.4709 25.4222H45.5968C44.9285 25.4222 44.3867 25.9767 44.3867 26.6608V35.7444C44.3867 36.4285 44.9285 36.9831 45.5968 36.9831H54.4709C55.1393 36.9831 55.681 36.4285 55.681 35.7444V26.6608C55.681 25.9767 55.1393 25.4222 54.4709 25.4222Z" fill="#5CA1FF"/>
<path d="M120.388 104C135.362 104 147.502 102.336 147.502 100.284C147.502 98.2316 135.362 96.5679 120.388 96.5679C105.413 96.5679 93.2734 98.2316 93.2734 100.284C93.2734 102.336 105.413 104 120.388 104Z" fill="#E6E6E6"/>
<path d="M87.2873 25.3849H78.4132C77.7449 25.3849 77.2031 25.9395 77.2031 26.6236V35.7072C77.2031 36.3913 77.7449 36.9458 78.4132 36.9458H87.2873C87.9557 36.9458 88.4974 36.3913 88.4974 35.7072V26.6236C88.4974 25.9395 87.9557 25.3849 87.2873 25.3849Z" fill="#E6E6E6"/>
<path d="M87.0408 26.9914H78.8125V35.4139H87.0408V26.9914Z" fill="white"/>
<path d="M49.505 32.9976L48.0781 31.1189L48.9079 30.4583L49.5835 31.3475L51.8662 28.8813L52.6295 29.6214L49.505 32.9976Z" fill="white"/>
<path d="M82.3722 32.9976L80.9453 31.119L81.775 30.4584L82.4507 31.3475L84.7331 28.8813L85.4965 29.6215L82.3722 32.9976Z" fill="#E6E6E6"/>
<path d="M21.6272 25.385H12.7531C12.0848 25.385 11.543 25.9396 11.543 26.6237V35.7072C11.543 36.3913 12.0848 36.9459 12.7531 36.9459H21.6272C22.2955 36.9459 22.8373 36.3913 22.8373 35.7072V26.6237C22.8373 25.9396 22.2955 25.385 21.6272 25.385Z" fill="#E6E6E6"/>
<path d="M21.3846 26.9913H13.1562V35.4138H21.3846V26.9913Z" fill="white"/>
<path d="M16.716 32.9976L15.2891 31.1189L16.1188 30.4583L16.7944 31.3475L19.0769 28.8813L19.8403 29.6214L16.716 32.9976Z" fill="#E6E6E6"/>
<path d="M138.665 97.3458H136.006L134.742 86.8508H138.665L138.665 97.3458Z" fill="#FFB8B8"/>
<path d="M134.106 96.5682H139.232V99.8713H130.879C130.879 98.9953 131.219 98.1551 131.824 97.5357C132.429 96.9162 133.25 96.5682 134.106 96.5682Z" fill="#FFE25E"/>
<path d="M111.508 97.3458H108.85L107.586 86.8508H111.509L111.508 97.3458Z" fill="#FFB8B8"/>
<path d="M106.95 96.5682H112.077V99.8713H103.723C103.723 98.9953 104.063 98.1551 104.668 97.5357C105.273 96.9162 106.094 96.5682 106.95 96.5682H106.95Z" fill="#FFE25E"/>
<path d="M120.383 19.4975V18.3074C120.383 16.2717 121.173 14.3194 122.579 12.8799C123.985 11.4405 125.893 10.6318 127.881 10.6318C129.87 10.6318 131.777 11.4405 133.184 12.8799C134.59 14.3194 135.38 16.2717 135.38 18.3074V19.4973C135.38 20.9647 134.811 22.3719 133.797 23.4095C132.783 24.4471 131.408 25.03 129.975 25.03H125.789C124.355 25.03 122.98 24.4471 121.967 23.4095C120.953 22.3719 120.384 20.9647 120.384 19.4973L120.383 19.4975Z" fill="#2F2E41"/>
<path d="M127.883 25.4407C131.037 25.4407 133.594 22.8235 133.594 19.595C133.594 16.3665 131.037 13.7493 127.883 13.7493C124.729 13.7493 122.172 16.3665 122.172 19.595C122.172 22.8235 124.729 25.4407 127.883 25.4407Z" fill="#FFB8B8"/>
<path d="M96.821 39.6847C97.0527 39.4608 97.3296 39.2915 97.6322 39.1889C97.9348 39.0864 98.2556 39.0529 98.5722 39.091C98.8887 39.1291 99.1933 39.2377 99.4644 39.4093C99.7355 39.5808 99.9665 39.8111 100.141 40.084L105.037 39.1362L106.325 42.0409L99.3932 43.2795C98.926 43.549 98.3785 43.6339 97.8543 43.5179C97.33 43.402 96.8655 43.0934 96.5486 42.6506C96.2317 42.2077 96.0844 41.6613 96.1346 41.1147C96.1848 40.5682 96.429 40.0594 96.821 39.6847Z" fill="#FFB8B8"/>
<path d="M123.435 29.1219L123.499 29.2212L115.471 34.6344L101.926 39.062C101.746 39.121 101.592 39.242 101.49 39.4042C101.387 39.5664 101.343 39.7599 101.365 39.9517L101.66 42.5571C101.673 42.6724 101.71 42.7836 101.767 42.8836C101.825 42.9837 101.902 43.0703 101.994 43.1379C102.087 43.2056 102.192 43.2527 102.303 43.2764C102.414 43.3001 102.528 43.2998 102.639 43.2755L115.388 40.4784C116.005 40.3438 116.589 40.0809 117.102 39.7059L126.12 33.1378C126.615 32.7768 126.951 32.2313 127.057 31.6188C127.164 31.0062 127.03 30.3755 126.687 29.8623C126.343 29.3491 125.817 28.9945 125.22 28.8747C124.624 28.7549 124.005 28.8796 123.498 29.2218L123.435 29.1219Z" fill="#5CA1FF"/>
<path d="M136.051 94.3676C135.847 94.3677 135.647 94.3069 135.476 94.1927C135.305 94.0785 135.17 93.9158 135.088 93.7246L122.902 62.9025C122.874 62.8356 122.826 62.7792 122.766 62.741C122.705 62.7027 122.634 62.6844 122.563 62.6885C122.492 62.6926 122.424 62.7189 122.368 62.7639C122.312 62.8089 122.27 62.8703 122.249 62.94L112.307 92.9467C112.265 93.0863 112.196 93.2157 112.103 93.3269C112.011 93.438 111.897 93.5286 111.769 93.5931C111.641 93.6575 111.501 93.6945 111.358 93.7016C111.216 93.7088 111.073 93.6861 110.94 93.6348L107.606 92.3548C107.425 92.286 107.266 92.1672 107.147 92.0115C107.028 91.8558 106.954 91.6695 106.932 91.4731C105.432 78.0992 118.512 44.3419 118.644 44.0021L118.681 43.9081L130.603 46.6078L130.628 46.6355C135.385 51.9473 139.295 85.4495 140.03 92.1116C140.058 92.3522 140.004 92.5952 139.879 92.8006C139.753 93.0059 139.563 93.1614 139.34 93.2413L136.397 94.3065C136.286 94.3469 136.169 94.3676 136.051 94.3676Z" fill="#2F2E41"/>
<path d="M125.781 47.6954C122.892 47.6954 119.672 47.1058 118.68 44.6726L118.658 44.6167L118.689 44.5649C119.471 43.2506 120.505 41.0091 119.949 40.5881C118.854 39.7595 118.323 38.3961 118.37 36.536C118.473 32.4982 121.16 28.9131 125.059 27.6152C126.147 27.2587 127.254 26.9669 128.375 26.7411C129.192 26.5723 130.036 26.5909 130.845 26.7955C131.654 27.0001 132.409 27.3857 133.056 27.9244C133.711 28.4668 134.24 29.1508 134.605 29.9273C134.971 30.7038 135.164 31.5536 135.171 32.4156C135.211 36.7303 134.563 42.7409 131.238 46.8667C131.082 47.0582 130.865 47.1872 130.626 47.2311C129.027 47.5274 127.406 47.6827 125.781 47.6954Z" fill="#5CA1FF"/>
<path d="M124.708 47.533C124.866 46.9557 125.239 46.4653 125.747 46.1683C126.256 45.8713 126.858 45.7918 127.424 45.9469C127.539 45.9799 127.652 46.0226 127.76 46.0744L131.477 42.6118L134.063 44.3944L128.747 49.2095C128.507 49.6524 128.129 50.0005 127.673 50.1983C127.218 50.3961 126.711 50.4323 126.233 50.3012C125.954 50.2232 125.694 50.0895 125.466 49.9078C125.238 49.726 125.048 49.4999 124.906 49.2425C124.765 48.9851 124.674 48.7015 124.64 48.408C124.606 48.1146 124.629 47.8172 124.708 47.533Z" fill="#FFB8B8"/>
<path d="M130.887 47.5767C130.646 47.5767 130.412 47.4911 130.225 47.3343L128.759 46.1082C128.637 46.006 128.539 45.8768 128.472 45.7304C128.406 45.5839 128.373 45.4239 128.375 45.2623C128.378 45.1008 128.416 44.942 128.487 44.7977C128.558 44.6534 128.659 44.5273 128.785 44.429L134.933 39.6024C135.006 39.5449 135.053 39.4603 135.066 39.367C135.078 39.2736 135.054 39.1791 134.999 39.1038L131.204 33.9685C130.763 33.3739 130.542 32.6387 130.58 31.8932C130.617 31.1477 130.912 30.4399 131.41 29.8952C131.935 29.3147 132.655 28.9574 133.425 28.8944C134.195 28.8313 134.961 29.067 135.569 29.5547L135.593 29.5808L139.556 35.3886C139.984 35.7325 140.33 36.1732 140.564 36.6761C140.799 37.1791 140.917 37.7307 140.909 38.288C140.9 38.8453 140.767 39.3932 140.517 39.8887C140.268 40.3843 139.911 40.8142 139.472 41.1449L131.51 47.3659C131.329 47.5022 131.111 47.5758 130.887 47.5759L130.887 47.5767Z" fill="#5CA1FF"/>
<path d="M122.828 17.9505V15.0502L127.887 12.7884L132.71 15.0494V17.9497C132.71 18.0122 132.698 18.0741 132.675 18.1319C132.651 18.1896 132.617 18.2421 132.574 18.2863C132.531 18.3305 132.48 18.3656 132.423 18.3895C132.367 18.4135 132.306 18.4258 132.245 18.4258H123.293C123.232 18.4258 123.172 18.4135 123.115 18.3895C123.059 18.3656 123.008 18.3305 122.964 18.2863C122.921 18.2421 122.887 18.1896 122.864 18.1319C122.84 18.0741 122.828 18.0122 122.828 17.9497V17.9505Z" fill="#2F2E41"/>
<path d="M132.214 13.5706C133.965 13.5706 135.385 12.1174 135.385 10.3249C135.385 8.53232 133.965 7.07916 132.214 7.07916C130.463 7.07916 129.043 8.53232 129.043 10.3249C129.043 12.1174 130.463 13.5706 132.214 13.5706Z" fill="#2F2E41"/>
<path d="M129.283 8.58372C129.283 8.10354 129.387 7.62928 129.588 7.19519C129.788 6.76109 130.08 6.37798 130.443 6.07349C130.806 5.769 131.23 5.55074 131.685 5.43444C132.14 5.31814 132.615 5.30671 133.075 5.40097C132.669 5.20517 132.227 5.09984 131.778 5.09197C131.33 5.0841 130.885 5.17385 130.472 5.3553C130.06 5.53675 129.69 5.80576 129.387 6.14451C129.084 6.48327 128.854 6.88406 128.714 7.32035C128.573 7.75665 128.525 8.2185 128.572 8.67535C128.619 9.1322 128.76 9.57363 128.986 9.97043C129.213 10.3672 129.518 10.7104 129.884 10.9771C130.249 11.2438 130.666 11.4281 131.106 11.5177C130.562 11.2561 130.101 10.8412 129.779 10.3217C129.456 9.80211 129.285 9.19931 129.284 8.58372H129.283Z" fill="#2F2E41"/>
</g>
<defs>
<clipPath id="clip0_2548_553">
<rect width="148" height="104" fill="white"/>
</clipPath>
</defs>
</svg>
