<svg width="120" height="133" viewBox="0 0 120 133" fill="none" xmlns="http://www.w3.org/2000/svg">
<circle cx="60" cy="60" r="59.5" fill="white" stroke="#5CA1FF"/>
<circle cx="60" cy="114" r="18" fill="#0065EF" stroke="white" stroke-width="2"/>
<path d="M61.3545 119H59.377C59.377 116.662 59.2129 114.608 58.8848 112.839C58.5625 111.063 58 109.156 57.1973 107.117L59.0869 106.405C59.9014 108.521 60.4814 110.542 60.8271 112.47C61.1787 114.392 61.3545 116.568 61.3545 119Z" fill="white"/>
<path d="M56.6561 45.5744C59.3823 45.5744 61.6003 43.4216 61.6003 40.7748C61.6003 38.1288 59.3822 35.9761 56.6561 35.9761C53.9289 35.9761 51.7109 38.1289 51.7109 40.7748C51.7109 43.4217 53.929 45.5744 56.6561 45.5744ZM56.6561 37.7639C58.3668 37.7639 59.7582 39.1144 59.7582 40.7748C59.7582 42.4352 58.3668 43.7866 56.6561 43.7866C54.9454 43.7866 53.553 42.4352 53.553 40.7748C53.553 39.1144 54.9454 37.7639 56.6561 37.7639Z" fill="#515151"/>
<path d="M48.7256 54.7037H64.5731C65.0822 54.7037 65.4942 54.3038 65.4942 53.8097V50.4007C65.4942 48.1458 63.3949 46.2899 60.7154 46.1755H60.7145C60.4779 46.1655 60.2382 46.2432 60.0516 46.4113C59.2259 47.1481 57.9864 47.5706 56.6499 47.5706C55.3142 47.5706 54.0748 47.1485 53.2491 46.4126C53.0885 46.2651 52.8758 46.1843 52.6474 46.1843C52.6258 46.1839 52.6046 46.1751 52.583 46.176C52.5821 46.176 52.5808 46.1756 52.5799 46.1756C49.9022 46.2995 47.8047 48.1555 47.8047 50.4007V53.8098C47.8047 54.3039 48.2165 54.7037 48.7256 54.7037ZM49.6467 50.4007C49.6467 49.196 50.8097 48.1929 52.3437 48.0008C53.4833 48.8655 55.0235 49.3583 56.6497 49.3583C58.2764 49.3583 59.8167 48.865 60.9567 47.9995C62.4893 48.1863 63.6523 49.1898 63.6523 50.4006V52.9157H49.6469L49.6467 50.4007Z" fill="#515151"/>
<path d="M48.207 59.2727C48.207 59.7668 48.619 60.1666 49.1281 60.1666H76.3538C76.8629 60.1666 77.2748 59.7668 77.2748 59.2727C77.2748 58.7786 76.8629 58.3788 76.3538 58.3788H49.1281C48.619 58.3788 48.207 58.7786 48.207 59.2727Z" fill="#515151"/>
<path d="M49.1281 66.7227H68.2982C68.8073 66.7227 69.2192 66.3229 69.2192 65.8287C69.2192 65.3346 68.8073 64.9348 68.2982 64.9348H49.1281C48.619 64.9348 48.207 65.3346 48.207 65.8287C48.207 66.3229 48.619 66.7227 49.1281 66.7227Z" fill="#515151"/>
<path d="M74.2078 71.4918H49.1281C48.619 71.4918 48.207 71.8916 48.207 72.3858C48.207 72.8799 48.619 73.2797 49.1281 73.2797H74.2078C74.7169 73.2797 75.1288 72.8799 75.1288 72.3858C75.1288 71.8916 74.7169 71.4918 74.2078 71.4918Z" fill="#515151"/>
<path d="M61.6679 78.2522H49.1281C48.619 78.2522 48.207 78.652 48.207 79.1461C48.207 79.6402 48.619 80.0401 49.1281 80.0401H61.6679C62.177 80.0401 62.589 79.6402 62.589 79.1461C62.589 78.652 62.177 78.2522 61.6679 78.2522Z" fill="#515151"/>
<path d="M77.6077 89.5C78.1168 89.5 78.5287 89.1002 78.5287 88.6061V84.7344H83.079C83.5881 84.7344 84 84.3346 84 83.8405V43.2761C84 43.2569 83.9901 43.2407 83.9888 43.222C83.9838 43.1404 83.9672 43.0618 83.9393 42.9845C83.9289 42.9562 83.9213 42.9278 83.9083 42.9007C83.8651 42.8108 83.8102 42.7266 83.7365 42.6532C83.7338 42.6502 83.732 42.6463 83.7288 42.6436L71.4825 30.7789C71.4578 30.7536 71.4263 30.737 71.3989 30.7148C71.3413 30.6685 71.2824 30.6261 71.2167 30.5956C71.1781 30.5773 71.1376 30.5672 71.0962 30.5541C71.0301 30.5336 70.964 30.5205 70.8947 30.5148C70.8682 30.5127 70.8457 30.5 70.8192 30.5H42.4076C41.8985 30.5 41.4866 30.8998 41.4866 31.3939V35.9753H36.921C36.4119 35.9753 36 36.3752 36 36.8693V88.6056C36 89.0997 36.4119 89.4995 36.921 89.4995L77.6077 89.5ZM71.737 33.551L80.8529 42.383L71.737 42.3847V33.551ZM43.3289 32.2878H69.895V43.2786C69.895 43.516 69.9921 43.743 70.1648 43.9106C70.3375 44.0782 70.5722 44.1725 70.816 44.1725L82.158 44.1703V82.9469L43.3285 82.9464L43.3289 32.2878ZM37.8423 37.7631H41.4868V83.8397C41.4868 84.3338 41.8988 84.7337 42.4079 84.7337H76.6864V87.7114H37.8419L37.8423 37.7631Z" fill="#515151"/>
</svg>
