<svg width="62" height="62" viewBox="0 0 62 62" fill="none" xmlns="http://www.w3.org/2000/svg">
<path d="M31 31L14.9794 35.5047L9.16681 52.8332C14.7615 58.4277 22.4991 62 31 62C39.5009 62 47.2386 58.4277 52.8332 52.8332L50.036 32.4893L31 31ZM52.8332 9.1668C47.2386 3.57227 39.5009 0 31 0C22.4991 0 14.7615 3.57227 9.16681 9.1668L11.9642 29.5105L31 31L47.0206 26.4953L52.8332 9.1668Z" fill="url(#paint0_linear)"/>
<path d="M24.5413 25.265C24.0904 25.2766 23.664 25.4729 23.362 25.8079C23.3411 25.8312 23.3199 25.8544 23.2984 25.8777C21.155 27.9847 17.704 27.9847 15.5969 25.8777C13.4534 23.7345 13.4534 20.2832 15.5969 18.1398C16.2991 17.4376 16.299 16.2992 15.5969 15.5969L9.1668 9.16687C3.57227 14.7613 0 22.4992 0 31.0001C0 39.5007 3.57227 47.2386 9.1668 52.8333L15.7066 46.2934C16.0194 45.9806 16.4447 45.8068 16.8869 45.8115C17.3291 45.8161 17.7508 45.9987 18.0568 46.3182C18.0843 46.3469 18.112 46.3752 18.1401 46.4033C20.2833 48.5466 23.7345 48.5466 25.878 46.4033C27.9849 44.2963 27.9849 40.845 25.878 38.7018C25.8548 38.6803 25.8315 38.6591 25.8081 38.6381C25.4732 38.3363 25.2776 37.9092 25.266 37.4585C25.2543 37.0078 25.4281 36.5721 25.747 36.2532L31 31.0001L25.7468 25.7469C25.4279 25.4279 24.9922 25.2535 24.5413 25.265ZM52.8332 9.16687L46.2933 15.7068C45.9806 16.0194 45.5553 16.1933 45.1131 16.1886C44.6709 16.1839 44.2492 16.0014 43.9432 15.682C43.9157 15.6534 43.888 15.6249 43.8599 15.5969C41.7167 13.4535 38.2655 13.4535 36.122 15.5969C34.0151 17.7039 34.0151 21.155 36.122 23.2985C36.1452 23.3198 36.1684 23.3411 36.1918 23.3621C36.5267 23.6639 36.7223 24.0911 36.7339 24.5418C36.7454 24.9925 36.5718 25.4282 36.2529 25.747L31 31.0001L36.2532 36.253C36.5721 36.572 37.0078 36.7465 37.4588 36.7348C37.9097 36.7233 38.3361 36.5269 38.6381 36.1918C38.6591 36.1686 38.6803 36.1453 38.7017 36.1222C40.8452 34.0151 44.2961 34.0151 46.4032 36.1222C48.5467 38.2657 48.5467 41.7169 46.4032 43.8601C46.3753 43.8881 46.3469 43.9158 46.3184 43.9433C45.9992 44.2492 45.8169 44.6712 45.8122 45.1133C45.8075 45.5554 45.981 45.9808 46.2937 46.2934L52.8332 52.8333C58.4277 47.2386 62 39.5007 62 31.0001C62 22.4992 58.4277 14.7613 52.8332 9.16687Z" fill="url(#paint1_linear)"/>
<defs>
<linearGradient id="paint0_linear" x1="31" y1="62" x2="31" y2="0" gradientUnits="userSpaceOnUse">
<stop stop-color="#FD3A84"/>
<stop offset="1" stop-color="#FFA68D"/>
</linearGradient>
<linearGradient id="paint1_linear" x1="31" y1="52.8333" x2="31" y2="9.16687" gradientUnits="userSpaceOnUse">
<stop stop-color="#FFC2CC"/>
<stop offset="1" stop-color="#FFF2F4"/>
</linearGradient>
</defs>
</svg>
