<svg width="164" height="138" viewBox="0 0 164 138" fill="none" xmlns="http://www.w3.org/2000/svg">
<path d="M150.8 18.4C150.6 22 146.6 24.6 145 24.6H138.7C131.5 24.6 125.4 27.1 120.4 32.1C115.4 37.1 112.8 43.1 112.8 50.2V53.3C112.8 56 113.8 58.4 115.7 60.3C117.6 62.2 120 63.2 122.8 63.2H145C150.1 63.2 154.5 65 158.1 68.5C161.7 72.1 163.5 76.4 163.5 81.5V119.1C163.5 124.2 161.7 128.5 158.1 132.1C154.5 135.7 150.1 137.4 145 137.4H107M107 137.5C101.9 137.5 97.5 135.7 93.9 132.2C90.3 128.6 88.5 124.3 88.5 119.2V50.2C88.5 43.5 89.8 37.1 92.5 30.9C95.1 24.8 98.7 19.5 103.2 15C107.7 10.5 113 7 119.2 4.4C125.4 1.8 131.9 0.5 138.6 0.5H144.9C146.5 0.5 147.8 1.1 149 2.2C150.2 3.4 150.7 4.7 150.7 6.3V18.8" stroke="#1C5BFF"/>
<path d="M5.9 132.2C2.3 128.6 0.5 124.3 0.5 119.2V50.2C0.5 43.5 1.8 37.1 4.5 30.9C7.1 24.8 10.7 19.5 15.2 15C19.7 10.5 25 7 31.2 4.4C37.4 1.8 43.9 0.5 50.6 0.5H57C58.6 0.5 59.9 1.1 61.1 2.2C62.3 3.4 62.8 4.7 62.8 6.3V18.8C62.8 20.4 62.2 21.7 61.1 22.9C59.9 24.1 58.6 24.6 57 24.6H50.7C43.6 24.6 37.5 27.1 32.4 32.1C27.4 37.1 24.8 43.1 24.8 50.2V53.3C24.8 56 25.8 58.4 27.7 60.3C29.6 62.2 32 63.2 34.8 63.2H57C62.1 63.2 66.5 65 70.1 68.5C73.7 72.1 75.5 76.4 75.5 81.5V119.1C75.5 124.2 73.7 128.5 70.1 132.1C66.5 135.7 62.1 137.4 57 137.4H19C13.9 137.5 9.5 135.7 5.9 132.2Z" stroke="#1C5BFF"/>
</svg>
