<svg width="77" height="77" viewBox="0 0 77 77" fill="none" xmlns="http://www.w3.org/2000/svg">
<path d="M38.4999 0C22.3006 0 9.1734 13.3025 9.1734 29.4769C9.1734 37.9678 12.8019 45.626 18.5881 50.9863L21.656 55.2742C26.4254 58.6332 32.2359 60.6081 38.4999 60.6081C44.8961 60.6081 50.8198 58.5488 55.6446 55.0594L58.4117 50.9863C64.1979 45.626 67.8264 37.9678 67.8264 29.4769C67.8264 13.2775 54.6763 0 38.4999 0V0Z" fill="url(#paint0_linear)"/>
<path d="M65.6866 65.6717L58.4119 50.9862C53.1784 55.8346 46.1798 58.8033 38.5001 58.8033C30.8203 58.8033 23.8218 55.8346 18.5883 50.9862L11.3136 65.6717C10.9512 66.4034 11.0124 67.2739 11.4736 67.9475C11.935 68.6212 12.7242 68.9929 13.5375 68.9199L22.7126 68.0932L27.5581 75.9303C27.9703 76.5971 28.6975 76.9999 29.4765 76.9999C29.5116 76.9999 29.5469 76.9991 29.5821 76.9975C30.4005 76.9593 31.1338 76.4803 31.4978 75.7462L38.4969 61.6313C40.568 65.8178 43.7297 72.2016 45.5053 75.7528C45.8711 76.4845 46.6042 76.9606 47.4213 76.9976C48.2381 77.034 49.0116 76.6262 49.4419 75.9303L54.2874 68.0932L63.4626 68.9199C64.2748 68.993 65.0651 68.6214 65.5265 67.9476C65.9879 67.2739 66.0491 66.4034 65.6866 65.6717ZM38.5001 49.7798C49.6951 49.7798 58.803 40.6719 58.803 29.4768C58.803 18.2778 49.7139 9.02344 38.5001 9.02344C27.3009 9.02344 18.1971 18.2616 18.1971 29.4768C18.1971 40.6719 27.305 49.7798 38.5001 49.7798ZM27.8815 27.8816C28.7623 27.0007 30.1907 27.0007 31.0717 27.8816L36.2443 33.0542L45.9287 23.3698C46.8095 22.4888 48.238 22.4888 49.119 23.3698C50 24.2508 50 25.6791 49.119 26.5601L37.8395 37.8395C36.9587 38.7204 35.5303 38.7205 34.6493 37.8395L27.8816 31.0719C27.0005 30.191 27.0005 28.7626 27.8815 27.8816Z" fill="url(#paint1_linear)"/>
<defs>
<linearGradient id="paint0_linear" x1="38.4999" y1="60.6081" x2="38.4999" y2="0" gradientUnits="userSpaceOnUse">
<stop stop-color="#00B59C"/>
<stop offset="1" stop-color="#9CFFAC"/>
</linearGradient>
<linearGradient id="paint1_linear" x1="38.5001" y1="76.9999" x2="38.5001" y2="9.02344" gradientUnits="userSpaceOnUse">
<stop stop-color="#C3FFE8"/>
<stop offset="0.9973" stop-color="#F0FFF4"/>
</linearGradient>
</defs>
</svg>
