<svg width="512" height="512" viewBox="0 0 512 512" fill="none" xmlns="http://www.w3.org/2000/svg">
    <g clip-path="url(#clip0_108_426)">
        <mask id="mask0_108_426" style="mask-type:luminance" maskUnits="userSpaceOnUse" x="0" y="0" width="512" height="512">
            <path d="M512 0H0V512H512V0Z" fill="white"/>
        </mask>
        <g mask="url(#mask0_108_426)">
            <path d="M512 0H0V512H512V0Z" fill="#0065EF"/>
        </g>
        <path d="M126 389C126 358.072 151.072 333 182 333H330C360.928 333 386 358.072 386 389V512.636H126V389Z" fill="white"/>
        <path d="M295.886 389.616C295.886 411.496 278.149 429.233 256.27 429.233C234.39 429.233 216.653 411.496 216.653 389.616C216.653 367.737 234.39 350 256.27 350C278.149 350 295.886 367.737 295.886 389.616Z" fill="#0065EF"/>
        <path d="M220.015 439.889C200.124 439.889 184 456.013 184 475.903V485.462C184 491.428 188.837 496.266 194.804 496.266H317.255C323.223 496.266 328.06 491.428 328.06 485.462V475.903C328.06 456.013 311.935 439.889 292.045 439.889H220.015Z" fill="#0065EF"/>
        <g filter="url(#filter0_d_108_426)">
            <path fill-rule="evenodd" clip-rule="evenodd" d="M263.116 221.449C264.483 216.126 265.1 210.666 264.963 205.068C264.689 198.107 263.39 191.35 261.064 184.798C258.738 178.109 255.454 171.967 251.212 166.371C245.877 159.408 239.379 153.812 231.716 149.58C224.054 145.212 215.913 142.482 207.293 141.39C198.537 140.298 189.917 140.981 181.435 143.438C173.088 145.759 165.426 149.513 158.448 154.699V121.119C158.448 117.57 157.217 114.568 154.755 112.11C152.292 109.654 149.281 108.424 145.724 108.424C142.167 108.424 139.157 109.654 136.695 112.11C134.232 114.568 133 117.57 133 121.119V205.068V207.73V211.007C133.137 211.962 133.274 212.987 133.411 214.078C133.958 219.675 135.258 225.135 137.31 230.458C139.499 235.645 142.167 240.491 145.315 244.996C148.598 249.5 152.36 253.596 156.602 257.281C160.98 260.831 165.7 263.833 170.762 266.29C181.298 271.205 192.38 273.252 204.009 272.433C215.639 271.478 226.31 267.723 236.026 261.171C240.677 258.032 244.782 254.415 248.339 250.32C252.033 246.088 255.112 241.584 257.575 236.806C260.038 231.892 261.885 226.772 263.116 221.449ZM239.514 204.045C240.2 213.6 237.804 222.2 232.331 229.844C229.595 233.803 226.243 237.147 222.275 239.877C218.444 242.608 214.202 244.586 209.551 245.815C200.384 248.408 191.49 247.794 182.87 243.972L181.639 243.357C176.577 241.174 172.199 237.898 168.505 233.53C163.716 227.933 160.569 221.518 159.064 214.283C157.697 207.048 158.243 199.95 160.706 192.988C162.621 187.801 165.495 183.16 169.326 179.065C173.157 174.97 177.672 171.763 182.87 169.442C188.07 167.257 193.475 166.165 199.084 166.165C204.694 166.165 210.098 167.326 215.298 169.646C217.486 170.738 219.539 171.899 221.455 173.127C223.506 174.355 225.423 175.789 227.201 177.427C230.759 180.976 233.631 185.071 235.82 189.713C238.009 194.216 239.241 198.995 239.514 204.045Z" fill="white"/>
            <path d="M309.498 185.944C309.498 181.014 304.214 177.018 297.698 177.018C291.18 177.018 285.896 181.014 285.896 185.944V263.303C285.896 268.233 291.18 272.229 297.698 272.229C304.214 272.229 309.498 268.233 309.498 263.303V185.944Z" fill="white"/>
            <path d="M297.698 164.732C304.214 164.732 309.498 159.461 309.498 152.958C309.498 146.457 304.214 141.186 297.698 141.186C291.18 141.186 285.896 146.457 285.896 152.958C285.896 159.461 291.18 164.732 297.698 164.732Z" fill="white"/>
            <path d="M357.614 150.682C357.614 145.255 352.79 140.854 346.84 140.854C340.888 140.854 336.065 145.255 336.065 150.682V262.069C336.065 267.497 340.888 271.897 346.84 271.897C352.79 271.897 357.614 267.497 357.614 262.069V150.682Z" fill="white"/>
            <path d="M365.936 177.223H328.995C322.194 177.223 316.681 182.035 316.681 187.972C316.681 193.909 322.194 198.721 328.995 198.721H365.936C372.737 198.721 378.25 193.909 378.25 187.972C378.25 182.035 372.737 177.223 365.936 177.223Z" fill="white"/>
        </g>
    </g>
    <defs>
        <filter id="filter0_d_108_426" x="117" y="100.424" width="277.25" height="196.185" filterUnits="userSpaceOnUse" color-interpolation-filters="sRGB">
            <feFlood flood-opacity="0" result="BackgroundImageFix"/>
            <feColorMatrix in="SourceAlpha" type="matrix" values="0 0 0 0 0 0 0 0 0 0 0 0 0 0 0 0 0 0 127 0" result="hardAlpha"/>
            <feOffset dy="8"/>
            <feGaussianBlur stdDeviation="8"/>
            <feComposite in2="hardAlpha" operator="out"/>
            <feColorMatrix type="matrix" values="0 0 0 0 0.0509804 0 0 0 0 0.411765 0 0 0 0 0.909804 0 0 0 0.5 0"/>
            <feBlend mode="normal" in2="BackgroundImageFix" result="effect1_dropShadow_108_426"/>
            <feBlend mode="normal" in="SourceGraphic" in2="effect1_dropShadow_108_426" result="shape"/>
        </filter>
        <clipPath id="clip0_108_426">
            <rect width="512" height="512" fill="white"/>
        </clipPath>
    </defs>
</svg>
