<svg width="73" height="79" viewBox="0 0 73 79" fill="none" xmlns="http://www.w3.org/2000/svg">
<path fill-rule="evenodd" clip-rule="evenodd" d="M25.0714 44.2837C22.7776 43.5016 20.5481 42.7229 18.2557 42.0534C16.497 41.5399 15.4876 39.6442 16.1637 37.9432C20.6671 26.6124 25.5821 15.4508 31.0542 4.55171C31.6719 3.32133 33.0587 2.66491 34.3795 3.0568C37.6531 4.02807 40.7199 5.42544 43.6693 7.13151C45.1004 7.95933 45.4877 9.81841 44.6077 11.2182C37.8024 22.043 31.9192 33.4284 25.124 44.2657C25.113 44.2833 25.0907 44.2914 25.0714 44.2837Z" fill="white" stroke="#5CA1FF" stroke-width="2" stroke-miterlimit="1.5" stroke-linecap="round" stroke-linejoin="round"/>
<path fill-rule="evenodd" clip-rule="evenodd" d="M17.5948 51.5259C12.5549 46.5804 4.26153 52.6543 7.39955 59.039C10.1753 64.686 19.5275 61.9751 19.1667 55.7949" fill="white"/>
<path d="M17.5948 51.5259C12.5549 46.5804 4.26153 52.6543 7.39956 59.039C10.1753 64.686 19.5275 61.9751 19.1667 55.7949" stroke="#FFEA8C" stroke-width="2" stroke-miterlimit="1.5" stroke-linecap="round" stroke-linejoin="round"/>
<path d="M65.3632 34.1397C59.4944 41.5842 53.7427 49.1741 47.5394 56.346C46.4906 57.5586 44.6693 57.7083 43.4223 56.7022L38.7834 52.9596C37.6367 52.0345 37.3329 50.4152 38.0676 49.1377C42.4478 41.5221 47.4667 32.8511 52.6475 24.9368C53.5058 23.6257 55.2398 23.2102 56.5784 24.0246C59.5698 25.8445 62.4817 27.899 65.0897 30.2315C66.2184 31.2411 66.3013 32.9497 65.3632 34.1397Z" stroke="#5CA1FF" stroke-width="2" stroke-miterlimit="1.5" stroke-linecap="round" stroke-linejoin="round"/>
<path fill-rule="evenodd" clip-rule="evenodd" d="M37.1078 63.9343C32.9649 59.6862 25.292 65.1679 28.0222 70.5835C30.9 76.2928 39.5909 72.0862 38.4891 66.3184" fill="white"/>
<path d="M37.1078 63.9343C32.9649 59.6862 25.292 65.1679 28.0222 70.5835C30.9 76.2928 39.5909 72.0862 38.4891 66.3184" stroke="#FFEA8C" stroke-width="2" stroke-miterlimit="1.5" stroke-linecap="round" stroke-linejoin="round"/>
</svg>
