<svg width="587" height="553" viewBox="0 0 587 553" fill="none" xmlns="http://www.w3.org/2000/svg">
<path d="M55.93 172.626H177.331L167.132 274.945H188.188L182.266 321.992H162.197L157.262 372H100.016L95.081 321.992H6.58L9.212 274.945L55.93 172.626ZM84.882 220.002L59.22 274.945H90.146L84.882 220.002ZM321.86 225.266C318.789 215.177 312.648 210.132 303.436 210.132C294.224 210.132 287.973 215.177 284.683 225.266C281.612 235.355 280.077 250.928 280.077 271.984C280.077 312.561 287.863 332.849 303.436 332.849C319.008 332.849 326.795 312.561 326.795 271.984C326.795 250.928 325.15 235.355 321.86 225.266ZM375.158 347.983C355.418 366.188 331.51 375.29 303.436 375.29C275.361 375.29 251.454 366.188 231.714 347.983C211.974 329.559 202.104 304.445 202.104 272.642C202.104 240.839 211.206 215.506 229.411 196.643C247.615 177.561 272.29 168.02 303.436 168.02C334.581 168.02 359.256 177.561 377.461 196.643C395.665 215.506 404.768 240.839 404.768 272.642C404.768 304.445 394.898 329.559 375.158 347.983ZM495.489 299.62C495.489 278.783 479.368 268.365 447.126 268.365H441.204L469.169 218.028L421.464 209.145L431.992 172.626H571.817L534.311 237.11C535.408 237.549 536.943 238.207 538.917 239.084C540.891 239.742 544.291 241.716 549.116 245.006C553.942 248.077 558.219 251.805 561.947 256.192C565.676 260.359 569.076 266.281 572.146 273.958C575.217 281.415 576.752 289.64 576.752 298.633C576.752 320.566 568.198 338.881 551.09 353.576C533.982 368.052 513.365 375.29 489.238 375.29C476.956 375.29 464.892 373.316 453.048 369.368C441.424 365.201 432.87 361.033 427.386 356.866L418.832 350.944L434.624 319.36C445.152 325.282 455.242 328.243 464.892 328.243C474.543 328.243 482 325.83 487.264 321.005C492.748 316.18 495.489 309.051 495.489 299.62Z" fill="#8B9199"/>
<path d="M420.839 279.27L453.493 257.889" stroke="#457FCC" stroke-width="6" stroke-linecap="round"/>
<path d="M116.931 469.551L508.176 469.551" stroke="#457FCC" stroke-width="6" stroke-linecap="round"/>
<path d="M536.168 469.551L557 469.551" stroke="#457FCC" stroke-width="6" stroke-linecap="round"/>
<path d="M31 469.551L80.4752 469.551" stroke="#457FCC" stroke-width="6" stroke-linecap="round"/>
<path d="M370.389 248.992L387.435 213.938" stroke="#457FCC" stroke-width="6" stroke-linecap="round"/>
<path d="M294.65 242.95L295.497 204" stroke="#457FCC" stroke-width="6" stroke-linecap="round"/>
<path d="M219.973 249.08L201.626 214.686" stroke="#457FCC" stroke-width="6" stroke-linecap="round"/>
<path d="M169.593 279.164L137.389 257.115" stroke="#457FCC" stroke-width="6" stroke-linecap="round"/>
<rect x="245.175" y="307.234" width="182.277" height="162.317" fill="#DECC78"/>
<path d="M245.175 307.234H427.452L466.837 365.668H283.258L245.175 307.234Z" fill="#F6E387"/>
<rect x="161.849" y="307.234" width="83.3267" height="162.317" fill="#C0AF67"/>
<path d="M161.848 307.234H245.175L206.116 365.668H122.789L161.848 307.234Z" fill="#DECC78"/>
<ellipse cx="399.46" cy="388.393" rx="9.11386" ry="9.08977" fill="#343A41"/>
<ellipse cx="274.469" cy="388.393" rx="9.11386" ry="9.08977" fill="#343A41"/>
<path d="M280.447 456.241C278.944 456.241 277.718 455.021 277.788 453.519C278.466 438.926 284.577 425.068 294.98 414.692C306.029 403.673 321.014 397.482 336.639 397.482C352.264 397.482 367.249 403.673 378.298 414.692C388.702 425.068 394.813 438.926 395.491 453.519C395.56 455.021 394.335 456.241 392.831 456.241C391.327 456.241 390.116 455.021 390.039 453.519C389.365 440.367 383.83 427.89 374.448 418.533C364.42 408.532 350.82 402.913 336.639 402.913C322.458 402.913 308.858 408.532 298.831 418.533C289.448 427.89 283.913 440.367 283.24 453.519C283.163 455.021 281.951 456.241 280.447 456.241Z" fill="#343A41"/>
</svg>
