<svg width="607" height="553" viewBox="0 0 607 553" fill="none" xmlns="http://www.w3.org/2000/svg">
<path d="M55.93 172.626H177.331L167.132 274.945H188.188L182.266 321.992H162.197L157.262 372H100.016L95.081 321.992H6.58L9.212 274.945L55.93 172.626ZM84.882 220.002L59.22 274.945H90.146L84.882 220.002ZM321.86 225.266C318.789 215.177 312.648 210.132 303.436 210.132C294.224 210.132 287.973 215.177 284.683 225.266C281.612 235.355 280.077 250.928 280.077 271.984C280.077 312.561 287.863 332.849 303.436 332.849C319.008 332.849 326.795 312.561 326.795 271.984C326.795 250.928 325.15 235.355 321.86 225.266ZM375.158 347.983C355.418 366.188 331.51 375.29 303.436 375.29C275.361 375.29 251.454 366.188 231.714 347.983C211.974 329.559 202.104 304.445 202.104 272.642C202.104 240.839 211.206 215.506 229.411 196.643C247.615 177.561 272.29 168.02 303.436 168.02C334.581 168.02 359.256 177.561 377.461 196.643C395.665 215.506 404.768 240.839 404.768 272.642C404.768 304.445 394.898 329.559 375.158 347.983ZM468.182 172.626H589.583L579.384 274.945H600.44L594.518 321.992H574.449L569.514 372H512.268L507.333 321.992H418.832L421.464 274.945L468.182 172.626ZM497.134 220.002L471.472 274.945H502.398L497.134 220.002Z" fill="#8B9199"/>
<path d="M429.839 279.27L462.493 257.889" stroke="#457FCC" stroke-width="6" stroke-linecap="round"/>
<path d="M125.931 469.551L517.176 469.551" stroke="#457FCC" stroke-width="6" stroke-linecap="round"/>
<path d="M545.168 469.551L566 469.551" stroke="#457FCC" stroke-width="6" stroke-linecap="round"/>
<path d="M40 469.551L89.4752 469.551" stroke="#457FCC" stroke-width="6" stroke-linecap="round"/>
<path d="M379.389 248.992L396.435 213.938" stroke="#457FCC" stroke-width="6" stroke-linecap="round"/>
<path d="M303.65 242.95L304.497 204" stroke="#457FCC" stroke-width="6" stroke-linecap="round"/>
<path d="M228.973 249.08L210.626 214.686" stroke="#457FCC" stroke-width="6" stroke-linecap="round"/>
<path d="M178.593 279.164L146.389 257.115" stroke="#457FCC" stroke-width="6" stroke-linecap="round"/>
<rect x="254.175" y="307.234" width="182.277" height="162.317" fill="#DECC78"/>
<path d="M254.175 307.234H436.452L475.837 365.668H292.258L254.175 307.234Z" fill="#F6E387"/>
<rect x="170.849" y="307.234" width="83.3267" height="162.317" fill="#C0AF67"/>
<path d="M170.848 307.234H254.175L215.116 365.668H131.789L170.848 307.234Z" fill="#DECC78"/>
<ellipse cx="408.46" cy="388.393" rx="9.11386" ry="9.08977" fill="#343A41"/>
<ellipse cx="283.469" cy="388.393" rx="9.11386" ry="9.08977" fill="#343A41"/>
<path d="M289.447 456.241C287.944 456.241 286.718 455.021 286.788 453.519C287.466 438.926 293.577 425.069 303.98 414.692C315.029 403.673 330.014 397.482 345.639 397.482C361.264 397.482 376.249 403.673 387.298 414.692C397.702 425.069 403.813 438.926 404.491 453.519C404.56 455.021 403.335 456.241 401.831 456.241C400.327 456.241 399.116 455.021 399.039 453.519C398.365 440.367 392.83 427.89 383.448 418.533C373.42 408.532 359.82 402.913 345.639 402.913C331.458 402.913 317.858 408.532 307.831 418.533C298.448 427.89 292.913 440.367 292.24 453.519C292.163 455.021 290.951 456.241 289.447 456.241Z" fill="#343A41"/>
</svg>
