<svg width="40" height="27" viewBox="0 0 40 27" fill="none" xmlns="http://www.w3.org/2000/svg">
<path d="M21.5235 15.6968C21.5458 16.6059 21.4453 17.4926 21.2222 18.3573C21.0214 19.222 20.7201 20.0534 20.3185 20.8516C19.9168 21.6276 19.4147 22.3593 18.8121 23.0466C18.2319 23.7117 17.5624 24.2992 16.8037 24.8092C15.2193 25.8734 13.4786 26.4832 11.5819 26.6383C9.68503 26.7713 7.87745 26.4388 6.15914 25.6406C5.33346 25.2415 4.56357 24.7538 3.84946 24.1773C3.15768 23.5787 2.54399 22.9135 2.00841 22.1819C1.49515 21.4502 1.05999 20.6632 0.702945 19.8206C0.368209 18.956 0.156205 18.0692 0.0669474 17.1601C0.0446373 16.9827 0.0223101 16.8164 0 16.6612C0 16.4838 0 16.3065 0 16.1291V15.6968V2.06144C0 1.48498 0.200841 0.99722 0.602524 0.598137C1.00421 0.199054 1.49515 -0.000488281 2.07536 -0.000488281C2.65558 -0.000488281 3.14652 0.199054 3.5482 0.598137C3.94988 0.99722 4.15072 1.48498 4.15072 2.06144V7.54883V7.51557C5.28883 6.67306 6.53851 6.06336 7.89976 5.68644C9.28334 5.28736 10.6893 5.1765 12.1174 5.35387C13.5233 5.53125 14.8511 5.97466 16.1008 6.68415C17.3505 7.37146 18.4105 8.28048 19.2808 9.41122C19.9725 10.3203 20.5081 11.318 20.8875 12.4043C21.2669 13.4686 21.4788 14.566 21.5235 15.6968ZM16.2012 19.7209C17.0938 18.4792 17.4844 17.0824 17.3728 15.5305C17.3281 14.7102 17.1273 13.9342 16.7703 13.2025C16.4133 12.4487 15.9446 11.7836 15.3644 11.2071C15.0743 10.941 14.7618 10.7082 14.4271 10.5087C14.1146 10.3092 13.7799 10.1208 13.4229 9.94333C12.5749 9.56641 11.6935 9.37796 10.7785 9.37796C9.86354 9.37796 8.98208 9.55534 8.13408 9.91007C7.28608 10.287 6.54966 10.808 5.92482 11.4731C5.29999 12.1383 4.83136 12.8921 4.51893 13.7346C4.11725 14.8654 4.02799 16.0182 4.25114 17.1933C4.49662 18.3685 5.00987 19.4104 5.79093 20.3195C6.39345 21.029 7.10756 21.5611 7.93324 21.9158C8.13408 22.0267 8.33492 22.1265 8.53576 22.2151C8.75891 22.3038 8.98208 22.3926 9.20523 22.4812C9.0267 22.4147 8.84819 22.3482 8.66966 22.2816C8.49113 22.193 8.31261 22.1042 8.13408 22.0156C9.53997 22.6363 10.9905 22.7361 12.4856 22.3149C13.2443 22.1154 13.9362 21.7939 14.561 21.3504C15.2082 20.907 15.7548 20.3639 16.2012 19.7209Z" fill="#C7E0F4"/>
<path d="M28.7879 12.5904C28.7879 11.7897 27.9262 11.1406 26.8632 11.1406C25.8002 11.1406 24.9385 11.7897 24.9385 12.5904V25.1553C24.9385 25.956 25.8002 26.6051 26.8632 26.6051C27.9262 26.6051 28.7879 25.956 28.7879 25.1553V12.5904Z" fill="#C7E0F4"/>
<path d="M26.8632 9.14535C27.9262 9.14535 28.7879 8.28919 28.7879 7.23307C28.7879 6.17695 27.9262 5.3208 26.8632 5.3208C25.8002 5.3208 24.9385 6.17695 24.9385 7.23307C24.9385 8.28919 25.8002 9.14535 26.8632 9.14535Z" fill="#C7E0F4"/>
<path d="M36.6534 6.91713C36.6534 6.0355 35.8666 5.3208 34.896 5.3208C33.9255 5.3208 33.1387 6.0355 33.1387 6.91713V25.0089C33.1387 25.8905 33.9255 26.6052 34.896 26.6052C35.8666 26.6052 36.6534 25.8905 36.6534 25.0089V6.91713Z" fill="#C7E0F4"/>
<path d="M37.9917 11.1738H31.9664C30.8572 11.1738 29.958 11.9555 29.958 12.9198C29.958 13.8841 30.8572 14.6658 31.9664 14.6658H37.9917C39.1009 14.6658 40.0001 13.8841 40.0001 12.9198C40.0001 11.9555 39.1009 11.1738 37.9917 11.1738Z" fill="#C7E0F4"/>
</svg>
