<svg width="200" height="200" viewBox="0 0 200 200" fill="none" xmlns="http://www.w3.org/2000/svg">
<path d="M168.417 65.1667L104.25 102.333C101.667 103.833 98.4167 103.833 95.7501 102.333L31.5834 65.1667C27.0001 62.5 25.8334 56.25 29.3334 52.3333C31.7501 49.5833 34.5001 47.3333 37.4167 45.75L82.5834 20.75C92.2501 15.3333 107.917 15.3333 117.583 20.75L162.75 45.75C165.667 47.3333 168.417 49.6667 170.833 52.3333C174.167 56.25 173 62.5 168.417 65.1667Z" fill="#888F95"/>
<path d="M95.2499 117.833V174.667C95.2499 181 88.8332 185.167 83.1666 182.417C65.9999 174 37.0833 158.25 37.0833 158.25C26.9166 152.5 18.5833 138 18.5833 126.083V83.0833C18.5833 76.5 25.4999 72.3333 31.1666 75.5833L91.0833 110.333C93.5833 111.917 95.2499 114.75 95.2499 117.833Z" fill="#888F95"/>
<path d="M104.75 117.833V174.667C104.75 181 111.167 185.167 116.833 182.417C134 174 162.917 158.25 162.917 158.25C173.083 152.5 181.417 138 181.417 126.083V83.0833C181.417 76.5 174.5 72.3333 168.833 75.5833L108.917 110.333C106.417 111.917 104.75 114.75 104.75 117.833Z" fill="#888F95"/>
</svg>
