<svg width="207" height="128" viewBox="0 0 207 128" fill="none" xmlns="http://www.w3.org/2000/svg">
<ellipse cx="68.1755" cy="-8" rx="138.386" ry="136" fill="white"/>
<path d="M114.011 95.9731C111.006 95.9731 108.001 95.9731 105.023 95.9731C104.862 95.9731 104.701 95.9731 104.54 95.9731C103.386 95.9462 102.93 95.4888 102.903 94.332C102.903 91.7762 102.903 89.2473 102.903 86.6915C102.903 86.6108 102.903 86.53 102.903 86.4493C102.957 85.6153 103.413 85.158 104.245 85.1042C104.325 85.1042 104.406 85.1042 104.486 85.1042C105.426 85.1042 105.318 85.1849 105.318 84.2164C105.318 82.2255 105.372 80.2616 105.318 78.2707C105.211 75.3652 106.311 72.9439 108.162 70.7916C110.309 68.3165 113.019 66.9983 116.292 66.7561C116.802 66.7292 117.151 66.4871 117.5 66.1643C118.948 64.7653 120.397 63.4201 121.846 62.0212C122.678 61.2141 123.563 60.5415 124.717 60.3263C124.985 60.2725 125.12 60.111 125.227 59.8689C125.576 58.9811 125.951 58.1202 126.3 57.2324C126.515 56.6674 126.488 56.1294 126.327 55.5644C126.005 54.4883 125.764 53.4121 125.817 52.2822C125.978 48.2198 127.856 45.2335 131.452 43.3772C132.874 42.6508 134.43 43.4579 134.698 45.0452C135.154 47.601 135.503 50.1837 135.718 52.7665C135.932 55.4837 136.04 58.2278 135.986 60.9719C135.906 63.7968 135.718 66.5947 135.342 69.3927C135.128 70.98 134.376 72.2982 133.249 73.4013C131.264 75.3383 129.278 77.3022 127.293 79.2662C125.924 80.6113 124.556 81.9565 123.188 83.3017C122.839 83.6514 122.517 84.0011 122.383 84.4854C122.249 85.0235 122.249 85.0504 122.758 85.0773C123.08 85.0773 123.402 85.0773 123.724 85.0773C124.583 85.1042 125.039 85.5615 125.12 86.4493C125.12 86.5569 125.12 86.6646 125.12 86.7722C125.12 89.2473 125.12 91.6955 125.12 94.1706C125.12 94.332 125.12 94.4934 125.12 94.6548C125.039 95.4081 124.61 95.8386 123.885 95.9193C123.644 95.9462 123.402 95.9462 123.161 95.9462C120.048 95.9731 117.043 95.9731 114.011 95.9731ZM132.257 45.9868C131.291 46.3635 130.352 47.1706 129.654 48.1929C128.339 50.1568 127.99 52.2822 128.688 54.5421C129.144 55.9679 129.091 57.3131 128.473 58.6583C128.232 59.1963 128.044 59.7613 127.776 60.2994C127.642 60.5953 127.695 60.7298 127.964 60.8912C129.305 61.6714 129.949 63.3394 129.493 65.1689C129.252 66.1912 128.688 66.9983 128.017 67.7516C126.354 69.6348 124.69 71.518 123.027 73.4013C122.651 73.8317 122.275 74.2622 121.9 74.6657C121.39 75.1769 120.558 75.2038 120.075 74.7464C119.592 74.2891 119.539 73.5358 119.968 72.9708C120.075 72.8363 120.183 72.7287 120.29 72.5942C122.275 70.3343 124.261 68.0744 126.246 65.8414C126.622 65.4379 126.917 64.9805 127.025 64.4425C127.212 63.5009 126.783 62.909 125.817 62.8283C125.066 62.7476 124.476 63.0704 123.939 63.5816C122.302 65.142 120.639 66.7023 119.002 68.2896C118.304 68.9622 117.5 69.2851 116.534 69.3658C112.616 69.7155 109.906 71.7602 108.377 75.3652C108.135 75.9302 107.974 76.5489 107.948 77.1677C107.894 79.6697 107.921 82.1448 107.921 84.6468C107.921 85.1042 107.948 85.1042 108.457 85.1311C109.584 85.1311 110.738 85.1311 111.865 85.1311C114.253 85.1311 116.614 85.1311 119.002 85.1311C119.566 85.1311 119.592 85.1311 119.673 84.593C119.861 83.3555 120.424 82.36 121.336 81.4991C122.812 80.0733 124.261 78.6205 125.737 77.1677C127.642 75.2845 129.547 73.4013 131.479 71.5449C132.149 70.8723 132.632 70.0921 132.766 69.1505C133.142 66.4871 133.33 63.8237 133.41 61.1334C133.518 57.7974 133.384 54.4614 132.981 51.1523C132.713 49.4304 132.471 47.7355 132.257 45.9868Z" fill="#515151"/>
<path d="M85.9731 95.9731C82.9949 95.9731 80.0166 95.9731 77.0652 95.9731C76.9311 95.9731 76.7969 95.9731 76.6627 95.9731C75.3212 95.9731 74.8919 95.5157 74.8919 94.1437C74.8919 91.6955 74.8919 89.2742 74.8919 86.826C74.8919 86.6108 74.8919 86.3955 74.9455 86.1803C75.0797 85.5077 75.509 85.158 76.1798 85.1042C76.5822 85.0773 76.9847 85.0773 77.3872 85.1042C77.6823 85.1042 77.7628 84.9966 77.7092 84.7006C77.575 84.1626 77.253 83.7321 76.8774 83.3555C74.7041 81.2301 72.5576 79.1048 70.3843 76.9794C69.1769 75.7957 67.9695 74.585 66.7352 73.4013C65.4742 72.1906 64.8034 70.7109 64.6156 68.9622C64.1594 65.142 63.918 61.2948 64.0253 57.4476C64.1058 54.4345 64.2936 51.4482 64.7766 48.462C64.9375 47.3589 65.1522 46.2828 65.2863 45.1798C65.501 43.4579 67.245 42.7047 68.6939 43.431C72.2893 45.2605 74.4626 49.0538 74.1943 53.0624C74.1406 53.8695 73.926 54.6766 73.7113 55.4568C73.5235 56.1563 73.4967 56.8289 73.8186 57.5014C74.1406 58.2547 74.4358 59.008 74.7309 59.7613C74.8651 60.0842 75.026 60.2994 75.4017 60.3801C76.3944 60.5415 77.1994 61.1065 77.897 61.7791C79.3995 63.2318 80.9289 64.6577 82.4046 66.1105C82.8339 66.514 83.29 66.7562 83.8803 66.81C88.8709 67.2404 93.0834 70.7647 94.3445 75.5266C94.5323 76.2261 94.6128 76.9525 94.6128 77.6789C94.6396 79.858 94.6128 82.0103 94.6128 84.1895C94.6128 84.3778 94.6128 84.5661 94.6128 84.7544C94.5859 85.0504 94.7469 85.1311 95.0152 85.1311C95.2567 85.1311 95.4982 85.1311 95.7397 85.1311C96.5178 85.1849 96.9739 85.6422 97.0276 86.4224C97.0276 86.5301 97.0276 86.6377 97.0276 86.7453C97.0276 89.2742 97.0276 91.7762 97.0276 94.3051C97.0276 94.4665 97.0276 94.6279 97.0007 94.7894C96.8934 95.3812 96.5983 95.7848 95.9812 95.9193C95.686 95.9731 95.3909 96 95.0957 96C92.0638 95.9731 89.0319 95.9731 85.9731 95.9731ZM67.7548 45.933C67.0035 50.0223 66.6547 54.0578 66.5742 58.0933C66.4937 61.4024 66.7621 64.6846 67.0572 67.9937C67.1914 69.6079 67.8085 70.8993 68.989 72.0561C72.2356 75.15 75.4017 78.3515 78.6214 81.4722C79.5337 82.36 80.124 83.3555 80.3118 84.6199C80.3923 85.1042 80.4191 85.1311 80.9289 85.1311C84.4438 85.1311 87.9586 85.1311 91.4735 85.1311C92.037 85.1311 92.0638 85.1311 92.0638 84.5392C92.0638 82.1448 92.0638 79.7773 92.0638 77.3829C92.0638 77.087 92.037 76.7911 91.9565 76.4951C91.1247 72.648 87.5293 69.6079 83.5047 69.3658C82.5119 69.312 81.6802 68.9622 80.9557 68.2627C80.1508 67.4826 79.319 66.7024 78.4873 65.9222C77.6555 65.1151 76.7969 64.3349 75.9651 63.5278C75.4017 62.9897 74.7309 62.7476 73.9528 62.8821C73.1747 63.0166 72.8527 63.4471 72.9064 64.2542C72.96 64.8998 73.3089 65.411 73.7381 65.8953C75.4822 67.8592 77.2262 69.8231 78.9434 71.7871C79.2922 72.1906 79.6678 72.5942 80.0166 73.0246C80.3654 73.482 80.3654 74.0738 80.0703 74.5312C79.7752 74.9886 79.1849 75.2307 78.6482 75.0155C78.3531 74.9078 78.0848 74.6926 77.8701 74.4505C75.8578 72.1906 73.8455 69.9307 71.8331 67.644C71.4843 67.2404 71.1355 66.81 70.894 66.3257C69.8476 64.4156 70.1428 61.9405 71.9941 60.8644C72.2893 60.7029 72.2624 60.5146 72.1283 60.2725C71.8868 59.7344 71.699 59.1694 71.4307 58.6314C70.8404 57.3131 70.7599 55.9949 71.2429 54.5959C71.6453 53.3583 71.7258 52.0939 71.4307 50.8294C70.9209 48.7041 69.7403 47.063 67.7548 45.933Z" fill="#515151"/>
<path d="M99.9523 63.0167C108.404 63.0705 115.944 57.2056 117.768 48.5965C119.888 38.5885 113.529 29.1724 104.058 27.047C98.2083 25.7288 92.9226 27.0739 88.2808 30.8673C88.1198 31.0018 87.9588 31.1363 87.771 31.2439C87.2076 31.5668 86.5636 31.4592 86.1611 30.9749C85.7587 30.4906 85.7318 29.7374 86.188 29.28C86.6173 28.8495 87.1271 28.446 87.61 28.0963C90.6688 25.8364 94.1032 24.5181 97.8864 24.1146C107.17 23.1191 116.266 28.6881 119.485 37.7814C120.424 40.4448 120.907 43.189 120.666 45.9869C119.995 53.9234 116.158 59.7883 109.075 63.474C105.855 65.142 102.34 65.8415 98.7181 65.5725C93.1372 65.1958 88.415 62.936 84.6049 58.8198C81.9487 55.9411 80.2851 52.5513 79.5339 48.731C78.7021 44.4265 79.2119 40.2834 80.9827 36.2748C81.0901 36.0596 81.1974 35.8444 81.3584 35.6561C81.734 35.2256 82.2706 35.118 82.7536 35.3332C83.2634 35.5485 83.5854 35.9789 83.5585 36.517C83.5317 36.8667 83.4244 37.1896 83.2634 37.5124C82.056 40.2834 81.5194 43.1621 81.7877 46.1483C82.2975 51.9863 84.9537 56.6406 89.8102 59.9766C92.8958 62.0213 96.2765 63.0167 99.9523 63.0167Z" fill="#515151"/>
<path d="M112.268 35.2794C112.107 37.351 111.65 39.3149 110.899 41.2251C108.967 46.0676 105.452 49.3229 100.784 51.4214C98.0471 52.6589 95.1493 53.2508 92.1443 53.2508C92.0369 53.2508 91.9296 53.2777 91.8223 53.2508C91.3661 53.1701 91.071 53.3315 90.8832 53.7889C90.7222 54.2193 90.5076 54.6229 90.2929 55.0264C90.2124 55.2148 90.1051 55.43 89.9978 55.5914C89.6221 56.1295 88.9782 56.264 88.4147 55.9949C87.8244 55.699 87.5025 55.0802 87.7439 54.4346C87.9854 53.8158 88.2806 53.197 88.5757 52.6051C88.7904 52.1747 88.844 51.7711 88.8172 51.2869C88.6562 48.7042 88.6562 46.1215 89.4343 43.5925C90.2392 41.0098 91.7686 38.9921 94.1298 37.62C95.9274 36.5708 97.7788 35.7368 99.818 35.4409C100.596 35.3332 101.374 35.2256 102.152 35.2256C104.755 35.1718 107.25 34.7683 109.611 33.6114C110.819 33.0196 112.268 33.7998 112.268 35.2794Z" fill="#515151"/>
<path d="M83.5851 40.8751C83.6119 40.7944 83.6119 40.633 83.6656 40.4715C84.551 37.2431 86.2145 34.4721 88.7098 32.2122C89.005 31.9432 89.3001 31.7549 89.7026 31.7549C90.2124 31.7549 90.588 31.9432 90.8563 32.3737C91.1246 32.831 91.1246 33.3153 90.8026 33.7457C90.6417 33.9609 90.4538 34.1493 90.2392 34.3376C88.3342 36.1401 87.0194 38.2924 86.2682 40.8213C86.1877 41.0634 86.134 41.3055 86.0535 41.5208C85.7852 42.1126 85.1949 42.4355 84.6046 42.301C83.9607 42.1933 83.5582 41.6284 83.5851 40.8751Z" fill="#515151"/>
<path d="M95.8471 30.1677C95.7934 30.7058 95.552 31.1093 95.069 31.3245C94.4787 31.5936 93.8884 31.8357 93.2981 32.1047C92.6542 32.4007 91.9029 31.9971 91.6614 31.459C91.3663 30.8403 91.5541 30.1408 92.1981 29.791C92.842 29.4413 93.5128 29.1454 94.1836 28.9032C95.0153 28.6342 95.8739 29.3337 95.8471 30.1677Z" fill="#515151"/>
<path d="M85.7049 33.1003C85.7049 33.7998 85.1146 34.3917 84.417 34.3917C83.7194 34.3917 83.1291 33.8267 83.1291 33.1272C83.1022 32.4008 83.7194 31.782 84.4438 31.809C85.1414 31.809 85.7049 32.4008 85.7049 33.1003Z" fill="#515151"/>
<path d="M113.985 87.7139C111.329 87.7139 108.699 87.7139 106.043 87.7139C105.506 87.7139 105.479 87.7408 105.479 88.2251C105.479 89.7317 105.479 91.2651 105.479 92.7717C105.479 93.3367 105.479 93.3636 106.07 93.3636C107.626 93.3636 109.209 93.3636 110.765 93.3636C114.414 93.3636 118.063 93.3636 121.712 93.3636C122.49 93.3636 122.49 93.3636 122.49 92.6103C122.49 91.2113 122.49 89.7855 122.49 88.3865C122.49 88.2789 122.49 88.1713 122.49 88.0637C122.517 87.7677 122.356 87.687 122.088 87.687C121.9 87.687 121.712 87.687 121.524 87.687C119.002 87.7139 116.507 87.7139 113.985 87.7139Z" fill="#FFDA2F"/>
<path d="M85.9462 93.3635C88.5757 93.3635 91.1783 93.3635 93.8077 93.3635C94.4249 93.3635 94.4517 93.3635 94.4517 92.7447C94.4517 91.3457 94.4517 89.9198 94.4517 88.5209C94.4517 87.6062 94.5322 87.6869 93.6199 87.6869C88.522 87.6869 83.4241 87.6869 78.3262 87.6869C78.1652 87.6869 78.0042 87.6869 77.8432 87.6869C77.5749 87.6869 77.4676 87.8214 77.4676 88.0904C77.4676 89.6777 77.4676 91.2919 77.4676 92.8792C77.4676 93.2289 77.6017 93.3635 77.9506 93.3635C78.1384 93.3635 78.3262 93.3635 78.514 93.3635C80.9825 93.3635 83.4778 93.3635 85.9462 93.3635Z" fill="#FFDA2F"/>
<path d="M91.3662 47.924C91.554 47.6819 91.6345 47.6012 91.6882 47.5205C92.8419 45.9332 94.1835 44.5342 95.686 43.2967C96.8129 42.3819 97.9935 41.6018 99.2546 40.9292C99.8985 40.5794 100.596 40.7947 100.972 41.3596C101.347 41.9515 101.186 42.7048 100.569 43.1352C100.328 43.2967 100.06 43.4581 99.818 43.5926C97.0544 45.2068 94.8274 47.359 93.0834 50.0225C92.9761 50.157 92.9224 50.3453 92.8419 50.5336C93.0297 50.5336 93.1371 50.5605 93.2176 50.5605C95.4982 50.3991 97.6984 49.9149 99.7912 48.9732C103.44 47.3052 106.392 44.8839 108.109 41.1444C108.78 39.6647 109.289 38.1581 109.477 36.5439C109.37 36.5439 109.316 36.517 109.263 36.5439C107.036 37.4048 104.728 37.7277 102.367 37.7815C100.167 37.8353 98.1008 38.3465 96.169 39.4226C94.9884 40.0683 93.8615 40.7947 93.0566 41.9515C91.9028 43.7271 91.5004 45.691 91.3662 47.924Z" fill="#38B2AC"/>
</svg>
