<svg width="203" height="121" viewBox="0 0 203 121" fill="none" xmlns="http://www.w3.org/2000/svg">
<ellipse cx="66.7649" cy="-7.55309" rx="135.523" ry="128.402" fill="#F5F9FF"/>
<path d="M133.671 74.4467C133.233 74.1427 133.069 73.8111 133.069 73.2585C133.096 67.428 133.096 61.5976 133.096 55.7671C133.096 55.5184 133.096 55.2421 133.096 54.9381C131.945 55.325 130.877 55.6842 129.836 56.0434C128.932 56.3474 128.027 56.5408 127.096 56.5408C125.315 56.5408 123.945 55.2145 123.918 53.4184C123.89 52.396 123.89 51.4012 123.918 50.3788C123.945 48.6103 125.315 47.284 127.069 47.284C128.027 47.284 128.959 47.505 129.89 47.809C130.959 48.1682 132 48.5274 133.096 48.8866C133.096 48.7208 133.123 48.5827 133.123 48.4721C133.123 44.6036 133.123 40.7351 133.123 36.8665C133.123 36.6454 133.123 36.4244 133.069 36.231C132.74 34.5454 131.37 33.3848 129.644 33.3848C127.014 33.3572 124.384 33.3848 121.726 33.3848C121.479 33.3848 121.206 33.3848 120.932 33.3848C121.096 32.8322 121.26 32.3348 121.397 31.865C122.329 28.411 120.137 24.874 116.63 24.2385C115.315 23.9898 113.945 23.9898 112.63 24.2661C109.48 24.874 107.288 28.1346 107.918 31.3124C108.055 32.0032 108.274 32.6664 108.466 33.3848C108.219 33.3848 108 33.3848 107.753 33.3848C105.973 33.3848 104.219 33.4124 102.438 33.3848C101.534 33.3848 100.712 33.5506 100 34.1033C99.8083 34.2414 99.6987 34.2414 99.5069 34.1033C98.7946 33.5506 97.9727 33.3848 97.0686 33.3848C94.5206 33.4124 92.0001 33.3848 89.4521 33.3848C89.2056 33.3848 88.9864 33.3848 88.7124 33.3848C88.8768 32.8322 89.0412 32.3624 89.1782 31.865C90.0549 28.3557 87.8631 24.8187 84.3837 24.1832C83.0686 23.9345 81.6987 23.9345 80.3837 24.2108C77.233 24.8187 75.0412 28.0794 75.644 31.2571C75.7809 31.9479 76.0001 32.6111 76.1919 33.3572C75.9453 33.3572 75.7261 33.3572 75.4796 33.3572C73.5618 33.3572 71.644 33.3296 69.7262 33.3572C68.1645 33.3848 66.8494 34.4072 66.4659 35.927C66.3563 36.3691 66.3289 36.8389 66.3289 37.281C66.3289 48.0853 66.3289 58.8896 66.3289 69.6939C66.3289 70.4123 66.2193 70.965 65.644 71.3795C65.5892 71.4071 65.5618 71.49 65.507 71.6005C66.0001 72.0703 66.4933 72.5677 66.9864 73.0651C67.37 73.4519 67.4522 73.9217 67.2604 74.3914C67.0686 74.8888 66.6577 75.1099 66.1097 75.1099C65.644 75.1099 65.1508 75.1099 64.6851 75.1099C63.9727 75.1099 64.0001 75.027 64.0001 75.7454C64.0001 77.0165 64.0001 78.3152 64.0001 79.5863C64.0001 81.0232 64.0001 82.4877 64.0001 83.9246C64.0001 84.3667 64.0001 84.3667 64.4385 84.3667C65.0138 84.3667 65.5892 84.3667 66.1645 84.3667C66.6577 84.3667 67.0686 84.5878 67.2604 85.0575C67.4522 85.5273 67.3974 85.9971 66.9864 86.3839C66.6029 86.7708 66.2193 87.1576 65.8084 87.5721C65.4522 87.9313 65.3974 87.8761 65.8084 88.2905C67.6988 90.1972 69.6166 92.1315 71.507 94.0381C71.644 94.1763 71.8083 94.3144 72.0275 94.5355C72.5207 94.0105 72.959 93.5131 73.4522 93.0433C73.644 92.8775 73.8631 92.7117 74.1097 92.6288C74.822 92.463 75.4522 92.9328 75.507 93.7065C75.5344 94.3144 75.507 94.9223 75.507 95.5303C75.507 95.9724 75.507 96 75.9179 96C78.685 96 81.4796 96 84.2467 96C84.685 96 84.685 96 84.685 95.5579C84.685 94.95 84.685 94.3421 84.685 93.7341C84.7124 93.1539 85.0412 92.7394 85.5617 92.6288C86.0001 92.5459 86.3563 92.6288 86.685 92.9604C87.1234 93.4026 87.5617 93.8447 88.0001 94.2868C88.1371 94.4249 88.2741 94.4802 88.4111 94.3144C88.4932 94.2315 88.5754 94.1486 88.6576 94.0657C90.548 92.1591 92.411 90.2801 94.3015 88.3734C94.4384 88.2353 94.548 88.0971 94.7398 87.9037C94.1919 87.3787 93.6987 86.8813 93.1782 86.3839C92.7946 86.0247 92.7672 85.5549 92.9316 85.1128C93.1234 84.6431 93.5069 84.422 94.0001 84.3944C94.1371 84.3944 94.2741 84.3944 94.4384 84.3944C101.288 84.3944 108.137 84.3944 115.014 84.3944C115.178 84.3944 115.343 84.3944 115.507 84.3944C115.699 84.3944 115.753 84.4773 115.753 84.6707C115.753 84.8365 115.753 85.0023 115.753 85.1681C115.753 87.8208 115.753 90.4735 115.753 93.1539C115.753 93.3473 115.781 93.5683 115.781 93.8723C122.548 87.959 129.26 82.1009 136 76.1875C135.205 75.5796 134.466 74.9717 133.671 74.4467ZM100.877 36.756C100.932 36.1481 101.343 35.7336 101.945 35.6783C102.137 35.6507 102.329 35.6783 102.521 35.6783C105.288 35.6783 108.082 35.6783 110.849 35.6783C111.096 35.6783 111.315 35.6783 111.644 35.6783C111.562 35.4296 111.534 35.2362 111.452 35.0428C111.069 33.8546 110.63 32.6664 110.274 31.4782C109.562 29.1847 110.822 26.9464 113.123 26.5043C114.219 26.2833 115.37 26.2556 116.466 26.5596C118.712 27.1399 119.644 29.4886 119.151 31.0913C118.767 32.3624 118.356 33.6059 117.945 34.877C117.863 35.098 117.781 35.3467 117.699 35.5954C117.945 35.7336 118.219 35.6783 118.466 35.6783C122 35.6783 125.507 35.6783 129.041 35.6783C129.205 35.6783 129.37 35.6783 129.534 35.6783C130.301 35.7059 130.74 36.1204 130.767 36.8941C130.767 36.977 130.767 37.0323 130.767 37.1152C130.767 39.7955 130.767 42.4759 130.767 45.1562C130.767 45.2944 130.767 45.4326 130.767 45.5984C129.836 45.4049 128.959 45.1839 128.082 45.0457C125.37 44.6036 122.877 45.9852 121.945 48.4721C121.726 49.0524 121.616 49.688 121.589 50.2959C121.534 51.3736 121.562 52.4789 121.589 53.5565C121.644 56.4856 124.055 58.862 126.959 58.8896C128.247 58.8896 129.479 58.6133 130.685 58.2264C130.795 58.7514 130.849 71.1031 130.712 72.2637C125.753 68.6162 120.849 64.9687 115.863 61.266C115.836 61.5699 115.836 61.791 115.836 61.9844C115.836 64.5542 115.836 67.0964 115.836 69.6663C115.836 69.8321 115.836 69.9978 115.836 70.1636C115.836 70.3571 115.753 70.4676 115.562 70.4676C115.425 70.4676 115.288 70.4676 115.123 70.4676C110.63 70.4676 106.11 70.4676 101.617 70.4676C100.795 70.4676 100.904 70.5505 100.904 69.7215C100.904 66.1293 100.904 62.5094 100.904 58.9172C100.904 58.6685 100.904 58.4475 100.904 58.2264C101.836 58.4198 102.74 58.6685 103.617 58.7791C105.616 59.0554 107.37 58.5304 108.74 56.983C109.589 56.0158 110.055 54.8552 110.082 53.5565C110.11 52.4512 110.11 51.3183 110.082 50.213C110 47.3116 107.644 44.9628 104.74 44.9352C103.644 44.9352 102.603 45.1286 101.562 45.4049C101.37 45.4602 101.151 45.5155 100.877 45.5984C100.877 45.3497 100.877 45.1286 100.877 44.9076C100.877 42.3101 100.877 39.7403 100.877 37.1428C100.849 37.0599 100.849 36.8941 100.877 36.756ZM88.822 65.549C88.7124 65.4385 88.5754 65.328 88.4658 65.1898C88.3015 65.024 88.1919 65.0793 88.0549 65.2174C87.6165 65.6595 87.1782 66.1017 86.7398 66.5438C86.4111 66.8754 86.0549 66.9583 85.6165 66.8754C85.1234 66.7648 84.7672 66.3504 84.7398 65.7701C84.7124 65.1622 84.7398 64.5542 84.7398 63.9463C84.7398 63.5318 84.7398 63.5042 84.3015 63.5042C81.5344 63.5042 78.7398 63.5042 75.9727 63.5042C75.5618 63.5042 75.5618 63.5318 75.5618 63.974C75.5618 64.5819 75.5892 65.1898 75.5618 65.7977C75.507 66.5438 74.9042 67.0412 74.1645 66.8477C73.9179 66.7925 73.6988 66.5991 73.507 66.4333C73.2604 66.2122 73.0138 65.9635 72.7946 65.7148C72.5755 65.4661 72.3563 65.1898 72.1097 64.8858C70.9316 66.0464 69.8631 67.1517 68.7125 68.3123C68.6851 68.0636 68.6851 67.8978 68.6851 67.7596C68.6851 57.5632 68.6851 47.3668 68.6851 37.1705C68.6851 37.0323 68.6851 36.8665 68.6851 36.7283C68.7399 36.1204 69.1508 35.7059 69.7536 35.6507C69.9453 35.623 70.1371 35.6507 70.3289 35.6507C73.096 35.6507 75.8905 35.6507 78.6576 35.6507C78.9042 35.6507 79.1234 35.6507 79.4522 35.6507C79.2878 35.1257 79.1508 34.6283 78.9864 34.1585C78.685 33.2467 78.3563 32.3348 78.0823 31.4229C77.3974 29.157 78.6576 26.9188 80.959 26.4491C82.0549 26.228 83.2056 26.228 84.3015 26.5043C86.2741 27.0293 87.4795 29.0741 86.959 31.0637C86.6302 32.3348 86.1645 33.5782 85.7535 34.8493C85.6713 35.0704 85.6165 35.3191 85.5069 35.623C85.8083 35.623 86.0549 35.623 86.3015 35.623C89.8357 35.623 93.3973 35.623 96.9316 35.623C97.1234 35.623 97.3151 35.623 97.5069 35.623C98.1097 35.6783 98.5206 36.0928 98.5754 36.7007C98.6028 36.9218 98.5754 37.1428 98.5754 37.3639C98.5754 40.9285 98.5754 44.4654 98.5754 48.03C98.5754 48.2787 98.5754 48.4998 98.5754 48.8314C98.9864 48.6932 99.3425 48.6103 99.6987 48.4721C100.575 48.1958 101.425 47.8919 102.301 47.6155C103.069 47.3668 103.89 47.2287 104.712 47.2287C106.411 47.2563 107.781 48.5827 107.808 50.2959C107.836 51.3459 107.836 52.3683 107.808 53.4184C107.781 55.1868 106.411 56.4856 104.658 56.5132C103.699 56.5132 102.795 56.3198 101.918 56.0158C100.849 55.6566 99.7809 55.2974 98.6302 54.9105C98.6302 55.2697 98.6302 55.5184 98.6302 55.7948C98.6302 60.437 98.6302 65.0793 98.6302 69.7215C98.6302 70.5505 98.7124 70.44 97.8905 70.44C96.7398 70.44 95.5891 70.4123 94.4384 70.44C93.9727 70.4676 93.6439 70.2742 93.3152 69.9426C91.7809 68.5057 90.3015 67.0135 88.822 65.549ZM118.11 88.8156C118.11 88.4563 118.11 88.2076 118.11 87.959C118.11 86.1352 118.11 84.3391 118.11 82.5154C118.11 82.0732 118.11 82.0732 117.671 82.0732C117.507 82.0732 117.342 82.0732 117.178 82.0732C110.466 82.0732 103.753 82.0732 97.0412 82.0732C96.1097 82.0732 96.2467 82.1838 96.2467 81.2719C96.2467 79.4482 96.2467 77.5968 96.2467 75.773C96.2467 75.0546 96.3014 75.1375 95.5891 75.1375C95.1234 75.1375 94.6302 75.1375 94.1645 75.1375C93.5617 75.1375 93.1234 74.8612 92.9864 74.3914C92.822 73.894 92.959 73.3966 93.3973 73.0374C93.5069 72.9269 93.6713 72.8716 93.8357 72.844C94.0275 72.8164 94.2193 72.844 94.411 72.844C102.055 72.844 109.699 72.844 117.343 72.844C118.247 72.844 118.137 72.9545 118.137 72.0426C118.137 70.2465 118.137 68.4781 118.137 66.6819C118.137 66.4333 118.137 66.2122 118.137 65.853C122.932 69.3899 127.644 72.8716 132.411 76.4086C127.644 80.4982 122.932 84.6154 118.11 88.8156ZM80.0823 89.0366C75.0412 89.009 70.9316 84.8089 70.9316 79.6968C70.959 74.6125 75.096 70.44 80.1645 70.4676C85.2056 70.4676 89.3426 74.6677 89.3426 79.7521C89.3426 84.8918 85.1782 89.0643 80.0823 89.0366Z" fill="#515151"/>
<path d="M74.3563 54.2196C72.4659 54.192 70.9043 52.5893 70.9317 50.655C70.9591 48.776 72.5481 47.2286 74.4111 47.2562C76.3015 47.2839 77.8632 48.8865 77.8358 50.7932C77.8084 52.6998 76.2468 54.2472 74.3563 54.2196Z" fill="#515151"/>
<path d="M83.5619 47.2562C85.4797 47.2286 87.0413 48.8036 87.0413 50.7379C87.0413 52.6169 85.5071 54.192 83.6167 54.2196C81.6988 54.2472 80.1372 52.6722 80.1372 50.7379C80.1646 48.8589 81.6988 47.2839 83.5619 47.2562Z" fill="#515151"/>
<path d="M92.8494 47.2563C94.7398 47.2563 96.3014 48.859 96.274 50.7933C96.2466 52.6723 94.6576 54.2197 92.7946 54.1921C90.9042 54.1645 89.3425 52.5618 89.3699 50.6551C89.3699 48.8038 90.959 47.2563 92.8494 47.2563Z" fill="#515151"/>
<path d="M75.5343 50.7656C75.5343 50.13 75.0411 49.605 74.411 49.605C73.7535 49.5774 73.2329 50.13 73.2329 50.7932C73.2329 51.4287 73.7535 51.9261 74.3836 51.9261C75.0137 51.8985 75.5343 51.3735 75.5343 50.7656Z" fill="#FFDA2F"/>
<path d="M84.7397 50.7103C84.7123 50.0748 84.2192 49.5774 83.589 49.5774C82.9589 49.5774 82.4658 50.1024 82.4658 50.7103C82.4658 51.3735 83.0137 51.8985 83.6438 51.8709C84.274 51.8709 84.7671 51.3459 84.7397 50.7103Z" fill="#FFDA2F"/>
<path d="M93.9454 50.7103C93.918 50.0748 93.4248 49.5774 92.7947 49.5774C92.1645 49.5774 91.6714 50.1024 91.6714 50.7103C91.6714 51.3735 92.2193 51.8985 92.8495 51.8709C93.4796 51.8709 93.9728 51.3459 93.9454 50.7103Z" fill="#FFDA2F"/>
<path d="M70.9316 79.7245C70.959 74.6401 75.096 70.4676 80.1645 70.4953C85.2056 70.4953 89.3426 74.6954 89.3426 79.7798C89.3426 84.9194 85.1782 89.0643 80.0823 89.0643C75.0412 89.009 70.9316 84.8089 70.9316 79.7245ZM73.2604 79.7798C73.2604 83.593 76.3837 86.7432 80.1919 86.7155C83.9727 86.7155 87.0686 83.5654 87.0686 79.7245C87.0686 75.9112 83.9453 72.7888 80.1371 72.7888C76.3289 72.8164 73.233 75.9389 73.2604 79.7798Z" fill="#515151"/>
<path d="M80.1644 75.1099C82.7123 75.1099 84.7671 77.2099 84.7671 79.7797C84.7671 82.3219 82.6575 84.422 80.1096 84.3944C77.6165 84.3667 75.5617 82.2943 75.5617 79.7521C75.5343 77.2099 77.6165 75.1099 80.1644 75.1099ZM80.137 77.431C78.8767 77.431 77.863 78.481 77.863 79.7245C77.863 81.0232 78.9041 82.0732 80.1918 82.0732C81.4247 82.0732 82.4658 81.0232 82.4658 79.7797C82.4658 78.481 81.3973 77.431 80.137 77.431Z" fill="#515151"/>
<path d="M93.9453 78.2874C93.9453 77.5137 93.9453 77.5137 93.2056 77.3203C91.7261 76.9611 90.7124 75.7453 90.6028 74.2255C90.5206 73.2031 90.8494 72.3188 91.4795 71.6004C90.3837 70.4951 89.3426 69.4174 88.2467 68.3398C88.0549 68.4779 87.8357 68.6161 87.6165 68.7542C86.5754 69.3622 85.5343 69.3898 84.4385 68.8924C83.3426 68.395 82.7398 67.5384 82.4933 66.3778C82.3837 65.8252 82.3837 65.8252 81.8083 65.8252C80.6576 65.8252 79.507 65.8252 78.3563 65.8252C77.8905 65.8252 77.8905 65.8252 77.7809 66.295C77.5892 67.2621 77.1234 68.0358 76.3015 68.6161C75.1782 69.3622 73.507 69.4451 72.3289 68.5332C72.1645 68.4226 72.0275 68.2016 71.781 68.4503C70.7673 69.4727 69.7536 70.4951 68.7399 71.5175C68.8495 71.6556 68.9042 71.7385 68.9864 71.8491C69.6714 72.7886 69.8358 73.8386 69.507 74.9439C69.096 76.3255 68.1371 77.0992 66.7399 77.3756C66.3015 77.4585 66.3015 77.4585 66.3015 77.9006C66.3015 79.1164 66.3015 80.3046 66.3015 81.5204C66.3015 81.9626 66.3015 81.9626 66.7947 82.0731C67.7262 82.2665 68.4933 82.7086 69.0412 83.51C69.8358 84.6429 69.9179 86.3561 68.9864 87.572C68.7673 87.8483 68.7947 87.9864 69.0412 88.2075C69.9453 89.0917 70.8221 89.976 71.6714 90.8879C71.8905 91.1365 72.0275 91.1365 72.3015 90.9155C73.4522 90.0589 74.6851 90.0036 75.9453 90.6392C77.0138 91.1642 77.5892 92.1037 77.7535 93.2642C77.7809 93.5406 77.8905 93.6235 78.1645 93.6235C79.4522 93.6235 80.7398 93.6235 82.0549 93.6235C82.2741 93.6235 82.4111 93.5682 82.4385 93.3195C82.4385 93.1537 82.4933 92.9879 82.5481 92.8221C82.9316 91.3576 84.1645 90.3352 85.6439 90.2523C86.6302 90.197 87.4796 90.5286 88.2467 91.1918C89.233 90.197 90.2193 89.2023 91.2056 88.2351C91.4795 87.9864 91.3974 87.8483 91.233 87.5996C90.4932 86.5772 90.3563 85.4719 90.7946 84.3113C91.2604 83.0679 92.1919 82.3218 93.5069 82.1284C93.8631 82.0731 93.9179 81.9349 93.9179 81.631C93.9453 80.498 93.9453 79.3927 93.9453 78.2874ZM80.0823 89.0365C75.0412 89.0088 70.9316 84.8087 70.9316 79.6967C70.959 74.6123 75.096 70.4398 80.1645 70.4675C85.2056 70.4675 89.3426 74.6676 89.3426 79.752C89.3426 84.8916 85.1782 89.0641 80.0823 89.0365Z" fill="#FFDA2F"/>
</svg>
