<svg width="203" height="121" viewBox="0 0 203 121" fill="none" xmlns="http://www.w3.org/2000/svg">
<ellipse cx="66.7649" cy="-7.55309" rx="135.523" ry="128.402" fill="#F5F9FF"/>
<path d="M73.6478 55.2926C73.8407 55.403 74.0061 55.4582 74.144 55.5686C75.0812 56.1205 76.0184 56.6724 76.928 57.2519C77.2588 57.4451 77.5345 57.5003 77.9204 57.3071C78.6371 56.9483 79.3813 56.6724 80.1256 56.3964C80.4839 56.2585 80.6493 56.0653 80.732 55.7066C80.9801 54.6028 81.2833 53.499 81.559 52.4227C81.6968 51.926 81.6968 51.8984 82.1654 51.8984C84.7841 51.8984 87.3752 51.8984 89.9939 51.8984C90.4349 51.8984 90.4625 51.8984 90.5728 52.3676C90.8484 53.4714 91.1516 54.5476 91.3997 55.6514C91.4824 56.0653 91.6478 56.2585 92.0613 56.3964C92.8331 56.6724 93.5774 56.9759 94.3216 57.3347C94.6248 57.4727 94.8454 57.4727 95.121 57.3071C96.0582 56.7276 97.023 56.1757 97.9878 55.5962C98.5666 55.265 98.5666 55.265 99.0077 55.7066C100.772 57.4727 102.564 59.2663 104.328 61.0324C104.741 61.4464 104.741 61.4464 104.466 61.9431C103.887 62.9089 103.308 63.9023 102.729 64.8682C102.536 65.1717 102.536 65.3925 102.701 65.7236C103.06 66.4687 103.363 67.2413 103.639 67.9864C103.749 68.3176 103.914 68.4831 104.273 68.5659C105.43 68.8419 106.561 69.1454 107.718 69.4214C108.049 69.5041 108.132 69.6421 108.132 69.9733C108.132 72.6224 108.132 75.2439 108.132 77.8931C108.132 78.2242 108.021 78.3622 107.718 78.445C106.561 78.7209 105.43 79.0245 104.273 79.3004C103.914 79.3832 103.749 79.5764 103.639 79.8799C103.335 80.6802 103.005 81.4528 102.674 82.2255C102.536 82.5015 102.564 82.6946 102.701 82.943C103.28 83.9088 103.859 84.9022 104.438 85.8681C104.769 86.4476 104.796 86.3924 104.3 86.8891C102.536 88.6552 100.772 90.4213 99.0077 92.1598C98.5666 92.6013 98.5666 92.6013 98.0429 92.2977C97.0781 91.7182 96.0858 91.1387 95.121 90.5592C94.8454 90.3937 94.6248 90.3937 94.3216 90.5316C93.5774 90.8904 92.8331 91.1939 92.0613 91.4699C91.7029 91.6079 91.51 91.7458 91.4273 92.1598C91.1792 93.2912 90.876 94.395 90.5728 95.5264C90.4625 95.9679 90.4625 95.9955 89.9939 95.9955C87.3752 95.9955 84.7841 95.9955 82.1654 95.9955C81.6968 95.9955 81.6968 95.9955 81.559 95.4712C81.2833 94.3398 80.9801 93.236 80.7045 92.1046C80.6218 91.7734 80.4564 91.6079 80.1807 91.4975C79.3813 91.1939 78.6095 90.8904 77.8377 90.5316C77.5345 90.3937 77.3139 90.3937 77.0383 90.5592C76.0184 91.1663 74.9985 91.7734 73.9786 92.3805C73.5927 92.6013 73.5651 92.6013 73.2619 92.2977C71.4426 90.4765 69.5957 88.6276 67.7764 86.8063C67.3905 86.42 67.3905 86.42 67.6662 85.9509C68.245 84.985 68.7963 83.9916 69.4028 83.0258C69.5957 82.6946 69.5957 82.4463 69.4303 82.1151C69.072 81.3701 68.7963 80.5974 68.4931 79.8523C68.3829 79.5488 68.2175 79.3832 67.8867 79.3004C66.7289 79.0245 65.5988 78.7209 64.441 78.445C64 78.3346 64 78.3346 64 77.8655C64 75.2439 64 72.65 64 70.0285C64 69.5593 64 69.5593 64.441 69.4489C65.5712 69.173 66.6738 68.8419 67.804 68.5935C68.1899 68.5107 68.3553 68.3176 68.4931 67.9588C68.7688 67.1861 69.0995 66.4411 69.4303 65.696C69.5682 65.3925 69.5682 65.1717 69.4028 64.8958C68.7963 63.8747 68.1899 62.8537 67.5835 61.8327C67.3629 61.4464 67.3629 61.4464 67.6662 61.1152C69.4855 59.2939 71.3323 57.4451 73.1516 55.6238C73.3721 55.4858 73.5375 55.403 73.6478 55.2926ZM101.847 86.0612C101.764 85.8957 101.682 85.7577 101.626 85.6473C101.103 84.7643 100.606 83.9088 100.083 83.0258C99.9449 82.7774 99.8898 82.5842 100.055 82.3083C100.855 80.9561 101.461 79.5212 101.847 77.9759C101.93 77.6171 102.123 77.4791 102.481 77.3964C103.446 77.1756 104.41 76.9272 105.348 76.6789C105.844 76.5409 105.844 76.5409 105.844 76.0718C105.844 74.6644 105.844 73.2571 105.844 71.8773C105.844 71.4082 105.844 71.3806 105.348 71.2702C104.383 71.0219 103.446 70.7459 102.481 70.5528C102.067 70.47 101.93 70.2768 101.819 69.9181C101.461 68.4555 100.882 67.0758 100.11 65.7788C99.9173 65.4477 99.9173 65.1993 100.11 64.8682C100.662 64.0127 101.13 63.1297 101.682 62.2466C101.847 61.9983 101.874 61.8051 101.626 61.5843C100.579 60.5633 99.559 59.5423 98.5391 58.4937C98.291 58.2453 98.1256 58.3005 97.8775 58.4385C96.9954 58.9904 96.0858 59.4871 95.2037 60.039C94.9556 60.177 94.7627 60.2322 94.487 60.0666C93.1363 59.2663 91.7029 58.6317 90.1593 58.2729C89.8009 58.1901 89.6631 57.997 89.5804 57.6382C89.3599 56.6724 89.1118 55.7066 88.8362 54.7683C88.6708 54.2164 88.781 54.2716 88.2297 54.2716C86.8239 54.2716 85.4181 54.2716 84.0398 54.2716C83.4885 54.2716 83.5988 54.2164 83.4334 54.7683C83.1578 55.7342 82.9097 56.6724 82.7167 57.6382C82.634 58.0522 82.4135 58.1901 82.0551 58.3005C80.5666 58.6592 79.1608 59.2663 77.8652 60.039C77.562 60.2046 77.3415 60.2046 77.0659 60.039C76.1838 59.4871 75.2741 58.9904 74.392 58.4385C74.144 58.2729 73.951 58.2453 73.7029 58.4937C72.683 59.5423 71.6631 60.5633 70.6156 61.5843C70.3675 61.8327 70.4227 61.9983 70.5605 62.2466C71.1118 63.1297 71.608 64.0403 72.1593 64.9233C72.3247 65.1993 72.3247 65.4201 72.1593 65.7236C71.3874 67.0482 70.781 68.4279 70.4227 69.9181C70.3124 70.332 70.0919 70.4976 69.706 70.5804C68.7688 70.8011 67.8316 71.0219 66.8943 71.2978C66.3706 71.4358 66.3982 71.3254 66.3982 71.9049C66.3982 73.3123 66.3982 74.7196 66.3982 76.0994C66.3982 76.6237 66.343 76.5409 66.8943 76.7065C67.8316 76.9548 68.7688 77.2032 69.706 77.3964C70.1195 77.4791 70.34 77.6723 70.4227 78.0862C70.781 79.5764 71.3874 80.9837 72.1593 82.2807C72.3247 82.5842 72.3247 82.805 72.1593 83.081C71.6355 83.9364 71.1394 84.7643 70.6432 85.6473C70.34 86.1992 70.2573 86.0612 70.7259 86.5303C71.6907 87.4962 72.6279 88.4344 73.5927 89.4002C73.9786 89.7866 73.8959 89.8418 74.5023 89.483C75.3568 88.9863 76.2113 88.462 77.0383 87.9653C77.2864 87.8273 77.4793 87.7445 77.755 87.9377C79.1057 88.7656 80.5391 89.3451 82.0827 89.7314C82.4411 89.8142 82.5789 90.0073 82.6616 90.3661C82.8821 91.3319 83.1302 92.2977 83.3783 93.236C83.5161 93.7327 83.5161 93.7327 83.9847 93.7327C85.3905 93.7327 86.7963 93.7327 88.1746 93.7327C88.7259 93.7327 88.6156 93.7879 88.781 93.236C89.0567 92.2701 89.3048 91.3319 89.4977 90.3661C89.5804 89.9521 89.8009 89.8142 90.1593 89.7314C91.6202 89.3727 92.9985 88.7932 94.2941 88.0205C94.6248 87.8273 94.8729 87.7997 95.2037 88.0205C95.948 88.4896 96.7198 88.9587 97.4916 89.4002C98.3186 89.8694 98.0429 89.9246 98.732 89.2623C99.118 88.8759 99.5314 88.4896 99.9173 88.0757C100.469 87.5238 101.02 86.9719 101.544 86.42C101.682 86.2544 101.764 86.144 101.847 86.0612Z" fill="#515151"/>
<path d="M136 83.2468C135.945 89.4557 131.396 94.8091 125.304 95.8302C118.386 96.9616 111.825 92.3256 110.612 85.3992C110.116 82.6397 110.53 80.0181 111.798 77.507C112.018 77.0655 112.018 76.7343 111.825 76.2928C111.219 74.913 110.64 73.5333 110.061 72.1535C110.033 72.0707 109.978 71.988 109.951 71.8776C109.785 71.4361 109.785 71.4085 110.226 71.4361C110.419 71.4361 110.612 71.4636 110.805 71.4636C112.597 71.6844 114.389 71.9052 116.18 72.1259C116.539 72.1811 116.842 72.1259 117.145 71.9604C124.505 67.9867 133.574 72.0431 135.586 80.2941C135.669 80.6528 135.724 81.0116 135.779 81.3703C135.917 82.005 135.945 82.6397 136 83.2468ZM119.543 84.9025C119.075 84.2126 118.689 83.5503 118.634 82.7777C118.579 81.5359 118.634 80.2665 118.661 79.0247C118.661 78.7488 118.772 78.4452 118.854 78.1969C119.571 76.21 121.473 74.9682 123.513 75.1062C125.58 75.2442 127.289 76.7343 127.703 78.804C127.951 80.1009 127.84 81.3979 127.758 82.6949C127.73 83.0812 127.565 83.4951 127.427 83.8815C127.289 84.2402 127.069 84.5437 126.903 84.9025C127.592 85.2612 128.254 85.5648 128.888 85.9511C130.101 86.6686 130.873 87.7448 131.176 89.1521C131.203 89.3177 131.286 89.4557 131.341 89.6212C131.424 89.5385 131.507 89.4833 131.534 89.4281C131.617 89.3453 131.672 89.2349 131.755 89.1245C133.381 86.6962 133.987 84.047 133.436 81.1771C132.113 74.2508 124.34 70.6082 118.193 74.0024C117.531 74.6095 116.759 74.5543 115.96 74.4163C115.877 74.3887 115.767 74.3611 115.684 74.3611C114.968 74.2784 114.251 74.2232 113.507 74.1404C113.562 74.3059 113.589 74.3887 113.617 74.4439C113.865 75.0234 114.058 75.6305 114.361 76.1824C114.692 76.7895 114.609 77.2862 114.251 77.8933C112.128 81.6739 112.266 85.3992 114.609 89.0417C114.719 89.2349 114.885 89.4005 115.05 89.5937C115.105 89.4557 115.161 89.4005 115.188 89.3177C115.491 87.4964 116.566 86.2822 118.22 85.5096C118.634 85.3992 119.075 85.1508 119.543 84.9025ZM128.695 89.0142C128.474 88.4623 128.061 88.1311 127.592 87.8828C126.986 87.5792 126.38 87.2757 125.773 86.9721C125.332 86.7514 124.891 86.503 124.422 86.2546C124.395 85.7303 124.395 85.206 124.367 84.6817C124.34 84.323 124.422 84.047 124.726 83.7987C125.194 83.3847 125.497 82.8604 125.525 82.2258C125.553 81.3427 125.553 80.4321 125.525 79.549C125.47 78.5556 124.753 77.7553 123.761 77.4794C122.851 77.2586 121.942 77.6174 121.363 78.4452C121.059 78.8591 120.894 79.3559 120.894 79.8526C120.894 80.5976 120.894 81.3427 120.894 82.0878C120.894 82.6949 121.115 83.2468 121.556 83.6331C121.969 83.9918 122.079 84.4058 122.052 84.9025C122.024 85.0956 122.024 85.2888 122.052 85.482C122.162 86.0891 121.859 86.3926 121.335 86.6134C120.481 86.9997 119.654 87.4412 118.799 87.8552C118.331 88.1035 117.945 88.4071 117.724 88.959C121.418 89.0142 125.029 89.0142 128.695 89.0142ZM129.577 91.3873C125.332 91.3873 121.115 91.3873 116.842 91.3873C120.26 94.4504 126.297 94.3676 129.577 91.3873Z" fill="#515151"/>
<path d="M106.974 61.8604C106.974 60.3151 106.974 58.8525 106.974 57.4176C106.974 56.5069 106.974 56.5069 106.119 56.5069C105.623 56.5069 105.154 56.5069 104.658 56.5069C102.674 56.4793 101.185 54.9616 101.185 53.0024C101.157 49.1114 101.185 45.2205 101.185 41.3296C101.185 39.9499 101.24 38.5701 101.157 37.1903C101.02 34.8723 102.839 33.2442 105.017 33.2718C109.014 33.3546 113.038 33.2994 117.063 33.2994C122.135 33.2994 127.207 33.2994 132.278 33.2994C133.105 33.2994 133.85 33.465 134.511 33.9617C135.448 34.6792 135.945 35.6174 135.945 36.8316C135.945 37.8526 135.945 38.8736 135.945 39.8671C135.945 44.1719 135.945 48.4768 135.945 52.7816C135.945 53.3887 135.862 53.9958 135.586 54.5477C134.952 55.7895 133.905 56.4517 132.527 56.5069C131.837 56.5345 131.176 56.5069 130.487 56.5069C126.462 56.5069 122.41 56.5069 118.386 56.5069C117.89 56.5069 117.448 56.6173 117.007 56.8381C113.893 58.411 110.805 59.9563 107.69 61.5017C107.497 61.612 107.277 61.7224 106.974 61.8604ZM109.289 58.1075C109.565 57.9695 109.785 57.8867 110.006 57.7763C112.184 56.6725 114.361 55.5963 116.539 54.4925C116.952 54.2717 117.393 54.1889 117.862 54.1889C122.631 54.1889 127.427 54.1889 132.196 54.1889C133.243 54.1889 133.657 53.8026 133.657 52.754C133.657 47.5109 133.657 42.2678 133.684 37.0248C133.684 36.1417 133.133 35.5898 132.251 35.5898C123.154 35.6174 114.058 35.6174 104.934 35.5898C104.135 35.5898 103.473 36.0313 103.473 37.0524C103.501 42.2678 103.501 47.4833 103.473 52.7264C103.473 53.7198 104.107 54.2165 104.934 54.1889C106.147 54.1338 107.36 54.1614 108.545 54.1889C109.372 54.1889 109.289 54.1062 109.289 54.9064C109.289 55.955 109.289 57.0037 109.289 58.1075Z" fill="#515151"/>
<path d="M86.1077 49.2772C84.4538 48.2837 82.9101 47.3455 81.3665 46.4073C80.7325 46.0209 80.0985 45.6898 79.5196 45.2759C79.051 44.9723 78.5824 44.8619 78.0311 44.8895C74.613 44.9171 71.2225 44.8895 67.8045 44.9171C67.198 44.9171 66.5916 44.8343 66.0403 44.5584C64.7999 43.8961 64.0832 42.9027 64.0832 41.4953C64.0556 36.8041 64.0556 32.113 64.0832 27.4218C64.0832 25.5453 65.5993 24.0828 67.4461 24C67.5564 24 67.6942 24 67.8045 24C76.901 24 86.025 24 95.1215 24C96.0587 24 96.8857 24.2208 97.6024 24.8279C98.4569 25.5729 98.8703 26.5112 98.8703 27.6426C98.8703 31.2575 98.8703 34.9001 98.8703 38.515C98.8703 39.4533 98.8428 40.3915 98.8703 41.3297C98.8979 43.2614 97.2991 44.9171 95.2869 44.8895C92.5304 44.8619 89.7739 44.8895 87.0173 44.8895C86.852 44.8895 86.6866 44.9171 86.5212 44.8895C86.1904 44.8619 86.1077 44.9999 86.1077 45.3034C86.1353 46.3797 86.1077 47.4835 86.1077 48.5597C86.1077 48.7804 86.1077 48.9736 86.1077 49.2772ZM83.7371 45.1655C83.7647 44.9723 83.7647 44.8343 83.7647 44.6964C83.7647 44.2272 83.7647 43.7857 83.7647 43.3166C83.7647 42.5163 83.682 42.5991 84.4538 42.5991C84.5641 42.5991 84.6467 42.5991 84.757 42.5991C88.0924 42.5991 91.4278 42.5991 94.7631 42.5991C94.9561 42.5991 95.1491 42.5991 95.342 42.5991C96.0863 42.5715 96.4997 42.1576 96.5549 41.4125C96.5549 41.2746 96.5549 41.109 96.5549 40.971C96.5549 36.611 96.5549 32.2785 96.5549 27.9185C96.5549 27.7253 96.5549 27.5322 96.5273 27.339C96.4446 26.8147 96.0587 26.4284 95.535 26.3456C95.3696 26.318 95.2042 26.3456 95.0388 26.3456C85.9974 26.3456 76.9836 26.3456 67.9423 26.318C66.8672 26.318 66.3159 26.8975 66.3986 27.8357C66.3986 27.8909 66.3986 27.9461 66.3986 27.9737C66.3986 32.3061 66.3986 36.6386 66.3986 40.9434C66.3986 41.109 66.3986 41.2746 66.3986 41.4401C66.4538 42.0748 66.8672 42.4887 67.5288 42.5439C67.7218 42.5715 67.9147 42.5439 68.1077 42.5439C71.6911 42.5439 75.247 42.5439 78.8305 42.5439C79.2991 42.5439 79.6575 42.6543 80.0434 42.9027C81.2562 43.6753 82.4691 44.3928 83.7371 45.1655Z" fill="#515151"/>
<path d="M119.764 51.8711C116.153 51.8711 112.57 51.8711 108.959 51.8711C108.793 51.8711 108.628 51.8711 108.462 51.8711C108.269 51.8711 108.159 51.8159 108.159 51.5951C108.159 51.0156 108.159 50.4361 108.159 49.8566C108.159 49.6359 108.242 49.5531 108.462 49.5531C108.931 49.5531 109.372 49.5531 109.841 49.5531C110.53 49.5531 110.475 49.6083 110.475 48.946C110.475 47.8698 110.475 46.766 110.475 45.6898C110.475 45.5518 110.475 45.3862 110.475 45.2482C110.447 44.9999 110.557 44.9171 110.805 44.9171C111.329 44.9171 111.88 44.9447 112.404 44.9171C112.735 44.8895 112.79 45.0551 112.79 45.3586C112.79 46.628 112.79 47.8698 112.79 49.1392C112.79 49.5807 112.79 49.5807 113.231 49.5807C113.727 49.5807 114.196 49.5807 114.692 49.5807C115.106 49.5807 115.106 49.5531 115.106 49.1116C115.106 48.0905 115.106 47.0695 115.106 46.0761C115.106 45.0551 115.106 44.0341 115.106 43.0406C115.106 42.7371 115.188 42.5991 115.519 42.6267C116.015 42.6543 116.539 42.6543 117.035 42.6267C117.366 42.5991 117.421 42.7647 117.421 43.0682C117.421 44.9723 117.421 46.8764 117.421 48.808C117.421 48.9736 117.421 49.1392 117.421 49.3047C117.421 49.5255 117.504 49.6083 117.724 49.6083C118.303 49.6083 118.882 49.6083 119.461 49.6083C119.681 49.6083 119.764 49.4979 119.737 49.3047C119.737 49.1392 119.737 48.9736 119.737 48.808C119.737 45.4966 119.737 42.1852 119.737 38.8738C119.737 38.7082 119.737 38.5426 119.737 38.3771C119.709 38.1287 119.819 38.0183 120.067 38.0183C120.619 38.0183 121.17 38.0183 121.721 38.0183C121.969 38.0183 122.052 38.1287 122.052 38.3771C122.052 38.5426 122.052 38.7082 122.052 38.8738C122.052 42.1852 122.052 45.4966 122.052 48.808C122.052 48.9736 122.052 49.1392 122.052 49.3047C122.052 49.4979 122.107 49.6083 122.328 49.6083C122.907 49.6083 123.485 49.6083 124.064 49.6083C124.285 49.6083 124.367 49.4979 124.367 49.3047C124.367 49.1392 124.367 48.9736 124.367 48.808C124.367 46.2417 124.367 43.6753 124.367 41.109C124.367 40.9434 124.367 40.7778 124.367 40.6123C124.367 40.4467 124.423 40.3363 124.616 40.3363C125.222 40.3363 125.828 40.3363 126.435 40.3363C126.628 40.3363 126.683 40.4191 126.683 40.6123C126.683 40.7778 126.683 40.9434 126.683 41.109C126.683 43.6753 126.683 46.2417 126.683 48.808C126.683 48.9736 126.683 49.1392 126.683 49.3047C126.683 49.4979 126.738 49.6359 126.959 49.6083C127.537 49.6083 128.116 49.6083 128.695 49.6083C128.916 49.6083 128.998 49.5255 128.998 49.3047C128.998 49.1392 128.998 48.9736 128.998 48.808C128.998 45.5242 128.998 42.2404 128.998 38.929C128.998 38.791 128.998 38.6254 128.998 38.4874C128.998 37.9907 128.998 37.9907 129.522 37.9907C130.018 37.9907 130.542 37.9907 131.038 37.9907C131.204 37.9907 131.314 38.0735 131.314 38.2391C131.314 38.3771 131.314 38.5426 131.314 38.6806C131.314 42.8751 131.314 47.0419 131.314 51.2364C131.314 51.3744 131.314 51.5399 131.314 51.6779C131.314 51.8711 131.204 51.9263 131.038 51.9263C130.845 51.9263 130.652 51.9263 130.459 51.9263C126.903 51.8711 123.32 51.8711 119.764 51.8711Z" fill="#515151"/>
<path d="M72.2141 37.9354C70.2846 37.9354 68.7134 36.3625 68.7134 34.4308C68.7134 32.5268 70.2846 30.9815 72.159 30.9539C74.0886 30.9539 75.6598 32.5268 75.6598 34.4584C75.6598 36.3625 74.0886 37.9354 72.2141 37.9354Z" fill="#515151"/>
<path d="M81.4212 30.9814C83.3508 30.9814 84.922 32.5544 84.922 34.4584C84.922 36.3625 83.3508 37.9354 81.4764 37.9354C79.5468 37.9354 77.9756 36.3625 77.9756 34.4584C77.9756 32.5544 79.5468 30.9814 81.4212 30.9814Z" fill="#515151"/>
<path d="M94.2112 34.4308C94.2387 36.3625 92.64 37.9354 90.738 37.9354C88.836 37.9354 87.2648 36.3901 87.2648 34.486C87.2372 32.5544 88.8084 30.9814 90.738 30.9814C92.64 30.9814 94.2112 32.5268 94.2112 34.4308Z" fill="#515151"/>
<path d="M91.8956 34.431C91.868 33.7963 91.3719 33.2996 90.7379 33.2996C90.1039 33.2996 89.6077 33.8239 89.5801 34.431C89.5801 35.0932 90.1314 35.6175 90.7654 35.59C91.3994 35.59 91.8956 35.0656 91.8956 34.431Z" fill="#FFDA2F"/>
<path d="M82.6067 34.4586C82.6067 33.8239 82.1105 33.2996 81.4765 33.2996C80.8149 33.272 80.2912 33.8239 80.2912 34.4862C80.2912 35.1209 80.8149 35.6176 81.4489 35.6176C82.0829 35.6176 82.6067 35.0933 82.6067 34.4586Z" fill="#FFDA2F"/>
<path d="M72.1868 35.6176C72.8208 35.6176 73.3445 35.1209 73.3445 34.4862C73.3721 33.8515 72.8484 33.3272 72.2419 33.2996C71.5804 33.272 71.0291 33.8239 71.0291 34.4586C71.0291 35.0933 71.5528 35.6176 72.1868 35.6176Z" fill="#FFDA2F"/>
<path d="M86.1073 87.8828C78.4442 87.8828 72.187 81.6187 72.187 73.9473C72.187 66.2758 78.4442 60.0117 86.1073 60.0117C93.7704 60.0117 100.028 66.2758 100.028 73.9473C100.028 81.6187 93.7704 87.8828 86.1073 87.8828ZM74.5024 73.9473C74.5024 80.3493 79.7122 85.5648 86.1073 85.5648C92.4749 85.5648 97.6847 80.3493 97.6847 74.0025C97.6847 67.6004 92.5024 62.3573 86.1073 62.3573C79.7122 62.3297 74.5024 67.5176 74.5024 73.9473Z" fill="#515151"/>
<path d="M86.0248 80.9015C82.2208 80.874 79.1059 77.7005 79.1335 73.8648C79.161 70.0567 82.331 66.9384 86.1626 66.966C89.9666 66.9936 93.0814 70.167 93.0539 74.0028C93.0263 77.8385 89.8563 80.9291 86.0248 80.9015ZM90.7384 73.9476C90.7384 71.3812 88.671 69.284 86.1075 69.284C83.5715 69.284 81.4765 71.3536 81.4765 73.8648C81.449 76.4311 83.5163 78.556 86.0799 78.556C88.6159 78.5836 90.7384 76.5139 90.7384 73.9476Z" fill="#515151"/>
<path d="M86.1069 62.3296C79.7118 62.3296 74.502 67.5451 74.502 73.9471C74.502 80.3492 79.7118 85.5647 86.1069 85.5647C92.4744 85.5647 97.6842 80.3492 97.6842 74.0023C97.7118 67.5727 92.502 62.3296 86.1069 62.3296ZM86.0242 80.9011C82.2202 80.8735 79.1053 77.7001 79.1329 73.8644C79.1605 70.0562 82.3304 66.938 86.162 66.9656C89.966 66.9932 93.0808 70.1666 93.0533 74.0023C93.0257 77.8381 89.8557 80.9287 86.0242 80.9011Z" fill="#FFDA2F"/>
</svg>
