<svg width="87" height="87" viewBox="0 0 87 87" fill="none" xmlns="http://www.w3.org/2000/svg">
<path d="M51.3218 55.4863C50.4988 55.4863 49.6944 55.2423 49.0101 54.7851C48.3258 54.3278 47.7925 53.678 47.4776 52.9177C47.1626 52.1573 47.0802 51.3207 47.2408 50.5135C47.4013 49.7064 47.7976 48.965 48.3795 48.383C48.9615 47.8011 49.7029 47.4048 50.51 47.2443C51.3172 47.0837 52.1538 47.1661 52.9142 47.481C53.6745 47.796 54.3243 48.3293 54.7816 49.0136C55.2388 49.6979 55.4828 50.5023 55.4828 51.3253C55.4815 52.4285 55.0427 53.4861 54.2626 54.2661C53.4826 55.0462 52.425 55.485 51.3218 55.4863Z" fill="#F0BC5E"/>
<path d="M40.2258 55.4863C39.4028 55.4863 38.5984 55.2423 37.9141 54.7851C37.2298 54.3278 36.6965 53.678 36.3815 52.9177C36.0666 52.1573 35.9842 51.3207 36.1448 50.5135C36.3053 49.7064 36.7016 48.965 37.2835 48.383C37.8655 47.8011 38.6069 47.4048 39.414 47.2443C40.2212 47.0837 41.0578 47.1661 41.8182 47.481C42.5785 47.796 43.2283 48.3293 43.6856 49.0136C44.1428 49.6979 44.3868 50.5023 44.3868 51.3253C44.3855 52.4285 43.9467 53.4861 43.1666 54.2661C42.3866 55.0462 41.329 55.485 40.2258 55.4863Z" fill="#F0BC5E"/>
<path d="M29.1288 55.4863C28.3058 55.4863 27.5014 55.2423 26.8171 54.7851C26.1328 54.3278 25.5995 53.678 25.2845 52.9177C24.9696 52.1573 24.8872 51.3207 25.0478 50.5135C25.2083 49.7064 25.6046 48.965 26.1865 48.383C26.7685 47.8011 27.5099 47.4048 28.317 47.2443C29.1242 47.0837 29.9608 47.1661 30.7212 47.481C31.4815 47.796 32.1313 48.3293 32.5886 49.0136C33.0458 49.6979 33.2898 50.5023 33.2898 51.3253C33.2885 52.4285 32.8497 53.4861 32.0696 54.2661C31.2896 55.0462 30.232 55.485 29.1288 55.4863Z" fill="#F0BC5E"/>
<path d="M63.8058 8.32532C68.5882 8.32532 73.1747 10.2251 76.5564 13.6068C79.938 16.9884 81.8378 21.5749 81.8378 26.3573H70.7378C70.7368 24.5192 70.0061 22.7566 68.7063 21.4568C67.4065 20.1571 65.644 19.4264 63.8058 19.4253V8.32532Z" fill="#F0BC5E"/>
<path d="M33.2898 41.6153H36.0638C36.068 37.9378 37.5308 34.4121 40.1312 31.8117C42.7316 29.2113 46.2573 27.7485 49.9348 27.7443V24.9703C45.5218 24.9753 41.291 26.7306 38.1706 29.851C35.0501 32.9715 33.2948 37.2023 33.2898 41.6153Z" fill="black"/>
<path d="M52.4588 27.9733C53.3195 28.1323 54.1633 28.3724 54.9788 28.6903L55.9898 26.1073C55.01 25.7252 53.9961 25.4369 52.9618 25.2463L52.4588 27.9733Z" fill="black"/>
<path d="M80.4548 51.3243C80.4527 49.485 79.7208 47.7216 78.4198 46.4214C77.1189 45.1212 75.3551 44.3903 73.5158 44.3893V47.1633C74.6195 47.1633 75.678 47.6017 76.4584 48.3822C77.2389 49.1626 77.6773 50.2211 77.6773 51.3248C77.6773 52.4285 77.2389 53.487 76.4584 54.2674C75.678 55.0478 74.6195 55.4863 73.5158 55.4863H69.3548V58.2603H73.5158C75.3553 58.2592 77.1192 57.5282 78.4202 56.2278C79.7212 54.9274 80.453 53.1638 80.4548 51.3243Z" fill="black"/>
<path d="M58.2578 55.4863H61.0318V58.2603H58.2578V55.4863Z" fill="black"/>
<path d="M63.8058 55.4863H66.5798V58.2603H63.8058V55.4863Z" fill="black"/>
<path d="M73.5158 63.8083C75.2285 63.8199 76.9252 63.479 78.5004 62.8067C80.0757 62.1344 81.4957 61.1452 82.6723 59.9007C83.8488 58.6561 84.7567 57.1827 85.3394 55.5722C85.9222 53.9617 86.1673 52.2485 86.0595 50.5392C85.9518 48.8299 85.4935 47.161 84.7131 45.6365C83.9328 44.1119 82.847 42.7642 81.5235 41.6772C80.2 40.5902 78.6669 39.7872 77.0197 39.318C75.3726 38.8489 73.6464 38.7237 71.9488 38.9503C71.6175 36.0113 70.6968 33.1694 69.2418 30.5945C67.7868 28.0196 65.8274 25.7646 63.4808 23.9644C61.1342 22.1642 58.4486 20.8558 55.5846 20.1175C52.7207 19.3791 49.7373 19.226 46.8128 19.6673C46.199 16.0107 44.7312 12.5505 42.5286 9.56785C40.326 6.58521 37.4508 4.16431 34.1366 2.50187C30.8224 0.839426 27.1628 -0.0176547 23.455 0.000275641C19.7473 0.018206 16.0961 0.910641 12.7982 2.60506C9.50021 4.29948 6.64855 6.74808 4.4749 9.75187C2.30125 12.7557 0.866951 16.2299 0.288548 19.8923C-0.289855 23.5547 0.00396025 27.3018 1.14612 30.8293C2.28827 34.3568 4.24655 37.565 6.86181 40.1933C4.35482 41.4569 2.34733 43.5291 1.16398 46.075C-0.0193751 48.6208 -0.309409 51.4914 0.340779 54.2225C0.990968 56.9536 2.54336 59.3855 4.74693 61.125C6.95049 62.8645 9.67639 63.8099 12.4838 63.8083H22.1938V79.0673C22.1933 79.435 22.047 79.7875 21.787 80.0475C21.527 80.3075 21.1745 80.4538 20.8068 80.4543H13.6158C13.2886 79.5289 12.6448 78.7489 11.7982 78.2523C10.9515 77.7556 9.95657 77.5742 8.98915 77.7402C8.02172 77.9062 7.14412 78.4089 6.51145 79.1593C5.87878 79.9098 5.53178 80.8597 5.53178 81.8413C5.53178 82.8229 5.87878 83.7728 6.51145 84.5233C7.14412 85.2738 8.02172 85.7764 8.98915 85.9424C9.95657 86.1084 10.9515 85.927 11.7982 85.4304C12.6448 84.9337 13.2886 84.1537 13.6158 83.2283H20.8068C21.91 83.227 22.9676 82.7882 23.7476 82.0081C24.5277 81.2281 24.9665 80.1705 24.9678 79.0673V63.8083H30.5158V71.0023C29.5904 71.3295 28.8104 71.9733 28.3138 72.8199C27.8171 73.6666 27.6357 74.6615 27.8017 75.629C27.9677 76.5964 28.4704 77.474 29.2208 78.1067C29.9713 78.7393 30.9212 79.0863 31.9028 79.0863C32.8844 79.0863 33.8343 78.7393 34.5848 78.1067C35.3353 77.474 35.8379 76.5964 36.0039 75.629C36.1699 74.6615 35.9885 73.6666 35.4919 72.8199C34.9952 71.9733 34.2152 71.3295 33.2898 71.0023V63.8083H41.6128V77.9353C40.6874 78.2625 39.9074 78.9063 39.4108 79.7529C38.9141 80.5996 38.7327 81.5945 38.8987 82.562C39.0647 83.5294 39.5674 84.407 40.3178 85.0397C41.0683 85.6723 42.0182 86.0193 42.9998 86.0193C43.9814 86.0193 44.9313 85.6723 45.6818 85.0397C46.4323 84.407 46.9349 83.5294 47.1009 82.562C47.2669 81.5945 47.0855 80.5996 46.5889 79.7529C46.0922 78.9063 45.3122 78.2625 44.3868 77.9353V63.8083H52.7098V71.0023C51.7844 71.3295 51.0044 71.9733 50.5078 72.8199C50.0111 73.6666 49.8298 74.6615 49.9957 75.629C50.1617 76.5964 50.6644 77.474 51.4148 78.1067C52.1653 78.7393 53.1152 79.0863 54.0968 79.0863C55.0784 79.0863 56.0283 78.7393 56.7788 78.1067C57.5293 77.474 58.0319 76.5964 58.1979 75.629C58.3639 74.6615 58.1825 73.6666 57.6859 72.8199C57.1892 71.9733 56.4092 71.3295 55.4838 71.0023V63.8083H61.0318V79.0673C61.0331 80.1705 61.4719 81.2281 62.252 82.0081C63.0321 82.7882 64.0897 83.227 65.1928 83.2283H72.3838C72.711 84.1537 73.3548 84.9337 74.2014 85.4304C75.0481 85.927 76.043 86.1084 77.0105 85.9424C77.9779 85.7764 78.8555 85.2738 79.4882 84.5233C80.1208 83.7728 80.4678 82.8229 80.4678 81.8413C80.4678 80.8597 80.1208 79.9098 79.4882 79.1593C78.8555 78.4089 77.9779 77.9062 77.0105 77.7402C76.043 77.5742 75.0481 77.7556 74.2014 78.2523C73.3548 78.7489 72.711 79.5289 72.3838 80.4543H65.1938C64.8261 80.4538 64.4736 80.3075 64.2136 80.0475C63.9536 79.7875 63.8073 79.435 63.8068 79.0673V63.8083H73.5158ZM9.70981 83.2283C9.43561 83.2277 9.16775 83.1459 8.94005 82.9931C8.71235 82.8403 8.53505 82.6235 8.43053 82.37C8.32601 82.1165 8.29897 81.8377 8.35283 81.5689C8.40668 81.3 8.53902 81.0532 8.73311 80.8595C8.92721 80.6658 9.17435 80.534 9.44332 80.4807C9.71229 80.4275 9.99101 80.4551 10.2443 80.5602C10.4975 80.6652 10.714 80.843 10.8663 81.071C11.0185 81.2991 11.0998 81.5671 11.0998 81.8413C11.0993 82.2095 10.9526 82.5624 10.6919 82.8225C10.4313 83.0826 10.078 83.2286 9.70981 83.2283ZM31.8998 76.2923C31.6257 76.2917 31.358 76.2099 31.1304 76.0573C30.9027 75.9047 30.7254 75.688 30.6208 75.4347C30.5162 75.1814 30.489 74.9027 30.5426 74.634C30.5962 74.3652 30.7283 74.1183 30.9221 73.9246C31.1159 73.7308 31.3627 73.5987 31.6315 73.5451C31.9003 73.4915 32.1789 73.5187 32.4322 73.6233C32.6855 73.7279 32.9022 73.9052 33.0548 74.1329C33.2074 74.3605 33.2892 74.6282 33.2898 74.9023C33.2899 75.0849 33.2541 75.2657 33.1843 75.4344C33.1145 75.6031 33.0121 75.7564 32.883 75.8855C32.7539 76.0146 32.6006 76.117 32.4319 76.1868C32.2632 76.2566 32.0824 76.2924 31.8998 76.2923ZM42.9998 83.2283C42.7255 83.2283 42.4573 83.147 42.2292 82.9946C42.0011 82.8421 41.8234 82.6255 41.7184 82.3721C41.6134 82.1186 41.5859 81.8398 41.6395 81.5707C41.693 81.3017 41.8251 81.0545 42.0191 80.8605C42.213 80.6666 42.4602 80.5345 42.7292 80.481C42.9983 80.4274 43.2771 80.4549 43.5306 80.5599C43.784 80.6649 44.0007 80.8426 44.1531 81.0707C44.3055 81.2988 44.3868 81.567 44.3868 81.8413C44.3863 82.209 44.24 82.5615 43.98 82.8215C43.72 83.0815 43.3675 83.2278 42.9998 83.2283ZM54.0998 76.2923C53.8255 76.2929 53.5572 76.2121 53.3287 76.0602C53.1003 75.9083 52.9221 75.6921 52.8165 75.4389C52.711 75.1856 52.6829 74.9068 52.7359 74.6377C52.7888 74.3685 52.9204 74.1211 53.1139 73.9267C53.3075 73.7323 53.5543 73.5996 53.8233 73.5455C54.0922 73.4914 54.3712 73.5183 54.6248 73.6227C54.8785 73.7272 55.0955 73.9045 55.2484 74.1322C55.4013 74.36 55.4832 74.628 55.4838 74.9023C55.4841 75.27 55.3385 75.6228 55.0791 75.8834C54.8197 76.1439 54.4675 76.291 54.0998 76.2923ZM76.2898 80.4543C76.564 80.4549 76.8319 80.5368 77.0596 80.6895C77.2873 80.8423 77.4646 81.0591 77.5691 81.3126C77.6736 81.5661 77.7006 81.8449 77.6468 82.1137C77.5929 82.3826 77.4606 82.6294 77.2665 82.8231C77.0724 83.0168 76.8253 83.1486 76.5563 83.2019C76.2873 83.2551 76.0086 83.2275 75.7553 83.1224C75.5021 83.0174 75.2856 82.8396 75.1334 82.6116C74.9811 82.3835 74.8998 82.1155 74.8998 81.8413C74.9003 81.4731 75.0471 81.1202 75.3077 80.8601C75.5684 80.6 75.9216 80.454 76.2898 80.4543ZM29.0818 34.0943C27.7737 33.5688 26.3775 33.2973 24.9678 33.2943H15.0538C14.3772 30.5688 13.996 27.7784 13.9168 24.9713H33.2578C33.2338 25.7053 33.1958 26.4333 33.1348 27.1563C31.3725 29.2036 29.999 31.5555 29.0818 34.0963V34.0943ZM2.84981 24.9703H11.1418C11.2184 27.7725 11.5728 30.5601 12.1998 33.2923H5.20681C3.84389 30.7152 3.0407 27.8793 2.84981 24.9703ZM23.5808 2.7763C26.6808 2.7763 29.4808 6.0873 31.2738 11.0993H15.8878C17.6798 6.0873 20.4848 2.7763 23.5808 2.7763ZM32.1238 13.8763C32.7971 16.6023 33.1766 19.3925 33.2558 22.1993H13.8998C13.979 19.3925 14.3585 16.6023 15.0318 13.8763H32.1238ZM11.1328 22.1963H2.84481C3.03088 19.2873 3.83112 16.4507 5.19281 13.8733H12.1758C11.5525 16.6061 11.2031 19.3942 11.1328 22.1963ZM34.9858 13.8733H41.9998C43.0392 15.8637 43.7484 18.0096 44.0998 20.2273C41.1638 21.0263 38.4241 22.422 36.0518 24.3273C36.0578 24.0773 36.0698 23.8273 36.0698 23.5793C36.0817 20.3121 35.7197 17.0542 34.9908 13.8693L34.9858 13.8733ZM40.2378 11.1023H34.2108C33.4369 8.55128 32.2259 6.15401 30.6318 4.0173C34.4592 5.38606 37.7997 7.84989 40.2378 11.1023ZM16.5088 4.0403C14.9254 6.17223 13.7214 8.56123 12.9498 11.1023H6.97581C9.40303 7.87529 12.7146 5.42207 16.5088 4.0403ZM6.95081 36.0673H17.6508C16.6481 36.9445 15.8109 37.9945 15.1788 39.1673C14.2935 38.9592 13.3881 38.8485 12.4788 38.8373C11.5772 38.84 10.6786 38.9406 9.79881 39.1373C8.7474 38.2117 7.7916 37.1829 6.94581 36.0663L6.95081 36.0673ZM2.77381 51.3253C2.76593 49.9033 3.07221 48.4971 3.67079 47.2072C4.26936 45.9173 5.14544 44.7756 6.23643 43.8635C7.32743 42.9515 8.6064 42.2916 9.98196 41.9312C11.3575 41.5707 12.7957 41.5185 14.1938 41.7783C13.9823 42.633 13.8739 43.5099 13.8708 44.3903H16.6448C16.6434 43.0084 16.9865 41.648 17.643 40.432C18.2995 39.2161 19.2488 38.183 20.4049 37.4261C21.5611 36.6692 22.8877 36.2124 24.2647 36.097C25.6418 35.9816 27.0258 36.2113 28.2918 36.7653C27.9296 38.357 27.7448 39.9839 27.7408 41.6163H30.5148C30.5115 36.6401 32.4197 31.8527 35.8453 28.2433C39.2708 24.6338 43.9519 22.478 48.9215 22.2213C53.8911 21.9645 58.7694 23.6265 62.5487 26.8637C66.3279 30.101 68.7193 34.6663 69.2288 39.6163C66.8282 40.4949 64.7549 42.0887 63.2885 44.1826C61.8222 46.2766 61.0335 48.77 61.0288 51.3263H63.8028C63.8028 49.4058 64.3723 47.5285 65.4392 45.9317C66.5062 44.3349 68.0227 43.0904 69.797 42.3554C71.5712 41.6205 73.5236 41.4282 75.4071 41.8029C77.2907 42.1775 79.0208 43.1023 80.3788 44.4603C81.7368 45.8183 82.6616 47.5484 83.0362 49.432C83.4109 51.3155 83.2186 53.2679 82.4837 55.0422C81.7488 56.8164 80.5042 58.3329 78.9074 59.3999C77.3106 60.4668 75.4333 61.0363 73.5128 61.0363H12.4838C9.90937 61.0337 7.44113 60.0098 5.62073 58.1894C3.80032 56.369 2.77646 53.9007 2.77381 51.3263V51.3253Z" fill="black"/>
<path d="M69.3538 26.3573H72.1278C72.1257 24.1507 71.2483 22.0351 69.6881 20.4747C68.1279 18.9144 66.0124 18.0367 63.8058 18.0343V20.8083C65.2769 20.8099 66.6873 21.3951 67.7274 22.4354C68.7676 23.4757 69.3525 24.8862 69.3538 26.3573Z" fill="black"/>
<path d="M74.9058 26.3573H77.6798C77.6756 22.6793 76.2124 19.1532 73.6114 16.5527C71.0103 13.9522 67.4839 12.4898 63.8058 12.4863V15.2603C66.7484 15.263 69.5697 16.4329 71.6507 18.5133C73.7317 20.5937 74.9024 23.4148 74.9058 26.3573Z" fill="black"/>
<path d="M80.4508 26.3563H83.2248C83.219 21.2079 81.1712 16.2719 77.5307 12.6314C73.8902 8.99093 68.9543 6.94314 63.8058 6.93732V9.71132C68.2188 9.71635 72.4496 11.4716 75.5701 14.5921C78.6905 17.7125 80.4458 21.9433 80.4508 26.3563Z" fill="black"/>
</svg>
