<svg width="150" height="150" viewBox="0 0 150 150" fill="none" xmlns="http://www.w3.org/2000/svg">
<circle cx="75" cy="75" r="75" fill="#F5F9FF"/>
<g clip-path="url(#clip0_2376_2707)">
<path d="M57.7965 123.176C49.6476 123.176 41.4634 123.176 33.3145 123.176C33.3145 119.86 33.3145 116.544 33.3145 113.228C33.6673 112.664 34.0201 112.064 34.4434 111.394C33.9848 110.054 33.4556 108.607 32.997 107.161C32.221 104.868 31.4801 102.54 30.7041 100.211C29.9985 98.0595 29.2577 95.9429 28.5169 93.791C28.1994 92.9091 27.9878 91.9566 27.7408 91.0394C27.5292 90.1928 27.4586 89.2756 27.3528 88.4289C27.3528 88.3584 27.2469 88.3231 27.1764 88.2878C27.1764 86.3829 27.1764 84.4427 27.1764 82.5378C27.2117 82.5025 27.3175 82.5025 27.3175 82.4672C27.3528 82.185 27.3175 81.9028 27.3528 81.6558C27.3881 81.4089 27.5292 81.162 27.5292 80.8797C27.5292 79.8567 28.0583 78.9748 28.1289 77.9518C28.7638 76.2585 29.293 74.53 30.1749 72.9425C30.4571 72.4486 30.6688 71.8842 30.9863 71.4256C31.974 69.9087 33.0323 68.3918 34.267 67.0513C35.29 65.8872 36.3483 64.7583 37.3361 63.5942C38.0063 62.7828 38.7471 62.042 39.4527 61.2659C39.4527 57.068 39.4527 52.9406 39.4527 48.778C39.4527 47.8255 39.8054 47.0494 40.4404 46.4145C44.1445 42.6751 47.8485 38.9711 51.5878 35.267C52.2228 34.6321 52.9989 34.2793 53.9514 34.2793C66.6862 34.2793 79.4211 34.2793 92.156 34.2793C91.521 34.9496 90.886 35.6551 90.1805 36.3959C90.4627 36.6428 90.6744 36.8192 90.886 37.0309C90.9566 37.1367 90.9918 37.2778 91.0271 37.4189C78.9625 37.4189 66.9332 37.4189 54.8333 37.4189C54.8333 39.3944 54.8333 41.2993 54.8333 43.2043C54.8333 43.2396 54.8333 43.2748 54.8686 43.2748C54.8686 43.3101 54.9038 43.3101 54.9391 43.3454C57.3026 43.3454 59.7015 43.3454 62.065 43.3454C64.4285 43.3454 66.7568 43.3454 69.1203 43.3454C71.4839 43.3454 73.8827 43.3101 76.2462 43.3454C78.6097 43.3807 80.9733 43.1337 83.2663 43.5218C83.5132 43.6629 83.6896 43.7687 83.9012 43.8745C84.8184 44.4742 85.4181 45.2856 85.4181 46.4145C85.4181 48.5311 85.4181 50.6829 85.4181 52.7995C85.4181 53.752 84.3951 55.2336 83.5132 55.4806C83.0546 55.6217 82.5607 55.7275 82.0316 55.7275C71.9777 55.7275 61.9239 55.7275 51.9053 55.7275C50.9176 55.7275 50.0357 55.3747 49.4007 54.6339C49.1185 54.3164 48.9068 53.9284 48.6951 53.5403C48.6951 52.2351 48.6951 50.9299 48.6951 49.6246C46.6491 49.6246 44.6383 49.6246 42.5923 49.6246C42.4512 56.045 42.5217 76.8229 42.6628 77.5285C43.7211 77.211 44.7089 76.8582 45.9083 77.1757C47.143 77.4932 48.166 77.9871 48.9774 78.9395C49.436 79.4687 49.7887 80.1389 50.1768 80.7739C50.8117 81.8675 51.4114 82.9963 52.0817 84.0546C52.8578 85.254 53.528 86.4887 54.2689 87.6881C54.8686 88.7112 55.1508 89.8753 55.7505 90.863C55.6799 91.2864 56.068 91.5333 56.1032 91.9213C56.1738 92.7327 56.6324 93.4382 56.7382 94.2496C56.844 94.9551 57.1263 95.6607 57.2321 96.3662C57.3026 96.7895 57.3026 97.2834 57.4438 97.6714C57.6201 98.0947 57.5143 98.5181 57.5849 98.9061C57.6554 99.3294 57.7612 99.788 57.7612 100.211C57.7965 101.129 57.7965 102.081 57.7612 102.998C57.726 103.915 57.8318 104.868 57.5849 105.785C57.4085 106.491 57.4438 107.196 57.3732 107.937C57.0204 108.29 57.2321 108.784 57.0557 109.207C56.7735 109.912 56.7382 110.689 56.5618 111.429C57.3732 112.029 57.726 112.805 57.7612 113.758C73.1066 113.758 88.4166 113.758 103.762 113.758C103.762 96.4367 103.762 79.1159 103.762 61.8304C104.75 61.8304 105.737 61.8304 106.725 61.8304C106.725 79.1865 106.725 96.5779 106.725 113.934C106.725 114.11 106.725 114.322 106.725 114.498C106.725 114.675 106.655 114.816 106.549 114.992C105.984 116.298 104.997 116.932 103.586 116.932C88.6283 116.932 73.671 116.932 58.7137 116.932C58.3962 116.932 58.0435 116.932 57.726 116.968C57.7965 119.155 57.7965 121.166 57.7965 123.176ZM53.4575 110.935C53.528 110.759 53.6691 110.583 53.7044 110.371C53.8455 109.842 53.9866 109.313 54.0925 108.748C54.1983 108.184 54.41 107.584 54.41 107.055C54.4452 106.314 54.6569 105.573 54.6569 104.797C54.6569 104.127 54.4805 103.386 54.8333 102.751C54.8686 102.645 54.9038 102.469 54.8333 102.398C54.5511 101.975 54.6216 101.517 54.6569 101.093C54.7274 100.106 54.5511 99.153 54.41 98.2006C54.3041 97.4598 54.1277 96.6837 53.9514 95.9076C53.775 95.1668 53.528 94.4613 53.3517 93.7204C53.14 92.9091 52.752 92.1683 52.4697 91.3922C51.9053 89.84 51.0587 88.4289 50.2826 87.0179C49.6123 85.8185 48.8715 84.6896 48.166 83.5255C47.778 82.8552 47.4605 82.1144 47.0019 81.5147C46.6491 81.0209 46.1905 80.527 45.5202 80.3859C44.85 80.2448 44.1797 80.28 43.6506 80.6681C43.2273 80.9856 42.9098 81.4442 42.557 81.7617C42.557 82.4319 42.5217 82.9963 42.557 83.5255C42.5923 84.0899 42.557 84.6896 42.7687 85.1835C43.0156 85.7832 43.1567 86.4535 43.4389 87.0532C43.7211 87.6881 43.8622 88.3584 44.1092 88.9934C44.6031 90.2281 45.0616 91.498 45.5202 92.768C45.8377 93.6146 46.2258 94.4613 46.508 95.3079C46.6491 95.6959 46.9313 96.084 46.7197 96.6484C45.9083 96.9659 45.0264 97.2834 44.0739 97.6362C43.7211 96.6484 43.4036 95.7312 43.0509 94.814C42.6628 93.791 42.2748 92.8033 41.8868 91.7802C41.6398 91.11 41.3929 90.4397 41.1459 89.7695C40.6521 88.3231 39.876 86.9826 39.7349 85.4304C39.4174 85.1129 39.6996 84.6191 39.5232 84.3016C39.2763 83.8783 39.3821 83.4549 39.3821 83.0669C39.3821 77.6696 39.3821 72.3075 39.3821 66.9102C39.3821 66.5927 39.3821 66.3105 39.3821 65.8166C39.0646 66.2752 38.8882 66.5574 38.6413 66.8044C37.6183 67.8274 36.7011 68.9562 35.7486 70.0498C34.7609 71.1434 33.9495 72.3781 33.244 73.648C32.1151 75.7294 31.6918 76.964 30.9863 79.3981C30.6688 80.5623 30.5629 81.7617 30.2807 82.8905C30.3513 85.1129 30.1044 87.3706 30.6335 89.5931C30.7746 90.2633 31.0921 90.9336 31.0215 91.6744C31.4449 92.3094 31.4096 93.1207 31.7271 93.791C32.0446 94.4613 32.221 95.2021 32.4326 95.9076C33.1381 98.0242 33.8084 100.176 34.5139 102.293C35.1489 104.233 35.8544 106.208 36.4894 108.149C36.8069 109.031 37.0539 109.948 37.3713 110.865C42.7687 110.935 48.1307 110.935 53.4575 110.935ZM82.2785 46.5908C73.1419 46.5908 64.0052 46.5908 54.8333 46.5908C54.8333 47.1553 54.8333 47.6491 54.8333 48.1783C54.8333 48.6722 54.8333 49.2013 54.8333 49.7305C53.7397 49.7305 52.7167 49.7305 51.7289 49.7305C51.7289 50.7182 51.7289 51.6707 51.7289 52.6232C61.9239 52.6232 72.1188 52.6232 82.3138 52.6232C82.2785 50.6124 82.2785 48.6016 82.2785 46.5908ZM36.7011 120.178C42.6628 120.178 48.6246 120.178 54.5863 120.178C54.6922 120.072 54.7627 120.002 54.798 119.966C54.798 118.026 54.798 116.086 54.798 114.181C54.5511 113.758 54.163 113.899 53.8455 113.899C48.3424 113.899 42.8392 113.899 37.3713 113.899C37.0539 113.899 36.7716 113.899 36.4541 113.899C36.4541 115.98 36.4541 117.955 36.4541 119.931C36.56 120.037 36.6305 120.107 36.7011 120.178ZM51.6937 39.8177C49.436 42.0754 47.1782 44.3331 44.9911 46.5203C47.143 46.5203 49.4007 46.5203 51.6937 46.5203C51.6937 44.2626 51.6937 42.0402 51.6937 39.8177C51.6584 39.7825 51.6584 39.7472 51.6937 39.8177Z" fill="#515151"/>
<path d="M92.1207 34.3145C92.4734 33.997 92.7909 33.7148 93.1084 33.3973C94.2373 32.3038 95.3309 31.1749 96.4597 30.0461C96.5655 30.0461 96.6714 30.0461 96.8125 30.0461C97.4122 30.6105 98.0472 31.1749 98.6116 31.7041C99.0702 31.7041 99.4582 31.7041 99.811 31.7041C100.058 31.4571 100.34 31.1749 100.658 30.8574C100.658 30.0108 100.658 29.0936 100.658 28.1764C103.762 28.1764 106.831 28.1764 109.935 28.1764C109.935 28.8819 109.935 29.5875 109.935 30.293C109.935 30.8927 110.253 31.2102 110.747 31.5277C111.205 31.8099 111.629 31.5629 112.017 31.7041C112.758 31.1749 113.181 30.3283 113.992 29.9755C116.144 32.1274 118.225 34.2087 120.342 36.3253C120.342 36.4311 120.342 36.537 120.342 36.6428C119.778 37.2072 119.248 37.7364 118.684 38.3008C118.684 38.5477 118.684 38.7947 118.684 39.0416C118.719 39.8177 119.319 40.4174 120.095 40.4527C120.801 40.4527 121.506 40.4527 122.212 40.4527C122.212 43.557 122.212 46.6261 122.212 49.7304C121.33 49.7304 120.413 49.7304 119.531 49.7304C119.248 50.0126 118.966 50.2948 118.684 50.6123C118.684 50.9651 118.684 51.3531 118.684 51.5648C119.037 52.5878 120.095 52.9053 120.377 53.7872C118.225 55.9391 116.144 58.0204 113.992 60.1723C113.216 59.5726 112.652 58.5849 111.558 58.3026C111.346 58.3732 111.1 58.4438 110.711 58.5849C110.535 58.7965 110.253 59.1493 109.971 59.4668C109.971 60.3134 109.971 61.1601 109.971 62.042C108.912 62.042 107.854 62.042 106.831 62.042C105.843 62.042 104.856 62.042 103.868 62.042C102.88 62.042 101.892 62.042 100.975 62.042C100.834 61.9009 100.763 61.8303 100.693 61.7598C100.693 61.1248 100.658 60.4898 100.693 59.8195C100.728 59.0435 100.27 58.726 99.6346 58.4085C99.0349 58.1263 98.6821 58.4085 98.2941 58.7612C97.8002 59.1846 97.3769 59.6784 96.9183 60.137C96.8125 60.137 96.6714 60.137 96.5655 60.137C94.4842 58.0557 92.4029 55.9744 90.3216 53.8931C90.3216 53.8225 90.3216 53.6814 90.3216 53.5756C90.8154 53.0817 91.274 52.6231 91.7679 52.1292C92.2618 51.6001 92.2971 51.2473 91.9796 50.6123C91.8032 50.2596 91.5563 49.9068 91.1682 49.7304C90.3568 49.7304 89.5102 49.7304 88.7341 49.7304C88.6283 49.6246 88.5577 49.554 88.5225 49.5188C88.5225 46.5202 88.5225 43.5217 88.5225 40.5232C89.3691 40.5232 90.1805 40.5232 91.0624 40.5232C91.4152 40.241 91.7326 39.9588 91.9443 39.7824C92.0854 39.3591 92.156 39.1122 92.2265 38.9005C92.0854 38.6183 91.9796 38.3713 91.8385 38.0891C91.6621 37.8069 91.521 37.4894 91.0977 37.5247C91.0624 37.3836 91.0624 37.2072 90.9566 37.1367C90.7449 36.925 90.498 36.7486 90.251 36.5017C90.8507 35.655 91.4857 34.9848 92.1207 34.3145ZM116.038 45.0386C116.109 44.5448 115.968 43.9803 115.897 43.3806C115.791 42.4634 115.509 41.6168 115.192 40.8054C114.768 39.7824 114.169 38.9005 113.428 38.0891C113.075 37.6658 112.616 37.313 112.264 36.925C111.699 36.3606 111.029 35.9373 110.323 35.5492C108.983 34.7731 107.501 34.5262 106.02 34.3145C105.067 34.2087 104.079 34.3851 103.127 34.4909C102.81 34.5262 102.492 34.5615 102.21 34.7378C101.116 35.3023 99.9168 35.655 98.9291 36.4664C97.7649 37.3836 96.8125 38.4066 96.0364 39.6413C95.5425 40.4174 95.1898 41.264 94.9428 42.1459C94.6959 43.0631 94.6959 44.0156 94.5195 44.9328C94.4489 45.3561 94.6606 45.7442 94.6959 46.1675C94.7664 47.4022 95.1192 48.5663 95.6483 49.6599C96.0011 50.3654 96.4597 51.0004 96.883 51.6706C97.5533 52.6231 98.4352 53.2581 99.2818 53.9636C99.7052 54.3164 100.27 54.5633 100.799 54.775C101.328 54.9866 101.822 55.2689 102.421 55.3394C102.88 55.41 103.339 55.6216 103.868 55.6569C104.397 55.6922 104.926 55.798 105.455 55.8333C105.808 55.8333 106.161 55.6569 106.478 55.6569C107.466 55.7274 108.418 55.3747 109.265 55.0219C111.135 54.2458 112.722 53.0111 113.957 51.3531C114.662 50.3654 115.086 49.2013 115.65 48.143C115.756 47.1199 116.144 46.1675 116.038 45.0386Z" fill="#FFDA2F"/>
<path d="M116.038 45.0387C116.144 46.1675 115.756 47.1553 115.685 48.143C115.121 49.2013 114.698 50.3302 113.992 51.3532C112.793 53.0465 111.205 54.2459 109.3 55.022C108.419 55.3747 107.501 55.7275 106.514 55.6569C106.161 55.6217 105.808 55.8333 105.491 55.8333C104.961 55.8333 104.432 55.6922 103.903 55.6569C103.409 55.6217 102.951 55.41 102.457 55.3394C101.857 55.2689 101.363 54.9867 100.834 54.775C100.305 54.5634 99.7405 54.3164 99.3171 53.9637C98.4705 53.2581 97.5886 52.6231 96.9183 51.6707C96.4597 51.0357 96.0011 50.4007 95.6836 49.6599C95.1545 48.5663 94.8017 47.4022 94.7312 46.1675C94.7312 45.7795 94.4842 45.3914 94.5548 44.9328C94.7312 44.0156 94.7312 43.0632 94.9781 42.146C95.225 41.2641 95.5778 40.4174 96.0717 39.6413C96.8478 38.4067 97.8002 37.3836 98.9644 36.4664C99.9521 35.6551 101.152 35.3023 102.245 34.7379C102.527 34.5968 102.845 34.5615 103.162 34.4909C104.115 34.3851 105.067 34.1735 106.055 34.3146C107.537 34.4909 109.018 34.7732 110.359 35.5492C111.029 35.9373 111.735 36.3253 112.299 36.925C112.687 37.3131 113.11 37.6658 113.463 38.0892C114.204 38.9005 114.804 39.7824 115.227 40.8055C115.58 41.6521 115.827 42.4987 115.932 43.3807C115.968 43.9451 116.109 44.5448 116.038 45.0387ZM105.632 37.4542C104.679 37.4895 103.974 37.3836 103.303 37.6306C102.527 37.9128 101.716 38.195 101.046 38.6889C100.34 39.1827 99.7052 39.7472 99.176 40.488C98.7174 41.1582 98.4352 41.9343 98.0472 42.6046C97.8002 43.0279 97.9413 43.4512 97.7297 43.8745C97.518 44.2626 97.6944 44.827 97.6944 45.3209C97.6591 46.485 98.0825 47.5433 98.5411 48.5663C98.6822 48.8485 98.8233 49.1308 98.9996 49.3777C99.2113 49.6599 99.5993 49.8363 99.6699 50.1185C99.7757 50.5065 100.164 50.5065 100.375 50.7535C101.469 51.8823 103.339 52.6584 104.856 52.6231C105.561 52.6231 106.231 52.5879 106.902 52.482C107.889 52.3057 108.771 51.8823 109.583 51.3532C110.288 50.8946 110.888 50.3302 111.382 49.6246C111.805 49.0249 112.123 48.3899 112.44 47.7197C112.758 47.0494 112.969 46.2733 112.863 45.4973C112.793 44.9681 112.863 44.439 112.863 43.9098C112.863 43.7687 112.934 43.557 112.863 43.4512C112.546 43.0632 112.616 42.5693 112.405 42.146C112.193 41.7579 112.017 41.2993 111.77 40.9466C110.994 39.7119 110.006 38.7241 108.665 38.0892C107.607 37.6306 106.514 37.3836 105.632 37.4542Z" fill="#515151"/>
<path d="M77.9747 97.7772C78.8919 98.765 79.7386 99.6116 80.4794 100.529C80.7969 100.917 81.1496 101.27 81.4671 101.693C81.7846 102.116 81.9963 102.575 82.2785 103.069C82.2785 103.563 82.3138 104.092 82.2785 104.586C82.2432 105.291 82.0668 105.926 81.5377 106.42C81.326 106.596 81.1496 106.808 80.938 107.02C80.4088 107.584 79.7738 107.796 79.033 107.796C78.7155 107.796 78.3981 107.796 78.1158 107.796C77.1281 107.796 76.2815 107.443 75.5759 106.737C75.1526 106.314 74.6587 105.961 74.3765 105.362C74.1296 104.833 73.8826 104.303 73.9179 103.704C73.9179 103.527 73.8474 103.386 73.8121 103.245C73.9179 101.658 74.4471 100.176 74.5176 98.8355C73.9179 97.5303 72.7538 96.9306 72.1541 95.8723C72.1541 95.837 72.1188 95.837 72.0835 95.8017C71.1664 94.814 70.2492 93.8615 69.332 92.8738C68.9792 92.4857 68.6617 92.0977 68.3442 91.7097C68.0267 91.3216 67.6387 90.9688 67.3212 90.5808C66.9332 90.0869 66.404 89.6283 65.6985 89.6283C65.381 89.6283 65.2046 89.2756 64.7813 89.5225C64.358 89.8047 64.111 90.1222 63.8994 90.6161C64.4991 92.2035 64.746 93.9321 65.4163 95.5195C65.381 96.3662 65.8043 97.107 66.016 97.8831C66.2276 98.6239 66.3335 99.3999 66.6862 100.105C66.8273 100.388 66.8273 100.776 66.8979 101.199C66.8626 101.234 66.792 101.375 66.6862 101.411C65.8043 101.622 64.9577 102.081 64.0052 102.046C63.7583 101.234 63.5113 100.423 63.2997 99.6469C63.0527 98.6239 62.7 97.6008 62.453 96.5778C62.3119 95.8723 62.1003 95.202 61.8533 94.4965C61.5358 93.5793 61.3947 92.5916 60.9714 91.7097C61.042 90.863 60.8303 90.0164 61.1478 89.1697C61.4653 88.3584 61.9239 87.6881 62.5941 87.1942C63.7583 86.3829 64.8871 86.2771 66.4746 86.5945C67.5681 86.8062 68.45 87.3353 69.1909 88.0762C70.1786 89.0639 71.1663 90.0516 72.0483 91.1452C72.6127 91.8508 73.3182 92.3799 73.8121 93.0854C74.2354 93.7204 74.8351 94.1437 75.3643 94.814C75.4701 94.3554 75.5407 94.0026 75.5759 93.6146C75.6112 93.2618 75.717 92.9091 75.7876 92.5916C75.9287 91.9213 76.1404 91.2511 76.7048 90.7572C77.1281 90.3691 77.5161 89.8753 78.1158 89.6989C78.6803 89.5225 79.2447 89.2403 79.8444 89.3814C80.5499 89.5578 81.2907 89.7342 81.8552 90.3339C82.3138 90.8277 82.7018 91.3569 83.0193 91.9919C83.5837 93.1913 84.1834 94.3201 84.7831 95.5195C84.889 95.449 84.9948 95.4137 85.0301 95.3784C85.277 94.4259 85.6298 93.9674 86.3353 93.3324C86.7233 92.9796 87.1467 92.7327 87.6405 92.6268C88.6988 92.4152 89.7219 92.4505 90.7096 93.0502C91.5562 93.5793 92.0148 94.3907 92.4734 95.202C92.7909 95.7312 93.1084 96.2251 93.4259 96.7542C93.7434 96.2251 93.7787 96.2251 93.7434 95.7665C93.7081 95.3431 93.8845 94.9551 93.9198 94.5318C93.9903 94.1085 93.8139 93.7204 94.0962 93.2971C94.202 93.1207 94.0609 92.8032 94.1314 92.5563C94.2725 91.886 94.2725 91.1805 94.6606 90.5455C95.5425 89.0286 97.2005 88.4995 98.8585 89.3814C99.7404 89.84 100.552 90.5455 101.434 91.1452C101.187 92.0977 100.411 92.7679 99.9874 93.6499C98.9643 93.4029 98.2941 92.5563 97.3063 92.133C97.4474 92.9091 97.0241 93.6146 97.13 94.3554C97.1652 94.7082 96.883 94.9904 96.9183 95.3784C96.9536 95.6959 96.883 96.0134 96.7772 96.3309C96.6361 96.7895 96.7066 97.3186 96.5655 97.8125C96.3539 98.518 95.86 99.3294 95.225 99.6469C94.9781 99.788 94.6959 99.8938 94.3078 100.07C94.0962 100.07 93.7787 100.035 93.4259 100.07C92.6851 100.141 92.1207 99.788 91.5915 99.3294C90.9565 98.8002 90.6038 98.0947 90.2157 97.3892C89.863 96.7895 89.4749 96.1898 89.1222 95.6254C88.7694 95.6254 88.5225 95.6254 88.205 95.6254C88.0991 95.9428 87.9228 96.2603 87.8522 96.5778C87.323 98.4828 84.9948 99.2941 83.4073 98.3769C82.9135 98.0947 82.5254 97.7067 82.2432 97.1775C81.5377 95.6959 80.7616 94.2496 80.0208 92.8032C79.9502 92.6974 79.8797 92.5916 79.8091 92.4857C79.5975 92.4857 79.3858 92.4857 79.1389 92.4857C79.0683 92.5563 78.9272 92.6621 78.9272 92.8032C78.6097 94.5671 78.2922 96.1898 77.9747 97.7772ZM79.3505 104.339C79.3152 104.162 79.3153 104.021 79.28 103.915C78.9625 103.139 78.1158 102.822 77.7631 102.046C77.6925 101.905 77.5161 101.763 77.375 101.658C77.3398 101.622 77.2692 101.658 77.1634 101.658C77.1281 101.869 77.1634 102.116 77.0575 102.328C76.6695 103.492 77.0575 103.986 77.6573 104.55C77.7984 104.656 77.9747 104.727 78.1511 104.833C78.3275 104.833 78.5744 104.833 78.6803 104.833C78.9625 104.621 79.1741 104.48 79.3505 104.339Z" fill="#515151"/>
<path d="M85.4535 61.9714C85.4535 62.9592 85.4535 63.9469 85.4535 64.9346C73.2125 64.9346 60.9715 64.9346 48.7305 64.9346C48.7305 63.9469 48.7305 62.9592 48.7305 61.9714C50.7412 61.9714 52.7873 61.9714 54.8686 61.9714C54.8686 60.8778 54.8686 59.8548 54.8686 58.8318C55.8564 58.8318 56.8441 58.8318 57.8318 58.8318C57.8318 59.8901 57.8318 60.9131 57.8318 61.9714C67.039 61.9714 76.2463 61.9714 85.4535 61.9714Z" fill="#FFDA2F"/>
<path d="M48.6952 71.0375C48.6952 70.0497 48.6952 69.062 48.6952 68.0742C60.9362 68.0742 73.1772 68.0742 85.4182 68.0742C85.4182 69.062 85.4182 70.0497 85.4182 71.0375C82.3491 71.0375 79.28 71.0375 76.1404 71.0375C76.1404 72.0958 76.1404 73.1541 76.1404 74.1771C75.1527 74.1771 74.1649 74.1771 73.1772 74.1771C73.1772 73.1188 73.1772 72.0958 73.1772 71.0375C64.993 71.0375 56.8441 71.0375 48.6952 71.0375Z" fill="#FFDA2F"/>
<path d="M85.4534 68.0743C73.2125 68.0743 60.9715 68.0743 48.7305 68.0743C48.6599 67.9332 48.5541 67.8274 48.5541 67.6863C48.5541 66.8749 48.5541 66.0988 48.5541 65.2875C48.5541 65.1464 48.6599 65.0405 48.7305 64.8994C60.9715 64.8994 73.2125 64.8994 85.4534 64.8994C85.4534 65.9577 85.4534 67.016 85.4534 68.0743Z" fill="#515151"/>
<path d="M85.4534 61.9714C76.2462 61.9714 67.0743 61.9714 57.7965 61.9714C57.7965 60.9131 57.7965 59.8548 57.7965 58.8318C67.0037 58.8318 76.1756 58.8318 85.4534 58.8318C85.4534 59.8548 85.4534 60.9131 85.4534 61.9714Z" fill="#515151"/>
<path d="M48.6952 71.0375C56.8441 71.0375 64.993 71.0375 73.1772 71.0375C73.1772 72.0958 73.1772 73.1541 73.1772 74.1771C65.0283 74.1771 56.9146 74.1771 48.7657 74.1771C48.6599 74.0713 48.5894 74.0007 48.4835 73.8949C48.4835 73.1541 48.5188 72.4133 48.4835 71.6725C48.4835 71.4608 48.6246 71.2491 48.6952 71.0375Z" fill="#515151"/>
<path d="M76.1757 74.2124C76.1757 73.1894 76.1757 72.1311 76.1757 71.0728C79.3153 71.0728 82.3844 71.0728 85.4534 71.0728C85.4534 72.0958 85.4534 73.1541 85.4534 74.2124C82.3138 74.2124 79.2447 74.2124 76.1757 74.2124Z" fill="#515151"/>
<path d="M54.8333 58.7965C54.8333 59.8195 54.8333 60.8778 54.8333 61.9361C52.752 61.9361 50.7412 61.9361 48.6952 61.9361C48.5893 61.7245 48.4835 61.5481 48.4835 61.2659C48.5188 60.5251 48.4835 59.7843 48.4835 59.0434C48.5541 58.9729 48.6599 58.9023 48.801 58.7612C50.7765 58.7965 52.8225 58.7965 54.8333 58.7965Z" fill="#515151"/>
<path d="M57.8318 80.28C57.8318 79.2217 57.8318 78.234 57.8318 77.1757C58.8548 77.1757 59.8778 77.1757 60.9714 77.1757C61.0067 77.6343 60.9714 78.1634 60.9714 78.6926C60.9714 79.2217 60.9714 79.7156 60.9714 80.28C59.9131 80.28 58.8901 80.28 57.8318 80.28Z" fill="#515151"/>
<path d="M63.97 77.1757C64.993 77.1757 66.016 77.1757 67.0743 77.1757C67.0743 78.1987 67.0743 79.2217 67.0743 80.3153C66.6157 80.3506 66.0866 80.3153 65.5927 80.3153C65.0635 80.3153 64.5344 80.3153 64.0052 80.3153C63.97 79.2923 63.97 78.2692 63.97 77.1757Z" fill="#515151"/>
<path d="M70.0375 80.28C70.0375 79.4686 70.0375 78.7278 70.0375 77.9517C70.0375 77.7048 70.0375 77.4579 70.0375 77.1757C71.0605 77.1757 72.0835 77.1757 73.1771 77.1757C73.2124 77.6343 73.1771 78.1634 73.1771 78.6926C73.1771 79.2217 73.1771 79.7156 73.1771 80.28C72.1541 80.28 71.1663 80.28 70.0375 80.28Z" fill="#515151"/>
<path d="M109.935 45.0386C109.935 45.9205 109.653 46.6966 109.195 47.4374C108.806 48.0724 108.277 48.5663 107.678 48.9896C106.972 49.4834 106.09 49.6598 105.314 49.6951C104.644 49.6951 103.868 49.554 103.233 49.2012C102.421 48.7426 101.751 48.0724 101.257 47.2963C100.869 46.6613 100.834 45.8499 100.658 45.1444C100.905 44.1214 101.01 43.0278 101.822 42.1812C102.845 41.1229 103.974 40.4526 105.49 40.4879C106.69 40.5232 107.783 40.9818 108.63 41.8637C109.477 42.7103 109.9 43.8039 109.935 45.0386ZM105.808 46.5555C106.161 46.2733 106.478 46.0263 106.76 45.7794C106.76 45.2855 106.76 44.8269 106.76 44.4036C106.478 44.1214 106.196 43.8392 105.949 43.5922C105.526 43.5922 105.067 43.5922 104.679 43.5922C104.009 44.0861 103.656 44.7211 103.868 45.5325C104.009 46.0616 104.432 46.3085 104.891 46.5555C105.173 46.5555 105.42 46.5555 105.808 46.5555Z" fill="#515151"/>
</g>
<defs>
<clipPath id="clip0_2376_2707">
<rect width="95" height="95" fill="white" transform="translate(27 28)"/>
</clipPath>
</defs>
</svg>
