<svg width="150" height="150" viewBox="0 0 150 150" fill="none" xmlns="http://www.w3.org/2000/svg">
<circle cx="75" cy="75" r="75" fill="#F5F9FF"/>
<path d="M82.1021 56.3977C82.4548 56.3977 82.7723 56.3977 83.0898 56.3977C94.1667 56.3977 105.244 56.3977 116.285 56.3977C117.414 56.3977 118.437 56.7151 119.213 57.5971C119.46 57.8793 119.742 58.1262 119.954 58.4084C120.448 59.1492 120.695 59.9606 120.695 60.8778C120.695 71.7783 120.695 82.6435 120.695 93.544C120.695 94.6728 120.307 95.6606 119.46 96.4719C119.178 96.7541 118.931 97.0011 118.578 97.248C117.837 97.7419 117.061 97.9535 116.179 97.9535C105.138 97.9535 94.0961 97.9535 83.0545 97.9535C82.737 97.9535 82.4548 97.9535 82.0668 97.9535C82.0668 98.271 82.0668 98.5885 82.0668 98.8707C82.0668 104.092 82.0668 109.313 82.0668 114.534C82.0668 115.733 81.4671 117.356 80.7616 118.449C79.7738 120.001 78.2922 120.848 76.6342 121.448C76.1403 121.624 75.5759 121.695 75.0467 121.695C61.8886 121.695 48.7656 121.695 35.6075 121.695C34.2317 121.695 32.997 121.13 31.8681 120.425C30.316 119.437 29.434 117.991 28.8696 116.297C28.6932 115.733 28.5874 115.098 28.5874 114.463C28.5874 100.493 28.5874 86.5239 28.5874 72.5191C28.5874 60.6308 28.5874 48.7779 28.5874 36.8897C28.5874 34.9495 29.3635 33.2915 30.6687 31.9157C31.6212 30.9279 32.362 30.5399 33.8789 30.0107C34.5139 29.7991 35.1136 29.658 35.7838 29.658C43.4036 29.658 50.9881 29.658 58.6078 29.658C64.0052 29.658 69.4378 29.658 74.8351 29.658C76.2814 29.658 77.5514 30.1871 78.7508 30.9279C80.303 31.9157 81.1849 33.362 81.7493 35.0553C81.9257 35.6197 82.0315 36.1841 82.0315 36.7838C82.1021 43.31 82.1021 49.8009 82.1021 56.3977ZM117.731 65.2874C117.731 63.6646 117.731 62.0066 117.731 60.4545C117.661 60.2428 117.626 60.1017 117.52 59.9959C117.132 59.4667 116.603 59.3256 115.932 59.3256C100.305 59.3256 84.6773 59.3256 69.0144 59.3256C68.8733 59.3256 68.7675 59.3256 68.6264 59.3256C68.1678 59.2903 67.815 59.5373 67.5328 59.8548C67.3917 59.9959 67.3212 60.2075 67.2153 60.4192C67.2153 62.0066 67.2153 63.6646 67.2153 65.2874C67.2153 69.2383 67.2153 73.1893 67.2153 77.1756C67.2153 78.5867 67.2153 80.033 67.2153 81.4441C67.2153 85.4303 67.2153 89.4166 67.2153 93.4028C67.2153 94.0025 67.427 94.4259 67.8856 94.8139C67.9914 94.8845 68.1325 94.9197 68.45 95.0609C68.9086 95.0609 69.5436 95.0609 70.2138 95.0609C70.2138 96.0486 70.2138 97.0011 70.2138 97.9888C69.7552 97.9888 69.2966 97.9888 68.8381 97.9888C67.9209 98.0241 67.1095 97.7772 66.3687 97.248C66.0512 97.0011 65.769 96.7541 65.4868 96.4719C64.7107 95.6958 64.3226 94.7434 64.3226 93.6145C64.3226 92.5209 64.3226 91.4626 64.3226 90.3691C64.3226 80.5974 64.3226 70.8258 64.3226 61.0542C64.2874 60.1017 64.499 59.2551 65.0635 58.479C65.3104 58.1615 65.5573 57.8793 65.8395 57.5971C66.6156 56.821 67.5681 56.4329 68.6969 56.3977C70.2138 56.3977 71.6955 56.3977 73.2476 56.3977C73.2476 54.4222 73.2476 52.5172 73.2476 50.6123C73.2476 50.577 73.2476 50.5417 73.2124 50.5417C73.2124 50.5065 73.1771 50.5065 73.1771 50.5065C61.3241 50.5065 49.4712 50.5065 37.6535 50.5065C37.6535 67.3334 37.6535 84.1251 37.6535 100.917C49.5417 100.917 61.3594 100.917 73.2476 100.917C73.2476 99.0118 73.2476 97.1069 73.2476 95.2372C74.0943 94.8845 74.9409 94.9903 75.7523 94.9903C89.1221 94.9903 102.527 94.9903 115.897 94.9903C116.073 94.9903 116.285 94.9903 116.462 94.9903C116.603 94.9903 116.744 94.9197 116.885 94.8845C117.555 94.6375 117.802 94.1084 117.802 93.4381C117.802 88.0408 117.802 82.6082 117.802 77.2109C117.731 73.2246 117.731 69.2383 117.731 65.2874ZM34.655 103.88C34.655 85.0423 34.655 66.2751 34.655 47.5079C48.5187 47.5079 62.3119 47.5079 76.2109 47.5079C76.2109 50.4712 76.2109 53.4344 76.2109 56.3624C77.2339 56.3624 78.1864 56.3624 79.1388 56.3624C79.1388 52.4114 79.1388 48.4604 79.1388 44.5447C63.2996 44.5447 47.4957 44.5447 31.727 44.5447C31.5859 47.7902 31.6565 106.067 31.7976 106.808C47.6015 106.808 63.4054 106.808 79.1741 106.808C79.1741 103.845 79.1741 100.917 79.1741 97.9888C78.1864 97.9888 77.1986 97.9888 76.2109 97.9888C76.2109 99.9643 76.2109 101.905 76.2109 103.88C62.3119 103.88 48.4834 103.88 34.655 103.88ZM31.6212 109.842C31.6212 111.394 31.6212 112.84 31.6212 114.287C31.6212 115.169 31.8681 115.945 32.362 116.685C33.2792 117.955 34.4433 118.767 36.0661 118.767C48.942 118.767 61.7827 118.767 74.6587 118.767C74.7998 118.767 74.9762 118.767 75.1173 118.767C75.6817 118.767 76.1756 118.485 76.6695 118.273C77.3045 118.026 77.763 117.426 78.2216 116.897C78.7155 116.333 78.9977 115.627 79.0683 114.922C79.1741 113.228 79.1036 111.535 79.1036 109.842C63.2996 109.842 47.4957 109.842 31.6212 109.842ZM79.1388 41.5462C79.1388 39.994 79.1388 38.5477 79.1388 37.1013C79.1388 36.2194 78.8919 35.4433 78.398 34.7025C77.4808 33.4326 76.3167 32.6212 74.694 32.6212C61.818 32.6212 48.9773 32.6212 36.1013 32.6212C35.9602 32.6212 35.7838 32.6212 35.6427 32.6212C35.0783 32.6212 34.5844 32.9034 34.0906 33.1151C33.4556 33.362 32.997 33.9617 32.5384 34.4909C32.0445 35.0553 31.7623 35.7608 31.6917 36.4664C31.5859 38.1596 31.6565 39.8529 31.6565 41.5462C47.4957 41.5462 63.2996 41.5462 79.1388 41.5462Z" fill="#515151"/>
<path d="M117.731 77.1756C100.905 77.1756 84.0776 77.1756 67.2506 77.1756C67.2506 73.2246 67.2506 69.2736 67.2506 65.2874C84.0776 65.2874 100.905 65.2874 117.731 65.2874C117.731 69.2383 117.731 73.2246 117.731 77.1756Z" fill="#FFDA2F"/>
<path d="M64.2873 90.3338C63.6171 90.4044 63.0527 90.7924 62.4177 91.0041C61.6416 91.251 60.9008 91.498 60.0894 91.6744C58.9253 91.886 57.7964 92.0977 56.6323 92.0271C56.1384 91.9918 55.6093 92.133 55.1154 91.886C54.6921 91.6744 54.1629 91.9918 53.7396 91.6391C52.893 91.6391 52.1169 91.3569 51.3761 91.0747C50.5294 90.7219 49.6475 90.475 48.9067 89.9105C48.3776 89.5225 47.7779 89.2403 47.2134 88.8522C46.2962 88.2525 45.1674 87.0884 44.4266 86.1712C43.968 85.6068 43.5094 85.0776 43.1566 84.4779C42.2747 83.1374 41.5339 81.6911 41.1106 79.7508C40.9695 79.0453 40.8636 78.3751 40.7225 77.6695C40.5814 76.9287 40.5814 76.2232 40.5814 75.5176C40.5814 74.9885 40.5462 74.4593 40.6873 74.0008C40.8284 73.5069 40.5462 72.9777 40.9342 72.5191C40.9342 71.7078 41.2164 71.0022 41.4986 70.2614C41.8867 69.0973 42.3805 67.9684 43.0861 66.9454C43.8622 65.8166 44.6735 64.6877 45.6965 63.7705C47.0723 62.5711 48.5187 61.4775 50.212 60.772C51.3055 60.3134 52.4344 59.8901 53.6691 59.7137C54.7979 59.5373 55.8915 59.3257 57.0556 59.3609C57.5848 59.3962 58.1139 59.3609 58.5725 59.4668C59.0664 59.6079 59.5955 59.3257 60.0541 59.7137C60.8655 59.7137 61.571 60.0665 62.3118 60.2781C62.8763 60.4545 63.4407 60.7367 63.9698 60.9484C64.0757 60.9837 64.1815 60.9837 64.3226 61.0189C64.2873 70.7906 64.2873 80.5622 64.2873 90.3338ZM55.3976 68.5682C52.8224 69.5912 52.258 71.7783 52.4344 73.5422C52.7519 74.1066 52.8224 74.8474 53.281 75.306C53.8102 75.7999 54.304 76.4348 54.9037 76.7171C55.6446 77.0698 56.4559 77.352 57.2673 77.1051C58.2903 77.7754 58.3256 77.8459 58.3256 79.0806C57.9728 79.6803 57.9728 79.6803 57.2673 80.0683C55.9973 80.0683 55.574 79.7508 55.3271 78.622C54.3393 78.622 53.3869 78.622 52.3638 78.622C52.5402 80.6328 53.5632 81.9733 55.3976 82.7494C55.3976 83.8077 55.3976 84.9012 55.3976 85.9595C56.3854 85.9595 57.3378 85.9595 58.3256 85.9595C58.3256 84.866 58.3256 83.7724 58.3256 82.7141C60.8655 81.6558 61.5358 79.5745 61.2888 77.7754C61.183 77.1404 60.9361 76.5054 60.4775 75.9762C59.9836 75.4118 59.4897 74.8474 58.8547 74.5652C58.0786 74.2124 57.232 73.9655 56.3148 74.1419C55.9973 73.8244 55.6446 73.4716 55.3976 73.2599C55.2565 72.2369 55.5035 71.5314 56.4559 71.1786C56.6676 71.1786 56.9851 71.1786 57.3026 71.1786C57.5495 71.355 57.867 71.5314 58.0434 71.7783C58.2198 72.0253 58.2903 72.3428 58.3961 72.625C59.3486 72.625 60.3011 72.625 61.2535 72.625C61.3947 71.0728 60.1952 69.1679 58.3256 68.4976C58.3256 67.4393 58.3256 66.3457 58.3256 65.2874C57.3378 65.2874 56.3501 65.2874 55.3623 65.2874C55.3976 66.4163 55.3976 67.4746 55.3976 68.5682Z" fill="#FFDA2F"/>
<path d="M114.768 86.1359C114.804 86.9826 114.592 87.7939 114.204 88.57C113.71 89.5225 113.11 90.3338 112.193 90.9688C110.888 91.886 109.406 92.0624 107.889 91.9918C107.466 91.7096 106.937 91.8155 106.514 91.4627C106.126 91.1452 105.667 91.1805 105.208 91.4274C103.903 92.0624 103.198 92.0977 101.61 91.8155C100.375 91.6038 99.3877 91.0041 98.6116 90.1575C97.8708 89.3814 97.2711 88.4995 97.13 87.3706C96.9183 85.9243 96.8125 85.0071 97.3416 83.8077C97.8355 82.7141 98.541 81.7263 99.6346 81.0561C100.905 80.2447 102.316 79.9625 103.797 80.1389C104.256 80.2094 104.82 80.28 105.244 80.6328C105.596 80.915 106.055 80.915 106.478 80.6328C107.501 79.9625 108.665 79.9625 109.759 80.1036C110.606 80.2094 111.452 80.5622 112.228 81.0914C113.11 81.6911 113.745 82.5024 114.204 83.4196C114.627 84.3015 114.839 85.1834 114.768 86.1359ZM108.877 89.0286C110.394 89.0992 111.84 87.6528 111.805 86.0301C111.77 84.5132 110.429 83.0668 108.771 83.1021C107.254 83.1374 105.808 84.4779 105.843 86.1359C105.843 87.6528 107.219 89.1344 108.877 89.0286ZM103.691 83.1374C102.175 82.9257 101.01 83.3138 100.27 84.6543C99.5993 85.889 99.8463 86.9826 100.446 87.7939C101.363 89.0286 102.668 89.2755 103.656 88.8875C102.633 87.0178 102.633 85.1129 103.691 83.1374Z" fill="#515151"/>
<path d="M82.1021 92.0271C81.1144 92.0271 80.1266 92.0271 79.1389 92.0271C79.1389 91.0393 79.1389 90.0516 79.1389 89.0638C78.5744 89.0638 78.0806 89.0638 77.622 89.0638C77.1281 89.0638 76.6695 89.0285 76.1756 89.0638C76.1756 90.1221 76.1756 91.0746 76.1756 92.0271C75.1879 92.0271 74.2001 92.0271 73.2124 92.0271C73.2124 91.0393 73.2124 90.0868 73.2124 89.0638C72.1894 89.0638 71.2016 89.0638 70.2491 89.0638C70.2491 88.0761 70.2491 87.0883 70.2491 86.1006C77.1634 86.1006 84.1129 86.1006 91.0271 86.1006C91.0271 87.0883 91.0271 88.0761 91.0271 89.0638C90.0393 89.0638 89.0869 89.0638 88.0639 89.0638C88.0639 90.0868 88.0639 91.0746 88.0639 92.0271C87.0761 92.0271 86.0884 92.0271 85.1006 92.0271C85.1006 91.0393 85.1006 90.0516 85.1006 89.0638C84.5362 89.0638 84.0423 89.0638 83.5837 89.0638C83.0898 89.0638 82.6312 89.0285 82.1374 89.0638C82.1021 90.0868 82.1021 91.0393 82.1021 92.0271Z" fill="#FFDA2F"/>
<path d="M91.0271 86.0653C84.1129 86.0653 77.1634 86.0653 70.2491 86.0653C70.2491 85.1128 70.2491 84.1604 70.2491 83.2079C71.0605 83.0668 87.7464 82.9962 91.0271 83.1373C91.0271 84.1251 91.0271 85.0776 91.0271 86.0653Z" fill="#515151"/>
<path d="M70.2139 89.0286C71.2016 89.0286 72.1541 89.0286 73.1771 89.0286C73.1771 90.0516 73.1771 91.0393 73.1771 91.9918C72.1894 91.9918 71.2369 91.9918 70.2139 91.9918C70.2139 91.0041 70.2139 90.0163 70.2139 89.0286Z" fill="#515151"/>
<path d="M76.1755 92.027C76.1755 91.0745 76.1755 90.1221 76.1755 89.0638C76.6341 89.0285 77.128 89.0638 77.6219 89.0638C78.1158 89.0638 78.6096 89.0638 79.1388 89.0638C79.1388 90.0868 79.1388 91.0393 79.1388 92.027C78.151 92.027 77.1633 92.027 76.1755 92.027Z" fill="#515151"/>
<path d="M82.1021 92.027C82.1021 91.0745 82.1021 90.1221 82.1021 89.0638C82.5606 89.0285 83.0545 89.0638 83.5484 89.0638C84.0423 89.0638 84.5362 89.0638 85.0653 89.0638C85.0653 90.0868 85.0653 91.0393 85.0653 92.027C84.0776 92.027 83.0898 92.027 82.1021 92.027Z" fill="#515151"/>
<path d="M88.0286 92.0271C88.0286 91.0393 88.0286 90.0869 88.0286 89.0638C89.0516 89.0638 90.0393 89.0638 90.9918 89.0638C90.9918 90.0516 90.9918 91.0041 90.9918 92.0271C90.0041 92.0271 89.0163 92.0271 88.0286 92.0271Z" fill="#515151"/>
<path d="M55.3977 68.5681C55.3977 67.4745 55.3977 66.4162 55.3977 65.3226C56.3854 65.3226 57.3379 65.3226 58.3609 65.3226C58.3609 66.4162 58.3609 67.4745 58.3609 68.5328C60.2659 69.2383 61.43 71.108 61.2889 72.6602C60.3364 72.6602 59.3839 72.6602 58.4315 72.6602C58.3256 72.378 58.2551 72.0605 58.0787 71.8135C57.9023 71.5666 57.5848 71.3902 57.3379 71.2138C57.0204 71.2138 56.7029 71.2138 56.4913 71.2138C55.5035 71.6019 55.2566 72.2721 55.433 73.2952C55.6799 73.5421 55.9974 73.8596 56.3502 74.1771C57.2673 74.0007 58.114 74.2476 58.8901 74.6004C59.5603 74.9179 60.0542 75.4823 60.5128 76.0115C60.9714 76.5053 61.2183 77.1756 61.3242 77.8106C61.5711 79.645 60.9008 81.7263 58.3609 82.7493C58.3609 83.8076 58.3609 84.8659 58.3609 85.9948C57.3732 85.9948 56.4207 85.9948 55.433 85.9948C55.433 84.9365 55.433 83.8429 55.433 82.7846C53.5986 82.0085 52.5756 80.668 52.3992 78.6572C53.4222 78.6572 54.3747 78.6572 55.3624 78.6572C55.6093 79.7861 56.0327 80.1035 57.3026 80.1035C57.9729 79.7155 57.9729 79.7155 58.3609 79.1158C58.3962 77.8811 58.3256 77.7753 57.3026 77.1403C56.4913 77.352 55.6446 77.0698 54.9391 76.7523C54.3041 76.4701 53.8102 75.8351 53.3164 75.3412C52.8225 74.8473 52.7872 74.1418 52.4697 73.5774C52.2228 71.7783 52.8225 69.5911 55.3977 68.5681Z" fill="#515151"/>
<path d="M50.9528 115.733C50.9528 114.745 50.9528 113.793 50.9528 112.805C52.4344 112.805 53.916 112.805 55.3976 112.805C56.844 112.805 58.2903 112.805 59.8072 112.805C59.8777 113.264 59.8072 113.758 59.8425 114.251C59.8425 114.745 59.8425 115.239 59.8425 115.733C56.8792 115.733 53.9513 115.733 50.9528 115.733Z" fill="#515151"/>
<path d="M61.2889 38.5477C57.3379 38.5477 53.4222 38.5477 49.4712 38.5477C49.4712 37.5953 49.4712 36.6428 49.4712 35.6903C50.2473 35.5492 58.2551 35.5139 61.2889 35.6198C61.2889 36.5722 61.2889 37.5247 61.2889 38.5477Z" fill="#515151"/>
<path d="M43.5447 35.6198C44.5324 35.6198 45.4849 35.6198 46.4374 35.6198C46.4374 36.5722 46.4374 37.5247 46.4374 38.5477C45.9788 38.583 45.5202 38.5477 45.0263 38.5477C44.5324 38.5477 44.0385 38.5477 43.5094 38.5477C43.5447 37.5952 43.5447 36.6428 43.5447 35.6198Z" fill="#515151"/>
<path d="M64.2874 38.5477C64.2874 37.8422 64.2874 37.1719 64.2874 36.5017C64.2874 36.2195 64.2874 35.9372 64.2874 35.655C65.2751 35.655 66.2276 35.655 67.2153 35.655C67.2859 36.1136 67.2153 36.5722 67.2506 37.0661C67.2506 37.56 67.2506 38.0538 67.2506 38.5477C66.2981 38.5477 65.3457 38.5477 64.2874 38.5477Z" fill="#515151"/>
</svg>
