<svg width="30" height="16" viewBox="0 0 30 16" fill="none" xmlns="http://www.w3.org/2000/svg">
<path d="M0.341309 8.36123L6.47131 14.6513C6.57895 14.7632 6.70826 14.852 6.85132 14.9124C6.99437 14.9728 7.14819 15.0034 7.30347 15.0025C7.45874 15.0015 7.6122 14.9691 7.75452 14.907C7.89683 14.8449 8.02506 14.7545 8.13135 14.6413C8.34904 14.4092 8.46939 14.1024 8.46753 13.7842C8.46567 13.466 8.34173 13.1608 8.12134 12.9313L4.01135 8.7112H28.8313C29.1437 8.6985 29.4391 8.56552 29.6556 8.33999C29.8722 8.11446 29.9932 7.8139 29.9932 7.50124C29.9932 7.18858 29.8722 6.88803 29.6556 6.6625C29.4391 6.43697 29.1437 6.30398 28.8313 6.29128H4.01135L8.12134 2.07119C8.34173 1.84169 8.46567 1.53646 8.46753 1.21828C8.46939 0.900105 8.34904 0.593287 8.13135 0.361227C8.02506 0.248023 7.89683 0.157585 7.75452 0.0954798C7.6122 0.033375 7.45874 0.000956182 7.30347 2.07901e-05C7.14819 -0.000914602 6.99437 0.0297231 6.85132 0.0901087C6.70826 0.150494 6.57895 0.239302 6.47131 0.351217L0.341309 6.64126C0.122057 6.87393 0 7.18154 0 7.50124C0 7.82094 0.122057 8.12855 0.341309 8.36123Z" fill="#1C5BFF"/>
</svg>
