<svg width="30" height="16" viewBox="0 0 30 16" fill="none" xmlns="http://www.w3.org/2000/svg">
<path d="M29.6519 6.64126L23.5219 0.351217C23.4142 0.239302 23.2849 0.150494 23.1418 0.0901087C22.9988 0.0297231 22.845 -0.000914602 22.6897 2.07901e-05C22.5344 0.000956182 22.381 0.033375 22.2386 0.0954798C22.0963 0.157585 21.9681 0.248023 21.8618 0.361227C21.6441 0.593287 21.5238 0.900105 21.5256 1.21828C21.5275 1.53646 21.6514 1.84169 21.8718 2.07119L25.9818 6.29128H1.16187C0.849465 6.30398 0.554069 6.43697 0.337524 6.6625C0.12098 6.88803 0 7.18858 0 7.50124C0 7.8139 0.12098 8.11446 0.337524 8.33999C0.554069 8.56552 0.849465 8.6985 1.16187 8.7112H25.9818L21.8718 12.9313C21.6514 13.1608 21.5275 13.466 21.5256 13.7842C21.5238 14.1024 21.6441 14.4092 21.8618 14.6413C21.9681 14.7545 22.0963 14.8449 22.2386 14.907C22.381 14.9691 22.5344 15.0015 22.6897 15.0025C22.845 15.0034 22.9988 14.9728 23.1418 14.9124C23.2849 14.852 23.4142 14.7632 23.5219 14.6513L29.6519 8.36123C29.8711 8.12855 29.9932 7.82094 29.9932 7.50124C29.9932 7.18154 29.8711 6.87393 29.6519 6.64126Z" fill="#1C5BFF"/>
</svg>
