<svg width="36" height="36" viewBox="0 0 36 36" fill="none" xmlns="http://www.w3.org/2000/svg">
<path fill-rule="evenodd" clip-rule="evenodd" d="M16.2525 18.0099L16.2548 18.5411C16.2731 20.6478 16.4001 22.5274 16.6191 23.7186C16.6191 23.74 16.858 24.9214 17.0102 25.3147C17.2491 25.8831 17.6811 26.3655 18.2227 26.6712C18.6563 26.8893 19.1112 27 19.5874 27C19.9617 26.9827 20.579 26.7943 21.0196 26.6364L21.3858 26.4961C23.8108 25.5328 28.4466 22.3852 30.222 20.4603L30.3529 20.3257L30.9371 19.6952C31.3053 19.2128 31.5 18.6229 31.5 17.9884C31.5 17.42 31.3265 16.8517 30.9796 16.3923C30.8758 16.2435 30.7085 16.0526 30.5596 15.8913L29.991 15.2961C28.0343 13.3136 23.7977 10.5327 21.6018 9.61135C21.6018 9.59152 20.237 9.02148 19.5874 9H19.5007C18.5042 9 17.5731 9.56839 17.0969 10.4871C16.9668 10.7382 16.842 11.2302 16.7471 11.6622L16.5765 12.4781C16.3818 13.79 16.2525 15.8025 16.2525 18.0099ZM6.75488 15.7225C5.50962 15.7225 4.5 16.7419 4.5 17.9993C4.5 19.2567 5.50962 20.2762 6.75488 20.2762L12.3037 19.7855C13.2806 19.7855 14.0726 18.9874 14.0726 17.9993C14.0726 17.0129 13.2806 16.2132 12.3037 16.2132L6.75488 15.7225Z" fill="#F46B39"/>
</svg>
