<svg width="14" height="8" viewBox="0 0 14 8" fill="none" xmlns="http://www.w3.org/2000/svg">
<path d="M0.636814 3.36381H11.8278L9.73234 1.26831C9.48381 1.01983 9.48381 0.616887 9.73234 0.368366C9.98082 0.119887 10.3838 0.119887 10.6323 0.368366L13.8141 3.55018C14.0626 3.79866 14.0626 4.20161 13.8141 4.45013L10.6323 7.63195C10.508 7.75621 10.3452 7.81836 10.1823 7.81836C10.0194 7.81836 9.85655 7.75621 9.73234 7.63195C9.48381 7.38347 9.48381 6.98052 9.73234 6.732L11.8278 4.63654H0.636814C0.285371 4.63654 0.000449181 4.35162 0.000449181 4.00018C0.000449181 3.64874 0.285371 3.36381 0.636814 3.36381Z" fill="#B0B0B0"/>
</svg>
