<svg width="58" height="58" viewBox="0 0 58 58" fill="none" xmlns="http://www.w3.org/2000/svg">
<path d="M40.9195 30.5859C41.286 29.4586 41.2423 28.2488 40.8402 27.1875H56.3008C57.2387 27.1875 58 27.9488 58 28.8867V51.2462C58 52.1853 57.2387 52.9454 56.3008 52.9454H44.293V49.547H54.6016V30.5859H40.9195Z" fill="white"/>
<path d="M1.69882 27.1875H17.1594C16.7402 28.2939 16.7285 29.5043 17.0801 30.5859H3.39804V49.547H13.7066V52.9454H1.69882C0.760853 52.9454 -0.000396729 52.1853 -0.000396729 51.2462V28.8867C-0.000396729 27.9488 0.760853 27.1875 1.69882 27.1875Z" fill="white"/>
<path d="M27.3014 40.8945V36.7756L20.7274 30.2015C20.0638 29.5379 20.0638 28.462 20.7274 27.7984L27.3014 21.2244V17.1055H30.6999V21.2244L37.2739 27.7985C37.9375 28.4621 37.9375 29.538 37.2739 30.2016L30.6999 36.7756V40.8945H27.3014Z" fill="white"/>
<path d="M18.8047 44.293H39.1953C40.1337 44.293 40.8945 45.0538 40.8945 45.9922V56.3008C40.8945 57.2392 40.1337 58 39.1953 58H18.8047C17.8663 58 17.1055 57.2392 17.1055 56.3008V45.9922C17.1055 45.0538 17.8663 44.293 18.8047 44.293Z" fill="white"/>
<path d="M39.1953 13.707H18.8047C17.8663 13.707 17.1055 12.9462 17.1055 12.0078V1.69922C17.1055 0.760797 17.8663 0 18.8047 0H39.1953C40.1337 0 40.8945 0.760797 40.8945 1.69922V12.0078C40.8945 12.9462 40.1337 13.707 39.1953 13.707Z" fill="white"/>
</svg>
