<svg width="380" height="380" viewBox="0 0 380 380" fill="none" xmlns="http://www.w3.org/2000/svg">
<rect width="380" height="380" fill="#0065EF"/>
<path d="M199.6 204.181C199.733 209.636 199.133 214.956 197.8 220.144C196.6 225.332 194.8 230.321 192.4 235.11C190 239.766 187 244.156 183.4 248.279C179.933 252.27 175.933 255.795 171.4 258.854C161.933 265.24 151.533 268.898 140.2 269.829C128.867 270.627 118.067 268.632 107.8 263.843C102.867 261.448 98.2667 258.522 94 255.063C89.8667 251.472 86.2 247.481 83 243.091C79.9333 238.701 77.3333 233.979 75.2 228.924C73.2 223.736 71.9333 218.415 71.4 212.961C71.2667 211.896 71.1333 210.899 71 209.968C71 208.903 71 207.84 71 206.775V204.181V122.371C71 118.913 72.2 115.986 74.6 113.592C77 111.197 79.9333 110 83.4 110C86.8667 110 89.8 111.197 92.2 113.592C94.6 115.986 95.8 118.913 95.8 122.371V155.295V155.095C102.6 150.04 110.067 146.382 118.2 144.121C126.467 141.726 134.867 141.061 143.4 142.125C151.8 143.19 159.733 145.85 167.2 150.107C174.667 154.231 181 159.685 186.2 166.469C190.333 171.923 193.533 177.909 195.8 184.427C198.067 190.812 199.333 197.397 199.6 204.181ZM167.8 228.325C173.133 220.876 175.467 212.495 174.8 203.184C174.533 198.262 173.333 193.606 171.2 189.216C169.067 184.694 166.267 180.703 162.8 177.244C161.067 175.648 159.2 174.251 157.2 173.054C155.333 171.856 153.333 170.726 151.2 169.661C146.133 167.4 140.867 166.269 135.4 166.269C129.933 166.269 124.667 167.334 119.6 169.462C114.533 171.724 110.133 174.849 106.4 178.84C102.667 182.831 99.8667 187.353 98 192.409C95.6 199.193 95.0667 206.11 96.4 213.161C97.8667 220.211 100.933 226.463 105.6 231.917C109.2 236.174 113.467 239.367 118.4 241.495C119.6 242.16 120.8 242.759 122 243.291C123.333 243.822 124.667 244.355 126 244.887C124.933 244.488 123.867 244.089 122.8 243.69C121.733 243.158 120.667 242.625 119.6 242.093C128 245.818 136.667 246.416 145.6 243.889C150.133 242.692 154.267 240.763 158 238.103C161.867 235.442 165.133 232.183 167.8 228.325Z" fill="white"/>
<path d="M243 185.543C243 180.739 237.851 176.845 231.5 176.845C225.149 176.845 220 180.739 220 185.543V260.931C220 265.735 225.149 269.629 231.5 269.629C237.851 269.629 243 265.735 243 260.931V185.543Z" fill="white"/>
<path d="M231.5 164.873C237.851 164.873 243 159.736 243 153.399C243 147.063 237.851 141.926 231.5 141.926C225.149 141.926 220 147.063 220 153.399C220 159.736 225.149 164.873 231.5 164.873Z" fill="white"/>
<path d="M290 151.504C290 146.214 285.299 141.926 279.5 141.926C273.701 141.926 269 146.214 269 151.504V260.052C269 265.341 273.701 269.629 279.5 269.629C285.299 269.629 290 265.341 290 260.052V151.504Z" fill="white"/>
<path d="M298 177.044H262C255.373 177.044 250 181.735 250 187.52C250 193.306 255.373 197.996 262 197.996H298C304.627 197.996 310 193.306 310 187.52C310 181.735 304.627 177.044 298 177.044Z" fill="white"/>
</svg>
