<svg width="243" height="161" viewBox="0 0 243 161" fill="none" xmlns="http://www.w3.org/2000/svg">
<path d="M128.6 94.4C128.733 99.867 128.133 105.2 126.8 110.4C125.6 115.6 123.8 120.6 121.4 125.4C119 130.067 116 134.467 112.4 138.6C108.933 142.6 104.933 146.133 100.4 149.2C90.933 155.6 80.533 159.267 69.2 160.2C57.8667 161 47.0667 159 36.8 154.2C31.8667 151.8 27.2667 148.867 23 145.4C18.8667 141.8 15.2 137.8 12 133.4C8.9333 129 6.3333 124.267 4.2 119.2C2.2 114 0.933302 108.667 0.400002 103.2C0.266702 102.133 0.1333 101.133 0 100.2C0 99.133 0 98.067 0 97V94.4V12.4C0 8.9333 1.2 6 3.6 3.6C6 1.2 8.9333 0 12.4 0C15.8667 0 18.8 1.2 21.2 3.6C23.6 6 24.8 8.9333 24.8 12.4V45.4V45.2C31.6 40.1333 39.0667 36.4667 47.2 34.2C55.4667 31.8 63.867 31.1333 72.4 32.2C80.8 33.2667 88.733 35.9333 96.2 40.2C103.667 44.3333 110 49.8 115.2 56.6C119.333 62.067 122.533 68.067 124.8 74.6C127.067 81 128.333 87.6 128.6 94.4ZM96.8 118.6C102.133 111.133 104.467 102.733 103.8 93.4C103.533 88.467 102.333 83.8 100.2 79.4C98.067 74.867 95.267 70.867 91.8 67.4C90.067 65.8 88.2 64.4 86.2 63.2C84.333 62 82.333 60.867 80.2 59.8C75.133 57.5333 69.867 56.4 64.4 56.4C58.9333 56.4 53.6667 57.4667 48.6 59.6C43.5333 61.867 39.1333 65 35.4 69C31.6667 73 28.8667 77.533 27 82.6C24.6 89.4 24.0667 96.333 25.4 103.4C26.8667 110.467 29.9333 116.733 34.6 122.2C38.2 126.467 42.4667 129.667 47.4 131.8C48.6 132.467 49.8 133.067 51 133.6C52.3333 134.133 53.6667 134.667 55 135.2C53.9333 134.8 52.8667 134.4 51.8 134C50.7333 133.467 49.6667 132.933 48.6 132.4C57 136.133 65.667 136.733 74.6 134.2C79.133 133 83.267 131.067 87 128.4C90.867 125.733 94.133 122.467 96.8 118.6Z" fill="#0065EF"/>
<path d="M175 51.45C175 45.2367 169.627 40.2 163 40.2C156.373 40.2 151 45.2367 151 51.45V148.95C151 155.163 156.373 160.2 163 160.2C169.627 160.2 175 155.163 175 148.95V51.45Z" fill="#0065EF"/>
<path d="M163 32.2C169.627 32.2 175 26.8274 175 20.2C175 13.5725 169.627 8.19995 163 8.19995C156.373 8.19995 151 13.5725 151 20.2C151 26.8274 156.373 32.2 163 32.2Z" fill="#0065EF"/>
<path d="M225 19.6C225 13.3039 219.627 8.19995 213 8.19995C206.373 8.19995 201 13.3039 201 19.6V148.8C201 155.096 206.373 160.2 213 160.2C219.627 160.2 225 155.096 225 148.8V19.6Z" fill="#0065EF"/>
<path d="M231 40.2H195C188.373 40.2 183 45.5725 183 52.2C183 58.8274 188.373 64.2 195 64.2H231C237.627 64.2 243 58.8274 243 52.2C243 45.5725 237.627 40.2 231 40.2Z" fill="#0065EF"/>
</svg>
