<svg width="239" height="161" viewBox="0 0 239 161" fill="none" xmlns="http://www.w3.org/2000/svg">
    <path d="M103.8 93.4L104.299 93.373C104.029 88.3753 102.813 83.6441 100.651 79.1844C98.4942 74.6014 95.6616 70.5545 92.1536 67.0464L92.1465 67.0394L92.1392 67.0326C90.3832 65.4114 88.4911 63.9922 86.464 62.7753C84.5826 61.5664 82.569 60.426 80.4237 59.3528L80.414 59.348L80.4042 59.3436C75.274 57.0486 69.9385 55.9 64.4 55.9C58.8663 55.9 53.5337 56.9802 48.406 59.1392L48.4059 59.1391L48.3958 59.1436C43.2691 61.4374 38.814 64.6093 35.0345 68.6588C31.2564 72.7068 28.4208 77.2969 26.5308 82.4271L26.5285 82.4336C24.0993 89.3165 23.559 96.3388 24.9087 103.493L24.9086 103.493L24.9104 103.502C26.3941 110.65 29.4978 116.993 34.2188 122.524C37.8609 126.84 42.1818 130.084 47.1788 132.249C48.3799 132.916 49.5818 133.517 50.7847 134.051C51.0486 134.183 51.3125 134.315 51.5765 134.447L51.5999 134.459L51.6244 134.468L53.2244 135.068L54.8144 135.664L54.8244 135.668L55.0263 135.147C61.4472 136.74 68.0188 136.585 74.732 134.682C79.3188 133.468 83.5055 131.51 87.2867 128.81C91.2013 126.109 94.5089 122.802 97.2093 118.887C102.61 111.324 104.974 102.81 104.299 93.3643L103.8 93.4ZM103.8 93.4C103.533 88.467 102.333 83.8 100.2 79.4L103.8 93.4ZM126.316 110.276L126.316 110.276L126.313 110.288C125.122 115.448 123.336 120.41 120.954 125.174C118.573 129.803 115.597 134.168 112.023 138.272L112.022 138.273C108.585 142.238 104.618 145.743 100.12 148.786C90.7244 155.137 80.4076 158.775 69.1618 159.701C57.9155 160.495 47.2026 158.511 37.0152 153.749C32.1203 151.367 27.5561 148.457 23.322 145.017C19.2208 141.445 15.5828 137.476 12.4075 133.11C9.36399 128.743 6.78268 124.044 4.66386 119.013C2.68142 113.857 1.42625 108.57 0.897639 103.151L0.897821 103.151L0.896145 103.138C0.764199 102.082 0.632089 101.091 0.5 100.164V100.162V100.156V100.15V100.144V100.137V100.131V100.125V100.119V100.112V100.106V100.1V100.094V100.087V100.081V100.075V100.069V100.062V100.056V100.05V100.044V100.037V100.031V100.025V100.019V100.012V100.006V99.9999V99.9937V99.9874V99.9812V99.9749V99.9687V99.9624V99.9562V99.9499V99.9437V99.9374V99.9312V99.9249V99.9187V99.9124V99.9062V99.8999V99.8937V99.8874V99.8812V99.8749V99.8687V99.8624V99.8562V99.8499V99.8437V99.8374V99.8312V99.8249V99.8187V99.8124V99.8062V99.7999V99.7937V99.7874V99.7812V99.7749V99.7687V99.7624V99.7562V99.7499V99.7437V99.7374V99.7312V99.7249V99.7187V99.7124V99.7062V99.6999V99.6937V99.6874V99.6812V99.6749V99.6687V99.6624V99.6562V99.6499V99.6437V99.6374V99.6311V99.6249V99.6187V99.6124V99.6062V99.5999V99.5937V99.5874V99.5812V99.5749V99.5686V99.5624V99.5562V99.5499V99.5436V99.5374V99.5312V99.5249V99.5187V99.5124V99.5061V99.4999V99.4937V99.4874V99.4811V99.4749V99.4687V99.4624V99.4562V99.4499V99.4436V99.4374V99.4312V99.4249V99.4187V99.4124V99.4062V99.3999V99.3937V99.3874V99.3812V99.3749V99.3687V99.3624V99.3562V99.3499V99.3437V99.3374V99.3312V99.3249V99.3187V99.3124V99.3062V99.2999V99.2937V99.2874V99.2812V99.2749V99.2687V99.2624V99.2562V99.2499V99.2437V99.2374V99.2312V99.2249V99.2187V99.2124V99.2062V99.1999V99.1937V99.1874V99.1812V99.1749V99.1687V99.1624V99.1562V99.1499V99.1437V99.1374V99.1312V99.1249V99.1187V99.1124V99.1062V99.0999V99.0937V99.0874V99.0812V99.0749V99.0687V99.0624V99.0562V99.0499V99.0437V99.0374V99.0312V99.0249V99.0187V99.0124V99.0062V98.9999V98.9937V98.9874V98.9812V98.9749V98.9687V98.9624V98.9562V98.9499V98.9437V98.9374V98.9312V98.9249V98.9187V98.9125V98.9062V98.9V98.8937V98.8875V98.8812V98.875V98.8687V98.8625V98.8562V98.85V98.8437V98.8375V98.8312V98.825V98.8187V98.8125V98.8062V98.8V98.7937V98.7875V98.7812V98.775V98.7687V98.7625V98.7562V98.75V98.7437V98.7375V98.7312V98.725V98.7187V98.7125V98.7062V98.7V98.6937V98.6875V98.6812V98.675V98.6687V98.6625V98.6562V98.65V98.6437V98.6375V98.6312V98.625V98.6187V98.6125V98.6062V98.6V98.5938V98.5875V98.5813V98.575V98.5688V98.5625V98.5563V98.55V98.5438V98.5375V98.5313V98.525V98.5188V98.5125V98.5063V98.5V98.4938V98.4875V98.4813V98.475V98.4688V98.4625V98.4563V98.45V98.4438V98.4375V98.4313V98.425V98.4188V98.4125V98.4063V98.4V98.3938V98.3875V98.3813V98.375V98.3688V98.3625V98.3563V98.35V98.3438V98.3375V98.3313V98.325V98.3188V98.3125V98.3063V98.3V98.2938V98.2875V98.2813V98.275V98.2688V98.2626V98.2563V98.2501V98.2438V98.2376V98.2313V98.2251V98.2188V98.2126V98.2063V98.2001V98.1938V98.1876V98.1813V98.1751V98.1688V98.1626V98.1563V98.1501V98.1438V98.1376V98.1313V98.1251V98.1188V98.1126V98.1063V98.1001V98.0938V98.0876V98.0813V98.0751V98.0688V98.0626V98.0563V98.0501V98.0438V98.0376V98.0313V98.0251V98.0188V98.0126V98.0063V98.0001V97.9938V97.9876V97.9813V97.9751V97.9688V97.9626V97.9563V97.9501V97.9438V97.9376V97.9313V97.9251V97.9188V97.9126V97.9063V97.9001V97.8938V97.8876V97.8813V97.8751V97.8688V97.8626V97.8563V97.8501V97.8438V97.8376V97.8313V97.8251V97.8188V97.8126V97.8063V97.8001V97.7938V97.7876V97.7813V97.7751V97.7688V97.7626V97.7563V97.7501V97.7438V97.7376V97.7313V97.7251V97.7188V97.7126V97.7063V97.7001V97.6938V97.6876V97.6813V97.6751V97.6688V97.6626V97.6563V97.6501V97.6438V97.6376V97.6313V97.6251V97.6188V97.6126V97.6063V97.6001V97.5938V97.5876V97.5813V97.5751V97.5688V97.5626V97.5563V97.5501V97.5438V97.5376V97.5313V97.5251V97.5188V97.5126V97.5063V97.5001V97.4938V97.4876V97.4813V97.4751V97.4688V97.4626V97.4563V97.4501V97.4438V97.4376V97.4313V97.4251V97.4188V97.4126V97.4063V97.4001V97.3938V97.3876V97.3813V97.3751V97.3688V97.3626V97.3563V97.3501V97.3438V97.3376V97.3313V97.3251V97.3188V97.3126V97.3063V97.3001V97.2938V97.2876V97.2813V97.2751V97.2688V97.2626V97.2563V97.2501V97.2438V97.2376V97.2313V97.2251V97.2188V97.2126V97.2063V97.2001V97.1938V97.1875V97.1813V97.175V97.1688V97.1625V97.1563V97.15V97.1438V97.1375V97.1313V97.125V97.1188V97.1125V97.1063V97.1V97.0938V97.0875V97.0813V97.075V97.0688V97.0625V97.0563V97.05V97.0438V97.0375V97.0313V97.025V97.0188V97.0125V97.0062V97V94.4V12.4C0.5 9.06273 1.64954 6.25756 3.95355 3.95356C6.25756 1.64955 9.06273 0.5 12.4 0.5C15.7373 0.5 18.5424 1.64955 20.8464 3.95356C23.1505 6.25757 24.3 9.06273 24.3 12.4V44.949V45.2V45.4H24.8H24.949L25.0987 45.6009C31.8496 40.5709 39.2605 36.9317 47.3342 34.6816L47.3342 34.6817L47.3394 34.6802C55.5407 32.2992 63.8722 31.6379 72.3375 32.6961C80.6711 33.7544 88.5412 36.3996 95.9519 40.6342L95.9578 40.6375C103.364 44.737 109.644 50.1577 114.802 56.9026C118.903 62.3272 122.078 68.2803 124.328 74.7639L124.329 74.767C126.578 81.1184 127.835 87.6677 128.1 94.4164C128.232 99.8369 127.637 105.123 126.316 110.276Z" fill="#0065EF" stroke="#0065EF"/>
    <path d="M160.5 67.5C163.577 67.5 166.343 68.4461 168.33 69.9521C170.316 71.4579 171.5 73.5015 171.5 75.7188V151.281C171.5 153.499 170.316 155.542 168.33 157.048C166.343 158.554 163.577 159.5 160.5 159.5C157.423 159.5 154.657 158.554 152.67 157.048C150.684 155.542 149.5 153.499 149.5 151.281V75.7188C149.5 73.5015 150.684 71.4579 152.67 69.9521C154.657 68.4461 157.423 67.5 160.5 67.5Z" fill="#0065EF" stroke="#0065EF"/>
    <path d="M171.5 43.5C171.5 49.5751 166.575 54.5 160.5 54.5C154.425 54.5 149.5 49.5751 149.5 43.5C149.5 37.4249 154.425 32.5 160.5 32.5C166.575 32.5 171.5 37.4249 171.5 43.5Z" fill="#0065EF" stroke="#0065EF"/>
    <path d="M208.5 32.5C214.066 32.5 218.5 36.6154 218.5 41.6V150.4C218.5 155.385 214.066 159.5 208.5 159.5C202.934 159.5 198.5 155.385 198.5 150.4V41.6C198.5 36.6154 202.934 32.5 208.5 32.5Z" fill="#0065EF" stroke="#0065EF"/>
    <path d="M191 67.7H227C233.416 67.7 238.5 72.2377 238.5 77.7C238.5 83.1622 233.416 87.7 227 87.7H191C184.584 87.7 179.5 83.1622 179.5 77.7C179.5 72.2377 184.584 67.7 191 67.7Z" fill="#0065EF" stroke="#0065EF"/>
</svg>
