<svg width="32" height="32" viewBox="0 0 32 32" fill="none" xmlns="http://www.w3.org/2000/svg">
<path d="M22.7103 13.2287C22.7027 12.6607 22.5964 12.0983 22.3961 11.5667C22.2223 11.1184 21.957 10.7111 21.6169 10.3711C21.2769 10.0311 20.8697 9.76574 20.4213 9.592C19.8966 9.39502 19.3422 9.2885 18.7818 9.277C18.0603 9.24475 17.8316 9.23575 16.0001 9.23575C14.1686 9.23575 13.9338 9.23575 13.2176 9.277C12.6574 9.28859 12.1033 9.3951 11.5788 9.592C11.1303 9.76562 10.7231 10.0309 10.383 10.371C10.043 10.711 9.77767 11.1183 9.60405 11.5667C9.40668 12.0911 9.3004 12.6453 9.2898 13.2055C9.25755 13.9277 9.2478 14.1565 9.2478 15.988C9.2478 17.8195 9.2478 18.0535 9.2898 18.7705C9.30105 19.3315 9.4068 19.885 9.60405 20.4107C9.77796 20.8591 10.0435 21.2662 10.3836 21.6061C10.7238 21.946 11.1311 22.2112 11.5796 22.3847C12.1026 22.5896 12.6568 22.7038 13.2183 22.7222C13.9406 22.7545 14.1693 22.7642 16.0008 22.7642C17.8323 22.7642 18.0671 22.7642 18.7833 22.7222C19.3437 22.7112 19.8981 22.6049 20.4228 22.408C20.8711 22.2341 21.2782 21.9686 21.6182 21.6286C21.9582 21.2886 22.2236 20.8815 22.3976 20.4332C22.5948 19.9082 22.7006 19.3547 22.7118 18.793C22.7441 18.0715 22.7538 17.8427 22.7538 16.0105C22.7523 14.179 22.7523 13.9465 22.7103 13.2287ZM15.9956 19.4515C14.0801 19.4515 12.5283 17.8997 12.5283 15.9842C12.5283 14.0687 14.0801 12.517 15.9956 12.517C16.9151 12.517 17.797 12.8823 18.4473 13.5325C19.0975 14.1828 19.4628 15.0647 19.4628 15.9842C19.4628 16.9038 19.0975 17.7857 18.4473 18.436C17.797 19.0862 16.9151 19.4515 15.9956 19.4515ZM19.6008 13.1972C19.4946 13.1973 19.3894 13.1765 19.2913 13.1359C19.1931 13.0953 19.104 13.0358 19.0289 12.9607C18.9538 12.8856 18.8942 12.7964 18.8536 12.6983C18.813 12.6001 18.7922 12.4949 18.7923 12.3887C18.7923 12.2826 18.8132 12.1775 18.8538 12.0795C18.8944 11.9814 18.954 11.8924 19.029 11.8173C19.104 11.7423 19.1931 11.6828 19.2912 11.6421C19.3892 11.6015 19.4943 11.5806 19.6004 11.5806C19.7066 11.5806 19.8116 11.6015 19.9097 11.6421C20.0077 11.6828 20.0968 11.7423 20.1719 11.8173C20.2469 11.8924 20.3064 11.9814 20.347 12.0795C20.3876 12.1775 20.4086 12.2826 20.4086 12.3887C20.4086 12.8357 20.0471 13.1972 19.6008 13.1972Z" fill="#C1CADF"/>
<path d="M15.9955 18.2365C17.2394 18.2365 18.2478 17.2281 18.2478 15.9842C18.2478 14.7404 17.2394 13.732 15.9955 13.732C14.7517 13.732 13.7433 14.7404 13.7433 15.9842C13.7433 17.2281 14.7517 18.2365 15.9955 18.2365Z" fill="#C1CADF"/>
</svg>
