<svg width="216" height="216" xmlns="http://www.w3.org/2000/svg" xmlns:xlink="http://www.w3.org/1999/xlink" xml:space="preserve" overflow="hidden"><defs><clipPath id="clip0"><rect x="580" y="300" width="216" height="216"/></clipPath><clipPath id="clip1"><rect x="580" y="331" width="216" height="154"/></clipPath><clipPath id="clip2"><rect x="580" y="331" width="216" height="154"/></clipPath></defs><g clip-path="url(#clip0)" transform="translate(-580 -300)"><g clip-path="url(#clip1)"><g clip-path="url(#clip2)"><path d="M110.902 60.4102C110.944 62.1426 110.753 63.8327 110.328 65.4807 109.945 67.1286 109.371 68.7131 108.605 70.2343 107.84 71.7134 106.883 73.1078 105.734 74.4175 104.628 75.6852 103.352 76.8048 101.907 77.7768 98.8869 79.805 95.5696 80.9671 91.9545 81.2628 88.3396 81.5164 84.8946 80.8825 81.6198 79.3613 80.0462 78.6008 78.5789 77.6712 77.218 76.5725 75.8995 75.4317 74.73 74.164 73.7092 72.7696 72.7311 71.3753 71.9017 69.8753 71.2213 68.2695 70.5833 66.6215 70.1793 64.9315 70.0091 63.199 69.9666 62.8607 69.924 62.5439 69.8816 62.2482 69.8816 61.9101 69.8816 61.5723 69.8816 61.2341L69.8816 60.4102 69.8816 34.4235C69.8816 33.3249 70.2643 32.3952 71.0298 31.6347 71.7954 30.8741 72.7311 30.4938 73.8369 30.4938 74.9426 30.4938 75.8783 30.8741 76.6438 31.6347 77.4093 32.3952 77.7922 33.3249 77.7922 34.4235L77.7922 44.8816 77.7922 44.8182C79.9612 43.2124 82.3429 42.0505 84.9371 41.3321 87.574 40.5715 90.2535 40.3602 92.9753 40.6983 95.6547 41.0364 98.1852 41.8815 100.567 43.2336 102.949 44.5435 104.969 46.2759 106.627 48.4309 107.946 50.1635 108.967 52.0649 109.69 54.1353 110.413 56.1635 110.816 58.2552 110.902 60.4102ZM100.758 68.0794C102.459 65.7129 103.204 63.0509 102.991 60.0932 102.906 58.5299 102.523 57.0509 101.843 55.6564 101.162 54.2199 100.269 52.9523 99.1634 51.8536 98.6107 51.3465 98.015 50.9028 97.3772 50.5226 96.7816 50.1423 96.1437 49.7832 95.4634 49.445 93.847 48.7267 92.1674 48.3675 90.4235 48.3675 88.6797 48.3675 86.9999 48.7056 85.3837 49.3817 83.7676 50.1001 82.3641 51.0929 81.1733 52.3606 79.9824 53.6282 79.0893 55.0649 78.4939 56.6706 77.7283 58.8255 77.5583 61.0227 77.9835 63.2624 78.4513 65.5019 79.4296 67.4877 80.918 69.2202 82.0664 70.5725 83.4273 71.5866 85.0009 72.2625 85.3837 72.4739 85.7664 72.6641 86.1493 72.833 86.5745 73.0018 86.9999 73.1711 87.4252 73.3401 87.0849 73.2133 86.7447 73.0865 86.4044 72.9598 86.0641 72.7908 85.724 72.6216 85.3837 72.4527 88.0631 73.6357 90.8276 73.8258 93.677 73.0232 95.123 72.6429 96.4416 72.0302 97.6324 71.1851 98.8658 70.3399 99.9076 69.3049 100.758 68.0794Z" fill="#C7E0F4" transform="matrix(1.00001 0 0 1 580 331.765)"/><path d="M124.75 54.4897C124.75 52.9637 123.108 51.7267 121.082 51.7267 119.056 51.7267 117.414 52.9637 117.414 54.4897L117.414 78.4362C117.414 79.9622 119.056 81.1992 121.082 81.1992 123.108 81.1992 124.75 79.9622 124.75 78.4362L124.75 54.4897Z" fill="#C7E0F4" transform="matrix(1.00001 0 0 1 580 331.765)"/><path d="M121.082 47.9241C123.108 47.9241 124.75 46.2924 124.75 44.2796 124.75 42.2669 123.108 40.6352 121.082 40.6352 119.056 40.6352 117.414 42.2669 117.414 44.2796 117.414 46.2924 119.056 47.9241 121.082 47.9241Z" fill="#C7E0F4" transform="matrix(1.00001 0 0 1 580 331.765)"/><path d="M139.742 43.6775C139.742 41.9972 138.243 40.6352 136.393 40.6352 134.543 40.6352 133.043 41.9972 133.043 43.6775L133.043 78.1573C133.043 79.8375 134.543 81.1996 136.393 81.1996 138.243 81.1996 139.742 79.8375 139.742 78.1573L139.742 43.6775Z" fill="#C7E0F4" transform="matrix(1.00001 0 0 1 580 331.765)"/><path d="M142.289 51.7902 130.806 51.7902C128.692 51.7902 126.978 53.2801 126.978 55.1179 126.978 56.9556 128.692 58.4454 130.806 58.4454L142.289 58.4454C144.402 58.4454 146.116 56.9556 146.116 55.1179 146.116 53.2801 144.402 51.7902 142.289 51.7902Z" fill="#C7E0F4" transform="matrix(1.00001 0 0 1 580 331.765)"/><path d="M40.661 118.164 38.7179 118.164 37.7575 115.447 33.5586 115.447 32.6354 118.164 30.6998 118.164 34.6977 107.488 36.6928 107.488 40.661 118.164ZM37.2885 114.002 35.8069 109.744C35.7623 109.605 35.7151 109.381 35.6655 109.074L35.6357 109.074C35.591 109.357 35.5414 109.58 35.4868 109.744L34.0202 114.002 37.2885 114.002ZM48.8725 118.164 47.1454 118.164 47.1454 116.868 47.1155 116.868C46.5596 117.851 45.7035 118.343 44.547 118.343 43.6091 118.343 42.8572 118.003 42.2914 117.323 41.7306 116.638 41.45 115.707 41.45 114.531 41.45 113.27 41.7603 112.26 42.3807 111.501 43.0061 110.741 43.8374 110.362 44.8747 110.362 45.9021 110.362 46.649 110.774 47.1155 111.598L47.1454 111.598 47.1454 106.878 48.8725 106.878 48.8725 118.164ZM47.1676 114.68 47.1676 113.682C47.1676 113.141 46.9915 112.682 46.639 112.305 46.2867 111.928 45.8376 111.739 45.2916 111.739 44.6464 111.739 44.1377 111.98 43.7654 112.461 43.3981 112.943 43.2145 113.61 43.2145 114.464 43.2145 115.238 43.3907 115.851 43.743 116.303 44.1004 116.749 44.5793 116.973 45.1799 116.973 45.7705 116.973 46.2495 116.757 46.6168 116.325 46.984 115.888 47.1676 115.34 47.1676 114.68ZM62.5262 118.164 60.7991 118.164 60.7991 114.01C60.7991 113.211 60.6849 112.632 60.4566 112.275 60.2332 111.918 59.8535 111.739 59.3175 111.739 58.8659 111.739 58.4812 111.965 58.1636 112.417 57.8509 112.868 57.6946 113.409 57.6946 114.04L57.6946 118.164 55.96 118.164 55.96 113.868C55.96 112.449 55.4586 111.739 54.4561 111.739 53.9896 111.739 53.605 111.953 53.3022 112.379 53.0044 112.806 52.8555 113.36 52.8555 114.04L52.8555 118.164 51.1282 118.164 51.1282 110.54 52.8555 110.54 52.8555 111.747 52.8852 111.747C53.4361 110.823 54.2377 110.362 55.2899 110.362 55.816 110.362 56.2751 110.508 56.6672 110.801 57.0643 111.089 57.3348 111.469 57.4787 111.94 58.0445 110.888 58.8883 110.362 60.0099 110.362 61.6875 110.362 62.5262 111.397 62.5262 113.466L62.5262 118.164ZM65.5042 108.94C65.2212 108.94 64.978 108.848 64.7746 108.664 64.576 108.481 64.4768 108.248 64.4768 107.965 64.4768 107.682 64.576 107.446 64.7746 107.257 64.978 107.069 65.2212 106.974 65.5042 106.974 65.797 106.974 66.0452 107.069 66.2486 107.257 66.4522 107.446 66.5539 107.682 66.5539 107.965 66.5539 108.233 66.4522 108.463 66.2486 108.657 66.0452 108.846 65.797 108.94 65.5042 108.94ZM66.3603 118.164 64.6331 118.164 64.6331 110.54 66.3603 110.54 66.3603 118.164ZM75.4131 118.164 73.6859 118.164 73.6859 113.868C73.6859 112.444 73.1823 111.732 72.1747 111.732 71.6486 111.732 71.2143 111.93 70.8719 112.327 70.5294 112.719 70.3582 113.216 70.3582 113.816L70.3582 118.164 68.6236 118.164 68.6236 110.54 70.3582 110.54 70.3582 111.806 70.3879 111.806C70.9588 110.843 71.7826 110.362 72.8597 110.362 73.6885 110.362 74.3212 110.632 74.758 111.173 75.1947 111.709 75.4131 112.486 75.4131 113.503L75.4131 118.164ZM83.6843 114.293 83.6843 118.164 81.9199 118.164 81.9199 107.488 85.1583 107.488C86.3843 107.488 87.3347 107.773 88.0098 108.344 88.6847 108.915 89.0223 109.719 89.0223 110.756 89.0223 111.794 88.6698 112.642 87.965 113.302 87.2602 113.963 86.3073 114.293 85.1062 114.293L83.6843 114.293ZM83.6843 108.947 83.6843 112.848 84.8308 112.848C85.5902 112.848 86.1684 112.672 86.5655 112.32 86.9626 111.967 87.161 111.471 87.161 110.831 87.161 109.575 86.4315 108.947 84.9723 108.947L83.6843 108.947ZM96.0501 118.164 94.375 118.164 94.375 116.973 94.3452 116.973C93.8191 117.886 93.0473 118.343 92.0299 118.343 91.2805 118.343 90.6923 118.139 90.2655 117.732 89.8436 117.325 89.6327 116.787 89.6327 116.117 89.6327 114.677 90.4616 113.838 92.1193 113.6L94.3825 113.28C94.3825 112.193 93.8664 111.65 92.834 111.65 91.9257 111.65 91.1068 111.962 90.3772 112.588L90.3772 111.076C91.1813 110.6 92.1093 110.362 93.1616 110.362 95.0873 110.362 96.0501 111.31 96.0501 113.206L96.0501 118.164ZM94.3825 114.419 92.7818 114.643C92.2855 114.707 91.9108 114.829 91.6577 115.007 91.4096 115.181 91.2854 115.489 91.2854 115.93 91.2854 116.253 91.3995 116.519 91.6279 116.727 91.8611 116.93 92.1714 117.032 92.5586 117.032 93.0846 117.032 93.5189 116.849 93.8613 116.481 94.2088 116.109 94.3825 115.643 94.3825 115.082L94.3825 114.419ZM104.954 118.164 103.227 118.164 103.227 113.868C103.227 112.444 102.723 111.732 101.716 111.732 101.189 111.732 100.755 111.93 100.413 112.327 100.07 112.719 99.8991 113.216 99.8991 113.816L99.8991 118.164 98.1645 118.164 98.1645 110.54 99.8991 110.54 99.8991 111.806 99.9288 111.806C100.5 110.843 101.324 110.362 102.401 110.362 103.229 110.362 103.862 110.632 104.299 111.173 104.736 111.709 104.954 112.486 104.954 113.503L104.954 118.164ZM113.523 114.821 108.327 114.821C108.346 115.526 108.562 116.069 108.974 116.452 109.391 116.834 109.962 117.025 110.687 117.025 111.501 117.025 112.248 116.782 112.927 116.295L112.927 117.687C112.233 118.124 111.314 118.343 110.173 118.343 109.051 118.343 108.17 117.998 107.53 117.308 106.895 116.613 106.577 115.638 106.577 114.382 106.577 113.196 106.927 112.23 107.627 111.486 108.331 110.736 109.205 110.362 110.247 110.362 111.29 110.362 112.096 110.697 112.667 111.367 113.238 112.037 113.523 112.967 113.523 114.159L113.523 114.821ZM111.855 113.6C111.85 112.98 111.704 112.498 111.416 112.156 111.128 111.809 110.731 111.635 110.225 111.635 109.729 111.635 109.307 111.816 108.959 112.178 108.617 112.541 108.406 113.015 108.327 113.6L111.855 113.6ZM116.903 118.164 115.168 118.164 115.168 106.878 116.903 106.878 116.903 118.164ZM130.401 108.992 127.333 108.992 127.333 118.164 125.561 118.164 125.561 108.992 122.501 108.992 122.501 107.488 130.401 107.488 130.401 108.992ZM136.736 114.821 131.539 114.821C131.559 115.526 131.775 116.069 132.187 116.452 132.604 116.834 133.174 117.025 133.9 117.025 134.713 117.025 135.46 116.782 136.14 116.295L136.14 117.687C135.446 118.124 134.527 118.343 133.385 118.343 132.264 118.343 131.383 117.998 130.742 117.308 130.107 116.613 129.789 115.638 129.789 114.382 129.789 113.196 130.14 112.23 130.84 111.486 131.544 110.736 132.418 110.362 133.46 110.362 134.502 110.362 135.309 110.697 135.879 111.367 136.451 112.037 136.736 112.967 136.736 114.159L136.736 114.821ZM135.069 113.6C135.064 112.98 134.917 112.498 134.629 112.156 134.341 111.809 133.944 111.635 133.437 111.635 132.942 111.635 132.52 111.816 132.172 112.178 131.83 112.541 131.619 113.015 131.539 113.6L135.069 113.6ZM149.779 118.164 148.051 118.164 148.051 114.01C148.051 113.211 147.938 112.632 147.71 112.275 147.486 111.918 147.106 111.739 146.57 111.739 146.119 111.739 145.734 111.965 145.416 112.417 145.104 112.868 144.947 113.409 144.947 114.04L144.947 118.164 143.213 118.164 143.213 113.868C143.213 112.449 142.711 111.739 141.709 111.739 141.242 111.739 140.857 111.953 140.555 112.379 140.258 112.806 140.108 113.36 140.108 114.04L140.108 118.164 138.381 118.164 138.381 110.54 140.108 110.54 140.108 111.747 140.138 111.747C140.69 110.823 141.49 110.362 142.543 110.362 143.069 110.362 143.528 110.508 143.919 110.801 144.317 111.089 144.588 111.469 144.731 111.94 145.297 110.888 146.142 110.362 147.262 110.362 148.941 110.362 149.779 111.397 149.779 113.466L149.779 118.164ZM153.643 117.04 153.613 117.04 153.613 121.67 151.886 121.67 151.886 110.54 153.613 110.54 153.613 111.88 153.643 111.88C154.234 110.868 155.097 110.362 156.234 110.362 157.202 110.362 157.956 110.702 158.497 111.382 159.038 112.062 159.309 112.975 159.309 114.121 159.309 115.392 159.004 116.409 158.393 117.174 157.783 117.938 156.948 118.32 155.891 118.32 154.919 118.32 154.169 117.893 153.643 117.04ZM153.599 114.032 153.599 114.977C153.599 115.533 153.774 116.005 154.127 116.392 154.484 116.779 154.935 116.973 155.482 116.973 156.122 116.973 156.624 116.725 156.986 116.228 157.353 115.727 157.536 115.03 157.536 114.136 157.536 113.387 157.366 112.801 157.023 112.379 156.685 111.953 156.226 111.739 155.646 111.739 155.031 111.739 154.534 111.957 154.156 112.394 153.784 112.831 153.599 113.377 153.599 114.032ZM162.808 118.164 161.072 118.164 161.072 106.878 162.808 106.878 162.808 118.164ZM170.915 118.164 169.239 118.164 169.239 116.973 169.21 116.973C168.684 117.886 167.912 118.343 166.895 118.343 166.146 118.343 165.557 118.139 165.13 117.732 164.709 117.325 164.498 116.787 164.498 116.117 164.498 114.677 165.326 113.838 166.984 113.6L169.247 113.28C169.247 112.193 168.731 111.65 167.698 111.65 166.79 111.65 165.972 111.962 165.242 112.588L165.242 111.076C166.047 110.6 166.974 110.362 168.026 110.362 169.952 110.362 170.915 111.31 170.915 113.206L170.915 118.164ZM169.247 114.419 167.646 114.643C167.151 114.707 166.776 114.829 166.523 115.007 166.274 115.181 166.151 115.489 166.151 115.93 166.151 116.253 166.264 116.519 166.493 116.727 166.726 116.93 167.036 117.032 167.424 117.032 167.95 117.032 168.383 116.849 168.726 116.481 169.073 116.109 169.247 115.643 169.247 115.082L169.247 114.419ZM177.05 118.082C176.712 118.251 176.267 118.335 175.717 118.335 174.238 118.335 173.498 117.625 173.498 116.206L173.498 111.895 172.225 111.895 172.225 110.54 173.498 110.54 173.498 108.776 175.225 108.285 175.225 110.54 177.05 110.54 177.05 111.895 175.225 111.895 175.225 115.707C175.225 116.159 175.308 116.481 175.472 116.675 175.634 116.868 175.907 116.965 176.29 116.965 176.583 116.965 176.836 116.881 177.05 116.712L177.05 118.082ZM184.903 114.821 179.708 114.821C179.727 115.526 179.943 116.069 180.354 116.452 180.771 116.834 181.343 117.025 182.067 117.025 182.882 117.025 183.627 116.782 184.309 116.295L184.309 117.687C183.614 118.124 182.695 118.343 181.554 118.343 180.432 118.343 179.55 117.998 178.911 117.308 178.276 116.613 177.958 115.638 177.958 114.382 177.958 113.196 178.308 112.23 179.008 111.486 179.712 110.736 180.586 110.362 181.628 110.362 182.671 110.362 183.476 110.697 184.048 111.367 184.619 112.037 184.903 112.967 184.903 114.159L184.903 114.821ZM183.236 113.6C183.231 112.98 183.085 112.498 182.797 112.156 182.509 111.809 182.112 111.635 181.606 111.635 181.109 111.635 180.687 111.816 180.341 112.178 179.997 112.541 179.787 113.015 179.708 113.6L183.236 113.6Z" fill="#C8C6C4" transform="matrix(1.00001 0 0 1 580 331.765)"/></g></g></g></svg>