<svg width="154" height="154" viewBox="0 0 154 154" fill="none" xmlns="http://www.w3.org/2000/svg">
<path d="M79.2846 64.5455C79.3179 65.909 79.1673 67.2392 78.8327 68.5362C78.5314 69.8332 78.0795 71.0803 77.477 72.2775C76.8745 73.4416 76.1214 74.5391 75.2176 75.5699C74.3472 76.5676 73.343 77.4488 72.205 78.2138C69.8284 79.8101 67.2175 80.7247 64.3723 80.9574C61.5272 81.157 58.8158 80.6581 56.2384 79.4609C54.9999 78.8623 53.8451 78.1307 52.774 77.266C51.7363 76.3681 50.8158 75.3704 50.0124 74.2729C49.2426 73.1755 48.5898 71.995 48.0543 70.7311C47.5522 69.4341 47.2342 68.104 47.1003 66.7404C47.0668 66.4742 47.0333 66.2248 46.9999 65.9921C46.9999 65.726 46.9999 65.4601 46.9999 65.194V64.5455V44.0928C46.9999 43.2282 47.3011 42.4965 47.9036 41.8979C48.5062 41.2993 49.2426 41 50.1129 41C50.9832 41 51.7196 41.2993 52.3221 41.8979C52.9246 42.4965 53.2259 43.2282 53.2259 44.0928V52.3238V52.2739C54.933 51.0101 56.8075 50.0956 58.8493 49.5302C60.9246 48.9316 63.0335 48.7653 65.1757 49.0314C67.2845 49.2975 69.2761 49.9626 71.1506 51.0268C73.0252 52.0577 74.6151 53.4212 75.9205 55.1173C76.9581 56.4809 77.7615 57.9774 78.3306 59.6069C78.8997 61.2032 79.2175 62.8494 79.2846 64.5455ZM71.3013 70.5815C72.6401 68.719 73.226 66.6239 73.0586 64.296C72.9916 63.0656 72.6903 61.9016 72.1548 60.8041C71.6193 59.6735 70.9164 58.6758 70.046 57.8111C69.611 57.412 69.1422 57.0628 68.6402 56.7635C68.1714 56.4642 67.6694 56.1816 67.1339 55.9154C65.8618 55.3501 64.5398 55.0674 63.1673 55.0674C61.7949 55.0674 60.4728 55.3335 59.2008 55.8656C57.9288 56.431 56.8242 57.2124 55.887 58.2101C54.9497 59.2078 54.2468 60.3385 53.7782 61.6023C53.1756 63.2983 53.0418 65.0276 53.3765 66.7903C53.7447 68.5529 54.5146 70.1158 55.6861 71.4794C56.5899 72.5437 57.661 73.3418 58.8995 73.8738C59.2008 74.0402 59.502 74.1899 59.8033 74.3228C60.138 74.4557 60.4728 74.5889 60.8075 74.7219C60.5397 74.6221 60.2719 74.5223 60.0041 74.4226C59.7363 74.2896 59.4686 74.1564 59.2008 74.0235C61.3096 74.9546 63.4854 75.1042 65.728 74.4725C66.866 74.1732 67.9038 73.691 68.841 73.0258C69.8118 72.3606 70.6317 71.546 71.3013 70.5815Z" fill="#C7E0F4"/>
<path d="M90.1841 59.8858C90.1841 58.6848 88.8915 57.7112 87.297 57.7112C85.7025 57.7112 84.41 58.6848 84.41 59.8858V78.7328C84.41 79.9338 85.7025 80.9074 87.297 80.9074C88.8915 80.9074 90.1841 79.9338 90.1841 78.7328V59.8858Z" fill="#C7E0F4"/>
<path d="M87.297 54.7184C88.8915 54.7184 90.1841 53.4342 90.1841 51.85C90.1841 50.2659 88.8915 48.9817 87.297 48.9817C85.7025 48.9817 84.41 50.2659 84.41 51.85C84.41 53.4342 85.7025 54.7184 87.297 54.7184Z" fill="#C7E0F4"/>
<path d="M101.983 51.3761C101.983 50.0537 100.803 48.9817 99.3467 48.9817C97.8909 48.9817 96.7107 50.0537 96.7107 51.3761V78.5133C96.7107 79.8357 97.8909 80.9077 99.3467 80.9077C100.803 80.9077 101.983 79.8357 101.983 78.5133V51.3761Z" fill="#C7E0F4"/>
<path d="M103.988 57.7612H94.9499C93.2861 57.7612 91.9373 58.9338 91.9373 60.3802C91.9373 61.8266 93.2861 62.9991 94.9499 62.9991H103.988C105.651 62.9991 107 61.8266 107 60.3802C107 58.9338 105.651 57.7612 103.988 57.7612Z" fill="#C7E0F4"/>
<path d="M24.002 110H22.4727L21.7168 107.862H18.4121L17.6855 110H16.1621L19.3086 101.598H20.8789L24.002 110ZM21.3477 106.725L20.1816 103.373C20.1465 103.264 20.1094 103.088 20.0703 102.846H20.0469C20.0117 103.069 19.9727 103.244 19.9297 103.373L18.7754 106.725H21.3477ZM30.4648 110H29.1055V108.981H29.082C28.6445 109.754 27.9707 110.141 27.0605 110.141C26.3223 110.141 25.7305 109.873 25.2852 109.338C24.8438 108.799 24.623 108.067 24.623 107.141C24.623 106.149 24.8672 105.354 25.3555 104.756C25.8477 104.158 26.502 103.86 27.3184 103.86C28.127 103.86 28.7148 104.184 29.082 104.832H29.1055V101.117H30.4648V110ZM29.123 107.258V106.473C29.123 106.047 28.9844 105.686 28.707 105.389C28.4297 105.092 28.0762 104.944 27.6465 104.944C27.1387 104.944 26.7383 105.133 26.4453 105.512C26.1562 105.891 26.0117 106.416 26.0117 107.088C26.0117 107.698 26.1504 108.18 26.4277 108.535C26.709 108.887 27.0859 109.063 27.5586 109.063C28.0234 109.063 28.4004 108.893 28.6895 108.553C28.9785 108.209 29.123 107.778 29.123 107.258ZM41.2109 110H39.8516V106.731C39.8516 106.102 39.7617 105.647 39.582 105.365C39.4062 105.084 39.1074 104.944 38.6855 104.944C38.3301 104.944 38.0273 105.121 37.7773 105.477C37.5312 105.832 37.4082 106.258 37.4082 106.754V110H36.043V106.619C36.043 105.502 35.6484 104.944 34.8594 104.944C34.4922 104.944 34.1895 105.112 33.9512 105.448C33.7168 105.783 33.5996 106.219 33.5996 106.754V110H32.2402V104H33.5996V104.949H33.623C34.0566 104.223 34.6875 103.86 35.5156 103.86C35.9297 103.86 36.291 103.975 36.5996 104.205C36.9121 104.432 37.125 104.731 37.2383 105.102C37.6836 104.274 38.3477 103.86 39.2305 103.86C40.5508 103.86 41.2109 104.674 41.2109 106.303V110ZM43.5547 102.74C43.332 102.74 43.1406 102.668 42.9805 102.524C42.8242 102.379 42.7461 102.196 42.7461 101.973C42.7461 101.75 42.8242 101.565 42.9805 101.416C43.1406 101.268 43.332 101.194 43.5547 101.194C43.7852 101.194 43.9805 101.268 44.1406 101.416C44.3008 101.565 44.3809 101.75 44.3809 101.973C44.3809 102.184 44.3008 102.365 44.1406 102.518C43.9805 102.666 43.7852 102.74 43.5547 102.74ZM44.2285 110H42.8691V104H44.2285V110ZM51.3535 110H49.9941V106.619C49.9941 105.498 49.5977 104.938 48.8047 104.938C48.3906 104.938 48.0488 105.094 47.7793 105.406C47.5098 105.715 47.375 106.106 47.375 106.578V110H46.0098V104H47.375V104.996H47.3984C47.8477 104.239 48.4961 103.86 49.3438 103.86C49.9961 103.86 50.4941 104.073 50.8379 104.498C51.1816 104.92 51.3535 105.531 51.3535 106.332V110ZM57.8633 106.953V110H56.4746V101.598H59.0234C59.9883 101.598 60.7363 101.823 61.2676 102.272C61.7988 102.721 62.0645 103.354 62.0645 104.17C62.0645 104.987 61.7871 105.655 61.2324 106.174C60.6777 106.694 59.9277 106.953 58.9824 106.953H57.8633ZM57.8633 102.746V105.817H58.7656C59.3633 105.817 59.8184 105.678 60.1309 105.401C60.4434 105.123 60.5996 104.733 60.5996 104.229C60.5996 103.24 60.0254 102.746 58.877 102.746H57.8633ZM67.5957 110H66.2773V109.063H66.2539C65.8398 109.781 65.2324 110.141 64.4316 110.141C63.8418 110.141 63.3789 109.981 63.043 109.66C62.7109 109.34 62.5449 108.916 62.5449 108.389C62.5449 107.256 63.1973 106.596 64.502 106.408L66.2832 106.156C66.2832 105.301 65.877 104.873 65.0645 104.873C64.3496 104.873 63.7051 105.119 63.1309 105.612V104.422C63.7637 104.047 64.4941 103.86 65.3223 103.86C66.8379 103.86 67.5957 104.606 67.5957 106.098V110ZM66.2832 107.053L65.0234 107.229C64.6328 107.28 64.3379 107.375 64.1387 107.516C63.9434 107.653 63.8457 107.895 63.8457 108.242C63.8457 108.496 63.9355 108.705 64.1152 108.869C64.2988 109.03 64.543 109.11 64.8477 109.11C65.2617 109.11 65.6035 108.965 65.873 108.676C66.1465 108.383 66.2832 108.016 66.2832 107.574V107.053ZM74.6035 110H73.2441V106.619C73.2441 105.498 72.8477 104.938 72.0547 104.938C71.6406 104.938 71.2988 105.094 71.0293 105.406C70.7598 105.715 70.625 106.106 70.625 106.578V110H69.2598V104H70.625V104.996H70.6484C71.0977 104.239 71.7461 103.86 72.5938 103.86C73.2461 103.86 73.7441 104.073 74.0879 104.498C74.4316 104.92 74.6035 105.531 74.6035 106.332V110ZM81.3477 107.369H77.2578C77.2734 107.924 77.4434 108.352 77.7676 108.653C78.0957 108.953 78.5449 109.104 79.1152 109.104C79.7559 109.104 80.3438 108.912 80.8789 108.53V109.625C80.332 109.969 79.6094 110.141 78.7109 110.141C77.8281 110.141 77.1348 109.869 76.6309 109.326C76.1309 108.78 75.8809 108.012 75.8809 107.024C75.8809 106.09 76.1562 105.33 76.707 104.744C77.2617 104.155 77.9492 103.86 78.7695 103.86C79.5898 103.86 80.2246 104.123 80.6738 104.651C81.123 105.178 81.3477 105.91 81.3477 106.848V107.369ZM80.0352 106.408C80.0312 105.92 79.916 105.541 79.6895 105.272C79.4629 104.998 79.1504 104.862 78.752 104.862C78.3613 104.862 78.0293 105.004 77.7559 105.289C77.4863 105.574 77.3203 105.948 77.2578 106.408H80.0352ZM84.0078 110H82.6426V101.117H84.0078V110ZM94.6309 102.781H92.2168V110H90.8223V102.781H88.4141V101.598H94.6309V102.781ZM99.6172 107.369H95.5273C95.543 107.924 95.7129 108.352 96.0371 108.653C96.3652 108.953 96.8145 109.104 97.3848 109.104C98.0254 109.104 98.6133 108.912 99.1484 108.53V109.625C98.6016 109.969 97.8789 110.141 96.9805 110.141C96.0977 110.141 95.4043 109.869 94.9004 109.326C94.4004 108.78 94.1504 108.012 94.1504 107.024C94.1504 106.09 94.4258 105.33 94.9766 104.744C95.5312 104.155 96.2188 103.86 97.0391 103.86C97.8594 103.86 98.4941 104.123 98.9434 104.651C99.3926 105.178 99.6172 105.91 99.6172 106.848V107.369ZM98.3047 106.408C98.3008 105.92 98.1855 105.541 97.959 105.272C97.7324 104.998 97.4199 104.862 97.0215 104.862C96.6309 104.862 96.2988 105.004 96.0254 105.289C95.7559 105.574 95.5898 105.948 95.5273 106.408H98.3047ZM109.883 110H108.523V106.731C108.523 106.102 108.434 105.647 108.254 105.365C108.078 105.084 107.779 104.944 107.357 104.944C107.002 104.944 106.699 105.121 106.449 105.477C106.203 105.832 106.08 106.258 106.08 106.754V110H104.715V106.619C104.715 105.502 104.32 104.944 103.531 104.944C103.164 104.944 102.861 105.112 102.623 105.448C102.389 105.783 102.271 106.219 102.271 106.754V110H100.912V104H102.271V104.949H102.295C102.729 104.223 103.359 103.86 104.188 103.86C104.602 103.86 104.963 103.975 105.271 104.205C105.584 104.432 105.797 104.731 105.91 105.102C106.355 104.274 107.02 103.86 107.902 103.86C109.223 103.86 109.883 104.674 109.883 106.303V110ZM112.924 109.115H112.9V112.76H111.541V104H112.9V105.055H112.924C113.389 104.258 114.068 103.86 114.963 103.86C115.725 103.86 116.318 104.127 116.744 104.662C117.17 105.198 117.383 105.916 117.383 106.819C117.383 107.819 117.143 108.619 116.662 109.221C116.182 109.823 115.525 110.123 114.693 110.123C113.928 110.123 113.338 109.787 112.924 109.115ZM112.889 106.748V107.492C112.889 107.93 113.027 108.301 113.305 108.606C113.586 108.91 113.941 109.063 114.371 109.063C114.875 109.063 115.27 108.867 115.555 108.477C115.844 108.082 115.988 107.533 115.988 106.83C115.988 106.24 115.854 105.78 115.584 105.448C115.318 105.112 114.957 104.944 114.5 104.944C114.016 104.944 113.625 105.115 113.328 105.459C113.035 105.803 112.889 106.233 112.889 106.748ZM120.137 110H118.771V101.117H120.137V110ZM126.518 110H125.199V109.063H125.176C124.762 109.781 124.154 110.141 123.354 110.141C122.764 110.141 122.301 109.981 121.965 109.66C121.633 109.34 121.467 108.916 121.467 108.389C121.467 107.256 122.119 106.596 123.424 106.408L125.205 106.156C125.205 105.301 124.799 104.873 123.986 104.873C123.271 104.873 122.627 105.119 122.053 105.612V104.422C122.686 104.047 123.416 103.86 124.244 103.86C125.76 103.86 126.518 104.606 126.518 106.098V110ZM125.205 107.053L123.945 107.229C123.555 107.28 123.26 107.375 123.061 107.516C122.865 107.653 122.768 107.895 122.768 108.242C122.768 108.496 122.857 108.705 123.037 108.869C123.221 109.03 123.465 109.11 123.77 109.11C124.184 109.11 124.525 108.965 124.795 108.676C125.068 108.383 125.205 108.016 125.205 107.574V107.053ZM131.346 109.936C131.08 110.069 130.73 110.135 130.297 110.135C129.133 110.135 128.551 109.576 128.551 108.459V105.067H127.549V104H128.551V102.612L129.91 102.225V104H131.346V105.067H129.91V108.067C129.91 108.422 129.975 108.676 130.104 108.828C130.232 108.981 130.447 109.057 130.748 109.057C130.979 109.057 131.178 108.99 131.346 108.858V109.936ZM137.527 107.369H133.438C133.453 107.924 133.623 108.352 133.947 108.653C134.275 108.953 134.725 109.104 135.295 109.104C135.936 109.104 136.523 108.912 137.059 108.53V109.625C136.512 109.969 135.789 110.141 134.891 110.141C134.008 110.141 133.314 109.869 132.811 109.326C132.311 108.78 132.061 108.012 132.061 107.024C132.061 106.09 132.336 105.33 132.887 104.744C133.441 104.155 134.129 103.86 134.949 103.86C135.77 103.86 136.404 104.123 136.854 104.651C137.303 105.178 137.527 105.91 137.527 106.848V107.369ZM136.215 106.408C136.211 105.92 136.096 105.541 135.869 105.272C135.643 104.998 135.33 104.862 134.932 104.862C134.541 104.862 134.209 105.004 133.936 105.289C133.666 105.574 133.5 105.948 133.438 106.408H136.215Z" fill="#C8C6C4"/>
</svg>
