<svg width="42" height="29" viewBox="0 0 42 29" fill="none" xmlns="http://www.w3.org/2000/svg">
<path d="M22.5979 16.5882C22.6213 17.5489 22.5158 18.486 22.2816 19.3997C22.0707 20.3135 21.7544 21.1921 21.3327 22.0356C20.9109 22.8557 20.3838 23.6288 19.7512 24.3551C19.1419 25.058 18.4391 25.6788 17.6425 26.2178C15.9789 27.3424 14.1514 27.9868 12.16 28.1507C10.1685 28.2913 8.27067 27.9398 6.46658 27.0964C5.59969 26.6746 4.79137 26.1592 4.04161 25.55C3.3153 24.9174 2.67098 24.2145 2.10867 23.4413C1.56978 22.6682 1.1129 21.8365 0.738033 20.9461C0.386589 20.0323 0.164002 19.0952 0.0702892 18.1345C0.0468654 17.947 0.0234238 17.7713 0 17.6074C0 17.4199 0 17.2326 0 17.0451V16.5882V2.17896C0 1.56978 0.210866 1.05433 0.6326 0.632601C1.05433 0.210867 1.56978 0 2.17896 0C2.78813 0 3.30358 0.210867 3.72531 0.632601C4.14704 1.05433 4.35791 1.56978 4.35791 2.17896V7.97779V7.94265C5.55282 7.05231 6.86489 6.40801 8.29409 6.0097C9.74673 5.58797 11.2229 5.47081 12.7223 5.65826C14.1984 5.8457 15.5924 6.31428 16.9045 7.06403C18.2166 7.79035 19.3294 8.75097 20.2432 9.94588C20.9695 10.9066 21.5318 11.9609 21.9301 13.1089C22.3285 14.2335 22.551 15.3933 22.5979 16.5882ZM17.0099 20.8407C17.947 19.5285 18.3572 18.0525 18.24 16.4125C18.1931 15.5456 17.9822 14.7255 17.6074 13.9523C17.2326 13.1558 16.7405 12.4529 16.1313 11.8437C15.8268 11.5625 15.4987 11.3165 15.1473 11.1056C14.8192 10.8948 14.4677 10.6957 14.0929 10.5082C13.2025 10.1099 12.2772 9.91074 11.3165 9.91074C10.3559 9.91074 9.43043 10.0982 8.5401 10.473C7.64977 10.8714 6.87659 11.4219 6.22057 12.1248C5.56454 12.8277 5.07252 13.6243 4.7445 14.5147C4.32277 15.7096 4.22905 16.9279 4.46335 18.1697C4.72108 19.4115 5.25995 20.5126 6.07999 21.4733C6.71259 22.2231 7.46234 22.7854 8.32923 23.1602C8.5401 23.2774 8.75097 23.3828 8.96183 23.4765C9.19612 23.5702 9.43043 23.664 9.66472 23.7576C9.47728 23.6874 9.28986 23.6171 9.10241 23.5468C8.91497 23.4531 8.72754 23.3593 8.5401 23.2656C10.0162 23.9216 11.5392 24.027 13.1089 23.5819C13.9054 23.3711 14.6319 23.0314 15.2878 22.5627C15.9674 22.0941 16.5413 21.5202 17.0099 20.8407Z" fill="#0065EF"/>
<path d="M30.2135 13.3021C30.2135 12.456 29.3087 11.77 28.1927 11.77C27.0766 11.77 26.1719 12.456 26.1719 13.3021V26.5801C26.1719 27.4263 27.0766 28.1122 28.1927 28.1122C29.3087 28.1122 30.2135 27.4263 30.2135 26.5801V13.3021Z" fill="#0065EF"/>
<path d="M28.1927 9.67174C29.3087 9.67174 30.2135 8.76699 30.2135 7.65093C30.2135 6.53487 29.3087 5.63013 28.1927 5.63013C27.0766 5.63013 26.1719 6.53487 26.1719 7.65093C26.1719 8.76699 27.0766 9.67174 28.1927 9.67174Z" fill="#0065EF"/>
<path d="M38.487 7.31706C38.487 6.38539 37.661 5.63013 36.642 5.63013C35.6229 5.63013 34.7969 6.38539 34.7969 7.31706V26.4356C34.7969 27.3673 35.6229 28.1226 36.642 28.1226C37.661 28.1226 38.487 27.3673 38.487 26.4356V7.31706Z" fill="#0065EF"/>
<path d="M39.8917 11.8103H33.5657C32.4011 11.8103 31.457 12.6364 31.457 13.6554C31.457 14.6744 32.4011 15.5005 33.5657 15.5005H39.8917C41.0563 15.5005 42.0004 14.6744 42.0004 13.6554C42.0004 12.6364 41.0563 11.8103 39.8917 11.8103Z" fill="#0065EF"/>
</svg>
