<svg width="16" height="17" viewBox="0 0 16 17" fill="none" xmlns="http://www.w3.org/2000/svg">
<path d="M7.99992 9.94679C6.57992 9.94679 5.41992 8.79346 5.41992 7.36679C5.41992 5.94012 6.57992 4.79346 7.99992 4.79346C9.41992 4.79346 10.5799 5.94679 10.5799 7.37346C10.5799 8.80012 9.41992 9.94679 7.99992 9.94679ZM7.99992 5.79346C7.13326 5.79346 6.41992 6.50012 6.41992 7.37346C6.41992 8.24679 7.12659 8.95346 7.99992 8.95346C8.87326 8.95346 9.57992 8.24679 9.57992 7.37346C9.57992 6.50012 8.86659 5.79346 7.99992 5.79346Z" fill="#8A8886"/>
<path d="M8.00012 15.6735C7.01345 15.6735 6.02012 15.3002 5.24678 14.5602C3.28012 12.6668 1.10678 9.64683 1.92678 6.0535C2.66678 2.7935 5.51345 1.3335 8.00012 1.3335C8.00012 1.3335 8.00012 1.3335 8.00678 1.3335C10.4935 1.3335 13.3401 2.7935 14.0801 6.06016C14.8934 9.6535 12.7201 12.6668 10.7534 14.5602C9.98012 15.3002 8.98678 15.6735 8.00012 15.6735ZM8.00012 2.3335C6.06012 2.3335 3.56678 3.36683 2.90678 6.2735C2.18678 9.4135 4.16012 12.1202 5.94678 13.8335C7.10012 14.9468 8.90678 14.9468 10.0601 13.8335C11.8401 12.1202 13.8134 9.4135 13.1068 6.2735C12.4401 3.36683 9.94012 2.3335 8.00012 2.3335Z" fill="#8A8886"/>
</svg>
