<svg width="120" height="133" viewBox="0 0 120 133" fill="none" xmlns="http://www.w3.org/2000/svg">
<circle cx="60" cy="60" r="59.5" fill="white" stroke="#5CA1FF"/>
<circle cx="60" cy="114" r="18" fill="#0065EF" stroke="white" stroke-width="2"/>
<path d="M60.623 110.527C61.2734 110.527 61.7334 110.311 62.0029 109.877C62.2783 109.443 62.4717 108.708 62.583 107.671L62.7236 106.493L64.666 106.774C64.6309 107.144 64.5986 107.448 64.5693 107.688C64.54 107.929 64.4961 108.228 64.4375 108.585C64.3848 108.937 64.3262 109.229 64.2617 109.464C64.1973 109.698 64.1123 109.965 64.0068 110.264C63.9072 110.562 63.793 110.809 63.6641 111.002C63.541 111.195 63.3887 111.395 63.207 111.6C63.0254 111.799 62.8262 111.957 62.6094 112.074C62.3926 112.191 62.1406 112.288 61.8535 112.364C61.5664 112.44 61.2559 112.479 60.9219 112.479C60.3477 112.479 59.8701 112.312 59.4893 111.978C59.9111 113.976 60.1221 116.316 60.1221 119H58.1445C58.1445 116.709 57.9863 114.679 57.6699 112.909C57.3594 111.14 56.7939 109.209 55.9736 107.117L57.8633 106.405L58.3203 107.671C58.7422 108.796 59.1055 109.555 59.4102 109.947C59.7148 110.334 60.1191 110.527 60.623 110.527Z" fill="white"/>
<path d="M86.1332 66.7333H72.1333C71.1433 66.7333 70.1936 67.1267 69.4933 67.8267C68.7933 68.5271 68.3999 69.4767 68.3999 70.4666V79.8H61.8666V77.3921C61.8729 75.1366 61.2487 72.9241 60.0645 71.0046C58.8803 69.085 57.1836 67.5346 55.1653 66.5279L53.4477 65.6787C53.4165 65.4125 53.2698 65.1733 53.0465 65.0254L50.6666 63.4291V62.2158C52.1832 61.5516 53.4965 60.4966 54.4724 59.1583C55.4482 57.8204 56.0512 56.2475 56.2199 54.6H56.7333C57.9003 54.6 58.9787 53.9775 59.5624 52.9667C60.1457 51.9559 60.1457 50.711 59.5624 49.7001C58.9786 48.6892 57.9003 48.0668 56.7333 48.0668H56.2666V46.2001C56.2633 45.0644 55.8449 43.9685 55.0904 43.1193C54.3358 42.2705 53.2971 41.7263 52.1691 41.5893C51.8129 40.7426 51.2145 40.0201 50.4491 39.5122C49.6837 39.0038 48.7853 38.733 47.8666 38.7334H38.5333C38.0179 38.7334 37.6 39.1513 37.6 39.6667V41.5334C37.6041 42.3517 37.8262 43.1538 38.2441 43.8576C37.8279 44.5684 37.6058 45.3763 37.6 46.2001V48.0667H37.1333C35.9663 48.0667 34.8879 48.6892 34.3042 49.7C33.7208 50.7108 33.7208 51.9558 34.3042 52.9667C34.8879 53.9775 35.9663 54.5999 37.1333 54.5999H37.6466C37.812 56.2483 38.4137 57.8229 39.3896 59.1616C40.3658 60.5004 41.6812 61.5546 43.2 62.2158V63.4291L40.8201 65.025V65.0254C40.5967 65.1733 40.4501 65.4125 40.4188 65.6787L38.7013 66.5375C36.6825 67.5408 34.985 69.0896 33.8009 71.0079C32.6167 72.9262 31.993 75.1375 32.0001 77.3921V80.7333C32.0001 81.9708 32.4917 83.1578 33.3667 84.0333C34.2421 84.9083 35.4292 85.4 36.6667 85.4H57.2C57.9371 85.4008 58.6638 85.2245 59.3187 84.8866C59.7921 85.2183 60.3554 85.397 60.9333 85.4H85.2C85.942 85.3979 86.6529 85.102 87.1775 84.5775C87.702 84.0529 87.9979 83.342 88 82.6V68.6C87.9983 68.1054 87.8012 67.6313 87.4516 67.2817C87.102 66.9322 86.6279 66.735 86.1333 66.7334L86.1332 66.7333ZM56.2666 49.9333H56.7333C57.5066 49.9333 58.1333 50.56 58.1333 51.3333C58.1333 52.1067 57.5066 52.7333 56.7333 52.7333H56.2666V49.9333ZM37.6 52.7333H37.1333C36.36 52.7333 35.7333 52.1067 35.7333 51.3333C35.7333 50.56 36.36 49.9333 37.1333 49.9333H37.6V52.7333ZM51.4229 66.1829L50.1908 69.8787L48.1654 68.3574L50.0321 65.2495L51.4229 66.1829ZM46.9337 66.7896L45.0671 63.672V62.8137C46.2992 63.0625 47.5683 63.0625 48.8004 62.8137V63.6725L46.9337 66.7896ZM52.5337 43.5683C53.0775 43.762 53.5487 44.1187 53.8825 44.5895C54.2167 45.0608 54.3975 45.6229 54.4004 46.2004V46.7513L52.5338 44.8846L52.5337 43.5683ZM39.4671 40.6004H47.8671C48.6091 40.6025 49.32 40.8983 49.8446 41.4229C50.3691 41.9475 50.665 42.6583 50.667 43.4004V44.3337H42.2671C41.525 44.3316 40.8142 44.0358 40.2896 43.5112C39.765 42.9866 39.4692 42.2758 39.4671 41.5337V40.6004ZM39.4671 46.2004C39.4667 45.9146 39.5137 45.6308 39.6071 45.3604C39.9896 45.6183 40.4079 45.8196 40.8484 45.9579L39.4671 47.0591L39.4671 46.2004ZM41.6604 58.9406C40.2483 57.5502 39.4575 55.649 39.4671 53.6673V49.4485L43.527 46.2006H51.2179L54.4004 49.3831V53.6673C54.3975 55.6469 53.61 57.5444 52.2104 58.9439C50.8109 60.3435 48.9134 61.131 46.9337 61.1339C44.9521 61.1435 43.0509 60.3527 41.6604 58.9406ZM43.835 65.2498L45.7016 68.3577L43.6762 69.879L42.4441 66.1832L43.835 65.2498ZM43.2004 83.5335H36.6671C35.925 83.5314 35.2142 83.2355 34.6896 82.711C34.165 82.1864 33.8692 81.4755 33.8671 80.7335V77.9335H37.6004V78.4843L36.0046 80.071L37.33 81.3964L38.9162 79.8001H43.2004C43.8675 79.8001 44.4837 80.156 44.817 80.7335C45.1504 81.311 45.1504 82.0227 44.817 82.6001C44.4837 83.1776 43.8674 83.5335 43.2004 83.5335ZM47.4562 83.5335H46.4112C46.7503 82.9697 46.9312 82.3247 46.9337 81.6668C46.9337 80.6768 46.5403 79.7272 45.8403 79.0268C45.1399 78.3268 44.1903 77.9335 43.2003 77.9335H39.467V74.2001H37.6003V76.0668H33.9603C34.3866 72.6777 36.482 69.7268 39.5416 68.208L40.9228 67.5172L42.3136 71.6984V71.6988C42.4103 71.9805 42.6357 72.1988 42.9203 72.2868C43.0099 72.3205 43.1049 72.3363 43.2003 72.3334C43.4019 72.3313 43.5978 72.2663 43.7603 72.1468L46.9336 69.7668L50.1069 72.1468C50.2694 72.2663 50.4653 72.3313 50.6669 72.3334C50.7623 72.3363 50.8573 72.3205 50.9469 72.2868C51.2315 72.1988 51.4569 71.9805 51.5536 71.6988L52.9444 67.5176L54.3256 68.1989C57.384 69.7239 59.4786 72.676 59.9069 76.0668H56.2669V74.2001H54.4002V77.9335H50.6669C49.6769 77.9335 48.7273 78.3268 48.0269 79.0268C47.3269 79.7272 46.9337 80.6768 46.9337 81.6668C46.9362 82.3247 47.1169 82.9697 47.456 83.5335H47.4562ZM59.0668 79.8001C58.5514 79.8001 58.1335 80.218 58.1335 80.7335V82.6001C58.1381 82.843 58.1726 83.0843 58.236 83.3189C57.9093 83.4605 57.5564 83.5335 57.2001 83.5335H50.6668C49.9997 83.5335 49.3835 83.1776 49.0502 82.6001C48.7169 82.0226 48.7169 81.3109 49.0502 80.7335C49.3835 80.156 49.9998 79.8001 50.6668 79.8001H54.951L56.5376 81.396L57.8631 80.0705L56.2668 78.4843V77.9335H60.0001V79.8001L59.0668 79.8001ZM71.2001 82.6001C71.2001 82.8476 71.1018 83.0851 70.9268 83.2601C70.7518 83.4351 70.5143 83.5335 70.2668 83.5335H60.9335C60.4181 83.5335 60.0001 83.1155 60.0001 82.6001V81.6668H71.2001V82.6001ZM71.2001 79.8001H70.2668V70.4668C70.2655 70.1393 70.3514 69.8172 70.5155 69.5335C70.6793 69.2497 70.9155 69.0147 71.2001 68.8522V79.8001ZM86.1334 82.6001C86.1334 82.8476 86.0351 83.0851 85.8601 83.2601C85.6851 83.4351 85.4476 83.5335 85.2001 83.5335H72.8993C73.0081 83.2343 73.0647 82.9185 73.0672 82.6001V81.6668H86.1339L86.1334 82.6001ZM86.1334 79.8001H73.0668V68.6001H86.1334V79.8001Z" fill="#515151"/>
<path d="M79.5968 77C80.3393 77 81.0519 76.705 81.5768 76.18C82.1017 75.655 82.3968 74.9425 82.3968 74.2001C82.3968 73.4577 82.1018 72.7451 81.5768 72.2201C81.0518 71.6952 80.3392 71.4001 79.5968 71.4001C78.8544 71.4001 78.1418 71.6951 77.6169 72.2201C77.092 72.7451 76.7969 73.4577 76.7969 74.2001C76.7969 74.9425 77.0919 75.6551 77.6169 76.18C78.1419 76.7049 78.8544 77 79.5968 77ZM79.5968 73.2667C79.9743 73.2667 80.3147 73.4942 80.4589 73.8429C80.6035 74.1917 80.5239 74.5929 80.2568 74.86C79.9897 75.1271 79.5885 75.2067 79.2397 75.0621C78.891 74.9179 78.6635 74.5775 78.6635 74.2C78.6635 73.6846 79.0814 73.2667 79.5968 73.2667Z" fill="#515151"/>
<path d="M85.2004 35.0001H64.6671C63.9246 35.0001 63.2121 35.2951 62.6872 35.8201C62.1623 36.3451 61.8672 37.0576 61.8672 37.8V52.7333C61.8672 53.4758 62.1622 54.1883 62.6872 54.7133C63.2122 55.2382 63.9247 55.5332 64.6671 55.5332H67.4671V60.1999C67.4671 60.5774 67.6942 60.9178 68.043 61.0624C68.1563 61.1095 68.278 61.1337 68.4005 61.1332C68.648 61.1332 68.8855 61.0349 69.0605 60.8599L74.3867 55.5332H85.2006C85.9431 55.5332 86.6556 55.2382 87.1805 54.7132C87.7054 54.1882 88.0005 53.4756 88.0005 52.7333V37.7999C88.0005 37.0574 87.7055 36.3449 87.1805 35.82C86.6555 35.2951 85.943 35 85.2006 35L85.2004 35.0001ZM86.1338 52.7334C86.1338 52.9809 86.0354 53.2184 85.8604 53.3934C85.6854 53.5684 85.4479 53.6667 85.2004 53.6667H74.0004C73.7529 53.6667 73.5154 53.765 73.3404 53.94L69.3338 57.9471V54.6C69.3338 54.3525 69.2355 54.115 69.0605 53.94C68.8855 53.765 68.648 53.6666 68.4005 53.6666H64.6672C64.1518 53.6666 63.7339 53.2487 63.7339 52.7333V37.8C63.7339 37.2846 64.1518 36.8667 64.6672 36.8667H85.2005C85.448 36.8667 85.6855 36.965 85.8605 37.14C86.0355 37.315 86.1338 37.5525 86.1338 37.8L86.1338 52.7334Z" fill="#515151"/>
<path d="M67.4648 38.7334H69.3315V40.6001H67.4648V38.7334Z" fill="#515151"/>
<path d="M71.2031 38.7334H82.4031V40.6001H71.2031V38.7334Z" fill="#515151"/>
<path d="M67.4648 42.4667H82.3982V44.3333H67.4648V42.4667Z" fill="#515151"/>
<path d="M67.4648 46.2001H82.3982V48.0667H67.4648V46.2001Z" fill="#515151"/>
<path d="M67.4648 49.9333H82.3982V51.8H67.4648V49.9333Z" fill="#515151"/>
<path d="M50.0209 57.1665L48.7859 55.7665C48.268 56.2036 47.6121 56.4436 46.9343 56.4436C46.2564 56.4436 45.6005 56.2036 45.0826 55.7665L43.8477 57.1665C44.7002 57.9181 45.7976 58.3332 46.9344 58.3332C48.0711 58.3332 49.1685 57.9182 50.0211 57.1665H50.0209Z" fill="#515151"/>
<path d="M45.0654 51.8C45.0654 52.8308 44.2295 53.6667 43.1987 53.6667C42.1679 53.6667 41.332 52.8308 41.332 51.8C41.332 50.7692 42.1679 49.9333 43.1987 49.9333C44.2295 49.9333 45.0654 50.7692 45.0654 51.8Z" fill="#515151"/>
<path d="M52.5302 51.8C52.5302 52.8308 51.6944 53.6667 50.6635 53.6667C49.6327 53.6667 48.7969 52.8308 48.7969 51.8C48.7969 50.7692 49.6327 49.9333 50.6635 49.9333C51.6944 49.9333 52.5302 50.7692 52.5302 51.8Z" fill="#515151"/>
</svg>
