<svg width="24" height="24" viewBox="0 0 24 24" fill="none" xmlns="http://www.w3.org/2000/svg">
<path d="M8.09 11.63H3.4C3.48 6.95997 4.4 6.18997 7.27 4.48997C7.6 4.28997 7.71 3.86997 7.51 3.52997C7.32 3.19997 6.89 3.08997 6.56 3.28997C3.18 5.28997 2 6.50997 2 12.32V17.71C2 19.42 3.39 20.8 5.09 20.8H8.09C9.85 20.8 11.18 19.47 11.18 17.71V14.71C11.18 12.96 9.85 11.63 8.09 11.63Z" fill="#8A8886"/>
<path d="M18.9086 11.63H14.2186C14.2986 6.95997 15.2186 6.18997 18.0886 4.48997C18.4186 4.28997 18.5286 3.86997 18.3286 3.52997C18.1286 3.19997 17.7086 3.08997 17.3686 3.28997C13.9886 5.28997 12.8086 6.50997 12.8086 12.33V17.72C12.8086 19.43 14.1986 20.81 15.8986 20.81H18.8986C20.6586 20.81 21.9886 19.48 21.9886 17.72V14.72C21.9986 12.96 20.6686 11.63 18.9086 11.63Z" fill="#8A8886"/>
</svg>
