<svg xmlns="http://www.w3.org/2000/svg" xmlns:xlink="http://www.w3.org/1999/xlink" viewBox="0 0 81 81" fill="#fff" fill-rule="evenodd" stroke="#000" stroke-linecap="round" stroke-linejoin="round"><use xlink:href="#A" x=".5" y=".5"/><symbol id="A" overflow="visible"><path d="M40 0C17.862 0 0 17.862 0 40s17.862 40 40 40 40-17.862 40-40S62.138 0 40 0zm34.235 37.212h-7.82c-.378-6.143-1.678-11.908-3.898-16.94 1.3-.756 2.599-1.489 3.733-2.41 4.466 5.198 7.442 11.908 7.986 19.35zM63.083 14.507c-.756.567-1.677 1.111-2.599 1.678-1.488-2.599-3.355-5.032-5.221-7.064 2.788 1.489 5.387 3.142 7.82 5.387zM42.788 7.253c5.387 1.11 10.23 5.033 13.585 10.797-4.087 1.678-8.742 2.788-13.585 3.166V7.253zm0 18.594c5.576-.378 10.986-1.489 15.641-3.733 1.867 4.465 2.977 9.498 3.355 14.885H42.811l-.023-11.152h0zm18.996 16.94c-.378 5.576-1.488 10.797-3.544 15.074-4.654-2.056-9.852-3.544-15.452-3.898V42.622H61.76v.166zm-43.544 0h18.972v11.341c-5.576.378-10.986 1.489-15.641 3.733-1.843-4.465-2.977-9.663-3.331-15.074zm0-5.576c.378-5.576 1.488-10.797 3.544-15.074 4.655 2.055 9.852 3.544 15.452 3.898v11.341H18.263v-.165zM37.212 7.253v13.963c-4.843-.378-9.309-1.488-13.396-3.355 3.355-5.6 8.175-9.498 13.396-10.608zM24.737 9.12c-1.866 1.867-3.544 4.088-5.032 6.71-.921-.567-1.677-1.11-2.41-1.677 2.245-1.89 4.843-3.733 7.442-5.033zM13.94 17.484c1.111.921 2.41 1.678 3.544 2.41-2.244 5.032-3.733 10.986-4.087 17.318h-7.82c.732-7.442 3.709-14.341 8.364-19.728zm-.354 25.304c.378 6.143 1.678 11.908 3.898 16.94-1.3.756-2.599 1.489-3.733 2.41-4.465-5.387-7.442-12.097-8.009-19.35h7.844zm3.332 22.705c.756-.567 1.677-1.111 2.599-1.678 1.488 2.599 3.355 5.032 5.221 7.064-2.788-1.465-5.387-3.331-7.82-5.387zm6.71-3.709c4.087-1.678 8.742-2.788 13.585-3.166v13.963c-5.41-.945-10.041-4.843-13.585-10.797zm19.161 10.963V58.783c4.843.378 9.309 1.489 13.396 3.355-3.331 5.599-8.175 9.498-13.396 10.608zm17.508-8.553c.921.567 1.677 1.111 2.41 1.677-2.245 2.055-4.844 3.71-7.443 5.033 1.867-1.867 3.544-4.3 5.033-6.71zm5.765-1.678c-1.11-.921-2.41-1.678-3.544-2.41 2.245-5.032 3.733-10.986 4.087-17.318h8.01c-.921 7.442-3.898 14.341-8.553 19.728z" fill="#0D2960" stroke="none"/></symbol></svg>