<?xml version="1.0" encoding="UTF-8"?>
<svg xmlns="http://www.w3.org/2000/svg" xmlns:xlink="http://www.w3.org/1999/xlink" viewBox="0 0 48 48" width="48px" height="48px">
<g id="surface15876910">
<path style=" stroke:none;fill-rule:nonzero;fill:rgb(100%,100%,100%);fill-opacity:1;" d="M 24 4 C 12.953125 4 4 12.953125 4 24 C 4 32.886719 9.800781 40.410156 17.820312 43.015625 L 30.179688 43.015625 C 38.199219 40.410156 44 32.886719 44 24 C 44 12.953125 35.046875 4 24 4 Z M 24 4 "/>
<path style=" stroke:none;fill-rule:nonzero;fill:rgb(0%,39.607844%,93.725491%);fill-opacity:1;" d="M 37 23.5 C 37 20.601562 36.125 18.535156 34.644531 17.074219 C 35.589844 15.394531 34.339844 12 34.339844 12 C 31.839844 12.5 29.972656 13.5 28.730469 14.375 C 27.261719 14.113281 25.671875 14 24 14 C 22.289062 14 20.660156 14.117188 19.164062 14.394531 C 17.925781 13.515625 16.050781 12.503906 13.535156 12 C 13.535156 12 12.25 15.492188 13.277344 17.144531 C 11.84375 18.601562 11 20.652344 11 23.5 C 11 29.621094 14.878906 32.078125 20.210938 32.773438 C 19.464844 33.648438 19 34.765625 19 36 L 19 36.304688 C 18.835938 36.351562 18.667969 36.390625 18.484375 36.414062 C 17.378906 36.554688 16.214844 36.414062 15.652344 36.078125 C 15.089844 35.746094 14.425781 34.996094 13.925781 34.265625 C 13.503906 33.652344 12.660156 32.234375 10.507812 32.289062 C 10.132812 32.277344 9.960938 32.632812 10.007812 32.851562 C 10.050781 33.046875 10.222656 33.351562 10.902344 33.601562 C 11.589844 33.851562 11.96875 34.453125 12.34375 35.058594 C 12.761719 35.734375 12.757812 37.527344 14.902344 38.476562 C 16.433594 39.152344 17.890625 39.070312 19 38.800781 L 19.003906 42 C 19.003906 42.640625 18.417969 43.125 17.8125 43.015625 C 19.753906 43.667969 21.832031 44 24 44 C 26.164062 44 28.242188 43.667969 30.191406 43.015625 C 29.585938 43.128906 29 42.640625 29 42.003906 L 29 36 C 29 34.765625 28.535156 33.648438 27.789062 32.773438 C 33.121094 32.078125 37 29.621094 37 23.5 Z M 37 23.5 "/>
<path style=" stroke:none;fill-rule:nonzero;fill:rgb(0%,39.607844%,93.725491%);fill-opacity:1;" d="M 15 18 L 18.839844 16.722656 C 19.847656 16.382812 20.070312 15.035156 19.203125 14.417969 L 19.164062 14.394531 C 16.765625 14.832031 14.722656 15.683594 13.277344 17.144531 C 13.597656 17.65625 14.128906 18 15 18 Z M 15 18 "/>
<path style=" stroke:none;fill-rule:nonzero;fill:rgb(0%,39.607844%,93.725491%);fill-opacity:1;" d="M 28.691406 14.402344 C 27.816406 15.023438 28.039062 16.390625 29.058594 16.730469 L 32.871094 18 C 33.785156 18 34.332031 17.628906 34.644531 17.074219 C 33.183594 15.636719 31.132812 14.800781 28.730469 14.375 C 28.71875 14.382812 28.703125 14.394531 28.691406 14.402344 Z M 28.691406 14.402344 "/>
<path style=" stroke:none;fill-rule:nonzero;fill:rgb(0%,39.607844%,93.725491%);fill-opacity:1;" d="M 24 31 C 22.476562 31 21.125 31.695312 20.210938 32.773438 C 21.410156 32.929688 22.679688 33 24 33 C 25.320312 33 26.589844 32.929688 27.789062 32.773438 C 26.875 31.695312 25.523438 31 24 31 Z M 24 31 "/>
</g>
</svg>
