<svg width="180" height="180" viewBox="0 0 180 180" fill="none" xmlns="http://www.w3.org/2000/svg">
<g filter="url(#filter0_d_57_35)">
<rect x="6" y="6" width="160" height="160" rx="30" fill="#0065EF"/>
<path d="M88.991 93.0907C89.0572 95.8178 88.7586 98.4782 88.0953 101.072C87.4982 103.666 86.6025 106.16 85.4083 108.555C84.2141 110.883 82.7213 113.078 80.9299 115.139C79.2047 117.135 77.2144 118.897 74.9587 120.427C70.248 123.62 65.073 125.449 59.4337 125.914C53.7943 126.314 48.4203 125.316 43.3116 122.921C40.8568 121.724 38.5678 120.261 36.4447 118.532C34.388 116.736 32.5635 114.74 30.9712 112.546C29.4452 110.351 28.1514 107.99 27.0899 105.462C26.0947 102.868 25.4644 100.208 25.199 97.4805C25.0747 96.483 25 95.4795 25 94.4742C25 94.4454 25 94.4165 25 94.3877V93.0907V52.1857C25 50.4564 25.5971 48.9931 26.7913 47.7959C27.9856 46.5987 29.4452 46 31.1702 46C32.8952 46 34.3548 46.5987 35.5491 47.7959C36.7433 48.9931 37.3404 50.4564 37.3404 52.1857V68.6474C37.3404 68.5846 37.3701 68.5254 37.4205 68.488C40.7827 65.9914 44.4714 64.1823 48.4866 63.0604C52.6001 61.8632 56.78 61.5306 61.026 62.0627C65.2058 62.5948 69.1533 63.925 72.8688 66.0534C76.5844 68.1154 79.7357 70.8424 82.3232 74.2345C84.3798 76.9616 85.9721 79.9547 87.1001 83.2136C88.2282 86.4062 88.8581 89.6986 88.991 93.0907ZM73.1674 105.163C75.8211 101.438 76.9825 97.2475 76.6506 92.5918C76.5177 90.1311 75.9206 87.803 74.8592 85.6081C73.7979 83.3468 72.4046 81.3514 70.6794 79.6219C69.8171 78.8238 68.8881 78.1254 67.8929 77.5268C66.9639 76.9282 65.9687 76.363 64.9073 75.8307C62.386 74.7 59.7656 74.1347 57.0453 74.1347C54.325 74.1347 51.7044 74.6669 49.1832 75.731C46.662 76.8619 44.4726 78.4247 42.6149 80.4201C40.7573 82.4155 39.364 84.6767 38.4351 87.2043C37.2409 90.5965 36.9755 94.0549 37.639 97.5803C38.3688 101.106 39.8947 104.231 42.2169 106.958C44.0082 109.087 46.1313 110.683 48.5861 111.747C49.1832 112.08 49.7803 112.379 50.3775 112.645C51.0409 112.911 51.7044 113.178 52.3678 113.443C51.8371 113.244 51.3063 113.044 50.7755 112.845C50.2447 112.579 49.714 112.313 49.1832 112.047C53.363 113.909 57.6757 114.208 62.1207 112.945C64.3764 112.346 66.4334 111.382 68.291 110.051C70.2152 108.721 71.8403 107.092 73.1674 105.163Z" fill="white"/>
<path d="M113 71.625C113 68.5184 110.313 66 107 66C103.687 66 101 68.5184 101 71.625V120.375C101 123.481 103.687 126 107 126C110.313 126 113 123.481 113 120.375V71.625Z" fill="white"/>
<path d="M107 62C110.313 62 113 59.3137 113 56C113 52.6863 110.313 50 107 50C103.687 50 101 52.6863 101 56C101 59.3137 103.687 62 107 62Z" fill="white"/>
<path d="M138 55.7C138 52.552 135.313 50 132 50C128.687 50 126 52.552 126 55.7V120.3C126 123.448 128.687 126 132 126C135.313 126 138 123.448 138 120.3V55.7Z" fill="white"/>
<path d="M141 66H123C119.687 66 117 68.6863 117 72C117 75.3137 119.687 78 123 78H141C144.313 78 147 75.3137 147 72C147 68.6863 144.313 66 141 66Z" fill="white"/>
</g>
<defs>
<filter id="filter0_d_57_35" x="0" y="0" width="180" height="180" filterUnits="userSpaceOnUse" color-interpolation-filters="sRGB">
<feFlood flood-opacity="0" result="BackgroundImageFix"/>
<feColorMatrix in="SourceAlpha" type="matrix" values="0 0 0 0 0 0 0 0 0 0 0 0 0 0 0 0 0 0 127 0" result="hardAlpha"/>
<feOffset dx="4" dy="4"/>
<feGaussianBlur stdDeviation="5"/>
<feComposite in2="hardAlpha" operator="out"/>
<feColorMatrix type="matrix" values="0 0 0 0 0 0 0 0 0 0 0 0 0 0 0 0 0 0 0.25 0"/>
<feBlend mode="normal" in2="BackgroundImageFix" result="effect1_dropShadow_57_35"/>
<feBlend mode="normal" in="SourceGraphic" in2="effect1_dropShadow_57_35" result="shape"/>
</filter>
</defs>
</svg>
