<svg width="28" height="28" viewBox="0 0 28 28" fill="none" xmlns="http://www.w3.org/2000/svg">
<circle cx="14" cy="14" r="14" fill="#5CA1FF"/>
<g clip-path="url(#clip0_4225_711)">
<path d="M15.8788 8.58492C14.6428 8.29772 13.3574 8.29772 12.1215 8.58492C11.4076 8.1471 10.8626 7.94589 10.4663 7.86096C10.2971 7.82278 10.124 7.80479 9.95061 7.80737C9.87171 7.80951 9.79318 7.81899 9.71604 7.83568L9.70592 7.8377L9.70188 7.83973H9.69885L9.83737 8.32607L9.69885 7.84074C9.62781 7.86081 9.56204 7.8962 9.50614 7.94441C9.45024 7.99262 9.40558 8.05249 9.37529 8.1198C9.07699 8.78785 9.02015 9.53882 9.21452 10.2441C8.71113 10.8542 8.4368 11.621 8.439 12.412C8.439 13.9822 8.90209 15.0378 9.69177 15.7163C10.2448 16.1915 10.9162 16.4443 11.5896 16.5889C11.4784 16.8973 11.4501 17.2239 11.4723 17.5575V18.1622C11.0608 18.2481 10.7757 18.2208 10.5724 18.1541C10.3187 18.0702 10.1235 17.9013 9.93646 17.6586C9.83867 17.5278 9.74756 17.3922 9.66346 17.2522L9.60582 17.1581C9.53305 17.0371 9.45753 16.9178 9.37934 16.8002C9.18722 16.5161 8.90209 16.1602 8.44102 16.0388L7.95165 15.9104L7.69482 16.8892L8.1842 17.0176C8.26509 17.0378 8.37025 17.1136 8.54315 17.3674C8.60685 17.4615 8.6665 17.5595 8.73526 17.6728L8.80401 17.784C8.89906 17.9377 9.00826 18.1076 9.13465 18.2734C9.39046 18.6071 9.73929 18.9438 10.257 19.1146C10.6109 19.2319 11.0133 19.2602 11.4723 19.1895V21.0772C11.4723 21.2113 11.5256 21.3399 11.6204 21.4347C11.7152 21.5295 11.8438 21.5828 11.9779 21.5828H16.0223C16.1564 21.5828 16.285 21.5295 16.3798 21.4347C16.4746 21.3399 16.5279 21.2113 16.5279 21.0772V17.4746C16.5279 17.1561 16.5137 16.8639 16.4237 16.5919C17.0941 16.4504 17.7604 16.1976 18.3105 15.7224C19.0991 15.0388 19.5612 13.9731 19.5612 12.3938V12.3928C19.5587 11.6083 19.2843 10.849 18.7847 10.2441C18.9788 9.53913 18.922 8.78857 18.6239 8.12082C18.5939 8.05342 18.5494 7.99342 18.4937 7.94504C18.438 7.89665 18.3723 7.86105 18.3014 7.84074L18.1629 8.32607C18.3014 7.84074 18.3004 7.84074 18.2994 7.84074L18.2973 7.83973L18.2933 7.8377L18.2842 7.83568C18.2592 7.82919 18.2339 7.82413 18.2084 7.82052C18.1554 7.81279 18.1021 7.8084 18.0486 7.80737C17.8752 7.80481 17.7021 7.8228 17.5329 7.86096C17.1376 7.94589 16.5926 8.1471 15.8788 8.58492Z" fill="white"/>
</g>
<defs>
<clipPath id="clip0_4225_711">
<rect width="15.1667" height="15.1667" fill="white" transform="translate(6.41699 6.41602)"/>
</clipPath>
</defs>
</svg>
