<svg width="16" height="17" viewBox="0 0 16 17" fill="none" xmlns="http://www.w3.org/2000/svg">
<path d="M11.6333 15.6668C10.8799 15.6668 10.0866 15.4868 9.26659 15.1402C8.46659 14.8002 7.65992 14.3335 6.87325 13.7668C6.09325 13.1935 5.33992 12.5535 4.62659 11.8535C3.91992 11.1402 3.27992 10.3868 2.71325 9.6135C2.13992 8.8135 1.67992 8.0135 1.35325 7.24016C1.00659 6.4135 0.833252 5.6135 0.833252 4.86016C0.833252 4.34016 0.926585 3.84683 1.10659 3.38683C1.29325 2.9135 1.59325 2.4735 1.99992 2.0935C2.51325 1.58683 3.09992 1.3335 3.72659 1.3335C3.98659 1.3335 4.25325 1.3935 4.47992 1.50016C4.73992 1.62016 4.95992 1.80016 5.11992 2.04016L6.66659 4.22016C6.80659 4.4135 6.91325 4.60016 6.98659 4.78683C7.07325 4.98683 7.11992 5.18683 7.11992 5.38016C7.11992 5.6335 7.04659 5.88016 6.90659 6.1135C6.80659 6.2935 6.65325 6.48683 6.45992 6.68016L6.00659 7.1535C6.01325 7.1735 6.01992 7.18683 6.02659 7.20016C6.10659 7.34016 6.26659 7.58016 6.57325 7.94016C6.89992 8.3135 7.20659 8.6535 7.51325 8.96683C7.90659 9.3535 8.23325 9.66016 8.53992 9.9135C8.91992 10.2335 9.16659 10.3935 9.31325 10.4668L9.29992 10.5002L9.78659 10.0202C9.99325 9.8135 10.1933 9.66016 10.3866 9.56016C10.7533 9.3335 11.2199 9.2935 11.6866 9.48683C11.8599 9.56016 12.0466 9.66016 12.2466 9.80016L14.4599 11.3735C14.7066 11.5402 14.8866 11.7535 14.9933 12.0068C15.0933 12.2602 15.1399 12.4935 15.1399 12.7268C15.1399 13.0468 15.0666 13.3668 14.9266 13.6668C14.7866 13.9668 14.6133 14.2268 14.3933 14.4668C14.0133 14.8868 13.5999 15.1868 13.1199 15.3802C12.6599 15.5668 12.1599 15.6668 11.6333 15.6668ZM3.72659 2.3335C3.35992 2.3335 3.01992 2.4935 2.69325 2.8135C2.38659 3.10016 2.17325 3.4135 2.03992 3.7535C1.89992 4.10016 1.83325 4.46683 1.83325 4.86016C1.83325 5.48016 1.97992 6.1535 2.27325 6.84683C2.57325 7.5535 2.99325 8.28683 3.52659 9.02016C4.05992 9.7535 4.66659 10.4668 5.33325 11.1402C5.99992 11.8002 6.71992 12.4135 7.45992 12.9535C8.17992 13.4802 8.91992 13.9068 9.65325 14.2135C10.7933 14.7002 11.8599 14.8135 12.7399 14.4468C13.0799 14.3068 13.3799 14.0935 13.6533 13.7868C13.8066 13.6202 13.9266 13.4402 14.0266 13.2268C14.1066 13.0602 14.1466 12.8868 14.1466 12.7135C14.1466 12.6068 14.1266 12.5002 14.0733 12.3802C14.0533 12.3402 14.0133 12.2668 13.8866 12.1802L11.6733 10.6068C11.5399 10.5135 11.4199 10.4468 11.3066 10.4002C11.1599 10.3402 11.0999 10.2802 10.8733 10.4202C10.7399 10.4868 10.6199 10.5868 10.4866 10.7202L9.97992 11.2202C9.71992 11.4735 9.31992 11.5335 9.01325 11.4202L8.83325 11.3402C8.55992 11.1935 8.23992 10.9668 7.88659 10.6668C7.56659 10.3935 7.21992 10.0735 6.79992 9.66016C6.47325 9.32683 6.14659 8.9735 5.80659 8.58016C5.49325 8.2135 5.26659 7.90016 5.12659 7.64016L5.04659 7.44016C5.00659 7.28683 4.99325 7.20016 4.99325 7.10683C4.99325 6.86683 5.07992 6.6535 5.24659 6.48683L5.74659 5.96683C5.87992 5.8335 5.97992 5.70683 6.04659 5.5935C6.09992 5.50683 6.11992 5.4335 6.11992 5.36683C6.11992 5.3135 6.09992 5.2335 6.06659 5.1535C6.01992 5.04683 5.94659 4.92683 5.85325 4.80016L4.30659 2.6135C4.23992 2.52016 4.15992 2.4535 4.05992 2.40683C3.95325 2.36016 3.83992 2.3335 3.72659 2.3335ZM9.29992 10.5068L9.19325 10.9602L9.37325 10.4935C9.33992 10.4868 9.31325 10.4935 9.29992 10.5068Z" fill="#8A8886"/>
</svg>
