<svg width="120" height="127" viewBox="0 0 120 127" fill="none" xmlns="http://www.w3.org/2000/svg">
<circle cx="60" cy="60" r="59.5" fill="white" stroke="#5CA1FF"/>
<path fill-rule="evenodd" clip-rule="evenodd" d="M83.3646 45.9907C83.3641 46.4322 83.0986 46.8294 82.6908 46.9989C82.2835 47.1678 81.8144 47.0748 81.5017 46.7636C81.1889 46.4523 81.0949 45.9832 81.2623 45.5749C81.4298 45.1672 81.8265 44.8997 82.2679 44.8981H82.275C82.8773 44.8992 83.3651 45.3884 83.3646 45.9907ZM44.7605 46.1326C44.76 46.5735 44.494 46.9707 44.0868 47.1392C43.679 47.3081 43.2104 47.2151 42.8981 46.9034C42.5864 46.5921 42.4924 46.1235 42.6598 45.7157C42.8277 45.3079 43.2244 45.0415 43.6654 45.0399H43.6709H43.6704C43.96 45.0399 44.2376 45.1551 44.4422 45.3602C44.6464 45.5654 44.761 45.8429 44.7605 46.1326ZM79.1207 45.3798C79.0543 45.1757 79.0714 44.9535 79.169 44.7614C79.266 44.5698 79.436 44.425 79.6401 44.3586L86.2369 42.2247C86.3164 42.1941 86.4004 42.1785 86.4858 42.179C86.8373 42.1805 87.149 42.4052 87.2607 42.7386L92.7779 59.7848C92.9142 60.2107 92.6819 60.6668 92.2575 60.8065L85.6607 62.941H85.6612C85.2358 63.0752 84.7818 62.8434 84.641 62.42L79.1207 45.3798ZM81.7428 61.3847C81.87 61.4747 81.9892 61.5708 82.1054 61.6678L78.1769 49.5446C76.7483 50.1178 75.1762 50.2279 73.6812 49.8603C73.5812 49.8276 73.4861 49.7824 73.3982 49.7246C71.2084 48.279 69.2646 47.668 67.6184 47.8929C62.5053 49.2676 57.882 52.0546 54.2793 55.9349C55.3025 58.1331 56.0854 58.3966 57.0488 58.0809L67.4674 54.6356C67.6766 54.5642 67.9024 54.5591 68.1145 54.6215C71.9263 55.7332 75.5847 57.0189 81.7407 61.3832L81.7428 61.3847ZM81.3979 65.8451V65.8456C81.6036 65.3644 81.6242 64.8244 81.4547 64.3297C81.2858 63.8349 80.9394 63.4201 80.4828 63.1652C74.7785 59.1155 71.3367 57.8495 67.8296 56.8097L57.7332 60.1508C57.3088 60.2951 56.8638 60.3711 56.4153 60.3756C53.76 60.3756 52.5045 57.3739 51.9896 56.146C51.8267 55.7604 51.9006 55.3149 52.1792 55.0021C54.5997 52.2674 57.4928 49.9901 60.7194 48.2792C59.8666 47.9574 58.9948 47.6808 58.1168 47.443C56.4707 47.2107 54.5259 47.8306 52.3361 49.2752H52.3366C52.2501 49.334 52.1546 49.3772 52.0535 49.4039C51.5386 49.5592 51.0037 49.6352 50.4662 49.6286C49.6033 49.6151 48.748 49.4723 47.9274 49.2048L43.4318 63.0948H43.4323C43.3327 63.4045 43.1819 63.6957 42.9863 63.9561C43.2518 64.562 43.6953 65.0729 44.2574 65.4218C44.2851 65.4414 44.3107 65.4606 44.3348 65.4792L44.3992 65.4606C45.5582 65.2318 46.7568 65.5611 47.6362 66.3495C48.5151 67.1379 48.9727 68.2938 48.8706 69.4704C49.5957 69.481 50.3016 69.7007 50.9045 70.1035C51.5069 70.5057 51.98 71.0744 52.2666 71.7401C53.1883 70.9341 54.4453 70.6284 55.6339 70.9221C56.823 71.2152 57.7934 72.0705 58.2344 73.2129C59.055 72.7297 60.0449 72.6276 60.947 72.9328C61.849 73.2375 62.5736 73.9198 62.9321 74.8018C63.2911 75.6837 63.2489 76.6783 62.816 77.526L64.986 78.6825C65.3219 78.8574 65.7126 78.8941 66.0751 78.7855C66.6287 78.6176 67.0264 78.1319 67.0817 77.5562C67.1375 76.9799 66.8399 76.4274 66.3285 76.1563L63.0195 74.3955H63.02C62.4891 74.1129 62.288 73.4537 62.5705 72.9228C62.8526 72.3923 63.5123 72.1907 64.0428 72.4733L67.3502 74.2311L68.9099 75.0597C69.362 75.2955 69.8889 75.3438 70.3767 75.195C70.8644 75.0461 71.2742 74.7113 71.5181 74.2633C71.7559 73.8107 71.8057 73.2828 71.6563 72.7941C71.507 72.3053 71.1706 71.895 70.7201 71.6532L67.3719 69.8707C66.8409 69.5876 66.6403 68.9279 66.9234 68.397C67.2059 67.8665 67.8656 67.6654 68.3965 67.9485L71.7443 69.731L73.7249 70.7849L73.7244 70.7854C74.1774 71.0212 74.7048 71.0695 75.1936 70.9201C75.6823 70.7753 76.0926 70.4404 76.3319 69.9899C76.5718 69.5384 76.6225 69.01 76.4737 68.5207C76.3244 68.0315 75.987 67.6212 75.536 67.3804L72.4357 65.7286L70.2073 64.5475C69.6748 64.265 69.4722 63.6043 69.7548 63.0718C70.0373 62.5393 70.698 62.3367 71.2305 62.6193L76.5628 65.4606L78.7898 66.6432C79.2418 66.8805 79.7692 66.9298 80.2574 66.7805C80.7457 66.6311 81.1554 66.2953 81.3973 65.8457L81.3979 65.8451ZM60.8081 76.6448L59.5892 78.463C59.2524 78.9658 58.5716 79.1006 58.0683 78.7632C57.5655 78.4263 57.4307 77.745 57.7681 77.2422L58.9849 75.4291V75.4296C59.1423 75.1797 59.3942 75.0042 59.6833 74.9429C59.9719 74.8811 60.2731 74.9389 60.519 75.1028C60.7644 75.2667 60.9338 75.5231 60.9876 75.8133C61.0419 76.1034 60.9765 76.4035 60.8066 76.6449L60.8081 76.6448ZM56.0444 75.4552L54.5591 77.6726C54.3263 78.0201 53.9633 78.2594 53.5515 78.3353C52.9265 78.4575 52.289 78.192 51.9355 77.6621C51.582 77.1321 51.5825 76.4413 51.9365 75.9112L53.4223 73.6938C53.6541 73.3454 54.0176 73.1065 54.4299 73.0321C54.5315 73.009 54.6355 72.9979 54.7396 72.9994C55.3199 73.0045 55.8503 73.3268 56.1218 73.8391C56.3938 74.3515 56.3631 74.9719 56.0419 75.4547L56.0444 75.4552ZM50.1334 74.1057L48.6452 76.3235C48.1459 77.0079 47.1955 77.1758 46.4921 76.7047C45.7887 76.233 45.5825 75.2903 46.0255 74.5682L46.7671 73.456L47.5103 72.3508H47.5108C47.7426 72.0009 48.1056 71.7595 48.5184 71.6816C48.6205 71.6615 48.724 71.6509 48.8281 71.6499C49.1384 71.6494 49.442 71.7409 49.7 71.9134C50.4235 72.4001 50.6166 73.3805 50.1319 74.1056L50.1334 74.1057ZM44.958 72.2419V72.2414C44.4678 72.9503 43.4994 73.1344 42.7829 72.6552C42.0664 72.176 41.8673 71.2106 42.3354 70.4865L43.8223 68.2691C44.0556 67.9211 44.4181 67.6803 44.8294 67.6004C44.9319 67.5802 45.0355 67.5697 45.1396 67.5687C45.4504 67.5672 45.7545 67.6612 46.01 67.8382C46.733 68.3224 46.9271 69.3008 46.4434 70.0238L45.2744 71.7716L44.9576 72.2412L44.958 72.2419ZM41.3589 62.4195C41.293 62.6241 41.1482 62.7936 40.9572 62.8916C40.7661 62.9892 40.5439 63.0068 40.3397 62.9404L33.7413 60.806C33.3175 60.6652 33.0852 60.2102 33.2204 59.7843L38.7398 42.738C38.8514 42.4047 39.1631 42.1799 39.5146 42.1784C39.599 42.1774 39.683 42.193 39.7615 42.2242L46.3604 44.3581C46.7862 44.4963 47.019 44.9539 46.8803 45.3793L41.3589 62.4195ZM85.4103 65.1627C84.9377 65.1602 84.4721 65.0456 84.0522 64.8284C83.9527 64.7796 83.8566 64.7233 83.7646 64.6609C83.8395 65.4237 83.6852 66.1915 83.3216 66.8663C82.9712 67.5254 82.4473 68.0765 81.8071 68.4602C81.1671 68.8443 80.4345 69.0465 79.6878 69.045C79.3675 69.0445 79.0482 69.0057 78.737 68.9293C78.7727 69.8349 78.5067 70.7258 77.9808 71.4635C77.4548 72.2011 76.6991 72.7437 75.8318 73.0052C75.4396 73.1269 75.0318 73.1892 74.621 73.1912C74.3857 73.1892 74.1504 73.1676 73.9181 73.1269C73.9714 74.045 73.714 74.954 73.1875 75.7083C72.6616 76.463 71.8969 77.0187 71.0169 77.2856C70.6248 77.4053 70.2165 77.4661 69.8067 77.4656C69.6247 77.4656 69.4437 77.4526 69.2637 77.4269C69.2632 78.1982 69.0143 78.9484 68.5547 79.5674C68.0951 80.1868 67.4485 80.6419 66.7109 80.8662C66.3655 80.9697 66.007 81.024 65.6465 81.0266C65.0592 81.0271 64.4805 80.8812 63.9631 80.6027L61.6169 79.3557L61.4012 79.6775V79.677C60.7903 80.5851 59.7677 81.1296 58.673 81.1296C57.5111 81.1221 56.4386 80.5036 55.8497 79.502C55.3298 79.9972 54.6792 80.3341 53.9748 80.4724C53.7315 80.5206 53.4836 80.5443 53.2352 80.5428C52.5036 80.5408 51.7886 80.3251 51.1777 79.9223C50.5673 79.5191 50.0877 78.9464 49.7985 78.2741C49.0418 78.9342 48.0523 79.2636 47.0511 79.1887C46.0501 79.1143 45.1204 78.6416 44.4697 77.8769C43.8196 77.1116 43.5028 76.1181 43.5903 75.1179C42.6847 75.1044 41.8149 74.7645 41.1401 74.1606C40.4654 73.5562 40.0314 72.7291 39.9178 71.831C39.8042 70.9325 40.0189 70.0235 40.5222 69.2707L42.0095 67.0533V67.0528C42.1005 66.9175 42.2001 66.7883 42.3072 66.6656C41.8235 66.2216 41.4232 65.6947 41.1246 65.1099C40.9481 65.1431 40.7691 65.1602 40.5896 65.1612C40.2774 65.1592 39.9671 65.1094 39.67 65.0129L33.0691 62.8759C32.3154 62.6325 31.6894 62.1001 31.3285 61.3951C30.9675 60.6902 30.9011 59.8706 31.1439 59.1169L36.6657 42.0707C36.9096 41.316 37.4436 40.6895 38.15 40.3285C38.8564 39.968 39.6775 39.9031 40.4318 40.1485L47.0331 42.2808C47.7868 42.5262 48.4129 43.0607 48.7734 43.7666C49.1339 44.4731 49.1998 45.2931 48.9559 46.0479L48.6039 47.133H48.6045C49.4617 47.4472 50.3875 47.5247 51.2854 47.3582C53.9101 45.6532 56.3406 44.9603 58.5068 45.2953C58.5465 45.3003 58.5857 45.3088 58.6239 45.3209C60.1886 45.7342 61.7162 46.2762 63.1919 46.9404C63.2548 46.9656 63.3141 46.9978 63.3689 47.037C64.5912 46.5357 65.8447 46.1128 67.1208 45.7704C67.159 45.7609 67.1977 45.7543 67.2369 45.7508C69.407 45.4169 71.8341 46.1113 74.4578 47.8077C75.4861 47.9852 76.5434 47.8671 77.5069 47.4678L77.0478 46.0469H77.0483C76.8045 45.2927 76.8703 44.4722 77.2304 43.7661C77.5909 43.0602 78.2169 42.5257 78.9706 42.2798L85.568 40.1459V40.1464C86.3222 39.9011 87.1427 39.9659 87.8493 40.3269C88.5557 40.6875 89.0897 41.3139 89.3335 42.0686L94.8558 59.1161C95.0987 59.8698 95.0328 60.6889 94.6728 61.3938C94.3123 62.0988 93.6873 62.6322 92.9341 62.8767L86.3296 65.0151C86.033 65.1111 85.7227 65.1609 85.4105 65.1619L85.4103 65.1627Z" fill="#515151"/>
<circle cx="60" cy="108" r="18" fill="#0065EF" stroke="white" stroke-width="2"/>
<path d="M61.8291 100.37C62.4678 100.37 63.1475 100.52 63.8682 100.818L63.3232 102.646C62.7725 102.418 62.1953 102.304 61.5918 102.304C60.8828 102.304 60.3232 102.535 59.9131 102.998C59.5029 103.455 59.292 104.082 59.2803 104.879C59.4326 105.225 59.7256 105.485 60.1592 105.661C60.5928 105.831 61.0908 105.916 61.6533 105.916C62.4736 105.916 63.1504 105.767 63.6836 105.468L64.1494 107.234C63.335 107.615 62.5117 107.806 61.6797 107.806C61.0059 107.806 60.376 107.659 59.79 107.366C59.21 107.067 58.7266 106.643 58.3398 106.092C58.6035 107.164 58.7852 108.236 58.8848 109.309C58.9844 110.381 59.0342 111.611 59.0342 113H57.0566C57.0566 110.68 56.8955 108.603 56.5732 106.769C56.2568 104.929 55.7148 103.027 54.9473 101.064L56.8984 100.405C57.4082 101.882 57.8799 103.013 58.3135 103.798C58.46 102.726 58.8438 101.888 59.4648 101.284C60.0859 100.675 60.874 100.37 61.8291 100.37Z" fill="white"/>
</svg>
