<svg width="24" height="24" viewBox="0 0 24 24" fill="none" xmlns="http://www.w3.org/2000/svg">
<path d="M15.9082 12.3699H20.5982C20.5182 17.0399 19.5982 17.8099 16.7282 19.5099C16.3982 19.7099 16.2882 20.1299 16.4882 20.4699C16.6882 20.7999 17.1082 20.9099 17.4482 20.7099C20.8282 18.7099 22.0082 17.4899 22.0082 11.6699V6.27994C22.0082 4.56994 20.6182 3.18994 18.9182 3.18994H15.9182C14.1582 3.18994 12.8282 4.51994 12.8282 6.27994V9.27994C12.8182 11.0399 14.1482 12.3699 15.9082 12.3699Z" fill="#8A8886"/>
<path d="M5.09 12.3699H9.78C9.7 17.0399 8.78 17.8099 5.91 19.5099C5.58 19.7099 5.47 20.1299 5.67 20.4699C5.87 20.7999 6.29 20.9099 6.63 20.7099C10.01 18.7099 11.19 17.4899 11.19 11.6699V6.27994C11.19 4.56994 9.8 3.18994 8.1 3.18994H5.1C3.33 3.18994 2 4.51994 2 6.27994V9.27994C2 11.0399 3.33 12.3699 5.09 12.3699Z" fill="#8A8886"/>
</svg>
