<svg width="40" height="40" viewBox="0 0 40 40" fill="none" xmlns="http://www.w3.org/2000/svg">
<path d="M20.0013 36.666L19.535 36.6596C10.5503 36.4124 3.33464 29.0434 3.33464 19.9993C3.33464 10.816 10.8013 3.33268 20.0013 3.33268C29.1846 3.33268 36.668 10.816 36.668 19.9993C36.668 29.1993 29.1846 36.666 20.0013 36.666ZM16.7013 26.666C17.2013 27.166 17.9846 27.166 18.468 26.666L24.2846 20.8827C24.518 20.6493 24.6513 20.3327 24.6513 19.9993C24.6513 19.666 24.518 19.3493 24.2846 19.116L18.468 13.3327C18.2346 13.0827 17.918 12.966 17.6013 12.966C17.268 12.966 16.9513 13.0827 16.7013 13.3327C16.218 13.8327 16.218 14.616 16.718 15.0993L21.6346 19.9993L16.718 24.8993C16.218 25.3827 16.218 26.1827 16.7013 26.666Z" fill="#0065EF"/>
</svg>
