<svg width="40" height="40" viewBox="0 0 40 40" fill="none" xmlns="http://www.w3.org/2000/svg">
<path d="M36.668 20.0007C36.668 29.1907 29.1913 36.6673 20.0013 36.6673C10.8113 36.6673 3.33463 29.1907 3.33463 20.0007C3.33463 10.8107 10.8113 3.33398 20.0013 3.33398C25.2146 3.33398 30.0296 5.70565 33.213 9.83732C33.6213 10.3673 33.5213 11.1307 32.993 11.5373C32.463 11.9473 31.703 11.8457 31.2913 11.3173C28.573 7.78232 24.4563 5.75732 20.0013 5.75732C12.148 5.75732 5.75797 12.1457 5.75797 20.0007C5.75797 27.854 12.148 34.2423 20.0013 34.2423C27.8546 34.2423 34.2446 27.854 34.2446 20.0007C34.2446 19.2723 34.1896 18.544 34.0813 17.8357C33.9813 17.1757 34.4346 16.5573 35.0963 16.4557C35.7613 16.3457 36.3763 16.8073 36.478 17.469C36.6046 18.299 36.668 19.1507 36.668 20.0007ZM23.291 13.3327C23.7776 13.8227 23.7776 14.6127 23.2876 15.0993L18.366 19.9993L23.2876 24.8993C23.7776 25.386 23.7776 26.1777 23.291 26.6677C22.8043 27.156 22.0126 27.1577 21.5226 26.671L15.7126 20.8843C15.476 20.651 15.3443 20.3327 15.3443 19.9993C15.3443 19.6677 15.476 19.3493 15.7126 19.1143L21.5226 13.3293C22.0126 12.841 22.8043 12.8427 23.291 13.3327Z" fill="#0065EF"/>
</svg>
