<svg width="40" height="36" viewBox="0 0 40 36" fill="none" xmlns="http://www.w3.org/2000/svg">
<path fill-rule="evenodd" clip-rule="evenodd" d="M35.9072 1.77146C33.6085 3.3118 32.4697 4.21915 29.6339 6.77231C27.2062 8.94569 27.2493 8.92459 26.5618 8.22826C25.1439 6.73013 19.9447 5.37967 18.4623 6.1604C17.7533 6.5191 17.8394 7.23653 18.5913 7.23653C20.6321 7.25763 22.5228 8.18606 24.1341 9.5154C25.5735 10.7181 25.5735 10.6548 23.5326 12.6382C21.3412 14.7483 18.226 18.2299 16.4858 20.4876L15.1538 22.2179L14.0366 20.5932C11.3941 16.7106 8.53681 14.7905 6.77513 15.6978C6.1306 16.0355 6.23803 16.2465 8.17157 18.2511C9.8688 20.0024 11.6305 22.4923 12.8765 24.9187C13.8862 26.8813 16.3784 26.8813 18.0757 24.0538C19.3003 22.0069 22.4583 18.1034 25.0578 15.4447L27.3782 13.0603L27.9367 14.2841C32.9211 25.2354 20.7611 37.9167 10.5348 32.4307C0.0936391 26.818 2.45686 8.81907 13.8434 7.21542C16.0777 6.89893 16.1205 6.16038 13.9077 5.88609C8.193 5.12646 0.888553 11.7731 0.115126 18.3988C-1.34579 31.0381 11.3512 39.2672 23.7689 33.76C31.3097 30.426 34.833 18.4409 30.171 12.1107C29.8274 11.6466 29.548 11.2035 29.548 11.0979C29.548 10.6548 33.3936 7.27871 37.4755 4.19803C42.0731 0.716436 39.6884 -0.760618 35.9072 1.77146Z" fill="#5CA1FF"/>
</svg>
