<svg width="88" height="88" viewBox="0 0 88 88" fill="none" xmlns="http://www.w3.org/2000/svg">
<g clip-path="url(#clip0_2716_2005)">
<path d="M58.3614 37.0131C58.7724 33.9991 58.7724 30.9852 58.2244 27.9712L63.9784 24.2722L60.4164 16.1893L53.8405 17.9703C52.0595 15.5043 49.8675 13.3124 47.2646 11.6684L48.7715 4.95545L40.5516 1.66748L37.1267 7.55842C34.1127 7.14742 31.0987 7.14742 28.0848 7.69542L24.3858 1.94148L16.1659 5.64044L17.9469 12.2164C15.4809 13.9974 13.2889 16.1893 11.6449 18.7923L4.93201 17.2853L1.64404 25.5052L7.53498 28.9302C7.12399 31.9442 7.12398 34.9581 7.67198 37.9721L1.91804 41.6711L5.617 49.754L12.1929 48.11C13.9739 50.576 16.1659 52.7679 18.7689 54.4119L17.2619 61.1249L25.4818 64.4128L28.9068 58.5219C31.9207 58.9329 34.9347 58.9329 37.9487 58.3849L41.6476 64.1388L49.7305 60.5769L48.0865 53.7269C50.5525 51.946 52.7445 49.754 54.3885 47.151L61.1014 48.658L64.3894 40.4381L58.3614 37.0131Z" fill="#FFDA2F"/>
<path d="M32.8796 48.7951C41.6564 48.7951 48.7714 41.6801 48.7714 32.9033C48.7714 24.1265 41.6564 17.0115 32.8796 17.0115C24.1028 17.0115 16.9878 24.1265 16.9878 32.9033C16.9878 41.6801 24.1028 48.7951 32.8796 48.7951Z" fill="white"/>
<path d="M43.2915 66.8785L66.8553 43.3147C72.0612 44.9587 77.9522 43.5887 82.1991 39.4788C86.3091 35.3688 87.5421 29.4779 86.0351 24.1349L74.1162 36.0538L63.9783 25.9159L75.8972 13.9971C70.6912 12.3531 64.8003 13.7231 60.5533 17.833C56.4434 21.943 55.2104 27.8339 56.7174 33.1768L33.0166 56.7406C27.8107 55.0966 21.9197 56.4666 17.6728 60.5766C13.5628 64.6865 12.3298 70.5775 13.8368 75.9204L25.7557 64.0015L35.8936 74.1394L23.9747 86.0583C29.1807 87.7023 35.0716 86.3323 39.3186 82.2223C43.5655 77.9754 44.7985 72.0844 43.2915 66.8785Z" fill="white"/>
<path d="M58.3613 62.6313L62.6083 58.2474L40.9625 36.6016L41.3735 32.7656L29.4546 25.2307L25.2076 29.4777L32.7426 41.5335L36.7155 40.9855L58.3613 62.6313Z" fill="white"/>
<path d="M67.9512 59.0699V56.878C67.9512 55.371 66.1703 54.686 65.0743 55.645L55.7584 64.9609C54.6624 66.0569 55.4844 67.8378 56.9914 67.8378H59.0463C60.4163 67.8378 61.7863 68.2488 62.8823 69.0708C63.0193 69.2078 63.1563 69.3448 63.2933 69.4818C64.6633 70.8518 65.2113 72.6328 65.0743 74.2768L65.3483 74.5508L74.5272 83.7297C76.9931 86.1956 81.1031 86.1956 83.7061 83.7297C86.309 81.1267 86.309 77.1537 83.7061 74.5508L74.5272 65.3719L74.2532 65.0979C72.6092 65.2349 70.8282 64.6869 69.4582 63.3169C69.3212 63.1799 69.1842 63.0429 69.0472 62.9059C68.2252 61.8099 67.9512 60.4399 67.9512 59.0699Z" fill="#F56565"/>
<path d="M74.9382 63.7283H74.2532C72.8832 63.8653 71.5132 63.3173 70.5543 62.3583C70.4173 62.2213 70.2803 62.0843 70.2803 61.9473C69.5953 61.1253 69.3213 60.1663 69.3213 58.9333V56.7413C69.3213 55.9193 69.0473 55.0973 68.4993 54.5494C67.4033 53.4534 65.3483 53.3164 64.2523 54.5494L62.6083 56.3303L59.1834 52.9054L67.2663 44.8225C68.6363 45.0965 70.0063 45.3705 71.3762 45.3705C75.8972 45.3705 80.0072 43.5895 83.1581 40.4385C87.5421 36.0545 89.0491 29.7526 87.2681 23.7247L86.5831 21.5327L73.9792 34.1366L65.7593 25.9167L78.3632 13.3128L76.1712 12.6278C74.6642 12.2168 73.0202 11.9428 71.3762 11.9428C67.8143 11.9428 64.3893 13.0388 61.5124 15.2308L61.2384 14.5458L54.3884 16.3268C52.7444 14.2718 50.9635 12.4908 48.9085 10.9838L50.4155 4.13388L40.0036 0.0239258L36.4416 6.05186C33.8386 5.77787 31.2357 5.77787 28.7697 6.18886L24.7967 0.297923L14.5218 4.81888L16.3028 11.6688C14.2478 13.3128 12.4669 15.0938 10.9599 17.1487L4.10996 15.6418L0 26.0537L6.02794 29.6156C5.75394 32.2186 5.75394 34.8216 6.16494 37.2875L0.273997 41.1235L4.79495 51.3984L11.6449 49.6174C13.2889 51.6724 15.0698 53.4534 17.1248 54.9604L15.8918 60.5773C12.1929 64.8242 10.9599 70.7152 12.6039 76.1951L13.2889 78.3871L25.8927 65.7832L34.1126 74.0031L21.5088 86.607L23.7008 87.292C25.2077 87.703 26.8517 87.977 28.4957 87.977C33.0167 87.977 37.1266 86.196 40.2776 83.0451C44.3875 78.9351 46.0315 72.9072 44.6615 67.1532L52.8814 58.9333L56.3064 62.3583L54.7994 63.8653C53.9774 64.6872 53.7034 66.0572 54.1144 67.1532C54.5254 68.2492 55.6214 69.0712 56.9914 69.0712H59.1834C60.2794 69.0712 61.3754 69.3452 62.1973 70.0302C62.3343 70.1672 62.4713 70.1672 62.6083 70.3042C63.7043 71.2632 64.1153 72.6332 63.9783 74.0031V74.6881L73.8422 84.552C75.3492 86.059 77.2672 86.881 79.3222 86.881C81.3771 86.881 83.4321 86.059 84.9391 84.552C87.9531 81.5381 88.0901 76.4691 84.9391 73.4552L74.9382 63.7283ZM73.0202 14.8198L61.9233 25.9167L74.1162 38.1095L85.2131 27.0126C85.7611 31.2596 84.2541 35.5066 81.2401 38.5205C78.6372 41.1235 75.0752 42.6305 71.3762 42.6305C70.0063 42.6305 68.6363 42.4935 67.2663 42.0825L66.4443 41.8085L57.2654 50.9874L49.0455 42.7675L58.2244 33.5886L57.9504 32.7666C56.4434 27.8346 57.8134 22.4917 61.3754 18.7927C63.9783 16.1898 67.5403 14.6828 71.2393 14.6828C71.9242 14.6828 72.4722 14.6828 73.0202 14.8198ZM13.2889 47.2884L12.7409 46.4664L6.43893 48.1104L3.83596 42.0825L9.3159 38.5205L9.1789 37.5615C8.63091 34.6846 8.49391 31.8076 9.0419 28.9306L9.1789 27.9716L3.56196 24.6837L5.89094 18.6557L12.3299 20.0257L12.8779 19.2037C14.5218 16.7377 16.4398 14.6828 18.7688 13.0388L19.5908 12.4908L17.9468 6.18886L23.9747 3.58589L27.5367 9.06583L28.4957 8.92883C31.2357 8.38084 34.2496 8.24384 37.1266 8.79183L38.0856 8.92883L41.3736 3.31189L47.4015 5.64087L46.0315 12.0798L46.8535 12.6278C49.3195 14.2718 51.3745 16.1898 53.0184 18.5187L53.5664 19.3407L58.7724 17.9707C55.3474 22.0807 54.1144 27.4236 55.4844 32.6296L47.4015 40.7125L42.7435 36.0545L43.1545 31.9446L29.4547 23.4507L23.4268 29.3416L32.0577 42.9045L36.3046 42.3565L40.9626 46.8774L32.8797 54.9604C31.5097 54.6864 30.1397 54.4124 28.7697 54.4124C25.4817 54.4124 22.3308 55.3713 19.5908 57.1523L20.4128 53.4534L19.5908 52.9054C16.9878 51.6724 14.9328 49.6174 13.2889 47.2884ZM41.6476 66.4682L41.9216 67.2902C43.4285 72.2222 42.0586 77.5651 38.4966 81.2641C35.8936 83.867 32.3317 85.374 28.6327 85.374C28.0847 85.374 27.5367 85.374 26.9887 85.237L38.0856 74.1402L25.8927 61.9473L14.7958 73.0442C14.2479 68.7972 15.7548 64.5502 18.7688 61.5363C21.3718 58.9333 24.9337 57.4263 28.6327 57.4263C30.0027 57.4263 31.3727 57.5633 32.7427 57.9743L33.5646 58.2483L42.8805 48.9324L51.1005 57.1523L41.6476 66.4682ZM37.2636 39.4795L33.4276 40.0275L26.9887 29.7526L29.7287 27.0126L40.0036 33.4516L39.5926 37.1505L60.6904 58.2483L58.3614 60.5773L37.2636 39.4795ZM82.7471 82.6341C80.8292 84.552 77.4042 84.552 75.4862 82.6341L66.5813 73.7291C66.5813 71.8112 65.7593 69.8932 64.3893 68.5232C64.2523 68.3862 63.9783 68.1122 63.8413 67.9752C62.6083 67.0162 60.9644 66.4682 59.0464 66.4682H56.9914C56.8544 66.4682 56.7174 66.4682 56.7174 66.3312C56.7174 66.1942 56.7174 66.0572 56.7174 66.0572L58.2244 64.5502L64.5263 58.2483L66.0333 56.7413C66.1703 56.6043 66.3073 56.6043 66.4443 56.7413L66.5813 56.8783V59.0703C66.5813 60.8513 67.1293 62.4953 68.2253 63.8653C68.3623 64.0023 68.4993 64.2763 68.7733 64.4132C70.1433 65.7832 72.0612 66.6052 73.9792 66.6052L82.8841 75.5101C84.8021 77.4281 84.8021 80.7161 82.7471 82.6341Z" fill="#141414"/>
<path d="M38.8924 59.074L40.8298 61.0115L42.7673 59.074L40.8298 57.1366L38.8924 59.074Z" fill="#141414"/>
<path d="M59.1805 38.8619L57.243 40.7993L59.1805 42.7367L61.1179 40.7993L59.1805 38.8619Z" fill="#141414"/>
</g>
<defs>
<clipPath id="clip0_2716_2005">
<rect width="88" height="88" fill="white"/>
</clipPath>
</defs>
</svg>
