<svg width="87" height="87" viewBox="0 0 87 87" fill="none" xmlns="http://www.w3.org/2000/svg">
<g clip-path="url(#clip0_2716_1936)">
<path d="M43.5001 86.9999C42.5489 86.9999 41.5977 86.9999 40.6465 86.8641L40.7824 84.1464C41.5977 84.1464 42.5489 84.2823 43.3642 84.2823V86.9999H43.5001ZM37.9289 86.5923C36.9777 86.4564 36.0265 86.3205 35.2112 86.1846L35.7547 83.467C36.57 83.6029 37.5212 83.7387 38.3365 83.8746L37.9289 86.5923ZM32.3576 85.6411C31.4065 85.3693 30.5912 85.0976 29.64 84.8258L30.4553 82.244C31.2706 82.5158 32.0859 82.7876 33.0371 83.0593L32.3576 85.6411ZM27.0582 83.8746C26.2429 83.467 25.2917 83.1952 24.4764 82.7876L25.6993 80.3416C26.5146 80.7493 27.3299 81.0211 28.1453 81.4287L27.0582 83.8746ZM22.0305 81.2928C21.2152 80.8852 20.3999 80.3417 19.5846 79.7981L21.0793 77.4881C21.7587 78.0316 22.574 78.4393 23.3893 78.8469L22.0305 81.2928ZM17.4104 78.3034C16.731 77.7599 15.9157 77.2163 15.2363 76.5369L17.0028 74.4986C17.6822 75.0422 18.3616 75.5857 19.041 76.1293L17.4104 78.3034ZM13.0622 74.6345C12.3827 73.9551 11.7033 73.2757 11.1598 72.5963L13.1981 70.8298C13.7416 71.5092 14.421 72.0527 14.9645 72.7322L13.0622 74.6345ZM9.39331 70.4221C8.84977 69.7427 8.30624 68.9274 7.7627 68.1121L9.93684 66.6174C10.4804 67.2968 10.888 67.9762 11.4316 68.7915L9.39331 70.4221ZM6.1321 65.8021C5.58856 64.9868 5.18091 64.1715 4.77326 63.3562L7.21917 62.1332C7.62682 62.9485 8.03447 63.628 8.44212 64.4433L6.1321 65.8021ZM3.55031 60.9103C3.14266 60.095 2.87089 59.1438 2.46324 58.3285L5.04503 57.3773C5.45268 58.1926 5.72445 59.0079 6.1321 59.8232L3.55031 60.9103ZM1.64794 55.6108C1.37617 54.6596 1.1044 53.8443 0.96852 52.8932L3.68619 52.3496C3.82208 53.1649 4.09384 54.1161 4.36561 54.9314L1.64794 55.6108ZM0.560869 50.1755C0.424985 49.2243 0.289101 48.2731 0.289101 47.4578L3.00677 47.186C3.14266 48.0013 3.14266 48.9525 3.27854 49.7678L0.560869 50.1755ZM0.017334 44.4684C0.017334 44.1966 0.017334 43.789 0.017334 43.5172C0.017334 42.9737 0.017334 42.2942 0.017334 41.7507L2.73501 41.8866C2.73501 42.4301 2.73501 42.9737 2.73501 43.5172C2.73501 43.789 2.73501 44.1966 2.73501 44.4684H0.017334ZM3.00677 39.1689L0.289101 38.8971C0.424985 37.946 0.560869 36.9948 0.696752 36.1795L3.41443 36.5871C3.14266 37.5383 3.00677 38.3536 3.00677 39.1689ZM3.82208 34.0053L1.24029 33.3259C1.51205 32.3747 1.64794 31.5594 1.91971 30.6082L4.5015 31.4235C4.22973 32.3747 4.09384 33.19 3.82208 34.0053ZM5.45268 28.9776L2.87089 28.0265C3.14266 27.2112 3.55031 26.26 3.95796 25.4447L6.40387 26.5317C5.99621 27.347 5.72445 28.1623 5.45268 28.9776ZM7.62682 24.2217L5.18091 22.9988C5.58856 22.1835 6.1321 21.3682 6.53975 20.5529L8.84977 22.0476C8.44212 22.727 8.03447 23.4064 7.62682 24.2217ZM10.3445 19.7376L8.17035 18.2428C8.71389 17.4275 9.25742 16.7481 9.93684 16.0687L11.9751 17.6993C11.4316 18.3787 10.888 19.0581 10.3445 19.7376ZM13.7416 15.661L11.7033 13.7587C12.3827 13.0793 13.0622 12.3998 13.7416 11.7204L15.644 13.7587C14.9645 14.4381 14.2851 15.1175 13.7416 15.661ZM17.5463 12.1281L15.7798 10.0898C16.4593 9.54628 17.2746 8.86686 17.954 8.32333L19.5846 10.4975C18.9052 11.041 18.2257 11.5845 17.5463 12.1281ZM21.7587 9.00274L20.3999 6.69272C21.2152 6.14919 22.0305 5.74154 22.8458 5.33389L24.2046 7.77979C23.2534 8.05156 22.574 8.59509 21.7587 9.00274ZM26.3788 6.55684L25.2917 4.11093C26.107 3.70328 27.0582 3.29563 27.8735 3.02386L28.8247 5.46977C28.0094 5.87742 27.1941 6.14919 26.3788 6.55684ZM31.2706 4.65447L30.4553 2.07268C31.4065 1.80091 32.2218 1.52914 33.1729 1.25738L33.8524 3.83917C33.0371 4.11093 32.0859 4.3827 31.2706 4.65447ZM36.4342 3.43151L36.0265 0.713842C36.9777 0.577958 37.9289 0.442075 38.7442 0.306191L39.0159 3.02386C38.0648 3.15975 37.2495 3.29563 36.4342 3.43151ZM41.5977 2.7521L41.4619 0.0344238C42.1413 0.0344238 42.8207 0.0344238 43.5001 0.0344238V2.7521C42.8207 2.7521 42.2772 2.7521 41.5977 2.7521Z" fill="#141414"/>
<path d="M71.2204 63.6279H43.9078V77.0804H71.2204V63.6279Z" fill="white"/>
<path d="M72.5793 78.3033H42.549V62.269H72.5793V78.3033ZM45.2666 75.5856H69.8616V64.8508H45.2666V75.5856Z" fill="#141414"/>
<path d="M66.0568 77.3523H48.9354V81.4288C48.9354 83.7388 50.8378 85.6412 53.1478 85.6412H61.7085C64.0185 85.6412 65.9209 83.7388 65.9209 81.4288V77.3523H66.0568Z" fill="white"/>
<path d="M61.8444 87.0002H53.2838C50.1584 87.0002 47.7125 84.4184 47.7125 81.429V75.9937H67.5515V81.429C67.4156 84.5543 64.9697 87.0002 61.8444 87.0002ZM50.2943 78.7113V81.429C50.2943 83.0596 51.6531 84.2826 53.1479 84.2826H61.7085C63.3391 84.2826 64.5621 82.9237 64.5621 81.429V78.7113H50.2943Z" fill="#141414"/>
<path d="M85.624 29.9292C85.624 13.6232 72.3074 0.578364 56.1373 1.39367C42.2771 2.07308 30.727 13.3514 29.5041 27.3474C28.9605 34.5493 30.8629 41.0717 34.6676 46.3711C39.1518 52.7577 42.413 52.6218 43.3642 60.503L43.7718 63.4925H71.0845L71.3562 61.3183C72.4433 53.1653 75.7045 52.8936 80.4604 46.0994C83.7216 41.6152 85.624 36.044 85.624 29.9292Z" fill="white"/>
<path d="M72.4432 64.9867H42.6847L42.1412 60.7743C41.4618 56.0184 40.1029 54.6595 37.7929 52.3495C36.5699 51.1265 35.2111 49.6318 33.5805 47.3218C29.504 41.6147 27.6016 34.4129 28.1452 27.3469C29.504 12.5356 41.4618 0.849599 56.0013 0.034297C72.9868 -0.781005 86.9828 12.9432 86.9828 29.9287C86.9828 36.0435 85.2163 42.0223 81.6833 47.05C80.0527 49.3601 78.6939 50.8548 77.4709 52.2136C75.025 54.9313 73.5303 56.5619 72.8509 61.5896L72.4432 64.9867ZM44.9947 62.269H69.9973L70.1332 61.3178C70.9485 55.3389 72.8509 53.1648 75.4327 50.4471C76.6556 49.0883 78.0145 47.7295 79.5092 45.5553C82.6345 40.9353 84.2651 35.4999 84.2651 29.9287C84.2651 14.438 71.492 2.07255 56.1372 2.75197C42.8206 3.43139 31.9499 14.0303 30.8628 27.4828C30.3193 34.0052 32.0858 40.3917 35.7546 45.6912C37.2494 47.7295 38.6082 49.0883 39.6953 50.3112C42.1412 52.7571 44.0435 54.6595 44.723 60.3666L44.9947 62.269Z" fill="#141414"/>
<path d="M74.8891 62.269H40.1029V64.9867H74.8891V62.269Z" fill="#141414"/>
<path d="M74.8891 68.9272H40.1029V71.6449H74.8891V68.9272Z" fill="#141414"/>
<path d="M74.8891 75.5857H40.1029V78.3034H74.8891V75.5857Z" fill="#141414"/>
<path d="M36.57 24.0856C35.483 28.5698 35.8906 33.0539 37.5212 37.1304L14.6928 48.4088C11.4316 49.9035 10.2086 53.8441 11.9751 56.9695C13.8775 59.9589 17.954 60.7742 20.8075 58.4642L41.326 43.2452C45.4025 47.8652 51.5172 50.8547 58.7191 50.5829C68.2309 50.3111 76.2481 43.3811 78.5581 34.141C81.1399 22.5909 74.0739 10.9049 62.5238 8.18722C50.9737 5.33366 39.4236 12.5355 36.57 24.0856Z" fill="#FFDA2F"/>
<path d="M55.4579 40.6636L55.8655 43.3813L59.942 43.2454L60.2138 40.3919C61.8444 39.9842 63.3391 39.3048 64.5621 38.4895L66.8721 40.1201L69.7256 37.1307L67.9592 35.0924C68.7745 33.7336 69.4539 32.2389 69.7256 30.6083L72.4433 30.2006L72.3074 26.1241L69.5898 25.8523C69.1821 24.2217 68.5027 22.727 67.6874 21.3682L69.318 19.0581L66.3286 16.3405L64.1544 18.107C62.7956 17.2917 61.3009 16.6122 59.6703 16.3405L59.2626 13.6228L55.1861 13.7587L54.9143 16.6122C53.2837 17.0199 51.789 17.6993 50.5661 18.5146L48.256 16.884L45.4025 19.8734L47.169 22.0476C46.3537 23.4064 45.6743 24.9011 45.4025 26.5317L42.6848 26.9394L42.8207 31.0159L45.5384 31.2877C45.946 32.9183 46.6254 34.413 47.4407 35.6359L45.8101 37.946L48.7996 40.7995L50.9737 39.033C52.3325 39.8483 53.8273 40.3919 55.4579 40.6636Z" fill="white"/>
<path d="M63.2032 26.5319C62.1162 23.4065 58.7191 21.7759 55.5938 22.863C52.4684 23.9501 50.8378 27.3472 51.9249 30.4725C53.012 33.5978 56.4091 35.2284 59.5344 34.1413C62.6597 33.0543 64.2903 29.6572 63.2032 26.5319Z" fill="white"/>
<path d="M57.4961 35.9078C54.3708 35.9078 51.6531 34.0055 50.566 31.016C49.2072 27.2113 51.2454 22.9989 55.0502 21.6401C55.8655 21.3683 56.6808 21.2324 57.4961 21.2324C60.6214 21.2324 63.3391 23.1348 64.4262 26.1242C65.785 29.929 63.7467 34.1414 59.942 35.5002C59.1267 35.772 58.3114 35.9078 57.4961 35.9078ZM57.4961 23.9501C56.9526 23.9501 56.409 24.086 56.0014 24.2219C53.5555 25.0372 52.3325 27.7548 53.1478 30.0649C53.8272 31.9672 55.5937 33.1902 57.4961 33.1902C58.0396 33.1902 58.5832 33.0543 58.9908 32.9184C61.4367 32.1031 62.6597 29.3854 61.8444 27.0754C61.1649 25.173 59.5343 23.9501 57.4961 23.9501Z" fill="#141414"/>
</g>
<defs>
<clipPath id="clip0_2716_1936">
<rect width="87" height="87" fill="white"/>
</clipPath>
</defs>
</svg>
